<svg id="OBJECTS" xmlns="http://www.w3.org/2000/svg" viewBox="0 0 396.1 406.9"><defs><style>.cls-1{fill:#ffeedb;}.cls-2{fill:#cfb091;}.cls-3{fill:#8dc63f;}.cls-4{fill:#7cb332;}.cls-5{fill:#1c75bc;}.cls-6{fill:#155f99;}.cls-7{fill:#808285;}.cls-8{fill:#bcbec0;}.cls-9{fill:#d1d3d4;}.cls-10{fill:#519bd6;}.cls-11{fill:#fff;}.cls-12{fill:#e6e7e8;}.cls-13{fill:#39b54a;}.cls-14{fill:#092942;}.cls-15{fill:#fbb040;}.cls-16{fill:#f98c6e;}.cls-17{fill:#9c681c;}.cls-18{fill:#231f20;opacity:0.25;}.cls-19{fill:#e67a5c;}.cls-20{fill:#051d2e;}.cls-21{fill:#0e4066;}.cls-22{fill:#d1684b;}.cls-23{fill:#92c6f0;}.cls-24{fill:#a6d7ff;}</style></defs><path class="cls-1" d="M387.39,347.69a180.44,180.44,0,0,0,43.74-118c0-100-81.1-181.12-181.13-181.12S68.87,129.62,68.87,229.65a180.44,180.44,0,0,0,43.74,118Z" transform="translate(-39.07 -30.65)"/><ellipse class="cls-2" cx="103.61" cy="370.72" rx="37.11" ry="8.43"/><path class="cls-2" d="M378.5,409.59c-7.73,0-15.1.23-21.81.64,4.68-1.3,7.35-2.8,7.35-4.39,0-5.08-27.15-9.2-60.63-9.2s-60.63,4.12-60.63,9.2,27.14,9.2,60.63,9.2c8.59,0,16.76-.27,24.17-.76-3.68,1.11-5.74,2.35-5.74,3.67,0,4.61,25.37,8.35,56.66,8.35s56.67-3.74,56.67-8.35S409.8,409.59,378.5,409.59Z" transform="translate(-39.07 -30.65)"/><path class="cls-2" d="M215,414.3l-3.34,0c2.15-1,3.34-2.06,3.34-3.18,0-4.95-23-9-51.28-9s-51.29,4-51.29,9,22.78,8.93,50.95,9c-5.11,1.71-8,3.7-8,5.83,0,6.42,26.71,11.62,59.67,11.62s59.67-5.2,59.67-11.62S248,414.3,215,414.3Z" transform="translate(-39.07 -30.65)"/><ellipse class="cls-2" cx="382.43" cy="370.57" rx="12.25" ry="3.42"/><path class="cls-2" d="M401.08,395.25c0,.76-2.46,1.39-5.5,1.39s-5.5-.63-5.5-1.39,2.47-1.39,5.5-1.39S401.08,394.48,401.08,395.25Z" transform="translate(-39.07 -30.65)"/><ellipse class="cls-2" cx="188" cy="366.92" rx="6.05" ry="1.75"/><path class="cls-2" d="M254.75,391.62c0,.73-1.71,1.32-3.81,1.32s-3.82-.59-3.82-1.32,1.71-1.32,3.82-1.32S254.75,390.89,254.75,391.62Z" transform="translate(-39.07 -30.65)"/><path class="cls-3" d="M105.57,392.05c-5.86-16.8-11.79-33.74-21.06-48.93s-22.25-28.69-38.73-35.41c5.62,21.36,11.15,43.88,25.62,60.56C80.68,379,92.92,385.66,105.57,392.05Z" transform="translate(-39.07 -30.65)"/><path class="cls-4" d="M99.7,378.18c-3.73-7-7.56-13.86-11.63-20.62q-3.39-5.61-7-11.08c-5.22-7.8-11.16-15.54-19.44-20,3.28,8.67,6.56,17.34,10.2,25.87,2.86,6.68,6,13.33,10.27,19.19a73.83,73.83,0,0,0,12.38,12.85c2.31,1.92,4.69,3.75,7.1,5.53a.39.39,0,0,1,.1.08l3.92,2c-1-2.76-1.93-5.51-2.91-8.27Q101.19,381,99.7,378.18Z" transform="translate(-39.07 -30.65)"/><path class="cls-3" d="M99.3,387.76c-8.56-7.72-17.2-15.5-27.2-21.24s-21.57-9.37-33-8c9.85,10.38,20,21.45,33.42,26.42C81.09,388.08,90.13,388.07,99.3,387.76Z" transform="translate(-39.07 -30.65)"/><path class="cls-4" d="M91.65,381.71c-4.29-2.79-8.61-5.52-13-8.09q-3.68-2.14-7.44-4.11c-5.4-2.8-11.18-5.35-17.26-5.28,4.56,3.91,9.13,7.81,13.85,11.52a62.28,62.28,0,0,0,11.81,7.71,48.44,48.44,0,0,0,11,3.44c1.9.37,3.83.67,5.75.93h.08l2.85-.08q-2.1-1.9-4.22-3.79Z" transform="translate(-39.07 -30.65)"/><path class="cls-3" d="M94.25,350c-.42-11.52-.85-23.14-3.69-34.31s-8.29-22-17.21-29.32c-.6,14.3-1.48,29.29,4.29,42.38C81.34,337.16,87.64,343.64,94.25,350Z" transform="translate(-39.07 -30.65)"/><path class="cls-4" d="M93.26,340.3c-1-5-2-10-3.26-15-.68-2.75-1.42-5.49-2.23-8.2-1.74-5.83-3.94-11.75-8.22-16.07.37,6,.75,12,1.37,18a62.52,62.52,0,0,0,2.69,13.85,48,48,0,0,0,5.21,10.31c1.06,1.64,2.18,3.22,3.34,4.79l0,.06c.67.67,1.35,1.33,2,2-.07-1.89-.14-3.78-.22-5.67C93.78,343,93.53,341.64,93.26,340.3Z" transform="translate(-39.07 -30.65)"/><path class="cls-3" d="M296.46,369.18c6.89-9.24,13.82-18.58,18.61-29.07s7.3-22.35,4.92-33.63c-9.42,10.77-19.49,21.92-23.18,35.74C294.44,351.08,295.3,360.08,296.46,369.18Z" transform="translate(-39.07 -30.65)"/><path class="cls-4" d="M301.77,361c2.38-4.52,4.7-9.08,6.84-13.72q1.78-3.86,3.39-7.8c2.29-5.63,4.28-11.63,3.64-17.67-3.46,4.91-6.92,9.82-10.17,14.87a62,62,0,0,0-6.57,12.48,48,48,0,0,0-2.39,11.31c-.19,1.93-.31,3.87-.39,5.81v.09c.11.94.22,1.88.34,2.82q1.69-2.26,3.38-4.56C300.49,363.41,301.14,362.21,301.77,361Z" transform="translate(-39.07 -30.65)"/><path class="cls-3" d="M301.5,345.82c3.49-9.28,7-18.66,8.46-28.47s.72-20.24-3.94-29c-5.22,11.16-10.89,22.78-10.66,35.09C295.52,331.34,298.37,338.57,301.5,345.82Z" transform="translate(-39.07 -30.65)"/><path class="cls-4" d="M303.94,337.79c.89-4.31,1.72-8.64,2.39-13,.37-2.42.69-4.83.94-7.26.55-5.2.77-10.64-1.19-15.49-1.7,4.88-3.39,9.77-4.87,14.72a52.83,52.83,0,0,0-2.46,11.89,41.37,41.37,0,0,0,.71,9.93c.3,1.64.66,3.28,1.06,4.9,0,0,0,.05,0,.07q.46,1.13,1,2.25l1.71-4.57C303.46,340.09,303.7,338.94,303.94,337.79Z" transform="translate(-39.07 -30.65)"/><path class="cls-5" d="M300.9,149.83a77.5,77.5,0,0,0-28-23c-2.12,28.21-3.18,56.59-2.57,84.88,7.6-4,15.05-8.35,21.38-14.11s11.58-13,13.68-21.32C307.77,166.81,306.06,156.66,300.9,149.83Z" transform="translate(-39.07 -30.65)"/><path class="cls-6" d="M274.31,127.57a8.86,8.86,0,0,0-1.7,3.19.15.15,0,0,1,0,.07c-.23,3.2-.45,6.39-.65,9.59q-.12,16.77-.25,33.55c0,5.69-.06,11.55,2,16.84a29.7,29.7,0,0,0,4.23,7.13c.95,1.23,3.41,5.23,5.4,4.72,1.75-.45,2.34-6,2.83-7.6q1.41-4.62,3.11-9.16a14.84,14.84,0,0,0,1.25-4.86,14.49,14.49,0,0,0-1-4.78c-3-9-5.9-18.1-6.77-27.54a107.48,107.48,0,0,1,0-16.15A75.62,75.62,0,0,0,274.31,127.57Z" transform="translate(-39.07 -30.65)"/><path class="cls-7" d="M130.36,72.7s-9.43-.76-18.06,12.49c22.5-5.13,34.63-.88,34.63-.88S140.54,72.09,130.36,72.7Z" transform="translate(-39.07 -30.65)"/><path class="cls-8" d="M189,74.22a74.19,74.19,0,0,1-9.91-15c4-3.56,4.45-10.62,2.85-15.75a18.41,18.41,0,0,0-10.88-11.2,25.8,25.8,0,0,0-15.86-.62c-6.32,1.65-12.39,5.59-14.9,11.62S140,57.33,146,60c-2.93,8-6.87,15.9-12.37,22.4,15.74.13,31.48.27,47.22-.19,2.56-.07,5.28-.21,7.41-1.64A4.27,4.27,0,0,0,189,74.22ZM170.57,52.54a10.68,10.68,0,0,1-10,1,8.21,8.21,0,0,1-4.54-4,8.19,8.19,0,0,1-.22-5.73,10,10,0,0,1,3.4-4.91c2.14-1.69,13-4.57,15.46,4.26C175.68,46.67,173.46,50.52,170.57,52.54Z" transform="translate(-39.07 -30.65)"/><path class="cls-9" d="M146.68,82.47A130.68,130.68,0,0,1,155,60.09a15.6,15.6,0,0,1-10.75-14.25,15.62,15.62,0,0,1,6.41-12.59c-4.51,2.08-8.41,5.44-10.3,10-2.52,6-.34,14.11,5.63,16.76-2.93,8-6.87,15.9-12.37,22.4Q140.13,82.44,146.68,82.47Z" transform="translate(-39.07 -30.65)"/><polygon class="cls-5" points="33.37 47.06 236.39 47.06 262.34 343 61.78 367.18 33.37 47.06"/><path class="cls-6" d="M223.36,108.62s18.32-6.78,12.38-30.91H210.35Z" transform="translate(-39.07 -30.65)"/><polygon class="cls-10" points="33.37 47.06 25.75 52.62 54.33 364.24 61.78 367.18 33.37 47.06"/><path class="cls-6" d="M301.41,373.65l-17.88-204-14.3-79.46L89.69,86.64s-2,233.71,34.67,308.36Z" transform="translate(-39.07 -30.65)"/><path class="cls-11" d="M93.23,92.36l181.06-3.24c6,89.17,16.51,178,33.81,265.73-60.25,1.84-120.81,10.26-180,21.58C111.55,316.4,93.23,145.61,93.23,92.36Z" transform="translate(-39.07 -30.65)"/><path class="cls-12" d="M215.59,90.17l7.77,18.45a22.57,22.57,0,0,0,13.43-18.83Z" transform="translate(-39.07 -30.65)"/><path class="cls-7" d="M149.83,75l38.37-1.74a73.08,73.08,0,0,1-6.75-9.73,55.18,55.18,0,0,0-12.86,2.65A99.65,99.65,0,0,0,149.83,75Z" transform="translate(-39.07 -30.65)"/><path class="cls-8" d="M140.26,108.57l83.1.05c4.37-9.47,2.46-20.85-1-31.14a9,9,0,0,0-7.67-6.08,370.27,370.27,0,0,0-84.31,1.3C139.62,77.58,141.08,95.23,140.26,108.57Z" transform="translate(-39.07 -30.65)"/><path class="cls-9" d="M224.57,85.32l-85.93.24a67.67,67.67,0,0,1,1.81,16.24l85.06-.45A43.47,43.47,0,0,0,224.57,85.32Z" transform="translate(-39.07 -30.65)"/><path class="cls-9" d="M178.15,71.53c-5.08.11-10.29.45-14.94,2.49-.84.36-1.78,1-1.62,1.93s1,1.12,1.8,1.32c11.71,3.08,23.94,2.94,35.92,2,2.36-.17,14.43.17,13.92-3-.68-4.28-11.18-3.77-14.13-4A187.8,187.8,0,0,0,178.15,71.53Z" transform="translate(-39.07 -30.65)"/><ellipse class="cls-9" cx="113.17" cy="45.35" rx="5.81" ry="2.25"/><path class="cls-8" d="M266.77,174.76l-32.89,1.66-6.29-39.87,32.89-1.67Zm-29.5-2.51L262.12,171l-5-31.93-24.85,1.26Z" transform="translate(-39.07 -30.65)"/><path class="cls-8" d="M276.8,244.31l-32.89,1.52-6.1-39.91,32.89-1.51Zm-29.48-2.64,24.86-1.15-4.89-32-24.86,1.14Z" transform="translate(-39.07 -30.65)"/><path class="cls-8" d="M256.83,315.7,250,275.91l32.86-2.1,6.8,39.79Zm-2.11-36.08,5.45,31.86L285,309.89,279.55,278Z" transform="translate(-39.07 -30.65)"/><path class="cls-7" d="M112.33,159a2.5,2.5,0,0,1-.08-5l103.61-3.31a2.5,2.5,0,1,1,.16,5L112.41,159Z" transform="translate(-39.07 -30.65)"/><path class="cls-7" d="M114.33,169.51a2.5,2.5,0,0,1-.08-5l103.62-3.31a2.5,2.5,0,1,1,.16,5l-103.62,3.32Z" transform="translate(-39.07 -30.65)"/><path class="cls-7" d="M116.34,180a2.5,2.5,0,0,1-.08-5l51.8-1.66a2.5,2.5,0,0,1,.16,5L116.42,180Z" transform="translate(-39.07 -30.65)"/><path class="cls-3" d="M110,148.59a2.5,2.5,0,0,1-.08-5l51.8-1.66a2.5,2.5,0,0,1,.16,5l-51.8,1.66Z" transform="translate(-39.07 -30.65)"/><path class="cls-7" d="M126.34,234.06a2.5,2.5,0,0,1-.23-5l103.21-9.75a2.5,2.5,0,0,1,.47,5l-103.21,9.75Z" transform="translate(-39.07 -30.65)"/><path class="cls-7" d="M129,244.4a2.5,2.5,0,0,1-.23-5L232,229.67a2.5,2.5,0,0,1,.47,5l-103.21,9.75Z" transform="translate(-39.07 -30.65)"/><path class="cls-7" d="M131.64,254.74a2.5,2.5,0,0,1-.23-5L183,244.88a2.5,2.5,0,0,1,.47,5l-51.61,4.87Z" transform="translate(-39.07 -30.65)"/><path class="cls-3" d="M123.4,223.79a2.5,2.5,0,0,1-.24-5l51.61-4.87a2.5,2.5,0,0,1,.47,5l-51.61,4.88Z" transform="translate(-39.07 -30.65)"/><path class="cls-7" d="M138.59,307.21a2.5,2.5,0,0,1-.27-5l103-11.43a2.5,2.5,0,1,1,.55,5l-103,11.43Z" transform="translate(-39.07 -30.65)"/><path class="cls-7" d="M141.41,317.5a2.5,2.5,0,0,1-.27-5l103-11.43a2.5,2.5,0,0,1,.55,5l-103,11.43Z" transform="translate(-39.07 -30.65)"/><path class="cls-7" d="M144.23,327.8a2.5,2.5,0,0,1-.28-5l51.52-5.71a2.5,2.5,0,1,1,.55,5l-51.51,5.72Z" transform="translate(-39.07 -30.65)"/><path class="cls-3" d="M135.47,297a2.5,2.5,0,0,1-.27-5l51.52-5.71a2.5,2.5,0,0,1,.55,5L135.75,297Z" transform="translate(-39.07 -30.65)"/><path class="cls-13" d="M226,140.57c7.14,2.35,13.77,5.52,19.18,11.23,7-9,13.36-17.23,23.26-24.27a128.67,128.67,0,0,0-21.57,37.12A71.18,71.18,0,0,0,226,140.57Z" transform="translate(-39.07 -30.65)"/><path class="cls-13" d="M236.08,213.33c7.15,2.35,13.77,5.52,19.19,11.23,7-9,13.35-17.22,23.26-24.27A128.44,128.44,0,0,0,257,237.41,71.21,71.21,0,0,0,236.08,213.33Z" transform="translate(-39.07 -30.65)"/><path class="cls-13" d="M248.64,281.33c7.14,2.35,13.77,5.52,19.18,11.23,7-9,13.36-17.22,23.26-24.27a128.59,128.59,0,0,0-21.57,37.13A71.1,71.1,0,0,0,248.64,281.33Z" transform="translate(-39.07 -30.65)"/><path class="cls-11" d="M309.64,387.79l-20,9.7c-.78.38-1.69,1-1.62,1.83.09,1.06,1.46,1.37,2.51,1.41l28.27,1V390.27A47.14,47.14,0,0,1,309.64,387.79Z" transform="translate(-39.07 -30.65)"/><path class="cls-11" d="M376.72,406.27c-1.92,3.75-10.72,7.38-16.47,10.17-.68.32-1.46.83-1.4,1.58.07.91,1.25,1.18,2.17,1.21,5.87.21,15.23.42,23.05.63a4.85,4.85,0,0,0,4.48-7l-4.5-9.77C381.54,402.66,379.08,407.25,376.72,406.27Z" transform="translate(-39.07 -30.65)"/><path class="cls-14" d="M374.41,231.46c-10.61,3.65-20.86,3.48-30.61,4.81-1.71,2.4-8.3,12.1-10,14.5l27.52,3.45a12.91,12.91,0,0,0,4.47,0,9.93,9.93,0,0,0,5.32-3.83C375.17,245.26,376.26,237.78,374.41,231.46Z" transform="translate(-39.07 -30.65)"/><path class="cls-14" d="M325.4,217.16c3.57-5.46,8.49-9.24,13.46-8.5-.4-.06-4.25,8.9-4.84,9.92a65.8,65.8,0,0,1-6.06,8.79,52.73,52.73,0,0,1-6.81,6.94c-.71.59-2.63,2.82-3.24,1-.38-1.13,1.25-4.59,1.62-5.63A59.21,59.21,0,0,1,325.4,217.16Z" transform="translate(-39.07 -30.65)"/><path class="cls-15" d="M430.67,165.91,319,264.79l-17.72-20,111.7-98.88A13.37,13.37,0,0,1,431.81,147h0A13.37,13.37,0,0,1,430.67,165.91Z" transform="translate(-39.07 -30.65)"/><polygon class="cls-16" points="262.16 214.12 234.49 256.48 279.89 234.14 262.16 214.12"/><rect class="cls-17" x="292.96" y="204.17" width="136.5" height="10.75" transform="translate(-87.22 261.4) rotate(-41.51)"/><polygon class="cls-13" points="244.42 241.28 234.49 256.48 250.77 248.46 244.42 241.28"/><path class="cls-16" d="M412.94,145.89,401.58,156l17.72,20,11.37-10.06a13.37,13.37,0,0,0-17.73-20Z" transform="translate(-39.07 -30.65)"/><rect class="cls-11" x="402.91" y="154.5" width="10.75" height="26.74" transform="translate(-47.76 282.17) rotate(-41.52)"/><path class="cls-18" d="M430.67,165.91a13.38,13.38,0,0,0,3.33-15.5,13.52,13.52,0,0,0-2.19-3.37L273.57,287.12,319,264.79Z" transform="translate(-39.07 -30.65)"/><path class="cls-19" d="M367.92,223.31c2.58,4.6,2.78,17.2,1.6,22.34,3.94.66,8.39-5.59,12.33-4.93a33,33,0,0,1-1.24-14.54c.22-1.61.52-3.41-.46-4.71-1.23-1.63-3.76-1.46-5.67-.72S370,223.47,367.92,223.31Z" transform="translate(-39.07 -30.65)"/><path class="cls-14" d="M351,295.38s-24.69,23-30,41.32S308.1,386,308.1,386l13.76,2.7L336,345,358.3,321.7S359.34,298.72,351,295.38Z" transform="translate(-39.07 -30.65)"/><path class="cls-20" d="M351,295.38a180.9,180.9,0,0,0-17.9,19.83c1.34,7,3,14,4.53,20.9.44,1.92.9,3.85,1.37,5.77L358.3,321.7S359.34,298.72,351,295.38Z" transform="translate(-39.07 -30.65)"/><path class="cls-21" d="M376.79,300.41c-1.26,3.33-10.61,7.55-14.18,8.24a9.71,9.71,0,0,1-8.45-3c-2.16-2.18-4.31-4.92-4.35-7.95-.62-45.11,7.75-54.61,15.36-62.12,6.65-6.57,15.62-5.38,20.68,2.33,5.6,8.53,2.64,20,.4,29.18C383.21,279.49,381.85,287,376.79,300.41Z" transform="translate(-39.07 -30.65)"/><path class="cls-14" d="M367.41,283.76A72.88,72.88,0,0,0,381,242c-2.92,7.91-7.62,14.36-13.43,20.46a14.06,14.06,0,0,1-2.93,2.52c-3.16,1.9-7.17,1.45-10.75.58l-2.38-.6c-.64,4.17-1.13,9-1.43,14.56A107.29,107.29,0,0,0,367.41,283.76Z" transform="translate(-39.07 -30.65)"/><path class="cls-14" d="M372,325.77c3.31-10.16,5.71-15.73,5.35-26.78-17.11,5.2-27.53-3.61-27.53-3.61-2.68,24.43-3.31,37.53,0,61.89,1.94,14.31,16.38,35.08,24.52,47.38,3.51-.88,5.12-1.6,8.63-2.48-3-11.35-8.56-31.85-14.57-42.15C369.77,347.26,367.92,338.2,372,325.77Z" transform="translate(-39.07 -30.65)"/><path class="cls-16" d="M336.3,210.11c2.78-2.3,8-3.52,11.33-2.1.85.36,1.73,1,1.76,2,.05,1.19-1.25,1.92-2.37,2.31a29.79,29.79,0,0,1-10.88,1.59C335,213.52,333.53,212.4,336.3,210.11Z" transform="translate(-39.07 -30.65)"/><path class="cls-14" d="M360.91,265.5a7.51,7.51,0,0,0,3.24-.25c1.56-.6,2.54-2.13,3.34-3.61a50.46,50.46,0,0,0,5.32-15.7c.55-3.33-.26-7.12-2.81-9.34a31.65,31.65,0,0,0-11.59,20.85c-1.73-.05-3.56-.08-5.36-.11-.56,2.26-1.06,4.76-1.49,7.55Z" transform="translate(-39.07 -30.65)"/><path class="cls-16" d="M324.61,255a7.32,7.32,0,0,0-3.43-2.91c-1.46-.46-3.37.23-3.69,1.72C317,255.93,319.87,258,319,260c-.25.57-.77,1-1,1.55a3,3,0,0,0,.69,3.3,8.16,8.16,0,0,0,3.08,1.8,12.18,12.18,0,0,0,4.89,1.13,3.86,3.86,0,0,0,2.79-1.14c1.33-1.53-.19-3.81-.92-5.28A40.73,40.73,0,0,0,324.61,255Z" transform="translate(-39.07 -30.65)"/><path class="cls-21" d="M359.69,261.67c3.06-12.34,2.68-15.34,7-23.45a13.54,13.54,0,0,1,7-5.7c2.82-1.14,6.3-1,8.64.91a8.77,8.77,0,0,1,2.85,6.31,21,21,0,0,1-1.11,7c-4.65,15.86-7.08,18.12-16.77,31.51-13.21-1.23-30.66-4-40-8.91-1.9-1-2-4.24-.89-6.06,1.24-2,4.08-2,6.37-1.59C340.14,263.06,348.46,261.88,359.69,261.67Z" transform="translate(-39.07 -30.65)"/><polygon class="cls-21" points="268.38 352.42 284.59 356.79 282.84 362.29 266.98 358.08 268.38 352.42"/><polygon class="cls-21" points="344.51 367.15 332.8 372.5 335.36 377.75 346.69 372.5 344.51 367.15"/><path class="cls-7" d="M318.8,401.74v-3.09l-30.31-.4a1.36,1.36,0,0,0-.47,1.07c.09,1.05,1.46,1.37,2.51,1.41Z" transform="translate(-39.07 -30.65)"/><path class="cls-7" d="M359.79,416.69a1.52,1.52,0,0,0-.94,1.33c.07.91,1.25,1.18,2.17,1.21,5.87.21,15.23.42,23.05.63A4.84,4.84,0,0,0,389,416Q374.38,416.49,359.79,416.69Z" transform="translate(-39.07 -30.65)"/><path class="cls-16" d="M357.43,218.36c-.41,3.21,0,8.18,2.16,10.6a7.91,7.91,0,0,0,7.27,2.15,17.43,17.43,0,0,0,7.07-3.42,44.45,44.45,0,0,0,9.58-9.59c2.51-3.41,4.59-7.73,3.33-11.77-.92-3-3.49-5.16-6.27-6.54a16,16,0,0,0-11-1.45C360.33,200.75,358.42,210.43,357.43,218.36Z" transform="translate(-39.07 -30.65)"/><path class="cls-14" d="M381.19,216.93a10.57,10.57,0,0,0-8.65-12.77c-2.56-.41-5.16.13-7.72.49s-5.29.52-7.64-.57a9.46,9.46,0,0,1-4.52-4.94,16.41,16.41,0,0,1-1.1-6.7,13.48,13.48,0,0,1,.83-4.72,6.86,6.86,0,0,1,3.06-3.58,5.45,5.45,0,0,1,7.67,6.57,16.13,16.13,0,0,1,7.3-5.7c1.76-.72,4-1,5.39.32a3.84,3.84,0,0,1,.9,3.38A10,10,0,0,1,375.3,192a12.2,12.2,0,0,1,10.57-3.38,2.08,2.08,0,0,1,1.18.49,2.06,2.06,0,0,1,.12,2.11,8.78,8.78,0,0,1-4.07,4.68c2.84,1.11,5.85,2.35,7.6,4.85a10.43,10.43,0,0,1,1.59,6.82,14.44,14.44,0,0,1-6.58,11,4.28,4.28,0,0,1-2.86.82A2.32,2.32,0,0,1,381.19,216.93Z" transform="translate(-39.07 -30.65)"/><path class="cls-16" d="M383,215a2.8,2.8,0,0,1,2-.31,2.1,2.1,0,0,1,1.31,1.75,4.47,4.47,0,0,1-.4,2.24,10.45,10.45,0,0,1-5.26,5.45,1.63,1.63,0,0,1-1.51.11c-1.25-.79-.83-4.14-.32-5.33A8.84,8.84,0,0,1,383,215Z" transform="translate(-39.07 -30.65)"/><path class="cls-14" d="M370.65,212.73c-.58,1.46-1.69,2.39-2.48,2.07s-1-1.75-.38-3.21,1.69-2.38,2.48-2.06S371.23,211.28,370.65,212.73Z" transform="translate(-39.07 -30.65)"/><path class="cls-14" d="M362.37,212.73c-.58,1.46-1.69,2.39-2.48,2.07s-1-1.75-.38-3.21,1.69-2.38,2.48-2.06S363,211.28,362.37,212.73Z" transform="translate(-39.07 -30.65)"/><path class="cls-22" d="M361.23,217.79a4.08,4.08,0,0,0-1,.38.92.92,0,0,0-.48.87,1.08,1.08,0,0,0,.72.72,3,3,0,0,0,3.17-.75,3.66,3.66,0,0,0,.9-3.2c-.06-.33-.31-1-.75-.75s-.4.86-.57,1.15A3.82,3.82,0,0,1,361.23,217.79Z" transform="translate(-39.07 -30.65)"/><path class="cls-22" d="M366.73,223.87a4.06,4.06,0,0,1-.92-.11.5.5,0,0,1,.23-1,3.24,3.24,0,0,0,3.9-2.59.5.5,0,0,1,1,.17,4.25,4.25,0,0,1-4.19,3.5Z" transform="translate(-39.07 -30.65)"/><path class="cls-19" d="M307.68,143.44a29.49,29.49,0,0,1-10.37,6.75c-8,12.6-1.77,14.19,4.75,10.6l7.77-4.27a2,2,0,0,0,1-3.05C309.74,150.34,310.15,145.65,307.68,143.44Z" transform="translate(-39.07 -30.65)"/><path class="cls-16" d="M277.23,247.08a54.84,54.84,0,0,0-4.33,7.17,2.27,2.27,0,0,0-.35,1.68,1.58,1.58,0,0,0,1.23,1,4.58,4.58,0,0,0,1.65,0c-.78,2.76-1.77,7.24-1.66,7.89A1.54,1.54,0,0,0,275,266.1c.79.06,2.95-3,4.7-6a19.09,19.09,0,0,0,3.67-1.84,6.3,6.3,0,0,0,2.51-3.12,6.81,6.81,0,0,0-1.23-5.79,8.35,8.35,0,0,0-2.7-2.59C280.89,246.12,278.46,246.8,277.23,247.08Z" transform="translate(-39.07 -30.65)"/><path class="cls-5" d="M306.34,165.44c1.76,28.87-7.8,60.47-20.89,86.47a21.28,21.28,0,0,1-9.7-1c1.62-22.67,6.11-45.06,12-67,1-3.73,2.1-7.57,4.58-10.52S302.78,163.94,306.34,165.44Z" transform="translate(-39.07 -30.65)"/><path class="cls-16" d="M320.54,163.78c-2.74,2-7.6,4.33-11.13,3.79a8.66,8.66,0,0,1-6.33-5,15.9,15.9,0,0,1-1.05-7.81,40.94,40.94,0,0,1,3.18-13.21c1.68-3.94,4.45-8,9-9.07,3.3-.79,6.87.22,9.81,1.84a16.8,16.8,0,0,1,7.9,8.57C335.16,152,327.3,158.73,320.54,163.78Z" transform="translate(-39.07 -30.65)"/><path class="cls-14" d="M305.06,141.78c5.44,1.57,9.66.75,12.38-4.51,1.35,6.2,13.09,27.31,24.45,17.2-5.58-2.87-5.25-8.72-7.12-14.4a14.31,14.31,0,0,0-3.7-6.21,9,9,0,0,0-7.06-2.44,27.3,27.3,0,0,0,4.31-2c.46-.26.95-.61,1-1.11.05-.71-.88-1.15-1.66-1.26a7.53,7.53,0,0,0-5.62,1.44,8.55,8.55,0,0,0-3.94-5.07,3.6,3.6,0,0,0-1.58-.58,1.66,1.66,0,0,0-1.5.58,1.85,1.85,0,0,0-.16,1.33,8.7,8.7,0,0,0,2.34,4.63c-3.75-.59-7.51,1.37-9.81,4.09s-3.44,6.08-4.54,9.37C303.36,142.66,304.53,142,305.06,141.78Z" transform="translate(-39.07 -30.65)"/><path class="cls-16" d="M308.42,140.26a2.75,2.75,0,0,0-.9-1.85,2.52,2.52,0,0,0-2.4-.19,4.61,4.61,0,0,0-1.84,1.54,9.62,9.62,0,0,0-1.93,7.34,1.64,1.64,0,0,0,.8,1.35c1.48.64,4.34-1.49,5.15-2.56A8.15,8.15,0,0,0,308.42,140.26Z" transform="translate(-39.07 -30.65)"/><path class="cls-14" d="M317.87,149.58c-1,1.26-1.2,2.69-.44,3.2s2.2-.12,3.2-1.38,1.21-2.7.45-3.2S318.88,148.31,317.87,149.58Z" transform="translate(-39.07 -30.65)"/><path class="cls-14" d="M322.81,156.6c-1,1.27-1.2,2.7-.44,3.2s2.2-.11,3.21-1.38,1.2-2.7.44-3.2S323.82,155.34,322.81,156.6Z" transform="translate(-39.07 -30.65)"/><path class="cls-22" d="M318.8,160.25a3.74,3.74,0,0,1,.23,1,.89.89,0,0,1-.52.86,1.27,1.27,0,0,1-1.1-.23,2.89,2.89,0,0,1-1.2-3.08,3.77,3.77,0,0,1,2.44-2.46c.34-.12,1.11-.27,1.14.24,0,.34-.56.79-.73,1.09A3.53,3.53,0,0,0,318.8,160.25Z" transform="translate(-39.07 -30.65)"/><path class="cls-22" d="M309.88,158.81a4.34,4.34,0,0,0,.64.72.58.58,0,0,0,.78,0,.46.46,0,0,0,0-.7,3.22,3.22,0,0,1-1.07-2.37,3.11,3.11,0,0,1,1.15-2.31.47.47,0,0,0,0-.71.59.59,0,0,0-.78,0,3.93,3.93,0,0,0-.74,5.41Z" transform="translate(-39.07 -30.65)"/><path class="cls-14" d="M201.55,358.69a23.53,23.53,0,0,1,6.8-.27,8,8,0,0,1,5.68,3.4c1.45,2.37,1.06,5.42.31,8.09-1.42,5.14-3.93,9.9-6.47,14.58-6,11-12.24,21.76-18.51,32.55-1.9,0-4.15.24-6-.37a5.91,5.91,0,0,1-4-3.76,8.76,8.76,0,0,1,.15-4l6.87-35.13c.73-3.78,1.54-7.71,3.9-10.75S198.16,356.85,201.55,358.69Z" transform="translate(-39.07 -30.65)"/><path class="cls-20" d="M209.45,381.53a11.8,11.8,0,0,1-.63-1.06,38.67,38.67,0,0,1-4.16-14.79,37,37,0,0,1,.2-7.36c-1.11.07-2.21.22-3.31.37a4.5,4.5,0,0,0-1.61-.49c-1.88.49-3.75,1-5.62,1.51a14.24,14.24,0,0,0-4,3.35,19.2,19.2,0,0,0-3.2,7.44c1.39,1.91,2.71,3.89,4.07,5.8a92.69,92.69,0,0,0,13,14.75c1.21-2.18,2.43-4.36,3.62-6.56C208.4,383.51,208.93,382.52,209.45,381.53Z" transform="translate(-39.07 -30.65)"/><path class="cls-20" d="M201.92,388.25a71.1,71.1,0,0,0-6.64-9.49c-2.21-2.51-5.46-4.86-8.65-3.86l-.42.18-3.3,16.86a8.32,8.32,0,0,1,1.62.54,16.68,16.68,0,0,1,7.61,8.7,31.06,31.06,0,0,1,2,7.71q5-8.59,9.84-17.27C203.29,390.48,202.61,389.36,201.92,388.25Z" transform="translate(-39.07 -30.65)"/><path class="cls-3" d="M132.8,318.2a254.1,254.1,0,0,0,48.24,43c-1.68,2.15-3.6,4.48-6.3,4.82-2.22.28-4.34-.86-6.28-2-8.87-5-17.87-10.17-25-17.45A38.54,38.54,0,0,1,132.8,318.2Z" transform="translate(-39.07 -30.65)"/><path class="cls-4" d="M132.8,318.2a38.54,38.54,0,0,0,10.65,28.37,64.33,64.33,0,0,0,7.35,6.36c0-1.93.07-3.86,0-5.79-.06-3.6-.25-7.21-.6-10.8Q141.09,327.7,132.8,318.2Z" transform="translate(-39.07 -30.65)"/><path class="cls-3" d="M116.2,313.6q-7.4,2.79-14.55,5.95c-1.78.79-3.64,1.67-4.59,3.16-1.26,2-.56,4.47.17,6.7q9.21,27.9,20.64,55.3c.48,1.15,6.91,17.13,8.14,17.31,6.65,1,8-13.88,14.69-14.37a11,11,0,0,0,5.14-1.27c1.81-1.17,2.44-3.2,2.91-5.1,2.14-8.58-5.89-51.89-11.32-60.09S126.09,309.88,116.2,313.6Z" transform="translate(-39.07 -30.65)"/><path class="cls-4" d="M145.93,368a8.71,8.71,0,0,0,2.62.52c-.4-3.83-1-8.14-1.76-12.59a57.43,57.43,0,0,1-12.87-3.43,70.71,70.71,0,0,1-7.24-3.33c-8-4.23-15.16-9.8-22-15.69,2.65,4.89,5.33,9.83,9,14a62,62,0,0,0,11.54,9.43C131.76,361.28,138.51,365.44,145.93,368Z" transform="translate(-39.07 -30.65)"/><path class="cls-19" d="M120.54,304.8a30.4,30.4,0,0,0-.41,11.6,3,3,0,0,1-3.18,3.48,29.62,29.62,0,0,1-4.58-.69,3.52,3.52,0,0,1-1.64-.71,3.77,3.77,0,0,1-.93-2.26q-.93-5.6-1.87-11.19a4.77,4.77,0,0,1,.21-3.15c.73-1.26,2.4-1.55,3.85-1.59a10.35,10.35,0,0,1,4.66.69C118.09,301.63,120.9,303.25,120.54,304.8Z" transform="translate(-39.07 -30.65)"/><path class="cls-16" d="M131.29,295.25c.93,3.29,1.33,8.65-.44,11.76a8.66,8.66,0,0,1-7,4.11,15.91,15.91,0,0,1-7.67-1.81,41,41,0,0,1-11.2-7.7c-3.08-3-5.87-7-5.27-11.59.44-3.37,2.66-6.34,5.23-8.5a16.76,16.76,0,0,1,10.82-4.32C125.49,277.39,129,287.14,131.29,295.25Z" transform="translate(-39.07 -30.65)"/><path class="cls-14" d="M117.07,292.67c.82,1.39,2.09,2.09,2.83,1.56s.68-2.1-.14-3.49-2.09-2.09-2.83-1.55S116.25,291.28,117.07,292.67Z" transform="translate(-39.07 -30.65)"/><path class="cls-14" d="M125.4,290.57c.82,1.39,2.09,2.08,2.83,1.55s.68-2.09-.14-3.48-2.09-2.09-2.84-1.56S124.58,289.17,125.4,290.57Z" transform="translate(-39.07 -30.65)"/><path class="cls-22" d="M127.37,295.62a4,4,0,0,1,1,.15.89.89,0,0,1,.62.8,1.26,1.26,0,0,1-.6.94,2.89,2.89,0,0,1-3.31,0,3.73,3.73,0,0,1-1.43-3.15c0-.36.15-1.14.63-1s.55.81.77,1.07A3.49,3.49,0,0,0,127.37,295.62Z" transform="translate(-39.07 -30.65)"/><path class="cls-22" d="M122.84,303.44a4.89,4.89,0,0,0,.9-.34.59.59,0,0,0,.28-.73.47.47,0,0,0-.66-.25,3,3,0,0,1-4.35-1.74.46.46,0,0,0-.64-.28.59.59,0,0,0-.32.71,3.93,3.93,0,0,0,4.79,2.63Z" transform="translate(-39.07 -30.65)"/><path class="cls-14" d="M105.87,302.33a12.19,12.19,0,0,0,.61-14.61,79.49,79.49,0,0,0,16.76-4.29c2.36-.87,4.86-2,6-4.26a8.05,8.05,0,0,0,.36-5.46c-1.27-5.49-5.43-9.84-9.83-13.35.77,2.32,1.55,4.64,2.32,6.95a26.05,26.05,0,0,0-7.62-5.63,56.28,56.28,0,0,1,3.74,9.79c-5.39-.48-11.09.07-15.84,2.67s-8.45,7.53-8.53,12.95a15,15,0,0,0,3.38,9.35C99.32,299.09,102.85,300.82,105.87,302.33Z" transform="translate(-39.07 -30.65)"/><path class="cls-16" d="M105,298.17a2.68,2.68,0,0,0-2,.18,2.52,2.52,0,0,0-1,2.18,4.59,4.59,0,0,0,.77,2.26,9.56,9.56,0,0,0,6.18,4.42,1.63,1.63,0,0,0,1.54-.26c1.13-1.15.16-4.58-.55-5.72A8.09,8.09,0,0,0,105,298.17Z" transform="translate(-39.07 -30.65)"/><path class="cls-4" d="M105.37,352.75a122.65,122.65,0,0,0,22.83,15.12,77.49,77.49,0,0,0,20.85,7c-.12-2.73-.42-6-.88-9.6-3.21-1.15-6.39-2.38-9.52-3.74a161.13,161.13,0,0,1-38.58-23.68Q102.64,345.32,105.37,352.75Z" transform="translate(-39.07 -30.65)"/><path class="cls-3" d="M111.75,331.57c2.12,8.81,9.67,16.16,18.65,20.87s19.34,7.1,29.64,9a7.1,7.1,0,0,1,1.21,2.71,2.58,2.58,0,0,1-1,2.77,5.24,5.24,0,0,1-2.83.59,70.16,70.16,0,0,1-37-9.68c-10.7-6.45-18.92-15.85-23.16-26.44a12.34,12.34,0,0,1-1.13-4.9,5.42,5.42,0,0,1,2.38-4.41c2.59-1.67,6.52-.8,8.8,1.16S111.1,328.86,111.75,331.57Z" transform="translate(-39.07 -30.65)"/><path class="cls-23" d="M209.9,349.47c.43,1.87.37,7.2.74,9.58-18.24,6.61-37.18,9.19-56.67,14.64l-9.24,2.59a4.68,4.68,0,0,1-3.39.07c-1-.54-1.32-2.32-.25-2.76,19.8-8.07,38.8-18.21,59.11-24.87a16.36,16.36,0,0,1,4.71-1C206.52,347.66,209.54,347.9,209.9,349.47Z" transform="translate(-39.07 -30.65)"/><path class="cls-23" d="M163.79,328.18,211,321.23A3.48,3.48,0,0,1,215,325.3a302,302,0,0,0-4.31,33.75c-16.71,2.23-32.71,4.23-52,7.17,1.28-13,1.89-23.4,2.2-34.67A3.5,3.5,0,0,1,163.79,328.18Z" transform="translate(-39.07 -30.65)"/><path class="cls-24" d="M194.35,344.64c-.56,3.24-3.22,5.49-5.95,5s-4.46-3.48-3.9-6.73,3.23-5.48,5.95-5S194.92,341.4,194.35,344.64Z" transform="translate(-39.07 -30.65)"/><path class="cls-14" d="M131.26,407.26c5.75,2.07,12.69,1.51,18.5-.38,13.41-4.38,24.1-14.42,34.3-24.17,7.06,10.2,15.65,20,22.71,30.2,1.51,2.18,3.17,4.48,5.65,5.44s8.89-6.74,8.59-8.78a18.07,18.07,0,0,0-2.25-5.73A323.37,323.37,0,0,0,199,372.05c-2.68-3.87-5.74-7.95-10.24-9.35-4.69-1.46-9.7.36-14.3,2.1-14.81,5.57-26.79,7.35-43.24,12.49C112.43,383.17,122,403.91,131.26,407.26Z" transform="translate(-39.07 -30.65)"/><path class="cls-11" d="M240.62,414.59c.65.12,1.42.37,1.57,1s-.68,1.35-1.41,1.66c-7.38,3.08-15.41,4.18-23.34,5.25a5.36,5.36,0,0,1-2.95-.16,4.82,4.82,0,0,1-2.12-2.67,6.38,6.38,0,0,1-.67-3.49,5.72,5.72,0,0,1,3.12-3.73c1.13-.63,3-1.83,4.31-1.88a24.86,24.86,0,0,1,4.62.86q5.44,1,10.88,2Z" transform="translate(-39.07 -30.65)"/><path class="cls-11" d="M176.84,418a4.93,4.93,0,0,0-.12,3.32,3.61,3.61,0,0,0,2.22,1.87,10.17,10.17,0,0,0,3,.4c5.34.2,10.68.18,16,.17a27.93,27.93,0,0,0,4.48-.26c.83-.14,1.85-.62,1.74-1.45-.07-.59-.68-.93-1.23-1.18q-6-2.72-12.19-5.11-3.14-1.22-6.29-2.34c-1.19-.42-3.46-1.72-4.76-1.18C178.05,412.88,177.28,416.48,176.84,418Z" transform="translate(-39.07 -30.65)"/></svg>