<svg id="Layer_1" data-name="Layer 1" xmlns="http://www.w3.org/2000/svg" viewBox="0 0 577.2 395.54"><defs><style>.cls-1{fill:#1b1e1e;}.cls-2{fill:#af9272;}.cls-3{fill:#2c2d2e;}.cls-4{fill:#bfae97;}.cls-5{fill:#d1d0c1;}.cls-6{fill:#b5b9b0;}.cls-7{fill:#e6e2d9;}.cls-8{fill:#8d8b89;}.cls-9{fill:#cab99c;}.cls-10{fill:#f3f2f0;}.cls-11{fill:#41494a;}.cls-12{fill:#c1a481;}.cls-13{fill:#cdb89f;}.cls-14{fill:#d5ded8;}.cls-15{fill:#ddd0bf;}.cls-16{fill:#b59a7c;}.cls-17{fill:#bbb7a3;}.cls-18{fill:#9a7f62;}.cls-19{fill:#595247;}.cls-20{fill:#435862;}.cls-21{fill:#407289;}.cls-22{fill:#5c605c;}.cls-23{fill:#3f3a34;}.cls-24{fill:#594c38;}.cls-25{fill:#42606c;}.cls-26{fill:#858179;}.cls-27{fill:#6293a5;}.cls-28{fill:#78726d;}.cls-29{fill:#25282a;}.cls-30{fill:#9a8c75;}.cls-31{fill:#565043;}.cls-32{fill:#56554d;}.cls-33{fill:#acb2ba;}.cls-34{fill:#817f76;}.cls-35{fill:#636158;}.cls-36{fill:#6a6357;}.cls-37{fill:#ebe3d7;}.cls-38{fill:#af9c84;}.cls-39{fill:#9f866a;}.cls-40{fill:#978066;}.cls-41{fill:#c6b6a3;}.cls-42{fill:#876947;}.cls-43{fill:#bfc0bb;}.cls-44{fill:#414447;}.cls-45{fill:#6d726b;}.cls-46{fill:#907a62;}.cls-47{fill:#c8bda7;}.cls-48{fill:#ded5bb;}.cls-49{fill:#ebd7b7;}.cls-50{fill:#97847f;}.cls-51{fill:#9e603b;}.cls-52{fill:#e9cc9d;}.cls-53{fill:#b18b76;}.cls-54{fill:#846e68;}.cls-55{fill:#5d4a2e;}.cls-56{fill:#9a7f53;}.cls-57{fill:#68aec4;}.cls-58{fill:#1e1d1a;}.cls-59{fill:#eadabd;}.cls-60{fill:#e8d9bc;}.cls-61{fill:#91827d;}.cls-62{fill:#2b5363;}.cls-63{fill:#95857f;}.cls-64{fill:#acaba6;}.cls-65{fill:#f4ede5;}.cls-66{fill:#dacebe;}.cls-67{fill:#c8bba7;}.cls-68{fill:#826748;}.cls-69{fill:#dfd9ce;}.cls-70{fill:#8e7556;}.cls-71{fill:#ddd1c2;}.cls-72{fill:#eddec0;}.cls-73{fill:#948784;}.cls-74{fill:#9c988e;}.cls-75{fill:#5a707a;}.cls-76{fill:#5d4b32;}.cls-77{fill:#8b6843;}.cls-78{fill:#f7ddb6;}.cls-79{fill:#fad89e;}.cls-80{fill:#d6af7b;}.cls-81{fill:#dac09d;}.cls-82{fill:#d4bb9f;}.cls-83{fill:#adaa94;}.cls-84{fill:#e7cb9d;}.cls-85{fill:#4e3f28;}.cls-86{fill:#ba9869;}.cls-87{fill:#4c4d4b;}.cls-88{fill:#42403d;}.cls-89{fill:#7b776f;}.cls-90{fill:#6f6b62;}.cls-91{fill:#8a6131;}</style></defs><path class="cls-1" d="M474,188.26a4.23,4.23,0,0,1,2.48,1c1.35,1.14,2.54,2.36,4.68,2.05.88-.13,1.94.88,2.89,1.41a85.54,85.54,0,0,1,15.11,10.83,102.85,102.85,0,0,1,27.61,40.23c5.72,14.73,8.93,30,10.7,45.7a521.16,521.16,0,0,1,2.9,66.69,53,53,0,0,0,.33,9.83,3.48,3.48,0,0,1,.95,2.47c-.45,5.64.27,11.42-1.82,16.88-1.86,5.51-7,6.87-11.47,9.14-3.38,1-6.78.6-10.18.07-2.33-.36-4.66-.61-6.87.53-2.75,1.44-3,3.41-2.21,6.37,2.18,7.89,3.82,15.93,5.37,24,.75,3.85,1.72,8.16-3.28,10.37a6.67,6.67,0,0,1-1.61.24,14.66,14.66,0,0,0-3.9.32,35.49,35.49,0,0,1-4.94.27,18.13,18.13,0,0,0-7.08,1c-5.46.32-10.91,0-16.36.09-8.52.17-17,.42-25.54.88a187.62,187.62,0,0,1-38-2c-1.92-.08-3.84-.37-5.76-.57a7.71,7.71,0,0,1-1.5-.32c-.47-.13-.94-.3-1.41-.48s-.95-.32-1.41-.5c-2.19-.81-4.66-.06-6.78-1.24a4.16,4.16,0,0,1-1.23-1.17c-1.31-2.39-.26-4.63.51-6.84a491.7,491.7,0,0,0,14.59-51.4c1.73-7.57,4.54-14.89,5.92-22.57,1.24-5.86,2.42-11.74,3.75-17.59a87.92,87.92,0,0,0,2.05-12.9c.26-3.48-.74-4.5-4.33-4.62-3.8-.14-4.37.13-5.78,3.59a85.69,85.69,0,0,1-4.59,9.26,18.63,18.63,0,0,1-8.12,7.77,41.4,41.4,0,0,1-13.93,4.5,9.35,9.35,0,0,1-6.3-1c-1.72-2.32.59-4,.94-6.19a20,20,0,0,0-9.84,2.58,13.18,13.18,0,0,1-8.94,1.14c-2.44-.42-4-1.46-3.33-3.83,1-3.7-1.05-6.24-2.61-9,.4-4.59.3-8.94-5.2-10.68-1.86-3.26.22-5.93,1.29-8.75,1.48-3.62,3.59-5.34,7.31-2.47,1.33,1,2.75.26,4.12,0,1.78-.37,2.76.34,2.92,2.15-.4,3.15-3.67,5.48-2.5,9.11a3.6,3.6,0,0,0,2.89,2.84c1.38.2.92-1.18,1.17-1.93,1.23-4.22,4.19-6.73,8.23-8a8.62,8.62,0,0,0,3.69-2.08c1.34-1.29,2.95-2.35,4.88-1.28,1.77,1,1.33,2.79,1.26,4.4,0,.72-.21,1.43-.3,2.15-2.72,10.35-8.9,15.8-19.32,17,4,1.83,4,1.83,11.3-2.17a13.8,13.8,0,0,1,2.94-.94,5.3,5.3,0,0,1,1.54,0,5.5,5.5,0,0,1,2.09.94c.71.53,1.92.75,2.16,1.5,2.15,6.62,6.44,3.55,10.32,2.36,3.67-1,5.48-3.86,7.11-6.93,2.22-3.76,3.24-8.1,5.67-11.76a11.7,11.7,0,0,1,1.62-1.68c3-3.26,6.53-4.14,10.91-3.31,5.54,1.05,11.21,1,16.65,3.07,4.25,1.58,11.06-3.41,11.79-8.11a4.7,4.7,0,0,1,5.54-4.11c4.22,1.21,6.69-1.28,9.69-2.92,4.59-1.38,8.8-3.23,10.37-8.36,1.48-2.5,3.72-4.36,5.58-6.55,3.85-4.56,7.23-9.31,7.43-15.6a2.13,2.13,0,0,1,1.35-.6,3.53,3.53,0,0,1,1.35.65,5.7,5.7,0,0,1,1,1.18,11.83,11.83,0,0,1,1,2.06,10,10,0,0,1,.46,1.5c.24,1.34.85,2.58,1.22,3.89,3.36,10.29.77,20.61-2.09,30.08-6.72,22.24-9.76,45.12-14,67.78-.64,3.37-1,6.82-1.51,10.22a9.81,9.81,0,0,1-.28,1.79,13.54,13.54,0,0,0-.5,7,268.37,268.37,0,0,0,2.82,40.17c.4,1.58,1.2,2.4,2.92,1.49a7.26,7.26,0,0,0,1.37-.81c4.24-4.68,5.51-10.26,4.6-16.28-2.62-17.38-.68-34.59,1.95-51.73,3.27-21.26,8.54-42.31,8.72-63.89.17-20.75-4.38-40.58-16.42-58.09a30.65,30.65,0,0,0-10.12-9c-.63-.36-1.21-.8-1.85-1.17-1.27-.73-2.69-1.52-2.39-3.26.25-1.49,1.71-1.72,2.93-2.07,1.4-.4,2.67-1.2,4.14-1.41,3,.11,4.9,2.15,7,3.85,2.9,1.55,3.93,4.86,6.42,6.79a76.91,76.91,0,0,1,14.57,29.34,100.91,100.91,0,0,1,3.25,12.19c.95,4.18,2.35,8.24,3,12.5-.75-4.13-1.75-8.2-2.86-12.24a110.66,110.66,0,0,0-3.12-12.13,75.67,75.67,0,0,0-15-29.91c-2.39-1.83-3.32-5.06-6.16-6.47a36.53,36.53,0,0,0-10.4-6.56c-2.24-1-5-1.73-4.31-5.2-.84-.09-1.34.87-2.21.7-3.87-1-3.61-4.69-4.91-7.38-.15-3.17.59-6.27.85-9.41,1.75-4.29,4.93-7.42,8.45-10.26C471.3,188.28,472.62,187.43,474,188.26Z" transform="translate(-6.49 -181.77)"/><path class="cls-2" d="M182,316.71a34.27,34.27,0,0,0-3.78-.25c-3,.12-3.95,1.07-3.91,4a47.23,47.23,0,0,0,.56,5.92c.49,3.4,1.08,6.78,1.63,10.17a224.08,224.08,0,0,0,7.12,30.81c.77,2.43.35,4.22-1.88,5.51-4.1-.66-3.84-4.59-5.4-7.15-3.3-8.53-8.53-16-12.86-24-1.9-3.51-3.9-7-5.86-10.47-4.85-8.61-13.22-14.39-18.5-22.72-1.29-2-4.06-2.25-6.38-2.78a9.11,9.11,0,0,1-3.48-1.8,2.48,2.48,0,0,1-.34-1.48c.91-2.74-1.36-3.42-3-4.44a32.38,32.38,0,0,1-8-6.55c-1.79-2.17-3.34-4.71-2.38-7.5,2.46-7.13-.85-12.3-5.23-17.23a4.37,4.37,0,0,1-1.11-1.86c1.15-3.32,3.13-2.26,5-.86s3.09,3.55,4.43,5.49a26.59,26.59,0,0,0,10.46,9.34c4.58,2.16,7.93,0,8.29-5,.3-4.36-1.49-8.17-3.28-12-3-6.33-2.43-12.34,1.5-18.07,1.14-1.65,2.28-3.38,4.74-2.93,2,2.7.15,4.91-1.09,7-2,3.42-2.11,6.73-.87,10.47,2,6.24,4.86,12.23,6.17,18.71.67,3.27,3,4,6.1,4.21,8.43.44,15.47-4,23.12-6.24,2.16-.63,2-2.33,1-4s-2.68-3-3.87-4.61a8.93,8.93,0,0,1-1.43-8.72c3.95-12.28-2-18.1-9.75-19.94-4.47-1.06-8.85-2.48-12.59-5.21-2.27-1.66-5.06-3.33-3.67-7,7,.65,13.08,4.07,19.38,6.6,7.56,3,14.66,7.18,22.72,9,5.34,1.24,9.57,4.31,13.1,8.44,2,2.35,3.46,4.89,1.81,7.93-1.81,3.32-4.79,5.26-8.59,4.51-4.2-.83-8-2.62-9.08-7.45,1.39-1.89,2.88-.83,4.3-.08a15.52,15.52,0,0,0,3.89,1.93c1.44.3,3.07.56,3.77-1.14.55-1.34-.39-2.4-1.38-3.29-3.74-3.38-7-2.68-10.36,2.19-3.07.44-3.4-2.88-5.42-4,1.67,5,8.62,10.87,14.43,12.2,2.14.49,4.29.88,6.41,1.45,1.43.39,3.4.91,3.64,2.17,1.43,7.49,9.26,11,11.06,18.2a54.29,54.29,0,0,1,1.2,6.43c1,8.43,1.82,16.92,5,24.91a41.07,41.07,0,0,1,2.47,4.19c1.19,4.1-.85,5.86-4.61,6.39-2.9-.68-3.88-3.07-4.77-5.48-.75-2.05-1.16-4.21-2-6.24-3.18-7.71-5-8.89-13.25-8.33-2.5.17-3.75,2.08-5.07,3.78C189.53,313.31,186.56,316.14,182,316.71Z" transform="translate(-6.49 -181.77)"/><path class="cls-3" d="M365.25,305.73c-.11-.71-.26-1.67-1.15-1.4a32.3,32.3,0,0,0-4.05,1.91c-.61-.52-1.3-1.07-2-1.66-2.71-2.37-2.7-2.37-4.73,1.18-3.19,2.22-5.14,4.8-2.46,8.69,7.46-.21,7.1,3.28,6.28,8.23a27,27,0,0,1-.69,2.64c-9.78-1-11.31-3.29-10.1-15.17l.26-1.35c1.07-1.14-.06-2.79.92-3.94a.32.32,0,0,1,.16-.48c.57-.48.49-1.26.84-1.84a26.75,26.75,0,0,1,3.78-7.85,105.33,105.33,0,0,0,14.1-31.26c.23-.88.6-1.72.91-2.58,1.09-.89.15-2.48,1.19-3.39h0a81.63,81.63,0,0,1,8.94-17c1-1.53,1.87-3.11,4-3,1.66,3.06,2.61,6.17.67,9.48a90,90,0,0,0-11.52,18.27,5.21,5.21,0,0,0,.48,5.59c-.23,3.39-2.26,6.1-3.46,9.13-.82,2-1.49,3.89,1.28,4.86s5.23,1.08,6.28-2.21a20.63,20.63,0,0,0,1.09-9.16,10.57,10.57,0,0,1,1.07-6.92c3.18-5.53,5.64-11.47,9.34-16.7,1.63-2.31,3-5.73,6.55-4.77,3.79,1,2.81,4.78,3.16,7.84-.4-9.13,6.51-11.5,14.11-14.48-6.07.54-11.2-1-15.51,3-1.62,1.53-3.91.34-5-1.66a18.15,18.15,0,0,0-4.93-5.77c-1.33-3.71,1.38-5.86,3.66-7.44,3.19-2.21,3.52-4.46,1.88-7.54l-4.53-15.18a28,28,0,0,1-1.1-7.55,6,6,0,0,1,4.3-6.27A149.93,149.93,0,0,1,414,183.14a91.26,91.26,0,0,1,11.92-.86c6.2-.21,12.36-.05,18.54,0a76.31,76.31,0,0,1,15.1,1.83,8.06,8.06,0,0,0,2.58.75.58.58,0,0,1,.71.21c1.48,2.79-.87,3.65-2.53,4.4-17.08,7.77-33.15,17.72-51,23.88-3.27,1.13-5.92,3.71-8.65,3.88,4.11-.82,8.06-4.45,13.16-5.23,1.27-.19,2.43-.71,3.65,0a2.3,2.3,0,0,1,.74,1.33,3.55,3.55,0,0,1-.6,1.43,6.75,6.75,0,0,1-1.13,1.07c-.6.47-1.23.9-1.86,1.33-4.31,3.4-9.69,4.5-14.57,6.68a22,22,0,0,0-6,3.4c-.28.35-.58.7-.84,1.07-.08.21-.19.41-.27.61a2.63,2.63,0,0,0,4.08,2c3.09-2.16,6.29-1.3,9.49-1.32,3.57,0,7.19.48,9.76-3.12.83-1.17,2.64-1.06,4,0,1.23,2.42-.33,5,.36,7.77,2.88-3.68,5.22-2.48,7.24.62.89,1.37,2,2.56,2.81,4,.75,3.37-.23,6-3.27,7.76-3.22-1.7-6.06-1.23-8.89,1.12-2.63,2.19-5.9,3.51-8.65,5.57-1.34,1-2.64,2.14-2,4,.7,2.16,2.49,1.63,4.1,1.4,1.44-.2,2.9-.45,4,.89.15,2.07-1.24,3.06-2.89,3.4-5.85,1.23-11.35,4.07-17.47,4-2.76-.06-4.56.87-5.5,3.67,5.26-2.31,6.23,2.25,8.3,5.08.32,2.29-1.9,2.14-3.06,3,2.62,4.61,6.68.89,9.86,1.91,1.38,2.78.14,5.38-.74,7.91-1.71,4.91-1.43,9.94-1.82,16.3,2.18-3.06,2.34-5.88,4.51-7.37,2.46-1.68,4.67-1.9,5.13,1.66s2.19,7.56-1,10.95l-1,1.05c-6.93.77-8.19,3.48-5.6,12a11.51,11.51,0,0,1-7.71,7.67c-1.93-3.32,1.9-7-.72-10.32,1.19-7.39,2.77-14.76,1.24-22.7-2.19.92-2.26,2.77-1.87,4.36,1,4.23-.36,7.73-2.41,11.31-1.51,2.62-2.73,5.5-2.06,8.68,1.81,1.07,3.52-1.45,5.2.1-.1,5.13-3.39,7.77-7.94,6.1a25.06,25.06,0,0,0-5.66-1.87l-1.13-1.13s-.11-.48-.12-.49-.51.15-.52.15l-.42.33a2.42,2.42,0,0,1-2.28,1.09c-3.14-1.82-1.33-3.52.25-5a32.76,32.76,0,0,0,5.87-7.54,1.94,1.94,0,0,0-.55-2.76,13.22,13.22,0,0,1,.57-4.83,1.55,1.55,0,0,0-.56-1.34,2,2,0,0,0-1.54,0,2.32,2.32,0,0,0-1.23,1,5.07,5.07,0,0,1-5.27,3.05,2.34,2.34,0,0,0-1.52.48c-2.2,2.07-5.11,3.55-5.75,6.91-3.41,2-4-.87-4.94-2.92-1.18-2.76-.39-5.14,2.32-6.44a45.87,45.87,0,0,1,7.66-2.89c2.26-.61,1.2-1.66.48-2.72-.55-3.07,2.1-3.38,3.86-4.2a42.89,42.89,0,0,0,7.1-4c2.43-1.75,3.21-4.29,3.4-7.09.1-1.5-.2-3-1.86-3.54s-2.14,1-2.8,2c-1.1,1.67-2.12,3.38-3.16,5.08-1.19,2-2.73,3.37-5.25,3.2a5.17,5.17,0,0,0-3.16.56c-1.59,1-2.94,2.3-3,4.26s1.91,1.81,3.16,2.34a4.3,4.3,0,0,1,1.69,1.32C372.38,305.47,369.25,306.51,365.25,305.73Z" transform="translate(-6.49 -181.77)"/><path class="cls-4" d="M54.85,310.06a46.79,46.79,0,0,1,.64-10.82c.68-3.73.42-7.58,1.35-11.32.61-2.45.88-5,1.31-7.48.65-3.62,2.42-6.84,4-10,6.48-12.9,11.18-26.6,17.66-39.46,6.71-13.32,17.87-22.4,30.77-29.48,2.55-1.4,5.27-2.52,7.57-4.37,6.56-3.31,9.46-2.24,9.94,3.63-4.34-1-7.32,1.54-10.61,3.71-7,4.62-14.44,8.36-20.81,14-11.76,10.41-14.15,24.2-14.4,38.63-.08,4.74.2,9.34-1.14,14-1.47,5.17.19,10.51-.26,15.78-.73,8.5-.13,17.09-1.55,25.55,0,2.51-1,4.82-1.43,7.25-3.18,10.53-4.14,21.42-5,32.28-.75,9.24-1.64,18.5-1.26,27.82.14,3.36-1.13,6.27-4.59,7.28s-5.52-1.34-7.25-3.76a26.06,26.06,0,0,1-5.3-17.32c.48-8.54.33-17.16,1-25.67.71-8.89-.25-17.73.31-26.59A5,5,0,0,0,54.85,310.06Z" transform="translate(-6.49 -181.77)"/><path class="cls-5" d="M226,369.39a3.23,3.23,0,0,1,2.9-1.18c2.37,0,4.74,0,7.11,0a45.18,45.18,0,0,0,7-.65,44.2,44.2,0,0,1,15.22,0,29.34,29.34,0,0,0,11.88,0,24.08,24.08,0,0,1,4.33-.44c2.9-.09,5.8.08,8.66-.86a14.18,14.18,0,0,1,4.34-.25q59.07,0,118.16,0c1.09,0,2.18,0,3.28.06,1.57.05,2.21,1,2.42,2.44q2.15,5.4-2.59,8.77c-6.5-4.34-9.53-4.43-15.85.8-4.7,3.9-10,5.81-15.81,6.88-12.42,2.26-25,2.94-37.54,3.49-10.73.47-21.47.88-32.21,1.39-11.43.54-20.67-3.37-27.64-12.51-2.7-4.71-6.75-5.86-12-5.44-12,1-24,.38-36,.32C229.48,372.18,226.72,372.62,226,369.39Z" transform="translate(-6.49 -181.77)"/><path class="cls-6" d="M226,369.39c1,1.06,2.29,1,3.56,1q17.52,0,35,0a7.62,7.62,0,0,0,3.23-.32c3-1.47,5.71.11,8.52.54a4.14,4.14,0,0,1,2.58,1.92,8.57,8.57,0,0,1,1.87,4.48c1.06,6.87-3.33,12.55-10.68,12.57-19.33.07-38.68.51-58-.29-7.26-.3-14.47-1-21.73-.28a4.25,4.25,0,0,1-3.44-3.08c-1.93-6.13-4.33-12.22-2.73-18.88,1.45,2,3.45,2.3,5.77,2.28,10-.07,20,0,30,0C222,369.3,224,369.36,226,369.39Z" transform="translate(-6.49 -181.77)"/><path class="cls-7" d="M220.4,237.84c3.81,4.3,5.85,9.54,7.69,14.83,2.15,6.16,4.24,12.34,5.95,18.65a52.27,52.27,0,0,0,8.4,18.15c1.09,1.45,2,3,3.08,4.49,3.79,5.18,6.81,10.7,7.52,17.23-2.44,2.28-5.09,1.37-7.68.43-8.8-3.19-14.72-9.95-20.33-16.9-2.31-2.88-2.79-6.68-2.27-10.45,1-7-1.07-13.4-4.78-19.19-5.16-8.06-9-17-17.45-22.77a57.12,57.12,0,0,0-17.19-8,44.51,44.51,0,0,1-12.83-5.94,120.66,120.66,0,0,0-16.86-9,25.11,25.11,0,0,1-10.8-8.91,22.63,22.63,0,0,0-10-8.19,11,11,0,0,1-1.36-.8,7.7,7.7,0,0,1-1.17-1c-.17-.19-.33-.4-.5-.6-.3-.43-.58-.88-.84-1.33-.47-.66-1-1.29-1.44-2-1.2-2.17-1.93-4.48.46-6.18,2-1.44,4.31-1.69,6.05.75-1.31,3-.55,5.27,2.49,6.65,7.54,3.43,14,8.51,20.48,13.51,8.8,6.75,19.51,9.73,29.51,14.12,9.49,4.17,18.93,8.47,28.45,12.58C217,238.78,218.59,239.38,220.4,237.84Z" transform="translate(-6.49 -181.77)"/><path class="cls-8" d="M184.19,367a194,194,0,0,0,4.52,19.61,5.85,5.85,0,0,0,.86,1.36,4.5,4.5,0,0,1,1.48,1.84c.33,1,.83,2,1.15,3,1.65,5.13,2.62,10.46,4.54,15.52,1.06,4.06,3.82,5.16,7.79,5.13q30.36-.19,60.73-.1a36.84,36.84,0,0,1,7.64.38,8.89,8.89,0,0,1,7.16,9.06c-.09,4.07-2.59,6.53-7.41,7.28a30.42,30.42,0,0,1-4.37.25c-17.49.21-35,0-52.45-.94-6.52-.33-12.43-3.74-18.27-6.68-2.58-1.51-3.45-4.18-4.35-6.72-4.32-12.19-8.56-24.41-12.13-36.84-.61-2.13-2.06-4.46.08-6.64,1.73-1.92,1.85-3.91,1.16-6.48-2-7.29-3.46-14.72-5.28-22.06a34.09,34.09,0,0,1-.51-7.53c1.58,2.15,1.54,4.81,2,7.24C180,351.63,182.28,359.28,184.19,367Z" transform="translate(-6.49 -181.77)"/><path class="cls-9" d="M210.64,203.72c-.73,3-1.29,6-2.22,8.9a22.79,22.79,0,0,0-1.17,9.58c-1.55,1.59-3.14.63-4.48-.18-15.88-9.62-33.85-14.48-50.54-22.25a12.46,12.46,0,0,1-1.43-.8c-.85-.51-1.62-1.14-2.5-1.61-.44-.19-.88-.41-1.32-.62-.71-.28-1.43-.53-2.13-.85a6.08,6.08,0,0,1-1.42-.87,5.71,5.71,0,0,1-1.16-1.34c-.14-.28-.27-.55-.4-.83-.88-4,1.87-5.56,4.84-5.75,19.13-1.28,38.24-1.54,56.16,6.83C206.8,195.77,211.36,197.85,210.64,203.72Z" transform="translate(-6.49 -181.77)"/><path class="cls-10" d="M144.83,194.87a5.69,5.69,0,0,1,1,.12c.57.65,1.59.41,2.17,1l0,0c.56.67,1.58.41,2.16,1.07,6.84,2.89,13.73,5.7,20.53,8.7a123.1,123.1,0,0,0,18.41,6.69,9.51,9.51,0,0,1,3.89,1.9c3.92,3.38,8.87,5,13.16,7.68.27.17.71.07,1.07.1a8.91,8.91,0,0,1,3.31,3.42,10,10,0,0,0,3.17,3.37l.09.07a3.69,3.69,0,0,1,.94.95l1.3,2.21q.49.56,1,1.11l0,0a10.16,10.16,0,0,1,1,1,4.8,4.8,0,0,1,.18,1.06,6.35,6.35,0,0,0,1,1.16l0,0c.34.35.67.71,1,1.09l.08.11a16.36,16.36,0,0,1-.19,2.72,1.65,1.65,0,0,1-2.53,1.09c-.91-.59-1.7-1.36-2.59-2a30.67,30.67,0,0,0-9-4,44.59,44.59,0,0,1-13.33-6.17,8.13,8.13,0,0,0-1.93-1c-4.74-1.86-9.44-3.84-14.25-5.49a95.8,95.8,0,0,1-16.72-7.93,86.28,86.28,0,0,1-11.33-8.43,53.12,53.12,0,0,0-9.3-5.66c-2.26-1.18-4.41-2.55-6.61-3.83-1.15-.67-2.18-1.46-2-3,.2-1.78,1.49-2.35,3.07-2.52,4-2.59,6.82.37,9.86,2.21l0,0A6.76,6.76,0,0,0,144.83,194.87Z" transform="translate(-6.49 -181.77)"/><path class="cls-11" d="M418.08,213.76a2.17,2.17,0,0,0-2.36-1c-3.28,1.07-6.74,1.73-9.68,3.64a8,8,0,0,1-4.53,1.63c-1.52,0-2.77.87-4.12,1.39a9.18,9.18,0,0,1-2.07.56,1.08,1.08,0,0,1-.88-.48c-.13-.22,0-.65.15-1a.66.66,0,0,1,.4-.35c4.8-1.29,9-3.87,13.5-5.92a4.1,4.1,0,0,1,1-.42c6-.85,10.61-4.55,15.78-7.14,6.18-3.1,12.51-5.89,18.77-8.81A23.35,23.35,0,0,0,448,194c3.85-2.8,8.26-4.38,12.56-6.22,1.21-.53,2.27-1.21,2.33-2.73,2.6.56,5.22,1,7.78,1.72,1.16.31,2.55.28,3.37,1.46l-3.67,1.12a2.39,2.39,0,0,0-2.83,1c-3.61,4.33-8.2,7.64-12.43,11.61,2.78-1.15,4.31-4.26,7.6-4a22.19,22.19,0,0,1-.93,10.1c-.13,4.07-2,8-.43,12.23.64,1.71-.69,3.1-2,4.15-3.09,2.42-2.15,4.59.39,6.63a44.25,44.25,0,0,0,4.85,3.5c8.88,5.39,16.32,12.09,19.69,22.42.82-.71,1-1.7,1.92-2,3,1.84,3.47,4.94,4.11,8a1.88,1.88,0,0,0-.8,2.38c1.25,2.51.32,4.57-1.12,6.57-2.87,4-5.53,8.12-9.15,11.5a24.09,24.09,0,0,0-2.08,2.51c-1.11,1-2.46.56-2.53-.55-.31-4.48-2.4-8.93.9-13.44a16.21,16.21,0,0,0,2.58-15.35c-3.91-9.49-10.45-16-20.54-18.92-9.69-2.83-11.77-7.35-8.46-16.88.48-1.38,1.09-2.72,1.46-4.13.59-2.3.61-4.21-2.23-5.26a7.09,7.09,0,0,1-4.38-5.27c.05-2.93,2.44-3.78,3.85-4.65-7.84,3.14-15.88,7.44-24.06,11.45C422,213.79,420.18,215.05,418.08,213.76Z" transform="translate(-6.49 -181.77)"/><path class="cls-12" d="M217,325.42c.63-.3,1.29-.57,1.89-.92,2.49-1.45,2.49-1.46,1.53-4.6a2.93,2.93,0,0,1,3.56,0c3.3,1.93,6.61,1.53,9.94.23,5.11-2,10.43-.41,15.64-.87,1.73-.15,2.49,1.26,1.66,3-2.26,7.7-8,12-15,14.69a17.62,17.62,0,0,1-11.3,0,5.68,5.68,0,0,0-5.14.62c-7.22,4.67-14.61,3.67-21.77-.06a19.86,19.86,0,0,1-9.21-8.95c3.65-4,9-6.35,10.23-12.76.66-3.57,5-3.78,7.82-.89,2.47,2.55,3.5,5.91,4.54,9.15C212.65,328,214.23,329,217,325.42Z" transform="translate(-6.49 -181.77)"/><path class="cls-13" d="M251.26,322.28c-.31-1.11-.71-2.24-2.17-1.78a18.6,18.6,0,0,1-8.15.39,12.15,12.15,0,0,0-6.88,1,11.7,11.7,0,0,1-3.59,1.24c-2.55.27-5.14.39-7.12-1.84a4.29,4.29,0,0,0-2.89-1.4l-2.29-3.24c-1-1.43-.25-3.12-.74-4.65-.34-1.08-1.21-2.64.39-3.25s2.47.86,3.16,2.13c1.13,2.18,2.24,4.38,4.69,5.43.45.16.9.35,1.34.53,2.8.94,5.37.1,6.68-2.22,1.55-2.73-1.28-4.56-2.49-6.68A22.07,22.07,0,0,0,220,300.63c-3.09-.81-5.49-2.51-5.41-6,.24-10.23-5-18.41-9.73-26.79-2.06-3.67-3.83-6.94-3.57-11.62.32-5.82-4.86-9-9.11-12-4.83-3.5-10.87-4.05-16.27-6.17a216.47,216.47,0,0,1-29.47-14c-.64-.38-1.25-.8-1.88-1.2a11.55,11.55,0,0,1-1.2-.76,12.9,12.9,0,0,1-1.13-.81l-.56-.43a10.32,10.32,0,0,1-1.09-.89,8.84,8.84,0,0,1-1.42-1.63,8.53,8.53,0,0,1-1-2c-.62-4.3-2.83-7.62-6-10.53-1.59-1.46-4.13-2.47-3.84-5.36a8.71,8.71,0,0,0-.85-1.34c-3.16-3.43-3.16-3.41-7.46-1.21a7.07,7.07,0,0,1-1.54.37c-1.33.45-2.06-.2-2.53-1.36,4.51-6.28,8.51-6.48,12.26-.6l1,1.16.48.59a9,9,0,0,0,.8,1.29h0l1.1,1.09h0c5.11,3.7,11.1,6.51,12.45,13.73.38,2,2.46,3.15,4.32,4a199.21,199.21,0,0,1,25.8,13.13c5,3.06,11.06,3.57,16.44,5.87a32.64,32.64,0,0,1,18.14,18c3.18,7.57,8.69,13.94,11.22,21.86.83,2.61,2.15,5.16,2,7.91-.39,5.85,2.07,10.09,6.57,13.58,5,3.91,9.14,8.85,13.54,13.44a17.58,17.58,0,0,0,7.29,4.65c1.2.4,3.17.06,3.06,2.3C252.31,320.09,252.33,321.36,251.26,322.28Z" transform="translate(-6.49 -181.77)"/><path class="cls-14" d="M128.25,197.17c-4.54-5.13-3.14-5-9.47-1.85a5.16,5.16,0,0,0-2.53,1.86c-.88,1.79-2.64,2.51-4.28,3.23-12.9,5.64-22.57,15.21-31.49,25.73-1.57,1.85-2.7,4.55-6,3.89.88-4.48,4-7.77,6.53-11.22A91.07,91.07,0,0,1,91.52,207,70.48,70.48,0,0,1,113.9,192.6,195.36,195.36,0,0,1,142,183.7a64.85,64.85,0,0,1,14.56-1.88c3.83,0,7.66-.11,11.49,0A106.17,106.17,0,0,1,194.9,186c3.84,1.13,7.81,1.9,11.27,4.07,1.07.68,2.14,1.37,3.14,2.15a5.68,5.68,0,0,1,2.35,5.25c-.21,2.12.59,4.41-1,6.3-1.48-4.62-5.36-6.81-9.3-8.65-7.15-3.35-14.84-4.62-22.65-5.76-9.31-1.37-18.58-.69-27.86-.93a14.43,14.43,0,0,0-5.4.69c-3.08,1.12-3.11,1-1.84,4.81-1.67.18-3.14-.58-4.67-1-1.7-.5-3.34-1.32-5.19-1.18a3.14,3.14,0,0,0-2.9-1.07c-3,.12-3.82,1.41-2.66,4.13.36.83.8,1.61,1.21,2.41l-.55.49Z" transform="translate(-6.49 -181.77)"/><path class="cls-15" d="M252.35,318.84c-3.44-.43-6.71-1.31-9.42-3.6a9.76,9.76,0,0,1-2.29-2.29c-1.12-1.93-3-3.24-4.16-5-3.21-4.82-7.83-8-12.33-11.38a8.39,8.39,0,0,1-3.72-7.5c.51-8.66-3.48-15.88-7.52-23-2.25-3.95-4.89-7.62-6.35-12a21.74,21.74,0,0,0-4.06-6.4c-5.47-6.78-13-9.77-21-12a42.51,42.51,0,0,1-14.7-6.88c-2.57-1.95-5.7-3.21-8.67-4.6-3.13-1.46-6.37-2.66-9.54-4.05-1.15-.5-2.19-1.26-3.32-1.83a6.35,6.35,0,0,1-3.74-5.64c-.09-3.18-1.84-5-4.21-6.57a17.82,17.82,0,0,1-5.79-5.67c5.79,1.14,9.64,5.05,12.88,9.5a21.7,21.7,0,0,0,8.62,7.29c3.8,1.75,7.47,3.76,11.24,5.56a78.86,78.86,0,0,1,8.43,5,31.86,31.86,0,0,0,10.4,4.67,92.31,92.31,0,0,1,9.88,3.18,8.94,8.94,0,0,1,2,.88,76.71,76.71,0,0,1,15.55,12.78,12,12,0,0,1,2.71,4.07c1.47,4.64,4.91,8.07,7.07,12.25,3.11,6,5.51,12.18,4,19.29A11.59,11.59,0,0,0,227,295.13c3.26,3.68,6.57,7.48,10.48,10.38,4.49,3.33,9.43,6.37,15.54,5.68C253.16,313.77,253.89,316.41,252.35,318.84Z" transform="translate(-6.49 -181.77)"/><path class="cls-16" d="M83.31,396.67a63.56,63.56,0,0,0-9.1.81c-3.5.62-7.18.23-10.78.25-1.78,0-2.83-1.48-4.3-2.12-1.41-1.08-3.34-1.48-4.22-3.25a4.49,4.49,0,0,1-.4-4.49c0-.66,0-1.33.05-2-1-2.92.33-6-.77-8.94q-.1-5.44-.23-10.87c.11-1.88.21-3.75.31-5.63.8-13.17.11-26.35.37-39.52,0-2.14-.44-4.33.42-6.43.07-1.47.13-2.95.19-4.43.92.24,1.81.64,1.93,1.67.16,1.44.14,2.9.17,4.36a31.91,31.91,0,0,0,.77,8.12,11.78,11.78,0,0,1,.15,6c-1.19,4.32-.82,8.68-.91,13a37.8,37.8,0,0,1-.79,8.66c-.57,2.24-.26,4.71-.29,7.08,0,2.73.08,5.47,0,8.2C55.57,373.77,58.8,379,62.51,384a7.69,7.69,0,0,0,2.15,1.65,2.28,2.28,0,0,0,3-.24,6.46,6.46,0,0,0,2.5-5.21c-.08-3.47,0-6.93,0-10.4,0-3.63-.34-7.29.86-10.84a4,4,0,0,0,.13-1.63c-.55-6,1.08-11.93,1.23-17.93a46.55,46.55,0,0,1,1.06-7c.7-3.93,1.43-7.85,2.23-11.76a7.4,7.4,0,0,1,1-1.85c2.47,2.47,1.54,5.42,1,8.23a263,263,0,0,0-3.54,51c.15,6,1.74,11,7.29,14.22C83.09,393.2,84.56,394.45,83.31,396.67Z" transform="translate(-6.49 -181.77)"/><path class="cls-17" d="M74.53,230a8.38,8.38,0,0,0,3.59-3.27c1.62-2.72,4-4.73,6.07-7,1.24-1.33,2.39-2.73,3.56-4.12a16.31,16.31,0,0,1,1.34-1.71c7.87-6.83,16.27-12.84,26.08-16.62a4.77,4.77,0,0,1,1.08-.14l2.16,1.09c-.73,1.65-2.32,2.24-3.78,2.95a81.4,81.4,0,0,0-14.85,9.07c-1.13.9-2.29,1.79-3.33,2.79-2,1.88-3.77,4-5.83,5.75-5.7,4.89-9.13,11.19-11.66,18.1a21.5,21.5,0,0,1-1.21,3c-3.68,6.72-6.35,13.86-9,21A22.54,22.54,0,0,1,67,264.35a19.77,19.77,0,0,0-1.68,2.8c-1.72,4.79-4.47,9-7.16,13.29-.43-2.42.57-4.65,1-6.92,2.68-13.12,6.19-26,12.14-38.07.3-.32.61-.63.92-.94l.17-1.21c.31-.35.62-.69.94-1l.15-1.14a10.13,10.13,0,0,1,1-1.07Z" transform="translate(-6.49 -181.77)"/><path class="cls-18" d="M217,325.42a6.73,6.73,0,0,1-.69,3.68c-.9,1.85-2.41,2.24-3.88.93-.81-.72-1.74-1.5-1.79-2.62-.12-2.82-1.92-5-2.57-7.67a9.34,9.34,0,0,0-2.87-4.52c-1.87-1.75-5.57-.89-5.34,1.52.59,6.33-4.83,7.88-8,11.23-.8.85-2,.68-3.09.64a1.43,1.43,0,0,1-.37-.76,3,3,0,0,0-.84-1.3c-.91-1.76-1.89-3.49-2.7-5.29a15.44,15.44,0,0,0-2.87-4.55c.16-.71.25-1.69,1-1.81,3.8-.61,5.88-3.28,7.93-6.15a33.13,33.13,0,0,1,3.65-4,2.77,2.77,0,0,1,3.94-.43,5.71,5.71,0,0,0,7.53,0,2.64,2.64,0,0,1,1.52-.49c.47,0,1.33.44,1.32.66-.12,5.15,3.82,8.95,4.54,13.79A12.45,12.45,0,0,0,217,325.42Z" transform="translate(-6.49 -181.77)"/><path class="cls-19" d="M346.39,310.15c.06,2.55.11,5.09.17,7.64,0,1.54.29,2.9,2.14,3.33,1.36.33,2.27,1.64,4,1.42s2.05,2.46,3.79,2.78c.43.33.85.69,1.3,1,2.79,1.93,3.7,4.34,2,7.46a2.2,2.2,0,0,0-.13.52c-.52,2-.07,2.78,1.81,3.05a15.46,15.46,0,0,0,10.93-2.41c.91-.59,1.67-1.39,2.56-2,.43-.3,1.28-.68,1.44-.53,2.08,2.08,3.11-.22,4.52-1a1.79,1.79,0,0,1,2.38.68,1.52,1.52,0,0,1,0,2c-1.68,1.92-3.4,3.8-3.77,6.48-1.84-.41-3.1-1.76-4.49-2.88a2.39,2.39,0,0,0-3-.29,13.43,13.43,0,0,1-6.21,1.79c-5.14.27-9.64-1.14-13.25-5.06-6.1-6.61-8.15-14.34-6.71-23.11C345.86,310.72,346.19,310.44,346.39,310.15Z" transform="translate(-6.49 -181.77)"/><path class="cls-20" d="M409.09,377.08a25.18,25.18,0,0,0,2.22-8.59c1.89-3.57,2.2-7.6,3.46-11.35.63-1.86.5-4,1.94-5.55a9.68,9.68,0,0,1-.23,4.84c-3,12.71-6,25.43-9.05,38.11-2.76,11.29-6.63,22.25-10.36,33.24-.58,1.7-1.35,3.41-.14,5.17-5,.9-4.42-2.49-3.83-5.34,1-4.79,3.18-9.22,4.63-13.87a7.57,7.57,0,0,1,.38-1.47c.33-.88.7-1.75,1-2.64a12.93,12.93,0,0,1,.46-1.23q.46-1.2.84-2.43a11,11,0,0,1,.39-1.23c.27-.84.51-1.69.74-2.54a8.87,8.87,0,0,1,.44-1.35,21.83,21.83,0,0,0,1.36-7.28C405,388,405.23,381.89,409.09,377.08Z" transform="translate(-6.49 -181.77)"/><path class="cls-21" d="M390.63,219l2.89,3.93c-3.16,3.36-6.38,6.45-8.55,10.39a4,4,0,0,1-3.29,4.48c-.56.44-1.31.78-1.64,1.35-3.35,5.79-8.12,10.73-10.43,17.15-.17.47-.7.79-1.07,1.18.36-4.46,2.62-8.26,4.45-12.18A55.21,55.21,0,0,1,386.43,227c.54-.49,1-1.25,1.59-1.47,3.12-1.11,3.13-3.38,2.46-6C390.44,219.36,390.57,219.16,390.63,219Z" transform="translate(-6.49 -181.77)"/><path class="cls-4" d="M54.66,314.49q0,21.45.08,42.91a4.2,4.2,0,0,1-.87,3c-.07-5.43-.19-10.85-.2-16.28q0-12.23.11-24.45C53.8,318,53.36,316.06,54.66,314.49Z" transform="translate(-6.49 -181.77)"/><path class="cls-7" d="M213.73,229a3.19,3.19,0,0,1-3.17-3.37A6.55,6.55,0,0,1,213.73,229Z" transform="translate(-6.49 -181.77)"/><path class="cls-19" d="M347.57,304.86c.14,1.42.43,2.87-.92,3.94A3.94,3.94,0,0,1,347.57,304.86Z" transform="translate(-6.49 -181.77)"/><path class="cls-21" d="M368.55,257.46a3.38,3.38,0,0,1-1.19,3.39A3.33,3.33,0,0,1,368.55,257.46Z" transform="translate(-6.49 -181.77)"/><path class="cls-19" d="M348.57,302.54a1.45,1.45,0,0,1-.84,1.84A1.58,1.58,0,0,1,348.57,302.54Z" transform="translate(-6.49 -181.77)"/><path class="cls-11" d="M462.16,184.87a2.28,2.28,0,0,1-2.58-.75A2.51,2.51,0,0,1,462.16,184.87Z" transform="translate(-6.49 -181.77)"/><path class="cls-12" d="M187.6,326.55a1.44,1.44,0,0,1,.84,1.3Z" transform="translate(-6.49 -181.77)"/><path class="cls-14" d="M72.24,234.51l-.93.94Z" transform="translate(-6.49 -181.77)"/><path class="cls-7" d="M218.1,234.38c-.32-.33-.65-.66-1-1C217.45,233.72,217.78,234.05,218.1,234.38Z" transform="translate(-6.49 -181.77)"/><path class="cls-7" d="M217.08,233.33l-1-1.11Z" transform="translate(-6.49 -181.77)"/><path class="cls-14" d="M73.35,232.28l-.94,1Z" transform="translate(-6.49 -181.77)"/><path class="cls-14" d="M74.5,230.07c-.34.35-.67.71-1,1.07C73.83,230.78,74.16,230.42,74.5,230.07Z" transform="translate(-6.49 -181.77)"/><path class="cls-7" d="M214.76,230l-.94-1Z" transform="translate(-6.49 -181.77)"/><path class="cls-7" d="M220.32,237.72l-1-1.09Z" transform="translate(-6.49 -181.77)"/><path class="cls-7" d="M219.32,236.6c-.35-.39-.7-.77-1-1.16Z" transform="translate(-6.49 -181.77)"/><path class="cls-22" d="M490.27,263c-1.94-1.28-3.82-2.55-3.31-5.38a2.87,2.87,0,0,0-.92-2.43c-4.58-4.46-9.35-9.61-10.58-15.41-.84-4-4.84-5.93-4.39-9.95.31-.82.77-1.37,1.75-1a33.61,33.61,0,0,1,13.74,13A63.7,63.7,0,0,1,493,255c1.82,5.71,4.29,11.22,5.34,17.19a92.75,92.75,0,0,1,1.9,13.5c.09,2.71.77,5.41.9,8.13a25.25,25.25,0,0,1-.58,8.16,13.74,13.74,0,0,0-.33,3.8,101,101,0,0,1-3,24.88c-1.3,5.46-1.73,11.13-2.62,16.7-.78,4.84-1.44,9.72-2.54,14.5a112,112,0,0,0-1.55,11.9,182.69,182.69,0,0,0-1.41,29.49,77.68,77.68,0,0,0,.87,9.22,23.34,23.34,0,0,1-3.13,16.33c-1,1.59-2.15,3-4.29,2.93a2.67,2.67,0,0,1-.13-2.62c5.64-10.66,1.93-21.46-.22-31.92-1.23-6-.16-11.89-1.1-17.76-.28-1.77-.14-3.6-.8-5.39-2,2.23-.08,6.56-4.33,7.29.19-6.38,1.66-12.59,2.54-18.88,1.55-11.13,4.05-22.13,5.2-33.33a33,33,0,0,1,1.37-5.27c2.14-7.69,5.28-15.15,6.45-23.07,1-6.63,2.84-13.11,3.09-19.87.12-3.52-1.09-6.81-1.13-10.26-.93-.94,0-2.43-1-3.35,0-.33-.07-.66-.1-1a11.37,11.37,0,0,0-1-1.22c-.06-.33-.1-.65-.14-1a3.68,3.68,0,0,0-1.06-1.16Z" transform="translate(-6.49 -181.77)"/><path class="cls-23" d="M479.34,256.36c1.88,4,1.56,8.07,0,12a29.89,29.89,0,0,1-4,7.11c-.94,1.24-1.4,2.84-.14,4,1.64,1.49,1,2.83.35,4.38s.41,1.89,1.6,2.07c-.47,1-1,1.93-1.42,2.92-1.34,3.06-3.28,5.14-7,4.94-.82,0-1.67.63-2.5,1-3-1.74-1.9-3.44,0-5.13.49-1.35,3.67.33,2.8-2.51-5.55,2.13-9.54,7.35-15.84,7.83a9.34,9.34,0,0,0-5.89,2.44c-4.35-.2-8.5-1.56-12.76-2.22-.74-2.61-3-2.84-5.13-3.15a43.88,43.88,0,0,1-11.08-2.92c-7.72-3.3-8.46-7.21-2.11-12.89,3.93-3.53,8-6.86,11-10.53a31.09,31.09,0,0,1-15.24,9c-2.24.56-4.9,1.47-6.25-1.38-1-2.19,1.81-8.83,3.79-9.3a26.75,26.75,0,0,0,13.27-7.8c-1.26,1.26-2.59,2.3-4.58,1.73-1.75-2.39.5-3.59,1.61-5,1.23-1.56,2.63-3,4-4.44a12.74,12.74,0,0,1,2.14-1.81l.66-.21a11.22,11.22,0,0,0,3.31-7.66c1.29-3,8.83-8,11.42-7.37,3.14.77,2.57,2.44.11,4.86,3.06-1.94,5.63-2.67,8.4-1.82s4.49,3,5.88,5.42c1.13,2,2.14,3.87,5,2.76a3.3,3.3,0,0,1,4.52,1.91c1,2.16.23,4-1.44,5.34-3,2.42-6.29,4.8-10,5.54-6.26,1.26-9.26,5.22-11.21,10.67-.61,1.71-1.35,3.38-1.81,5.15-1.9,7.22-1.9,7.23-9.39,7.72-1.75.12-3.56.65-3.86,2.42-.39,2.29,1.85,2.48,3.34,2.63a19.42,19.42,0,0,1,9.08,3.39c3,2,6.65,1.6,10.08,1.79,1.65.38,3.3.72,4.84-.37a19.38,19.38,0,0,0,10.24-9.79c3.71-7.37,9.84-13.4,12.42-21.47A2.17,2.17,0,0,1,479.34,256.36Z" transform="translate(-6.49 -181.77)"/><path class="cls-24" d="M447.45,297c-.12-.34-.23-.69-.36-1-.38-1-.24-1.88.87-2.12a15.86,15.86,0,0,1,3.24-.18,14.35,14.35,0,0,0,8.62-2.77c2.34-1.69,4.73-3.33,7.06-5,1.35-1,2.59-1.29,3.76.21.67,2.88-2,3.07-3.43,4.3-2.1,1.75-2.1,1.75-1,4.43-2.35,2-5.34,3.07-7.39,5.47-.45.53-1.25,1-1.88.3s0-1.33.32-2a6.07,6.07,0,0,0,.32-1.13c-1.62-.28-2.71.88-4,1.4-2.63,1.06-2.65,1.15-.85,3.39.55.7.75,1.31.06,1.83a58.48,58.48,0,0,1-12.63,7.38,1.7,1.7,0,0,1-2-.4c-2.61-2.87-6.35-2.35-9.62-3-3-.58-6.11-.27-9.17-1-2.29-.55-4.72-.36-6.23,2.15-.3.51-1.23.64-1.87.95.88-2.33.09-4.65-.06-7a13.63,13.63,0,0,0-.64-2.63c-.27-1,.86-2.12-.18-3.07-.54-.5-2.39.6-3.44,2.16a8.6,8.6,0,0,0-1.05,2.45c-.22.87-.15,1.81-.35,2.68-.36,1.55-1.55,2.85-2.34,2.61a3.8,3.8,0,0,1-2.57-2.59,5,5,0,0,1-.15-2.14c.13-.88.76-1.76.69-2.6-.56-6.33,1.8-12.07,3.42-18a7.25,7.25,0,0,0,.08-1.62c-1.73-2.16-4.61-2.59-6.58-4.4a3.29,3.29,0,0,1-2.76-1.48,10,10,0,0,1-.59-1.52c-.39-1.07-.9-2.08-2.21-2s-1.7,1.15-2.14,2.16a3.68,3.68,0,0,1-.91,1.31,1.51,1.51,0,0,1-1,.13,1.17,1.17,0,0,1-1-1.08,2,2,0,0,1,0-1.07c1.21-2.43,2.43-4.86,3.72-7.25a1.55,1.55,0,0,1,1.92-.58c3.6,1,7.8.72,10.68-.89a8.54,8.54,0,0,1,3.08-.88c2.15-.34,4.28-.76,6.41-1.21a3.45,3.45,0,0,0,2.38-2.07,2.33,2.33,0,0,1,2.27-2.12c1.6-.09,2.62-1.14,3.68-2.15s2.16-2,3.3-2.85a.93.93,0,0,1,1.27,1.07c-1.78,3-3.65,5.73-6.83,7.59a41,41,0,0,1-11.51,4.32c-.87,1.81,1.54,2.46,1.07,4.1-.42,1.44-2.12,2.07-2.16,3.68,1.11,1.09,2.41.68,3.58.38a37.5,37.5,0,0,0,16.49-9.18c1.19-1.11,2.44-2.17,3.71-3.18.17-.14.73,0,1,.18a1.37,1.37,0,0,1,.44.93,2.48,2.48,0,0,1-1.15,2.34c-2.56,1.55-4.18,4-6.09,6.13a27.5,27.5,0,0,1-4.88,4.36,27.82,27.82,0,0,0-5.2,4.8c-2.66,3.13-1.86,4.25,1,6.12a27.56,27.56,0,0,0,7.56,3,22.45,22.45,0,0,0,6.4,1.27,13.66,13.66,0,0,1,4.22,1c2.33.73,2.34.93.52,3.26-4.15,3.11-8-1-11.32-.57,4.26,1.2,9.27,2,14.19,3.32C440.55,298.37,444.18,299.91,447.45,297Z" transform="translate(-6.49 -181.77)"/><path class="cls-25" d="M509.82,393.63c-.2,4.09,1.22,7.88,2.22,11.73.78,3,1.74,5.92,2.62,8.88,1.05,6,2.49,11.92,5.51,17.32.35,3.42-3,2.31-3.83,3,4.54,1,9.25-2.66,14.47-.85a.82.82,0,0,0,.81.32c.78.07.94.43.5,1.07.57,5.11,2.38,9.88,4.33,14.57a182.23,182.23,0,0,0,24.84,42.9c2.46,3.14,4.08,6.31,3.71,10.34,0,3.58-1.45,4.87-4.87,3.25a4.68,4.68,0,0,1-.78-1.44c-2.24-5-6.33-8.77-9.25-13.37-7.37-11.6-12.43-24.33-18.66-36.49a7.88,7.88,0,0,1-.55-1.42,33.65,33.65,0,0,0-1.67-7.22,12.7,12.7,0,0,1-.53-1.33,4.83,4.83,0,0,0-1.47-2.3c-.75-.65-1.54-1.24-2.28-1.9-1.87-2.34-4.53-1.76-7-1.85-3.22-.12-6.5,0-9.1-2.4a1.21,1.21,0,0,1,.26-1.52c.86-.25,1.73-.47,2.58-.76a2.35,2.35,0,0,0,1.76-2.44,30.09,30.09,0,0,0-.31-5.39c-1.83-8.29-3.63-16.58-5.79-24.78C506.46,398.15,506.8,395.6,509.82,393.63Z" transform="translate(-6.49 -181.77)"/><path class="cls-26" d="M476,381.34c1.79-2.67,2.1-5.7,2.28-8.79.13-2.1.71-3,1.66-2.91,1.45.19,1.34,1.45,1.66,2.45.87,2.78,1.87,5.5,1.05,8.51a4.57,4.57,0,0,0,.14,2.69,8,8,0,0,1-.36,7.33c-.52.89-.08,1.71.38,2.54a15.66,15.66,0,0,1,2,8.38,7.37,7.37,0,0,0,.36,3.22,19.19,19.19,0,0,1,1.35,7.83c.05,2.65.39,5.4.49,8.12a9.32,9.32,0,0,1-1.2,4.7c-1.08,2.1-2.15,4.22-3.22,6.33h0a3.75,3.75,0,0,1-4.25,0,116.47,116.47,0,0,1-2.16-15.56c-.41-5.05-.77-10.12-1.24-15.17a71,71,0,0,1,.12-13c1.18-2.08-.32-4.55,1-6.61Z" transform="translate(-6.49 -181.77)"/><path class="cls-27" d="M399.26,412a9.85,9.85,0,0,1-.83,4.75c-1.4,3.9-2.74,7.84-4.08,11.77-1,3-.94,3.1,2.58,4.39l.09,0c2.45,1.13,5.17-.19,7.65.81l1.15.38a4.88,4.88,0,0,1,1,.77l.17.17c-.34,2.75-2.56,2.5-4.15,2.07-2.64-.7-5,0-7.52.43a11.12,11.12,0,0,1-3.36-.22c-8.07-2.37-8.29-2.46-11.3,4.9C372.59,462,361,479.69,349,497.17c-1,1.44-1.93,2.77-3.94,1.57a4.56,4.56,0,0,1-1-3c.36-4.42,3.21-7.63,5.6-11A243.14,243.14,0,0,0,365,461a18,18,0,0,0,3.16-6.8,12.33,12.33,0,0,1,2.48-4.89c4.49-5.72,5.29-13.2,9.15-19.22,1.37-1.79,3.15-3.46,5.27-3.71,6.92-.81,9.14-5.74,10.78-11.38C396.72,413.73,397,411.75,399.26,412Z" transform="translate(-6.49 -181.77)"/><path class="cls-28" d="M509.12,434.93c0,.49.06,1,.08,1.46-.63,2.49-2.87,2.15-4.63,2.67-.77.17-1.55.31-2.33.45a28,28,0,0,1-3.87.44,9.64,9.64,0,0,0-3.75.66,8.66,8.66,0,0,1-1.57.35c-1.89.2-3.78,1-5.63-.12-2.2-2.19-5.06-1.63-7.73-1.77-5.61-.3-11.27.55-15.89-.5A46.14,46.14,0,0,0,475.63,440c1.89,0,4.15-.19,5,2.33-3.8,3.87-8.69,2.77-12.91,2-9.6-1.75-19.14-1.59-28.74-.86-7.21.54-14.28-.78-21.38-1.58-2.32-2.06-7.16-1.76-6.37-6.75a39.81,39.81,0,0,1,6,.13c6,1,12,1,18,1.09a34.05,34.05,0,0,1,6.52.56,34,34,0,0,0,11.43.11c8.16-1.11,16.34-.89,24.52-1,5.64-.08,11.29,0,16.93,0,2.12-.83,4.41.14,6.52-.66l5.44-.56a3.28,3.28,0,0,1,2.48.16Z" transform="translate(-6.49 -181.77)"/><path class="cls-29" d="M471.49,230.15c1.87,2,3.75,4,5.58,6,.45.5,1.17,1.11.49,1.83-.16.17-1-.26-1.46-.44s-.85,0-.72.46a3.8,3.8,0,0,0,.85,1.35c1.45,1.61,3.17,3,3.33,5.45a2.36,2.36,0,0,0,1.22,1.7c3,2.15,4.17,5.39,5.26,8.69-.13,1.8-.24,3.61-.43,5.4,0,.23-.5.53-.79.57a1.1,1.1,0,0,1-.9-.37,8.55,8.55,0,0,1-1.15-2.45,26,26,0,0,0-7.7-13.48,51.75,51.75,0,0,0-12-9.34,53.77,53.77,0,0,1-5.78-4.06,4.91,4.91,0,0,1-2.09-4.72c.16-1.94,1.31-2.72,3-3.41,2.36-1,2.68-1.63,1.56-3.66-1.48-2.7-1.54-5.16.1-7.7.79-1.21.61-2.89,1.9-3.85.83,1.59,2.25,2.84,2.35,4.84.06,1.32,1.21,1.67,2.34,1.86a10.93,10.93,0,0,1,1.46,5.32,10.58,10.58,0,0,1,.07,1.59,4.61,4.61,0,0,1-.34,1.51c-.72,1.29-2.1,1.87-3.07,2.9s-1.8,2.56-.3,3.64c1.09.79,2.4,2.92,4.11.4C469.18,229,470.45,228.89,471.49,230.15Z" transform="translate(-6.49 -181.77)"/><path class="cls-30" d="M511.85,313.94a8,8,0,0,1,1.71,4.31c.28,3.53-.68,7.14.76,10.58-1.19,3.5-.48,7.18-1,10.77-.32,2-1.1,4.45.57,6.47a2.28,2.28,0,0,1,.09,2.55c-.83,2-1.64,4.05-.37,6.2a1.4,1.4,0,0,1-.09,1.53c-1.48,2.49.5,5.42-1,7.91,1,2.62-1.4,5.3.15,7.95.18.29-.14,1.06-.45,1.42a2.7,2.7,0,0,0-.17,3.54c.95,1.28.42,1.77-.56,2.5a2,2,0,0,0-.8,2.39c.41,1.19.57,2.47,1.08,3.6.42.93-.22,1.33-.58,1.88a1.3,1.3,0,0,1-.82.58,1.09,1.09,0,0,1-.84-.5,4,4,0,0,1-.45-1.54c-.32-6.91-.64-13.84.63-20.69.91-4.9.22-9.81.58-14.7.83-11.1.74-22.22.63-33.34A4.26,4.26,0,0,1,511.85,313.94Z" transform="translate(-6.49 -181.77)"/><path class="cls-19" d="M383.89,311.19a13.24,13.24,0,0,1,2.62.38c.64.22,1.4.94.59,1.59-3.36,2.72-5.2,6.8-8.61,9.47-1.47,1.15-.85,2.54-.17,3.86-2.35,2-5.49,2.84-7.39,5.58a20.85,20.85,0,0,0-6.88-2.5,2.42,2.42,0,0,1-1.83-1.84c-.27-.89.5-2.26,1.26-2,2.95,1.12,5.72-.2,8.56-.49a4.53,4.53,0,0,0,2.45-1C378.56,320.57,382.82,317,383.89,311.19Z" transform="translate(-6.49 -181.77)"/><path class="cls-11" d="M471.49,230.15c-2.71.21-2.71.22-1.52,2,.1.15.24.27.35.41s.27.29.29.45c0,.32.13.77,0,.94a1.1,1.1,0,0,1-1,.24c-2.07-1.06-4.27-1.77-6.42-2.62s-2.39-2.72-1.41-4.92c1.09-2.46,3.6-2.81,5.4-4.2,3.15-1.43,6.47-4.57,8.88.95a9.36,9.36,0,0,1-6.88,2.37c.37,2.43,2.86,1.6,3.65,3Z" transform="translate(-6.49 -181.77)"/><path class="cls-31" d="M365.25,305.73c2.9-1.51,6.35-1.93,8.75-4.42h0c.91,0,1.83,0,2.73,0s1.91.49,1.94,1.52a2.84,2.84,0,0,1-1,1.77,3.19,3.19,0,0,1-1.91.93c-3.42-.08-6.13,2.24-9.43,2.61-1.58.17-2.28,1.77-1.85,3.38a21.35,21.35,0,0,0,1.08,3.09,2.88,2.88,0,0,0,3.06,1.82c.67.23,1.49.38,1.62,1.19s-.65,1.23-1.3,1.5c-2.76,1.1-6.41-1.08-6.86-4.19-.44-2.95-.38-5.8,2.29-7.9A5.38,5.38,0,0,0,365.25,305.73Z" transform="translate(-6.49 -181.77)"/><path class="cls-24" d="M382.79,326.54c1.82-1,3.53-.17,5.17.42a6.26,6.26,0,0,0,4.68.09c2.29-.89,3.54-2.37,3.36-4.89a1.86,1.86,0,0,1,1.06-1.07,7.3,7.3,0,0,1,1.57.33c.68.29,1.43.9.93,1.63-1.09,1.6-2.71,3-.93,5.08L397,330.89a27.27,27.27,0,0,0-3.47,1.32,9.61,9.61,0,0,1-5.72.87c-1.71-.18-2.23-.92-1.6-2.85.36-1.07.2-1.7-.68-2.21S383.4,327.6,382.79,326.54Z" transform="translate(-6.49 -181.77)"/><path class="cls-32" d="M489.08,232.34c2.79,3.3,5.74,6.49,7.22,10.68.18.51.45,1.3.81,1.38,2.88.6,2.94,3.37,3.75,5.25,1.16,2.7,3.28,5.17,2.36,8.66-.35,1.33.83,3.08,1.32,4.64a1.35,1.35,0,0,1-2,.05c-2.11-5-3.9-10.15-6-15.17a62.92,62.92,0,0,0-6.09-10.89c-.81-1.2-1.57-2.44-2.36-3.66A1.47,1.47,0,0,1,489.08,232.34Z" transform="translate(-6.49 -181.77)"/><path class="cls-33" d="M462.69,198c-1.87,2.37-5,3.32-6.64,6-.84,1.36-2.62.87-4.05.69a1.06,1.06,0,0,1-.68-.66,1.11,1.11,0,0,1,.24-1c3-2.33,5.55-5.13,8.53-7.49,2.73-2.17,5.69-4.35,7.42-7.62.59-1.1,1.48-.91,2.41.4a5.19,5.19,0,0,1,.43,1Z" transform="translate(-6.49 -181.77)"/><path class="cls-24" d="M404.72,323.21c-3.36-1.74-4-4.43-2.68-7.77.45-1.18.81-2.4,1.31-3.56.84-2,2.81-2.13,4.53-2.47,1.2-.24,1.88.84,2.44,1.81a78.08,78.08,0,0,0-3.06,7.35C406.71,320.35,405.58,321.68,404.72,323.21Z" transform="translate(-6.49 -181.77)"/><path class="cls-34" d="M476.05,223.45c-1.89-1.73-3.75-2.36-6-.36-.94.85-1.95-.33-2.92-.59l-.05-.07c-.2-.49-.66-.83-.8-1.36-.48-2.1,0-4.18.13-6.27,1.26-1.24,1.82-1.31,1.86-.35a3.4,3.4,0,0,0,2.77,3.5,23,23,0,0,1,10.77,6.91,2.36,2.36,0,0,1,.71,1.95l.08-.09Z" transform="translate(-6.49 -181.77)"/><path class="cls-20" d="M411.23,435.12a2.91,2.91,0,0,0,1.75,2.47c1.43.67,3,1.26,3.78,2.79a2.88,2.88,0,0,1-2.46,1.09c-5.13-1-10.59.55-15.54-2-1.55-.78-3.65-.85-4-3.15,2.87-1.16,5.73-1.78,8.79-.52a2.82,2.82,0,0,0,3.42-.73C408.4,434.87,409.81,434.06,411.23,435.12Z" transform="translate(-6.49 -181.77)"/><path class="cls-35" d="M506.71,275a8.39,8.39,0,0,1,3,6.46c0,1.92.85,3.85,1.26,5.79a6,6,0,0,1-.19,4.24c-.12.22-.58.29-.9.35-.13,0-.44-.19-.43-.27.24-2.75-1.64-5-1.84-7.66-.18-2.49-.92-4.95-1.31-7.43-.07-.47.32-1,.5-1.53Z" transform="translate(-6.49 -181.77)"/><path class="cls-19" d="M350.9,314.45c-.81.29-1.71.89-2.42,0a2.6,2.6,0,0,1-.61-1.92,28.8,28.8,0,0,1,2.81-7.45c.38-.63.87-1.26,1.63-1.06s.86,1,1.05,1.72C352.53,308.65,350.37,311.17,350.9,314.45Z" transform="translate(-6.49 -181.77)"/><path class="cls-36" d="M510.55,296.63c3.78,2.69,2.05,6.39,1.73,9.8,0,.3-.78.6-1.24.74-.15,0-.62-.42-.66-.7-.38-2.51-.76-5-1-7.53A2.4,2.4,0,0,1,510.55,296.63Z" transform="translate(-6.49 -181.77)"/><path class="cls-35" d="M502.58,263l2-.05c.7.1,1.58.27,1.39,1.13a6.67,6.67,0,0,0,.88,5,5.67,5.67,0,0,1-.1,5.95l.06,0a10.77,10.77,0,0,1-1.75-2.65C504.09,269.26,503.38,266.11,502.58,263Z" transform="translate(-6.49 -181.77)"/><path class="cls-34" d="M489.08,232.34l-.94.94a26.45,26.45,0,0,1-5.5-6.56l-.08.09a2.67,2.67,0,0,1,2.71,1.2C486.49,229.49,487.8,230.9,489.08,232.34Z" transform="translate(-6.49 -181.77)"/><path class="cls-20" d="M404.67,433.8c-1.61.11-3.21.24-4.82.32A2.89,2.89,0,0,1,397,433C399.58,433.13,402.24,432.34,404.67,433.8Z" transform="translate(-6.49 -181.77)"/><path class="cls-22" d="M476,381.34c0,2.25.7,4.61-1,6.61C475,385.69,474.35,383.35,476,381.34Z" transform="translate(-6.49 -181.77)"/><path class="cls-25" d="M501.11,435.31c-2.05,1.39-4.32.7-6.52.66C496.67,434.82,498.91,435.22,501.11,435.31Z" transform="translate(-6.49 -181.77)"/><path class="cls-22" d="M478.32,431.72l4.25,0C480.43,433.2,480.21,433.2,478.32,431.72Z" transform="translate(-6.49 -181.77)"/><path class="cls-11" d="M492.51,267.31c1.17.86,1.12,2.1,1,3.35C492.43,269.78,492.44,268.55,492.51,267.31Z" transform="translate(-6.49 -181.77)"/><path class="cls-25" d="M509,434.91l-2.48-.16A1.62,1.62,0,0,1,509,434.91Z" transform="translate(-6.49 -181.77)"/><path class="cls-11" d="M491.46,265.1c.32.4.63.81,1,1.22C492.09,265.91,491.78,265.5,491.46,265.1Z" transform="translate(-6.49 -181.77)"/><path class="cls-11" d="M490.26,263l1.06,1.16Z" transform="translate(-6.49 -181.77)"/><path class="cls-20" d="M406.81,435a.94.94,0,0,1-1-.77A.8.8,0,0,1,406.81,435Z" transform="translate(-6.49 -181.77)"/><path class="cls-24" d="M381.67,324.32c0,.36,0,.73,0,1.09H380.6l1.1-1Z" transform="translate(-6.49 -181.77)"/><path class="cls-37" d="M181.16,372.58c.64,2.47,1.15,5,1.94,7.39,4.56,14.06,8.49,28.34,14.36,41.95,2.22,1.4,2.72,4,4.27,5.93.77,1.25,2.59,1.82,2.42,3.69-2.71,3-6.49,3.21-10.05,3.54s-4.81-1.67-2.85-4.73c2.42-3.8.66-5.76-2.31-7.49-3.16-1.83-6.63-3-9.93-4.59-2.5-1.18-4.6,0-6.68,1.21-3.6,2.16-7.12,4.5-11.51,4.79a3.12,3.12,0,0,0-2.37,1.2c-7,9.25-17.85,10.25-27.83,12.38-9.62,2-19.64,1.28-29.5,1a5,5,0,0,1-4-1.57c-.81-4.36,2.66-5.23,5.45-6.2a90.42,90.42,0,0,0,18.78-8.76,23.21,23.21,0,0,0,9.44-11c3.57-8.51,8.9-16.47,7.69-26.37-1.09-9-1.09-18.14-3.62-27-3.28-11.52-1.47-23.55-2.81-35.29-.32-2.73.35-5.62,3.38-6.87a7.38,7.38,0,0,1,8.14,1.67c3.58,3.38,7.55,6.27,11.19,9.56,5.78,6.77,9.53,14.81,13.9,22.45,2.95,5.16,6,10.25,8.87,15.48Q179.37,368.78,181.16,372.58Z" transform="translate(-6.49 -181.77)"/><path class="cls-38" d="M143.59,221.19l1.16.09a14,14,0,0,0,1,1,5.67,5.67,0,0,1,3,1.3,32.2,32.2,0,0,0,9.67,4.94,26,26,0,0,1,7.23,3.76,25,25,0,0,0,10.44,4.47c2.84.6,5.65,1.44,8.42,2.31a33.76,33.76,0,0,1,15.89,11.09,9.58,9.58,0,0,1,2.28,8.16,5.86,5.86,0,0,0,1.2,5.07A58.45,58.45,0,0,1,212,278.8a3.1,3.1,0,0,0,.46,1c3.09,4.19,3.08,9.18,3.54,14,.38,3.95.37,4.43,4.15,5.2,4.72,1,8.05,4.07,11.62,6.84.47.37.48,1.32.7,2-2.81,1.17-4.34-1.05-6.23-2.32-2.42-1.63-4.38-2.32-4.31,1.9,0,1.77.21,3.72-1.59,5l-1.66-2.76a1.47,1.47,0,0,0-.53.09.53.53,0,0,0-.21.43c.07,2.17.16,4.34.24,6.51-1.72-4.16-3.75-8.23-3.26-13a5.69,5.69,0,0,0-.7-3.7,12.12,12.12,0,0,1-1.43-7.93c.5-4.82-1.82-8.81-3.55-13a5.27,5.27,0,0,0-3.15-2.87,9.58,9.58,0,0,1-2.44-1.15,3.17,3.17,0,0,1-1.39-3.26c.52-4.37-.68-6-5-6.62a31,31,0,0,1-14.07-5.45,60.67,60.67,0,0,1-6.78-6.32,6.1,6.1,0,0,1-.91-1.36c-1.25-2.17-1.42-4.74-.31-4.95,1.79-.34,3.08.76,4.31,1.86A5.28,5.28,0,0,1,181,251.8a3.26,3.26,0,0,0,2.15,2.29v0c1.34,3.05,4.18,4.5,6.82,6s5.67.66,8.31-2c1.88-1.88,2.11-3,1-5.31a5.9,5.9,0,0,0-.87-1.37c-4.38-5.15-9.59-8.85-16.59-9.4a5.88,5.88,0,0,1-2.64-.48c-5.33-3.55-11.78-4.74-17.11-8.27a10.93,10.93,0,0,0-3.56-1.34,53.25,53.25,0,0,1-14.94-6.32c-3.52-.81-6.31-3.38-6.94-6.32-1.2-5.62-4.88-8.61-9.12-11.46-2-3.16-3.94-3.55-5.75.22-3.08,6.39-6.58,12.62-7.21,19.89-3.72,5.42-8.44,10.09-11.7,15.84-.32.66,0-.19-.25.48-1.25,3.15-5,6.12-3.57,9.3,1.63,3.56,5.92.64,9,1.12a11.54,11.54,0,0,1,6.62,3.37c2.81,2.73,6,2.6,7.72-.81,3.41-6.74,8.09-12.45,12.84-18.19,1.6-1.94,2.55-4.2-1.43-4.19-4.5,0-5.91-2.56-6.46-6.45-.27-1.91.26-4.07-1.27-5.73a2.34,2.34,0,0,1-.24-1.56,3.25,3.25,0,0,1,1.33-1c3.74-.77,5.8.84,5.45,4.56-.32,3.5.37,5.06,4.32,5.69,5.29.84,6.79,6.44,3.34,10.53-6.25,5.25-8,11.58-5.22,18.89.58,1.52,1.38,3,2.08,4.43a21.12,21.12,0,0,1,2.08,10c-.25,6.07-5.08,9.06-10.55,6.3a24.63,24.63,0,0,1-5.41-3.6c-2.67-2.42-5.52-4.76-7-8.26-.78-1.91-2.39-3.17-3.83-4.54-1.08-1-1.19-1-2.86.9.79,6.48-.76,12.87-.92,19.31,0,2-.56,3.94-.42,5.94.4,5.65,1.71,7.12,7.29,8.42,2.43.57,5.08.47,7.16,2.21a1.52,1.52,0,0,1,0,1.72c-2.38,1.85-5.26,1.46-7.91,1.45-4.41,0-5.87,2.13-5.52,6.12.46,5.27.91,10.55,1.57,15.8a61.25,61.25,0,0,1,.34,14.75c-1.6,13.84-1,27.72-.66,41.57.37,12.64-3.52,23.21-12.4,32.17-5.52,5.57-11.46,10.74-16.49,16.79a4,4,0,0,1-3.79,1.76c-2.3-4-.35-8.14,1.55-10.73,5.88-8,10.2-17,16.31-24.72,3.57-4.54,5.84-9.2,5.46-15-1.63-25.11.2-50.33-3-75.41-1.14-9-.45-18.22.49-27.33.78-7.46.63-7.56-6.41-10.61-1.59-.69-2.15-1.84-2.42-4.64-.65,4.84-1.28,8.46-2.78,11.84-.1.51-.24,1-.39,1.52-.93,1.81-.84,3.83-1.15,5.77a9.24,9.24,0,0,1-.33,1.38,18.91,18.91,0,0,0-.76,4.09,9.42,9.42,0,0,1-.3,1.4c-.6,1.63-.55,3.37-.89,5.06a12,12,0,0,1-.39,1.54c-1.32,3.79-1.23,7.86-2.43,11.66-.47,1.46-.27,3.43-2.68,3.32a20.93,20.93,0,0,1,.62-7,15.28,15.28,0,0,0,.45-3.78c.33-5.81-.67-11.67.69-17.44-.88-3.4-.64-6.87-.68-10.32a9.51,9.51,0,0,1,.88-4.79,13.34,13.34,0,0,0,.82-10.1,11.55,11.55,0,0,1,0-7,2.93,2.93,0,0,0,.3-1c-.43-5,1.62-9.64,2.51-14.44a30.21,30.21,0,0,1,7.81-14.79,72.36,72.36,0,0,1,21.28-16,33.75,33.75,0,0,0,8-5.59c2.21-2.09,2.36-2,5.21-.5a23.81,23.81,0,0,0,2.52,1c2,1.83,4,3.73,6,5.47a13.17,13.17,0,0,1,5,11c.39.34.68.77,1.07,1.11l1.1,1.09c.34.38.74.71,1.1,1.07l0,0A12.52,12.52,0,0,0,143.59,221.19Z" transform="translate(-6.49 -181.77)"/><path class="cls-39" d="M128.31,207a30.44,30.44,0,0,0,3.72,2.19c3.11,1.32,5.18,3.3,5,6.93-.11,2,1,3.39,2.27,4.73,1.52,1.55,3.29,2.88,4.34,4.86.29,2.88,2.43,4.63,4.54,5.8,3,1.65,6,3.48,9.47,4a30.83,30.83,0,0,1,7.73,2.63c4.07,1.83,6.09,5,6.7,9.28.19,1.26,0,2.65.42,3.78a5.72,5.72,0,0,1-1.44,6.93c-1.49,1.46-1.2,3.27-.41,5.08a15.94,15.94,0,0,0,3.71,4.68c1.41,1.42,2.92,2.75,3.68,4.7A2.29,2.29,0,0,1,177,275.8a4.82,4.82,0,0,1-2,.93c-4.93.16-8.92,3-13.33,4.63s-9,1.17-13.48,1.62a4.1,4.1,0,0,1-4.75-3.59c-.2-1.25-.74-2.45-.88-3.7a30,30,0,0,0-2-6.78c-1.66-4.62-3.18-9.3-4.88-13.91a4.58,4.58,0,0,1,.27-4.16c1.16-2.06,2.21-4.19,3.46-6.19a6.41,6.41,0,0,0,.9-3.64c1.93-3.21.38-5.87-1.42-8.43a2.43,2.43,0,0,0-2.88-.91c-5.89,1.85-6.29-1.41-5.17-5.13,1.44-4.78-.14-5.85-4.73-5.23,3-3.43,3.88-7.13,1.61-11.36A2.42,2.42,0,0,1,128.31,207Z" transform="translate(-6.49 -181.77)"/><path class="cls-40" d="M122.78,301.35c-3.67.29-7.18-.75-10.73-1.34-2.7-.45-4.28-2-4.89-5-.7-3.44-1.22-6.77-.25-10.16.76-2.69.53-5.41.47-8.1a27.59,27.59,0,0,1,2.27-11.6,5.84,5.84,0,0,1,4.68,3.35,54.69,54.69,0,0,1,3.55,7.88c.77,2.06,1.05,4.35-.27,6.3-1.94,2.88-.52,5.23,1.13,7.35a28.18,28.18,0,0,0,9.33,7.36,11.31,11.31,0,0,1,3.56,2.46c1,1.15.61,2.07-1.17,2.51a5.6,5.6,0,0,1-1.09.07,3,3,0,0,1-2.21.86A7.1,7.1,0,0,1,122.78,301.35Z" transform="translate(-6.49 -181.77)"/><path class="cls-41" d="M177.58,365c-2.77-2-3.74-5.31-5.49-8-4.53-7-7.86-14.79-12.59-21.74-1.53-2.24-2.59-4.82-4.86-6.5-7.66-7.62-14.18-16.31-22.23-23.57l.36-.68c4.26-.11,7.23,2,9.58,5.36,1.58,2.23,3.17,4.45,4.89,6.56s3.21,4.32,5.62,5.85c3.35,2.13,4.94,5.85,6.67,9.2,3,5.82,6.55,11.33,9.71,17.06,2.38,4.3,4.78,8.6,7.14,12.91A6.64,6.64,0,0,1,177.58,365Z" transform="translate(-6.49 -181.77)"/><path class="cls-42" d="M183.18,254.09a30.88,30.88,0,0,1,.2-4.31,2.23,2.23,0,0,1,2.31-1.92c4.16.38,8.25,1,10.84,4.93a3.85,3.85,0,0,1,.45,4.07c-.75,1.51-2.17,1.71-3.68,1.77a9.09,9.09,0,0,1-6-2.05c-1.28-1-2.28-2.36-4.08-2.47Z" transform="translate(-6.49 -181.77)"/><path class="cls-41" d="M129.41,303.43c1.19.1,2.42.08,3.36,1l-.19.28c-2.89,2-5.61,2.61-7.81-1C126.23,302.25,127.82,302.88,129.41,303.43Z" transform="translate(-6.49 -181.77)"/><path class="cls-38" d="M129.41,303.43l-4.44.09a1,1,0,0,1-1.37-.16,1.27,1.27,0,0,1,.51-1.36c1-.11,2.11-.34,3.07.34l2.19.07C129.37,302.75,129.39,303.09,129.41,303.43Z" transform="translate(-6.49 -181.77)"/><path class="cls-1" d="M479.34,256.36a5.14,5.14,0,0,0-.67,1.48c-.44,4.93-3.09,8.75-6.06,12.44-2.61,3.26-4,7.31-6.93,10.38a.83.83,0,0,0-.23.48c-.1,4.82-4,6.05-7.36,7.77-1,.5-1.94,1-2.92,1.47a4.46,4.46,0,0,1-4.39,0,17,17,0,0,1-10.11-.66c-1-.42-2.23-.49-2.85-1.5-1.23-2-3.09-2.4-5.21-2.25a14.15,14.15,0,0,1-6.33-1.48,2.55,2.55,0,0,1-1-4.08c1.39-1.79,3.43-2.68,5.3-3.79.34-.21,1.05,0,1.52.22a25.05,25.05,0,0,0,2.4,1.26c1.95.59,4-.53,4-2.5.08-4.15,2-7.7,3.21-11.49a19.88,19.88,0,0,1,5.47-8c1.23-1.19,2.45-2.23,4.33-1.58a3.24,3.24,0,0,0,3.09-.69,56.2,56.2,0,0,1,7.11-4.06,10.53,10.53,0,0,0,2.16-1.66,3,3,0,0,0-1-4.52,1.79,1.79,0,0,0-1.51.22c-.71.54-1.19,1.4-1.9,1.93a1.58,1.58,0,0,1-2.39-.39,40.38,40.38,0,0,1-2.15-3.8,15.58,15.58,0,0,0-2.72-4.07,6.38,6.38,0,0,0-8.43-.85c-1.2.79-2.09,2-3.73,2.09-1,0-2-.5-2.11-1.29a1.71,1.71,0,0,1,.92-1.81,26.36,26.36,0,0,1,2.47-1.16c.72-.29,1.41-.69,1-1.51s-1.29-.51-2-.28a3.79,3.79,0,0,0-1.47.7,13.33,13.33,0,0,1-7.46,3.89c-.53.08-.95,1-1.42,1.57a3.13,3.13,0,0,1-3-1.93,9.59,9.59,0,0,0-1.32-2.94c-1-1.23-2.3-1.25-3,.1-.5.94-.49,2.13-1.43,2.86a2.15,2.15,0,0,1-2,.49,1.3,1.3,0,0,1-1-1.66c1.24-2.86.15-6.21,1.94-8.93a2.14,2.14,0,0,1,.41-1.54c4.13-3.81,6.89-8.6,9.66-13.38a34.58,34.58,0,0,1,9.06-4.86c.41-.17.85-.32,1.27-.45s.83-.28,1.24-.4a6,6,0,0,1,1.88-.3l.63.06a9.35,9.35,0,0,1,1.94,1.87,5.35,5.35,0,0,0,3.88,2.64c2.33.54,2.92,1.67,2.85,3.92a11.36,11.36,0,0,1-1,3.66c-1,2.55-1.94,5.12-2.74,7.72-1,3.24-.1,5.56,2.66,7.58a19.19,19.19,0,0,0,6.89,3.19,27.32,27.32,0,0,1,16.55,11.71c1,1.51,2,3.06,3.09,4.52A6.17,6.17,0,0,1,479.34,256.36Z" transform="translate(-6.49 -181.77)"/><path class="cls-1" d="M381.68,237.79a14.24,14.24,0,0,1,3.29-4.48A5,5,0,0,1,390.4,237a18.49,18.49,0,0,0,1,2.52c.82,1.54,2.18,1.79,3.62.64,1.28-1,2.4-2.26,3.74-3.18s2.86-1.68,4.46-.21c1.24,1.14,2.64.91,4.08.31a27.5,27.5,0,0,1,3.63-1.19c.91-.23,1.85-.17,2.2,1a1.5,1.5,0,0,1-.77,1.85c-2.53,1.39-4.78,3.43-7.7,4-4.68.89-5.9,4.36-6.48,8.32a32.38,32.38,0,0,0-.1,3.82c0,.93-.12,1.93-1.24,2.12-.93.16-2.61-1.38-2.65-2.39a19.9,19.9,0,0,1,.31-2.11c.1-1.44.21-2.89.18-4.33a2.31,2.31,0,0,0-1.49-2.12,2,2,0,0,0-2.4.85c-2.16,3.14-4.6,6.16-6.23,9.56-1.41,3-3,5.81-4.64,8.61s-3.05,5.69-1.77,9.18a5.3,5.3,0,0,1-.08,3.22,18.75,18.75,0,0,0-.85,5.35c-.07,2-1.48,3.25-2.93,4.38a1.56,1.56,0,0,1-1,.38,23.48,23.48,0,0,1-7.85-2.13,2.5,2.5,0,0,1-.83-3.37c2-3.86,4-7.71,6-11.56,1-9.17,6-16.48,11-23.78.11-1.48,1.1-2.94-.21-4.42S381.83,239.28,381.68,237.79Z" transform="translate(-6.49 -181.77)"/><path class="cls-43" d="M440.64,207.93c-3.47,1-6.48,2.91-9.57,4.66a51.44,51.44,0,0,1-12.27,6.91A92.33,92.33,0,0,0,399,230.74c-3.33,2.58-5.81,1.49-7.31-2.85l0,.05c.31-.39.6-.79.89-1.2,3.26-3.76,8.06-4.71,12.37-6.34a47.56,47.56,0,0,0,9.7-4.65,2.92,2.92,0,0,1,1.46-.89.75.75,0,0,0,.73-.33,14.88,14.88,0,0,1,1.27-.78h0a3.74,3.74,0,0,0,1.07-.15c5.68-2.85,11.43-5.6,17-8.63a99.94,99.94,0,0,1,12.6-5.19,4.79,4.79,0,0,1,1.57,0c-.92,3.33-4.17,4.08-6.09,6.17l0,0c-.58.61-1.61.36-2.1,1.12l-.06,0A3.77,3.77,0,0,1,440.64,207.93Z" transform="translate(-6.49 -181.77)"/><path class="cls-44" d="M391.66,227.89a4.26,4.26,0,0,0,3.46,3.1c1.62.29,2.84-.54,4-1.39a8,8,0,0,0,1.94-1.91,12.67,12.67,0,0,1,5.54-4.3c6.62-3.08,13.19-6.25,19.83-9.3,1.46-.67,2.88-1.63,4.63-1.5-1.24,1.75-2.53,3.45-2.32,5.81a2.37,2.37,0,0,1-1.24,2.25c-2.93,1.51-4.62,4.49-7.41,6.15-2.62-.11-4.5.65-5.06,3.62A1.94,1.94,0,0,1,412.2,232c-2.22-1-4.32-1.74-6.61-.27a1.69,1.69,0,0,1-2-.25c-1.78-1.61-3.09-.85-4.66.47-2,1.72-5.79,1.25-7.73-.85A1.89,1.89,0,0,1,391.66,227.89Z" transform="translate(-6.49 -181.77)"/><path class="cls-1" d="M374,301.31c-2-.05-4-.05-6-.19-.81-.05-1.16-.68-1.16-1.53,0-3.87,2.59-6.2,5.13-8.52.77-.71,1.68-.19,2.56.09,2.91.92,3.77.77,4.67-1.75,1.06-3,3.46-5,4.55-8,.78-2.14,2.64-2.07,4.4-.54a5.9,5.9,0,0,1,2.08,6.34c-.31,1.23-.57,2.48-1,3.67a4.74,4.74,0,0,1-1.29,2.32c-2.51,1.71-4.74,3.91-7.75,4.81A13.82,13.82,0,0,0,374,301.3Z" transform="translate(-6.49 -181.77)"/><path class="cls-1" d="M397.06,321.09,396,322.16l-3,2.3a4,4,0,0,1-2.5.89c-1,0-1.87-.68-1.72-1.61.8-5.17,1.44-10.39,5.17-14.53a3.74,3.74,0,0,0,.52-4.1,14.45,14.45,0,0,1-.66-5.9,4.46,4.46,0,0,1,1.63-3.31,2.37,2.37,0,0,1,3-.42,2.76,2.76,0,0,1,1.82,2.47,4.79,4.79,0,0,1-.22,1.61,10.94,10.94,0,0,0,0,8,5.93,5.93,0,0,1-.3,4.77C398.28,315.07,397.79,318.11,397.06,321.09Z" transform="translate(-6.49 -181.77)"/><path class="cls-1" d="M417.94,257.51a4.55,4.55,0,0,1-2.27,2.12c-2.27-.15-4.22,1.06-6.35,1.5a2.35,2.35,0,0,1-2.65-1.44c-.41-.75-.25-1.86-.73-2.53-1.07-1.48-.32-2.41.72-3.25a46.22,46.22,0,0,1,4.39-3.22c3.38-2.13,7-3.9,10-6.62a3.49,3.49,0,0,1,3.61-.58,3,3,0,0,1,2,3v0c-.65.58-.42,1.6-1.08,2.19Z" transform="translate(-6.49 -181.77)"/><path class="cls-45" d="M381.61,246.63a4.71,4.71,0,0,1-1.37,4c-2.17,2.08-3.06,4.82-4,7.54a72,72,0,0,1-5.58,12.29,2.61,2.61,0,0,1-2.42-.92,2.39,2.39,0,0,1-.05-2.56,45.34,45.34,0,0,1,6.65-11.81c1.67-2,2.56-4.39,3.79-6.61C379.27,247.31,380.12,246.48,381.61,246.63Z" transform="translate(-6.49 -181.77)"/><path class="cls-1" d="M398.13,276.09c.88,0,1.75-.06,2.63,0,3.66.14,3.66.15,3.95,4.43-3.17,3.39-3.77,4-9.35,1a16.07,16.07,0,0,1-3-2.21,1.71,1.71,0,0,1-.44-2c.35-.77,1-.87,1.79-.67a14.76,14.76,0,0,0,2.63.45A2.25,2.25,0,0,0,398.13,276.09Z" transform="translate(-6.49 -181.77)"/><path class="cls-24" d="M381.7,324.35a2.78,2.78,0,0,1,1.76-1.73.93.93,0,0,1,.81.38c.12.2,0,.81-.13.84-.81.22-1.65.33-2.47.48Z" transform="translate(-6.49 -181.77)"/><path class="cls-44" d="M392.51,226.74a1.17,1.17,0,0,1-.89,1.2A1.27,1.27,0,0,1,392.51,226.74Z" transform="translate(-6.49 -181.77)"/><path class="cls-11" d="M416,214.86a1.54,1.54,0,0,1-1.46.89A1.53,1.53,0,0,1,416,214.86Z" transform="translate(-6.49 -181.77)"/><path class="cls-11" d="M418,213.75a1.11,1.11,0,0,1-1.27.78A1.19,1.19,0,0,1,418,213.75Z" transform="translate(-6.49 -181.77)"/><path class="cls-46" d="M85.46,278.26a11.52,11.52,0,0,1,.26-3.24,29.1,29.1,0,0,0,2.19-8.39c.09-1.34,1.17-2.61,1.78-3.92.41-.86,0-2.56,1.66-2.15.87.22.73,1.54.71,2.44,0,.73-.11,1.45-.2,2.18-.4,3.15-.4,3.15,2.43,2.68a5.48,5.48,0,0,1,6.47,4.87,24.27,24.27,0,0,1,0,6.54c-1.3,7-.78,14.14-1,21.21-.2,6,.94,11.92,1.83,17.84a38,38,0,0,1,.37,5.44c0,10.76,0,21.51,0,32.27a24.94,24.94,0,0,0,.75,7.58A15.24,15.24,0,0,1,103,368c0,5.65-.11,11.31.07,17a16.9,16.9,0,0,1-5,12.83c-2.73,2.77-5,5.64-6.28,9.39a33.83,33.83,0,0,1-2.43,4.9c-.33.64-.56,1.59-1.1,1.85-3,1.44-4.33,4.05-5.31,7-2.45-.7-2,1.61-2.39,2.6-1.09,3.07-1.81,6.28-2.67,9.43-1,1.26-2.37,1.3-3.8,1a3.85,3.85,0,0,1-1.41-.82c-3.15-4.66,2.91-4.55,3.7-7.17,2.23-5.15,3.28-10.63,4.67-16,.68-1.48.76-3.3,2.35-4.27,1.52-3,1.79-5.95,0-8.92-.21-1.85-1.1-3.25-3.07-3.2-2.74.08-3.95-1.39-4.61-3.74a4,4,0,0,0-.92-2c-2.59-2.19-2.44-5.09-2.42-8,.06-6.39,0-12.78,0-19.17,0-3.46-.24-6.94.89-10.32a8.46,8.46,0,0,0,.18-2.72c-.1-7.33,1.62-14.44,2.7-21.62a41.77,41.77,0,0,0,.6-7l1.11-6.56c1.65-2.7,1.65-5.82,2.16-8.79.45-2.66.8-5.32,2.18-7.7,2.09,1.92,1.49,4.33,1.2,6.66-3,24.15-1.67,48.38-1.32,72.6.07,5,2.45,9.47,4,14.13-3.19-18.73-3.82-37.67-4-56.57a311.17,311.17,0,0,1,3.37-47.88C85.7,282.6,86.4,280.43,85.46,278.26Z" transform="translate(-6.49 -181.77)"/><path class="cls-47" d="M200.46,428.6c-1.45-2-2.78-4.11-3-6.68.67-.28,1.43-.72,2.06-.23,4.28,3.31,9.78,3.74,14.42,6.18a3.8,3.8,0,0,0,2.12,0,31.19,31.19,0,0,1,13,.29,13.1,13.1,0,0,0,3.26.24q19.41,0,38.82,0a9.64,9.64,0,0,0,5.27-1.12,3.82,3.82,0,0,0,1.84-1.94c1.51-4.57-1.8-10.38-6.69-10.19-10.75.43-21.53.14-32.3.15-7.48,0-15-.37-22.44.12-6.17.41-12.32-.79-18.46.23a1.47,1.47,0,0,1-1.67-1.12c-.44-2.32-1.69-4.44-1.58-6.88,2.46-2.63,5.73-2,8.75-2,19.89-.08,39.78,0,59.67-.05,3.46,0,7,.1,10.06-1.92,1.77-1.15,3.24-2.46,3-4.79-.23-2-1.7-3.2-3.45-3.89a27.35,27.35,0,0,0-10.73-1.82c-21.35.47-42.64-1.87-64-1.18-2.36.08-4.77.22-7-.87a7.74,7.74,0,0,1-1.69-1.09c0-.7-.08-1.41-.13-2.11,6.63-1.83,13.34-1.54,20-.51a35.71,35.71,0,0,0,5.44.43h52.6c2.38,0,4.74.09,6.88-1.3,2.64-1.72,5.15-3.47,5.28-7.1a8.72,8.72,0,0,1,.95-2.55c1.21.07,1.86.87,2.6,1.74a25,25,0,0,0,20.16,9.21c3.11,0,6.22,0,9.32,0a11.35,11.35,0,0,0,2.74-.07c7-1.77,14.17-.76,21.26-1,2.91-.11,5.83.21,8.68-.84a10,10,0,0,1,3.26-.25,100.48,100.48,0,0,0,13.05-.87c4.09-.63,8.33-.59,12.45-1.35,2.86-.53,5.72-1,8.56-1.68a14.66,14.66,0,0,0,7.92-4.59c2.93-3.29,7-4.72,11.07-5.57,3.52-.72,5-.36,6.2,3.52a8.94,8.94,0,0,0,1.07,1.86c-.63,5.9-3,11.36-4.33,17.08-.9,2.63-1.25,5.43-2.25,8v0a1.35,1.35,0,0,1-1.68-.5c-2.64-4.42-6.72-5.72-11.61-5.52-29.16,1.16-58.35.85-87.5,2.36-2.12.11-4.4-.27-6.29,1.17-.12,2,1.35,2,2.55,2,3.47.06,6.9.82,10.37.73,23.35-.64,46.67,1.05,70,1.25,7.68.06,15.2-.87,22.78-1.65,1.24,1.07,1,2.26.27,3.48v0c-1,.9-.12,2.42-1.08,3.33v0c-1.05.88-.14,2.42-1.11,3.32v0c-.73,1.1-1.46,2.2-2.18,3.3-2.14,2.52-4.9,2.9-8,2.42-19.9-3.06-39.95-3.44-60-3.92-10.57-.25-21.13-1.28-31.72-.75-5.65.28-8.64,3-8.93,7.68-.32,5.32,2.29,8.6,8.16,8.77,14.23.43,28.49.91,42.7-.26,11.47-.94,23-.08,34.46-1.5,2.61-.32,5.61-.16,7,3-2.22,5.38-4.41,10.76-6.67,16.12-.63,1.48-1.16,3.1-2.85,3.82a5.17,5.17,0,0,1-.49-3.7c.75-5.9.37-6.47-5.68-6.62-9.31-.24-18.63-.08-27.94-.09-12.78,0-25.56-.09-38.35,0-7.48.07-10.33,4.39-8,11.57,1.09,3.32,3.82,3,6.3,3,12.41.14,24.83.12,37.25,0,10.21-.06,20.46.73,30.58-1.34a7.48,7.48,0,0,1,4.82.48,12.14,12.14,0,0,1-3.35,7.33c-4.22,2.55-8.88,2.85-13.68,3-17.92.66-35.78-1.46-53.68-1.14-2,0-4,0-6,.16-3.44.2-5.5,1.87-5.66,5.4-.35,7.85-.24,15.7-.06,23.56.09,4,2.86,4.12,5.72,4.15,10.78.11,21.56-.08,32.35.08,6.19.09,12.41-.65,18.59.36,1.15.55,1,1.68,1.13,2.64a2.16,2.16,0,0,1-1.1,1.59c-7.6,1-15.24.27-22.86.4-9.63.15-19.28.12-28.91,0-4.33,0-6.42,1.47-6.18,6a36.74,36.74,0,0,1-.3,8.7c-.42,3.65-1.06,7.3-.18,11,.15,2,.18,3.9-1.62,5.26l-.93,0c-2-2.06-4-4.06-7.1-4.71-2.15-.46-4.25-1.53-4.33-4.22s1.41-4.37,3.7-5.57c2-1,5-1,5.5-3.87a25.84,25.84,0,0,0-.16-10.83c-.67-2.71-3.14-2.76-5.32-2.86-5.64-.23-11.28,0-16.93-.12-2.51-.05-5.15.27-7.27-1.62a1.5,1.5,0,0,1,.24-1.73c2.22-1.7,4.84-1.41,7.37-1.46,5.85-.12,11.69,0,17.54-.11,3.12-.08,4.94-1.38,4.64-4.63-.61-6.54-.78-13.1-1.4-19.64-.4-4.22-2.81-5.9-7-5.8-10.59.25-21.2-.42-31.78.44a52.51,52.51,0,0,1-9.29-.54c-2.65-1.05-3.51-3-2.76-5.67,2-2.83,5.14-2.41,8-2.45,11.31-.12,22.63.07,34-.09,7.71-.11,9.19-1.52,9.3-8.18.13-8-2.59-11.61-9.56-11.81-14.78-.41-29.56-.08-44.35-.16-2.91,0-5.85.21-8.69-.68-3.16-3.24-6.7-5.63-11.56-4.88C204.44,429.62,203,428.1,200.46,428.6Z" transform="translate(-6.49 -181.77)"/><path class="cls-15" d="M131.55,200.44l-1.1-1.09Z" transform="translate(-6.49 -181.77)"/><path class="cls-15" d="M130.44,199.35l-1.1-1.08a.66.66,0,0,1,1.12,0C130.45,198.6,130.45,199,130.44,199.35Z" transform="translate(-6.49 -181.77)"/><path class="cls-14" d="M130.46,198.23l-1.12,0h0a.68.68,0,0,1-.24-.76q.14-.36.27-.36h0Z" transform="translate(-6.49 -181.77)"/><path class="cls-4" d="M53.79,376.94c1.67,2.85.74,5.94.78,8.94C53,383,53.82,379.94,53.79,376.94Z" transform="translate(-6.49 -181.77)"/><path class="cls-48" d="M190.8,390.11q17.26,0,34.52,0a26.1,26.1,0,0,1,8.14.77,16.86,16.86,0,0,0,4.89.3c7.3,0,14.61.13,21.92,0a52.8,52.8,0,0,1,11.91,1.2,9.76,9.76,0,0,1,3.07,1.08c5.19,3.18,5.75,8.1.42,11.73a15.77,15.77,0,0,1-9.33,2.53c-21.37-.12-42.74-.06-64.11-.05-2.37,0-4.75,0-7.12.05-1.29-1.58-1.59-3.56-2.09-5.44-.86-3.26-1.55-6.58-2.31-9.87A1.7,1.7,0,0,1,190.8,390.11Z" transform="translate(-6.49 -181.77)"/><path class="cls-6" d="M190.8,390.11l-.09,2.3a2.66,2.66,0,0,1-1-2.3Z" transform="translate(-6.49 -181.77)"/><path class="cls-14" d="M150.19,197.13a2.26,2.26,0,0,1-2.16-1.07A2.31,2.31,0,0,1,150.19,197.13Z" transform="translate(-6.49 -181.77)"/><path class="cls-14" d="M148,196a2.29,2.29,0,0,1-2.17-1A2.22,2.22,0,0,1,148,196Z" transform="translate(-6.49 -181.77)"/><path class="cls-14" d="M144.83,194.87l-1.22-1Z" transform="translate(-6.49 -181.77)"/><path class="cls-2" d="M220.33,312.39c0-2.37,0-4.73.12-7.09a6.81,6.81,0,0,1,.64-2.59,1.58,1.58,0,0,1,2.28-.79,31.41,31.41,0,0,1,4.48,3.07,18.39,18.39,0,0,0,4.61,2.86c2.39,1.37,3.06,3.88,4,6.19a1.59,1.59,0,0,1-.37,1.47c-2.6,1.94-5.28,3.83-8.81,3.15-.45-.09-.82-.64-1.22-1,2.47-1.87,4.57-3.87,1.73-7-.94-1-2-2.64-3.55-1.75s-.72,2.54-.14,3.86c.69,1.59,2.5,2.76,1.85,4.87C222.86,317.18,221.27,315.13,220.33,312.39Z" transform="translate(-6.49 -181.77)"/><path class="cls-17" d="M145.78,222.29l-1-1Z" transform="translate(-6.49 -181.77)"/><path class="cls-17" d="M142.52,220.16l-1.1-1.07Z" transform="translate(-6.49 -181.77)"/><path class="cls-17" d="M140.32,218l-1.07-1.11Z" transform="translate(-6.49 -181.77)"/><path class="cls-15" d="M129.37,197.15l0,1.12-1.09-1.1Z" transform="translate(-6.49 -181.77)"/><path class="cls-17" d="M143.59,221.19l-1.05-1Z" transform="translate(-6.49 -181.77)"/><path class="cls-27" d="M402.51,402.18c-.34-3,.73-5.56,2.25-8A12.56,12.56,0,0,1,402.51,402.18Z" transform="translate(-6.49 -181.77)"/><path class="cls-27" d="M399.25,412.07c-.14-1.27-.08-2.48,1.11-3.32C400.53,410,400.44,411.24,399.25,412.07Z" transform="translate(-6.49 -181.77)"/><path class="cls-27" d="M400.35,408.78c-.16-1.28-.2-2.52,1.08-3.33C401.57,406.73,401.51,407.93,400.35,408.78Z" transform="translate(-6.49 -181.77)"/><path class="cls-27" d="M401.42,405.48v-3.32h1.1C402.7,403.45,402.65,404.66,401.42,405.48Z" transform="translate(-6.49 -181.77)"/><path class="cls-49" d="M251.15,498.65l23.48,0c1.28,0,2.56-.06,3.82.06,2.49.23,4.26,1.71,4.35,4.07.15,4.54,0,9.09,0,13.64a1.94,1.94,0,0,1-1.69,1.85,25.63,25.63,0,0,1-4.23,1.05c-2.74.21-3.74,1.86-4.13,4.25a1.71,1.71,0,0,0,1.19,2.13c1.91.55,3.87,1,5.81,1.41,3,.65,3,.63,3.21,3.88,0,.54,0,1.09,0,1.64,0,4.37,0,8.74,0,13.11-.06,3.19-.55,3.61-3.49,4.69a18.65,18.65,0,0,1-6.46.79l-36.08,0-.75.09c-1.6,0-3-.48-3-2.35,0-1.47,1.13-2.19,2.27-2.79a31,31,0,0,1,5.14-1.72c7.05-2.26,8.78-4.59,8.14-11.86-.15-1.67,1.37-3.86-1.08-5.07a106.81,106.81,0,0,1-41.57,12.29c-5.77.52-11.37,2.66-17.29,2.06a37.12,37.12,0,0,1-4.35-.14c-6.53-.85-8.26-5-4.29-10.16,5.39-7,4.94-8.08-3.69-9.65-5.22-1-10.48-.57-15.73-.86-2.16-.14-4.64.3-5.18-2.81,2.15-2.45,5.07-2.61,8-2.59,24.25.16,48.12-3.2,71.81-8,5.16-1,10.9-2,13.48-7.88A2.81,2.81,0,0,1,251.15,498.65Z" transform="translate(-6.49 -181.77)"/><path class="cls-50" d="M283.9,532.64c0-1.8.07-3.6.11-5.4,4.84-3,10.29-1.19,15.42-1.7,8.86-.87,17.86.14,26.73-1.3,7.63-1.23,12.5,4,18.09,7.59a8.45,8.45,0,0,1,1.45.92c2.84,2.58,1.81,6.46,3.13,9.61s2.17,5.67,6.25,5.33c1.33-.11,3.46-.12,3.35,2.37-1.27.06-2.54.16-3.81.16l-62.72,0h-1.09c-4.56,0-5.51.46-6.06-5.15C284.35,541,284.33,536.79,283.9,532.64Z" transform="translate(-6.49 -181.77)"/><path class="cls-51" d="M358.43,550.06c-.83-.93-1.95-.86-3-.9-2.17-.1-4.35-.18-6.77-.28,0-2.35-.05-4.3-1.51-6.26a7,7,0,0,1-.94-6.27c.26-.74-.27-1.74-.44-2.63,1.88-1.41,3.88-.63,5.76-.11,16.21,4.47,32.79,6.77,49.45,8.61,3.42,1.28,7,.76,10.54,1.07a9.52,9.52,0,0,1,1.77.32c4.16,1.23,8.43.31,12.63.7a9.75,9.75,0,0,1,1.94.27,10.44,10.44,0,0,0,1.6.35c21.42.48,42.84.83,64.25-.18a10.3,10.3,0,0,1,1.89-.49c4.95-.62,10,.79,14.91-.69a7.33,7.33,0,0,1,1.78-.37c3.21-.2,6.47.29,9.61-.8,12.92-1.65,26-2.65,38.06-8.25,2.18-1,4.23-2,5.36-4.31.86-.87,1.77-1.42,2.93-.48l0,0c1.84,7-1.4,12.81-4.41,18.67-20.62,1.68-41.28.79-61.92,1-14.07.16-28.14.19-42.22.33-1.39,0-2.95-.51-4.13.77q-15.33,0-30.67,0a8.34,8.34,0,0,0-1.61.32c-2.5-.72-5.07-.36-7.61-.37-13.3,0-26.6,0-39.89,0a23.43,23.43,0,0,1-6.52-.5,6.75,6.75,0,0,0-3.78,0C363.16,550.33,360.79,550.09,358.43,550.06Z" transform="translate(-6.49 -181.77)"/><path class="cls-52" d="M22.93,552.33a3.8,3.8,0,0,1,2.94-1l8,0c2.19-2.1,5-2.08,7.72-2.08q92.57-.06,185.15-.05c3.56,0,6.73,1.37,10.08,2.11l0,0q0,.51,0,1c-2.17,1.7-4.73,1.68-7.3,1.69-8.57,0-17.14-.08-25.71.07a14,14,0,0,1-3.09.31,20.44,20.44,0,0,1-2.07,0c-7.57-.4-15.18.63-22.72-.62-2.19-1.31-4.62-.86-7-.87q-61.27,0-122.54,0c-2,0-4,.38-6-.39Z" transform="translate(-6.49 -181.77)"/><path class="cls-53" d="M40.54,552.52l97.44-.1q16.16,0,32.3.05c2,0,4,.21,6,.33-.19,1.61-1.09,1.35-2.09.79l-86.64-.12c-13.89,0-27.78,0-41.67,0-1.83,0-3.65-.11-5.48-.16A8,8,0,0,0,40.54,552.52Z" transform="translate(-6.49 -181.77)"/><path class="cls-53" d="M203.11,552.73c4.18-.09,8.35-.22,12.52-.26,7.09-.08,14.17-.11,21.25-.16q15.09,0,30.16.06c2.38,0,4.75,0,7.13.08-1.5,1.46-3.4,1-5.16,1-11,.07-22.08.08-33.12.11-2.71,1.82-5.85,1.89-8.91,2-6,.11-12,.2-18-.07C206.79,555.33,204.12,555.69,203.11,552.73Z" transform="translate(-6.49 -181.77)"/><path class="cls-54" d="M563.84,548.08c-.36-2.59.65-4.93,1.45-7.29a62.85,62.85,0,0,0,3-11.38c1.8,1.81,3.06,4.14,5.32,5.5q4.26,5,8.53,9.88a12.37,12.37,0,0,1,1.09,1.22,2.59,2.59,0,0,1,.49,1.42c0,.67-.75.67-1.27.68-2.73,0-5.46,0-8.19,0Z" transform="translate(-6.49 -181.77)"/><path class="cls-55" d="M560.29,505c.74,1.11,1.68,1.39,2.67.41a25.85,25.85,0,0,0,2-2.5,2.88,2.88,0,0,0,1.38-2.09A2.36,2.36,0,0,1,568,499c0,1.36-.06,2.72-.08,4.08-8.18,8.27-4.76,18.92-5.88,28.64-3.39,4.46-8.36,5.63-13.46,5.85-6.71.3-13.39-.71-20-1.82-5.46-.92-6.26-3.05-2.93-7.27,3-3.84,5.07-8.4,8.65-11.82a13.93,13.93,0,0,1,1.2-1.23,10,10,0,0,1,2.07-1.34c5.14-3.83,10.31-7.41,17.35-5.65,1.47.36,2.6-1.06,3.35-2.4A2.45,2.45,0,0,1,560.29,505Z" transform="translate(-6.49 -181.77)"/><path class="cls-56" d="M561.67,531.51a8.71,8.71,0,0,1-1.19-4.64c0-4.86,0-9.73,0-14.59a4.68,4.68,0,0,1,1.83-4.22c2-1.51,3.76-3.32,5.63-5q.14,13.15.29,26.3a3.11,3.11,0,0,0-2.26.76,1.55,1.55,0,0,1-.62,1.15,4.33,4.33,0,0,1-1.81,1A2,2,0,0,1,561.67,531.51Z" transform="translate(-6.49 -181.77)"/><path class="cls-57" d="M530.81,433.72c-1.58.4-3.19.68-4.71,1.21-3.53,1.23-7,2.07-10.55-.46,1.36-1.07,3.6-1.14,4.62-2.91.12-.13.36-.26.36-.39,0-.86-.41-2,0-2.54.93-1.26,2.31-.21,3.45-.05a13.7,13.7,0,0,1,3.58,1.19C529.28,430.52,530.65,431.65,530.81,433.72Z" transform="translate(-6.49 -181.77)"/><path class="cls-1" d="M447.45,297c.48,2.25.19,2.89-1.47,3.09a23.14,23.14,0,0,1-11.76-1.65c-3.55-1.49-7-2.92-11-2.77a8.33,8.33,0,0,1-3.17-.74c-1.18-.45-3.58.48-3.31-1.49.2-1.43,2.5-.75,3.87-.82,2-.11,3.95-.1,5.75,1.2,2.43,1.74,5.29.76,8,.91,7.42-1.14,6.61-.31,12.59,2.17A2.28,2.28,0,0,0,447.45,297Z" transform="translate(-6.49 -181.77)"/><path class="cls-1" d="M467.21,290.35c1.15-1.43,2.29-2.87,3.43-4.3,1.73.83,2,1.38,1.16,2.41A5,5,0,0,1,467.21,290.35Z" transform="translate(-6.49 -181.77)"/><path class="cls-11" d="M450.78,290.36l4.39,0C453.7,291.84,452.24,291.8,450.78,290.36Z" transform="translate(-6.49 -181.77)"/><path class="cls-3" d="M425.56,248.68a2.46,2.46,0,0,1,1.08-2.19A2.35,2.35,0,0,1,425.56,248.68Z" transform="translate(-6.49 -181.77)"/><path class="cls-1" d="M559.27,506.34c-1.26,3.37-2.43,4.29-5.43,3.71a16.75,16.75,0,0,0-4.87-.39c-2.75.26-5.44.75-6.82,3.67-1,2.11-3,1.72-4.76,1.78a7.56,7.56,0,0,1-1,1l-.08,0c-10.6,4.56-21.38,8.18-33.2,6.12-5.22-.91-10.45-1.57-15.74-.56-4.46-.79-9,.39-13.42-.32-5.75-4.87-13.08-3.08-19.61-4.68-5.28-1.29-9.49-.37-12.34,4.59a9,9,0,0,1-8.92-.85c-3.72-6.39-10.27-5.07-16-5.71-3.61-.4-7.31.18-10.86-.9-2.23-.68-4.66-1.09-6-3.39.88-2.88,3.39-2.2,5.43-2.42,4.53-.47,9.07,0,13.61-.13,1.43,0,3.13-.11,3.38-2a2.87,2.87,0,0,0-2.81-3.38,23.24,23.24,0,0,1-13.57-4.68c-2.38-1.72-4.43.07-6.17,1.82s-2.42,3.56-.93,5.82c.78,1.19,1.79,2.35,1.36,4-1.22,2.53-3.26,2.53-5.53,1.77-1.55-.51-3-1.28-4.52-1.87-6.9-2.69-7.07-2.63-9.87,3.81-1.42.32-3-.22-3.35-1.3-2.26-6.32-7.46-5.06-12.22-5-3.48-.23-6.86-1.46-10.4-1-2.06.68-4.11,1.51-6.29.42a3.78,3.78,0,0,1-2.39-3.24,3.26,3.26,0,0,1,1.88-2.67,5.44,5.44,0,0,1,3.18-.55c7.62,1.63,11.28-2.63,14.12-8.83,2.35-5.14,4.79-10.17,5.87-15.77,2.45-12.65,8.49-23.9,14-35.33,1.28-2.65,3.38-4.23,6.55-3.8l3.22.27c4.94,1.6,9.75,3.79,15.18,3.2,1.59-.18,3.32-.37,4.66,1a3.53,3.53,0,0,1-3.35,1.5c-6.06-.54-8.13,3.21-9.76,8.17-3,9-6.34,17.87-8.41,27.16a37.72,37.72,0,0,0-.84,11.4c.08,1.05.14,2.31,1.4,2.73s2.06-.47,2.79-1.26c1.37-1.48,2.37-3.24,3.6-4.82,6-7.66,12.21-8.78,20.16-3.31,2.2,1.51,4.39,1.33,6.77,1.26,6.59-.19,8.5,2,7.63,8.42-.22,1.63-.4,3.27-.48,4.9-.22,4.84.66,5.39,5.18,3.24,1-.47,2-1.28,3.05-1,4.45,1.05,6.25-.64,6.38-5.15.08-2.51,2.43-3.08,4.55-2.79,5.26.73,8.33-1.88,10.15-6.4a7.57,7.57,0,0,1,7-5.15,13.52,13.52,0,0,0,5.28-1.35c5-2.62,5.81-7.16,1.74-10.77-2.49-2.21-2.69-4.53-1.22-7.31.82-1.57,2.27-3.34.66-5-1.26-1.29-2.7.22-4,.74-2.42,1-3.39-.54-4.08-2.33-2.74-7-8.07-9.37-15.24-8.82a72,72,0,0,1-10.38-.3c-1.77-.12-4.25.41-4.5-2.6,3.76-.46,7.62.33,11.32-.93a2,2,0,0,1,1.07-.05c4.76,1.25,9.69.74,14.51,1.54s10,1.34,14.93-.37a1.87,1.87,0,0,1,1.7-1,11.09,11.09,0,0,0,3.4-.13,5.56,5.56,0,0,1,1.41-.05,6.17,6.17,0,0,0,6.47-1.07l1.32-.27c.84-.83,2.14-.07,3-.84l4.65-.46a8.91,8.91,0,0,1,1-.57c1.9-.33,4,.55,5.68-1.1a33.54,33.54,0,0,0,12.3.85c2.57-.33,4,1.28,5.13,3.24-4.09,3.78-8.26-.17-12.75.33,7,.77,8.66,5.6,10,11.3,1.19,5.09,4.12,9.69,5.06,15,.64,3.61-3.22,11.48-6.56,12.67-3.8,1.36-8-2.25-8.31-7.76a25.32,25.32,0,0,0-5.52-14.59,2.28,2.28,0,0,0-2.14-1.18,114.15,114.15,0,0,0-2,12c-.35,2.8,1.15,4.94,3.78,6.07,2.89,1.25,3.78,3.19,3.72,6.46-.07,4.16,3.31,7.55,3.95,11.71.18-1.55-1-2.77-1.14-4.21-.47-3.69,1.58-6.06,4.7-7.14s4.72,1.41,5.81,3.76A78.87,78.87,0,0,1,531.42,503c1,5.21,2.53,6,7,3.28,3.27-2,6.51-2.79,9.75-.67C551.84,508,555.7,504.52,559.27,506.34Z" transform="translate(-6.49 -181.77)"/><path class="cls-58" d="M559.27,506.34a7.63,7.63,0,0,0-2.08.62c-3.52,2.25-6.91,1.85-10.29-.29a14.93,14.93,0,0,0-2-.93,3,3,0,0,0-3.11.25c-1.5,1-3,2.11-4.52,3.07-3,1.9-7.37.13-7.27-3.43.13-4.39-2.48-8-2.64-12.19,0-.8-.79-1.6-1.25-2.37a9.88,9.88,0,0,1-1.82-4.52c-.11-1.82-1.32-2.94-2.53-4.07a1.61,1.61,0,0,0-2.41-.18c-.67.62-1.34,1.24-2,1.9-2.22,2.38-2.36,3-.29,5.55a5.92,5.92,0,0,1,1.58,5,1.77,1.77,0,0,1-2.48,1.33c-1.56-.79-2.86-2-2.76-3.76a9.92,9.92,0,0,0-3.5-8.73c-1.32-1.14-.84-2.44.24-3.81,1.22-1.55.76-2.58-1-3.39a4.91,4.91,0,0,0-1-.44c-1.82-.33-3.45-.77-4.37-2.74-1-2.2-1.91-4.33-1.17-6.81.37-1.22.56-2.49.94-3.7.55-1.75,1.15-3.46.17-5.28a2.31,2.31,0,0,1-.06-1.6,4,4,0,0,1,2.52-2.72,1.87,1.87,0,0,1,2.34.95c1.54,3.7,4.77,6.36,6,10.3a24.2,24.2,0,0,1,.95,8.08c-.1,3,1.65,4.71,3.93,6.08a2.87,2.87,0,0,0,3.82-1,2.52,2.52,0,0,0,.51-.95c.22-3,3.89-3.49,4.42-6s-2.46-4.25-2.06-6.6-.48-3.79-1.6-5.5a24.77,24.77,0,0,1-3.48-10.82c-.29-2.41-1.35-3.57-3.73-3.87a42.1,42.1,0,0,1-4.78-1.16,3,3,0,0,1-2.07-1.61c-.38-.75,0-2.15.78-2.32,2-.45,4.23-.9,5.87.23,3,2.09,6.25,1.59,9.5,1.58l2,1.23c1.07.85.16,2.36,1.09,3.25v0c1.3,2.78,1.34,5.87,2.23,8.76l0-.05c6.8,14.58,12.11,29.88,21.45,43.25,2,2.9,5.6,4,7,7.36a1.84,1.84,0,0,1-.07.7Z" transform="translate(-6.49 -181.77)"/><path class="cls-55" d="M560.36,504.31a5.92,5.92,0,0,0-1.35-.93c-4.87-1.67-7.42-5.7-9.85-9.78-1.95-3.28-3.71-6.67-5.53-10-3-5.46-5-11.33-7-17.16a64.49,64.49,0,0,0-2.9-7c-.88-1.8-1.93-3.54-1.76-5.67,3.21,4,5.17,8.75,7,13.41,2.29,5.76,5.41,11,8.27,16.47,2.1,4,4.69,7.74,7.17,11.53,1.58,2.41,3.09,4.9,5.8,6.35C561.52,502.16,560.83,503.32,560.36,504.31Z" transform="translate(-6.49 -181.77)"/><path class="cls-55" d="M532,453.75a18,18,0,0,1-2.23-8.76C531.76,447.58,532.14,450.59,532,453.75Z" transform="translate(-6.49 -181.77)"/><path class="cls-55" d="M529.73,445c-1.1-.84-1-2.07-1.09-3.25C529.88,442.5,529.78,443.74,529.73,445Z" transform="translate(-6.49 -181.77)"/><path class="cls-59" d="M344.22,497.49a7.74,7.74,0,0,1-4.7,1.16q-24.39,0-48.78,0c-.37,0-.73,0-1.1,0-3.64-.18-4.44-.9-4.47-4.65-.07-8.59,0-17.17,0-25.75a6.29,6.29,0,0,1,1.92-4.92,6,6,0,0,1,4.36-1.92c9,0,18-.78,26.84.22,12.6,1.42,25.16.34,37.72.9a20.64,20.64,0,0,0,8-1.61,1.93,1.93,0,0,1,2.42.58c-3.76,7.95-8.86,15.06-13.89,22.22-1.68,2.38-3.42,4.72-5.1,7.11a9.54,9.54,0,0,0-2,4.44C344.76,495.87,345.26,497.09,344.22,497.49Z" transform="translate(-6.49 -181.77)"/><path class="cls-60" d="M380.74,430.8c-4.18-2-8.57-1.42-12.86-.72a37.38,37.38,0,0,1-5.95.6c-4.38,0-8.76,0-13.14,0-3.45,0-6.91-.22-10.3.87a12.66,12.66,0,0,1-3.81.2c-12.22,0-24.45,0-36.67.06a14.66,14.66,0,0,1-8.31-2.2,6.29,6.29,0,0,1-2-1.78,12.38,12.38,0,0,1-.79-11.05,9,9,0,0,1,8.6-5.77c8-.19,16.15-.8,24.06.16,8.94,1.08,17.82.53,26.72.86a56.24,56.24,0,0,1,9.22.77c3.17.63,6.54.26,9.82.32,2.9.06,5.84-.26,8.65.85a4.82,4.82,0,0,0,2.17.21c4.06-.41,8,.68,11.87,1.47a18.15,18.15,0,0,0,9.07-.33c-.51,1.73-1.11,3.44-1.49,5.2-.78,3.69-2.37,6.06-6.7,6.3A13.24,13.24,0,0,0,380.74,430.8Z" transform="translate(-6.49 -181.77)"/><path class="cls-61" d="M369.72,454.15a37.86,37.86,0,0,1-14.94,2.72c-20.09.18-40.18.1-60.27.09-5.06,0-6-1-6.08-6.09,0-2.19,0-4.38,0-6.57a5.78,5.78,0,0,1,5.28-5.84,20.81,20.81,0,0,1,2.74-.07q34.51,0,69,0a20.07,20.07,0,0,1,7.5,1.28c1.7.66,2.11,1.7,1.29,3.47a37.3,37.3,0,0,0-3.06,7.6Z" transform="translate(-6.49 -181.77)"/><path class="cls-62" d="M391.55,436.1c-3,1.22-5.16,3.08-6.07,6.45-.6,2.24-2,4.28-3.07,6.38a123.77,123.77,0,0,0-8.72,21.7,12.68,12.68,0,0,0-.63,2.08c-1,8.7-4.76,16.31-9.24,23.64a3,3,0,0,0-.54.94c-.56,3.53-3.56,3.7-6.11,4.47a86.71,86.71,0,0,1-9.52-.91H347a3.1,3.1,0,0,1-1.22-.34,2.06,2.06,0,0,1-.75-1,1,1,0,0,1,.5-1c.5-.18,1.38-.28,1.44-.56.74-3.35,3.08-5.76,5-8.33,2.09-2.78,4-5.62,5.85-8.58a75.71,75.71,0,0,1,4.46-6.22c3.22-4.25,5.36-9.12,7.78-13.81,3.09-6,5.94-12.12,8.63-18.31,1.07-2.45,2.52-4.87,2.33-7.77,0-.65.51-1.34.87-2.21,1.92-.08,3.36,1.2,5,1.75S390,435.54,391.55,436.1Z" transform="translate(-6.49 -181.77)"/><path class="cls-63" d="M345.55,498.48l.24,1.39a1.09,1.09,0,0,1-1.22.06c-.12-.81-.24-1.62-.35-2.44l1.17-2.24C345.44,496.32,345.49,497.4,345.55,498.48Z" transform="translate(-6.49 -181.77)"/><path class="cls-58" d="M438.74,441.67a3,3,0,0,0,2.44,1c4.91-.26,9.8.48,14.73.1,6.68-.51,12,3.15,14.33,9.38a19.77,19.77,0,0,1,.6,2.7c1.85.19,2.44-1.42,3.52-2.21,2.14-1.57,3.88-1.23,4.78,1.08.81,2.06,1.66,4.19-.76,5.87a1.59,1.59,0,0,0-.36.41c-2.49,3.55-2.18,4.84,1.61,6.75a14.56,14.56,0,0,1,1.52.6c2,1.26,3.57,3.37,1.16,5.81a5.89,5.89,0,0,0-1.66,2.14c-1.34,4.61-5.26,5.55-9,5.59-4,0-6.13,1.26-7,5.16a9.12,9.12,0,0,1-3.85,5.18c-2,1.45-4.09,2.46-6.63,1.4a6.6,6.6,0,0,0-1.58-.43c-1.78-.27-2.9.7-2.77,2.41a5.81,5.81,0,0,0,.36,1.6c.72,1.81-.21,3.2-1.19,4.52a2.45,2.45,0,0,1-2.94.83,2.7,2.7,0,0,1-1-.53c-2.17-1.92-4-1.14-5.67.72a10.65,10.65,0,0,1-2.07,1.78,3,3,0,0,1-4.48-1.49,6,6,0,0,1-.64-3.15c.76-3.32-.26-6.85,1.43-10.06a2,2,0,0,0-1.27-3.06c-2-.68-4-1.82-6.31-.7a7.14,7.14,0,0,1-2.68.37c-1.73.11-3.3-.23-4.24-1.9a6.06,6.06,0,0,0-2.71-2.61,4.46,4.46,0,0,0-3.66-.54,4.87,4.87,0,0,1-1.56.49c-1.79.06-3.59,0-5.38,0-1.84,2.25-3.72,4.47-5.49,6.76-1,1.3-1.8,2.75-2.72,4.1a5.75,5.75,0,0,1-2.44,2.14c-2,.88-4.44-.25-4.56-2.4-.24-4.17-.54-8.36.34-12.53,2.4-11.44,6.59-22.31,10.42-33.3a18,18,0,0,1,1.52-2.88,4.12,4.12,0,0,1,4-2.28c2.56.08,5.12,0,7.67,0l2.15-.15Z" transform="translate(-6.49 -181.77)"/><path class="cls-64" d="M482.57,441.73l-2,.13c-3.08,0-6.15-.06-9.23-.13a10.61,10.61,0,0,1-3.77-.33,25.24,25.24,0,0,0-10.56-2,1,1,0,0,1-.78-.57,1.06,1.06,0,0,1,.92-1.13,15.31,15.31,0,0,1,2.7-.24q11.68-.15,23.38-.25a10.38,10.38,0,0,1,2.67.31,2.49,2.49,0,0,1,1.91,2.89c-.37.74-1.28.62-1.79,1.14l-.2,0A2.57,2.57,0,0,1,482.57,441.73Z" transform="translate(-6.49 -181.77)"/><path class="cls-25" d="M486,441.58c.31-.84,1-1,1.8-1.14,2,.33,3.69-1.47,5.73-.81-1.06,1.08.45,3.07-1.18,3.8s-2-1.38-3.13-1.62A23,23,0,0,0,486,441.58Z" transform="translate(-6.49 -181.77)"/><path class="cls-25" d="M497.87,438.52a3.41,3.41,0,0,1-3,.84C495.64,438.27,496.77,438.44,497.87,438.52Z" transform="translate(-6.49 -181.77)"/><path class="cls-25" d="M503.52,437.49l-1,.57Z" transform="translate(-6.49 -181.77)"/><path class="cls-11" d="M466.32,221.07c.26.46.53.91.8,1.36C466.85,222,466.58,221.53,466.32,221.07Z" transform="translate(-6.49 -181.77)"/><path class="cls-65" d="M229,460.33a7.69,7.69,0,0,0,2.23,4.43c1.73.5,2.61,1.93,3.44,3.32a227.86,227.86,0,0,0,13.59,19.78c1.64,2.18,3.24,4.43,3.13,7.38-1.86,5.59-5.73,9.1-11.25,11-14.07,4.73-28.68,6.79-43.34,8.28a453.26,453.26,0,0,1-67.72,2c-20.12-1-40.4-1.14-60.25-5.54-4.47-1-8.94-1.94-13.09-3.92-2.5-1.19-5.15-2.52-5.08-5.8s2.61-4.6,5.22-5.69c4.56-1.9,9.57-2.57,14-4.61,11.67-5.32,23.9-9.09,36-13.25a33.3,33.3,0,0,0,9.47-5.37c6.92-5.34,13.56-11.14,22.2-13.79a24.29,24.29,0,0,0,6.71-3.67c.74-.52,1.63-1.1,1.41-2.15s-1.25-1.21-2.13-1.4a125.48,125.48,0,0,0-16.83-2.23,329.34,329.34,0,0,1-49.32-6.95,41.59,41.59,0,0,1-8.81-2.92c-2.81-1.34-5.08-3.22-2.9-6.83,2.64-1.76,5.11-1.12,7.53.49l.25.08c2.58,1.25,5.16,0,7.74,0,5.36,1.63,11.21,1.45,16.24,4.3,7.3,0,14.59,0,21.88,0a39.6,39.6,0,0,0,4.32-.47c.88-.1,1.9-.54,2.64-.25,2.29.89,4.41,0,6.38-.65,5.19-1.61,10.63-2.4,15.6-4.74,1-.47,2.08-.7,3-1.21,2.94-1.6,5.43-3.6,6.21-7.14a1.2,1.2,0,0,1,2.07-.74c1.55,1.21,3,.77,4.59,0a49.6,49.6,0,0,0,8.95-5.22c2.2-1.67,4.33-1.93,6.52-.42a36.8,36.8,0,0,0,8.86,4.13,13,13,0,0,1,5.55,4.23,3.55,3.55,0,0,1-.28,5.32,5.74,5.74,0,0,1-.9.62c-.9.62-2,1.3-1.32,2.55.47.82,1.64.78,2.51.46,3.23-1.17,6.77-1.26,9.89-2.83a.68.68,0,0,1,1.09-.27c1.23-.22,2.47-.42,3.69-.68,4.82-1,6.15-.12,7.37,5.06a9.89,9.89,0,0,1,4.08,5C223,446.84,227.77,452.82,229,460.33Z" transform="translate(-6.49 -181.77)"/><path class="cls-66" d="M97.49,437.22c-5.76.36-11.19-1-16.49-3.14,2.66-5,7.35-7.66,12.22-9.58,8.94-3.54,15.3-9.57,20-17.79,2.61-4.55,4.43-9.24,4.36-14.47-.16-12,.23-24,1-36.06s-1.31-24-3.27-35.9a37.42,37.42,0,0,1-.78-9.79c.59-6.23,2.9-8,9.38-7,.35,0,.71,0,1.06,0a3.5,3.5,0,0,0,2.86,1.07l4.75.12c4.87,2,8.17,6,11.36,9.83s5.75,7.89,9.33,11.26a4.34,4.34,0,0,1,1.37,2.88c-3.56-2.82-7.32-5.38-10.45-8.71a9.79,9.79,0,0,0-5.6-3.21c-3-.49-4.74.75-4.77,3.66,0,3.81-.42,7.61.67,11.42a20.26,20.26,0,0,1,.32,6.52,66.21,66.21,0,0,0,3.06,24.24,27.94,27.94,0,0,1,1.39,10.77,34.67,34.67,0,0,0,.65,6.49c.9,7.64,1,15.25-2.85,22.37A81.26,81.26,0,0,0,132,413.14c-1.68,4.59-5,7.87-9.18,10.46a84.32,84.32,0,0,1-20.32,9.3C100.24,433.57,97.83,434.24,97.49,437.22Z" transform="translate(-6.49 -181.77)"/><path class="cls-8" d="M205.08,430.64l-1.09.27c-1.58-.16-3.21-.23-3.53-2.31.53-.93,1.12-1.9,2.33-1.85a3.9,3.9,0,0,1,3.55,1.84C206.81,429.51,205.48,429.92,205.08,430.64Z" transform="translate(-6.49 -181.77)"/><path class="cls-41" d="M123.91,303.47c-.55,0-1.1,0-1.64.07-3.54.27-5.81,2.24-6,5.66a30.22,30.22,0,0,0,.44,8.68c.81,3.52.82,7.23,1.75,10.71,1.52,5.69.93,11.54,1.8,17.29a45.85,45.85,0,0,1-.38,17.38,20.62,20.62,0,0,0-.39,3.78c-.18,3.08.38,6.2-.61,9.23a3.39,3.39,0,0,0,0,1.61c1.14,5.6.55,11.26.44,16.88a22,22,0,0,1-3.85,11.78c-2,3-4,6.08-6.08,9.07A17.77,17.77,0,0,1,103,421.4c-3.05,1.61-5.92,3.49-9.22,4.68A24.73,24.73,0,0,0,84.73,432,6.17,6.17,0,0,1,81,434.08c-1.57,0-3.14,0-4.71,0a3.06,3.06,0,0,1-2.78-1.11l4.33-.06c.45-.29,1.08-.48,1.34-.9,4-6.42,10.23-10.81,15.28-16.27,2.72-2.95,5.63-5.68,8-9A33.12,33.12,0,0,0,108.53,390c.52-6.19-.18-12.37,0-18.56.14-6,0-12.06,0-18.08a94.58,94.58,0,0,1,.78-10.87,49.77,49.77,0,0,0-.32-16.33,25.24,25.24,0,0,1-.44-4.34,30.58,30.58,0,0,0-.74-7c-.82-3-.45-6.17-.28-9.26a3,3,0,0,1,3.22-3.05c4-.14,8-.07,12.06-.09.36-.48.7-.47,1,0Z" transform="translate(-6.49 -181.77)"/><path class="cls-67" d="M126.06,222.35h3.44c.49,1.89-1.65,3-1,4.7a25,25,0,0,1,1,4.23,2.14,2.14,0,0,0,2.23,1.94c1.64.09,3.29,0,4.91.23a2.31,2.31,0,0,1,1.74,3.66,26.53,26.53,0,0,1-5.06,7.06,35.52,35.52,0,0,0-7.81,11.1,36.44,36.44,0,0,1-1.74,3.41c-2.54,4.16-7.42,4.6-10.3.57a6.14,6.14,0,0,0-5.94-2.9c-1.81.11-3.65-.18-5.41.5l-.52.18a3.86,3.86,0,0,1-4.43-1.29,4.1,4.1,0,0,1,0-4.64c1.47-2.71,3.08-5.33,4.64-8a13.31,13.31,0,0,0,9.53-3.39,24.6,24.6,0,0,1,5.93-3.89c2.66-1.16,5.55-2.69,8.19-.33s-.14,4.67-.84,8.09c3.48-2.08,6.14-3.83,8.61-6.9-4.13-.82-6.45-2.95-7.08-6.81-.35-2.13-2.12-3.32-3.89-4.35a2.91,2.91,0,0,1-.91-1.2c0-.25,0-.5,0-.76a3,3,0,0,1,1.09-1,4.86,4.86,0,0,1,2.89-.34Z" transform="translate(-6.49 -181.77)"/><path class="cls-68" d="M85.46,278.26c.84-.16,1.81-.68,2.12.72a1.1,1.1,0,0,1,0,.54c-1.7,4.9-.34,10.18-1.86,15.11a5.18,5.18,0,0,0-.2,1.62c.11,8.57-1.75,17-1.22,25.63a37,37,0,0,1-.7,9.23c-.57,3,1,6,.8,9.17-.25,4,0,8,0,12,0,2.73-.18,5.47.8,8.13a6.47,6.47,0,0,1,.23,2.71c-.52,5.68,1.1,11.21,1.21,16.85a7.24,7.24,0,0,0,.41,2.14c1.3,4,.49,7.92-.64,11.81a1,1,0,0,1-.73.55,1.12,1.12,0,0,1-.82-.57,5.73,5.73,0,0,1-.44-2.1,11.1,11.1,0,0,0-1.5-5.74,26.4,26.4,0,0,1-3-13.18c.08-4.56,0-9.12,0-13.69,0-2.55-.68-5.15-.5-7.57a35.94,35.94,0,0,0-.44-7.5,20.67,20.67,0,0,1,.28-7.06,32.27,32.27,0,0,0,.65-7c0-4.38.06-8.77,0-13.15,0-5.3,1.11-10.46,1.75-15.68a33,33,0,0,0,.41-5.43h0c1.37-1.64-.14-3.84,1.06-5.51,0-.35.09-.69.14-1,1.06-1.3-.12-3.11,1-4.4h0c1.43-2-.26-4.54,1.09-6.57Z" transform="translate(-6.49 -181.77)"/><path class="cls-69" d="M121.64,224.5c3-.33,4.78,1.06,5.79,3.83a13.18,13.18,0,0,1,.89,3.69,2.24,2.24,0,0,0,2.47,2.32c.91,0,1.82.06,2.73.1s1.86.34,2.12,1.36a2.35,2.35,0,0,1-.91,2.44c-3.29,2.57-6.62,5.1-10,7.61a1.56,1.56,0,0,1-2-.2,1.58,1.58,0,0,1-.62-1.93c.89-1.79,2-3.47,2.9-5.24a1.9,1.9,0,0,0-2-2.86,12.59,12.59,0,0,0-6.6,2.32c-2.67,1.91-5.34,3.79-8,5.72-2.41,1.76-4.66,1.89-6.71-.55A56.38,56.38,0,0,1,114,227.89c.69-2.47,2.83-3.25,4.87-4.16a2.67,2.67,0,0,1,2.74.77Z" transform="translate(-6.49 -181.77)"/><path class="cls-70" d="M119.51,224.58,114,227.89a2.42,2.42,0,0,1-1-1.83,4.35,4.35,0,0,1,.15-1.62c2.9-7.22,5.19-14.73,9.87-21.12,1-1.36,2-1.43,3-.07.84,1.17,1.52,2.47,2.27,3.72,0,1.53.93,2.73,1.4,4.09a44.09,44.09,0,0,1,1.75,5.7c.43,2-.27,2.91-2.45,3.33-1.07.21-2.19.19-2.89,1.22l0,0a9.23,9.23,0,0,1-1.51,1.12,4.4,4.4,0,0,1-1.17.41,3.08,3.08,0,0,0-1.75.48l0,.16a1.66,1.66,0,0,1-1.11.5A1.64,1.64,0,0,0,119.51,224.58Z" transform="translate(-6.49 -181.77)"/><path class="cls-46" d="M85.46,278.28c0,1.24,0,2.49,0,3.73a3.21,3.21,0,0,1-1.13,2.84C84.55,282.63,83.68,280.24,85.46,278.28Z" transform="translate(-6.49 -181.77)"/><path class="cls-46" d="M83.22,290.3c-.09,1.88.67,3.93-1.06,5.51C82.26,293.92,81.64,291.9,83.22,290.3Z" transform="translate(-6.49 -181.77)"/><path class="cls-46" d="M84.37,284.86c0,1.54.42,3.18-1,4.4C83.33,287.71,83,286.08,84.37,284.86Z" transform="translate(-6.49 -181.77)"/><path class="cls-2" d="M123.82,302.44c-.34,0-.68,0-1,0,0-.35,0-.7,0-1.06,1.53,0,3.17-.39,4.4,1Z" transform="translate(-6.49 -181.77)"/><path class="cls-39" d="M123.81,222.25a2.63,2.63,0,0,1,2.29-.91c0,.33,0,.67,0,1h0A1.44,1.44,0,0,1,123.81,222.25Z" transform="translate(-6.49 -181.77)"/><path class="cls-11" d="M447.76,214.23c-.28-.12-.71-.18-.79-.38s.2-.54.32-.82c.28.12.71.19.79.38S447.88,214,447.76,214.23Z" transform="translate(-6.49 -181.77)"/><path class="cls-11" d="M442.12,207.07a2.06,2.06,0,0,1,2.1-1.12A1.85,1.85,0,0,1,442.12,207.07Z" transform="translate(-6.49 -181.77)"/><path class="cls-11" d="M440.64,207.93a1.3,1.3,0,0,1,1.42-.83A1.31,1.31,0,0,1,440.64,207.93Z" transform="translate(-6.49 -181.77)"/><path class="cls-71" d="M31.71,496.46a13,13,0,0,0,2.53-2c3.16-4.2,6.21-8.48,9.29-12.75a9.46,9.46,0,0,0,.79-1.43A13.29,13.29,0,0,1,57,472.37a9.43,9.43,0,0,0,6.8-3c.77-.77,1.61-1.49,2.32-2.32,5.55-6.56,12.79-9.91,21.13-11.3a20.49,20.49,0,0,0,4.6-1.62,1.72,1.72,0,0,0,.36-2.77,6.4,6.4,0,0,0-1.32-.95c-4.77-2.25-9.32-4.94-14.3-6.82a88,88,0,0,1-9.83-4.76c-2.52-1.34-2.64-2.54-1-5.79-.21,2.06.5,3.65,2.5,4.36a69.7,69.7,0,0,0,9.34,3c7.82,1.62,15.67,3.3,23.59,4.2,4.49.51,9,1.75,13.54,1.41,6,1.79,12.3.65,18.42,1.88A93.38,93.38,0,0,0,144,449.3a9.2,9.2,0,0,1,5.05,1.84,1.75,1.75,0,0,1,.12,2.82,24,24,0,0,1-4,2.79c-3.91,1.88-7.4,4.7-11.84,5.39-3.09.48-5.06,2.88-7.33,4.59-3.9,3-8.23,5.36-11.66,9-1.59,1.7-4,2.45-6.28,3.2-5.36,1.79-10.67,3.7-16.06,5.34a157.55,157.55,0,0,0-18.79,7.45,54.05,54.05,0,0,1-7.2,2.56c-3.5,1-7,2.14-10.43,3.26a8,8,0,0,0-2,.9c-2.5,1.67-2.48,4.13.06,5.62a36.31,36.31,0,0,0,11.77,4.32c7.13,1.35,14.24,2.77,21.47,3.69a116.44,116.44,0,0,0,12.49.85,10.29,10.29,0,0,1,2.73.1c4.65,1.46,9.41.89,14.14,1,3.45.07,6.91-.21,10.31.88a13,13,0,0,0,3.81.19q23.28,0,46.57,0a14.89,14.89,0,0,0,4.34-.33,21,21,0,0,1,7-.72c8.06.22,15.95-1.13,23.81-2.62,2-.37,4-.51,5.92-.86,8.1-1.45,15.87-4,23.64-6.67,3.27-1.1,5.27-3.84,7.78-5.9,1-.86.44-2.44.64-3.67,2.38.21,2,1.56,1.26,3.05l-.15,1.29c-.81,1.59-2.26,2.83-2.32,4.85-.05,1.67-1.29,2.45-2.83,2.9-4.34,1.29-8.5,3-13.14,3.49-3.74.38-7.43,1.55-11.18,2.24-4.47.83-9.07.66-13.45,1.91-5.29,1.51-10.9.42-16.15,2.1-6.75-.27-13.34,1.64-20.12,1.23a53.64,53.64,0,0,0-16.27,1c-1.43,1.76-3.48,1.9-5.46,1.93-6.36.08-12.73.45-19.07-.37-3.77-1.24-7.67-1.12-11.56-1-24.75-.25-49.25-2.62-73.28-8.86-5.72-1.48-11.08-3.53-15-8.25a4.68,4.68,0,0,1-.28-4.66Z" transform="translate(-6.49 -181.77)"/><path class="cls-72" d="M229,460.33c-3-3-4.19-7.11-5.95-10.74-2.34-4.82-5-9.54-6.94-14.57l52,.06c1.27,0,2.56.08,3.83,0,4.76-.35,10.15,5.1,9.88,9.78-.14,2.36,0,4.74,0,7.11-.09,4.13-2,6.45-6,7.09a28.9,28.9,0,0,1-4.37.13c-12.23,0-24.46,0-36.69.05C232.8,459.23,230.69,458.69,229,460.33Z" transform="translate(-6.49 -181.77)"/><path class="cls-73" d="M251.3,497.36c-.22-1.1-.24-2.28-1.26-3.05-.39-2.66-2.2-4.53-3.73-6.5a186.89,186.89,0,0,1-13.1-19.21c-.74-1.23-1.31-2.56-2-3.84,1.29-1.49,3-1.27,4.56-.87a10.22,10.22,0,0,0,5.35,0,17.4,17.4,0,0,1,4.34-.28q14.49,0,29,0c.72,0,1.46,0,2.18,0,2.2.15,3.45.95,3.89,3.1a36.41,36.41,0,0,1,1.28,7.51,68.8,68.8,0,0,0,.93,13.58,28.36,28.36,0,0,1,0,7.07,2.59,2.59,0,0,1-2.49,2.46,12.78,12.78,0,0,1-1.64.11Z" transform="translate(-6.49 -181.77)"/><path class="cls-74" d="M401.42,402.16a25.22,25.22,0,0,1-13.59,3.37c-8-.22-16.05,0-24.08-.08-4.54,0-9.1.41-13.59-.9a15.8,15.8,0,0,0-4.36-.14c-11.13,0-22.26,0-33.39-.07-3.62,0-7.29.47-10.85-.8a4.43,4.43,0,0,0-3.21.28c-1.94.83-3.56,0-5.1-1a3.3,3.3,0,0,1-1.28-3.86,2.93,2.93,0,0,1,2.85-2.16c3.45-.19,6.92-.15,10.35-.47,14.72-1.38,29.48-.29,44.21-.79,4.83-.16,9.68-.43,14.52-.89,5.24-.5,10.57-.08,15.86-.15a82.15,82.15,0,0,0,8.71-.41,21.16,21.16,0,0,1,8.59.8c3.26,1,4.82,3.72,4.35,7.29Z" transform="translate(-6.49 -181.77)"/><path class="cls-63" d="M284.17,517.45c0-4.73-.13-9.46-.06-14.2,0-2.93.56-3.38,3.63-3.42,4.37-.05,8.74,0,13.12,0l36.62,0c2.36,0,4.75-.1,6.94,1.06a19.47,19.47,0,0,1,.62,14.56c-2.54,3.11-6.14,2.76-9.55,2.79-13.43.14-26.86,0-40.3.09C291.51,518.35,287.63,520.38,284.17,517.45Z" transform="translate(-6.49 -181.77)"/><path class="cls-75" d="M284.17,517.45a41.93,41.93,0,0,0,7.53-.89,23.44,23.44,0,0,1,5.94-.34q20.4,0,40.78,0c2,0,4,.33,5.71-1.16,1.39.76,1.64,2.14,1.92,3.5,0,5,1.59,10.22-1.56,14.92a21.66,21.66,0,0,1-9-5.69,4.55,4.55,0,0,0-3.81-1.65c-3.79.2-7.58-.22-11.37.7-2.25.54-4.69.31-7,.35-3.81.06-7.62.05-11.43.08a11.32,11.32,0,0,0-2.18,0c-5.2,1-10.4.43-15.6,0C282.22,524,282.89,520.7,284.17,517.45Z" transform="translate(-6.49 -181.77)"/><path class="cls-76" d="M344.53,518.32c-.13-1.1-.27-2.2-.4-3.3q.14-7.06.29-14.14a5.08,5.08,0,0,0,.15-.95l1.22-.06,1.11.26.79.76,0,0-1.17,2.39c-.18,1.27.1,2.41,1.36,2.93.44.18.57-.71.93-1,1.56.31,3.15.79,4.36-.8,6,2.31,11.88,5.09,19.14,5.29-2-3-6.45-.38-7-4.3,3.39,0,6.78,0,10.17,0,.76,0,1.56.53,1.33,1.3-.73,2.33.57,3.71,2.07,5,.54.46,1.16.83,1.73,1.24a5.25,5.25,0,0,1,3.75,2c1.78,1.91,5.14,3.21,4.24,6.4s-4.45,3.92-7.22,3.78c-9.72-.47-19.89.34-28.06-6.49C350.18,516,347.5,517,344.53,518.32Z" transform="translate(-6.49 -181.77)"/><path class="cls-77" d="M225.94,317.63c-.93-1.09-1.8-2.25-2.82-3.25-1.93-1.91-1.81-4.19-1.33-6.53a2.17,2.17,0,0,1,2.92-1.56,11.13,11.13,0,0,1,6.28,6.34c1.21,2.88,0,4.73-3.33,5.1a11,11,0,0,1-1.62-.05Z" transform="translate(-6.49 -181.77)"/><path class="cls-78" d="M474.41,566.76c4.68-.94,9.4,1.13,14.32,1.15a7.07,7.07,0,0,1,4.34,2.12c1.66,1.45,1.66,3.47-.39,4.43-4.43,2-8.92,4-14.05,2.06-2.7-1-5.6-1.5-8.4-2.24-3-.8-6-1.65-8.53-3.5a2.05,2.05,0,0,1-.7-1.37c-.06-.8.5-1.27,1.26-1.52A30.48,30.48,0,0,1,474.41,566.76Z" transform="translate(-6.49 -181.77)"/><path class="cls-53" d="M234.71,555.64l1-1Z" transform="translate(-6.49 -181.77)"/><path class="cls-79" d="M236.86,551.26l-203,0a4,4,0,0,0-1.3-2.9c-3.22-2.84-3.33-6.15-1.63-9.82a15.75,15.75,0,0,0,.74-2.59c3.36-2,6.36.51,9.53.75a9.43,9.43,0,0,1,1.38.39,19,19,0,0,0,3.95,1.06,11.74,11.74,0,0,1,1.3.32c1.51.52,3.11.37,4.65.61a10.25,10.25,0,0,1,1.36.28,26.84,26.84,0,0,0,4.86.9,9.13,9.13,0,0,1,1.46.35c2.3.65,4.68.19,7,.53a6.66,6.66,0,0,1,1.66.37c5.3.81,10.67,1,16,1.89a28.05,28.05,0,0,0,4.85.8c16.93.47,33.89,1.67,50.8.91,27.39-1.23,54.87-2.23,81.79-8.2,7.42-1.65,14.82-3.77,21.55-7.57,2-1.14,4.49-1.8,5.07-4.55.86-.63,2.11-.68,2,.44-.42,3.73-1.1,7.41.16,11.1-1.26,3.55-2.14,7.37-6.55,8.55-2.25.6-4.48,1.35-6.71,2a18.16,18.16,0,0,0-2.06.63c-.64.28-1.42.55-1.5,1.39s.75,1,1.36,1.35A8.38,8.38,0,0,1,236.86,551.26Z" transform="translate(-6.49 -181.77)"/><path class="cls-80" d="M248.89,524.81a1.49,1.49,0,0,1,.47,2.31,10.86,10.86,0,0,1-3.88,3,76.15,76.15,0,0,1-17.86,6.83A166,166,0,0,1,203,541.56c-7.22.82-14.4,2-21.6,3-.9.12-1.82.1-2.73.13a81.86,81.86,0,0,0-10.34.83c-3.93.61-8,.28-12,.36-3.64.08-7.29-.18-10.89.78a17.16,17.16,0,0,1-4.37.18q-14.52,0-29,0a24.62,24.62,0,0,1-6-.53,22.77,22.77,0,0,0-4.89-.44c-4.2-.08-8.4-.07-12.61-.12-1.44,0-3,.18-4.12-1,2.34-2.51,5.52-2.06,8.25-1.66,5.85.85,11.75,1,17,1.45-2.6-.74-5.91-.23-9.18-.42-1.64-.09-3.67-.18-3.94-2.17s1.44-2.83,3-3.51a35.2,35.2,0,0,1,7.43-1.88,51.43,51.43,0,0,0,15.79-6.08c3-1.76,3-3.43-.43-4.77a54.41,54.41,0,0,0-8.39-2.53c-1.54-.33-3.93-.41-2.68-3.25.47-.29.94-.71,1.46-.68,9.5.48,19.13,0,28.31,3.06,4.6,1.55,5.53,4,4.31,9.41-1.43,3.62-5.1,5.5-7.13,8.68,1.56,1.94,3.51,1.51,5.16,1.25,11.15-1.77,22.44-.49,33.63-1.65,3.89-.4,7.75,2,11.71.33a56.08,56.08,0,0,0,14.57-1.63A57,57,0,0,1,215,537a36,36,0,0,0,8.51-1.68c3.82-1.14,7.64-2.28,11.41-3.51A58.32,58.32,0,0,0,248.89,524.81Z" transform="translate(-6.49 -181.77)"/><path class="cls-81" d="M188.59,540.34c-1,1.09-2.24,1.07-3.53,1.09-3.82,0-7.66-.33-11.4.93a6.71,6.71,0,0,1-2.72.12c-6.35-.7-12.69.4-19,.06A14.16,14.16,0,0,0,147,543c-3.21,1-6.53.47-9.8.49a2,2,0,0,1-2.12-1.39,2.73,2.73,0,0,1,.41-2.6,8.59,8.59,0,0,1,1.64-1.41,28.19,28.19,0,0,0,6.55-6.53,12.84,12.84,0,0,1,6.34-2.73c5.81-.55,10.4-2.68,11.14-9.33,3.08,0,6.16.08,9.24,0,3.66-.13,7.08,1.32,10.71,1.42a5.91,5.91,0,0,1,2,.8c3.55,1.68,4.09,3.45,2,6.84a17.54,17.54,0,0,1-2.06,2.5c-1,1.06-2.08,2-3,3.11-1.86,2.14-1.45,3.85,1.12,5.17a7.74,7.74,0,0,0,3.63,1C186.06,540.29,187.33,540.33,188.59,540.34Z" transform="translate(-6.49 -181.77)"/><path class="cls-82" d="M161.18,519.51c1.68,6.35,1.83,6.22-4.45,9.35a14.51,14.51,0,0,1-6.16,1.67,54.19,54.19,0,0,0-6.88,1,8.84,8.84,0,0,0,.61-1.51c.73-3.39-.27-5.24-3.54-6.08s-6.69-2.11-10-2.08c-6.71.06-13.25-1.92-20-1.28-1.87,2-4.28,1.65-6.63,1.44a404.47,404.47,0,0,1-54-8c-3.73-.84-7.47-1.63-10.9-3.41-1-.53-1.94-1.21-2.89-1.83a11.18,11.18,0,0,1-1.3-1c-1.53-2.11-5.07-3.28-3.31-7,1.95,1,3.34,2.74,5.28,3.86a39,39,0,0,0,9.57,3.78c5.44,1.45,11,2.62,16.46,3.81,3.21.7,6.6.15,9.67,1.56,8.7.63,17.25,2.81,26,2.36a5.61,5.61,0,0,1,1.64,0c6.28,1.63,12.7.86,19.06,1.06,3.54,1.44,7.39-.38,11,1l25.26,0C157.25,520.12,159.33,519.25,161.18,519.51Z" transform="translate(-6.49 -181.77)"/><path class="cls-83" d="M15.34,513c.54,2.93.58,3.06,2.64,3.1,2.7.06,5.4.25,8-.7,2.14-.78,2.4-1,2.45-3.54,0-2-.09-4,0-5.94a14.55,14.55,0,0,1,3.28-9.46c0,1.47,0,2.94,0,4.41a4.49,4.49,0,0,0,1.58,3.29c1,1,1.85,2.16,2.78,3.25-1.15,2-4.34-.48-4.68,1.47-.66,3.9-1.16,8.16.48,11.86a7.2,7.2,0,0,1-.68,7.59,14.68,14.68,0,0,0-.11,2.2c-.21,1.44.52,3-.61,4.34a15.29,15.29,0,0,1-6.4-2.9c-2.14-1.49-3.82-3.32-3.13-6.39a1.87,1.87,0,0,0-2.17-2.3c-3.53,1-6.84-.36-10.24-.59-.15-3.15,1.84-4.57,4.46-5.46a2.55,2.55,0,0,0,1.08-2.17A2.28,2.28,0,0,1,15.34,513Z" transform="translate(-6.49 -181.77)"/><path class="cls-83" d="M6.56,522.91l1.1,0-1.17.94A7.93,7.93,0,0,1,6.56,522.91Z" transform="translate(-6.49 -181.77)"/><path class="cls-84" d="M24,504.09l-1.07,1.09A1.37,1.37,0,0,1,24,504.09Z" transform="translate(-6.49 -181.77)"/><path class="cls-84" d="M21.79,506.3c-.34.37-.69.74-1,1.1A1.36,1.36,0,0,1,21.79,506.3Z" transform="translate(-6.49 -181.77)"/><path class="cls-84" d="M22.88,505.2l-1.07,1.09A1.37,1.37,0,0,1,22.88,505.2Z" transform="translate(-6.49 -181.77)"/><path class="cls-84" d="M20.72,507.44l-.93,1.1A1.17,1.17,0,0,1,20.72,507.44Z" transform="translate(-6.49 -181.77)"/><path class="cls-84" d="M25.07,503,24,504.08A1.39,1.39,0,0,1,25.07,503Z" transform="translate(-6.49 -181.77)"/><path class="cls-53" d="M120.55,576.49c-2.09.2-3.91-.75-5.77-1.43a3,3,0,0,1-1.71-3.63,2.87,2.87,0,0,1,2.58-2.45,13.71,13.71,0,0,1,2.72-.13A64.19,64.19,0,0,0,135.61,567a13.61,13.61,0,0,1,2.7-.29,31.84,31.84,0,0,0,7.56-.82c2-.54,4.33-.23,6.51-.29a10.62,10.62,0,0,1-7.68,2.15,26.56,26.56,0,0,0-12.27,2.14c-4.22,1.72-8.78,2.23-13,3.49C119,574.88,120.32,575.46,120.55,576.49Z" transform="translate(-6.49 -181.77)"/><path class="cls-53" d="M152.42,565.54c1.17-1.5,2.83-1,4.35-1.07C155.59,566,153.93,565.44,152.42,565.54Z" transform="translate(-6.49 -181.77)"/><path class="cls-58" d="M344.53,518.32c.13-.13.31-.23.38-.39,2.32-5.23,2.32-5.23,6.94-2.22a23.37,23.37,0,0,1,2.71,1.83c4.83,4.2,10.65,5.16,16.75,5.3a14.43,14.43,0,0,1,4.33.4c3.73,1.3,7.19.06,10.7-.8a1.59,1.59,0,0,0,.67-2.88c-2.32-2-4.78-3.93-6.43-6.62-.16-1.07-.31-2.14-.48-3.2-.47-2.91,1.68-4.91,4.54-4,3.63,1.12,7.31,2.18,10.6,4.13a4.65,4.65,0,0,0,5.11-.21h0A22.21,22.21,0,0,0,411,512.93c4.31.1,8.66-.5,12.89.93,1.53.51,3.13-.48,4.82-.1,1.92.43,3.42.84,3.58,3.19a8.82,8.82,0,0,0,1,2.51c-1.43,2.63-4.13,2.88-6.6,3.26a125.65,125.65,0,0,1-19.06,1.94c-2.13,0-5.32-.63-6,1.41-.86,2.51,2.3,3.82,4.09,5.09,10.47,7.42,22.17,10.54,35,10.38,14.94-.18,29.89.23,44.84-.18a26.24,26.24,0,0,1,6.53.75c1.94.45,4.08.9,3.75,3.72l-1.1,0c-2.46,1-5,.46-7.55.47q-27.3.09-54.6,0c-2,0-4,.46-5.92-.47l-1.09,0c-4.29-1.55-8.86.36-13.16-1.06h0c-3.55-1.53-7.43.28-11-1.06-5.43-.49-10.85-1-16.29-1.48-11.29-.94-22.1-4.32-33.12-6.61-2.12-.44-4.16-1.24-6.24-1.88l-1.23-.28Q344.52,525.88,344.53,518.32Z" transform="translate(-6.49 -181.77)"/><path class="cls-85" d="M495.81,545.83a4,4,0,0,0-4.05-2.2,17.32,17.32,0,0,1-6.47-.71,4,4,0,0,0-2.14,0,39.9,39.9,0,0,1-16.75-.08,7,7,0,0,0-2.7,0,51.27,51.27,0,0,1-18.93.08,4.47,4.47,0,0,0-2.15,0c-3.25,1.13-6.41.73-9.65-.16a13.38,13.38,0,0,0-4.34-.2,19.57,19.57,0,0,1-9.48-2.15c-3.47-1.59-6.75-3.57-10.4-4.81a13,13,0,0,1-3.67-2.32c-2.41-1.93-4.75-3.93-7.08-6a1.83,1.83,0,0,1,.85-3.3,19.59,19.59,0,0,1,5.3-1.11,111.53,111.53,0,0,0,17.9-1.27c3.76-.51,7.47-1.43,11.2-2.17a21.11,21.11,0,0,0,8.78,1.06,3.83,3.83,0,0,1,2.43-1.12c9.77.86,19.64-.61,29.37,1.18,1.23-.22,2.47-.43,3.7-.67,3.24-.63,6.45-.83,9.54.65,11.52.85,21.17,7.43,32,10.54,3.32.95,3.58,3.83.74,6.37-3.74,3.33-8.37,7-15.08,6.23,1.73.4,4.4-1.07,6.49,1.07a4.12,4.12,0,0,1-3,1Z" transform="translate(-6.49 -181.77)"/><path class="cls-58" d="M511.19,544.77c-3.1-.07-6.2-.12-9.31-.23-.2,0-.56-.46-.55-.69a1.15,1.15,0,0,1,.54-.84c1.36-.7,2.86-.49,4.3-.45a10.4,10.4,0,0,0,6.18-1.87c1.36-.91,2.79-1.72,4.23-2.52a11.64,11.64,0,0,0,3.65-3.26,1.35,1.35,0,0,0-.73-2.15c-1.19-.44-2.41-.83-3.64-1.17-4.57-1.26-9.21-2.3-13.11-5.26a10.19,10.19,0,0,0-4.09-1.47c-2.67-.57-5.29-1.37-7.91-2.12a5.92,5.92,0,0,1-3.68-2.18c4.4-1.88,9-1,13.48-.71a14.34,14.34,0,0,1,4.27.85c4,1.58,8,1.06,11.75-.37,4.15-1.57,8.54-1.77,12.75-2.9,2.27-.61,4.65-.85,7-1.25a117.32,117.32,0,0,0-6.89,10.42c-1,1.87-2.85,3.27-4.27,4.93a1.21,1.21,0,0,0,.75,2.05c3.42.36,6.71,1.64,10.24,1.29a16.4,16.4,0,0,1,4.85.55,30.14,30.14,0,0,0,14.55-.63,6.3,6.3,0,0,0,2.79-1.61,6,6,0,0,1,3.36-1.67l2.19-.29a2.94,2.94,0,0,0,1-.7l1.05-.4c.39.41.71.94.39,1.43a10.7,10.7,0,0,1-5,4,87.15,87.15,0,0,1-19.75,5.84c-6.44,1-12.82,2.38-19.39,2.31-3.21,1.28-6.73-.42-9.92,1A5.35,5.35,0,0,1,511.19,544.77Z" transform="translate(-6.49 -181.77)"/><path class="cls-85" d="M426.64,545.86c8,0,16-.08,24-.08q22,0,44.11.07c-1.7,1.53-3.79,1-5.73,1q-22.32.09-44.62.08-6.81,0-13.61-.07C429.31,546.84,427.82,547,426.64,545.86Z" transform="translate(-6.49 -181.77)"/><path class="cls-85" d="M412.39,544.76c3.24,0,6.47,0,9.71-.06,1.26,0,2.53,0,3.45,1.12l-10.71-.16A3.55,3.55,0,0,1,412.39,544.76Z" transform="translate(-6.49 -181.77)"/><path class="cls-85" d="M401.37,543.69l8.1-.05a3.36,3.36,0,0,1,2.9,1.11l-8-.1A4.3,4.3,0,0,1,401.37,543.69Z" transform="translate(-6.49 -181.77)"/><path class="cls-85" d="M512.25,544.7a3.49,3.49,0,0,1,2.92-1.09l7,.09a4.87,4.87,0,0,1-3.51,1C516.52,544.7,514.38,544.69,512.25,544.7Z" transform="translate(-6.49 -181.77)"/><path class="cls-86" d="M30.52,534.86c-.61-1.42-1.28-2.84-.95-4.47,4.81,1.83,10,3,13.12,7.71-1.84.39-3.52-.27-5.25-.75s-3.81-.93-5.72-1.38Z" transform="translate(-6.49 -181.77)"/><path class="cls-53" d="M200.5,552.77l-.38.27-.38-.27A.66.66,0,0,1,200.5,552.77Z" transform="translate(-6.49 -181.77)"/><path class="cls-58" d="M536.37,516.13l1-1Z" transform="translate(-6.49 -181.77)"/><path class="cls-51" d="M564.9,530.52a1,1,0,0,1-1,.7Z" transform="translate(-6.49 -181.77)"/><path class="cls-87" d="M506.46,513a44.61,44.61,0,0,0,5.41-.78c3.22-.54,6.52-1,9.67.51a1.62,1.62,0,0,1,1.11,1.68,1.83,1.83,0,0,1-.94,1.26,30,30,0,0,1-5.21,1.56c-1.61.28-3.27.19-4.84.8a3.2,3.2,0,0,1-1.61.23c-3.21-.56-6.42-1.18-9.63-1.8a4.21,4.21,0,0,1-3.61-2.94,2.28,2.28,0,0,0-3.06-1.57c-3.86,1.4-8,.56-11.88,1.71a10.65,10.65,0,0,1-8-.7c-1.9-1-3.49-1.9-3.43-4.38,0-1.61-1.12-2.17-2.56-2.2a3.17,3.17,0,0,1-3.11-1.82,2.94,2.94,0,0,1-.39-2.59,1.94,1.94,0,0,1,2.32-1c2.9.86,5.32-.19,7.81-1.44,1.62-.82,3.44-1.21,5.14-1.87,2.29-.9,4.51-1.35,6.75.16a2.6,2.6,0,0,0,3.49-.37,10,10,0,0,1,2.18-1.62,2.28,2.28,0,0,1,2.93.74,9.69,9.69,0,0,1,.75,1.43c1.45,2.71,2.29,3.19,5.13,2.76,1.07-.17,2.1-.58,3.17-.75a2,2,0,0,1,1.87.93,1.43,1.43,0,0,1-.13,2,15.44,15.44,0,0,0-1.06,1.24c-.93,1.53-.76,2.36.75,3.08,1.23.6,3.32.56,2.74,2.6-.43,1.52-2.21.73-3.4,1a10.45,10.45,0,0,0-2.05.59c-.22.1-.3.59-.38.91,0,.09.17.33.29.34C503.94,512.75,505.2,512.86,506.46,513Z" transform="translate(-6.49 -181.77)"/><path class="cls-58" d="M389.1,452.14a5.08,5.08,0,0,1-.16,1.18,56.9,56.9,0,0,1-2.52,7.21c-3.16,6.5-4,13.5-4.76,20.53-.34,3-.39,6.19-3.1,8.38-1,.79-1,1.79-.6,3,.41,1.35,1.36,2.79.61,4.18a16.18,16.18,0,0,1-4.33,5.57,5.1,5.1,0,0,1-3.09.89,14.09,14.09,0,0,0-4.87.53,1.26,1.26,0,0,1-1.8-.65,2.09,2.09,0,0,1,.38-2.05,8.33,8.33,0,0,1,3.42-2.64c2.8-1.41,4.1-3.64,3.13-6.72a4.87,4.87,0,0,1,.6-4.14c.62-1.1,1.84-2.25,1.76-3.3-.44-5.81,3.73-10.09,4.84-15.37a70.92,70.92,0,0,1,5.19-14.32,6.45,6.45,0,0,1,3.06-3.63A1.7,1.7,0,0,1,389.1,452.14Z" transform="translate(-6.49 -181.77)"/><path class="cls-88" d="M400.35,509.62q-1.43-1.64-2.84-3.28c-2-2.32-2-4-.2-6.26,5.1-6.17,6.85-6.44,13.31-1.39,2,1.58,3.76,2.42,6.4,1.67,2.14-.6,4.25.51,6.13,1.63,1.15.69,2.39,5,1.69,5.9a4.78,4.78,0,0,1-1.75,1.23,10.69,10.69,0,0,1-5.37.49c-5.8-.45-11.59.2-17.38,0Z" transform="translate(-6.49 -181.77)"/><path class="cls-58" d="M473.83,520.58a3.57,3.57,0,0,1-3,1.09c-7.1,0-14.22.11-21.32,0a58.8,58.8,0,0,1-7.52-1.11c.18-.7.3-1.42.54-2.1,1.53-4.35,2.71-5,7.28-4.17,5.69,1,11.39,2,17.2,2C470.34,516.15,472.65,517.45,473.83,520.58Z" transform="translate(-6.49 -181.77)"/><path class="cls-89" d="M487.29,457c-2.66,0-3.63-.78-3.69-2.53-.08-2.34.31-4.69-.56-7-.41-1.08.63-2.15,1.83-2.14a15.38,15.38,0,0,1,2.7.29c3.2.6,6.29,1.8,9.59,2a4.72,4.72,0,0,1,1.52.58c1.55.7,1.82,2.23.64,3.56a5,5,0,0,1-.76.77A24.61,24.61,0,0,1,487.29,457Z" transform="translate(-6.49 -181.77)"/><path class="cls-90" d="M365.28,505.34c1.34,1.34,3.06.92,4.66,1,.73.05,1.47,0,2.19.05,2.08.15,2.93.93,2.78,2.52a2.82,2.82,0,0,1-3.36,2.74,40.9,40.9,0,0,1-6.43-1.18c-3.48-1-6.9-2.27-10.32-3.5-1.16-.41-1.47-1.53-1.67-2.64A34.55,34.55,0,0,1,365.28,505.34Z" transform="translate(-6.49 -181.77)"/><path class="cls-87" d="M484.42,489.32a3,3,0,0,1,3.76,1.38,1.18,1.18,0,0,1-.32,1.85c-1.25.69-2.6,1.2-3.84,1.91a2,2,0,0,1-2.48.09,3.38,3.38,0,0,1-.78-4,2.16,2.16,0,0,1,2.08-1.44C483.38,489.15,483.91,489.27,484.42,489.32Z" transform="translate(-6.49 -181.77)"/><path class="cls-58" d="M503.12,442.74a18.17,18.17,0,0,1,2.65.71c1,.4,2,1,1.74,2.33-.15.93-1.28,1.5-2.59,1.2-1-.24-2-.59-3.05-.93s-2.28-.58-1.86-2C500.36,442.81,501.62,442.85,503.12,442.74Z" transform="translate(-6.49 -181.77)"/><path class="cls-63" d="M348.77,505.15c.51,1.31,1.34,2.57.88,4.08a1.22,1.22,0,0,1-.6.77,1,1,0,0,1-.92-.23,10.32,10.32,0,0,1-2.41-5.24c0-.4.49-.86.76-1.29C347.25,503.87,348,504.51,348.77,505.15Z" transform="translate(-6.49 -181.77)"/><path class="cls-58" d="M503,478.17a4.51,4.51,0,0,1,0-.82c0-.08.25-.19.39-.19.4,0,.61.27.4.59S503.23,478,503,478.17Z" transform="translate(-6.49 -181.77)"/><path class="cls-28" d="M482.57,441.73a6.08,6.08,0,0,1,3.25-.17C484.8,443,483.7,442.68,482.57,441.73Z" transform="translate(-6.49 -181.77)"/><path class="cls-58" d="M347.69,500.89l-.79-.76Z" transform="translate(-6.49 -181.77)"/><path class="cls-38" d="M123.81,222.25l2.24.11c-.85,1.2-2.09,1.13-3.34,1-.21-.24-.27-.46-.16-.65s.2-.27.29-.27Z" transform="translate(-6.49 -181.77)"/><path class="cls-38" d="M120.62,223.53a3.2,3.2,0,0,1,1.07,0c0,.33,0,.66,0,1l-1.11-.09c-.22-.22-.27-.43-.17-.61S120.54,223.53,120.62,223.53Z" transform="translate(-6.49 -181.77)"/><path class="cls-39" d="M122.84,222.45c0,.3-.09.61-.13.92l-.52,0-.52-.06Z" transform="translate(-6.49 -181.77)"/><path class="cls-39" d="M120.62,223.53a8.75,8.75,0,0,0-.09.88,1.9,1.9,0,0,1-1,.17Z" transform="translate(-6.49 -181.77)"/><path class="cls-49" d="M130.43,518.35l-8,0a3.7,3.7,0,0,1-2.92-1l8,0A3.6,3.6,0,0,1,130.43,518.35Z" transform="translate(-6.49 -181.77)"/><path class="cls-86" d="M29.57,528.29c-.06-.89-.24-1.83.51-2.52,1.81-1.66,1.92-1.74.69-3a3.87,3.87,0,0,1-1.2-2.88c0-4.87,0-9.74,0-14.5,1.27-.6,1.92.13,2.55.73a4.93,4.93,0,0,0,4,1.26l0,0c.54.71,1.55.42,2.13,1,4.8,2.38,10,3.35,15.2,4.39,7.31,1.48,14.62,3.07,22,4.1,4.31.61,8.7,1.06,13,1.66,5.23.73,10.55.46,15.74,1.68,2.09.49,4.36.25,6.55.34.63.33,1.28,1,1.88.94,5-.42,9.1,2.38,13.59,3.72,2.31.68,2.56,3.29.53,4.68a51.48,51.48,0,0,1-7.05,4.15,59.61,59.61,0,0,1-17.19,5.12,11.29,11.29,0,0,0-2.65.58c-1,.39-2.18.61-2.45,1.9-.15.76,1.24,1.73,3,1.8,3.28.12,6.57.06,9.86.09,1.64,0,3.28.07,4.92.14a1.09,1.09,0,0,1,1.19.84c.15.76-.47,1-1,1-2,0-4.09.32-6-.15a33,33,0,0,0-8.14-.73c-5.66,0-11.32,0-17,0-5-.45-10.06-.88-15.08-1.38-.48,0-.91-.52-1.37-.8,1.29-1.69,3-.65,4.53-.75a93.54,93.54,0,0,1-31.61-6.3C36.54,533.89,32.53,531.92,29.57,528.29Z" transform="translate(-6.49 -181.77)"/><path class="cls-91" d="M29.57,528.29c.53.13,1.2.1,1.56.42,5.25,4.68,11.92,6.18,18.37,8.09,4.52,1.33,9.17,2.28,13.8,3.21,2.66.53,5.42.57,8.1,1,1,.17,2.21.06,3.12,1.18l-6.62.34-1.06-.13c-2.43-1.3-5.25.35-7.68-1h0c-1.66-1.3-3.81.09-5.51-1l-1-.13c-1.63-1.31-3.82.2-5.47-1.08h0c-1.22-1.22-3.1.11-4.32-1.12h-.05a5,5,0,0,0-1.25-.92,32.13,32.13,0,0,1-11.87-6.79Z" transform="translate(-6.49 -181.77)"/><path class="cls-86" d="M59.16,541.44c2.62-.09,5.32-.79,7.68,1C64.21,542.65,61.55,543.07,59.16,541.44Z" transform="translate(-6.49 -181.77)"/><path class="cls-86" d="M53.61,540.45c1.93-.23,3.9-.59,5.51,1C57.19,541.62,55.26,541.83,53.61,540.45Z" transform="translate(-6.49 -181.77)"/><path class="cls-86" d="M47.09,539.24c1.92-.09,3.86-.36,5.47,1.08C50.64,540.45,48.69,540.73,47.09,539.24Z" transform="translate(-6.49 -181.77)"/><path class="cls-86" d="M42.74,538.11c1.57-.14,3.13-.21,4.32,1.12C45.48,539.4,43.91,539.51,42.74,538.11Z" transform="translate(-6.49 -181.77)"/><path class="cls-83" d="M38.27,508.45a2.16,2.16,0,0,1-2.13-1A2.38,2.38,0,0,1,38.27,508.45Z" transform="translate(-6.49 -181.77)"/></svg>