<svg id="Layer_1" data-name="Layer 1" xmlns="http://www.w3.org/2000/svg" viewBox="0 0 583.4 380.04"><defs><style>.cls-1{fill:#4e9aa6;}.cls-2{fill:#e23759;}.cls-3{fill:#fff;}.cls-4{fill:#d7dadf;}.cls-5{fill:#297579;}.cls-6{fill:#bc2448;}.cls-7{fill:#2e2734;}.cls-8{fill:#36848b;}.cls-9{fill:#e33858;}.cls-10{fill:#e33859;}.cls-11{fill:#fefefe;}.cls-12{fill:#fdd97e;}.cls-13{fill:#d9dce1;}.cls-14{fill:#f8f9f8;}.cls-15{fill:#fad87f;}.cls-16{fill:#fed97e;}.cls-17{fill:#c1e1f5;}.cls-18{fill:#e2724c;}.cls-19{fill:#b4d9f0;}.cls-20{fill:#b0d9f3;}.cls-21{fill:#d72d54;}.cls-22{fill:#3e8a93;}.cls-23{fill:#e6e8df;}.cls-24{fill:#e2e6dd;}.cls-25{fill:#dde3dc;}.cls-26{fill:#e1e5dd;}.cls-27{fill:#e5e7de;}.cls-28{fill:#efede2;}.cls-29{fill:#ebebe1;}.cls-30{fill:#dee3dc;}.cls-31{fill:#2f2734;}.cls-32{fill:#2f2634;}.cls-33{fill:#fee19b;}.cls-34{fill:#ffedc2;}.cls-35{fill:#f4b393;}.cls-36{fill:#e96e50;}.cls-37{fill:#fffdf8;}.cls-38{fill:#fffefb;}.cls-39{fill:#e27358;}.cls-40{fill:#bb2548;}.cls-41{fill:#4f9aa6;}.cls-42{fill:#302834;}.cls-43{fill:#ebf4f9;}.cls-44{fill:#e27459;}.cls-45{fill:#41888e;}.cls-46{fill:#d6b873;}.cls-47{fill:#e4a88a;}.cls-48{fill:#483e3d;}.cls-49{fill:#e3784e;}.cls-50{fill:#b4b5b4;}.cls-51{fill:#358289;}.cls-52{fill:#f2ae86;}.cls-53{fill:#f1f7fb;}.cls-54{fill:#241f2b;}.cls-55{fill:#352f3b;}.cls-56{fill:#f0f4f3;}.cls-57{fill:#baccbe;}.cls-58{fill:#b7d9ef;}.cls-59{fill:#e17358;}.cls-60{fill:#cfe7f7;}.cls-61{fill:#39868e;}.cls-62{fill:#fcd87f;}.cls-63{fill:#df5070;}.cls-64{fill:#fdd77d;}.cls-65{fill:#e23859;}.cls-66{fill:#bc2548;}.cls-67{fill:#fad780;}.cls-68{fill:#4e9198;}.cls-69{fill:#e07358;}.cls-70{fill:#dba286;}.cls-71{fill:#dca287;}.cls-72{fill:#725754;}.cls-73{fill:#e27359;}.cls-74{fill:#fdd87d;}.cls-75{fill:#b8cfce;}.cls-76{fill:#e9f2f8;}.cls-77{fill:#fcfdfd;}</style></defs><path class="cls-1" d="M311.13,586H288.26c-1.34-.79-1.27-2.23-1.47-3.47-.88-5.4-1.89-10.78-2.83-16.17-2-11.32-4.16-22.62-5.82-34a20.63,20.63,0,0,1,3.39-14.68c1.94-2.87,4.85-4,8.18-4.23,10.15-.6,20.24-1.8,30.37-2.68,9.5-.82,19-1.91,28.49-2.68a3.57,3.57,0,0,1,.8,0c9,.91,17.92,1.86,26.79,3.51,11.59,2.15,22.93,5.14,33.56,10.34,2.52,1.23,5.34,2.21,7,4.74-.34,2.17-2.27,2.85-3.75,3.85a78.4,78.4,0,0,1-18.91,8.95c-14.5,4.9-29.47,7.62-44.57,9.75-7.15,1-14.35,1.63-21.51,2.55-3.61.46-7.53-.33-10.86,1.87a29.8,29.8,0,0,1-7.76-.74c-2.05-.45-3.07-2.2-4.34-3.43.61.82,1.45,1.62,2.21,2.48,5.13,5.84,6.46,12.76,5.76,20.23-.35,3.71-.58,7.42-.82,11.14C312.15,584.38,312.23,585.44,311.13,586Z" transform="translate(-14.3 -205.98)"/><path class="cls-2" d="M521.55,520.81q-5.22,14.45-10.43,28.88c-2.42,6.71-4.63,13.51-7.37,20.09-1.88,4.51-2,9-1.53,13.69.08.85.18,1.7.27,2.55H471.22a21,21,0,0,1-2.41-11.21c.47-10.48,1.83-20.88,3.15-31.27q1.23-9.7,2.73-19.38a5.17,5.17,0,0,1,1.17-3.22c2.92-1.08,5.81.08,8.72.12,6.71.1,13.38,1,20.14.45,4.77-.4,9.58-.46,14.34-1A3.66,3.66,0,0,1,521.55,520.81Z" transform="translate(-14.3 -205.98)"/><path class="cls-3" d="M268.66,586h-70c-.3-1.06.56-1.55,1.12-2.12q12.58-12.64,25.23-25.24c.71-.7,1.4-1.49,2.58-1.33,8.63,2,17.27,4,26,5.35,3,.48,6,.87,9,1.46,1,.42,1.21,1.34,1.47,2.23,1.58,5.5,3.09,11,4.6,16.54C268.92,583.92,269.45,585,268.66,586Z" transform="translate(-14.3 -205.98)"/><path class="cls-3" d="M463.28,586H391.41c-.15-.18-.33-.43-.24-.62,1.6-3.14,3-6.4,5.83-8.76a42.66,42.66,0,0,1,6.14-1.29,200.42,200.42,0,0,0,43.47-14.3c5.8-2.64,11.45-5.55,17-8.64.89-.49,1.86-1.41,2.85-.1.8,3.43-.17,6.81-.39,10.19-.43,6.74-1.1,13.46-1.62,20.19C464.36,583.91,464.61,585.24,463.28,586Z" transform="translate(-14.3 -205.98)"/><path class="cls-4" d="M597.7,522.54c-3.65,1.75-6.67,4.46-10,6.68-14.42,9.64-29,19-42.93,29.41-5.7,4.25-11.25,8.71-16.55,13.48-4.91,4.42-9.55,9.09-14.06,13.91H503.89a233,233,0,0,1,17.25-17.61c19.53-18,42.23-31.63,64-46.56,3.83-2.63,7.57-5.38,11.33-8.1a2.14,2.14,0,0,1,1.25-.54Z" transform="translate(-14.3 -205.98)"/><path class="cls-3" d="M355.94,586H320a3.25,3.25,0,0,1-.44-2.88c.58-3.75.86-7.55,1.51-11.3.39-2.19-.49-4.29-.18-6.45,3.08-1.1,6.36-.92,9.53-1.49,1.66-.29,3.36-.36,5-.77a23.87,23.87,0,0,1,6.43,0c1,.27,1.41,1.13,1.92,1.91,3.92,6,7.64,12.2,11.49,18.28C355.78,584.11,356.65,584.89,355.94,586Z" transform="translate(-14.3 -205.98)"/><path class="cls-5" d="M147.85,561.4l-29.09-29c.3-1.24,1.35-1.09,2.21-1.12a32.6,32.6,0,0,1,5.5.09c1.22.24,1.95,1.19,2.77,2q11,11,22,22c1.4,1.47,2.85,2.88,4.29,4.3,2.3,2.35,4.63,4.65,7,7,1.52,1.58,3.09,3.11,4.64,4.66.51.53,1,1,1.57,1.56,3.59,3.6,7.21,7.17,10.78,10.8.66.67,1.67,1.19,1.44,2.42h-8.4c-2.67-1.63-4.47-4.18-6.75-6.22-.8-.84-1.61-1.65-2.44-2.44-1.8-1.91-4.11-3.28-5.69-5.4a42.74,42.74,0,0,0-5.76-5.81C150.72,564.42,148.84,563.29,147.85,561.4Z" transform="translate(-14.3 -205.98)"/><path class="cls-5" d="M227,557.58q-11.64,11.53-23.27,23.08a38.32,38.32,0,0,0-5.06,5.36h-8.41c0-1.78,1.69-2.3,2.49-3.49.69-.65,1.36-1.33,2-2q12.33-12.33,24.64-24.67c7.49-7.43,14.91-14.92,22.38-22.36a6.46,6.46,0,0,1,2.74-2.1,30,30,0,0,1,7.21,0c.62.21.87.59.55,1.24a6.42,6.42,0,0,1-1.32,1.61q-11,11-21.91,21.91C228.46,556.76,227.93,557.48,227,557.58Z" transform="translate(-14.3 -205.98)"/><path class="cls-3" d="M129.11,586H103.44c-2.41-3.75-1.69-9.62,1.78-13.56,4.06-4.6,9-6.81,15.15-4.86s9.53,6.36,10.2,12.76C130.79,582.38,130.64,584.4,129.11,586Z" transform="translate(-14.3 -205.98)"/><path class="cls-3" d="M66.11,586H40.44c-2.21-4.4-1.36-8.64,1.05-12.56A14.24,14.24,0,0,1,58,567.66a14.39,14.39,0,0,1,9.61,14.65C67.51,583.67,67.51,585.15,66.11,586Z" transform="translate(-14.3 -205.98)"/><path class="cls-6" d="M463.28,586a108,108,0,0,0,1.15-12c.58-7.43,1.49-14.83,1.67-22.29-.6-.67-.36-1.46-.32-2.22.49-8.66,1.5-17.28,2-25.94a6.86,6.86,0,0,1,.89-3.33,7.18,7.18,0,0,1,7.19.94c-1.68,10.34-3,20.74-4.27,31.14-1,7.59-1.6,15.2-2.2,22.81-.26,3.26,1,6.38,1.59,9.56.09.45.14.91.21,1.37Z" transform="translate(-14.3 -205.98)"/><path class="cls-4" d="M58.66,328.81c-2.41-.41-4.62.63-6.91,1-12.32,2.05-24.53,2.34-36.53-1.82a3.47,3.47,0,0,0-.92-.08V320c3.85,1.07,7.62,2.44,11.6,3a78.26,78.26,0,0,0,17.31.41c6.41-.5,12.55-2.29,18.84-3.39a1.59,1.59,0,0,1,.1,1.55c-.78,2.11-1.62,4.19-2.38,6.31C59.6,328.36,59.4,329,58.66,328.81Z" transform="translate(-14.3 -205.98)"/><path class="cls-7" d="M268.66,586c-1.26-6.24-3.32-12.27-4.93-18.42-.27-1-.64-2-1-3.05-.81-.41-.87-1.23-1.08-2-2.56-9-5-18-7.55-27-.35-1.25-1.23-2.59-.19-4a11,11,0,0,1,6.08-.05c1,.6,1.07,1.66,1.34,2.61,2.92,10.4,5.73,20.83,8.74,31.21,1.44,5.87,3.23,11.65,4.77,17.5.28,1,.8,2,.32,3.16Z" transform="translate(-14.3 -205.98)"/><path class="cls-3" d="M384.41,586H362.94c-2.92-3.54-5-7.66-7.49-11.46-.73-1.1-1.47-2.19-2.09-3.35-.42-.8-1-1.7.2-2.4,4.28-.2,8.51-1.22,12.82-.85.8.54.35,1.22.19,1.86-.63,2.44-.27,3.48,1.94,4.81,3.27,2,7,2.23,10.66,2.88,3.24.59,6.46-.45,9.65.26.63.41.4,1,.14,1.4C387.57,581.54,386.35,584,384.41,586Z" transform="translate(-14.3 -205.98)"/><path class="cls-3" d="M193,582.77c-.67,1.28-2.16,1.88-2.72,3.25h-9.33l-12.67-12.95c.42-2.64,2.7-3.54,4.62-4.53,9-4.64,20,1.31,20.66,12.53A2,2,0,0,1,193,582.77Z" transform="translate(-14.3 -205.98)"/><path class="cls-3" d="M275.2,586c-1.94-6.82-4-13.6-5.6-20.52,1.5-1.2,3.14-.21,4.71-.25,2.7-.08,5.37.61,8.09.49a2.49,2.49,0,0,1,2.11.77c.94,5.08,1.87,10.16,2.83,15.23a17,17,0,0,0,.92,4.28Z" transform="translate(-14.3 -205.98)"/><path class="cls-8" d="M321,565.6c1.68,3.56.41,7.17.13,10.75-.26,3.24-1.14,6.4-1.17,9.67h-8.87c1.08-2.42.58-5,.79-7.54.45-5.35,1.22-10.77.13-16.15-.72-3.59-2.74-6.52-4.84-9.39-1.21-1.65-2.5-3.24-3.64-5,2.24,1.08,3.35,3.57,5.71,4.46,4.64,2.85,8.1,6.9,11.25,11.24A2,2,0,0,1,321,565.6Z" transform="translate(-14.3 -205.98)"/><path class="cls-9" d="M384.41,586c1-2.92,3.27-5.13,4.51-7.93a2.45,2.45,0,0,1,.61-1.94q3.54-5.61,7-11.26a3.48,3.48,0,0,1,1.81-1.73,17.59,17.59,0,0,1,6.14,0,1,1,0,0,1,.52,1.53c-2.63,4.14-4.71,8.65-8.09,12.3a56.41,56.41,0,0,0-5.54,9Z" transform="translate(-14.3 -205.98)"/><path class="cls-10" d="M352.92,569.26q4.56,7.37,9.09,14.73c.38.63,1.07,1.15.93,2h-7c-.53-2.07-2-3.62-3.06-5.38-3.44-5.67-7-11.29-10.49-16.92,2-1.41,4.23-.68,6.38-.62C351.11,564.5,352.15,566.79,352.92,569.26Z" transform="translate(-14.3 -205.98)"/><path class="cls-11" d="M152.09,566c2.37,1.46,4,3.7,5.94,5.64a1.41,1.41,0,0,1-.1,1.72q-3.59,5.86-6.71,12a3.72,3.72,0,0,1-.64.68h-8.86c-.32-1.8.87-3.1,1.63-4.46,2.61-4.6,4.73-9.45,7.43-14C151.13,567,151.35,566.27,152.09,566Z" transform="translate(-14.3 -205.98)"/><path class="cls-7" d="M152.09,566q-5.19,10-10.37,20h-6.54c2.36-5.53,5.49-10.66,8.17-16,1.45-2.89,3-5.73,4.5-8.6C149.39,562.82,151.16,564,152.09,566Z" transform="translate(-14.3 -205.98)"/><path class="cls-12" d="M66.11,586a13.59,13.59,0,1,0-25.89-8,18.65,18.65,0,0,0,.22,8H38.1c-.87-4.71-.68-9.22,2-13.44A15.82,15.82,0,0,1,68.93,578a14.83,14.83,0,0,1-.49,8Z" transform="translate(-14.3 -205.98)"/><path class="cls-12" d="M129.11,586a13.77,13.77,0,0,0-11-18.4c-6.47-1-13.45,3.82-15.1,10.63-.66,2.7,0,5.2.46,7.77h-2.33c-1.34-6.33-.39-12.06,4.65-16.56a14.93,14.93,0,0,1,16.44-2.92c6,2.43,9.46,7.07,9.8,13.73a16.68,16.68,0,0,1-.55,5.75Z" transform="translate(-14.3 -205.98)"/><path class="cls-13" d="M150.58,586c1.56-4.42,4.12-8.31,6.49-12.29a5.27,5.27,0,0,0,1-2.08l5.74,5.72a19.59,19.59,0,0,1,.35,8.65Z" transform="translate(-14.3 -205.98)"/><path class="cls-14" d="M165.82,579.43l6.7,6.59h-6.07C164.67,583.72,164.43,581.23,165.82,579.43Z" transform="translate(-14.3 -205.98)"/><path class="cls-15" d="M165.82,579.43c-.74,2.28.12,4.42.63,6.59h-2.33a24.67,24.67,0,0,1-.35-8.65Z" transform="translate(-14.3 -205.98)"/><path class="cls-16" d="M376,230.38a201.22,201.22,0,0,1,24.12-7.68,113.35,113.35,0,0,1,32.81-3,90.92,90.92,0,0,1,55,22.45c8.52,7.38,17,14.81,23.08,24.53a14.75,14.75,0,0,1,1.59,2.57c1.33,3.67,3.79,4.7,7.66,4.5,7-.37,14-.06,21-.14,1.71,0,2.28.43,2.27,2.21,0,5.34,0,5.34-5.37,5.34H519.09c.12,1.77,1,3.14,1.58,4.59.42,1.09,1.47.66,2.25.66,9.73,0,19.45.07,29.17,0,2,0,2.73.45,2.69,2.58-.11,5.25,0,5.25-5.24,5.25-7.93,0-15.87,0-23.8,0-1.7,0-2.21.19-1.78,2.13.55,2.52,1.64,3.26,4.22,3.23,11.82-.16,23.65,0,35.47-.11,1.81,0,2.39.45,2.36,2.32-.09,5.5,0,5.5-5.45,5.5-10.42,0-20.84,0-31.27,0-.84,0-2.43-.86-2.43,1.08,0,3.33.53,4.12,2.62,4.12,15,0,30,.05,45,0,2.13,0,2.77.53,2.7,2.68-.15,4.9,0,4.91-4.89,4.91-13.69,0-27.38,0-41.06,0-2.07,0-2.65.26-2.44,2.68a179.81,179.81,0,0,1,.89,25.11c-.31,6-.48,11.94-1,17.9a271.39,271.39,0,0,1-5.86,36q-2.24,9.65-5.36,19a7.18,7.18,0,0,1-1.38,2.91,1.78,1.78,0,0,1-.66-1.65c.18-3.81-.37-7.59-.58-11.38-.5-8.88-.07-17.84-1.81-26.63-1.81-9.07-5.83-16.82-14-21.82-.87-.53-1.77-1-2.11-2.05a24.33,24.33,0,0,1,1-10.88c.2-.24.39-.44.76-.29.11,0,.27.38.25.16-.13-1.36.56-2.58.57-3.9a75.5,75.5,0,0,0,1.25-11.46,64,64,0,0,0-1-12.86c-.18-1-.73-2.09.22-3a9.08,9.08,0,0,1,4.13-.44h66.24a13.92,13.92,0,0,0,3-.16,1,1,0,0,0,.91-.89c.06-.7-.4-.95-1-1.06a14.5,14.5,0,0,0-2.79-.13H503.3a17.43,17.43,0,0,1-3.95-.2,2.41,2.41,0,0,1-1.59-1.53c-.85-2.13-1.69-4.26-2.62-6.37-.3-.68-.61-1.48.41-1.94a11.88,11.88,0,0,1,3.94-.3H559a20,20,0,0,0,2.79-.09c.76-.1,1.37-.36,1.39-1.26s-.57-1.19-1.33-1.28a20.06,20.06,0,0,0-2.57-.08c-21.92,0-43.85,0-65.77,0a1.87,1.87,0,0,1-1.87-.7c-2.06-3-5-5.11-7.55-7.56-.62-.58-1.44-1.29.07-1.85a16.88,16.88,0,0,1,3.95-.21h60a14.5,14.5,0,0,0,2.79-.13c.58-.11,1-.35,1.08-1a1.19,1.19,0,0,0-1-1.36,13.11,13.11,0,0,0-3.25-.2q-33.12,0-66.25,0a34.36,34.36,0,0,0-4.65,0c-1.38.09-2.56-.58-3.8-1a41.21,41.21,0,0,0-24.93-.9c-1.93.55-3.58,1.92-5.69,1.88q-31.25,0-62.47,0H361a16.51,16.51,0,0,0-2.33.09c-.77.11-1.34.4-1.32,1.31s.67,1.13,1.41,1.23a21.62,21.62,0,0,0,2.79.08h70.86a17.31,17.31,0,0,1,3.94.19c.84.26,1.24.87.61,1.53-2.39,2.5-4.32,5.36-6.45,8.07a1.75,1.75,0,0,1-1.06.42,26.22,26.22,0,0,1-4,.13H372.55a16.24,16.24,0,0,0-2.79.11c-.67.11-1.18.38-1.21,1.17s.48,1.23,1.27,1.34a20.16,20.16,0,0,0,2.8.09h51.77a10.85,10.85,0,0,1,3.93.33c.19.12.49.22.48.45a18.65,18.65,0,0,1-2.69,9.22,11.08,11.08,0,0,1-3.93.34c-13.06,0-26.11,0-39.17,0-1.12,0-3-.58-3.05,1.08s1.92,1.11,3,1.11c13,.06,26,0,38.94,0a8.23,8.23,0,0,1,3.9.46,1.58,1.58,0,0,1,.6,1.43c-.09,3.93.1,7.86.28,11.79-.18-6.36-.92-12.75,1-19,1.28.27,1.19,1.16,1.28,1.88a52.24,52.24,0,0,1,.53,7c0,11.35,0,22.71,0,34.07,0,10.18,1.81,19.9,6.67,29,2.85,5.37,3.53,11.42,4.38,17.35,1.61,11.23,2.27,22.58,3.77,33.84a4.41,4.41,0,0,1-.12,1.84c-.46,1.19-1.38.8-2.14.52a11.8,11.8,0,0,1-7.14-6.23,30.1,30.1,0,0,0-2.23-3.5,4.59,4.59,0,0,1-.33-1.42c-.51-2.39-2.38-3.26-4.44-3.46a41.08,41.08,0,0,0-8.37,0c-2.08.23-3.86,1.23-4.24,3.65-.81,3.06.52,6,.41,9a15.33,15.33,0,0,0-1.26,7,9.91,9.91,0,0,0,2.54,6.58c.69,2.06,2.17,2.81,4.27,2.69a28.35,28.35,0,0,1,3.91,0c2.26.2,4.24-.22,5.77-2,5,.23,10.05-.18,15.05.33,1.2.48,1.3,1.65,1.58,2.66a40.74,40.74,0,0,0,5.07,11.63,14.77,14.77,0,0,0,8.53,6.36c.73.21,1.55.29,2,1,.77,1.71,0,3.39-.19,5.05a236.32,236.32,0,0,1-4.61,26.8,4.22,4.22,0,0,1-.47,1.3c-3.14,3.13-6.63,5.86-10.05,8.65a227.54,227.54,0,0,1-21.74,15.65c-.74.47-1.52,1.58-2.58.39.88-2.14.4-4.17-.27-6.3-5.86-18.6-9-37.74-11.51-57-1.54-11.93-2.5-23.93-4.22-35.83a62.93,62.93,0,0,0-32.67-46.76c-1.72-.9-3.46-1.75-5.2-2.61a7.18,7.18,0,0,0-2.32-1c-3.76-.54-6.23-2.87-8.28-5.81-.7-1-1.48-1.81-2.83-1.7-1.08-.17-1.48-1-1.84-1.87a83.47,83.47,0,0,1-3.67-9.42,3.19,3.19,0,0,1-.15-1.44c1.22-1.88,3-3.32,4-5.37,3.74-7.32,4.33-15,2.7-22.91A51.48,51.48,0,0,0,346.2,308.8a21.39,21.39,0,0,0-12.46-7.64c-2.48-.5-4.76.61-7.16.47-1.11-.89-.24-1.22.46-1.54a12.7,12.7,0,0,1,9.5-.33,12.8,12.8,0,0,0,3.36,1.05s-.37-.4-.32-.1c0,.09-.06.12-.22.06-3.49-1.39-7-2.49-10.82-1.29a5.19,5.19,0,0,0-3.22,2.09c-1.85.67-1.58-.61-1.33-1.57a28.33,28.33,0,0,1,3-6.55c.43-.77,2-1.61.66-2.63a3.11,3.11,0,0,0-4.71,1.21,22.41,22.41,0,0,0-.91,5c0,.39,0,.78,0,1.17-.07.76.11,1.81-.73,2s-1.22-.8-1.61-1.42a20.62,20.62,0,0,0-7.41-7.26c-7.7-4.29-14.72-2.12-21.41,2.41a19.28,19.28,0,0,0-7.45,8.75c-1.69,4.18-1.18,8.21.5,12.22a27.51,27.51,0,0,1,1.24,2.77c.13.45.24,1-.25,1.26s-.88-.11-1.21-.47a17,17,0,0,1-3.6-6.73,14.65,14.65,0,0,1-.27-8.31c-1.49,4.18.22,11.62,4.71,15.94a9.15,9.15,0,0,1,.88.77c.24.29.6.56.47,1s-.66.6-1.12.64c-1,.09-2-.25-3-.14-6.09.67-12.05,5.94-13.51,12-1.54,6.38,2.55,11.35,9.67,11.81a36.32,36.32,0,0,0,17.75-3,4.24,4.24,0,0,1,2-.53c.67.1,1.15.39,1.13,1.17-1.94,2.21-4.78,2.52-6.74,3.51a36.43,36.43,0,0,0,4.6-1.85c.66-.28,1.27-1,2.12-.41,1.25,5.29,3.73,10.17,5.07,15.43,0,2.79,0,5.57,0,8.35.06,4.29.85,5.21,5.08,6,.6.12,1.22.2,1.82.35,1.08.26,1.59,1.17,2.19,2a70.21,70.21,0,0,0,5.76,7,4.49,4.49,0,0,0,5.48,1.11,54.69,54.69,0,0,0,5.32-2.91c.72-.4,1.39-1.08,2.34-.55a3,3,0,0,1,.57,2.71,5.25,5.25,0,0,0-1.1,3.68c.21,3.68-1.18,7.12-1.84,10.71,1,.1,1.6-.89,2.51-.52.75.88,0,1.63-.32,2.31-6.53,12.26-13.33,24.34-22.76,34.69a5.9,5.9,0,0,1-2.33,1.87,24.2,24.2,0,0,1-9.19-2,2.54,2.54,0,0,1-.33-1.55c.11-1.15-.43-1.69-1.53-1.89-2-.35-3.94-.73-5.9-1.19a2.1,2.1,0,0,0-2.63,1.26c-1.42,1.13-2.47.28-3.4-.7a8.07,8.07,0,0,1-1.73-3.5c-.86-3.21-1.52-6.47-2.32-9.69a2.33,2.33,0,0,1,.34-2.4c3.23-1,6.57-.9,9.9-1,1.28,0,3.24.47,3.13-1.68s-1.92-1.19-3.11-1.19c-3.41,0-6.83.21-10.23-.13a3,3,0,0,1-1.29-.9c-1.58-1.47-1.73-1.43-3,.5a1.38,1.38,0,0,1-.68.23,38.76,38.76,0,0,0-8.33-.64,8.9,8.9,0,0,0-4.66,1.19,14.71,14.71,0,0,1-7.18.54,3.65,3.65,0,0,1-2.13-2.33,6.9,6.9,0,0,0-5.4-4,76.65,76.65,0,0,0-12-1.61c-2-.57-3-2.31-4.39-3.59s-2.63-2.58-3.91-3.9a2.88,2.88,0,0,1-1.12-2.41c1.16-10.1,2.69-20.15,4-30.24.71-5.77,1.7-11.51,2.17-17.32,1.05-8.17,2.22-16.33,3.28-24.5,1.16-8.94,2.46-17.87,3.54-26.82-.75-3.88-1.82-7.68-2.89-11.48a3.84,3.84,0,0,0-2.39-2.35c-1.09-.54-2.42-.71-3.11-1.91-.17-3.82-2.64-5.38-5.94-6.37-1.47-.44-3.27-.68-4-2.48a22.26,22.26,0,0,1,.67-8.4c1-1.14,2.28-.69,3.48-.52,11.84,1.7,23.59,3.94,35.38,6a99,99,0,0,0,18.06,1.55,116.16,116.16,0,0,0,45.1-9.27,113,113,0,0,0,24.75-14.72c6-4.71,12.83-8.17,19.69-11.48C370.12,232.62,372.78,230.81,376,230.38Z" transform="translate(-14.3 -205.98)"/><path class="cls-16" d="M58.66,328.81,62.05,320c3.1-6.32,6-12.72,9.53-18.86,7-12.38,16.24-22.6,28.92-29.45a103.32,103.32,0,0,1,16.83-7.23c.86.48,1,1.37,1.13,2.19,2.62,12,5.2,24,7.9,35.93a5.28,5.28,0,0,1-2,5.92,19.15,19.15,0,0,0-2.71,2.54c-.76.88-.81,1.53,0,2.37,2.73,2.65,5.46,5.3,8.06,8.08,1.51,1.62,2.47,0,3.66-.3,1.14.11,1.75,1,2.39,1.73,6,6.88,12.23,13.62,18.33,20.45q7,7.89,14.16,15.75,7.65,8.46,15.25,17,7,7.78,14,15.56c6.1,6.72,12.08,13.55,18.22,20.24.83.91,2,1.83,1.69,3.4-1.73,2.69-1.77,2.73.62,4.94a5.37,5.37,0,0,1,1.56,4.82,8.16,8.16,0,0,1-1.15,2.53c-5.87,11.54-12,23-18,34.45-1.88,3.65-3.88,7.25-5.69,10.94a3.27,3.27,0,0,1-1.28,1.61c-1,0-1.44.71-1.91,1.47a49,49,0,0,0-3.74,7.5c-.25.62-.41,1.6-1.19,1.55s-1-1.11-1.08-1.83c-.36-2.13-.27-4.29-.51-6.11-.39,1.29-1.23,2.79-1.16,4.63.05,1.34-1.52,1.48-2.35,1.89s-1.3-.83-1.54-1.61c-1-3-2.27-5.94-2.74-9.11a7.56,7.56,0,0,1,.17,1.34c-.77,2.66.55,5.28.12,7.93a1.47,1.47,0,0,1-2.13,1c-1.94-1.39-2.47-3.65-3.4-5.48-.17-.43-.35.12-.13-.1.77,2,1.93,3.88,1.79,6.15a4.77,4.77,0,0,1-3,2.14c-1.46-.06-2.33-1.29-3.57-1.84.95.92,2,1.72,2,3.23-.28,1.58-1.53,2.65-2.1,4.09a12.84,12.84,0,0,0,4.66,15.38,5.8,5.8,0,0,1,2.76,5.45,25.37,25.37,0,0,0-3.15,5.43,5.06,5.06,0,0,1-1.58,2.26,4.4,4.4,0,0,1-2.24.49c-6,0-12,0-18,0a4.86,4.86,0,0,1-1.81-.31c-1.16-.85-.54-2-.39-3,.87-5.57,1.93-11.11,2.85-16.67a8.54,8.54,0,0,0,.12-3.45c-.24-1.37.41-2.54.9-3.73,1.2-2.9,2.18-5.89,3.6-8.7.84-1.3,1.8-2.52,2.64-3.82,3.78-5.91,2-12.06-4.54-15.33a10,10,0,0,1-2.8,11.08,4.31,4.31,0,0,0-1.16,3.86c.06.51.27,1.23-.35,1.44-.77.26-1-.49-1.28-1s-.25-1.37-1-2.06c-1.06,2.28-2.64,4.21-3,6.72-.49,3-.6,6-.9,9a4.88,4.88,0,0,1-.52,2.46c-1.31,1-2.84.6-4.28.61-1.65,0-2.19.66-1.95,2.3.84,5.6,1.75,11.19,2.57,16.8.16,1.06.55,2.14-.11,3.17a2.44,2.44,0,0,1-3.46-.39c-3.79-2.43-7.61-4.83-11.37-7.31a3.41,3.41,0,0,0-3-.54c-10.73,2.78-20.24-5.93-19.63-15.53a3.18,3.18,0,0,0-1.29-2.76C79,474.51,63.39,452.59,55.15,425.89A140.42,140.42,0,0,1,49.24,393c-1.34-21.85,2.17-42.95,9.34-63.52A4.06,4.06,0,0,0,58.66,328.81Z" transform="translate(-14.3 -205.98)"/><path class="cls-16" d="M114.87,253.17A77,77,0,0,0,87.49,266.6a70.75,70.75,0,0,0-18.19,21c-2.24,3.82-4.65,7.54-8.3,10.23-4.24,3.13-8.39,2.42-11.34-2a26.2,26.2,0,0,1-4-12C43.63,265,48.2,247.94,59,232.5a64,64,0,0,1,15.61-15.15,2.11,2.11,0,0,1,2.15-.5c7.87,1.25,15.76,2.39,23.64,3.62a4.64,4.64,0,0,1,1.53.53c2,1.7,4.52,3.08,4.61,6.26,0,.86.69,1.34,1.54,1.5s1.56.08,2.15.72c2,7.22,3.36,14.6,5,21.93A1.9,1.9,0,0,1,114.87,253.17Z" transform="translate(-14.3 -205.98)"/><path class="cls-16" d="M519.34,447.47c3.23-4.78,5.38-10.1,7.89-15.25,5.16-10.57,7.47-22,9.82-33.35,1.14-5.55,2.52-11.05,5.23-16.09,1.64-3.06,3.69-5.76,7-7.27,3.66-1.69,6.24-.93,8.28,2.53,1.78,3,2.39,6.36,2.83,9.75,1.65,12.66-.07,25-2.89,37.37-5.63,24.67-15,47.77-29.21,68.78a1.82,1.82,0,0,0-.16.43c-1.53-.14-1.32-1.52-1.59-2.43a271.65,271.65,0,0,1-7.83-36.35c-.07-.46-.2-.91-.25-1.38C518.87,452,518,449.57,519.34,447.47Z" transform="translate(-14.3 -205.98)"/><path class="cls-4" d="M376,230.38l-8.35,3.74a5.86,5.86,0,0,1-2.43-1.33,106.77,106.77,0,0,0-49.7-18,139.78,139.78,0,0,0-46.29,3.3,225.09,225.09,0,0,0-44.6,15.65,5.7,5.7,0,0,1-1.74.64,12.25,12.25,0,0,0-6.08.38,11.34,11.34,0,0,1-9.35-1.53c6.21-3.71,12.87-6.51,19.45-9.45a210.14,210.14,0,0,1,55.9-16.38,147.2,147.2,0,0,1,28.28-1.18A115,115,0,0,1,359.79,220,159.9,159.9,0,0,1,376,230.38Z" transform="translate(-14.3 -205.98)"/><path class="cls-16" d="M81.06,214A55.84,55.84,0,0,1,100,208a132.35,132.35,0,0,1,24.6-1.43c13.61.52,26.84,2.7,39,9.3,5.93,3.22,11.17,7.29,15,13-1.22,1-2.56.36-3.8.18-11.36-1.69-22.72-3.44-34.08-5.18-6.07-.92-12.15-1.71-18.18-2.83-2.36-1.58-4.87-3-5.33-6.25-.23-1.72-1.58-2.31-3.14-1.75a6.67,6.67,0,0,1-4.74,0c-1.71-.61-2.62.28-2.9,2-.23,1.41-.56,2.78-2.28,3.13-7-.77-13.92-2-20.87-3A2.61,2.61,0,0,1,81.06,214Z" transform="translate(-14.3 -205.98)"/><path class="cls-17" d="M518.94,454.29c1.21,6.44,2.35,12.9,3.64,19.33s2.95,12.79,4.74,19.11a11.07,11.07,0,0,0,.77,1.64c1.11,5.65,3.37,10.94,5.17,16.37a48.12,48.12,0,0,0,2,5.21c.69,1.47,0,1.92-1.24,2.25a88.11,88.11,0,0,1-12.46,2.61,142.94,142.94,0,0,1-26.87,1.45c-6.27-.26-12.52-.74-18.78-1.12a34.8,34.8,0,0,0-7-.9c-1.87.73-3.63-.22-5.44-.37-1.16-.1-2.29-.39-3.44-.53-1.35-.32-2.73-.46-4.09-.74-1.61-.33-2.34-1.28-1.88-2.81,1.05-3.53,1.4-7.27,3.15-10.59,1.57-4.54,2.2-9.29,3.07-14a143.68,143.68,0,0,0,2.53-19.5,1.81,1.81,0,0,1-.44-1.05c.59-5.94-.12-11.9.48-17.83.39-.92.93-1,1.63-.32a5.29,5.29,0,0,1,.46,2.72c.54,16.05-1.74,31.79-5.27,47.39-.86,3.79-1.68,7.59-2.76,11.33-.59,2-.22,2.64,1.87,2.7,9.47.25,18.92.88,28.42.25,7.05-.46,14.12-.59,21.13-1.59a54.94,54.94,0,0,0,10.88-2.54c6.15-2.21,7.94-6,5.53-12-3-7.58-6.2-15.1-8.37-23-1.5-5.49-2.51-11.07-3.51-16.66a3.67,3.67,0,0,1,.12-2.29c.16-.26.38-.54.67-.57A6.53,6.53,0,0,0,518.94,454.29Z" transform="translate(-14.3 -205.98)"/><path class="cls-7" d="M121.81,220.4l46.17,7c3.52.53,7.05,1,10.57,1.51,9.61,1.59,19.22,3.18,28.89,4.32,2.66.46,5.32.92,8,1.36a2,2,0,0,0,1.72-.42c1.89-1.54,3.84-1.3,5.75,0,1.93,1.53,2.44,3.22,1.15,5.42a12.9,12.9,0,0,0-1.42,6.19c-.27,4.93-.46,9.86-.93,14.77a2.39,2.39,0,0,1-.56,1.49l-.6,8.89c-2.37.44-3.39-.17-4.28-2.53a41.37,41.37,0,0,1,.09-7c.44-4.15.46-8.32.77-12.48a27.43,27.43,0,0,1,.26-4.16,4.38,4.38,0,0,0-2.55-5.36c-4.74-1.14-9.6-1.49-14.39-2.3q-9.5-1.53-19-2.93-28.71-4.31-57.4-8.71c-1.52-.23-3.12-.19-4.48-1.09A4.58,4.58,0,0,1,121.81,220.4Z" transform="translate(-14.3 -205.98)"/><path class="cls-7" d="M114.87,253.17l-5.07-23.69c1.08-1.93,2.08-2,4.29-.37a6.93,6.93,0,0,1,1,2.82c1.34,6.62,2.89,13.19,4.26,19.8.69,3.7,1.65,7.34,2.41,11,2.66,12.62,5.49,25.2,8.19,37.73.31.1.45.07.57-.05,3.29-3.2,3.49-3.2,6.83.11,1.88,1.86,3.75,3.71,5.79,5.41,1.1.92,2.41,1.79,2.59,3.44a5.33,5.33,0,0,1-2.53,2.8c-1.56,0-2.48-1.14-3.48-2.08q-1.95-1.83-3.78-3.78c-1-1.09-1.92-1-2.94,0-1.67,1.72-3.36,3.44-5.1,5.08-1.06,1-.91,1.72,0,2.7,2,2.1,4.37,3.94,6.07,6.38a1,1,0,0,1-.26.92c-2.67,2.27-2.67,2.27-5.32-.37s-5-5.11-7.61-7.54c-1.08-1-1.1-1.67,0-2.5.31-.23.49-.64.81-.83,4.58-2.86,4.49-6.69,3.28-11.5-2.86-11.32-5.14-22.8-7.65-34.21Z" transform="translate(-14.3 -205.98)"/><path class="cls-18" d="M518.94,454.29c-.81,3.72-.81,3.72-5.7,4.39-1,.77-2.22.58-3.37.61-11.42.34-22.56-1.79-33.68-4-2.12-.42-4.34-.48-6.27-1.64-.37-.92.38-1,.93-1.15a9.53,9.53,0,0,1,3.24.05c11.47,1.06,22.94,1.88,34.44.65,5.85-.62,6.38-1.22,6.35-7.11-.06-9.49-2.66-18.42-6-27.18-.69-1.82-1.85-2-3.51-1.52-4.72,1.34-9.43,2.68-14.17,3.93a5.51,5.51,0,0,1-2.51.36c-1.61-.74-1.74-2.22-1.85-3.71.31-.94,1.17-1.21,1.95-1.5a137.63,137.63,0,0,1,20.44-5.4,2,2,0,0,1,1.14.15c1.57,1.61,1.79,3.84,2.6,5.79a64.3,64.3,0,0,1,2.3,7.21c.77,1.8.76,3.76,1.17,5.64.77,4.57,2.17,9,2.58,13.67.11,1.31.23,2.63.34,3.94C519.2,449.74,519.51,452,518.94,454.29Z" transform="translate(-14.3 -205.98)"/><path class="cls-7" d="M81.06,214l17.56,2.83c1.9.3,3.8.64,5.69,1-.36,1.45-1.57,2.37-2.28,3.61l-27.45-4.07c-5.89-.94-11.78-1.9-17.67-2.83-4.82-.76-9.63-1.63-14.47-2.17-1.89-.2-1.59-1.11-1.49-2.28.12-1.4.59-1.95,2.18-1.69,7.73,1.26,15.47,2.41,23.21,3.56C71.24,212.66,76.15,213.32,81.06,214Z" transform="translate(-14.3 -205.98)"/><path class="cls-19" d="M516.42,429.86c-.55-1.79-1.11-3.57-1.66-5.36-.69-8.5-.93-17-1.31-25.53-.33-7.33-.47-14.75-3.34-21.75-4-9.8-11-16-21.46-18.07a2.64,2.64,0,0,0-3.18,1.21c-4.26,7-10.48,12-17.22,16.42A13.3,13.3,0,0,0,463,383.1c-2.53,6.09-5.37,12-7.66,18.26-2.7,7.32-2.18,14.46.57,21.6,1.56,4.06,3.15,8.11,4.81,12.13.57,1.38,1.52,2.78.75,4.43a1,1,0,0,1-1.07.07c-3.55-7.77-7.23-15.53-8.76-24a28.51,28.51,0,0,1,1.68-15.35c2.7-7,5.88-13.86,8.91-20.76a5.75,5.75,0,0,1,1.81-2.39c6.35-4.3,12.64-8.66,17.45-14.78a23.6,23.6,0,0,0,2.31-3.48c.47-.9,1-1.78,2.1-2,4,.08,7.9.77,11.2,3.32a31.81,31.81,0,0,1,14,15.35,42.61,42.61,0,0,1,3.37,14.17c.67,11.31,1.06,22.63,1.56,33.95C516.8,425.67,516.42,427.77,516.42,429.86Z" transform="translate(-14.3 -205.98)"/><path class="cls-20" d="M134.65,519.41l3.26.21a12.34,12.34,0,0,0,9.65,0l20.59,0a2.58,2.58,0,0,0,1.78-.33,18.64,18.64,0,0,1,5.63-.09c1.66.65,3.25,1.57,5.15,1.29,1.7-.07,3.41-.11,5.1,0a12.76,12.76,0,0,0,6.5-1.29c6.63-.3,13.26-.27,19.89,0a6.32,6.32,0,0,1,1.88.92c4.34.45,8.69,1.19,12.86-.87,7.77-.42,15.53-.17,23.29-.14,2.19-.09,4.39,0,6.58-.19,2.72.18,5.44,0,8.16.16,2.33.1,2.9.66,3,2.94.1,2.56.11,5.13,0,7.69-.1,2.29-.66,2.85-3,2.91-1.6,0-3.28.36-4.76-.63H253.8a1.09,1.09,0,0,1-1.51,0h-8.45a6.25,6.25,0,0,1-3.37.69c-23.37,0-46.73,0-70.09,0-2.38-.12-4.76.07-7.14,0-1.79.06-3.57-.13-5.36,0-9,0-18,0-26.95,0a8.72,8.72,0,0,1-3.84-.71c-2.78.14-5.6-.62-8.33.42a4.28,4.28,0,0,0-2.7-.47c-5.59,0-11.18-.09-16.77,0-2,.05-2.55-.63-2.43-2.52a58,58,0,0,0,0-7.22c-.13-1.92.48-2.52,2.45-2.51,11,.09,21.9.05,32.86,0C133,519.7,133.88,520,134.65,519.41Z" transform="translate(-14.3 -205.98)"/><path class="cls-12" d="M53.59,480.52a15.82,15.82,0,0,1,15.72,15.7,16.13,16.13,0,0,1-15.82,16A16,16,0,0,1,37.63,496.1,15.59,15.59,0,0,1,53.59,480.52Z" transform="translate(-14.3 -205.98)"/><path class="cls-2" d="M332.17,397.91l-3.76,1.89c.4-1.61.73-3,1.1-4.37a28.36,28.36,0,0,0,1.27-9.15c-.06-1.1.1-2,1.28-2.4a5.39,5.39,0,0,1,2.25-1.55A196.2,196.2,0,0,0,353.76,373a12.1,12.1,0,0,1,2.64-.69c.52-.27,1-.8,1.61-.09a1.14,1.14,0,0,1,.15.17c2.56,4.41,6.55,6.85,11.33,8.21a54.54,54.54,0,0,1,17.07,16.6c5.37,7.92,9,16.68,11.87,25.75,4.76,15,7.22,30.53,8.59,46.21.84,9.59,1.41,19.19,1.42,28.83a8.56,8.56,0,0,1-5.2,8.36,23.28,23.28,0,0,1-14.08,2.09c-5.9-1-11.7-2.34-17.78-2.11A109.92,109.92,0,0,0,355,508.18a14.54,14.54,0,0,1-5.76.42l-.16,0-.15,0c-1.55-.89-1.58-2.4-1.54-3.88a20,20,0,0,1,1.45-6.57A38.33,38.33,0,0,0,351.09,484q0-8.14-.48-16.27c.11-1.69,1.05-2.47,2.64-2,7.22,2.12,14.6,3.64,21.75,6a8.68,8.68,0,0,1,2.11,2.74c2.25,3.58,5.15,4.54,9,3,1-.4.65-.91.21-1.41-2.57-2.9-3.36-6.54-4.44-10.11-2.48-8.18-5.27-16.24-10.77-23a7.93,7.93,0,0,0-7.23-3.36c-2,.18-4,.45-6,.69-1.74.22-3.07,1.06-3.28,3.05a1.45,1.45,0,0,1-.71,1.15,8.41,8.41,0,0,1-6.89-1c-1.15-3.08-1.53-6.37-2.61-9.47-1.08-5.43-3.41-10.43-5.42-15.54-2.37-6.06-4.61-12.17-5.18-18.73C333.67,398.72,333.4,397.91,332.17,397.91Z" transform="translate(-14.3 -205.98)"/><path class="cls-16" d="M351.2,467.49c.5,6,.68,12.05.61,18.1a37.28,37.28,0,0,1-2.16,12.26c-1.24,3.45-2.64,7-.75,10.76-5.63.6-11.25,1.23-16.89,1.78q-13.89,1.38-27.79,2.66c-4.64.43-9.28.89-13.93,1.06-5,.19-8.17,2.55-9.9,7.08-2,5.31-1.92,10.69-.84,16.23,1.82,9.28,3.32,18.61,4.94,27.93a6.39,6.39,0,0,1,0,1.16c-5,0-9.94-.59-14.91-1q-3.72-13.07-7.44-26.14c-.69-2.46-1.31-4.94-2-7.41.54,0,1.08-.07,1.62-.08,5.46,0,5.51,0,5.43-5.6,0-2.14,1-4.88-.46-6.25s-4-.26-6.06-.39c-1.38-.08-2.79.25-4.14-.29-.93-.52-1-1.5-1.29-2.38-5.7-20.18-11.21-40.41-16.9-60.59-2.14-7.62-4.22-15.26-6.37-22.89-.35-1.26-.91-2.5-.59-3.86.85-1.15,1.5-.19,2,.3,6,5.32,12.07,10.47,18.11,15.71,8.74,7.57,17.51,15.1,26.24,22.68,7.44,6.46,14.91,12.88,22.34,19.35,1.81,1.58,3.55,3.25,5.47,4.7,5.7,4.6,10.51,10.12,15.76,15.18,1.88,1.81,1.87,1.83,3.7,0,1.49-1.47,2.91-3,4.46-4.43s1.41-2.31,0-3.65c-3.68-3.57-7.27-7.23-10.89-10.86Q305,475,291.35,461.26c-.74-.75-2.05-1.3-1.64-2.78,1-.41,1.58.36,2.22.89,3.36,2.75,6.88,5.3,10.25,8,2.86,2.33,5.54,2.89,8.49.38,1.22.21,1.39,1.34,1.85,2.18,1.17,2.1,1.17,2.12,3.32.88a2.12,2.12,0,0,1,.2-.12c4.26-2.47,3.57-2.25,1.86-5.75a4.08,4.08,0,0,1-.62-2.66,25.17,25.17,0,0,1,5.8-5.48c2.16-.11,4.08.87,6,1.48,6.43,2,12.85,4.06,19.34,5.86C350.29,464.69,351.29,465.56,351.2,467.49Z" transform="translate(-14.3 -205.98)"/><path class="cls-21" d="M349.21,508.6c3.8-.23,7.39-1.51,11.15-2,8.9-1.21,17.7-1.36,26.48.81a23.4,23.4,0,0,0,16.28-1.68,7.81,7.81,0,0,0,4.69-7.6c.08-6.22-.27-12.41-.62-18.59-.48-8.54-1.45-17-2.63-25.53a185.06,185.06,0,0,0-7.65-33.6c-3.47-10.31-8-20.16-15.17-28.51a55.79,55.79,0,0,0-10.45-9.55c-.7-.49-1.5-.84-1.8-1.73a59.44,59.44,0,0,1,14.8,8.58,63.28,63.28,0,0,1,17.51,21.12,64,64,0,0,1,6.42,20.35c1.25,9.84,2.06,19.74,3.3,29.59,2.82,22.24,6,44.42,13.24,65.77.61,1.82-.67,2.71-1.18,4l-.18.29c-1.46,1.21-2.71.21-4-.41a11,11,0,0,1-2.83-3c-6.45-4.79-13.84-7.57-21.39-9.93a184,184,0,0,0-35.65-7.07C356.09,509.52,352.65,509,349.21,508.6Z" transform="translate(-14.3 -205.98)"/><path class="cls-22" d="M416.58,526.89a10,10,0,0,1,3,2.6c.58,1.41-.43,2.5-.74,3.73-1.67,3.75-3,7.65-5.3,11.13A39.5,39.5,0,0,1,408,551.1c-8.07,2.58-16.44,3.28-24.8,3.81-11.3.72-22.62,1.34-34,1-5.34-.18-10.7-.29-16-.59-3.7-.4-7.43-.43-11.14-.77-1.68-.15-3.45.06-4.82-1.26A7.78,7.78,0,0,1,323,551.7c2.66.29,5.29-.66,8-.82,4.68-.28,9.31-1.21,14-1.7,8.29-.87,16.48-2.34,24.65-3.9a163.23,163.23,0,0,0,29-8C405.07,534.74,411.47,531.87,416.58,526.89Z" transform="translate(-14.3 -205.98)"/><path class="cls-12" d="M317.21,553.25c5.24.93,10.6.64,15.86,1.46.51,1.19.2,2.43.14,3.62-.13,2.19.2,4.1,2.18,5.38A101.93,101.93,0,0,1,321,565.6c-2.56-4.48-6.16-8-10-11.41-.63-.55-1.41-.94-1.77-1.77Z" transform="translate(-14.3 -205.98)"/><path class="cls-23" d="M302.66,557c.08.6,0,1.08-.57,1.19s-.69-.25-.78-.67q-.54-2.47-1.06-5c-.08-.41,0-.81.44-.94.61-.19.85.31.95.74C302,553.87,302.34,555.46,302.66,557Z" transform="translate(-14.3 -205.98)"/><path class="cls-24" d="M303.19,573.35c0-.54,0-.92,0-1.31s0-1,.6-1.06.76.39.81.89c.15,1.6.3,3.2.44,4.8,0,.49-.08,1-.63,1.07s-.73-.4-.78-.9C303.48,575.63,303.32,574.41,303.19,573.35Z" transform="translate(-14.3 -205.98)"/><path class="cls-25" d="M349,539.86c-.91-.45-2.63.73-2.7-.78-.07-1.24,1.64-.48,2.52-.75a.45.45,0,0,1,.23,0c1.17.24,3.14-1.24,3.33.51C352.49,540,350.19,539.47,349,539.86Z" transform="translate(-14.3 -205.98)"/><path class="cls-26" d="M369.14,536.49c.73.17,1.78-.36,1.89.52.14,1.08-1,.88-1.68,1-1.22.14-2.43.3-3.65.43-.5.05-1-.09-1-.65s.44-.71.93-.77C366.81,536.83,368,536.65,369.14,536.49Z" transform="translate(-14.3 -205.98)"/><path class="cls-27" d="M384.38,536.07c-.41,0-1.13.19-1.21-.57s.58-.77,1.13-.85c1.37-.19,2.74-.4,4.11-.6.49-.07,1,0,1.07.56s-.45.79-.9.86C387.22,535.7,385.84,535.87,384.38,536.07Z" transform="translate(-14.3 -205.98)"/><path class="cls-28" d="M330.4,540.28c-.81-.33-2.71.67-2.69-.73s1.9-.47,2.94-.65a10.22,10.22,0,0,1,2.07,0c.51,0,1.22-.08,1.18.71s-.71.67-1.24.68C332,540.29,331.27,540.28,330.4,540.28Z" transform="translate(-14.3 -205.98)"/><path class="cls-29" d="M312,538.33c1.06.46,3.13-.61,3.1.89,0,1.32-2.08.5-3.2.54s-2.88.43-2.81-.71C309.17,537.61,311,538.71,312,538.33Z" transform="translate(-14.3 -205.98)"/><path class="cls-23" d="M294.41,536.61c.62.54,2.25-.29,2.27,1.28,0,.42-.28,1.93-1.09,1.68a3.78,3.78,0,0,1-2.55-2.36C292.86,536.56,293.71,536.59,294.41,536.61Z" transform="translate(-14.3 -205.98)"/><path class="cls-30" d="M402.83,532.89c-.53,0-1.4.18-1.31-.49.19-1.53,1.72-.78,2.59-1.21.52-.25,1.32,0,1.16.58C405,532.94,403.73,532.72,402.83,532.89Z" transform="translate(-14.3 -205.98)"/><path class="cls-16" d="M252.29,531.94h1.51l9,32.61A188.49,188.49,0,0,1,241.1,561,112,112,0,0,1,227,557.58q11.63-11.72,23.26-23.44C251,533.43,251.61,532.68,252.29,531.94Z" transform="translate(-14.3 -205.98)"/><path class="cls-16" d="M460.08,518.87a53,53,0,0,1,8.77,1.37q-1.37,15.74-2.75,31.45a217.73,217.73,0,0,1-43,19.11A163.92,163.92,0,0,1,397,577L405,563.69c1.42-1.23,3.12-.62,4.69-.68,3.38-.13,3.76-.63,4-4,.26-3.51-1.51-5.88-3.77-8.12-.14-1.61,1.28-1.79,2.23-2.26a264.1,264.1,0,0,0,23.47-12.85,266.93,266.93,0,0,0,22.08-15.52A5.94,5.94,0,0,1,460.08,518.87Z" transform="translate(-14.3 -205.98)"/><path class="cls-31" d="M409.91,550.55c3.89,2.71,5.4,6.55,4.29,11a2.54,2.54,0,0,1-2.72,2c-2.16,0-4.32,0-6.48.07h-7.06a6,6,0,0,1-2.9.67c-7.27,0-14.54,0-21.81,0q-10,0-20,0a7,7,0,0,1-3.83-.67l-7.05,0h-7c-2-.2-3-1.29-2.8-3.36.15-1.88-.31-3.81.48-5.64,6.74.15,13.48.38,20.22.45,11.94.12,23.87-.41,35.75-1.44,5.9-.51,11.86-1,17.53-3a9.94,9.94,0,0,1,2.06-.3A.93.93,0,0,1,409.91,550.55Z" transform="translate(-14.3 -205.98)"/><path class="cls-3" d="M127.09,531.93l30.91,0c1.44.64,3.31.53,4.11,2.3-.15,2.5-1.65,4.48-2.78,6.54-2.4,4.33-4.37,8.88-6.94,13.12-.39.65-.62,1.44-1.42,1.77a2,2,0,0,1-.61-.31Q138.7,543.64,127.09,531.93Z" transform="translate(-14.3 -205.98)"/><path class="cls-3" d="M162.23,567a51.48,51.48,0,0,1-7-7.09c.69-3.17,2.46-5.87,4-8.63,2.28-4.16,4.23-8.49,6.66-12.57.44-.73.73-1.55,1.55-2a2.9,2.9,0,0,1,2.23.28c5.2,2.13,10.33,4.46,15.57,6.5a2.16,2.16,0,0,1,1.4,1.12c0,.94-.8,1.28-1.42,1.67-8.53,5.38-15.67,12.29-22.13,19.94A2.5,2.5,0,0,1,162.23,567Z" transform="translate(-14.3 -205.98)"/><path class="cls-4" d="M162.23,567c.25-1.85,1.83-2.87,2.91-4,6.16-6.72,12.75-13,20.69-17.67.26-.15.55-.27.82-.41a1.44,1.44,0,0,1,1.53-.2c2.48,1,5.16,1.58,7.36,3.22.06,1.52-1.24,1.87-2.2,2.38-6.3,3.32-11.77,7.77-17.06,12.47a23.74,23.74,0,0,0-3.8,4.39c-2.11,1.22-3.45,3.44-5.73,4.43A31.94,31.94,0,0,1,162.23,567Z" transform="translate(-14.3 -205.98)"/><path class="cls-7" d="M167.53,536.81q-6.15,11.57-12.29,23.12a19.57,19.57,0,0,1-4.27-4.3l11-21.4a2,2,0,0,1,1.18-2.28H170A6.6,6.6,0,0,1,167.53,536.81Z" transform="translate(-14.3 -205.98)"/><path class="cls-12" d="M166.75,571.58a19.44,19.44,0,0,1,5.3-4.68c4.8-3.21,9.77-2.69,14.61-.33a16,16,0,0,1,8.64,11,4,4,0,0,1-.29,3.16,6.7,6.7,0,0,1-2,2c-.11-8.69-4.36-14.06-12.57-15.12-4.94-.64-9,1.52-12.15,5.42Z" transform="translate(-14.3 -205.98)"/><path class="cls-16" d="M167.53,536.81l2.46-4.87,65.23-.06c2.87,0,5.75,0,8.62.06L219.8,556c-1.3.38-2.45-.22-3.61-.58-6.21-2-12.5-3.67-18.57-6.05a4.51,4.51,0,0,1-2.2-1.23,62,62,0,0,0-8.77-3.28Z" transform="translate(-14.3 -205.98)"/><path class="cls-3" d="M195.42,548.17l16.7,5.39L219.8,556,195,580.74c-.67-11.31-10.91-18-21.64-14.26l-1.32.42c4.74-6.39,11.13-10.87,17.68-15.17C191.6,550.5,193.79,549.79,195.42,548.17Z" transform="translate(-14.3 -205.98)"/><path class="cls-16" d="M373.17,563.69h24.77l-9,14.4c-6.23.51-12.39.35-18.36-1.8a12.86,12.86,0,0,1-1.72-.69c-3.57-1.88-4.09-3.65-2.17-7.32C367.84,565.34,370.14,564,373.17,563.69Z" transform="translate(-14.3 -205.98)"/><path class="cls-4" d="M373.17,563.69c-2.71.76-4.66,2.6-6.5,4.59-4.59.26-9.13,1.16-13.75,1l-3.48-5.57Z" transform="translate(-14.3 -205.98)"/><path class="cls-3" d="M221.13,262q.51-10.08,1-20.16a2.24,2.24,0,0,1,.62-1.46c1.9-2,1.72-4.13.13-6.25,4.37-2.86,9.29-4.57,14.08-6.51a197.47,197.47,0,0,1,38.15-11.47c5.37-1,10.8-1.68,16.25-2.24a127,127,0,0,1,17.44-.31,108.11,108.11,0,0,1,38,8.44A103.71,103.71,0,0,1,366,232.56a4.37,4.37,0,0,1,1.66,1.56C361,237.75,354,241,348,245.69a108.66,108.66,0,0,1-19,12.12,115.93,115.93,0,0,1-39.52,11.41c-13.66,1.46-27.05-.07-40.42-2.64C239.82,264.8,230.51,263.18,221.13,262Z" transform="translate(-14.3 -205.98)"/><path class="cls-32" d="M497.14,360.15c-3.72-1.39-7.45-2.77-11.48-3-1.1-1.92-.84-4.11-1.29-6.17-.18-.81-.25-1.65-.51-2.45a9.64,9.64,0,0,1,.23-4.37,2.34,2.34,0,0,1,1.54-1.88,2.66,2.66,0,0,0,1.56-1c2.42-4.19,4-8.63,3.09-13.52a4.68,4.68,0,0,0-4.62-3.9c-2.41-.11-3.4.66-4.49,3.51-.14.36-.26.73-.38,1.1-1.46,4.54-1.48,4.55-6.4,4.08-4.69-1-9.41-1.8-13.73-4.11s-8.25-4.83-11.29-8.67A31.38,31.38,0,0,0,460,328.18a6.24,6.24,0,0,1,2,1.18.76.76,0,0,1-.58.73A4.7,4.7,0,0,1,458,329a53.76,53.76,0,0,0,10,5.66c.73.28,2,.6,1.67,1.54s-1.56.47-2.24.09c-5.42-3.07-11.82-3.81-17.11-7.17a27.16,27.16,0,0,1-10.22-11.22,132.8,132.8,0,0,1,2.49,17.77c-.81,2.29-2.5,4.06-3.68,6.14-2,3.56-2,4.06,1.25,6.46,1.54,1.4,2.21,3.36,3.26,5.06a120.69,120.69,0,0,0,9.48,13.82c1.93,2.34,3.27,2.67,6.12,1.56a53.54,53.54,0,0,0,5.35-2.83c.8-.42,1.54-1.12,2.57-.67a1.38,1.38,0,0,1,.44,1.27c-.58,3.71-.55,7.58-2.84,10.84-.37.39-.9.72-1.1,1.19-3.59,8.31-7.76,16.38-10.44,25.07-2.34,7.57-.62,14.7,2.08,21.79,1.8,4.7,4.11,9.2,5.44,14.07-2,1.38-4.14.64-6.24.6-2.69-.62-5.54-.17-8.16-1.25-.9-.14-1.83-.26-2.31-1.2-1.45-12.8-2.81-25.61-4.39-38.39a50.83,50.83,0,0,0-5.26-17.73c-4-7.64-5.21-16-5.42-24.54-.31-12.74.45-25.48-.09-38.22-.09-2.09-.27-4.17-.52-6.26-1.64,6.29-1.17,12.73-1.42,19.12a70.18,70.18,0,0,1-.75-13.27c-.24-1.32-.48-2.64.4-3.85l2.25-9a4.41,4.41,0,0,1,1.6-4,37.53,37.53,0,0,1,6.92-9,8.46,8.46,0,0,1,5.63-3.85c10.51-5.16,21.14-4.46,31.83-.67.59.2,1.16.43,1.74.64a10.34,10.34,0,0,1,7.06,3.87c3.27,2.87,6.63,5.66,9.21,9.22a4.76,4.76,0,0,1,2.44,3.79l3.79,9c1,1.09,1.59,2.27,1,3.77a60.44,60.44,0,0,1,.35,25.44,12.47,12.47,0,0,0-.09,1.84c-1.29-.24-.86-1.28-.79-2a77.9,77.9,0,0,0-1.8-29.05c-.07-.24-.15-.47-.17-.4a63.7,63.7,0,0,1,2.52,18.4,58.52,58.52,0,0,1-.53,10.66c-.36,1.94.55,4.09-.94,5.84A69.16,69.16,0,0,0,497.14,360.15Z" transform="translate(-14.3 -205.98)"/><path class="cls-32" d="M326.53,301.39c5.53-2,10.56-.76,15.2,2.47,13,9.05,20.39,32.17,15.13,47.05a19.4,19.4,0,0,1-6.1,9.15c-.82,1.05-2,1.06-3.18,1.11-4.05.16-7.84-1-11.63-2.21-.66-.22-1.42-.53-1.45-1.34s.77-.87,1.26-1.2a7.29,7.29,0,0,0-.22-12.53,4.69,4.69,0,0,0-7.05,2.05,10.29,10.29,0,0,0-.91,3.36,21.79,21.79,0,0,1-1.45,6.11c-.33.84-.67,2.15-1.73,1.79s-.23-1.48-.09-2.26a7.83,7.83,0,0,1,.29-.9,5.48,5.48,0,0,1-2.27,2.62c-.41.22-.89.44-1.31.15s-.34-.84-.21-1.28a21.56,21.56,0,0,0,.87-3.63c.52-4.92-.58-9.27-4.48-12.63-2.91-2.52-4.48-5.38-2.19-9.21a45.9,45.9,0,0,1-15.14,14.09,1.49,1.49,0,0,1-1.33.19c-2.54,1-4.91,2.41-7.71,2.63,2.54-1.3,5.3-2.14,7.68-3.77.69-1.21,2-1.7,3-2.46a52.64,52.64,0,0,0,11-10.23,48.11,48.11,0,0,1-11.28,10.26,8.7,8.7,0,0,1-3.58,1.55,38.86,38.86,0,0,1-20.1,3.83c-5.33-.48-9-3.17-10.06-7.54a11.15,11.15,0,0,1,.55-6.63c2.54-7.11,9.19-11.2,17.66-10.67-5.9-5.54-8.22-12-5.51-19.75-1.2,6.57-.08,12.5,4.83,17.38-.69-1.51-1.45-3-2.06-4.53-2.35-6-1.61-11.62,2.66-16.52s9.46-8.17,15.84-9c8.14-1.11,14,2.82,18.44,9.33.42.63.77,1.32,1.5,2.58.14-2.63,0-4.67.35-6.67.66-4.19,1.21-4.67,5.37-4,.81.12,1.72-.13,2.53.61-2.12,3-4.18,6.11-5.25,9.73-.33,1.14.3,1.09.92,1.28C325.69,301.34,326.16,301.56,326.53,301.39Z" transform="translate(-14.3 -205.98)"/><path class="cls-4" d="M289.57,458.65c4.42,4.47,8.82,9,13.26,13.41q13.74,13.77,27.54,27.48c1.39,1.37,1.45,2.2,0,3.5-2.09,1.86-4,3.89-5.95,5.91-.79.83-1.32,1-2.24.1-5.47-5.51-10.87-11.09-16.64-16.28-2.71-2.56-5.49-5-8.12-7.68q-31.1-31.05-62.15-62.15c-.89-.9-2.19-1.64-1.82-3.27.78-1.66.68-3.1-.92-4.27a4.76,4.76,0,0,1-1.78-3.13c-.47-2.44-1.26-2.94-3.72-2.14a4.27,4.27,0,0,1-4.14-.48,12.86,12.86,0,0,1-3.71-2.77q-38-38.07-76.1-76.12c-2.74-2.74-5.36-5.61-8.08-8.38a6.21,6.21,0,0,1-1.21-1.93c-2.37-2.33-4.71-4.69-7.11-7-.68-.64-.61-1,0-1.63,2.26-2.22,4.53-4.45,6.72-6.74.87-.92,1.39-.45,2.08.16,2.53,2.27,4.77,4.85,7.55,6.83,1.05.1,1.59.93,2.23,1.57q29,29,58,58.06c6.85,6.88,13.82,13.62,20.6,20.58.69.7,1.62,1.26,1.72,2.39l8.77,8.83c2.4,1,3.73,3.27,5.62,4.86,3.87,3.93,7.78,7.81,11.7,11.69,12,12,24,24,36,36C288.43,456.85,289.44,457.44,289.57,458.65Z" transform="translate(-14.3 -205.98)"/><path class="cls-33" d="M225.61,394.69c-5-5-10.08-9.92-15.08-14.92Q177.71,347,144.92,314.15c-.65-.66-1.26-1.37-1.89-2.06l2.37-2.39c1-1.94,2.88-3,4.41-4.34,3.39-3,6.76-6.09,10.29-9,.52-.42,1-1,1.81-.69,1.31,2.34,3.76,3.39,5.8,4.82,2.91,2,6.18,3.56,8.68,6.19a9.64,9.64,0,0,0,2.72,1.76c2.15,1.09,4.28,2.24,5.68,4.32a2.36,2.36,0,0,0,1,.95c5.21,1.92,8.75,6.27,13.3,9.19,4.18,2.69,8,6.12,12.23,8.76s7.67,6.25,12.06,8.6c3.18,1.7,6,4.09,8.84,6.26-.14,4.4-1,8.71-1.59,13.06-.68,5.43-1.4,10.85-2.12,16.26q-1.2,9.17-2.46,18.31C226,394.38,225.76,394.53,225.61,394.69Z" transform="translate(-14.3 -205.98)"/><path class="cls-34" d="M232.23,346.56c-2-1.23-4.24-1.91-6-3.72-2-2.06-5-2.7-7.13-4.66-5.07-4.63-11.34-7.64-16.53-12.09-4.1-3.51-9.42-5.39-12.85-9.78a4.86,4.86,0,0,0-2.08-1,6.64,6.64,0,0,1-3.84-2.81,4.84,4.84,0,0,0-2-1.84c-3.67-1.73-6.62-4.43-9.83-6.8a100.92,100.92,0,0,0-9.14-5.82c-1.08-.62-1-1.42-1-2.33,1.26-2.75,3.93-4.15,6-6,5.77-5.09,11.5-10.22,17.39-15.18.72-.6,1.4-1.26,2.45-1.1,9.65,3.61,19.09,7.76,28.65,11.59,6.47,2.59,12.91,5.25,19.37,7.87a12.59,12.59,0,0,1,3.48,1.83c-.85,6.35-1.72,12.69-2.56,19s-1.65,12.71-2.5,19.06C233.5,337.4,232.86,342,232.23,346.56Z" transform="translate(-14.3 -205.98)"/><path class="cls-35" d="M298.54,344.34a48.24,48.24,0,0,0,17-16.17c.48,1.06-.13,1.68-.26,2.34a12.67,12.67,0,0,1-.57,2,4,4,0,0,0,1.11,4.47,8.08,8.08,0,0,0,.65.66c6.06,5.16,7.3,11.52,4.51,19,2.27-.65,3-2.5,4-4.38.53,1.86-.47,3.29-.54,5,1.81-2.5,2.08-5.29,2.54-8a23.39,23.39,0,0,1,.46-2.5c1.34-4.39,5.92-5.71,9.42-2.74,4.9,4.17,3.89,10.87-2.58,13.78,5.64,1.88,10.79,3.78,16.47,2.29l.45,1a40.59,40.59,0,0,1-1.45,4.62,17.73,17.73,0,0,1-6.1,7.75c-3.15,2.11-6.2,4.39-9.32,6.56a4.29,4.29,0,0,1-2.7,1.19c-2.29,1.29-4.52,2.7-6.89,3.84-3.05,1.48-4.11,1.13-6.56-1.17-2.8-2.62-4.73-5.9-7.11-8.83a8.16,8.16,0,0,1-2.31-3.18c-2.06-3.9-4.4-7.69-5.48-12-1-2.68-1.89-5.38-2.9-8A25.8,25.8,0,0,1,298.54,344.34Z" transform="translate(-14.3 -205.98)"/><path class="cls-35" d="M347.21,443.12c2.15,1.15,4.54.89,6.84,1.14,2.46-.64,4.26.69,6.06,2a29.53,29.53,0,0,1,9.4,15.46c.64,2.76,0,3.59-2.85,3.53a39.29,39.29,0,0,1-6.92-.84,533.29,533.29,0,0,1-60.78-16c-2.19-.7-4.51-1.22-6.26-2.92-.06-3.73.94-7.31,1.74-10.89.38-1.66,1.93-1,3.06-.36a44.27,44.27,0,0,0,9.39,1.94c2.85-.31,5.52.71,8.25,1.21,7.71,1.42,15.43,2.75,23.14,4.11C341.25,442.07,344.3,442.24,347.21,443.12Z" transform="translate(-14.3 -205.98)"/><path class="cls-36" d="M293,445.52c21.39,7.87,43.45,13.3,65.69,18.09a43.34,43.34,0,0,0,8.74,1.06c1.56,0,2-.47,1.63-2.11a28.29,28.29,0,0,0-7-13.44c-.85-.91-1.71-1.8-2.56-2.71,1-.58,1.62.13,2.29.61a21.7,21.7,0,0,1,7.13,9.33c2.07,4.69,3.78,9.54,5.93,14.2a1.53,1.53,0,0,1,.12,1.55c-7.27-1.93-14.55-3.83-21.8-5.8-1.23-.33-2-.27-2,1.19-.21-1.69-1.33-2.25-2.86-2.7-8-2.36-15.94-4.84-23.91-7.26-.51-.15-1.05-.21-1.57-.32-2.2.37-4-1-6-1.45a29.9,29.9,0,0,1-2.87-.92c-3.16-1-6.37-1.92-9.8-3.14,2.2,4.58,4.08,9,6.1,13.31.44.95,1.21,1.9.4,3-2.62,2.69-4.31,2.9-7.25.89-4.15-2.84-8-6-11.95-9.18-.58-.47-1-1.25-1.93-1.1l-35.29-35.12c-1-1-1.9-2-2.84-3.07-3.07-4.83-6.53-9.27-11.85-11.85a44.72,44.72,0,0,1-5.21-5.09c4.61-.16,9.08.8,13.53,1.77,2.24.49,4,1.53,4.82,3.88a11.94,11.94,0,0,0,1.47,2.35c.08.35-.12.57-.32.81-.46.56-1.71.62-1.4,1.6s1.37.89,2.18,1.05c1.06.22,2.18-.05,3.21.43,3.5,4.13,8.14,6.82,12.46,9.92,1.15,1.5,1,3.39,1.42,5.09a9.46,9.46,0,0,0,5.07,6.5c3.91,2,7.86,4,11.79,6C289.52,445.4,290.11,445.74,293,445.52Z" transform="translate(-14.3 -205.98)"/><path class="cls-37" d="M443.19,279.35q-47.81,0-95.62,0c-2,0-2.58-.6-2.42-2.5.09-1.16.39-1.75,1.62-1.62a11.41,11.41,0,0,0,1.17,0H538.72c2.86,0,3.12.3,2.93,2.75-.08,1-.48,1.38-1.43,1.33-.62,0-1.25,0-1.87,0Z" transform="translate(-14.3 -205.98)"/><path class="cls-6" d="M338.14,442.18c-9.25-1.69-18.49-3.35-27.73-5.08-1.18-.22-2.46-.19-3.52-.92,10.59-11.33,18.16-24.65,25.28-38.27l1.77-1.28a67.23,67.23,0,0,0,4.26,18.28c1.79,4.7,3.68,9.36,5.44,14.07a15,15,0,0,1,1.15,4.95,2.22,2.22,0,0,1-.5,1.73C342.3,437.9,341,440.78,338.14,442.18Z" transform="translate(-14.3 -205.98)"/><path class="cls-3" d="M409.91,550.55l-1.28-.15c-.08-.26-.48-.5-.15-.79,4.8-4.25,7-10.05,9.53-15.7a4.36,4.36,0,0,1,.35-.59c1.27-1.87,3.57-2.12,5.25-3.34l0,0c5.12-2.61,9.65-6.12,14.32-9.43,6.71-4.75,12.9-10.16,19.26-15.37a62.44,62.44,0,0,1-2.37,9.82c-.53,1.8-.63,2.85,1.73,3.09,1.16.11,2.5,0,3.56.76a144.27,144.27,0,0,1-15.91,12.06,231.16,231.16,0,0,1-32.68,18.68A16.85,16.85,0,0,0,409.91,550.55Z" transform="translate(-14.3 -205.98)"/><path class="cls-35" d="M443.83,437.55l2.47.7a2.55,2.55,0,0,1,.4,3.87c-1.38,1.77-1.14,3.43.18,5.05a2.55,2.55,0,0,1,.18,3.55.45.45,0,0,1-.63-.07c-5.28-.15-10.58.44-15.84-.41a1.57,1.57,0,0,1-1.3.41,76.9,76.9,0,0,0-12.66-1.41,4.76,4.76,0,0,1-2.53-4.1c-.39-3.25-1-6.54,1.16-9.5,1.89-3.21,5.07-3.13,8.16-3.11a27.1,27.1,0,0,1,3.45.36c1.37.2,1.65-.44,1.34-1.61-.09-.3-.18-.59-.24-.89-.28-1.39-.66-2.94.9-3.72a3.08,3.08,0,0,1,4.08,1.11,4.29,4.29,0,0,1,2,2.17C436.38,434.28,439.74,436.33,443.83,437.55Z" transform="translate(-14.3 -205.98)"/><path class="cls-2" d="M239.17,294.71c-2.25-.34-4.22-1.48-6.28-2.32q-22.8-9.28-45.57-18.65c.05-1.23,1.09-1.6,1.9-2.11,2.54-1.61,5.21-3,7.75-4.58a3.25,3.25,0,0,1,3.49-.24,29.67,29.67,0,0,0,3.87,1.48c7.67,3.3,15.39,6.46,23.14,9.56a7.06,7.06,0,0,1,2.84,1.52c.16.15.31.41.5.45,4.37.74,5.76,3.87,6.46,7.75C237.7,290,238.52,292.33,239.17,294.71Z" transform="translate(-14.3 -205.98)"/><path class="cls-35" d="M288.55,443.28A77.25,77.25,0,0,1,274.16,436c-2.79-1.79-3-5.37-3.6-8.47a4.82,4.82,0,0,0-.53-2c-.88-1.33-.79-2.91-1.08-4.39a21.39,21.39,0,0,0-1.48-5c-.85-1.93-2.51-3-4.29-3.88-.56-.29-1.43-.18-1.5-1.12.46-1.3,1.73-1.38,2.7-1.42,3.62-.13,7.28-.47,10.79.9,2.43.7,3.36,2.89,4.66,4.72,1,4.26,1.88,8.56,3.07,12.77.46,1.65,1.18,3.64,3.72,3,3.29.73,3.67,1.22,3.74,4.42a33.19,33.19,0,0,1-.56,5.72A2.26,2.26,0,0,1,288.55,443.28Z" transform="translate(-14.3 -205.98)"/><path class="cls-38" d="M442.78,288.58l-5.63,3.85-78.33-.05c-1.18,0-2.49.38-2.47-1.71,0-1.77.41-2.39,2.31-2.39q41,.11,82.07.05A3.89,3.89,0,0,1,442.78,288.58Z" transform="translate(-14.3 -205.98)"/><path class="cls-38" d="M483.41,292.42l-7.06-3.87c.76-.07,1.53-.21,2.29-.21q35.77,0,71.54,0c1.11,0,2.58-.57,2.71,1.53.11,1.85-.32,2.56-2.38,2.55-21.59-.08-43.18-.05-64.77-.05C485,292.38,484.18,292.41,483.41,292.42Z" transform="translate(-14.3 -205.98)"/><path class="cls-37" d="M495.06,305.43q-1.21-1.9-2.44-3.79a4,4,0,0,1,2.28-.27q33.45,0,66.9,0c1.57,0,2.41.17,2.37,2.09,0,1.73-.68,2-2.21,2-13.29-.05-26.57,0-39.86,0Z" transform="translate(-14.3 -205.98)"/><path class="cls-38" d="M499.82,318.2c-.32-1.25-.65-2.51-1-3.77q37.21,0,74.44-.05c1.43,0,2,.27,2.07,1.89,0,1.82-.82,2-2.27,2Q536.46,318.17,499.82,318.2Z" transform="translate(-14.3 -205.98)"/><path class="cls-37" d="M430.23,301.41c-.53,1.33-1.07,2.66-1.6,4q-29.5,0-59,.05c-1.44,0-2.11-.28-2.06-1.91s.26-2.21,2-2.2C389.81,301.4,410,301.39,430.23,301.41Z" transform="translate(-14.3 -205.98)"/><path class="cls-31" d="M446.43,450.65l.6-.17c1.71-.87,3.54-.38,5.32-.46,2.69.3,5.4.49,8.08,1a3.67,3.67,0,0,1,2.65,1.25,108.23,108.23,0,0,1-.33,19.47,13.8,13.8,0,0,1-9.88-5.84C449.46,461.35,447.63,456.13,446.43,450.65Z" transform="translate(-14.3 -205.98)"/><path class="cls-38" d="M426.38,314.41a9.46,9.46,0,0,1-.4,3.85l-44.71-.07c-1.07,0-2.4.46-2.43-1.52,0-1.61.24-2.32,2.12-2.31C396.1,314.44,411.24,314.41,426.38,314.41Z" transform="translate(-14.3 -205.98)"/><path class="cls-39" d="M331.64,381.14c3.6-2.56,7.08-5.29,10.82-7.62,4.18-2.61,6.36-6.44,7.77-10.92.19-.6-.07-1.5,1-1.58a74.24,74.24,0,0,0,4,10.06c.24.55.47,1.17,1.23,1.22a229.55,229.55,0,0,1-24.34,11.58Z" transform="translate(-14.3 -205.98)"/><path class="cls-40" d="M230.31,279.37c-3.4-.81-6.49-2.4-9.7-3.68-5-2-9.86-4-14.78-6.05a12.17,12.17,0,0,1-1.58-.94c1.69-3,3.2-3.56,6.16-2.31,2.07.87,4.21,1.55,6.23,2.53.89,1.46,2.46,1.6,3.89,2a35,35,0,0,0,5.53,2.35C229.43,274.1,230.39,276.3,230.31,279.37Z" transform="translate(-14.3 -205.98)"/><path class="cls-41" d="M433,427.78a5.71,5.71,0,0,0-.84-.38c-1.09-.29-2.25-1.15-3.28-.2s-.51,2.29-.12,3.47q.18.56.33,1.11c.41,1.55.25,2.32-1.75,1.9a19.27,19.27,0,0,0-7.11-.39,9.8,9.8,0,0,0-4.92,2.35c-.36-3.08-1.52-6.11-.58-9.27a3.72,3.72,0,0,1,2.39-.7c4.47,0,8.94,0,13.41,0a3,3,0,0,1,2.36.71C432.87,426.85,432.91,427.32,433,427.78Z" transform="translate(-14.3 -205.98)"/><path class="cls-31" d="M288.55,443.28a30.24,30.24,0,0,0,1.1-9.37,1.47,1.47,0,0,0-1.23-1.63c-.67-.21-1.61-.18-1.8-1.19,0-1.88,1-2.25,2.68-1.84s3.58.77,5.37,1.16c3.2.7,3.2.7,2.83,3.83-2.28-.54-2.86.57-3.05,2.67-.26,2.89-.94,5.74-1.44,8.61-1.33,2.22-2.6.1-3.84-.12S288.11,444.18,288.55,443.28Z" transform="translate(-14.3 -205.98)"/><path class="cls-42" d="M279.83,415.3c-1.91-1.23-2.81-3.44-4.66-4.72h.06a2.89,2.89,0,0,1,3.72-.09c4.12-.07,8.23-.1,12.34-.24,1.44-.05,2.42.07,2.4,1.9,0,1.6-.19,2.65-2.25,2.61A71.56,71.56,0,0,0,279.83,415.3Z" transform="translate(-14.3 -205.98)"/><path class="cls-43" d="M432.84,426.39l-18.16,0a4.61,4.61,0,0,1,4.55-4.1c3-.08,6-.07,9,0A4.78,4.78,0,0,1,432.84,426.39Z" transform="translate(-14.3 -205.98)"/><path class="cls-31" d="M261.68,411.1c2.42.91,4.91,1.7,6,4.44a2.41,2.41,0,0,1-2.29.82c-2.52-.11-5.09.55-7.53-.55-1.68-.11-3.44.3-5-.68-.56-.35-1.43-.41-1.5-1.28-.09-1,.82-1.16,1.49-1.52.47-.25.92-.54,1.38-.81Z" transform="translate(-14.3 -205.98)"/><path class="cls-44" d="M303.29,359.76,311.08,375a1,1,0,0,1-.24,0c-6.42-.62-7.62-.88-7.66-7.59C303.17,364.85,303.25,362.3,303.29,359.76Z" transform="translate(-14.3 -205.98)"/><path class="cls-45" d="M416.63,449.24c4-1.17,8-.09,11.9.64l2.06.36c0,1.62-1.06,2.14-2.41,2.16-2.92.05-5.83,0-8.75,0C417.34,452.38,416.62,451.13,416.63,449.24Z" transform="translate(-14.3 -205.98)"/><path class="cls-46" d="M498.37,349a133.75,133.75,0,0,0,.95-18.12,74.44,74.44,0,0,0-2.24-16.55,1.68,1.68,0,0,1,0-1.5,51.38,51.38,0,0,1,3,14.24,72,72,0,0,1-.31,16.27c-.1.72-.44,1.55.27,2.19-.29,1.49-.58,3-.88,4.45C498.49,349.91,498.81,349.12,498.37,349Z" transform="translate(-14.3 -205.98)"/><path class="cls-47" d="M297.68,342.32A59.81,59.81,0,0,0,313.8,329a44,44,0,0,1-15.29,14.25A.88.88,0,0,0,297.68,342.32Z" transform="translate(-14.3 -205.98)"/><path class="cls-48" d="M326.53,301.39a.82.82,0,0,1-1.18.28c-.41-1.49,1-1.63,1.72-2,4.95-2.37,9.45-.9,13.75,1.87-2.31-.59-4.51-1.56-6.89-1.9a11.71,11.71,0,0,0-7.64,1.25.2.2,0,0,0-.05.18A4.11,4.11,0,0,0,326.53,301.39Z" transform="translate(-14.3 -205.98)"/><path class="cls-49" d="M279,410.5l-3.72.09c-.2-1-.17-2,1-2.15C277.7,408.21,278.59,409.09,279,410.5Z" transform="translate(-14.3 -205.98)"/><path class="cls-7" d="M231.62,429.19c2.71,9.92,5.4,19.86,8.15,29.77q8.37,30.19,16.81,60.38a21.61,21.61,0,0,1-6.22.07c-1-.25-1-1.13-1.18-1.84l-12.75-45.82c-3.92-14.06-7.81-28.12-11.86-42.53-1.72,3.2-3.24,6.13-4.76,9-6,11.52-12.11,23-18,34.51-1.45,2.83-3.08,5.57-4.45,8.45a3.12,3.12,0,0,1-1.45,1.76c-1.09-.18-.76-.89-.72-1.39a26,26,0,0,1-2.72,4.89,1,1,0,0,1-1.17.52.74.74,0,0,1-.34-.8c.41-3.51.49-7.07,1.44-10.5a1.41,1.41,0,0,1,.92-1l26-49.61a14.8,14.8,0,0,0,5.51-.05c2-.24,4.13.61,6.17,1.11A3.54,3.54,0,0,1,231.62,429.19Z" transform="translate(-14.3 -205.98)"/><path class="cls-3" d="M116.4,482.77A13.49,13.49,0,0,1,130,496.36a13.7,13.7,0,0,1-27.4-.14A13.7,13.7,0,0,1,116.4,482.77Z" transform="translate(-14.3 -205.98)"/><path class="cls-3" d="M180.43,521.12a5.74,5.74,0,0,1-4.76-1.48,10.49,10.49,0,0,1-1.47-7.57,7,7,0,0,0-3.33-5.16c-5.37-3.74-6.8-11.59-3.47-17.29.51-.87,1.11-1.68,1.67-2.52,1.93.44,2.54,2.21,3.32,3.64a4.83,4.83,0,0,0,4.89,2.71c5.66-.06,11.32-.2,17,.08,2.79,1.1,3.34,2.14,2.58,4.79-3.17,5.6-7.33,10.21-13.18,13.09-1.74.86-2.12,2.2-2.19,4C181.41,517.32,182.21,519.48,180.43,521.12Z" transform="translate(-14.3 -205.98)"/><path class="cls-50" d="M133.79,320.45c.94,1,1.84,2.07,2.82,3.05l83.22,83.24a10.33,10.33,0,0,0,3.09,2.36c-2,.66-3.37,1.7-3.45,4.1,0,.89-.58,2.13-2.07,1.83-1.55-3-4.2-5.15-6.38-7.63-7.58-8.61-15.37-17-23-25.57q-17.64-19.63-35.22-39.32-9.48-10.56-19-21.08C133.78,321.1,133.78,320.78,133.79,320.45Z" transform="translate(-14.3 -205.98)"/><path class="cls-8" d="M194.52,494.05c-6.37,0-12.75,0-19.12.06a2.65,2.65,0,0,1-2.68-1.64,25.11,25.11,0,0,0-3.66-5.37c-1-1.32-2-2.64-3.24-4.24,2.13.56,3.33,2.05,4.94,2.8,1.64.31,2.45,1.74,3.75,2.79-.52-1.59-1.17-3-1-4.58q-.93-3.51-1.88-7l.29-.14,3.54,6.2a3.76,3.76,0,0,1,1.55,1.94c.1.28.36-.19.1,0a1.55,1.55,0,0,1,.13-2.09.52.52,0,0,0,0-.25c1.16,0,.39.82.59,1.14,0-3.09-.69-6.25-.72-9.46l.12-1.61.33-.09,3.78,11.22c3.24-1.74,1.76-5.69,4.11-7.73.81,2.81.4,5.86,1.22,9.16,1.65-3.68,3-7.15,5.09-10.22.34-.5.81-2,1.54-.19-1.45,3.86-1,8-1.66,12l3.94-6.57c.63,1.07-.64,2,.06,2.91.43.68,0,1.25-.24,1.84-.14.36-.61.75.11,1,2.13-1.94,4.35-3.8,5.33-6.65.73-1.89,2.48-2.7,4-3.74a1,1,0,0,1,1.28-.07c.42.38.2.86,0,1.28a8.85,8.85,0,0,1-1,1.56c-3.17,4.41-6.05,9-8.77,13.71C195.87,492.84,195.51,493.72,194.52,494.05Z" transform="translate(-14.3 -205.98)"/><path class="cls-2" d="M147.56,519.61c-.26.77-.34,1.6-1.57,1.52-2.21-.14-4.44-.13-6.66-.15-1,0-1.43-.4-1.42-1.36-1-6.74-2-13.49-3.06-20.22-.28-1.76-.08-2.65,2-2.46a40.28,40.28,0,0,0,4.66-.05c1.5-1.09,3.23-.63,4.88-.69,1.38.26,2.83.11,4.18.61,1.07.21.72.87.59,1.59C149.93,505.46,148.75,512.54,147.56,519.61Z" transform="translate(-14.3 -205.98)"/><path class="cls-51" d="M217.4,415a3.14,3.14,0,0,0,1.73-2.77c.32-3,.62-3.21,3.79-3.16a3.69,3.69,0,0,0,4.27.25c2.15-1.12,4,.11,4.11,2.59a3.78,3.78,0,0,0,1.87,3.22c2,1.32,2.1,2.69.53,4.81a7.81,7.81,0,0,0-2,4.6,1.94,1.94,0,0,1-1,1.75c-1.7,0-3.41.15-5-.81a2,2,0,0,0-2,.26c-1.72,1.17-3.16.62-4.52-.65-.07-2.21-.44-4.09-2.69-5.42C214.77,418.63,215.25,416.71,217.4,415Z" transform="translate(-14.3 -205.98)"/><path class="cls-52" d="M142.66,484.65l3.76-7.41c1.2,1.4,1.07,3.05,2,4.41-1-3.07.64-4.95,2.52-7a7.73,7.73,0,0,0,1.57-8.21,2.47,2.47,0,0,1,.18-2c4.61,2.53,7.75,5.88,7.25,11.58-.2,2.27-1.38,4-2.56,5.86-.63,1-1.36,1.87-2,2.8a9.7,9.7,0,0,1-3.15-.63c-1.32-.31-2.65-.81-2.86,1.31,0,.43-.52.51-.93.52C146.52,485.3,144.39,485.89,142.66,484.65Z" transform="translate(-14.3 -205.98)"/><path class="cls-53" d="M142.66,484.65a21,21,0,0,1,6.31.79,3,3,0,0,1,.2,2.46c-.82,3-.6,6.29-2.39,9a20.29,20.29,0,0,1-5.28-.05Q142.08,490.77,142.66,484.65Z" transform="translate(-14.3 -205.98)"/><path class="cls-54" d="M146.78,496.94l2.19-11.5c-.31-2.51,0-2.86,2.38-2.16,1.35.4,2.87.37,4,1.42q-2.39,6.06-4.78,12.11A6.94,6.94,0,0,1,146.78,496.94Z" transform="translate(-14.3 -205.98)"/><path class="cls-55" d="M174.2,512.07l1.47,7.57c-1.9-.3-3.86.3-5.74-.34C171.39,516.92,172.05,514.05,174.2,512.07Z" transform="translate(-14.3 -205.98)"/><path class="cls-56" d="M173.48,483.87l1.91,5.54-.33.2-4.3-3.95Z" transform="translate(-14.3 -205.98)"/><path class="cls-57" d="M177.1,474.18c1.3,3.11,1,6.39,1.07,9.68-1-.08-.33-1.13-.94-1.36C177.29,479.73,176.17,477,177.1,474.18Z" transform="translate(-14.3 -205.98)"/><path class="cls-57" d="M177.21,482.75c.11,1,.22,2.06.37,3.5a8.44,8.44,0,0,1-2.15-3.34Z" transform="translate(-14.3 -205.98)"/><path class="cls-51" d="M102,221.42c0-1.71,1-2.71,2.28-3.61,1.14-.58,1.27-1.62,1.37-2.74.22-2.54,1.89-3.61,4.13-2.54a4.09,4.09,0,0,0,3.94,0c1.93-.94,4,0,4.07,1.91a4.45,4.45,0,0,0,2.5,4.3c.62.35,1,1.12,1.49,1.7-.74,1.24-1.1,2.76-2.55,3.47-.24,1.12-.64,2.2-.88,3.33-.48,2.34-2.1,3.1-4.5,2.31-1.35-1.18-2.71-1.57-4.08,0-3.4.12-3.73-.13-4.14-3.32a3.09,3.09,0,0,0-1.64-2.59A5,5,0,0,1,102,221.42Z" transform="translate(-14.3 -205.98)"/><path class="cls-3" d="M469.92,453.37c8.6,1.64,17.17,3.45,25.88,4.52a118.23,118.23,0,0,0,17.44.79,132.4,132.4,0,0,0,3.67,18.6c2.11,8,5.31,15.68,8.46,23.34,2.52,6.11.58,10.47-5.6,12.65-6.92,2.44-14.11,3.19-21.37,3.71q-13.59,1-27.18.9c-4.26,0-8.49-.61-12.77-.54-2.92,0-3.12-.5-2.38-3.21a277,277,0,0,0,6.37-30.34,183.81,183.81,0,0,0,1.78-31.26A5.73,5.73,0,0,1,469.92,453.37Z" transform="translate(-14.3 -205.98)"/><path class="cls-35" d="M469.92,453.37l-5.7-.84-1.14-.28c-3.47-1-7.12-1-10.65-1.64a2.92,2.92,0,0,1-.18-3.09,5.89,5.89,0,0,0,.12-5.9c-.52-1-.74-2.4,1.24-2.35l6.93.13h.9a3.87,3.87,0,0,1,2.67-.57c7.14,0,14.28-.13,21.42,0a92,92,0,0,1,10.76,1,99.65,99.65,0,0,1-4.52-9.12c-1.12-2.31-2.14-4.66-3.09-7-.3-.76-.81-1.55-.2-2.41,6-1.63,12.11-3.23,18.14-4.92,1.21-.34,1.91-.16,2.37,1,3.69,9.43,6.62,19,6.55,29.3,0,5.89-.6,6.62-6.47,7.2-10.15,1-20.3.56-30.46-.23C475.75,453.43,472.84,452.35,469.92,453.37Z" transform="translate(-14.3 -205.98)"/><path class="cls-16" d="M216.64,268.92c-1.85.47-3.36-.62-4.71-1.42-3-1.79-5.45-1.32-7.68,1.2-.38-.06-.85,0-1.13-.19-3.37-2.4-6.28-1.14-9.19,1-2.11,1.55-4.65,2.44-6.61,4.24-3.23,2-5.81,4.78-8.66,7.23-5.67,4.86-11.25,9.82-16.87,14.75l-16.39,14c.23-.88-.5-1.23-1-1.68-3.06-2.87-6.16-5.69-9.17-8.6-1.08-1-1.88-1.43-2.88,0a37.4,37.4,0,0,1-2.62,3.05c-2.92-13.53-5.7-26.43-8.49-39.32a3.91,3.91,0,0,1,2.65-1.31,167.64,167.64,0,0,1,28.29-4.28c4.35-.28,8.69-.37,13-.37,5,0,10.05-.11,15.07-.05,10.85.66,21.68,1.48,32.45,2.95,1.42.19,3,0,4.16,1.16Z" transform="translate(-14.3 -205.98)"/><path class="cls-16" d="M113.88,229.51c3.28,0,3.59-.22,4-3.61a2.53,2.53,0,0,1,1.35-2c5.74.92,11.47,1.88,17.21,2.76,13.89,2.14,27.77,4.23,41.65,6.37,1.06.17,2.19,0,3.18.56,3.92,5.35,1.42,14-4.78,16.44a14.56,14.56,0,0,1-7.76.92,130.93,130.93,0,0,0-22.71-1.64,135.24,135.24,0,0,0-23.56,2.57c-1.18.24-2.4.82-3.6,0Z" transform="translate(-14.3 -205.98)"/><path class="cls-3" d="M118.89,251.88a132.38,132.38,0,0,1,33.19-3.22,160.85,160.85,0,0,1,17.09,1.61c7.45,1.06,14.93-3.31,12.83-13.54-.21-1.06-.46-2.11-.7-3.17,6.44.77,12.84,1.73,19.21,2.93.15,1.14-.81,1.39-1.51,1.79-10.19,5.81-20.18,11.95-29.86,18.59-1.29.89-2.64.69-4,.87-6.19.23-12.38.39-18.55,1a162.42,162.42,0,0,0-23.5,4.07c-.6.15-1.22.24-1.83.36C120.39,259.43,119.39,255.71,118.89,251.88Z" transform="translate(-14.3 -205.98)"/><path class="cls-3" d="M216.91,261.29c-8.83-.94-17.66-1.91-26.49-2.78-3.31-.33-6.64-.43-9.95-.63-.09-1.1.86-1.4,1.52-1.83,9.31-6,18.83-11.68,28.64-16.83a6.6,6.6,0,0,1,4.51-.52c1.86,1.14,3.32,2.33,3.06,5C217.62,249.52,217.32,255.41,216.91,261.29Z" transform="translate(-14.3 -205.98)"/><path class="cls-4" d="M215.14,238.7c-3.87-.23-6.65,2.35-9.7,4q-12.16,6.56-23.7,14.19c-.45.29-.85.66-1.27,1l-15.33-.14c1.92-.13,3.38-1.18,4.92-2.22,9.52-6.37,19.22-12.44,29.24-18a2.33,2.33,0,0,0,1.21-1C205.41,237,210.3,237.75,215.14,238.7Z" transform="translate(-14.3 -205.98)"/><path class="cls-3" d="M488.48,421.27a172,172,0,0,0,8.92,19.46c-12.09-2-24-.94-36-1.34-.92-4.45-3.18-8.39-4.74-12.59-2.12-5.68-4.17-11.32-3.73-17.57a38.28,38.28,0,0,1,3.35-12c2.38-5.73,5-11.37,7.44-17.06A5.66,5.66,0,0,1,466,377.6a82.34,82.34,0,0,0,13.18-10.28,34,34,0,0,0,5.85-7.48c.88-1.58,1.85-1.69,3.4-1.4,13.74,2.63,21.66,12.42,24.3,25.58,1.1,5.49,1,11.08,1.37,16.63.43,7.11.66,14.24.94,21.36a3.77,3.77,0,0,1-.29,2.49q-2.19-6.48-4.39-13c2.45-1.69,2.54-1.73,1.23-4.53-2.12-4.54-3.14-9.43-4.69-14.15-.33-1-.49-2.11-1.65-2.85-.37,1.06.2,1.77.49,2.49a79.65,79.65,0,0,1,4,13.15c.51,2.57.11,3.17-2.41,3.84-5.42,1.42-10.88,2.63-16.35,3.81-3.85.83-5.1.21-6.9-3.35a68.2,68.2,0,0,1-3.94-10.7,29,29,0,0,0,1.53,7.72,84,84,0,0,1,2.5,8.25c.37,1.76,1.14,2.71,2.93,2.8Z" transform="translate(-14.3 -205.98)"/><path class="cls-58" d="M487.08,418c-2.47,1.48-2.85,0-3.34-2.07-1.24-5.25-3.44-10.26-4.33-15.62-.05-.3-.18-.6-.21-.9-.06-.63-.1-1.34.68-1.54.93-.24,1,.63,1.06,1.15a52.89,52.89,0,0,0,2.9,9,16.16,16.16,0,0,0,.77,1.69c1.82,3.41,2.58,3.83,6.24,3,5.64-1.29,11.24-2.75,16.89-4,1.51-.34,1.87-.93,1.54-2.4a87.44,87.44,0,0,0-4.65-15c-.26-.62-1.23-1.6,0-2.15s1.68.36,2.07,1.29a50.27,50.27,0,0,1,2.33,7.29,48.52,48.52,0,0,0,4.16,11c.94,1.75.59,2.27-1.19,2.41a11,11,0,0,0-1.59.34C502.45,413.13,494.5,414.6,487.08,418Z" transform="translate(-14.3 -205.98)"/><path class="cls-59" d="M484.36,348.35a33.65,33.65,0,0,1,1.3,8.81c-4.79,8.48-12.12,14.36-20.08,19.58-.32.21-.68.36-1,.54a75,75,0,0,0,2.21-10.6,2.13,2.13,0,0,0-.11-1.57.89.89,0,0,1,.5-.95c3.49-2.29,6.79-4.92,10.6-6.65a8.62,8.62,0,0,0,5.12-5.87C483.2,350.49,483.16,349.12,484.36,348.35Z" transform="translate(-14.3 -205.98)"/><path class="cls-16" d="M195.66,485.53c-.33.27-.47.79-1.12.8-.2-1.28.81-2.15,1.1-3.23,9.61-18.33,19.22-36.65,29.11-55.49,8.62,30.91,17.12,61.36,25.61,91.8-4.55.5-9.11.13-13.66.21-3.33.06-6.66,0-10,0a2.11,2.11,0,0,1-.58-2.12c.61-4.17.64-8.41,1.42-12.57a53.74,53.74,0,0,0,.76-9.13c-.51-2.45-1.74-3.68-4.18-3.8a87.35,87.35,0,0,0-9,0c-2.42.12-3.65,1.38-4.13,3.84.28,6.88,1.56,13.66,2.11,20.51.09,1.14.49,2.31-.5,3.28l-20.36.06c-.8-.57-.63-1.38-.46-2.12,1.51-6.42,2.34-13,4.51-19.27,1-2.09,0-3.31-1.78-4.22,3.47-6.29,7.45-12.27,11.41-18.3a13.23,13.23,0,0,0-5,3.81A21.21,21.21,0,0,1,195.66,485.53Z" transform="translate(-14.3 -205.98)"/><path class="cls-1" d="M228.84,495.28c.48,3.25-.16,6.42-.74,9.6-.82-.92-1.22-.31-1.73.39-3.45,4.7-7.21,9.15-10.81,13.71-.53.67-1,1.41-1.92,1.61l-1-1c-.2-5.32-1.1-10.56-1.59-15.84-.25-2.82-1.13-5.6-.54-8.48a1.61,1.61,0,0,1,.84-.38c5.56-.27,11.12-.26,16.69,0A1.54,1.54,0,0,1,228.84,495.28Z" transform="translate(-14.3 -205.98)"/><path class="cls-60" d="M196.3,498.27c-.57,5.19-2.13,10.19-3,15.32-.34,2-1.2,4-1.07,6.07-1.6,1.49-3.55,1.58-5.6,1.5s-4.15,0-6.22,0c.79-2,.49-4.12.47-6.19a3.7,3.7,0,0,1,2.36-4C189,508.26,193,503.6,196.3,498.27Z" transform="translate(-14.3 -205.98)"/><path class="cls-61" d="M213.64,520.59l12.77-16.29c.35-.44.45-1.36,1.25-1.08s.26,1.1.44,1.66l-1.38,14.7a3,3,0,0,1-3.08,1.53C220.31,520.81,216.93,521.66,213.64,520.59Z" transform="translate(-14.3 -205.98)"/><path class="cls-62" d="M163.19,532,162,534.23c-1.22-1-2.9-1.17-4-2.33Z" transform="translate(-14.3 -205.98)"/><path class="cls-3" d="M53.41,482.78A13.36,13.36,0,0,1,67,496.25a13.75,13.75,0,0,1-13.59,13.69A13.49,13.49,0,0,1,39.9,496.31,13.24,13.24,0,0,1,53.41,482.78Z" transform="translate(-14.3 -205.98)"/><path class="cls-63" d="M375,472.1c-2.26-4.69-4.08-9.55-6.06-14.36-1.73-4.21-4.12-8-7.95-10.66a2.9,2.9,0,0,0-1.46-.66,13.79,13.79,0,0,0-5.49-2.17c.05-3.27.71-4.29,3.82-4.67a44.45,44.45,0,0,1,8.32-.6c2.24.15,3.69,1.61,5,3.08,4.34,5,6.82,11,9.12,17.11,1.35,3.55,2.29,7.21,3.33,10.86a13.54,13.54,0,0,0,3.3,5.79c.43.45,1.07,1,.83,1.56s-1.14.68-1.79.78C379.42,479.18,378.84,478.85,375,472.1Z" transform="translate(-14.3 -205.98)"/><path class="cls-64" d="M338.14,442.18a59.29,59.29,0,0,0,6.65-8.25c1.39,2.91,1.81,6.07,2.42,9.19C344.1,443.65,341.18,442.27,338.14,442.18Z" transform="translate(-14.3 -205.98)"/><path class="cls-50" d="M230.77,426.32c.82-2.19-.15-5.2,2.93-6.35,0,1.09,1,1.56,1.59,2.2q34.14,34.17,68.29,68.32a6.83,6.83,0,0,1,2,2.28c-3.2-2.08-5.86-4.82-8.74-7.28-10.38-8.87-20.68-17.84-31-26.79q-12.66-11-25.32-22c-2.93-2.54-5.9-5-8.85-7.54C231.34,428.23,231.05,427.28,230.77,426.32Z" transform="translate(-14.3 -205.98)"/><path class="cls-65" d="M310.7,468c-.5-2.87-2.19-5.26-3.27-7.89-1.26-3.06-2.75-6-4.34-9.47l10.82,3.7a32.66,32.66,0,0,1,3.65,7.94c.28,1.87,1.34,3.43,2.12,5.09.5,1.08.36,1.67-.68,2.23-1.77.94-3.48,2.75-5.22,2.76C311.83,472.4,312.34,469.15,310.7,468Z" transform="translate(-14.3 -205.98)"/><path class="cls-66" d="M317.56,462.32a25.92,25.92,0,0,1-3.65-7.94,68.37,68.37,0,0,1,8.95,2.83A49.18,49.18,0,0,1,317.56,462.32Z" transform="translate(-14.3 -205.98)"/><path class="cls-67" d="M423.61,530a17.4,17.4,0,0,1-5.25,3.33l1.26-3.82A4.27,4.27,0,0,0,423.61,530Z" transform="translate(-14.3 -205.98)"/><path class="cls-35" d="M484.36,348.35c-.5,1.69-1,3.4-1.51,5.08a5.9,5.9,0,0,1-3.19,3.8c-4.72,2-8.66,5.27-13,7.89-2.21,1.25-4.37,2.64-6.66,3.75-3.85,1.86-5.06,1.55-7.81-1.72-4.2-5-7.44-10.65-10.79-16.21-.48-.79-1-1.56-1.5-2.34-.46-1,.05-2,.3-2.92.86-3.21,1-6.56,2-9.76-.58-6.63-1.87-13.16-2.81-19.94.95.46,1,1.26,1.37,1.87,4.09,7.48,10.16,12.38,18.56,14.27,2.75.62,5,2.47,7.65,3.33a6.76,6.76,0,0,0,3.16.77c-5.46-2.35-10.24-4.84-14.19-8.73l5.4,2.4c4.08.81,8.07,2,12.17,2.67a12.16,12.16,0,0,0,1.81.27c.31,0,.54,0,.22,0v0a5.89,5.89,0,0,1-1.39-.06.43.43,0,0,1-.1-.61c1.62,0,3.48.43,4.81-.21s1-2.89,1.56-4.38c1.43-3.65,2.65-4.73,5.55-4.42s5.06,2.43,5.22,5.85c.22,4.5-1.2,8.68-3.21,12.66-.17.34-.46.81-.75.85C483.23,343,484.68,346.1,484.36,348.35Z" transform="translate(-14.3 -205.98)"/><path class="cls-68" d="M453.61,439.27c-1.68.52-1.07,1.7-.55,2.56a4.59,4.59,0,0,1-.12,5.41c-.73,1.05-.26,2.26-.51,3.37l-5.4-.13a3.33,3.33,0,0,0-.87-3.33,3.45,3.45,0,0,1-.26-4.88c1.29-1.41.91-2.62.39-4A36.26,36.26,0,0,0,453.61,439.27Z" transform="translate(-14.3 -205.98)"/><path class="cls-69" d="M442.18,335.92a33.89,33.89,0,0,1-2.28,12.68c-3.39-2-3.67-2.94-1.91-6.27A48.35,48.35,0,0,1,442.18,335.92Z" transform="translate(-14.3 -205.98)"/><path class="cls-70" d="M474,332.13c0,.12,0,.24,0,.36a25.63,25.63,0,0,1-12.21-3.09c-5.63-2.43-10.59-5.69-13.73-11.27.33.32.69.61,1,1,6.25,7.11,14.21,11.05,23.48,12.52C473.09,331.7,473.69,331.52,474,332.13Z" transform="translate(-14.3 -205.98)"/><path class="cls-71" d="M456.13,329.63a23,23,0,0,1-10.95-13.47A46.32,46.32,0,0,0,456.13,329.63Z" transform="translate(-14.3 -205.98)"/><path class="cls-72" d="M461.83,329.4A61.75,61.75,0,0,0,474,332.49l2.73.24a32,32,0,0,1-15.45-2.84Z" transform="translate(-14.3 -205.98)"/><path class="cls-64" d="M239.59,408.61c6,1.9,9.43,6.36,11.85,11.85Q245.25,414.81,239.59,408.61Z" transform="translate(-14.3 -205.98)"/><path class="cls-73" d="M330.29,353.3c0-1.52-.11-3.06,0-4.56a3.32,3.32,0,0,1,2.27-3c1.23-.38,2.21.4,3,1.25a4.88,4.88,0,0,1-.29,7.35c-.43.34-.86.82-1.42.46s-.31-.95-.08-1.45a7.08,7.08,0,0,0,.46-1.06,1.32,1.32,0,0,0-.64-1.59c-.65-.42-1,.13-1.33.53-.56.7-1,1.48-1.54,2.22Z" transform="translate(-14.3 -205.98)"/><path class="cls-74" d="M257.83,415.81l9.82-.27c2,3,2.16,6.52,2.38,10C265.6,422.75,261,420.21,257.83,415.81Z" transform="translate(-14.3 -205.98)"/><path class="cls-75" d="M195.66,485.53a30,30,0,0,1,5.27-6c.24.17,1,0,.57.6-1.86,2.32-3.8,4.56-5.77,6.91C195.22,486.34,195.65,486,195.66,485.53Z" transform="translate(-14.3 -205.98)"/><path class="cls-76" d="M228.84,495.28H210.48a4.33,4.33,0,0,1,4.4-4.07c3.18-.07,6.38-.07,9.56,0A4.3,4.3,0,0,1,228.84,495.28Z" transform="translate(-14.3 -205.98)"/><path class="cls-39" d="M481.69,334.82a11.08,11.08,0,0,1,1.7-5.11,3,3,0,0,1,5.22.37c1.36,2.9.16,6.26-2.58,7.22-.52.18-1,.48-1.44-.14s0-.87.31-1.23a4.43,4.43,0,0,0,.59-.72c.31-.59.94-1.22.19-1.86s-1.43-.3-2.09.24S482.75,334.72,481.69,334.82Z" transform="translate(-14.3 -205.98)"/><path class="cls-77" d="M449.64,441.34a3.06,3.06,0,0,1,3,3.21,3.09,3.09,0,1,1-6.16-.22A3.07,3.07,0,0,1,449.64,441.34Z" transform="translate(-14.3 -205.98)"/></svg>