<svg xmlns="http://www.w3.org/2000/svg" xmlns:xlink="http://www.w3.org/1999/xlink" viewBox="0 0 559.29 444.61"><defs><style>.cls-1{mask:url(#mask);}.cls-11,.cls-12,.cls-13,.cls-2,.cls-27,.cls-29,.cls-3,.cls-30,.cls-39,.cls-40,.cls-45,.cls-5,.cls-51,.cls-55,.cls-57,.cls-61,.cls-66,.cls-67,.cls-68,.cls-69,.cls-7,.cls-71,.cls-77,.cls-83{mix-blend-mode:multiply;}.cls-2{fill:url(#linear-gradient);}.cls-3{fill:url(#linear-gradient-2);}.cls-4{mask:url(#mask-3);}.cls-5{fill:url(#linear-gradient-3);}.cls-6{mask:url(#mask-4);}.cls-7{fill:url(#linear-gradient-4);}.cls-8{isolation:isolate;}.cls-57,.cls-67,.cls-80,.cls-9{opacity:0.4;}.cls-9{fill:url(#linear-gradient-5);}.cls-10,.cls-12,.cls-42{fill:#4aaee2;}.cls-10,.cls-12,.cls-17,.cls-26,.cls-40,.cls-51,.cls-70{opacity:0.5;}.cls-13,.cls-27,.cls-29,.cls-53,.cls-55,.cls-81,.cls-83{opacity:0.6;}.cls-14{fill:#409dcf;}.cls-15{mask:url(#mask-5);}.cls-16,.cls-17,.cls-31,.cls-36,.cls-42,.cls-53,.cls-70,.cls-74,.cls-80{mix-blend-mode:screen;}.cls-16{fill:url(#linear-gradient-6);}.cls-17,.cls-23,.cls-26,.cls-81{fill:#fff;}.cls-18{fill:#c9e8fa;}.cls-19{mask:url(#mask-7);}.cls-20{fill:url(#linear-gradient-7);}.cls-21{mask:url(#mask-8);}.cls-22{opacity:0.8;}.cls-24{fill:#242526;}.cls-25{fill:#3b3b3c;}.cls-27{fill:#9d8265;}.cls-28,.cls-29,.cls-30,.cls-31{fill:#a3a5a9;}.cls-32{fill:#d1d2d3;}.cls-33{fill:#808284;}.cls-34{fill:#f4a61d;}.cls-35,.cls-36{fill:#e77024;}.cls-37,.cls-40{fill:#238441;}.cls-38{fill:#84a747;}.cls-39,.cls-77{opacity:0.7;}.cls-41{mix-blend-mode:color-dodge;}.cls-43{fill:#d6906e;}.cls-44,.cls-45{fill:#fedec1;}.cls-46{fill:#babdbe;}.cls-47{fill:#e3e5e5;}.cls-48{fill:#cf7e5b;}.cls-49,.cls-70{fill:#fdd3b7;}.cls-50,.cls-53{fill:#9fcbed;}.cls-51{fill:#bfcde0;}.cls-52{fill:#26a2d2;}.cls-54,.cls-55{fill:#d2d3d4;}.cls-56,.cls-57,.cls-71,.cls-74{fill:#343332;}.cls-58{fill:#010101;}.cls-59{fill:#d02027;}.cls-60{fill:#6a0c0d;}.cls-61{fill:#7e1416;}.cls-62{fill:#444443;}.cls-63,.cls-69{fill:#ba8058;}.cls-64,.cls-66{fill:#f3ccab;}.cls-65{fill:none;}.cls-68{fill:#eec7ad;}.cls-72{fill:#d3d3d3;}.cls-73{fill:#53c2c5;}.cls-75{fill:#0c0c0c;}.cls-76{fill:#1d1d1b;}.cls-77{fill:#f3d8c4;}.cls-78{fill:#a43145;}.cls-79{fill:#ef7174;}.cls-80{fill:#fde2df;}.cls-82{fill:#cdd0d0;}.cls-83{fill:#b3b5b8;}.cls-84{filter:url(#luminosity-noclip-7);}.cls-85{filter:url(#luminosity-noclip-6);}.cls-86{filter:url(#luminosity-noclip-4);}.cls-87{filter:url(#luminosity-noclip-3);}.cls-88{filter:url(#luminosity-noclip);}</style><filter id="luminosity-noclip" x="50.36" y="-8588" width="52.85" height="32766" filterUnits="userSpaceOnUse" color-interpolation-filters="sRGB"><feFlood flood-color="#fff" result="bg"/><feBlend in="SourceGraphic" in2="bg"/></filter><mask id="mask" x="50.36" y="-8588" width="52.85" height="32766" maskUnits="userSpaceOnUse"><g class="cls-88"/></mask><linearGradient id="linear-gradient" x1="86.69" y1="268.5" x2="50.34" y2="268.5" gradientUnits="userSpaceOnUse"><stop offset="0.43"/><stop offset="0.5" stop-color="#040404"/><stop offset="0.57" stop-color="#101010"/><stop offset="0.64" stop-color="#252525"/><stop offset="0.72" stop-color="#424242"/><stop offset="0.79" stop-color="#676767"/><stop offset="0.86" stop-color="#959595"/><stop offset="0.94" stop-color="#cacaca"/><stop offset="1" stop-color="#fff"/></linearGradient><linearGradient id="linear-gradient-2" x1="86.69" y1="268.5" x2="50.34" y2="268.5" gradientUnits="userSpaceOnUse"><stop offset="0.02"/><stop offset="0.18" stop-color="#4e4e4e"/><stop offset="0.4" stop-color="#adadad"/><stop offset="0.55" stop-color="#e8e8e8"/><stop offset="0.62" stop-color="#fff"/></linearGradient><filter id="luminosity-noclip-3" x="49.65" y="-8588" width="176.07" height="32766" filterUnits="userSpaceOnUse" color-interpolation-filters="sRGB"><feFlood flood-color="#fff" result="bg"/><feBlend in="SourceGraphic" in2="bg"/></filter><mask id="mask-3" x="49.65" y="-8588" width="176.07" height="32766" maskUnits="userSpaceOnUse"><g class="cls-87"/></mask><linearGradient id="linear-gradient-3" x1="137.68" y1="181.98" x2="137.68" y2="172.87" gradientUnits="userSpaceOnUse"><stop offset="0.63"/><stop offset="0.73" stop-color="#4c4c4c"/><stop offset="0.86" stop-color="#acacac"/><stop offset="0.96" stop-color="#e8e8e8"/><stop offset="1" stop-color="#fff"/></linearGradient><filter id="luminosity-noclip-4" x="50.18" y="-8588" width="175.54" height="32766" filterUnits="userSpaceOnUse" color-interpolation-filters="sRGB"><feFlood flood-color="#fff" result="bg"/><feBlend in="SourceGraphic" in2="bg"/></filter><mask id="mask-4" x="50.18" y="-8588" width="175.54" height="32766" maskUnits="userSpaceOnUse"><g class="cls-86"/></mask><linearGradient id="linear-gradient-4" x1="137.95" y1="170.95" x2="137.95" y2="184.85" gradientUnits="userSpaceOnUse"><stop offset="0.15"/><stop offset="0.91" stop-color="#fff"/></linearGradient><linearGradient id="linear-gradient-5" x1="50.22" y1="269.6" x2="222.32" y2="269.6" gradientUnits="userSpaceOnUse"><stop offset="0" stop-color="#fff"/><stop offset="0.55" stop-color="#fafbfa"/><stop offset="0.93" stop-color="#f3f4f2"/></linearGradient><mask id="mask-5" x="24.01" y="5.38" width="52.85" height="178.85" maskUnits="userSpaceOnUse"><g transform="translate(-26.36 -173.7)"><g class="cls-1"><path class="cls-2" d="M85,325V179.08H59.15s-7.23,2.55-8.79,3.62v.49s0,.08.14.08c9.36.49,8.65,6.58,8.65,6.58V322.4c0,42.1,21.4,35.09,43.38,35.09C107.35,357.49,85,353.45,85,325Z"/></g></g></mask><filter id="luminosity-noclip-5" x="50.36" y="179.08" width="52.85" height="178.85" filterUnits="userSpaceOnUse" color-interpolation-filters="sRGB"><feFlood flood-color="#fff" result="bg"/><feBlend in="SourceGraphic" in2="bg"/></filter><linearGradient id="linear-gradient-6" x1="86.69" y1="268.5" x2="50.34" y2="268.5" gradientUnits="userSpaceOnUse"><stop offset="0.02" stop-color="#f3f4f2"/><stop offset="0.62" stop-color="#fff"/></linearGradient><filter id="luminosity-noclip-6" x="49.65" y="173.7" width="176.07" height="2.69" filterUnits="userSpaceOnUse" color-interpolation-filters="sRGB"><feFlood flood-color="#fff" result="bg"/><feBlend in="SourceGraphic" in2="bg"/></filter><mask id="mask-7" x="23.29" y="0" width="176.07" height="2.69" maskUnits="userSpaceOnUse"><g class="cls-85"><g transform="translate(-26.36 -173.7)"><g class="cls-4"><path class="cls-5" d="M225.72,176.39a4.15,4.15,0,0,0-3.83-2.69H59.43c-6.67,0-8.07,1.13-9.78,2.69Z"/></g></g></g></mask><linearGradient id="linear-gradient-7" x1="137.68" y1="181.98" x2="137.68" y2="172.87" gradientUnits="userSpaceOnUse"><stop offset="0.63" stop-color="#fff"/><stop offset="0.78" stop-color="#c1c1c1"/><stop offset="0.93" stop-color="#858585"/><stop offset="1" stop-color="#6e6e6e"/></linearGradient><filter id="luminosity-noclip-7" x="50.18" y="179.08" width="175.54" height="4.11" filterUnits="userSpaceOnUse" color-interpolation-filters="sRGB"><feFlood flood-color="#fff" result="bg"/><feBlend in="SourceGraphic" in2="bg"/></filter><mask id="mask-8" x="23.82" y="5.38" width="175.54" height="4.11" maskUnits="userSpaceOnUse"><g class="cls-84"><g transform="translate(-26.36 -173.7)"><g class="cls-6"><path class="cls-7" d="M223.88,179.64h-168c-3.26,0-4.4.72-5,1.64-.14.21-1.42,1.91-.28,1.91,2.4,0-.15-1.42,11.76-1.42H221.89a4.15,4.15,0,0,0,3.83-2.69h-.14A3,3,0,0,1,223.88,179.64Z"/></g></g></g></mask></defs><g class="cls-8"><g id="Layer_1" data-name="Layer 1"><path class="cls-9" d="M216.36,178.65v-.41H60.28c0,.13-.14.27-.14.41l-9.92,1.42v1.85a4.19,4.19,0,0,1,.14,1.35c1,0,8.79.35,8.79,6.58V340.26c0,11.34,9.78,20.7,21.26,20.7H196.8a20.71,20.71,0,0,0,20.69-20.7V188.72c.43-6,4.83-6.95,4.83-6.95v-3.12Z" transform="translate(-26.36 -173.7)"/><path class="cls-10" d="M59.15,221.61V340.26c0,11.34,9.78,20.7,21.26,20.7H196.8a20.71,20.71,0,0,0,20.69-20.7V221.61Z" transform="translate(-26.36 -173.7)"/><g class="cls-11"><path class="cls-12" d="M217.35,223.74l.14-2.13H59.15a9.89,9.89,0,0,1,0,2.13Z" transform="translate(-26.36 -173.7)"/></g><g class="cls-13"><path class="cls-14" d="M207.28,221.61v71c0,20.13,3.84,46.5-14,55-24.09,11.28-80.51,10.71-105,0C67,338.27,69.79,311.56,68.37,289.79c-1-17.43-.14-35-.14-52.45V221.61H59.15V340.26c0,11.34,9.78,20.7,21.26,20.7H196.8a20.71,20.71,0,0,0,20.69-20.7V221.61Z" transform="translate(-26.36 -173.7)"/></g><g class="cls-15"><g class="cls-15"><path class="cls-16" d="M85,325V179.08H59.15s-7.23,2.55-8.79,3.62v.49s0,.08.14.08c9.36.49,8.65,6.58,8.65,6.58V322.4c0,42.1,21.4,35.09,43.38,35.09C107.35,357.49,85,353.45,85,325Z" transform="translate(-26.36 -173.7)"/></g></g><path class="cls-17" d="M70.35,189.29c-.29,58-2.41,95.83-2,120.57H85V202.48C82.4,195.1,77.86,191.27,70.35,189.29Z" transform="translate(-26.36 -173.7)"/><path class="cls-17" d="M68.51,316.16c1,22.4,5,32.32,16.44,36.65V316.16Z" transform="translate(-26.36 -173.7)"/><path class="cls-18" d="M226,177.66a4.11,4.11,0,0,1-4.11,4.11H62.41c-11.91,0-9.22,1.42-11.76,1.42-5.1,0-3.83-9.49,6.66-9.49H221.89a4.07,4.07,0,0,1,4.11,4Z" transform="translate(-26.36 -173.7)"/><g class="cls-19"><path class="cls-20" d="M225.72,176.39a4.15,4.15,0,0,0-3.83-2.69H59.43c-6.67,0-8.07,1.13-9.78,2.69Z" transform="translate(-26.36 -173.7)"/></g><g class="cls-21"><path class="cls-10" d="M223.88,179.64h-168c-3.26,0-4.4.72-5,1.64-.14.21-1.42,1.91-.28,1.91,2.4,0-.15-1.42,11.76-1.42H221.89a4.15,4.15,0,0,0,3.83-2.69h-.14A3,3,0,0,1,223.88,179.64Z" transform="translate(-26.36 -173.7)"/></g><g class="cls-22"><path class="cls-23" d="M217.78,176h-2c-1.28.14-3.12.29-5.4.43s-5.23.29-8.5.42c-1.7.14-3.39.28-5.24.28a18,18,0,0,1-2.84,0h-3c-16.16,0-37.7,0-59.25-.14-10.77,0-21.54,0-31.61-.14H72.33a20.66,20.66,0,0,1-3-.13c-1,0-2-.15-2.84-.15-1.84-.14-3.69-.28-5.24-.28-1.7-.15-3.26-.29-4.68-.29a15.31,15.31,0,0,0-3.69.29,7.44,7.44,0,0,0-2.84,1.13,3.66,3.66,0,0,0-1.27,1.84,4.58,4.58,0,0,0,0,1.42,1,1,0,0,0,.14.5.75.75,0,0,1-.14-.5,3.6,3.6,0,0,1-.14-1.42,4,4,0,0,1,1.14-2.13,7.23,7.23,0,0,1,3-1.41A15.7,15.7,0,0,1,56.6,175c1.42,0,3-.14,4.68-.28,1.55,0,3.4-.15,5.24-.29.85,0,1.85-.14,2.84-.14a21,21,0,0,1,3,0H100c10.07,0,20.84,0,31.61.14,21.55,0,43.09.14,59.25.14h5.82c1.85.15,3.54.29,5.24.29,3.27.28,6.1.43,8.5.56s4.12.29,5.4.43A11.33,11.33,0,0,1,217.78,176Z" transform="translate(-26.36 -173.7)"/></g><path class="cls-24" d="M33.06,551.91a7.37,7.37,0,0,1-3.12-.78A6.87,6.87,0,0,1,27.11,542l26.23-50.47v-127a6.81,6.81,0,0,1,13.61,0V493.22a6.34,6.34,0,0,1-.86,3.12L39,548.23A6.63,6.63,0,0,1,33.06,551.91Z" transform="translate(-26.36 -173.7)"/><path class="cls-24" d="M250.24,551.91a6.66,6.66,0,0,1-6-3.68l-27.06-51.89a6.45,6.45,0,0,1-.86-3.12V364.5a6.9,6.9,0,0,1,6.8-6.8,6.8,6.8,0,0,1,6.81,6.8v127L256.19,542a6.85,6.85,0,0,1-2.83,9.14A7.3,7.3,0,0,1,250.24,551.91Z" transform="translate(-26.36 -173.7)"/><path class="cls-24" d="M138,474.09a6.72,6.72,0,0,1-6.8-6.81V368.61a6.71,6.71,0,0,1,6.8-6.8,6.81,6.81,0,0,1,6.8,6.8v98.67A6.81,6.81,0,0,1,138,474.09Z" transform="translate(-26.36 -173.7)"/><path class="cls-25" d="M243.44,366.06a9.29,9.29,0,0,1-9.21,9.22H48.94a9.27,9.27,0,0,1-9.08-9.22h0a9.18,9.18,0,0,1,9.08-9.21H234.23a9.19,9.19,0,0,1,9.21,9.21Z" transform="translate(-26.36 -173.7)"/><path class="cls-26" d="M150.73,364.5a4.49,4.49,0,0,1-4.54,4.54H53.62a4.61,4.61,0,0,1-4.68-4.54h0A4.61,4.61,0,0,1,53.62,360h92.57a4.49,4.49,0,0,1,4.54,4.54Z" transform="translate(-26.36 -173.7)"/><path class="cls-27" d="M223.16,544.12c0,4.25-36.71,7.58-82.07,7.58s-81.94-3.33-81.94-7.58,36.71-7.66,81.94-7.66S223.16,539.85,223.16,544.12Z" transform="translate(-26.36 -173.7)"/><path class="cls-23" d="M140,447a3.55,3.55,0,0,1-2.56-1.13,3.32,3.32,0,0,1,.28-4.54c.29-.27,3-4.38-.84-17.85-5.53-19.21,2.83-24.24,3.82-24.67a3.26,3.26,0,1,1,3,5.81h0s-4.54,3.26-.57,17c5.25,18.15,0,23.68-1.13,24.67A3.34,3.34,0,0,1,140,447Z" transform="translate(-26.36 -173.7)"/><path class="cls-28" d="M152.29,453.39v-.29H127.62v.29C68.23,459.2,80.41,540,80.41,540H199.49S211.68,459.2,152.29,453.39Z" transform="translate(-26.36 -173.7)"/><path class="cls-29" d="M152.29,453.39v-.29H134.71c12,2.84,23.53,9.36,31.33,18.57,16,18.29,15.87,44.52,16.44,68.33h17S211.68,459.2,152.29,453.39Z" transform="translate(-26.36 -173.7)"/><path class="cls-30" d="M80,537c.27,1.85.41,3,.41,3H199.49s.15-1.13.29-3Z" transform="translate(-26.36 -173.7)"/><path class="cls-28" d="M202.47,542a3.33,3.33,0,0,1-3.41,3.26H80.84A3.25,3.25,0,0,1,77.43,542h0a3.34,3.34,0,0,1,3.41-3.27H199.06a3.43,3.43,0,0,1,3.41,3.27Z" transform="translate(-26.36 -173.7)"/><path class="cls-31" d="M135.84,456.72s-41-.64-48.34,39.76c0,0-4,13-2.41,35.65h19.15S97.28,474.22,135.84,456.72Z" transform="translate(-26.36 -173.7)"/><path class="cls-32" d="M144.77,434h-9.63c-23,1.42-18.29,20.55-18.29,20.55h46.08S167.74,435.39,144.77,434Z" transform="translate(-26.36 -173.7)"/><path class="cls-30" d="M116.71,453.81a2.48,2.48,0,0,1,.14.71h46.08a1.89,1.89,0,0,0,.13-.71Z" transform="translate(-26.36 -173.7)"/><path class="cls-33" d="M164.2,455c0,.36-.72.78-1.42.78H117c-.71,0-1.28-.42-1.28-.78h0c0-.49.57-.78,1.28-.78h45.79c.7,0,1.42.29,1.42.78Z" transform="translate(-26.36 -173.7)"/><path class="cls-31" d="M138.4,434.82s-15.88-.15-18.72,9.35c0,0-1.7,3.12-1,8.51h7.37S123.37,438.93,138.4,434.82Z" transform="translate(-26.36 -173.7)"/><path class="cls-34" d="M140.09,431.63s-16.29,1.42-15.45-10.43c.72-12-1.7-16.09-4.39-16.09s7.08-3.75,9.92,4.05c0,0-8.08-19.14,5-19.85,14.88-.85,18.28-7.58,18.28-7.58s12.9,12,6.38,16.65-5.81,17-5.81,17,2.41-9.79,4.81-9.79l2,12.2C162.21,426.45,154.41,434.1,140.09,431.63Z" transform="translate(-26.36 -173.7)"/><path class="cls-35" d="M148.74,401.36a26.65,26.65,0,0,1,.86-6.81c-6.53,3.83-5.11,12.48-6,10.07-3.55-9.08-7.95-6.1-10.64-5.81a11.79,11.79,0,0,1,2.42,11.83c-1.42,4.33-4.82,7-4.11,12,.42,3.54,1.84,7.5,5,9a18.66,18.66,0,0,0,3.82,0,26.61,26.61,0,0,0,8.09.21,12.3,12.3,0,0,0,3-1.63c6.8-4.75,2.69-13,.41-18.36C150.15,408.52,148.74,405.19,148.74,401.36Z" transform="translate(-26.36 -173.7)"/><path class="cls-36" d="M134.71,390.44s-7.24.72-6,9.93c1.14,7.66,4.12,12.05.86,15.45,0,0,4.81-1.56,3.82-8S127.9,394.55,134.71,390.44Z" transform="translate(-26.36 -173.7)"/><path class="cls-36" d="M157,388.18s4.11,2.84,2.69,7.23-6.1,5.53-6.24,12.89c0,0-2.41-5.66,1.42-9.92S158,390.59,157,388.18Z" transform="translate(-26.36 -173.7)"/><path class="cls-37" d="M162.5,328.78S154.7,336,140,334.24l1.69-1.42s-12.33-1.84-15.16-5.75c-.72-1.41,1.41-1.13,1.41-1.13s-7.08-2.12-9.92-5.81l1.28-.56h0s-5.53-3.41-7.52-6.24l2-.93a21.06,21.06,0,0,1-7.94-10.56l1.84.15a29.05,29.05,0,0,1-4.25-6.66c1.84-.72,3.12-1.29,3.12-1.29A24.83,24.83,0,0,1,103,279l2.13.2s-1-6,1.27-10.77a6.74,6.74,0,0,1,2.41.42,23.23,23.23,0,0,1,3.84-14.74c1,1.41,1.42,2.05,1.42,2.05a30.51,30.51,0,0,1,2.83-8.14,33,33,0,0,1,6.23,5.38l.14-2.26s7.52,1.84,12.76,6.58a7.22,7.22,0,0,0,0-3s6.24,1.27,10.92,8.15c-.57-2.62-.42-3.2,0-2.91s6.24,4.4,8.65,10.64c.71-2.28,4-1.56,6.8,8.29l.43-1.78s5.24,3.55,4.82,12.2l.85-1S176.53,303.83,162.5,328.78Z" transform="translate(-26.36 -173.7)"/><g class="cls-11"><path class="cls-38" d="M162.5,328.78s-1.28-.71-3.27-2.12c-1-.72-2.12-1.56-3.54-2.7s-2.83-2.27-4.39-3.69-3.41-3-5.11-4.68-3.54-3.54-5.24-5.59-3.55-4.11-5.26-6.39c-.41-.49-.7-1.06-1.13-1.62a13.72,13.72,0,0,1-1.27-1.71c-.85-1.13-1.56-2.4-2.41-3.53-.71-1.29-1.42-2.42-2.27-3.7s-1.28-2.4-2-3.68-1.27-2.48-1.85-3.69-1.13-2.55-1.7-3.76c-.42-1.2-1-2.4-1.42-3.61s-.84-2.41-1.13-3.54a30,30,0,0,1-1-3.41c-.28-1.13-.57-2.26-.85-3.25a24.41,24.41,0,0,1-.57-3c-.14-1-.43-1.84-.57-2.69-.14-1.7-.41-3.26-.41-4.47a37.54,37.54,0,0,1-.29-3.9s.14,1.41.42,3.9c0,1.21.42,2.69.57,4.39.14.86.43,1.77.57,2.63s.42,2,.7,3,.57,2.12.86,3.25a32.39,32.39,0,0,0,1.13,3.41c.29,1.13.71,2.27,1.14,3.55.56,1.13,1,2.33,1.56,3.53a37.46,37.46,0,0,0,1.56,3.7c.55,1.19,1.27,2.4,2,3.68s1.28,2.4,2,3.54a33.08,33.08,0,0,0,2.27,3.69c.71,1.13,1.41,2.4,2.27,3.54a11.64,11.64,0,0,1,1.13,1.7l1.28,1.7c1.7,2.12,3.4,4.25,5.11,6.31s3.54,3.9,5.24,5.6,3.4,3.26,4.95,4.82c1.57,1.41,3,2.56,4.26,3.69s2.55,2.12,3.55,2.83C161.36,328.07,162.5,328.78,162.5,328.78Z" transform="translate(-26.36 -173.7)"/><path class="cls-38" d="M156.68,324.81a6.39,6.39,0,0,1,.14-1.13c0-.29.15-.72.15-1.13s.14-1,.27-1.56a7.71,7.71,0,0,1,.15-1.85,10.9,10.9,0,0,0,.14-2.13,10.8,10.8,0,0,1,.14-2.12v-2.41a12.75,12.75,0,0,0-.14-2.27v-2.12a11.73,11.73,0,0,1-.14-2.14c0-.7-.15-1.27-.15-1.84-.13-1.2-.27-2.12-.27-2.84a5.5,5.5,0,0,1-.15-1,4.18,4.18,0,0,1,.29,1c.13.72.28,1.56.56,2.71a9.11,9.11,0,0,0,.29,1.91c0,.64.14,1.34.14,2.05s.14,1.56.28,2.27v4.68a11.52,11.52,0,0,0-.14,2.26c-.14.57-.14,1.42-.28,2s-.14,1.42-.29,1.85a22.28,22.28,0,0,1-.7,2.83C156.82,324.38,156.68,324.81,156.68,324.81Z" transform="translate(-26.36 -173.7)"/><path class="cls-38" d="M146.76,315.73a8.72,8.72,0,0,0,.28-1.27c.15-.85.28-2,.57-3.4.14-1.41.43-3.12.57-4.9a16.61,16.61,0,0,0,.28-2.75,19.11,19.11,0,0,0,.28-2.84,20.27,20.27,0,0,1,.14-2.84v-5.38c-.14-.86-.14-1.56-.29-2.27a7.46,7.46,0,0,0-.27-1.92,4.59,4.59,0,0,0-.28-1.48,9.37,9.37,0,0,0-.29-1.27l.43,1.27a10.21,10.21,0,0,1,.41,1.42,19,19,0,0,1,.43,2c.15.71.29,1.41.43,2.27s.15,1.69.15,2.55v2.83a17.16,17.16,0,0,1-.15,2.84c-.14,2-.28,3.9-.57,5.67-.14.92-.29,1.85-.42,2.55q-.21,1.29-.42,2.34a24.26,24.26,0,0,1-.85,3.33A3.48,3.48,0,0,1,146.76,315.73Z" transform="translate(-26.36 -173.7)"/><path class="cls-38" d="M113.87,300.57a9.37,9.37,0,0,1,1.42,1,45.32,45.32,0,0,0,3.68,2.69c.86.57,1.56,1.13,2.55,1.7a29.21,29.21,0,0,0,2.83,1.92c1,.63,2.14,1.27,3.12,1.91s2.14,1.21,3.27,1.84,2.26,1.14,3.26,1.71a35.52,35.52,0,0,1,3.4,1.56c1,.28,2.13.84,3.12,1.13a12.71,12.71,0,0,0,2.84,1c1,.28,1.7.43,2.54.71a12,12,0,0,0,2,.43c1,.28,1.71.42,1.71.42s-.72-.14-1.85-.29a16.17,16.17,0,0,1-2-.27,19.93,19.93,0,0,1-2.4-.57,23.8,23.8,0,0,1-3-.85,28.1,28.1,0,0,1-3.26-1.14c-1.14-.42-2.13-1-3.26-1.42-1.28-.56-2.27-1.27-3.41-1.77s-2.26-1.2-3.39-1.83-2-1.35-3-2a24.06,24.06,0,0,1-2.84-2c-1-.64-1.7-1.2-2.55-1.77C115.71,302.27,113.87,300.57,113.87,300.57Z" transform="translate(-26.36 -173.7)"/><path class="cls-38" d="M126.77,320.13l1.28.86c.84.41,2.12,1.13,3.68,1.83a12.15,12.15,0,0,0,2.41,1.14,17.12,17.12,0,0,0,2.84,1.28,21.37,21.37,0,0,0,3.11,1,27.41,27.41,0,0,0,3.12,1c1.13.28,2.27.57,3.27.71s2.26.42,3.26.5c.56,0,1,.06,1.56.06a8.44,8.44,0,0,0,1.42.14c1,0,1.83.08,2.83,0a21.74,21.74,0,0,1,2.27-.2c.56-.08,1.27-.21,1.7-.29,1-.21,1.56-.29,1.56-.29a11.26,11.26,0,0,1-1.56.43,13.14,13.14,0,0,0-1.7.43c-.71.07-1.42.21-2.27.29s-1.85.06-2.83.21H151.3c-.57,0-1.15-.15-1.7-.15-1-.06-2.14-.28-3.27-.43a25.66,25.66,0,0,1-3.26-.7,20.58,20.58,0,0,1-3.25-1c-1.15-.42-2.14-.7-3.12-1.13s-1.85-.85-2.84-1.27c-.71-.43-1.56-.85-2.27-1.28-1.55-.85-2.7-1.56-3.54-2.12A8.51,8.51,0,0,1,126.77,320.13Z" transform="translate(-26.36 -173.7)"/><path class="cls-38" d="M108.91,281.29a6.67,6.67,0,0,1,1,1.14c.57.78,1.55,1.83,2.56,3.11.55.57,1.27,1.28,1.84,2l2.12,2.13c.72.84,1.56,1.55,2.27,2.26s1.7,1.56,2.55,2.27a32.43,32.43,0,0,0,2.56,2.13c.84.7,1.7,1.41,2.54,2a28.07,28.07,0,0,0,2.55,1.69,18.9,18.9,0,0,0,2.28,1.42,15.05,15.05,0,0,0,2.12,1,4.06,4.06,0,0,0,1.56.7,7.16,7.16,0,0,0,1.42.57s-.58-.14-1.56-.43a10.22,10.22,0,0,1-1.56-.57c-.71-.27-1.42-.56-2.13-.85l-2.54-1.27-2.57-1.7c-.84-.56-1.69-1.28-2.54-2s-1.85-1.43-2.69-2.13-1.71-1.56-2.41-2.28a17.87,17.87,0,0,1-2.28-2.4,20.85,20.85,0,0,1-2.12-2.2c-.57-.71-1.13-1.42-1.7-2.06-1-1.34-1.85-2.48-2.41-3.33S108.91,281.29,108.91,281.29Z" transform="translate(-26.36 -173.7)"/><path class="cls-38" d="M130.31,295.6l.43-1.27c.14-.7.57-1.85.85-3.25a8,8,0,0,0,.57-2.14,12.79,12.79,0,0,0,.57-2.4c.27-1.71.7-3.47,1-5.25l.14-1.42a4.15,4.15,0,0,0,.14-1.34,17.76,17.76,0,0,0,.29-2.63,17.24,17.24,0,0,0,.27-2.41v-2.27a9.45,9.45,0,0,0,.15-2c0-.57-.15-1-.15-1.42v-1.27a4.16,4.16,0,0,1,.15,1.27c.14.42.14.85.28,1.42v2a11.45,11.45,0,0,1,0,2.27,6.5,6.5,0,0,1,0,2.41,16.33,16.33,0,0,1-.14,2.69c0,.5-.14.93-.14,1.42l-.29,1.35c-.13.93-.28,1.85-.42,2.76s-.42,1.78-.57,2.63c-.56,1.62-1,3.18-1.41,4.46a31,31,0,0,1-1.14,3.12A11.79,11.79,0,0,0,130.31,295.6Z" transform="translate(-26.36 -173.7)"/><path class="cls-38" d="M111.88,271.51a3.42,3.42,0,0,1,.43.57,13,13,0,0,0,1.42,1.56c.57.7,1.13,1.41,1.85,2.26a10.94,10.94,0,0,1,1.13,1.13c.43.43.7.86,1.13,1.28s.85.78,1.27,1.21c.15.21.43.42.57.63a2.36,2.36,0,0,1,.57.57,21.28,21.28,0,0,1,2.13,2,9.19,9.19,0,0,1,1.56,1.29c.41.35.7.56.7.56a5.48,5.48,0,0,1-.7-.43c-.43-.27-1-.64-1.85-1.13a5.69,5.69,0,0,1-1-.85c-.42-.28-.85-.71-1.27-1a16.29,16.29,0,0,1-1.29-1.13c-.42-.42-.85-.85-1.13-1.2a6.11,6.11,0,0,1-1.13-1.21,8.12,8.12,0,0,1-1.13-1.27c-.72-.86-1.28-1.7-1.85-2.41A15,15,0,0,1,111.88,271.51Z" transform="translate(-26.36 -173.7)"/><path class="cls-38" d="M121.81,278.45a3.29,3.29,0,0,0,.43-.7,11.8,11.8,0,0,0,.84-1.85,15.93,15.93,0,0,0,1.14-2.83c.13-.43.28-1,.42-1.56s.29-1.14.43-1.71.14-1.13.29-1.69.14-1.14.28-1.7a6.33,6.33,0,0,1,.13-1.56v-4.33a2.06,2.06,0,0,1,.14.85,1.74,1.74,0,0,1,.15.93,2.73,2.73,0,0,1,.14,1.13c0,.43.14,1,.14,1.42a7,7,0,0,0-.14,1.7,8.12,8.12,0,0,1-.14,1.69c-.15.57-.15,1.14-.29,1.71s-.27,1.14-.41,1.7a8.14,8.14,0,0,1-.58,1.7c-.14.43-.43,1-.56,1.42a8.59,8.59,0,0,1-.71,1.27,15.93,15.93,0,0,1-1.13,1.85A1.75,1.75,0,0,1,121.81,278.45Z" transform="translate(-26.36 -173.7)"/></g><g class="cls-39"><path class="cls-40" d="M160.36,317.15a30.12,30.12,0,0,0-3.54-16.87c1.71,19.56-4.68,19.56-6.52,14.75-2-5,1.56-13.89-2.26-28.35,2.54,16.58-3.83,22.11-6.81,18.43s-4.25-6.24-3-13.47a37,37,0,0,0-3.7-23.82c-.27,11.55-4.11,23.11-5.67,20.7a20.72,20.72,0,0,1-2.55-13.89c.85-6.1-.57-14.11-.57-14.11,0,6.88-2.12,15.67-4.53,9.71a123.87,123.87,0,0,1-4.53-15.38c-1.71,12.4,6.8,26.58,3.54,24.38-3.11-2.2-9.21-8.57-9.21-8.57s5.38,8.15,9.49,12.47,11.34,15.45,6.24,13-10.78-7.23-17.86-14.88c3.55,6.67,13.61,15.46,21.4,20.84s17.15,14.46,7.37,10.77c-9.63-3.68-23.81-12.33-23.81-12.33s6,6.31,19.28,14.32,17.43,6.51,21,9.78c3.69,3.12-16.73,1-27.36-4.54,8.65,8.5,24.8,10.35,32.75,10.78a15.18,15.18,0,0,0,3-2.13c.7-1.13,1.27-2.27,1.83-3.4C161.78,325.94,159.94,322.55,160.36,317.15Z" transform="translate(-26.36 -173.7)"/></g><path class="cls-40" d="M115.58,251a43.3,43.3,0,0,0-1.56,5.16s-.43-.64-1.42-2.05a23.23,23.23,0,0,0-3.84,14.74,6.74,6.74,0,0,0-2.41-.42c-2.26,4.82-1.27,10.77-1.27,10.77L103,279A24.83,24.83,0,0,0,106.5,294s-1.28.57-3.12,1.29a29.05,29.05,0,0,0,4.25,6.66l-1.84-.15a21.06,21.06,0,0,0,7.94,10.56l-2,.93c2,2.83,7.52,6.24,7.52,6.24l-1.28.56c2.84,3.69,9.92,5.81,9.92,5.81s-2.13-.28-1.41,1.13c2.83,3.91,15.16,5.75,15.16,5.75L140,334.24c13.32,1.63,20.83-4.11,22.25-5.24C124.5,302.27,117,265.84,115.58,251Z" transform="translate(-26.36 -173.7)"/><g class="cls-41"><path class="cls-42" d="M185.88,294.19a2.84,2.84,0,0,1-5.67,0,2.84,2.84,0,1,1,5.67,0Z" transform="translate(-26.36 -173.7)"/><path class="cls-42" d="M180.21,274.07a2.55,2.55,0,1,1-2.55-2.56A2.54,2.54,0,0,1,180.21,274.07Z" transform="translate(-26.36 -173.7)"/><path class="cls-42" d="M177.94,318.57a2.83,2.83,0,0,1-2.83,2.83,3,3,0,0,1-3-2.83,3,3,0,0,1,3-3A2.88,2.88,0,0,1,177.94,318.57Z" transform="translate(-26.36 -173.7)"/><path class="cls-42" d="M191,282.21a2.56,2.56,0,1,1-2.55-2.55A2.54,2.54,0,0,1,191,282.21Z" transform="translate(-26.36 -173.7)"/></g><g class="cls-41"><path class="cls-42" d="M126.92,269.24a2.85,2.85,0,0,1-2.84,2.84,2.88,2.88,0,0,1-3-2.84,2.91,2.91,0,0,1,3-3A2.88,2.88,0,0,1,126.92,269.24Z" transform="translate(-26.36 -173.7)"/><path class="cls-42" d="M121.1,249a2.56,2.56,0,1,1-2.56-2.55A2.54,2.54,0,0,1,121.1,249Z" transform="translate(-26.36 -173.7)"/><path class="cls-42" d="M119,293.48a2.91,2.91,0,0,1-3,3,2.87,2.87,0,0,1-2.83-3,2.83,2.83,0,0,1,2.83-2.83A2.88,2.88,0,0,1,119,293.48Z" transform="translate(-26.36 -173.7)"/><path class="cls-42" d="M132,257.19a2.55,2.55,0,1,1-2.56-2.55A2.54,2.54,0,0,1,132,257.19Z" transform="translate(-26.36 -173.7)"/></g><g class="cls-41"><path class="cls-42" d="M97.42,313.76a2.91,2.91,0,1,1-5.81,0,2.91,2.91,0,0,1,5.81,0Z" transform="translate(-26.36 -173.7)"/><path class="cls-42" d="M91.61,293.63a2.55,2.55,0,1,1-2.55-2.55A2.53,2.53,0,0,1,91.61,293.63Z" transform="translate(-26.36 -173.7)"/><path class="cls-42" d="M89.35,338.27a2.84,2.84,0,1,1-5.68,0,2.84,2.84,0,1,1,5.68,0Z" transform="translate(-26.36 -173.7)"/><path class="cls-42" d="M102.53,301.84a2.56,2.56,0,0,1-5.11,0,2.56,2.56,0,0,1,5.11,0Z" transform="translate(-26.36 -173.7)"/></g><g class="cls-41"><path class="cls-42" d="M126.49,345.64a1.92,1.92,0,1,1-3.83,0,1.93,1.93,0,0,1,2-2A1.9,1.9,0,0,1,126.49,345.64Z" transform="translate(-26.36 -173.7)"/><path class="cls-42" d="M148.59,318a1.7,1.7,0,1,1-3.39,0,1.7,1.7,0,1,1,3.39,0Z" transform="translate(-26.36 -173.7)"/><path class="cls-42" d="M185,340.83a1.93,1.93,0,0,1-2,2,1.91,1.91,0,0,1-1.83-2,1.91,1.91,0,1,1,3.82,0Z" transform="translate(-26.36 -173.7)"/><path class="cls-42" d="M155.83,323.39a1.65,1.65,0,0,1-1.7,1.71,1.73,1.73,0,0,1-1.7-1.71,1.84,1.84,0,0,1,1.7-1.7A1.73,1.73,0,0,1,155.83,323.39Z" transform="translate(-26.36 -173.7)"/></g><path class="cls-43" d="M477.29,496.72c-4.39-1.84-9.07-3.18-13.18-6-5.24-3.76-6.66-6.81-6.95-13.19a112.13,112.13,0,0,0,1-15.52,3.83,3.83,0,0,0-.14-1.35c-7.65-1.13-15.73-1.34-23.38-1.62-.29.28-.29.35-.29.49a141.23,141.23,0,0,0-1.56,20.48c-1,3.27-2.27,5.82-5.67,7.44-1.85.64-3.41,1.35-5.1,2-3.69,1.28-7.37,1.85-11.07,3-3.67,1.34,1.42,9.43,2.42,11.2,4,7.44,11.06,11.19,18.71,12.61.85.22,2.27.5,3.26.72a44.68,44.68,0,0,0,26.08-2.14,30.34,30.34,0,0,0,10.64-7.64c2.69-3,3.4-6.67,5.24-10.07C477.44,497.07,477.44,496.93,477.29,496.72Z" transform="translate(-26.36 -173.7)"/><path class="cls-44" d="M475.73,499.41c-3.39,8.65-10.49,13.75-18.85,16.23a18.5,18.5,0,0,1-10.21,1.56H445c-4.82,0-9.92-1.27-13.89-2.05-9.64-1.91-15.74-8.79-19.42-17.86-1-1.92-1.85-3.75,1.42-4.61,2.12-.71,4.25-1.13,6.24-1.7a56.22,56.22,0,0,0,7.51-2.62c2.12-1.13,4.25-2.2,5.1-4.6,1.56-3.27,1.7-6.6,2-10.21.14-4.54.43-9.22.72-13.9A195.78,195.78,0,0,0,458,461.7c-.27,0-1.13,11.35-1.13,12.41a35.32,35.32,0,0,0,.14,9.43c.86,3.69,3.26,5.95,6.24,8.22,2.55,1.78,5.67,2.91,8.51,4.25C474.89,497.15,477,496,475.73,499.41Z" transform="translate(-26.36 -173.7)"/><path class="cls-45" d="M475.73,499.41c-3.39,8.65-10.49,13.75-18.85,16.23a18.5,18.5,0,0,1-10.21,1.56H445c-4.82,0-9.92-1.27-13.89-2.05-9.64-1.91-15.74-8.79-19.42-17.86-1-1.92-1.85-3.75,1.42-4.61,2.12-.71,4.25-1.13,6.24-1.7a56.22,56.22,0,0,0,7.51-2.62c2.12-1.13,4.25-2.2,5.1-4.6,1.56-3.27,1.7-6.6,2-10.21.14-4.54.43-9.22.72-13.9A195.78,195.78,0,0,0,458,461.7c-.27,0-1.13,11.35-1.13,12.41a35.32,35.32,0,0,0,.14,9.43c.86,3.69,3.26,5.95,6.24,8.22,2.55,1.78,5.67,2.91,8.51,4.25C474.89,497.15,477,496,475.73,499.41Z" transform="translate(-26.36 -173.7)"/><path class="cls-45" d="M459.15,487.79a11.39,11.39,0,0,1-2.13-4.25,35.32,35.32,0,0,1-.14-9.43c0-1.06.86-12.41,1.13-12.41a195.78,195.78,0,0,1-23.38-2.05c-.29,4.68-.58,9.36-.72,13.9-.28,3.61-.42,6.94-2,10.21a5.45,5.45,0,0,1-1.7,2.4C437.32,492.68,450.07,491.76,459.15,487.79Z" transform="translate(-26.36 -173.7)"/><path class="cls-46" d="M386.43,515.44c-1.56,18.21-3.26,36.21-5,54.57-1.42,11.84-2.69,23.82-3,35.65a183.2,183.2,0,0,1,27.08-1.13c13.05,0,25.8-.29,38.85-.78,14.17-.43,28.49-.64,42.8-1,3.7,0,7.24-.22,10.79-.43.7-7.8,1.13-15.59,1.41-23.32.85-18.36,2-36.5,3.4-54.86.14-3.82.85-7.15,1.27-11,1.13-4.18,3-11.48.58-12.61-3.41-1.56-7.81-2.27-11.63-2.91-2.12-.57-4.25-1.13-6.24-1.63a29.36,29.36,0,0,1-3-1.34c-1.55-1.77-4-2.34-6.37,0-2.41,2.05-4.11,4.95-6.25,7.66a30.84,30.84,0,0,1-16.58,10.83,38.48,38.48,0,0,1-28.78-3.61c-5.66-3.26-12.05-8.78-13.61-15.52v-.14c0-.08-.13-.08-.13-.35,0-.86-.29-1.78-.29-2.92v0a1.54,1.54,0,0,0-1.7-1.41,2.72,2.72,0,0,0-1.85.78,5.84,5.84,0,0,1-.56.42h0a6.15,6.15,0,0,0-1,.21c0,.15-.42.22-.7.36-3.41,1.35-7.52,1.77-10.78,3-2.41.64-6.66,1.34-8.36,3.12-1.13,1.13-.28,4.75-.28,6C386.57,507.28,386.57,511.11,386.43,515.44Z" transform="translate(-26.36 -173.7)"/><path class="cls-47" d="M379.48,605.6a177.76,177.76,0,0,1,26.08-1.07c13.05,0,25.8-.29,38.85-.78,14.17-.43,28.49-.64,42.8-1,3.13,0,6.39-.22,9.78-.43.58-6.31.86-12.82,1.42-19.27-.84-17.37,2.7-34.59,3-51.89,0-4.54,1-8.93.86-13.54a31.43,31.43,0,0,1,1.27-7.08c.14-1,.42-1.92.56-2.92.29-.78,1.56-5.52-.14-6.08a36.78,36.78,0,0,0-4.38-1.42c-3.55-.92-7.52-1.5-11.07-2.77a18.77,18.77,0,0,1-3.82-1.63,9.29,9.29,0,0,1,.7,2c0,.14-.42.57-.56.36-4.11-8.86-10.64,1.55-13.76,5.53a25.07,25.07,0,0,1-5.67,5.18c-5.67,3.68-13.32,6.86-20.26,6.66-9.65-.5-17.58-2.77-25.24-8.8-3.83-3-8.08-8.36-8.51-13.53-.43-1.56-.43-3.62-2.54-2.7a.68.68,0,0,0-.43.15,13.28,13.28,0,0,0-2.41,1.56c.28-.36.7-.72,1-1.07a2.05,2.05,0,0,1-.85.29s0,.06-.14.06c-2.26,1.14-5.24,1.71-7.66,2.41-1.84.57-10.48,2.2-10.77,4.47-.14,3.47.85,7.23.42,10.56-.85,4.54-.7,9.14-1.41,13.54-2.27,17.22-1.43,34.66-4.82,51.81-.71,10.35-1.85,20.7-2.27,31Z" transform="translate(-26.36 -173.7)"/><path class="cls-48" d="M431.22,582.49c-2.27-1.35-6.1-1.56-8.65-2.34a44.38,44.38,0,0,1-8.92-3.27c-1-.49-1.85-1-2.84-1.62a61.82,61.82,0,0,0-14.32-4.83c-6.81-1-13.18.57-17.72,6v.22a9.25,9.25,0,0,0-1,1.91c-2,3.76-2.83,7.65-3.83,11.77-.56,2.69,10.21,7.5,13,7.72,3.26,1.13,7.09.93,10.35.78,3.82-.07,7.52-1,11.06-1.41,4.25-.72,8.93,1.13,12.9,2.12,3.4.92,3.55,1.21,5-1.92,1.71-4.39,4.54-10.14,5-14.88Z" transform="translate(-26.36 -173.7)"/><path class="cls-49" d="M429.1,587.31c-1.13,3.62-2.69,7.09-3.84,10.7-.84,2.48-8.5-.63-10.06-1a24.73,24.73,0,0,0-9.92,0c-5.68,1-11.76,1.56-17.3.57v-.2c-4.24-1.15-8.08-3.84-11.76-5.89-3-1.92.7-11.7,3.11-15.1,6.1-5.39,13.62-6.31,21.28-3.83a84.46,84.46,0,0,1,12.18,5c2.84,1.56,5.39,3.62,8.22,4.82.14,0,.29-.06.29-.21a35.69,35.69,0,0,1-4.4-2.76,7.23,7.23,0,0,0,.71.21,10.1,10.1,0,0,0,1.14.57,52.13,52.13,0,0,0,8.36,2.34C430.8,583.41,430.09,583.76,429.1,587.31Z" transform="translate(-26.36 -173.7)"/><path class="cls-45" d="M427.11,582.49a4.9,4.9,0,0,1-1.7-.36c-2.27,3.54-2.7,7.44-7.51,6.24-8.37-1.84-16-5-23.82-7.94-1.42-.43-9.49-2.41-7.93-5.38a9.23,9.23,0,0,1,4.25-3.62,22.34,22.34,0,0,0-11.07,5c-2.41,3.4-6.08,13.18-3.11,15.1,3.68,2,7.52,4.74,11.76,5.89v.2c5.54,1,11.62.43,17.3-.57a24.73,24.73,0,0,1,9.92,0c1.56.37,9.22,3.48,10.06,1,1.15-3.61,2.71-7.08,3.84-10.7S430.8,583.41,427.11,582.49Z" transform="translate(-26.36 -173.7)"/><path class="cls-48" d="M483.68,609.07c-2-3.41-10.64-4.54-14.05-5.67a171.88,171.88,0,0,0-20-4.46c-2.27-.43-5-1.78-6.24.41-1,1.85-3.54,9.37-1.84,12.06h0c-.28.14-.43.14-.28.14h.28a.59.59,0,0,0,.43.42c.28.22.42-.07.7-.42,2.84,0,5.81-.49,8.79-.71,3.41-.43,7.66,2.69,10.92,3.18,7.08.86,13.75-3.18,20.55-4C483.25,610,483.68,609.28,483.68,609.07Z" transform="translate(-26.36 -173.7)"/><path class="cls-44" d="M460.28,612.68c-2.13-.49-4.82-3.18-6.8-3s-3.55.58-5.39.85a37.49,37.49,0,0,0-5.67.51c-.57-1.07-.42-6-.28-4.9-.14-3.4,1.56-7.37,5.24-6.81,3.83.78,7.66,1.36,11.49,2.06,4.1.92,7.93,2.27,11.91,3.33,1.83.71,3.68,1.14,5.38,1.84,2,.64,4.81,2.7,6.95,2.49C475.31,610.2,468.36,614.45,460.28,612.68Z" transform="translate(-26.36 -173.7)"/><path class="cls-45" d="M460.28,612.68c-2.13-.49-4.82-3.18-6.8-3s-3.55.58-5.39.85a37.49,37.49,0,0,0-5.67.51c-.57-1.07-.42-6-.28-4.9-.14-3.4,1.56-7.37,5.24-6.81,3.83.78,7.66,1.36,11.49,2.06,4.1.92,7.93,2.27,11.91,3.33,1.83.71,3.68,1.14,5.38,1.84,2,.64,4.81,2.7,6.95,2.49C475.31,610.2,468.36,614.45,460.28,612.68Z" transform="translate(-26.36 -173.7)"/><path class="cls-46" d="M532.45,582.49c0-8.86-1.58-18-2.71-26.79a180.84,180.84,0,0,0-6.66-32.54c-2.55-8-7.51-15.67-14.17-20.63a8.52,8.52,0,0,0-4.11-1.76c-4.68,12.18-3.41,25.43-2.13,38.27a1.09,1.09,0,0,1-2.13.43,66.75,66.75,0,0,1-2.13-23c-.84,6.66-.56,13.54-.41,19.85,0,2.34.13,4.74.27,6.94a78.58,78.58,0,0,1-3-15c-.13.64-.27,1.06-.41,1.78a51.78,51.78,0,0,0,3.53,16.09c.57,10.49,1.57,20.69,1,31.18a6.09,6.09,0,0,1-1-.43c-.84,0-3.12-.49-4,0a3.9,3.9,0,0,0-.85,4.26c-3.69-.21-7.66.78-11.48,1-9.22.36-18,.15-27.08-.21-3.55-.07-7.37-.36-10.78-.57-2.69-.21-6.66-1-9.49-.78a7.11,7.11,0,0,0-4.26-2.34c-1.13-.21-2.27,1.77-2.54,2.49a8.33,8.33,0,0,0-.86,1.2,19.49,19.49,0,0,0-2.84,6.09,34.21,34.21,0,0,0-1.13,5c-3.26-.85-6.66-1.77-9.92-2.7-9.08-2.69-18.43-6.51-27.93-6.94a3.29,3.29,0,0,0,.57-1.49v-.36a10.05,10.05,0,0,0-4.4-.42c.72-7.8,1.14-15.31,2.55-23,1.56-8.29,5-16.23,6.24-24.52.15,0-.28,0-.28.21-.43,1.92-1,3.68-1.56,5.61,1-7.09.86-14.61,1.13-21.63a16.82,16.82,0,0,0,.14-2.69h-.14v.57a81.67,81.67,0,0,1-4.4,18.35c-.27.92-2,.92-2-.21-.43-6.51,1.42-13.53,2.26-20.06.43-3.83.43-8.29,1.56-12.25a12.45,12.45,0,0,1,.29-3.27h-.43c.14,0,.28-.21.43-.21h0a1.08,1.08,0,0,1-.43-.36c-7.79,1.7-14.88,4.4-20,11.27-2.84,4-3.82,9.36-5.67,14a121.47,121.47,0,0,0-5.81,20.26c-2.84,13.41-4.11,27.16-5,40.84-.28,5.88-.57,12.55.43,18.49.7,3.84,1.28,7.52,3.82,9.86,3.12,5.67,17.72,3.82,22.54,4.11,9.36.43,19,.22,28.35,0,11.34-.71,23-.93,34.31-2.62.14.13.14.21.28.35,1,1.2,3.12.35,4.11-.43,1.28-1.06.86-2.48.71-4.11a18.59,18.59,0,0,1,0-7.86h.15c12.19,6.66,25.37,10.06,39.26,12.75A217.66,217.66,0,0,0,510,618.21c4.4.29,10.06,0,14.18-2.2,5.38-1.77,6.52-6.73,7.37-12.12C532.45,597.38,533.43,589.51,532.45,582.49Z" transform="translate(-26.36 -173.7)"/><path class="cls-47" d="M443.56,608.72c0,.56.27,1.34.27,1.91.43,1.91-1,3.61-2.83,2.61a1.83,1.83,0,0,1-1-1.34,3,3,0,0,1-1.13-1.49,6.11,6.11,0,0,0,.57,2.7H439a32.59,32.59,0,0,1-6.38.42c-9.35.49-18.72,1.64-28.07,1.85-7.8.2-15.88-.21-23.81.2a83.34,83.34,0,0,1-15.18-.7,33.37,33.37,0,0,1-7.37-1.07h0c-4.95-2.48-5.81-9.14-6.23-14.25a152.68,152.68,0,0,1-.28-16.29,296,296,0,0,1,3.39-31.62,171.49,171.49,0,0,1,8.79-33.31c1-2.7,1.85-5.39,3.12-8,2.41-4.82,7.52-7.8,12.2-9.56a64.76,64.76,0,0,1,6.23-2.14,2.41,2.41,0,0,0,1.14-.35c2.12-.35,2.12,8.79,2.12,9.57.15,4.82,0,9.56,0,14.39-.14,7.37-1.41,14.74-2.12,22.18-1.28,4.33-2.56,8.58-3.4,12.84a151.19,151.19,0,0,0-3,23.88c-1.42.21-3,.71-4.25.92a21.78,21.78,0,0,0-5.39,2c4.26-1.21,8.51-1.92,12.76-2.7a1,1,0,0,1,1.28,1.14,8.57,8.57,0,0,1-.72,2.9,5.29,5.29,0,0,0,1-1.34c3,.56,6,1.06,8.92,1.84,5.67,1.55,11.49,3.62,17.3,5,2.69.77,25.38,7.08,31.76,9.56a12.14,12.14,0,0,0,1.56.92c-.15,0-.15.08-.15.08A62.22,62.22,0,0,0,443.56,608.72Z" transform="translate(-26.36 -173.7)"/><path class="cls-47" d="M525.35,614.66c-5.68,3.06-14.45,2.84-20.84,1.92-7.52-1-15.31-2.56-22.68-4a169.38,169.38,0,0,1-22.39-5.75c-4.69-1.56-9.08-4-13.62-6.08,0,0,.15-.22,0-.29-.7-1.07-1.84-1.28-2.83-1.63-3.26-1-6.37-2.19-9.78-3.12-3-.78-5.82-1.56-8.79-2.34-.43-.49-.29-1.42,0-2.77.28-.21.28-.41.28-.84.29-.93.56-1.92.71-2.49.57-2.62,2.13-5,3.54-7.23.43-.63,1.56-.42,2.27-.21a3.54,3.54,0,0,1,1.56.43,9.69,9.69,0,0,1,2,1.63c.28,0,1.13.43.84,0,.72,0,1.42,0,2.14.07,4.1.36,8.36.36,12.32.78a206.32,206.32,0,0,0,22.83.57c4-.08,8.07-.21,12.05-.43s8.65-1.7,12.19.22a48,48,0,0,1,12.61,11.61c-.41-.84-.84-1.62-1.13-2.26-.7-.92-1.42-2.06-2-2.9a44.5,44.5,0,0,0-7.36-6.45,10.79,10.79,0,0,0-4.82-1.71V579c0-1.35.71-1.13,1.84-1,.56,0,.85.21,1.28.21s.43-.21.56-.21a16.18,16.18,0,0,1,3.83.5c-.57-.29-1-.64-1.7-1,1.42-12.61-.43-25.23-1.13-38-.57-10.64-.86-23.54,2.26-34.18v-.13c1.56-4.82,4.25-3.48,7.8-.92a44.08,44.08,0,0,1,6.66,6.87c5.67,6.52,7.23,15.87,9.22,23.88,4.11,16.66,5.8,34.24,6.8,51.46-.14,2.34-.43,4.83-.43,7.31C531.3,600.42,531.3,610.55,525.35,614.66Z" transform="translate(-26.36 -173.7)"/><path class="cls-48" d="M521.24,564.27a.39.39,0,0,0-.14-.35c-3-2.84-8.08-4.75-11.76-6.39-2.57-1.13-5.4-.27-8.09,0-3.68.29-8.22.29-11.63,1.56-4.95,1.78-8.92,5.82-12.75,9.36a82.2,82.2,0,0,0-11.06,13.4.28.28,0,0,0-.14.28,2.07,2.07,0,0,0,1.7.57v.14a18.2,18.2,0,0,0,6,.35c4.39-.28,8.93-.35,13.46-.7,3.55-.21,6.67-1.77,10.06-3a24.38,24.38,0,0,1,9.37-1.42h0c.7.21,12.9.64,10.76-3,2.28.7,2.84-2.49,1.71-4.62,3-1,2.41-2.55.57-4.17A3.84,3.84,0,0,0,521.24,564.27Z" transform="translate(-26.36 -173.7)"/><path class="cls-49" d="M518.83,565.69h-.14a32.83,32.83,0,0,0-6.38-3.54c-9.5-3.76-21.27.42-30,4.6a.25.25,0,0,0-.14.21,106.74,106.74,0,0,1,21.26-5.38c2.84-.5,5.67.42,8.22,1.35.57.21,11.77,5.52,6.66,7.08h0c-.15-.57-.7-.78-1.28-1-4.67-2.27-10.76-4.11-16-3.75a28.11,28.11,0,0,0-6.8,1.69c-2,.43-4.67,2.34-6.52,2.34l-.14.14c1,.43,2.41-.42,3.41-.92,3.54-1.13,8.22-2.83,12-2.26a55.1,55.1,0,0,1,10.07,2.4c1.84.57,3.54,1,5,2.55a1.73,1.73,0,0,1-1.28,3,.28.28,0,0,0-.14.22c-2.7-3-8.23-2.7-11.76-3a18.81,18.81,0,0,0-11.91,2.76h-.29s-.42.22-.14.22c1.14.21,2.56-.49,3.83-.92,4-1.35,7.65-1.15,12-.72a29.18,29.18,0,0,1,4.13.86,8.42,8.42,0,0,1,3,1c-.27,2.26-1.13,3.26-3.11,2.69a10.89,10.89,0,0,0-3.69,0c-2.4,0-5,0-7.37.21-3.68.22-6.8,2.48-10.07,3.62-4.52,1.35-9.63.78-14.31,1.35a54.79,54.79,0,0,1-8.37.21c-.56-.21-2.41-.42-1.7-1.56,1.14-1.77,2.69-3.4,4-5.17a72,72,0,0,1,15.59-14.54c3.4-2.34,8.36-2.12,12.19-2.55,3.12-.49,7.08-1.62,10.06-.35a48.68,48.68,0,0,1,8.08,4.25C517.7,563.35,521.52,564.34,518.83,565.69Z" transform="translate(-26.36 -173.7)"/><path class="cls-45" d="M513,568.66a55.1,55.1,0,0,0-10.07-2.4c-2.26-.43-5.1.28-7.79.92,2.26-.43,4.53-.78,6.8.21a.94.94,0,0,1,.43,1.63c-2.7,2-6.38,2.41-9.07,4.47a9.87,9.87,0,0,1,1.84-.35,19.41,19.41,0,0,1,9.64-1.71c3.53.28,9.06,0,11.76,3a.28.28,0,0,1,.14-.22,1.73,1.73,0,0,0,1.28-3C516.56,569.65,514.86,569.23,513,568.66Z" transform="translate(-26.36 -173.7)"/><path class="cls-45" d="M516.7,562.78a48.68,48.68,0,0,0-8.08-4.25,8.11,8.11,0,0,0-3-.57c-1.56,1.7-4.39,2.26-6.51,2.69a60.53,60.53,0,0,0-7.37,2.28c6.94-2.28,14.31-3.41,20.55-.78a32.83,32.83,0,0,1,6.38,3.54h.14C521.52,564.34,517.7,563.35,516.7,562.78Z" transform="translate(-26.36 -173.7)"/><path class="cls-45" d="M511.6,562.93c-2.55-.93-5.38-1.85-8.22-1.35a45.7,45.7,0,0,0-6.94,1.35,44.11,44.11,0,0,1,4.39-.72c1,0,2,1.56.85,2.06-1.56.57-3,1.13-4.54,1.78a17.29,17.29,0,0,1,3.82-.78c5.26-.36,11.35,1.48,16,3.75.58.21,1.13.42,1.28,1h0C523.37,568.45,512.17,563.14,511.6,562.93Z" transform="translate(-26.36 -173.7)"/><path class="cls-45" d="M508.33,572.77a37.8,37.8,0,0,0-6.94-.21c.86.21.71,1.71-.14,2.06-6.09,1.48-11.48,4.46-17.86,5.38-3.4.43-8.08,1.85-11.62.57-1.71-.57-1.71-2.34-1-4.74V576c-1.29,1.77-2.84,3.4-4,5.17-.71,1.14,1.14,1.35,1.7,1.56a54.79,54.79,0,0,0,8.37-.21c4.68-.57,9.79,0,14.31-1.35,3.27-1.14,6.39-3.4,10.07-3.62,2.41-.21,5-.21,7.37-.21a10.89,10.89,0,0,1,3.69,0c2,.57,2.84-.43,3.11-2.69a8.42,8.42,0,0,0-3-1A29.18,29.18,0,0,0,508.33,572.77Z" transform="translate(-26.36 -173.7)"/><path class="cls-23" d="M438.45,600.07c-9.35-1.91-18.28-3.84-27.22-6.53-8.93-2.48-17.86-4.75-27.07-5.17a27.49,27.49,0,0,0-6.81.28,34.06,34.06,0,0,0,3.83-2.2c.28-.28.71-1.06.28-1.06-2.55-.85-6.51-.42-9.07.36a51.12,51.12,0,0,0-7.23,2.62c-3.83,2,1.84-5.31,1.84-5.18,2-2.05,5.82-3.4,6.95-6.31,2-4.89,1.41-11.19,1.84-16.37a221.28,221.28,0,0,1,4.68-30.26C382,535,383,539,384.16,541.87c.14.36.85-.57,1-.78.58-5.89.15-12.4-.13-18.28a67.27,67.27,0,0,0-.57-9.29c.15-1.06.15-1.92.29-3,0-2.35.41-6.39-1.14-8.44h-.42c-2.28.42-6.53,1.27-8.36,3.4-3.27,1.71-6.82,7.16-7.95,10.13-4.11,9.43-6.09,20-8.22,29.91-4.4,19.15-4.54,40.12-2.41,59.47,0,.21,2.55-4.74,4.82-8.57a5.64,5.64,0,0,0-.57,2.06c-.28,2.2-1.84,10.06.29,12,.28.08.42.08.56.29h0c2.69,1.56,8.22.71,10.91.71,6,.35,12.06.64,18.16.64,11.9.21,23.67-.64,35.43-1.13,2,0,6,0,7.09-2.14.71-1.56-.14-3.26,1.42-1.56,1.13,1.21,1.56,3.27,3,4.19.28.21.7-.49.85-.71C438.59,609.7,439.31,600.28,438.45,600.07Z" transform="translate(-26.36 -173.7)"/><path class="cls-23" d="M524.93,547.12c-1.85-11.92-5.67-23.61-10.07-34.74a16,16,0,0,0-4.39-5.74c-.86-.92-4.11-3.82-5.26-3a3.55,3.55,0,0,0-.84,1.35c-3.68,3.54-2.69,13.54-3,17.36-.7,9.92.57,20.48,1.56,30.41,0,.57,5.38-9.5,8.51-13,4.11-4.75-.14,2.49-.56,3.47-1.56,2.56-4.27,6.88-4.27,10,0,.21,17.3,8.94,19.57,11.7C526.49,565.4,525.78,552.64,524.93,547.12Z" transform="translate(-26.36 -173.7)"/><path class="cls-23" d="M525.92,573.92c-1.14-.22-5.24,2.61-5.24,2.61a53,53,0,0,1-7.52,2.69,27.89,27.89,0,0,0-4,2.63c3.54,2.2,8.79,6.52,10.48,10.77-1.41-.92-2.54-1.77-4.1-2.69-2.27-1.56-4.67-3.83-7.24-4.54-.55-.21-1.27.5-1.27,1.06.14,2.34,2.42,5,3.55,7.31a20.66,20.66,0,0,1,1.85,9.14,28.05,28.05,0,0,0-9.65-13.68c-5.67-4.25-12.19-3.83-19.13-3.55-9.08.22-18.3.22-27.22.22a128.59,128.59,0,0,1-14.89-.71c-1.84-.35-4.54,0-6.1-.92-1.13-.64-2.26-2-3.68-2.91-.14-.21-1,.5-1,.93-1.42,2.47-2.83,5.59-2.83,8.28,0,.37.13.5.42.5,1-.21,4.53-2.06,4.53-1.55-.28.78-.7,2.19.57,2.69,8.36,2.47,16.73,5,25.09,7.65C475,605,491.76,611,509.19,611.9c5.1.29,10.91-.49,14.74-4.18,1.56-1.34,2.41-3.48,3.12-5.88C529.18,592.84,528.18,583.06,525.92,573.92Z" transform="translate(-26.36 -173.7)"/><path class="cls-23" d="M480.42,558a17.42,17.42,0,0,1,6.09-2.48,36.86,36.86,0,0,1,5-2.27l3-.63c0-.15,0-.29-.15-.29-1.41-1.77-1.41-6.52-1.84-8.86-.56-3.12-.7-6.67-1-9.78a103.43,103.43,0,0,1-.56-21c1.13,4.33,1.27,9,3.82,12.19.85-5-.28-10.14.56-15.09a64.82,64.82,0,0,1,2.28-9.08c-3.27-1.48-14.32-.7-15.45-.14-1.42.42-2.56,2.27-3.26,3.61-2.14,3.33-4.4,6.59-6.81,9.64.85-1.34,1.71-2.69,2.55-4,2.12-3.91,3-7.87,4.54-11.92,0-.56-.43-.14-.71,0-1.56,1.56-2.56,3.7-3.83,5.53-2.55,3.69-5.52,7.09-9.36,9.29-6.37,4.33-15.17,6.09-22.54,5.67a38.27,38.27,0,0,1-16.87-4.54,43.71,43.71,0,0,1-8.64-6.73c-3.12-3.83-5.39-8.79-7.09-13.26,0-.35-.29,0-.57.22a.52.52,0,0,0-.14.43,2.4,2.4,0,0,0,.14.91,35.93,35.93,0,0,0,3.83,12.48c-2.55-3.69-4-8-5.11-12.83a5.42,5.42,0,0,0,0-1.56c0-.35-.27-.14-.42-.14-4.68,2.13-9.36,2.48-14.17,3.83a3.53,3.53,0,0,0-1.28.7,257,257,0,0,0-1.28,29.5,6.85,6.85,0,0,0,1.56-2.71,51.22,51.22,0,0,1,6.39-12,34.42,34.42,0,0,0-1.85,5,131.67,131.67,0,0,0-4,13.11,142.66,142.66,0,0,0-3.26,23,.87.87,0,0,1-.29.77c0,.15,0,.22.29.22a25.34,25.34,0,0,0,6.1,11.06,127.8,127.8,0,0,0,16.58,7.8c9.92,3.54,19.57,4.39,30.05,4.81,8.79.22,19-5.88,25.8-10.7C472.61,564.84,476.16,560.8,480.42,558Z" transform="translate(-26.36 -173.7)"/><path class="cls-46" d="M442,599.85c-.43,1.42-1,2.69-1.42,4h2.12a2.84,2.84,0,0,0-.28-1.56C442.28,601.41,442.14,600.71,442,599.85Z" transform="translate(-26.36 -173.7)"/><path class="cls-50" d="M453.19,513a38.36,38.36,0,0,1-28.2-3.26c1.84,6.73,3.68,13.31,4.39,20.13,1.13,10.06,2.55,19.84,4.67,29.76,1.56,6.88,1.85,13.68,3.27,20.56,2,.21,4,.56,5.95.92a2.16,2.16,0,0,1,.29-1c2-9.15,5.81-18,8.5-26.94,3.4-10,4.4-20.06,6.38-30.13a68.93,68.93,0,0,1,4.68-14.67A31.73,31.73,0,0,1,453.19,513Z" transform="translate(-26.36 -173.7)"/><path class="cls-51" d="M454.75,512.46c-1.84,5.67-3.83,11-5.52,16.58C447,536,445,542.86,442,549.6a1.23,1.23,0,0,1-2.27-.21c-2.7-12.26-6.1-24.53-8.37-36.93a31.6,31.6,0,0,1-6.37-2.69c1.84,6.73,3.68,13.31,4.39,20.13,1.13,10.06,2.55,19.84,4.67,29.76,1.56,6.88,1.85,13.68,3.27,20.56,2,.21,4,.56,5.95.92a2.16,2.16,0,0,1,.29-1c2-9.15,5.81-18,8.5-26.94,3.4-10,4.4-20.06,6.38-30.13a68.93,68.93,0,0,1,4.68-14.67A28.5,28.5,0,0,1,454.75,512.46Z" transform="translate(-26.36 -173.7)"/><path class="cls-47" d="M442,599.85c-.43,1.42-1,2.69-1.42,4h2.12a2.84,2.84,0,0,0-.28-1.56C442.28,601.41,442.14,600.71,442,599.85Z" transform="translate(-26.36 -173.7)"/><path class="cls-52" d="M425,526.63c.56.5,1.27.93,1.84,1.35,2.12-2,4-4.25,6.09-6,2-1.62,3.83-3.19,5.67-4.54a14.45,14.45,0,0,0,3.26-3,1.75,1.75,0,0,0-.28-.85h-.28c-6.66-6.67-11.34-16.23-13.32-26v-.27c-.15-6-5.54-2.13-8.94-.51-2,.86-7.37,1.78-8.5,4-1.7,3.61,1.27,11.56,2.69,15,2.55,7.66,6.1,15.53,11.77,20.91Z" transform="translate(-26.36 -173.7)"/><path class="cls-50" d="M438.88,515.64c-1.56,1.36-3.27,2.92-5,4.48a48.84,48.84,0,0,0-3.82,4c-1.56,1.64-2.12,2.48-3.68,2.05-6.53-7.86-11.92-16.43-14.05-27.21-1-5.53-2.55-7.8,2.56-9.5,3-1.13,10.91-7.15,12.62-2.48.56,10.06,6.09,21,13,27.5A8,8,0,0,1,438.88,515.64Z" transform="translate(-26.36 -173.7)"/><path class="cls-51" d="M427.54,487c-1.71-4.67-9.64,1.35-12.62,2.48-3.83,1.13-4,2.69-3.26,5.53a4,4,0,0,1,2.41-3c5.25-2.13,6.52,1.92,8.79,6.31a81.32,81.32,0,0,0,7.23,12.19c1.13,1.7,3.26,2.91,4,5,.58,1.56-1.56,3.68-2.26,4.68a25.91,25.91,0,0,0-3.82,5.94c.56-.21,1.13-1,2.12-1.91a48.84,48.84,0,0,1,3.82-4c1.7-1.56,3.41-3.12,5-4.48a8,8,0,0,0,1.7-1.13C433.63,508,428.1,497.07,427.54,487Z" transform="translate(-26.36 -173.7)"/><path class="cls-53" d="M426.41,522.38c-4.26-5.6-8.09-11.05-10.78-17.79L414.49,503c2.14,7.44,5.82,15.31,11.49,19.78C426.26,523.08,426.41,522.52,426.41,522.38Z" transform="translate(-26.36 -173.7)"/><path class="cls-52" d="M476.16,495.8c-.57-2.48-6-4-7.66-5.39-3.12-2.05-7.79-6.65-8.93-.78-.13.07,0,.21,0,.21-3.4,9.43-9.5,18.16-17.29,23.75l-.28-.07a2.28,2.28,0,0,0-.29,1.34c2.7,3.27,5.1,6.74,7.94,10a45.42,45.42,0,0,1,5,5.39c.71-.43,1.28-.78,2-1.13-.14,0-.14-.08-.14-.08,6.51-4.4,11.2-11.69,15-18.85C473.33,507.07,477.29,499.62,476.16,495.8Z" transform="translate(-26.36 -173.7)"/><path class="cls-50" d="M444.41,515.93c1.7,1.7,3,3.61,4.39,5.32,1.13,1.56,2.12,3,3.26,4.75s1.42,2.69,3.26,2.48c7.51-6.81,14.17-14.68,18-24.81,1.7-5.39,3.54-7.38-1.13-9.86-3-1.48-9.79-8.57-12.2-4.32-2,9.78-9.21,19.64-17.15,25.23C443.56,515.29,444.41,515.93,444.41,515.93Z" transform="translate(-26.36 -173.7)"/><path class="cls-51" d="M460,489.49c2.41-4.25,9.22,2.84,12.2,4.32,3.39,1.78,3.39,3.34,2.4,6.18a4.5,4.5,0,0,0-2-3.62c-4.67-2.91-6.8.92-9.64,5A82.7,82.7,0,0,1,454,512.25c-1.41,1.48-3.68,2.26-4.81,4.25-.72,1.48,1.13,4.11,1.69,5a54,54,0,0,1,2.85,6.52c-.72-.22-1.14-1.06-1.71-2-1.14-1.71-2.13-3.19-3.26-4.75-1.42-1.71-2.69-3.62-4.39-5.32,0,0-.85-.64-1.56-1.21C450.79,509.13,458,499.27,460,489.49Z" transform="translate(-26.36 -173.7)"/><path class="cls-53" d="M455.75,524.64c5.11-4.95,9.63-9.78,13.33-16l1.41-1.35c-3.12,7-8.08,14.18-14.32,17.79C455.89,525.28,455.6,524.86,455.75,524.64Z" transform="translate(-26.36 -173.7)"/><path class="cls-23" d="M481.83,495.8c-.43-3.47-16.59-8.79-16.59-8.79l-27.92,93.77c1.84.36,3.82.36,5.81.57l25.95-20.27-7.24-18.57,19.71,8.71C487.64,536.13,482.39,499.27,481.83,495.8Z" transform="translate(-26.36 -173.7)"/><path class="cls-54" d="M443.13,582.28h0c-.71,0-1.56-.15-2.26-.22-1.14-.14-2.42-.21-3.84-.5a.38.38,0,0,1-.41-.42c-.29,0-.29-.36-.15-.57l27.78-93.77a3.39,3.39,0,0,1,.43-.57,1.17,1.17,0,0,1,.7,0c2.69.92,16.74,5.53,17.3,9.5h0c0,.28,6.1,39.69-.42,55.71-.14.21-.14.42-.43.42a.62.62,0,0,1-.71,0l-17.86-7.79,6.37,16.58a1.51,1.51,0,0,1-.14,1.13L443.7,582.06A.8.8,0,0,1,443.13,582.28ZM438.31,580a28,28,0,0,0,2.83.36,14,14,0,0,0,1.71.07l25.09-19.63-6.81-17.94a.62.62,0,0,1,0-.92.86.86,0,0,1,1-.07L481,550.09c5.82-16.08,0-53.72,0-54.08h0c-.27-1.77-8.07-5.45-15.3-7.94Z" transform="translate(-26.36 -173.7)"/><path class="cls-55" d="M482.12,496.51c.14,5.6-.29,11.34-.43,16.87a145.64,145.64,0,0,1-2.55,22.25c-.43,3.62-1.56,8.58-6.24,7.8-3.27-.35-12.62-3.83-14.46-4.18.57,1.27,1,2.48,1.27,3.18,1.42,4.05,3.26,8.23,3.84,12.49.56,4.74-19.57,22.25-19.72,22.18-2.12-2.91-2.54-6.52-2.26-10.28l-4.25,14c1.84.36,3.82.36,5.81.57l25.95-20.27-7.24-18.57,19.71,8.71C487.36,536.76,482.82,502.82,482.12,496.51Z" transform="translate(-26.36 -173.7)"/><path class="cls-23" d="M434.91,580.43c1.71.35,3.4.5,5.1.71l-13.18-96.33s-16.73,2.91-17.72,6.17S397.2,529.82,401,545.55L421.73,540l-9.93,17.23S432.22,577.66,434.91,580.43Z" transform="translate(-26.36 -173.7)"/><path class="cls-54" d="M440,581.92h-.14a21.69,21.69,0,0,1-5.1-.78h-.43c-2.69-2.91-23.11-23.39-23.11-23.39a.75.75,0,0,1-.14-.92l8.79-15.45-18.72,5.1a.62.62,0,0,1-.55-.21c-.29-.14-.43-.22-.43-.5-3.83-16.65,8.07-54.58,8.07-55,1.14-3.76,15.45-6.23,18.3-6.66.42,0,.56,0,.7.14.29.07.29.29.29.56l13.33,96.12a.87.87,0,0,1-.29.63A.65.65,0,0,1,440,581.92Zm-4.54-2.13a28.92,28.92,0,0,1,3.41.36L426,485.88c-7.37,1.27-15.59,3.61-16.17,5.46-.28.42-11.48,36.42-8.07,53.08l19.7-5.17c.29,0,.71,0,.84.22a1,1,0,0,1,.15,1L412.79,557C415.77,560,432.35,576.61,435.47,579.79Z" transform="translate(-26.36 -173.7)"/><path class="cls-55" d="M434.91,580.43c1.71.35,3.4.5,5.1.71l-3.12-22.54a23.84,23.84,0,0,1-.7,4.54c-.29,3.12.43,6.51-.86,9.42-.28.58-.7.71-1.28.21-3.25-3.33-6.51-6.94-9.92-10.35-2.12-2.2-5.38-4.89-6.23-8.07-1.56-6,4.25-11.49,7.65-16.81-2.41.58-5.24,1.15-7.65,1.71-3.41.78-7.23,1.91-10.63,1.91-4.69.14-.85-35.87,1.56-50.11-.85,3.62-11.49,38.85-7.81,54.5L421.73,540l-9.93,17.23S432.22,577.66,434.91,580.43Z" transform="translate(-26.36 -173.7)"/><path class="cls-56" d="M366.72,433.92c.28-.14.57,0,.57.21h1.84c3.54,0,6.81,2.06,9.64,4.05a28.15,28.15,0,0,1,11.77,14.88c.14,0,.29,0,.29.21,2.26,6.38,1.55,13.46-2.42,18.72s-9.64,5.17-15,3.82c1.56,4.25.56,11.2-2.84,13.68-3.55,2.27-6.94,1.56-10.35.72a8.21,8.21,0,0,1-2,8.78c-1.83,1.56-4,1.56-6.23,1a3.38,3.38,0,0,1-2,4,9.34,9.34,0,0,1-2.83.21,8.84,8.84,0,0,1-2.41-.21.34.34,0,0,1-.57,0H344l-.14-.28c-1.42-3-3.26-5.74-3.26-9.21a5.46,5.46,0,0,1,4.25-5.61,1.16,1.16,0,0,1,.71-.2A10.49,10.49,0,0,1,344,483c.28-3.27,3.69-7,6.38-6.88-2.55-6.88-2.55-15.1,4.25-18.36a5.07,5.07,0,0,1-1.41-2.13c-1.28-2.55-1.28-6.16-1-9.07C353.54,438.38,361.19,435.69,366.72,433.92Z" transform="translate(-26.36 -173.7)"/><path class="cls-57" d="M352.26,446.54c-.28,2.91-.28,6.52,1,9.07a5.07,5.07,0,0,0,1.41,2.13c-6.8,3.26-6.8,11.48-4.25,18.36-2.69-.08-6.1,3.61-6.38,6.88a10.49,10.49,0,0,0,1.56,5.67,1.16,1.16,0,0,0-.71.2,5.46,5.46,0,0,0-4.25,5.61c0,3.47,1.84,6.23,3.26,9.14a1.13,1.13,0,0,0,.14.35h.14a.34.34,0,0,0,.57,0,8.84,8.84,0,0,0,2.41.21A9.34,9.34,0,0,0,350,504a3.38,3.38,0,0,0,2-4c2.26.56,4.4.56,6.23-1a8.21,8.21,0,0,0,2-8.78c3.41.84,6.8,1.55,10.35-.72,3.4-2.48,4.4-9.43,2.84-13.68,5.38,1.35,11.05,1.35,15-3.82s4.68-12.34,2.42-18.72c0-.21-.15-.21-.29-.21a28.15,28.15,0,0,0-11.77-14.88c-2.83-2-6.1-4.05-9.64-4.05h-1.84c0-.21-.29-.35-.57-.21C361.19,435.69,353.54,438.38,352.26,446.54Zm17.72,24c-1,0-.85-1.42,0-1.56,3.12-.78,7.37-.43,9.92-3.26a4.18,4.18,0,0,1-2.4-.07c-.58-.29-.86-1.35-.15-1.64A13.85,13.85,0,0,0,381,461.7c0-.13,0-.13.14-.13.28-.43.42-.86.85-1.07.42-.57,1.14-.28,1.14.42a15.42,15.42,0,0,1-.15,2.7,6.86,6.86,0,0,1,3.13-1.35,1,1,0,0,1,.84.64c.57,6.59-3.82,8.22-8.79,8.51-.14,0-.42.07-.85.07,0,0-.14,0-.14-.07A40.73,40.73,0,0,1,370,470.57Zm-18.57,24.1a26.38,26.38,0,0,1,3-1.77,10.94,10.94,0,0,0,1.84-1.14.89.89,0,0,1,1.13-.21c.15.21.43.42.43.78a.71.71,0,0,1,.15.78c-.58,3.4-4.26,5-6.67,2.9A1,1,0,0,1,351.41,494.67Zm3.41-10.13c3.68-3.7,10.21-2.2,13-6.82a8.41,8.41,0,0,0-5.4.29c-.84.21-1.27-1.21-.41-1.7a10.59,10.59,0,0,1,6.94-.07.74.74,0,0,1,.56,1.13,5.87,5.87,0,0,1-1.41,2.34,2.06,2.06,0,0,1,2.27.21c1.56,1.35-.43,4.62-1.42,5.53-2,1.78-4.25,1.78-6.67,1.7a22.14,22.14,0,0,1-7.23-1.27C354.67,485.67,354.67,484.89,354.82,484.54Zm-5-4.62c.29,0,.57.14.57.35.29,0,.56.22.7.72a3.11,3.11,0,0,1-.14,2,6,6,0,0,0-.27,3.18,47.83,47.83,0,0,0,1.42,4.82c.27.42-.15,1.2-.58,1C347.58,490.56,343.19,479.36,349.85,479.92Zm4.39-17.44a.85.85,0,0,1,.85.93h0a.58.58,0,0,1,.43.63c.28,2.2-.56,4.11-.85,6.1a23.66,23.66,0,0,0,1.13,8.36c0,.86-.56,1.35-1.13.86C351,476.31,348.72,465,354.24,462.48Zm2.7-18.43c.42-.7,1.13-.2,1.27.29.29,1.63.29,3,.43,4.75.57-.78,1-1,1.56-.56.28-.22.7,0,1,.21,2.13,3,4.25,6.87,4,10.91,0,.71-.56,1.35-1.14.85a50.77,50.77,0,0,0-4.25-5.67c0,2.34,1.42,4.61,2.28,6.66.41.78-.43,1.92-.86,1.14C356.94,457.74,353,450.44,356.94,444.05Z" transform="translate(-26.36 -173.7)"/><path class="cls-57" d="M342.76,492.47a2.38,2.38,0,0,0,3.55-2.06c3,4.61,7.65,10.14,11.48,5,1.42-1.91,2.27-4.11-.28-5.24-1.28-.37-2.42-.22-3.55-.72-2-.64-2.41-3.61-2.26-6.16.84,1.48,1.56,2.83,3,3.47s3.4.21,5,.21c.85,0,1.7.14,2.69.14a13.12,13.12,0,0,0,4.54-.35A5.53,5.53,0,0,0,371,483a6.48,6.48,0,0,0-1.42-6.53.14.14,0,0,1-.14-.14,4.81,4.81,0,0,0-2.12-1c-4.25-1.21-8.08,1-11.49,3.61v-.22c5.1-8.57,15.31-4.53,23.11-6.09a9.82,9.82,0,0,0,7.66-4.74c1.28-1.93,1.84-5,.71-7.17-2.27-4-10.36,2.49-12.62,3.83-3.12,2-5.38,2.19-8.79,2.19a10.66,10.66,0,0,0-5.67,1.15c0-.29.28-.64.43-1.15,1-1.56,2.41-2,3.68-2.54a4.7,4.7,0,0,0,1.85-2.7c.7-4-.72-9.21-2.55-13-2-4.48-5.54-8.44-8.94-7.52,2.84-4,7.94-5.88,12.05-7.09.28-.14.57,0,.57.21h1.84c3.54,0,6.81,2.06,9.64,4.05a28.15,28.15,0,0,1,11.77,14.88c.14,0,.29,0,.29.21,2.26,6.38,1.55,13.46-2.42,18.72s-9.64,5.17-15,3.82c1.56,4.25.56,11.2-2.84,13.68-3.55,2.27-6.94,1.56-10.35.72a8.21,8.21,0,0,1-2,8.78c-1.83,1.56-4,1.56-6.23,1a3.38,3.38,0,0,1-2,4,9.34,9.34,0,0,1-2.83.21,8.84,8.84,0,0,1-2.41-.21.34.34,0,0,1-.57,0H344l-.14-.28c-1.42-3-3.26-5.74-3.26-9.21a7.23,7.23,0,0,1,.85-3.06A10.31,10.31,0,0,1,342.76,492.47Z" transform="translate(-26.36 -173.7)"/><path class="cls-58" d="M365.87,456.39a23.19,23.19,0,0,1,1.42,7.59c4.11-.78,8.5-.36,11.62-4,.29-.22.42,0,.42.21-3.82,6.31-12,3.4-17.14,6.66-.14.14-.29-.15-.14-.35a9.87,9.87,0,0,1,4.39-2.2,48.14,48.14,0,0,0-.71-7.94C365.73,456.17,365.87,456.17,365.87,456.39Z" transform="translate(-26.36 -173.7)"/><path class="cls-58" d="M363,469.5c3.26-3.55,8.5-1.91,12.47-3.18.28-.08.28.21,0,.21C371.68,469,367,467,363,469.71,363,469.79,362.75,469.57,363,469.5Z" transform="translate(-26.36 -173.7)"/><path class="cls-58" d="M364.88,473.55c.28-.15.28.42.15.42-3.13,1.35-6.25,2-8.65,5-.15.21-.58,0-.43-.22C357.51,475.11,362.05,474.39,364.88,473.55Z" transform="translate(-26.36 -173.7)"/><path class="cls-58" d="M364,478.5c.29-.14.58.21.29.43-4.25,2.27-8.93,2.27-12.33,6.45-.28.21-.43-.14-.43-.28C354.24,479.85,359.77,480.06,364,478.5Z" transform="translate(-26.36 -173.7)"/><path class="cls-58" d="M352.26,446.54c-.28,2.91-.28,6.52,1,9.07a5.07,5.07,0,0,0,1.41,2.13c-6.8,3.26-6.8,11.48-4.25,18.36-2.69-.08-6.1,3.61-6.38,6.88a10.49,10.49,0,0,0,1.56,5.67,1.16,1.16,0,0,0-.71.2,5.46,5.46,0,0,0-4.25,5.61c0,3.47,1.84,6.23,3.26,9.14a1.13,1.13,0,0,0,.14.35h.14a.34.34,0,0,0,.57,0,8.84,8.84,0,0,0,2.41.21A9.34,9.34,0,0,0,350,504a3.38,3.38,0,0,0,2-4c2.26.56,4.4.56,6.23-1a8.21,8.21,0,0,0,2-8.78c3.41.84,6.8,1.55,10.35-.72,3.4-2.48,4.4-9.43,2.84-13.68,5.38,1.35,11.05,1.35,15-3.82s4.68-12.34,2.42-18.72c0-.21-.15-.21-.29-.21a28.15,28.15,0,0,0-11.77-14.88c-2.83-2-6.1-4.05-9.64-4.05h-1.84c0-.21-.29-.35-.57-.21C361.19,435.69,353.54,438.38,352.26,446.54Zm12.9-10.7a15.4,15.4,0,0,1,4-.36,25,25,0,0,1,9.78,4.61,37.23,37.23,0,0,1,8.51,8.44c1.7,2.69,2.26,5.67,3.41,8.36.55,5.17-.58,11-4,14.53-5.25,5.24-10.35,2.76-16.3,3.26-.14,0-.43.21,0,.43.71.21,1.42.42,2.27.7.71,6.53-.58,14.4-7.66,14.18-2.84-.15-6-1.63-8.93-.93-.28,0-.28.43,0,.57a26.85,26.85,0,0,1,3.4.58c.57,4.25-.42,8.78-5,8.78-2.69,0-5-1.63-7.51-1.7a.33.33,0,0,0-.14.64,23.36,23.36,0,0,0,4.25,1.69c0,1.07,0,1.93-.71,2.49a5.73,5.73,0,0,1-2.13.92,15.42,15.42,0,0,1-2.41.43c-.56,0-1.13-.08-1.41-.08-1-2.05-2.55-4.39-2.84-6.87-.43-2.13-.14-5,1.85-6.1.56-.42,1.27-.92,1.84-1.35H346c1,1.56,2.13,2.91,3.27,4.75,0,.08.27,0,.13-.27-1.13-2.2-2.82-4.11-3.82-6.74-2-5.53,1.84-7.73,5-10,1,1.91,2,3.83,3,5.39.14.21.42,0,.28-.36-4.68-7.08-5.67-17.5,1.27-23.24,1.56,2.33,3.55,4.32,5.11,6.58,0,.22.28,0,.28-.2-3.26-5.88-8.78-10.14-6.94-18C355.09,439.74,360.48,438.38,365.16,435.84Z" transform="translate(-26.36 -173.7)"/><path class="cls-56" d="M323.62,505.51c5.25-2.05,11.63-2.27,17-1.56.28.21.28.21.28.29,3.83,1.27,5.95,5.53,8.22,9a34.35,34.35,0,0,1,4.82,13,11.07,11.07,0,0,1-2,9.22,11.51,11.51,0,0,1-4.4,3.19c-1.84.86-4.82,2-3.54,5.6,1.7,4.18,4.68,2.48,7.23,2.48a.11.11,0,0,1,0,.22,8.31,8.31,0,0,1-1.56.78,12.67,12.67,0,0,0-2.55,3.39A5.26,5.26,0,0,1,343.9,553a3.78,3.78,0,0,1-2.56-1,16.76,16.76,0,0,1-1.13,13,15.48,15.48,0,0,1-16.16,7.51c-.29,0-.29-.22-.29-.22h-.14c-.28,0-.42-.2-.13-.41a32.5,32.5,0,0,1,3.54-2.28,5.83,5.83,0,0,1-1.85-.42,1.8,1.8,0,0,1-1.56-1.63c-.28,0-.42-.21-.42-.56h0a2.59,2.59,0,0,0-.57-1c0-.22.29-.36.29-.22a1.64,1.64,0,0,0,.57.92s.13,0,.13.07c.86,1.28,3.12-.42,4-1.13,2.55-2.55-1.15-4.47-2.7-5.47-2.27-1.34-5-2.18-6.95-4.11-1.41-1.34-2.69-3.11-2.26-5.59a8.31,8.31,0,0,1,3-5.38c-2.12.21-4.68-1.85-5.52-3.62a3.59,3.59,0,0,0,1.84,1.34,3.74,3.74,0,0,0,3.4-1.77,6.71,6.71,0,0,0,0-5.74c-1.13-2.2-3-4-4.11-6.31-1.85-4.18-.57-9.14.84-13.18C316.82,511.33,319.51,507.07,323.62,505.51Z" transform="translate(-26.36 -173.7)"/><path class="cls-57" d="M315.11,515.86c-1.41,4-2.69,9-.84,13.18,1.13,2.34,3,4.11,4.11,6.31a6.71,6.71,0,0,1,0,5.74,3.74,3.74,0,0,1-3.4,1.77,3.59,3.59,0,0,1-1.84-1.34c.84,1.77,3.4,3.83,5.52,3.62a8.31,8.31,0,0,0-3,5.38c-.43,2.48.85,4.25,2.26,5.59,2,1.93,4.68,2.77,6.95,4.11,1.55,1,5.25,2.92,2.7,5.47-.86.71-3.12,2.41-4,1.13,0-.07-.13-.07-.13-.07a1.64,1.64,0,0,1-.57-.92c0-.14-.29,0-.29.22a2.59,2.59,0,0,1,.57,1h0c0,.35.14.56.42.56a1.8,1.8,0,0,0,1.56,1.63,5.83,5.83,0,0,0,1.85.42,32.5,32.5,0,0,0-3.54,2.28c-.29.21-.15.41.13.41h0a.53.53,0,0,0,.43.22,15.48,15.48,0,0,0,16.16-7.51,16.76,16.76,0,0,0,1.13-13,3.78,3.78,0,0,0,2.56,1,5.26,5.26,0,0,0,3.26-1.92,12.67,12.67,0,0,1,2.55-3.39,8.31,8.31,0,0,0,1.56-.78.11.11,0,0,0,0-.22c-2.55,0-5.53,1.7-7.23-2.48-1.28-3.61,1.7-4.74,3.54-5.6a11.51,11.51,0,0,0,4.4-3.19,11.07,11.07,0,0,0,2-9.22,34.35,34.35,0,0,0-4.82-13c-2.27-3.47-4.39-7.73-8.22-9,0-.08,0-.08-.28-.29-5.39-.71-11.77-.49-17,1.56C319.51,507.07,316.82,511.33,315.11,515.86Zm11.77-6.52c.72.07.86.78.58,1.35-.58.78-1,1.56-1.71,2.55-1.7,4.39,3.12,2.4,3.68,2A47.78,47.78,0,0,1,334,513c1.71-.49,2.69,1.07,3,3,.57,2.2,2.13,5.32,3.69,2.63a6.15,6.15,0,0,1,2.12-2.63c2.13-1.21,4.11,2.83,4.68,4.68h0c.85,2.69,1.28,6-.57,8.29-1,1.56-2.41,2.27-3.68,3.19-4.82,2.2-5.67,6.95-3.55,12,.43.7-.14,1.7-.7,1.28-2.7-1.36-4.11-4.54-4.82-7.81-.43,5.32,3.12,10.5,4.25,15.88.71,4.62-.29,9-3.27,12H335c-.85.65-1.56-.49-1-1.13,4.11-6-2.12-8.79-5-13.75-.29-.43-1.28-1.77-.43-4.47-6,4.25-.85,7.66,1,12.34,1.42,3,.57,4.75,1,5.17-1-5-6.53-6.94-9.65-9.85-1.84-1.63-1.69-3.83-.56-5.67,2.55-5.18,7.23-6.52,6.66-13.75-.15-2.48-1.28-4.61-2.27-6.73-.28-1.14-.71-2.06-1-3.13,0,2.92,1,5.82,1.14,9s-.56,5.82-3,7.09c-.57.29-1-.21-1-.92,1.27-7.51-5-13.18-4.11-20.84C317.53,513.59,322.49,508.2,326.88,509.34Z" transform="translate(-26.36 -173.7)"/><path class="cls-58" d="M315.11,515.86c-1.41,4-2.69,9-.84,13.18,1.13,2.34,3,4.11,4.11,6.31a6.71,6.71,0,0,1,0,5.74,3.74,3.74,0,0,1-3.4,1.77,3.59,3.59,0,0,1-1.84-1.34c.84,1.77,3.4,3.83,5.52,3.62a8.31,8.31,0,0,0-3,5.38c-.43,2.48.85,4.25,2.26,5.59,2,1.93,4.68,2.77,6.95,4.11,1.55,1,5.25,2.92,2.7,5.47-.86.71-3.12,2.41-4,1.13,0-.07-.13-.07-.13-.07a1.64,1.64,0,0,1-.57-.92c0-.14-.29,0-.29.22a2.59,2.59,0,0,1,.57,1h0c0,.35.14.56.42.56a1.8,1.8,0,0,0,1.56,1.63,5.83,5.83,0,0,0,1.85.42,32.5,32.5,0,0,0-3.54,2.28c-.29.21-.15.41.13.41h0a.53.53,0,0,0,.43.22,15.48,15.48,0,0,0,16.16-7.51,16.76,16.76,0,0,0,1.13-13,3.78,3.78,0,0,0,2.56,1,5.26,5.26,0,0,0,3.26-1.92,12.67,12.67,0,0,1,2.55-3.39,8.31,8.31,0,0,0,1.56-.78.11.11,0,0,0,0-.22c-2.55,0-5.53,1.7-7.23-2.48-1.28-3.61,1.7-4.74,3.54-5.6a11.51,11.51,0,0,0,4.4-3.19,11.07,11.07,0,0,0,2-9.22,34.35,34.35,0,0,0-4.82-13c-2.27-3.47-4.39-7.73-8.22-9,0-.08,0-.08-.28-.29-5.39-.71-11.77-.49-17,1.56C319.51,507.07,316.82,511.33,315.11,515.86Zm6.53-7.45c5.39-3.61,12.33-2.9,18.43-3.82,7.37,4.75,20.13,26.58,7.66,32.39-2.27,1.14-6.53,3.19-5,7a5.4,5.4,0,0,0,5.39,3.91,13.78,13.78,0,0,0-1.84,2.19,3,3,0,0,1-4.25.64c-1.14-.64-1.7-2-2.56-3.26h0V548c-.42-.43-.56-.92-1.13-1.35-.15-.21-.42,0-.29.22,3.12,5.88,4.68,13.6-.28,18.92-3.68,4-7.65,5.38-12.19,5.88,2.13-.71,4.54-2.41,5.39-4.53,1.41-2.84,1-5.75.14-8.65-.14-.14-.14-.14-.14,0,0,1.42.28,3.05.28,4.61-.56,2.26-1.13,4.25-3,5.17a3.51,3.51,0,0,1-3.12-.21c2.13-.36,5.25-3.19,3.84-6.32s-6.1-4.17-8.65-5.87c-1.71-1.14-3.83-2.91-3.27-5.61,1-3.82,4-5.53,6.24-7.87.28-.2,0-.49-.28-.2a20.6,20.6,0,0,0-3.26,2,5.26,5.26,0,0,1-3.83-1c1.56.22,3-.7,4-2.61,2.13-3.9-2.41-8.51-4-11.7C313,522.59,316.54,511.89,321.64,508.41Z" transform="translate(-26.36 -173.7)"/><path class="cls-59" d="M333.27,501.55a6.34,6.34,0,0,0,7.23,5.94c3.68-.42,6.23-4.11,5.81-7.87a6.52,6.52,0,0,0-7.23-6.08A7.3,7.3,0,0,0,333.27,501.55Z" transform="translate(-26.36 -173.7)"/><path class="cls-60" d="M332.41,501.55c1.56,9.78,16.31,7.79,14.89-2.14C345.6,489.7,331.71,491.76,332.41,501.55Zm1.85-.08c-.14-2.84,1-5.74,3.4-7,3-1.56,7.51.91,7.8,5.16,0,2.71-1.14,5.89-3.4,7C338.37,508.41,335,505.51,334.26,501.47Z" transform="translate(-26.36 -173.7)"/><path class="cls-61" d="M332.41,501.55c1.56,9.78,16.31,7.79,14.89-2.14C345.6,489.7,331.71,491.76,332.41,501.55Zm4.83-5.75a3.72,3.72,0,0,1,3.82-1.13h.57a2.88,2.88,0,0,1,.85,4.95,4.13,4.13,0,0,1-5.67.72C335.25,499.21,336.24,496.93,337.24,495.8Z" transform="translate(-26.36 -173.7)"/><path class="cls-59" d="M342.06,507.63c.42,4,3.68,6.67,7.23,6.1a7.4,7.4,0,0,0,5.8-8c-.42-4-3.68-6.73-7.22-6.1A7.21,7.21,0,0,0,342.06,507.63Z" transform="translate(-26.36 -173.7)"/><path class="cls-60" d="M341.06,507.78c1.7,9.78,16.45,7.66,14.89-2.27C354.39,495.8,340.5,497.71,341.06,507.78Zm2-.29c-.29-2.76.85-5.74,3.26-6.8,3.11-1.7,7.65.78,7.79,5,.14,2.84-1,5.88-3.39,6.95C347.16,514.51,343.62,511.68,343.05,507.49Z" transform="translate(-26.36 -173.7)"/><path class="cls-61" d="M341.06,507.78c1.7,9.78,16.45,7.66,14.89-2.27C354.39,495.8,340.5,497.71,341.06,507.78Zm5-5.88a3.41,3.41,0,0,1,3.83-1c.14-.14.29-.14.57-.14a3,3,0,0,1,.85,5.09,4,4,0,0,1-5.67.5C344,505.29,344.89,503,346,501.9Z" transform="translate(-26.36 -173.7)"/><path class="cls-62" d="M318.38,543.43s4.68-2.83,3-9.14c-1.85-6.31-5.67-10.35-3.41-16.66,2.42-6.52,5.67-7.86,6.39-6.3.84,1.34-5.25,6.3-3.27,16.08S323.76,540.52,318.38,543.43Z" transform="translate(-26.36 -173.7)"/><path class="cls-62" d="M325.18,519.26c.14.86-1,4.6-.7,6.24.42,2.26.7,6.31,3.53,11.06.29-.43-1.69-4.75-.27-5.82,3.54,2,.56,11.2,2.12,14.81,2.55,5.32,6.38,8.16,6.53,14.4,2.12-4-1.29-9-2.7-12.48-2-5-1.28-7.65.28-12.27.43,2.49,1.13,5.61,3.27,6.67-2.7-7.8,1.13-8.58,4.1-14.31.43-.93,2.28-5.32.72-6-1.42-.35-2.71,3.9-3.69,4.6-5.53,4.76-2.27-5.94-5-7.44-4-2-5.11,10.07-8.23.78Z" transform="translate(-26.36 -173.7)"/><path class="cls-62" d="M324.9,544.77c.15,0,.28,0,.15.15-1.29,1.35-3.12,3.33-2.85,5.38a7.72,7.72,0,0,0,1.56,3.41c1.42,2,3.55,3.33,5,5.17.29.29,0,.64-.29.43-2.12-2.27-5.52-3.4-7.37-6.1C318.81,549.39,322.07,546.13,324.9,544.77Z" transform="translate(-26.36 -173.7)"/><path class="cls-49" d="M450.07,484.54c-16.86,1.83-38.27-7.38-70.74-29.93-36.57-25.65-36-52-30.61-62.37s8.22-21.69,3.82-37.57c-8.5-32.88,15.18-59.25,15.18-59.25,44.93-25.16,110.71,10.85,146.86,38.56C541.94,355.82,548.31,373,547,384.59s3.12,27-3.25,38.49A121.21,121.21,0,0,1,450.07,484.54Z" transform="translate(-26.36 -173.7)"/><path class="cls-63" d="M405.56,472.42c-7.93-4.54-16.72-10-26.79-17-37-26.21-36.29-53-30.9-63.57,6.37-12,7.51-23.18,3.83-36.93-8.51-33.1,15.3-59.75,15.59-60.1l.14-.15c19.14-10.77,54.58-17,112.56,15.45a275.39,275.39,0,0,1,35.16,23.18c29.34,23.18,34,40.76,32.74,51.32a76.27,76.27,0,0,0,.15,12.75c.42,9,.84,18.3-3.41,26.23-7,12.9-34.45,55.36-94.56,61.88C438.17,486.8,424,482.61,405.56,472.42ZM368.42,296.13c-1.56,1.91-23,27.22-14.88,58.34,3.82,14.17,2.41,25.86-4,38.13-5.24,10-5.66,35.65,30.34,61.31a297.56,297.56,0,0,0,26.52,16.94c18,10,31.89,14,43.51,12.83,59.12-6.52,86.34-48.2,93.14-60.89,4.11-7.58,3.55-16.58,3.12-25.37-.14-4.6-.57-9.08,0-13,1.13-10.14-3.55-27-32.18-49.62a277.12,277.12,0,0,0-34.87-23.11C422,279.69,387.28,285.64,368.42,296.13Z" transform="translate(-26.36 -173.7)"/><g class="cls-13"><path class="cls-64" d="M543.79,423.08c6.37-11.49,2-27,3.25-38.49s-5.1-28.77-32.46-50.61c-36.15-27.71-101.93-63.72-146.86-38.56,0,0-23.68,26.37-15.18,59.25,4.4,15.88,1.7,27.22-3.82,37.57s-6,36.72,30.61,62.37c32.47,22.55,53.88,31.76,70.74,29.93A121.21,121.21,0,0,0,543.79,423.08ZM467.23,476c-22.68,8.87-38,4.82-81.94-24.52-57.69-38.55-14.18-66.77-19.42-82.78-5-15.88,7.93-31.84,7.93-31.84s8.8-13.53,29.07-17.57c19.28,56.28,61.52,44.36,61.52,44.36s-5.24-4-9.92-23.46C469.92,357.37,478,360.49,478,360.49s-6.39,9.5-4.68,19.06c19.56-34.8,42.09-9.14,47.62-1.69.71-7.87.57-9.5.57-9.5s17.44,6.59,18,33.45C533.85,448.67,489.91,466.88,467.23,476Z" transform="translate(-26.36 -173.7)"/></g><path class="cls-65" d="M521.52,368.36s.14,1.63-.57,9.5c-5.53-7.45-28.06-33.11-47.62,1.69C471.62,370,478,360.49,478,360.49s-8.09-3.12-23.54-20.28c4.68,19.43,9.92,23.46,9.92,23.46s-42.24,11.92-61.52-44.36c-20.27,4-29.07,17.57-29.07,17.57s-12.9,16-7.93,31.84c5.24,16-38.27,44.23,19.42,82.78,43.95,29.34,59.26,33.39,81.94,24.52,22.68-9.14,66.62-27.35,72.29-74.21C539,375,521.52,368.36,521.52,368.36Z" transform="translate(-26.36 -173.7)"/><path class="cls-66" d="M514.58,334c-36.15-27.71-101.93-63.72-146.86-38.56,0,0-23.68,26.37-15.18,59.25,2.55,9.22,2.7,17,1.28,23.83,2.13-1.93,4-5.61,4.12-12.27.7-18.42,14.88-48.48,48.75-58.83-3.82,9,12.77,50.19,50.62,54-7.94-10.13-12.19-29.27-9.08-38.48,0,11.05,18.57,29.13,31.76,34.44-9.21-11.69-10.5-22.05-10.5-22.05s19.29,24.88,51.46,29c15.32,2.48,32.19,29.77,24.11,55.85-.14.36-.14.92-.29,1.2,5.1-11.34,1.13-25.94,2.27-36.78C548.31,373,541.94,355.82,514.58,334Z" transform="translate(-26.36 -173.7)"/><path class="cls-56" d="M511.46,460.92c15.17-.42,62.23-29.05,72.3-78.81,9.92-49.54-30.62-112.34-77.54-135.53-66.77-32.52-104.77-15.1-138.65,5-36,21.19-50,3.82-50,3.82S319.94,277.21,335,279c-43.09,24.81-33.17,60-33.17,60s.56-4,4.39-11.85C298,413,367.43,445.41,367.43,445.41s-30.19-26.79-18.71-53.17c6.94-14.88,7.08-23,3.82-37.57S346.73,329,363,307.83c-7.24,18.49-6.53,41.67-6.53,41.67s14.6-43.59,58.27-49.76c-11,15.88,9.92,56.5,39.55,58.41-11.48-9.15-16-32.67-5-47.63-.57,18,17.86,39.06,28.91,44.15A42.37,42.37,0,0,1,464.68,317s16.87,46.63,69.32,44.72c13,19.35,13,27.58,13.32,33.18C548.46,414.22,551.29,428,511.46,460.92Z" transform="translate(-26.36 -173.7)"/><path class="cls-58" d="M364.31,444.27a120.37,120.37,0,0,1-36.85-33c-17-23.11-24.39-50.6-21.84-81.66a41.85,41.85,0,0,0-3.41,9.37s0,.14-.13.14c-.14.21-.28.27-.57.06-.14,0-.28-.06-.28-.2a45.29,45.29,0,0,1,.57-20.85c2.69-10.77,10.35-26.07,31.89-38.91a13.42,13.42,0,0,1-4.53-1.63c-10.07-5.6-12.06-21.33-12.06-22.11,0,0,0-.36.15-.36.28-.21.43-.21.57,0a19.12,19.12,0,0,0,4.25,3.27c6.23,3.47,20.41,7.23,45.22-7.31,35.72-21,73.15-37.06,139.34-5,1.56.64,3.12,1.56,4.83,2.48,22.12,12.34,42.81,33.52,56.84,58.19C583,332.92,588.72,359.64,584,382.11c-10.07,51.1-58.12,78.81-72.58,79-.43.21-.43,0-.56-.22a.54.54,0,0,1,.13-.42c37.85-31.12,37-45.08,36-62.87,0-.85-.14-1.77-.14-2.69v-.56c-.28-5.4-.71-13.62-13-32.19-14,.35-26.65-2.34-37.84-8.65-19.56-10.91-28.78-29.48-31.19-34.86a42.86,42.86,0,0,0,13.89,35.79c.15.2.15.2,0,.42s-.43.36-.7.21a15,15,0,0,1-1.56-.78C465.24,348,449.23,328.66,448.8,312c-8.08,12.47-7.23,35.43,5.81,45.79a.34.34,0,0,1,0,.49.26.26,0,0,1-.28.29,36.19,36.19,0,0,1-15.88-4.83c-12.47-6.94-22.82-21-26.23-35.22-1.55-7.3-1.13-13.61,1.56-18.15-41,6.31-55.71,46.65-56.7,49.12v.22c-.14.21-.43.21-.7.21s-.15-.21-.15-.43-.57-21.19,5.1-39.05c-13.89,19.57-11.62,30.05-8.22,44.22,3.12,14,3.12,22.27-3.82,37.72-11.34,25.72,18.14,52.44,18.43,52.81.14,0,.14.21,0,.42s-.29.2-.43.2S366.16,445.26,364.31,444.27ZM306.47,326.75c.14,0,.14.21.14.42-3.11,32,4.12,60,21.4,83.58a122.22,122.22,0,0,0,36.59,32.74l.14.07c-6.53-6.94-25.94-29.48-16.31-51.53,6.95-15.09,6.81-23.39,3.7-37.14-3.41-14.68-6-25.87,10.33-47.28.15-.21.58-.21.58-.21h0c.14.21.28.43.14.64-5.39,14.75-6.1,32.75-6.1,39,3.69-8.85,19.84-42.52,57.7-47.7,0,0,.14.14.14.21.28.14.28.36,0,.43-2.83,4.19-3.55,10.84-1.7,18.28,3.12,14,13.46,27.79,25.66,34.66a35.5,35.5,0,0,0,14,4.62c-10.77-9.93-15-32.4-4-47.29.15-.14.29-.21.43-.14s.56.14.28.36c-.42,16,14.74,35.23,26.08,42.32a44.34,44.34,0,0,1-11.62-36,.7.7,0,0,1,.57-.22s.28,0,.28.22,8.8,23.18,31.48,36c11.05,6.09,23.81,8.92,37.56,8.36.14,0,.28,0,.42.35,12.62,18.78,13,27.29,13.33,32.83v.56c0,.92.14,1.84.14,2.69,1.28,17.79,2,32-35.16,62.59,7.95-.85,22.41-7.94,36.44-20.48,12.61-11.49,28.64-30.49,34.16-57.63,4.54-22.47-1.13-49.05-15.73-74.85C553.71,282.81,533,261.68,511,249.49c-1.55-.85-3.25-1.77-4.81-2.69-65.78-31.76-102.92-15.73-138.5,5.1-25,14.75-39.71,10.92-46.22,7.31a18.38,18.38,0,0,1-3.41-2.49c.72,4,3.41,15.66,11.49,20.13a12,12,0,0,0,5.39,1.71c.28,0,.28.21.28.42.28.14,0,.35-.15.49-22,12.63-29.77,28.14-32.46,38.84A45.7,45.7,0,0,0,301.8,337a74.86,74.86,0,0,1,4-10.14c.15-.07.29-.29.43-.07Z" transform="translate(-26.36 -173.7)"/><g class="cls-67"><path class="cls-56" d="M583.76,382.11c9.92-49.54-30.62-112.34-77.54-135.53-26.52-13-48.63-18-67.77-18,86.9,16.44,97.82,80.16,97.82,80.16S521,296.2,509.61,297.26c19.29,10.35,25.1,19.35,42.25,46.93,13.19,21-1.42,27.5-1.42,27.5s1.42-8.72-12.33-19.28-23.39-29.27-23.39-29.27.7,21.61,11.77,31.75c-42.68-5-57.41-51.82-57.41-51.82s-12.62,7-8.37,29.07c-6.81-6-10.35-26.79-6.1-32.61-14.74,6.74-24.66,28.56-14.17,46.35C408.83,320.23,422.86,291,422.86,291c-39.12-.7-59.82,36.22-59.82,36.22,3.82-22.6,9.63-33.31,9.63-33.31-18,11.06-27.92,23.89-27.78,50.33-15.31-29.14,8.08-54.8,8.08-54.8s-20.41,7-27.22,38.7c-5.81-21.82,8.22-47.27,27.79-53.37-16.45,2.06-26.51-6.94-32.18-16.23a13,13,0,0,1-3.83-3.12S319.94,277.21,335,279c-43.09,24.81-33.17,60-33.17,60s.56-4,4.39-11.85C298,413,367.43,445.41,367.43,445.41s-30.19-26.79-18.71-53.17c6.94-14.88,7.08-23,3.82-37.57S346.73,329,363,307.83c-7.24,18.49-6.53,41.67-6.53,41.67s14.6-43.59,58.27-49.76c-11,15.88,9.92,56.5,39.55,58.41-11.48-9.15-16-32.67-5-47.63-.57,18,17.86,39.06,28.91,44.15A42.37,42.37,0,0,1,464.68,317s16.87,46.63,69.32,44.72c13,19.35,13,27.58,13.32,33.18,1.14,19.28,4,33.09-35.86,66C526.63,460.5,573.69,431.87,583.76,382.11Z" transform="translate(-26.36 -173.7)"/></g><path class="cls-49" d="M346.73,395.29c2.27-7.3,6.53-13.82,7.23-21.47a3.58,3.58,0,0,0-1.42-1.35c-5.94-4.32-14.88-5.67-20,6.3-4.82,11.7,5.1,25.67,12.9,26.66C345.17,402,346,398.34,346.73,395.29Z" transform="translate(-26.36 -173.7)"/><path class="cls-63" d="M346.73,395.29l1-2.84,1-2.55,2.13-5.31.85-2.7.84-2.69.72-2.69.28-2.69.14.21-1.28-1.14c-.42-.21-1.13-.7-1.69-.92a13,13,0,0,0-3.27-1.34,8.35,8.35,0,0,0-3.54-.43,6.36,6.36,0,0,0-3.26.64,9.17,9.17,0,0,0-2.84,1.84,13.73,13.73,0,0,0-1.41,1.2l-1.14,1.5c-.42,1-1.13,2-1.56,3.12,0,.27-.28.7-.28.84l-.43.85a10.19,10.19,0,0,0-.42,1.7,6.83,6.83,0,0,0-.15,1.77l-.27,1.71a16,16,0,0,0,.27,3.61,3.38,3.38,0,0,0,.43,1.7c.14.64.14,1.35.57,1.77a10,10,0,0,0,1.42,3.41,11.6,11.6,0,0,0,1.83,3.12,15.72,15.72,0,0,0,2.42,2.83,17.64,17.64,0,0,0,3,2.27,10.7,10.7,0,0,0,3.4,1.21V402.8l.14-2.55.57-2.34Zm0,0-.56,2.62-.43,2.34-.28,2.55.14,2.63v.14h-.14a14.48,14.48,0,0,1-3.69-1.13,13.64,13.64,0,0,1-3-2.27,9.64,9.64,0,0,1-2.7-2.7,14.46,14.46,0,0,1-2.13-3,17.22,17.22,0,0,1-1.83-3.54,18,18,0,0,1-.72-1.85,6,6,0,0,1-.42-1.77,19.13,19.13,0,0,1-.42-4v-1.92a5.07,5.07,0,0,1,.42-2c0-.57.28-1.28.28-1.84l.43-.86c.14-.49.14-.7.43-.91a13.3,13.3,0,0,1,1.83-3.47l1.13-1.71c.43-.36,1-.92,1.56-1.35a12.1,12.1,0,0,1,3.41-2.05,11.88,11.88,0,0,1,3.83-.64,14.8,14.8,0,0,1,4,.78,9.69,9.69,0,0,1,3.4,1.7c.71.21,1.13.64,1.7.85.29.71,1,1.07,1.42,1.49l.28.21-.28.15-.43,2.9-.85,2.7-1,2.69L351,384.73,348.72,390l-.85,2.47Z" transform="translate(-26.36 -173.7)"/><g class="cls-39"><path class="cls-68" d="M346.73,395.29c2.27-7.3,6.53-13.82,7.23-21.47a3.58,3.58,0,0,0-1.42-1.35c-3.12-2.27-6.94-3.62-10.48-2.76,3.25.28,6.52,1.41,8.5,4.74,5.24,8.58-1.27,9.21-5.67,6.24s-9.21-.36-5.39,8.15c2.56,6,1.84,13.12-2.69,11.21,2.69,3,5.95,5,8.65,5.52C345.17,402,346,398.34,346.73,395.29Z" transform="translate(-26.36 -173.7)"/></g><path class="cls-63" d="M348.43,390.89c.29-.56.57-1.34.86-1.91a18.28,18.28,0,0,0-2.42-4.25c-1.27-1.7-5.67-3.26-6.23.07h0c1.42-2,4.25-.63,5.38.93a21.12,21.12,0,0,1,2.13,4.25A1.75,1.75,0,0,0,348.43,390.89Z" transform="translate(-26.36 -173.7)"/><path class="cls-49" d="M547.32,402.59c-.28-6.09-1.56-12.26-.42-18.21a9.16,9.16,0,0,1,4.53-3.48c7.09-2.4,16-1.35,17.58,11.55s-12.9,24.11-20.55,22.12a4.55,4.55,0,0,1-.71-1.35C547.61,409.68,547.46,406.21,547.32,402.59Z" transform="translate(-26.36 -173.7)"/><path class="cls-63" d="M547.32,402.59c-.14-2.91-.57-6.09-.84-9,0-1.57-.15-3.13-.29-4.76l.14-2.2.29-2.26h0v-.21a16.42,16.42,0,0,1,3-3c.71-.29,1.27-.5,2-.86a5.1,5.1,0,0,1,1.84-.49,15.72,15.72,0,0,1,4.25-.64,13.24,13.24,0,0,1,4.11.64,12,12,0,0,1,3.68,2.27,16.61,16.61,0,0,1,2.57,3.62,12.31,12.31,0,0,0,1,2,5.37,5.37,0,0,0,.43,2c.15.71.15,1.35.28,2.06l.14.57v2.55l-.14,1.13c0,.71-.13,1.49-.13,2.13a26.89,26.89,0,0,1-1.56,4l-.86,1.77a12.69,12.69,0,0,0-1.13,1.84,32.52,32.52,0,0,1-3,3.12,5.65,5.65,0,0,1-1.56,1.34c-.43.51-1,.78-1.56,1.35a26.72,26.72,0,0,1-3.54,1.85,16,16,0,0,1-1.85.78,15.39,15.39,0,0,1-2.13.56,13.23,13.23,0,0,1-4.11-.21h0c-.27-.28-.27-.49-.42-.71s-.14-.42-.28-.64h0C547.61,409.68,547.46,406.21,547.32,402.59Zm0,0c.14,3.62.29,7.09.43,10.63h0c.14.22.29.29.29.64a1,1,0,0,0,.42.43h0a8.83,8.83,0,0,0,3.83,0c.7-.21,1.42-.43,2-.64a10.35,10.35,0,0,0,1.84-.78,23.14,23.14,0,0,0,3.41-2.12c.42-.51,1-.86,1.41-1.29a13.39,13.39,0,0,0,1.56-1.48,14,14,0,0,0,2.13-2.9l1.13-1.78,1-1.84a28.25,28.25,0,0,0,1.14-3.55c0-.7.15-1.41.15-1.84l.14-1.13c.13-.21,0-.56,0-.85L568,393v-.51l-.15-.42a8.87,8.87,0,0,0-.14-1.92,11.9,11.9,0,0,0-.57-1.91,12.08,12.08,0,0,1-.7-1.77c-.43-.49-.43-1.13-1-1.63l-.41-.63-.72-.72a5.79,5.79,0,0,0-3-2,11.61,11.61,0,0,0-7.65-.57,14.52,14.52,0,0,0-1.85.29c-.71.28-1.42.49-1.84.7a8.63,8.63,0,0,0-2.84,2.7v-.21l-.43,2.26-.13,2.34v4.62c.13,1.34.28,2.9.42,4.52S547.32,401.18,547.32,402.59Z" transform="translate(-26.36 -173.7)"/><g class="cls-39"><path class="cls-68" d="M547.32,402.59c-.28-6.09-1.56-12.26-.42-18.21a9.16,9.16,0,0,1,4.53-3.48c3.55-1.27,7.66-1.56,11.06.21-3.26-.56-6.81-.35-9.64,2.13-7.37,6.87-1.42,9.21,3.69,7.65,5.24-1.77,8.92,2.07,3,9.22-4.25,5.18-5.25,12-.43,11.48-3.82,2.49-7.66,3.62-10.63,3a4.55,4.55,0,0,1-.71-1.35C547.61,409.68,547.46,406.21,547.32,402.59Z" transform="translate(-26.36 -173.7)"/></g><path class="cls-63" d="M547.32,403.73c1.14-3.68,3.12-7.23,6.1-9.43,1.85-1.34,6.52-1.7,6.1,1.77,0,.14-.29.14-.29,0-.43-2.47-3.69-1.77-5-.64A15.66,15.66,0,0,0,551,399c-.27.49-.56.85-.84,1.27.14.21.7.21.84.36a4.32,4.32,0,0,1,1.15.63,5.09,5.09,0,0,1,1.27.72.87.87,0,0,1,.7.43v-.22h0c.15,0,.15,0,.15.22.14,0,0,.13,0,.13a5.08,5.08,0,0,1-1.85.07c-.27-.2-1-.07-1.69-.42a3.49,3.49,0,0,1-1.28-.93c-.71,1.35-1.41,2.7-2,4.05A5.89,5.89,0,0,0,547.32,403.73Z" transform="translate(-26.36 -173.7)"/><path class="cls-58" d="M359.21,277.78c-1.42.35-3,.7-4.25,1-1.28.49-2.56,1.13-4,1.62l-3.54,2a25.19,25.19,0,0,0-3.54,2.48l-1.84,1.35c-.43.35-1,.92-1.42,1.35a12,12,0,0,0-2.84,3.18c-1,1.14-2,2.14-2.7,3.12a37.82,37.82,0,0,1-2.26,3.76L331,301.3c-.57,1.36-.85,2.7-1.42,4.05-.42,1.34-1,2.69-1.28,4l-.84,4c-.15.93-.29,1.42-.43,2.2l-.15,2.13-.43,4.26v8.42h-.7c.43-1.34.57-2.55,1-3.9s.86-2.69,1.27-4a7.16,7.16,0,0,0,.72-1.92,8.4,8.4,0,0,0,.85-1.76,18.43,18.43,0,0,1,2-3.62,13.46,13.46,0,0,1,1-1.85c.28-.42.71-1,1.13-1.56.71-1.13,1.56-2.26,2.27-3.33a56.5,56.5,0,0,1,5.24-6.09.34.34,0,0,1,.57,0c.29.22.29.42,0,.57h0a25,25,0,0,0-1.56,2.55,15.17,15.17,0,0,0-1.56,3c-.43,1-.85,1.92-1.27,2.92a20.45,20.45,0,0,0-1.14,3,29.36,29.36,0,0,0-.71,3,28.44,28.44,0,0,0-.56,3.12,28.06,28.06,0,0,0-.43,3.27v3.25a26.45,26.45,0,0,0,.43,3.2,27.62,27.62,0,0,0,.56,3.12l1.13,3.19.15.63.28.71.71,1.41a18.32,18.32,0,0,0,1.55,2.84l1.71,2.7a18.61,18.61,0,0,0,2.13,2.47l2.12,2.49-.56.14a34,34,0,0,1,.85-5.32c.28-1.77.71-3.47,1.13-5.17.14-.93.57-1.77.71-2.62a15.89,15.89,0,0,1,.85-2.55l1-2.48.85-2.48a21.83,21.83,0,0,0,1.13-2.49,17.87,17.87,0,0,1,1.13-2.34c.86-1.69,1.56-3.25,2.42-4.89,1.69-3.12,3.68-6,5.66-9-1.84,3-3.68,6-5.39,9.14a53.78,53.78,0,0,0-2.55,4.83c-.28.7-.56,1.62-1,2.47a16.57,16.57,0,0,1-1,2.28c-.71,1.76-1.27,3.47-1.84,5.17-.29.78-.57,1.7-.85,2.48a16.85,16.85,0,0,1-.71,2.48c-.43,1.78-.85,3.61-1.14,5.17a35.33,35.33,0,0,0-.56,5.39h0c0,.22-.29.22-.57.22h0l-2.13-2.49a18,18,0,0,1-2.12-2.55l-1.7-2.62a12.85,12.85,0,0,1-1.7-2.9l-.58-1.5-.42-.64-.28-.78-1-3.18c-.43-1.13-.43-2.12-.85-3.27a22.59,22.59,0,0,1-.15-3.26,6.39,6.39,0,0,1,0-3.25,23.94,23.94,0,0,1,.15-3.27,22.81,22.81,0,0,1,.56-3.26c.29-1,.57-2.12.85-3,.43-1.13.71-2.27,1.13-3.27s.72-1.91,1.14-2.9,1.14-1.91,1.7-2.91,1-1.91,1.56-2.83l.71.57c-1.7,1.91-3.55,3.9-5.11,6-.84,1.13-1.56,2.05-2.4,3.33-.29.43-.57,1.06-1,1.64a4.22,4.22,0,0,0-.86,1.7,16.15,16.15,0,0,0-2,3.61,7.12,7.12,0,0,0-1,1.7c-.27.63-.41,1.2-.7,1.92a25.53,25.53,0,0,0-1.27,3.82c-.58,1.13-.58,2.49-1,3.83h0c0,.22-.13.22-.27.22a.41.41,0,0,1-.43-.37v-8.5l.57-4.32.13-2a9.53,9.53,0,0,1,.43-2.2l1-4.11a21.87,21.87,0,0,1,1.14-4.18,42.94,42.94,0,0,1,1.56-4l1.83-3.83a37.12,37.12,0,0,1,2.42-3.6c.7-1.15,1.83-2.14,2.55-3.2a19.67,19.67,0,0,1,3-3.12c.56-.42,1-1,1.7-1.49l1.56-1.2c1.13-1,2.4-1.56,3.68-2.49a23.12,23.12,0,0,1,3.68-1.77,24.93,24.93,0,0,1,4-1.62A19.52,19.52,0,0,1,359.21,277.78Z" transform="translate(-26.36 -173.7)"/><path class="cls-58" d="M318.09,310.09a26.59,26.59,0,0,0-2.26,2.7,67.11,67.11,0,0,0-4.68,6.3,37,37,0,0,1-2.27,3.48,33.46,33.46,0,0,1-1.56,3.26c-.14.49-.43.92-.57,1.34a5.93,5.93,0,0,1-.28,1,2.29,2.29,0,0,0-.28.92v-.92c.15-.29.15-.64.42-1.21a5.64,5.64,0,0,1,.28-1.34,27.54,27.54,0,0,1,1.42-3.41,17.92,17.92,0,0,1,2.13-3.53c1-1.29,1.71-2.49,2.56-3.41.84-1.13,1.7-2,2.4-2.84A26.5,26.5,0,0,1,318.09,310.09Z" transform="translate(-26.36 -173.7)"/><path class="cls-62" d="M386.15,278.34s-35.73,17.08-40.55,45.23C339.35,307.18,348.15,278.13,386.15,278.34Z" transform="translate(-26.36 -173.7)"/><path class="cls-62" d="M366.3,277.21s-26.8,2.34-37.71,35.22C325.32,294.43,335,274.09,366.3,277.21Z" transform="translate(-26.36 -173.7)"/><path class="cls-62" d="M329.72,264s15,9.5,36.15-6S361.19,285.43,329.72,264Z" transform="translate(-26.36 -173.7)"/><path class="cls-62" d="M386,251.12s54.72-39.05,115.39,11.7C476.16,231.7,429,215,386,251.12Z" transform="translate(-26.36 -173.7)"/><path class="cls-62" d="M412.65,268.91s-13.6,3-35.87,33.95c25.1-21.4,51.89-16.86,51.89-16.86s-12.62,13.18,3.26,45c-8.79-35.8,27.22-39.84,27.22-39.84s-9.5,8.79-2.27,29.28c1-16.23,16.88-24.74,16.88-24.74s10.62,37.14,41.81,51c-23.81-24.45-11.49-41.31-11.49-41.31s17.58,35.15,44.38,42.09c-13.47-13-44.09-71.59-56.7-57.62-6.53,5.89-11.63-13-22.27-7s-9.21-16.16-24.66-9.29C429.38,280.61,447.1,259.21,412.65,268.91Z" transform="translate(-26.36 -173.7)"/><path class="cls-66" d="M463.69,420s6.52-31,27.49-35.65c17.73-2.27,24,16.65,24,16.65a21.8,21.8,0,0,1-3.55,9.21c6.66-.35,9.35,1.56,9.35,1.56s-17.43-3.12-29.77,21.77c0-6.17.72-8.09.72-8.09A31.89,31.89,0,0,1,463.69,420Z" transform="translate(-26.36 -173.7)"/><path class="cls-66" d="M418.32,420s-3.83-27.07-21-34.52-25.66,12.4-25.66,12.4L375.51,408s-.56-.64-5.39.7c12.06,2.07,19.85,13.27,22.26,17.58l.71-2.69S406.69,429.38,418.32,420Z" transform="translate(-26.36 -173.7)"/><path class="cls-66" d="M431.36,427.62c7.09-2.7,4.83-13.33,2.13-19.15.28,9.57-4.11,13.26-5.95,15.74-4.25,5.17-1.71,9.71,3.26,14a22.21,22.21,0,0,0,7.22,4.25c4.4,1.42,10.07-1.07,8.93-6.39-1.41-6.72-8.36-5.87-11.62-5.94C431.65,430,430.8,428,431.36,427.62Z" transform="translate(-26.36 -173.7)"/><path class="cls-69" d="M435.61,418.82c-.7,4.26-2.83,7.87-7.37,8.8h0a6,6,0,0,0,5.67-2.06,9,9,0,0,0,2-6.74A.15.15,0,1,0,435.61,418.82Z" transform="translate(-26.36 -173.7)"/><path class="cls-69" d="M435.05,414.57a8.78,8.78,0,0,1,.56,2.69h0a4.3,4.3,0,0,0-.28-2.69C435.33,414.29,435.05,414.29,435.05,414.57Z" transform="translate(-26.36 -173.7)"/><path class="cls-70" d="M434.05,408.9c1.85,5.67,4.4,13.61-.84,17.94s3.54,2.54,5.81.56c2.55-1.92,5.24-6.09,1.13-12.83C436.19,407.69,432.49,404.08,434.05,408.9Z" transform="translate(-26.36 -173.7)"/><path class="cls-69" d="M443.13,437s-.28.21-.85.71a15,15,0,0,1-2.41.85,7.39,7.39,0,0,1-4,0c-.57-.22-1.27-.42-2-.63-.7-.37-1.42-.78-2-1.15a18.53,18.53,0,0,0-1.7-1.56c-.43-.49-.85-1.13-1.28-1.56a10.88,10.88,0,0,1-1-1.83,3.24,3.24,0,0,1-.43-1.91,2.66,2.66,0,0,1,.7-1.71c.29-.28.43-.63.86-.63a2.32,2.32,0,0,1,1-.58,2.79,2.79,0,0,0-.85.78,3,3,0,0,0-.57,2.14,6.12,6.12,0,0,0,.43,1.27,2.58,2.58,0,0,0,1.13,1.34c.28.64.85,1,1.13,1.56a6.36,6.36,0,0,1,1.56,1.13,7.89,7.89,0,0,0,1.71,1.15,6.39,6.39,0,0,0,1.7.78,11.47,11.47,0,0,0,3.4.56A12.84,12.84,0,0,0,443.13,437Z" transform="translate(-26.36 -173.7)"/><path class="cls-56" d="M513,380.9s-23.82-30.76-44.66,8.44C474.17,366.44,501.39,349.15,513,380.9Z" transform="translate(-26.36 -173.7)"/><path class="cls-58" d="M513,380.9a30.88,30.88,0,0,0-5.1-4.89,34.63,34.63,0,0,0-6.1-3.69,24.11,24.11,0,0,0-6.53-2.12,18.23,18.23,0,0,0-6.8.43,27,27,0,0,0-6.23,2.9,40.53,40.53,0,0,0-5.11,4.68,47.05,47.05,0,0,0-7.66,11.55,1.27,1.27,0,0,1-1.55.5,1.19,1.19,0,0,1-.43-1.14,34.67,34.67,0,0,1,3-8A44,44,0,0,1,475,374a32,32,0,0,1,5.94-6.09,31.57,31.57,0,0,1,7.38-4.19,17.13,17.13,0,0,1,8.5-.64,14.85,14.85,0,0,1,7.66,3.62c2.26,1.63,3.82,4.11,5.39,6.37A70.44,70.44,0,0,1,513,380.9Zm0,0a33.85,33.85,0,0,0-3.68-7.37,25.75,25.75,0,0,0-5.4-6,16.56,16.56,0,0,0-7.23-3.19,17.93,17.93,0,0,0-7.93,1.13c-4.83,1.84-8.94,5.39-12.33,9.71a42.06,42.06,0,0,0-7,14.39l-1.83-.71a58.29,58.29,0,0,1,8.07-11.9c3.41-3.62,7.52-6.67,12.48-7.73a17.58,17.58,0,0,1,7.22-.14,21.51,21.51,0,0,1,7,2.47A31,31,0,0,1,513,380.9Z" transform="translate(-26.36 -173.7)"/><path class="cls-71" d="M469.08,387.07c15.87-29.7,31.88-21.84,41-13a48.72,48.72,0,0,1,3,6.87s-23.82-30.76-44.66,8.44A7.44,7.44,0,0,0,469.08,387.07Z" transform="translate(-26.36 -173.7)"/><path class="cls-23" d="M415.91,419.46s-28.35,14.24-41.68-19.35C388.41,381.54,403.73,384,415.91,419.46Z" transform="translate(-26.36 -173.7)"/><path class="cls-72" d="M409.11,403.73c6.38,14-.71,20.7-15.74,14.52-18.42-10.13-13.75-22.53-13-24.65a30.14,30.14,0,0,0-6.1,6.51c13.33,33.59,41.68,19.35,41.68,19.35C413.78,413.22,411.66,407.9,409.11,403.73Z" transform="translate(-26.36 -173.7)"/><path class="cls-73" d="M406,403.3c.85,7.66-2.55,14.81-7.66,16.16s-10.21-3.82-11.05-11.48,2.4-14.81,7.65-16.16S405,395.51,406,403.3Z" transform="translate(-26.36 -173.7)"/><path class="cls-56" d="M406,403.3c.85,7.66-2.55,14.81-7.66,16.16s-10.21-3.82-11.05-11.48,2.4-14.81,7.65-16.16S405,395.51,406,403.3Z" transform="translate(-26.36 -173.7)"/><path class="cls-74" d="M404,404.44c.57,5.8-2.12,11.2-6.09,12.33-3.83.92-7.66-2.91-8.37-8.79s1.84-11.48,5.81-12.47S403.15,398.41,404,404.44Z" transform="translate(-26.36 -173.7)"/><path class="cls-75" d="M402.58,404.08c.57,4.6-1.56,8.87-4.67,9.78-3.26.71-6.1-2.27-6.53-6.87s1.42-9.08,4.55-9.78C399.05,396.29,402,399.47,402.58,404.08Z" transform="translate(-26.36 -173.7)"/><path class="cls-57" d="M387,405.78a9.31,9.31,0,0,0,.29,2.2c.84,7.66,5.81,12.9,11.05,11.48s8.51-8.5,7.66-16.16a5.54,5.54,0,0,0-.43-2.12C400.61,406.63,392.52,409.83,387,405.78Z" transform="translate(-26.36 -173.7)"/><path class="cls-23" d="M394.79,402.59c.14,2.49-1.13,4.75-2.69,4.75-1.7.35-3-1.35-3.12-3.82s1.13-4.54,2.83-4.83S394.79,400.11,394.79,402.59Z" transform="translate(-26.36 -173.7)"/><path class="cls-23" d="M394.08,410.46c0,1.13-.71,2.27-1.42,2.27-.85.22-1.56-.64-1.56-1.77s.71-2.28,1.42-2.28C393.23,408.47,394.08,409.25,394.08,410.46Z" transform="translate(-26.36 -173.7)"/><path class="cls-76" d="M413.78,413.86a92.67,92.67,0,0,0-6.8-12.25,60.64,60.64,0,0,0-4.26-5.4,24,24,0,0,0-5.09-4.18,12,12,0,0,0-3-1.14,14.6,14.6,0,0,0-3.12-.42,4.37,4.37,0,0,0-1.56.21,4.37,4.37,0,0,0-1.56.21,23.18,23.18,0,0,0-3.12,1,26,26,0,0,0-5.53,3.62,29.29,29.29,0,0,0-2.55,2.4c-.71.85-1.42,1.77-2.26,2.7h0c-.14.42-.72.42-1,.22-.85-.58-1.28-1.15-2-1.71-.43-.71-1.13-1.21-1.56-1.91a12.76,12.76,0,0,1-1.85-4.54,9.43,9.43,0,0,0,2.7,3.83,9.9,9.9,0,0,0,1.56,1.62,13,13,0,0,1,2.13,1.35h-1.28a32.3,32.3,0,0,1,4.39-5.67,24.85,24.85,0,0,1,6.1-4.46,12.41,12.41,0,0,1,3.55-1.35,11.52,11.52,0,0,0,1.83-.49c.71,0,1.56-.08,2-.08a12.66,12.66,0,0,1,4,.36c1.27.42,2.41,1.06,3.55,1.56a27,27,0,0,1,9.78,11.12,31.58,31.58,0,0,1,3,6.45A44.2,44.2,0,0,1,413.78,413.86Z" transform="translate(-26.36 -173.7)"/><path class="cls-76" d="M376.92,406.07s.43.56,1.14,1.62a32.89,32.89,0,0,0,3.4,3.9,8.29,8.29,0,0,0,2.41,2.27,13.59,13.59,0,0,0,3,2.48,25.2,25.2,0,0,0,3.4,2.06,6.81,6.81,0,0,0,1.71.85,9.31,9.31,0,0,0,2.12.78,12.76,12.76,0,0,0,3.83,1.06,25,25,0,0,0,4,.64c1.27,0,2.55-.21,3.68-.21a6.64,6.64,0,0,0,1.71-.15,4,4,0,0,0,1.56-.28,16.21,16.21,0,0,0,3-.56c.85-.14,1.56-.5,2.12-.57,1.28-.35,2-.5,2-.5s-.71.29-1.84.71a12.85,12.85,0,0,0-2,1.14c-.86.21-1.85.42-3,.78a4.34,4.34,0,0,1-1.56.35,5.07,5.07,0,0,1-1.84.43,11.57,11.57,0,0,1-3.83.21H399.6a6.79,6.79,0,0,1-2-.21,27.16,27.16,0,0,1-4.26-1.14,8.17,8.17,0,0,1-2-.78c-.84-.36-1.41-.78-2.11-1s-1.15-.78-1.71-1.14a7.72,7.72,0,0,1-1.7-1.35,13.07,13.07,0,0,1-2.84-2.61,10.22,10.22,0,0,1-2.4-2.55c-.72-.92-1.29-1.85-1.85-2.48a18,18,0,0,0-1-1.93C377.21,406.63,376.92,406.07,376.92,406.07Z" transform="translate(-26.36 -173.7)"/><path class="cls-23" d="M466.24,418.25s28.21,18.22,45.93-15.51C499.56,381.68,483.11,382.46,466.24,418.25Z" transform="translate(-26.36 -173.7)"/><path class="cls-72" d="M475,402.59c-8.09,13.89-1.27,21.84,15.17,17.16,20.41-8.58,17-22.12,16.43-24.6a82.4,82.4,0,0,1,5.54,7.59c-17.72,33.73-45.93,15.51-45.93,15.51A109.59,109.59,0,0,1,475,402.59Z" transform="translate(-26.36 -173.7)"/><path class="cls-73" d="M501.39,403.73c.29,8.22-4,15.73-9.63,16.8s-10.64-4.89-10.92-13.19c-.28-8.07,4-15.67,9.5-16.66S501,395.43,501.39,403.73Z" transform="translate(-26.36 -173.7)"/><path class="cls-56" d="M501.39,403.73c.29,8.22-4,15.73-9.63,16.8s-10.64-4.89-10.92-13.19c-.28-8.07,4-15.67,9.5-16.66S501,395.43,501.39,403.73Z" transform="translate(-26.36 -173.7)"/><path class="cls-74" d="M499,404.72c.15,6.24-3,12-7.51,12.75-4.11.93-7.79-3.61-8.08-9.92s3-12.12,7.23-12.82S498.56,398.34,499,404.72Z" transform="translate(-26.36 -173.7)"/><path class="cls-75" d="M497.57,404.44c.28,5-2.28,9.42-5.81,10.13s-6.39-3-6.53-7.94,2.41-9.56,5.81-10.13S497.42,399.47,497.57,404.44Z" transform="translate(-26.36 -173.7)"/><path class="cls-57" d="M480.84,405.08a12.19,12.19,0,0,0,0,2.26c.28,8.3,5.24,14.18,10.92,13.19s9.92-8.58,9.63-16.8c-.14-.64-.14-1.56-.28-2.27C495.16,407.13,486.08,409.83,480.84,405.08Z" transform="translate(-26.36 -173.7)"/><path class="cls-23" d="M489.2,402.17c0,2.69-1.56,5-3.26,5-1.7.21-3.12-1.84-2.83-4.39.14-2.63,1.56-4.83,3.26-4.83C488.21,397.63,489.49,399.68,489.2,402.17Z" transform="translate(-26.36 -173.7)"/><path class="cls-23" d="M487.93,410.46c-.29,1.34-.86,2.41-1.56,2.49-1,0-1.56-.86-1.56-2.14s.84-2.34,1.56-2.34C487.36,408.47,487.93,409.25,487.93,410.46Z" transform="translate(-26.36 -173.7)"/><path class="cls-76" d="M469.08,412.73a40.17,40.17,0,0,1,2.83-7.09,59.22,59.22,0,0,1,4-6.37,27.56,27.56,0,0,1,5-6,22.55,22.55,0,0,1,6.52-4.46,18,18,0,0,1,4-1.27c.57-.08,1.41-.08,2.13-.21l1,.13c.28.08.28,0,.57.08h.41a9.26,9.26,0,0,1,2.14.49,3.52,3.52,0,0,1,1.84.57,14,14,0,0,1,3.54,1.91,21.47,21.47,0,0,1,6,5.25,31.76,31.76,0,0,1,4,6.67L511.6,402a8.86,8.86,0,0,0,2.26-1.13c.58-.37,1.29-.93,2-1.36a18.83,18.83,0,0,0,3.27-3.75,12.6,12.6,0,0,1-2.56,4.39,8.2,8.2,0,0,1-2,1.91,8.36,8.36,0,0,1-2.12,1.5.83.83,0,0,1-1.14-.22v-.21a31.73,31.73,0,0,0-2.13-3,24.25,24.25,0,0,0-2.27-2.69,27.27,27.27,0,0,0-5.53-4.46,13.19,13.19,0,0,0-3-1.35,5.1,5.1,0,0,0-1.7-.57,4.77,4.77,0,0,0-1.55-.36h-3.4a12.34,12.34,0,0,0-3.13,1,19.17,19.17,0,0,0-5.95,3.76,56.81,56.81,0,0,0-5.1,5.18A122.07,122.07,0,0,0,469.08,412.73Z" transform="translate(-26.36 -173.7)"/><path class="cls-76" d="M508.91,408.68s-.58.78-1.28,1.78a18.67,18.67,0,0,0-1.41,2.06,10.59,10.59,0,0,1-2.14,2.26,17,17,0,0,1-2.69,2.48,19.45,19.45,0,0,1-3.39,2.55l-1.71,1.07a11.47,11.47,0,0,1-2.13.85,14.31,14.31,0,0,1-2.26.92c-.72.22-1.56.43-2.13.64a31.45,31.45,0,0,1-4.54.71,13.85,13.85,0,0,1-2.41,0c-.7,0-1.42-.14-2.12-.14-1.56-.21-2.84-.57-4-.78a8.36,8.36,0,0,1-2-.64,8.86,8.86,0,0,1-1.7-.71,13,13,0,0,1-2.83-1.14c-.72-.56-1.56-.84-2.14-1.34a7.22,7.22,0,0,1-1.83-1s.85.37,2.12.78c.72.22,1.27.58,2.28.93a12.26,12.26,0,0,0,2.69.92c.56.21,1.13.21,1.7.43a5,5,0,0,0,1.84.42,36.18,36.18,0,0,1,3.83.5,28.69,28.69,0,0,0,4.25,0,35.86,35.86,0,0,0,4.25-.71,17.9,17.9,0,0,1,2.27-.57,8.25,8.25,0,0,1,2-.78,31,31,0,0,0,3.82-1.77c1.13-.93,2.28-1.34,3.41-2.2a30.66,30.66,0,0,0,2.69-2.12,13.12,13.12,0,0,0,2.26-2.13,7.83,7.83,0,0,0,1.56-1.71C508.33,409.25,508.91,408.68,508.91,408.68Z" transform="translate(-26.36 -173.7)"/><path class="cls-69" d="M491.9,432s.56-2.05,1.7-5c.85-1.48,1.69-3.18,2.84-4.81.7-.86,1.41-1.7,2-2.48.72-.72,1.57-1.64,2.28-2.28a25.71,25.71,0,0,1,2.55-2.05,5,5,0,0,0,1.27-.85c.57-.28,1.13-.49,1.71-.71a10.64,10.64,0,0,1,1.27-.64,4.4,4.4,0,0,1,1.42-.49,6.89,6.89,0,0,0,1.27-.42c.43,0,.72-.22,1.14-.22a14.4,14.4,0,0,1,2.27-.29h3.11a8.1,8.1,0,0,1-1.28.29c-.56.22-1.13.22-1.69.43-.71.21-1.42.43-2.13.7a9.32,9.32,0,0,0-2.41.86,7.32,7.32,0,0,0-1.27.49,8.45,8.45,0,0,1-1.15.64,8.81,8.81,0,0,1-1.27.7,4,4,0,0,0-1.13,1,16.62,16.62,0,0,0-2.55,1.91,9.85,9.85,0,0,0-2.13,2.06c-.71.85-1.42,1.56-1.84,2.2a21.9,21.9,0,0,0-1.84,2.26,8.12,8.12,0,0,0-1.28,2.28,17.2,17.2,0,0,0-2.13,3.12C492.18,431.52,491.9,432,491.9,432Z" transform="translate(-26.36 -173.7)"/><path class="cls-69" d="M393.09,429a11,11,0,0,0-.57-1.14,20.87,20.87,0,0,0-2.12-3.39c-.43-.65-.72-1.35-1.13-2-.58-.71-1.29-1.56-1.85-2.27-.57-.92-1.42-1.55-2-2.33a9.51,9.51,0,0,0-2.26-1.93,12.74,12.74,0,0,0-2.28-2.05,6.68,6.68,0,0,0-1.27-.91,11.4,11.4,0,0,0-1.42-.64,11,11,0,0,0-1-.72,12.17,12.17,0,0,1-1.42-.63c-.84-.35-1.56-.72-2.26-.93a12.37,12.37,0,0,1-2-.57,6,6,0,0,1-1.7-.35,5.92,5.92,0,0,1-1.42-.21h3.12c.7,0,1.28.15,2.26.21a3.24,3.24,0,0,0,1.15.14,10.27,10.27,0,0,1,1.27.58,4.36,4.36,0,0,1,1.56.41c.42,0,.7.37,1.28.57a15.35,15.35,0,0,1,1.41.78,3.65,3.65,0,0,1,1.28.78,22.24,22.24,0,0,1,2.55,1.92c1,.92,1.56,1.62,2.27,2.4a16.73,16.73,0,0,1,2.12,2.49,36,36,0,0,1,2.69,4.82A18.36,18.36,0,0,1,393.09,429Z" transform="translate(-26.36 -173.7)"/><path class="cls-70" d="M520.53,415.64c3.12,1.05,3.4,3.61.15,6.66-3.41,3-7.95,4-11.49,7-2.13,1.91-6.24,9.64-9.5,9.28-5.39-.63-3.68-9.64-2.27-12.54A19.32,19.32,0,0,1,520.53,415.64Z" transform="translate(-26.36 -173.7)"/><path class="cls-70" d="M365.73,414.08c-3,1.13-3.41,3.61,0,6.66,3.26,2.91,8.07,4.18,11.48,6.88,2.12,2,6,9.63,9.36,9.42,5.39-.57,3.68-9.64,2.27-12.61C385.29,415.91,374.52,411.17,365.73,414.08Z" transform="translate(-26.36 -173.7)"/><path class="cls-66" d="M377.21,381.75s14.6-21,38.28,9.14C419.46,395.43,405,348.44,377.21,381.75Z" transform="translate(-26.36 -173.7)"/><path class="cls-66" d="M512,379.2s-15.59-21.05-40.55,9.14C467.23,393,482.39,345.75,512,379.2Z" transform="translate(-26.36 -173.7)"/><path class="cls-56" d="M377.21,381.75s20.42-28.42,41.25,10.49C412.09,370,386.15,351.7,377.21,381.75Z" transform="translate(-26.36 -173.7)"/><path class="cls-58" d="M377.21,381.75a29.65,29.65,0,0,1,10.07-8.86,24.48,24.48,0,0,1,3.12-1.13,11.17,11.17,0,0,1,3.68-.43,18.5,18.5,0,0,1,3.41,0,19.86,19.86,0,0,1,3.26,1,4,4,0,0,1,1.55.72,15.18,15.18,0,0,1,1.7.78l1.56.84,1.13,1.13a29.21,29.21,0,0,1,2.7,2.28c.71.78,1.55,1.56,2.27,2.48s1.56,1.77,2.12,2.69c.71.93,1.42,1.92,2,2.84s1.28,1.91,1.84,2.76l1.71,3.05-1.71.56a54.09,54.09,0,0,0-6.8-13.68,34,34,0,0,0-11.21-10.13,14.58,14.58,0,0,0-7.08-2.05,11.82,11.82,0,0,0-7.09,2.34,15.19,15.19,0,0,0-5,5.67A50.13,50.13,0,0,0,377.21,381.75Zm0,0a32.54,32.54,0,0,1,2.69-7.3,17.58,17.58,0,0,1,5-6.3,13.47,13.47,0,0,1,7.65-2.92,16.56,16.56,0,0,1,7.8,1.93,27.06,27.06,0,0,1,6.52,4.6,38.92,38.92,0,0,1,5.38,6.1,43.7,43.7,0,0,1,7.1,14.17c0,.42-.15,1.14-.71,1.2s-.71-.06-1-.56l-1.56-2.77c-.56-1.06-1.27-1.91-1.7-2.83a15.24,15.24,0,0,0-2-2.69,32.93,32.93,0,0,0-2-2.7,11.84,11.84,0,0,1-2.14-2.48c-.84-.7-1.56-1.48-2.54-2.26l-1.14-.93-1.42-.85a15.05,15.05,0,0,0-1.41-.92c-.58-.21-1-.42-1.42-.57a8.48,8.48,0,0,0-3.12-1,8.91,8.91,0,0,0-3.12-.21,16.15,16.15,0,0,0-3.25.21,11.18,11.18,0,0,0-3.12,1.14,22.63,22.63,0,0,0-5.68,3.33A49.51,49.51,0,0,0,377.21,381.75Z" transform="translate(-26.36 -173.7)"/><path class="cls-71" d="M417.61,390.11c-15.87-29.62-30.05-22.82-37.85-14.73a42.58,42.58,0,0,0-2.55,6.37s20.42-28.42,41.25,10.49C418.18,391.61,417.9,390.89,417.61,390.11Z" transform="translate(-26.36 -173.7)"/><path class="cls-77" d="M449.37,456.39a14.37,14.37,0,0,0-8.37-3.9c-1.55-.21-4.81-.35-6.09.78-1.42,1.56.7,3.12,2,4.18.14.08.43-.28.57-.49v.14c1.42.64.71,3.9.56,5-.13,1.77-.42,5.6,2,6.31,2.69,1.13,6.24-.71,8.79-1.84,1.13-.78,3.83-2.13,4.25-3.62C453.77,460.71,450.92,457.74,449.37,456.39Z" transform="translate(-26.36 -173.7)"/><path class="cls-77" d="M441.71,473.55c-3.26-.15-5.09-3.41-5.81-6.45-.85,3-1.85,6.3.29,8.92s6.94,1.35,9.78,1.14c4-.28,10.06-4.68,9.78-9C451.63,471.27,446.67,473.76,441.71,473.55Z" transform="translate(-26.36 -173.7)"/><path class="cls-48" d="M447.67,457.74a19.68,19.68,0,0,0-8.51-3.33,11.71,11.71,0,0,0-2.13.78,31.23,31.23,0,0,1,3.12.63v.29a25.15,25.15,0,0,1-.42,6.52c-.28,1.2-.85,2.76.42,3.47,1.42.63,3.83,0,5.24-.15a6.74,6.74,0,0,0,4-2.12C452.06,461.85,449.65,459.37,447.67,457.74Z" transform="translate(-26.36 -173.7)"/><path class="cls-78" d="M448.23,463.83C447,465,445,465,443.41,465.17c-2.12.15-3.26-.56-3-3.11a20.61,20.61,0,0,0,.56-5.95c.71.28,1.42.56,2.13.78C445,457.74,452.06,460.92,448.23,463.83Z" transform="translate(-26.36 -173.7)"/><path class="cls-79" d="M440.44,462.06h0c-.29,2.55.85,3.26,3,3.11,1.56-.2,3.54-.2,4.82-1.34.28-.21.57-.42.57-.57A9.49,9.49,0,0,0,440.44,462.06Z" transform="translate(-26.36 -173.7)"/><path class="cls-48" d="M446.11,472a9.11,9.11,0,0,1-2.13.49,5.85,5.85,0,0,1-5.81-1,3,3,0,0,1-1.14-2.27c-.28-.43-.41-1-.7-1.56-.14,3.19.56,6.73,4.54,6.73a19.78,19.78,0,0,0,12.18-4.89A38.86,38.86,0,0,1,446.11,472Z" transform="translate(-26.36 -173.7)"/><path class="cls-80" d="M450.36,454.61a20.05,20.05,0,0,0-9.49-4.25,6.53,6.53,0,0,0-5,.86c-.29.35-.29.56-.57.7,2.13-1.34,4.82-.7,7.09-.14,1.56.5,3.4.78,4.68,1.7,1.13.72,2,1.13,3,1.71C450.22,455.19,450.5,454.83,450.36,454.61Z" transform="translate(-26.36 -173.7)"/><path class="cls-80" d="M441.71,470.57c-.14-.43-.84-.64-1.27-1a4.17,4.17,0,0,1-1.28-1.2c-.28-.22-.28-.49-.57-.78-.14-.28-.42-.71-.42-.71,0-.35,0-.35-.15-.35h-.27c-1,.35-.86,2.13-.72,3a5.27,5.27,0,0,0,1.28,1.56c.57.64,2.13.43,3,.21C441.57,471.27,442,470.85,441.71,470.57Z" transform="translate(-26.36 -173.7)"/><path class="cls-81" d="M545.06,381.68c.29-5-8.94-8-12.61-9.57-18.59-8-39.42-9.35-59.55-10.56-5.67-.35-11.49-.57-17.15-.84-2.7-.22-5.39-.22-8.08-.22-2.55-.29-5.25-.29-7.8-.43-5.82-.21-11.48-.42-17.3-.42-20.27-.49-41-.71-60.25,5.59-3.54,1.36-13,3.49-13.32,8.59-.71,8.64,1.42,32.81,12.19,44.65,0,0,6.53,9.15,25.24,11.49S427,428,429.38,423.43c2.27-4.4,6.81-19.35,15.74-19.7h1.69c8.94,1.13,12.34,16.44,14.32,21,1.84,4.89,23.25,10.78,42.11,9.86s26.36-9.22,26.36-9.22C541.22,414.29,545.06,390.47,545.06,381.68ZM528,415s-3.54,16.23-34.17,13.75S464.68,415.91,459.15,408c-4.4-6.17-6.52-7.15-12.61-7.87-6.39.21-8.23.92-13.33,6.88-6.1,7.3-5.39,17.93-36.3,17.93-30.61,0-32.89-16.45-32.89-16.45-7.64-29.27,8.09-40.11,24.67-41.46,18.72-1.56,49.06,0,59.12.57,10.07.14,40.4,1.14,58.82,4.18C523.22,374.39,537.83,386.64,528,415Z" transform="translate(-26.36 -173.7)"/><path class="cls-82" d="M496,435.48c-16.59-.71-33.6-5.6-35.73-10.49a20,20,0,0,1-1.13-3.26c-2.13-6.09-5.38-16-12-17.08l-.43-.21h-1.84c-6.52.85-10.78,10.34-13.18,16.09a32.68,32.68,0,0,1-1.56,3.33c-2.55,4.68-19.85,8.15-36.43,7.37-2.56,0-5-.28-7.23-.49-19-2.2-25.8-11.49-25.95-11.71-10.77-11.69-13-36-12.33-45.21.28-5.1,7.8-7.44,12.33-8.94a3.87,3.87,0,0,0,1.57-.43c20-6.65,41.68-6.16,60.52-5.87,6.81.35,12.2.35,17.3.57l1,.14a59.29,59.29,0,0,1,6.94.35c2.26,0,4.82,0,6.94.21h1c5.11.21,10.49.43,17.15.86,19,1.13,40.4,2.4,60,10.62a15.1,15.1,0,0,0,1.42.64c4.4,1.85,11.91,4.75,11.77,9.78,0,9.29-4.4,33.39-16,44.31-.29.2-7.65,8.64-26.79,9.42Zm-49.9-32.74.84.06c7.8,1.14,11.63,11.77,13.76,18.29a24.68,24.68,0,0,0,1.13,3.34c1.71,3.6,17.58,8.57,34.17,9.35h7.23c18.28-.78,25.51-9.08,25.66-9.08,11.19-10.48,15.3-34,15.59-43,0-3.75-7.09-6.52-10.91-8.15a5.38,5.38,0,0,1-1.28-.64c-19.42-8.07-40.54-9.35-59.4-10.35-6.81-.56-12.19-.78-17.15-1h-1c-2.27-.14-4.68-.35-7.08-.35s-4.54-.22-6.95-.22l-1-.14c-5-.13-10.35-.35-17.16-.35-18.84-.56-40.12-.85-60,5.67a10,10,0,0,0-1.42.43c-4,1.13-11.2,3.4-11.34,7.29-.56,9.15,1.56,32.75,11.77,44,.28.21,6.8,9,24.95,11.28,2.27.2,4.81.41,7.22.41,16.45.58,32.89-3.11,34.74-6.51.42-.78.85-2,1.56-3.12,2.69-6.31,7.23-16.66,15-17.22h1Zm-52.32,23c-28.06-1.27-30.47-16.59-30.61-17.23-3.41-13-2.41-23.67,3-31.11,4.68-6.52,12.61-10.56,22.53-11.2,13.48-1.07,32.75-.71,46.78,0,5.25.07,9.65.43,12.49.57s7.08.07,12.32.28c13.89.71,33.32,1.71,46.49,3.83,9.93,1.63,17.45,6.31,21.7,13.11,4.68,7.87,4.82,18.44.43,31.26-.29.7-4.12,16.87-35.17,14.38-25.37-2-29.34-9.78-32.6-16.64a27.11,27.11,0,0,0-2.69-4.27c-4.25-6.16-6.1-6.94-11.9-7.65-6,.21-8,.93-12.63,6.66a15.35,15.35,0,0,0-2.83,4.11c-4,6.6-8.51,14-34.17,14C395.78,425.77,394.65,425.77,393.79,425.7Zm41.68-57.76c-14-.65-33.3-1.14-46.63,0-9.51.7-16.87,4.38-21.27,10.56-5.11,6.87-5.95,16.93-2.69,29.62,0,.21.56,3.83,4.4,7.52,3.54,3.39,10.62,7.65,24.51,8.36h3.12c24.53,0,28.78-6.74,32.62-13,1-1.56,1.83-3.06,3-4.54,5.11-6.1,7.52-6.95,14.05-7.15h0c6.51.78,8.78,1.76,13.31,8.42a17,17,0,0,1,2.56,4.62c3.4,6.72,7.08,13.75,31.46,15.51,16,1.36,24.39-2.61,28.51-6.09a13.23,13.23,0,0,0,4.67-7c4.39-12.39,4.25-22.54-.14-30-3.83-6.3-11.06-10.77-20.28-12.12-13.31-2.13-32.6-3.26-46.35-3.83-5.38-.21-9.78-.49-12.47-.49C445,368.15,440.58,368.07,435.47,367.94Z" transform="translate(-26.36 -173.7)"/><path class="cls-23" d="M365.73,367.29s-15.17,3.34-14.32,12.34c.57,9.14,3,27,10.21,35.37,0,0-5.82-14.95-4.68-26.8s10.35-19.84,17.58-21.61S365.73,367.29,365.73,367.29Z" transform="translate(-26.36 -173.7)"/><path class="cls-23" d="M527.9,373.82s14.74,4.46,13.18,13.47-5.1,26.57-12.9,34.44c0,0,6.81-14.6,6.81-26.44-.28-11.84-8.65-20.63-15.73-22.82C512.17,370,527.9,373.82,527.9,373.82Z" transform="translate(-26.36 -173.7)"/><path class="cls-83" d="M506.63,371.76c-18.42-3-48.75-4-58.82-4.18-10.06-.57-40.4-2.13-59.12-.57-16.58,1.35-32.31,12.19-24.67,41.46,0,0,2.28,16.45,32.89,16.45,30.91,0,30.2-10.63,36.3-17.93,5.1-6,6.94-6.67,13.33-6.88,6.09.72,8.21,1.7,12.61,7.87,5.53,7.93,4.11,18.28,34.72,20.77S528,415,528,415C537.83,386.64,523.22,374.39,506.63,371.76Zm-11.34,52.67c-24.65-2-26.79-10.14-30.61-18.08s-10.49-11.62-21.55-10.28c-11.2,1.14-11.77,8.58-22.54,18.71-10.78,10.35-37.85,4.47-37.85,4.47-13.46-3.34-16.16-19-12.33-33.1S390,370.06,390,370.06s71.73,1.27,95,2.83c23.67,1.56,35.73,3.12,38.7,20.28C526.63,410,519.82,426.26,495.29,424.43Z" transform="translate(-26.36 -173.7)"/><path class="cls-23" d="M414.92,425.7s10.2-.14,11.63-3.05l4.25-7.79S422.28,424.14,414.92,425.7Z" transform="translate(-26.36 -173.7)"/><path class="cls-23" d="M475.45,428s-10.21-.77-11.34-3.82l-3.68-8.08S468.07,426.06,475.45,428Z" transform="translate(-26.36 -173.7)"/><path class="cls-81" d="M389.27,379.84c5.52-4.46,11.19-9,16.72-13.46-3,0-5.81.06-8.65.21-11.77,10.35-23.54,20.62-35,31.32a62.37,62.37,0,0,0,.86,6.53C372,396.21,380.33,387.78,389.27,379.84Z" transform="translate(-26.36 -173.7)"/><path class="cls-81" d="M530,389.76a13,13,0,0,0-.85-2.26c-7.94,6.59-15.88,13-23.68,19.41-8.08,6.53-16.3,13.26-24.38,20a48.52,48.52,0,0,0,7.09,1.13C502.67,415.91,516.56,403.09,530,389.76Z" transform="translate(-26.36 -173.7)"/></g></g></svg>