<svg id="OBJECTS" xmlns="http://www.w3.org/2000/svg" viewBox="0 0 446.28 330.28"><defs><style>.cls-1{fill:#dff3fc;}.cls-2{fill:#a2c7eb;}.cls-20,.cls-21,.cls-27,.cls-28,.cls-29,.cls-3,.cls-7{fill:none;}.cls-3{stroke:#a2c7eb;}.cls-20,.cls-21,.cls-27,.cls-28,.cls-29,.cls-3,.cls-4,.cls-7{stroke-miterlimit:10;}.cls-4,.cls-6{fill:#0097d8;}.cls-4{stroke:#0097d8;}.cls-5{fill:#fff;}.cls-7{stroke:#6f8bbf;}.cls-20,.cls-21,.cls-27,.cls-28,.cls-29,.cls-7{stroke-linecap:round;}.cls-8{fill:#e06a58;}.cls-9{fill:#f2ae30;}.cls-10{fill:#0a2240;}.cls-11{fill:#f9a07b;}.cls-12{fill:#ffc73c;}.cls-13{fill:#fb3;}.cls-14{fill:#fce172;}.cls-15{fill:#325f73;}.cls-16{fill:#0b2d50;}.cls-17{fill:#3c738c;}.cls-18{fill:#56c4f9;}.cls-19{fill:#225570;}.cls-20{stroke:#0b2d50;}.cls-20,.cls-21,.cls-27{stroke-width:2px;}.cls-21,.cls-28{stroke:#cc454e;}.cls-22{fill:#262d40;}.cls-23{fill:#cc454e;}.cls-24{fill:#e8729b;}.cls-25{fill:#3d86e0;}.cls-26{fill:#3a92c9;}.cls-27{stroke:#3a92c9;}.cls-29{stroke:#f2ae30;}</style></defs><path class="cls-1" d="M430.53,409.57c47.49-36.11,68.64-136.24-8.47-185.34-51.05-32.5-82.8-14-140.23-35.46C211.72,162.53,201.27,83.25,116,122.26c-45.18,20.66-76.5,78.89-82,145.07C28.58,332.14,51.55,376.61,98.49,407,208.72,411.73,319.17,410.88,430.53,409.57Z" transform="translate(-26.86 -84.86)"/><path class="cls-1" d="M235.43,124.76c-7.17,28.8,19.47,57.31,47.53,69.13s60.24,10.42,90.3,4.78c13-2.43,26.31-5.85,36.39-14.12s15.92-22.63,10.4-34.23c-4.88-10.23-16.74-15.47-28.06-18.16s-23.32-3.79-33.4-9.45c-9.56-5.37-16.34-14.26-24.65-21.3C318.59,88.42,297,82,277.05,86.09S241.53,100.28,235.43,124.76Z" transform="translate(-26.86 -84.86)"/><path class="cls-2" d="M450.29,257.23V235.44H442a42.11,42.11,0,0,0-4.44-10.71l5.84-5.85L428,203.47l-5.85,5.84a42,42,0,0,0-10.71-4.44v-8.26H389.68v8.26A42.11,42.11,0,0,0,379,209.31l-5.85-5.84-15.41,15.41,5.84,5.85a42.47,42.47,0,0,0-4.44,10.71h-8.26v21.79h8.26a42.47,42.47,0,0,0,4.44,10.71l-5.84,5.85,15.41,15.4,5.85-5.84a42.87,42.87,0,0,0,10.71,4.45v8.26h21.78V287.8a42.71,42.71,0,0,0,10.71-4.45l5.85,5.84,15.41-15.4-5.84-5.85A42.11,42.11,0,0,0,442,257.23Zm-49.71,8a18.88,18.88,0,1,1,18.87-18.88A18.89,18.89,0,0,1,400.58,265.21Z" transform="translate(-26.86 -84.86)"/><path class="cls-3" d="M384.45,311.82,380.31,301l-4.1,1.57a22.19,22.19,0,0,0-4.24-4.46l1.79-4-10.58-4.7-1.79,4a22.19,22.19,0,0,0-6.15-.17l-1.58-4.1-10.8,4.15,1.57,4.09a22.52,22.52,0,0,0-4.46,4.25l-4-1.79-4.71,10.57,4,1.79a22.64,22.64,0,0,0-.16,6.16l-4.1,1.57,4.15,10.81,4.09-1.57a22.74,22.74,0,0,0,4.24,4.46l-1.78,4,10.57,4.7,1.79-4a22.25,22.25,0,0,0,6.16.17l1.57,4.1,10.81-4.15L371,334.37a22.86,22.86,0,0,0,4.47-4.25l4,1.79,4.71-10.57-4-1.79a22.64,22.64,0,0,0,.17-6.16Zm-23.13,13.42a10,10,0,1,1,5.76-13A10,10,0,0,1,361.32,325.24Z" transform="translate(-26.86 -84.86)"/><path class="cls-3" d="M349.05,273.92l-2.8-7.3-2.77,1.06a15.21,15.21,0,0,0-2.86-3l1.2-2.71-7.14-3.18-1.21,2.71a15.22,15.22,0,0,0-4.16-.12l-1.06-2.76-7.3,2.8,1.06,2.76a15.55,15.55,0,0,0-3,2.87l-2.71-1.21L313.1,273l2.71,1.21a14.83,14.83,0,0,0-.11,4.16l-2.77,1.06,2.8,7.3,2.77-1.06a15.21,15.21,0,0,0,2.86,3l-1.2,2.71,7.14,3.18,1.21-2.71a15.21,15.21,0,0,0,4.16.11l1.06,2.77,7.3-2.8L340,289.15a15.21,15.21,0,0,0,3-2.86l2.71,1.2,3.18-7.14-2.71-1.21a14.84,14.84,0,0,0,.11-4.16ZM333.42,283a6.77,6.77,0,1,1,3.9-8.75A6.78,6.78,0,0,1,333.42,283Z" transform="translate(-26.86 -84.86)"/><path class="cls-4" d="M346.51,146.09a34.43,34.43,0,1,1-34.42-34.43A34.39,34.39,0,0,1,346.51,146.09Z" transform="translate(-26.86 -84.86)"/><circle class="cls-5" cx="312.09" cy="134.76" r="11.27" transform="translate(-41.02 -45.61) rotate(-7.04)"/><path class="cls-5" d="M333.43,168.76a34.45,34.45,0,0,1-42.69,0c2.2-9.69,4.23-18,6.33-20.17,3-3,10.89-4.71,15-4.71s12.4,2.1,13.93,3.63C329.12,150.63,331.81,159.22,333.43,168.76Z" transform="translate(-26.86 -84.86)"/><path class="cls-6" d="M262.61,231V214a8.4,8.4,0,0,1,8.4-8.4h53.56A8.4,8.4,0,0,1,333,214v17a8.4,8.4,0,0,1-8.4,8.4H271A8.4,8.4,0,0,1,262.61,231Z" transform="translate(-26.86 -84.86)"/><polyline class="cls-6" points="258.37 145.21 232.45 170.46 274.46 149.22"/><path class="cls-5" d="M269.11,213.53v-.09a1.25,1.25,0,0,1,1.25-1.25h26.48a1.25,1.25,0,0,1,1.25,1.25v.09a1.25,1.25,0,0,1-1.25,1.25H270.36A1.25,1.25,0,0,1,269.11,213.53Z" transform="translate(-26.86 -84.86)"/><path class="cls-5" d="M299.28,213.53v-.09a1.25,1.25,0,0,1,1.25-1.25h23.11a1.25,1.25,0,0,1,1.25,1.25v.09a1.25,1.25,0,0,1-1.25,1.25H300.53A1.25,1.25,0,0,1,299.28,213.53Z" transform="translate(-26.86 -84.86)"/><path class="cls-5" d="M289.19,219.22v-.09a1.25,1.25,0,0,1,1.25-1.25h33.2a1.25,1.25,0,0,1,1.25,1.25v.09a1.25,1.25,0,0,1-1.25,1.25h-33.2A1.25,1.25,0,0,1,289.19,219.22Z" transform="translate(-26.86 -84.86)"/><path class="cls-5" d="M269.11,219.22v-.09a1.25,1.25,0,0,1,1.25-1.25h14.83a1.25,1.25,0,0,1,1.25,1.25v.09a1.25,1.25,0,0,1-1.25,1.25H270.36A1.25,1.25,0,0,1,269.11,219.22Z" transform="translate(-26.86 -84.86)"/><path class="cls-5" d="M293.8,224.91v-.09a1.25,1.25,0,0,1,1.25-1.25h28.59a1.25,1.25,0,0,1,1.25,1.25v.09a1.25,1.25,0,0,1-1.25,1.25H295.05A1.25,1.25,0,0,1,293.8,224.91Z" transform="translate(-26.86 -84.86)"/><path class="cls-5" d="M269.11,224.91v-.09a1.25,1.25,0,0,1,1.25-1.25h19.75a1.25,1.25,0,0,1,1.25,1.25v.09a1.25,1.25,0,0,1-1.25,1.25H270.36A1.25,1.25,0,0,1,269.11,224.91Z" transform="translate(-26.86 -84.86)"/><path class="cls-5" d="M269.11,230.6v-.09a1.25,1.25,0,0,1,1.25-1.25h7.33a1.25,1.25,0,0,1,1.25,1.25v.09a1.25,1.25,0,0,1-1.25,1.25h-7.33A1.25,1.25,0,0,1,269.11,230.6Z" transform="translate(-26.86 -84.86)"/><path class="cls-5" d="M281.53,230.6v-.09a1.25,1.25,0,0,1,1.25-1.25h40.86a1.25,1.25,0,0,1,1.25,1.25v.09a1.25,1.25,0,0,1-1.25,1.25H282.78A1.25,1.25,0,0,1,281.53,230.6Z" transform="translate(-26.86 -84.86)"/><circle class="cls-6" cx="100.37" cy="192.91" r="33.12" transform="translate(-143.74 117.67) rotate(-65.05)"/><circle class="cls-5" cx="92.56" cy="209.17" r="8.03" transform="translate(-90.95 -42.36) rotate(-19.35)"/><polygon class="cls-6" points="61.49 127.19 61.1 122.1 65.32 119.22 69.92 121.43 70.31 126.52 66.09 129.4 61.49 127.19"/><circle class="cls-5" cx="108.17" cy="176.66" r="8.03" transform="translate(-80.01 -38.13) rotate(-19.67)"/><polygon class="cls-6" points="77.33 94.2 77.61 87.72 82.49 83.46 87.09 85.67 86.81 92.14 81.93 96.41 77.33 94.2"/><path class="cls-5" d="M98.12,205.46l-6.14-3,4.54-10.46c.29-.67.6-1.32.94-2L102.79,180l6.14,2.95-4.38,10.31c-.34.8-.71,1.58-1.12,2.34Z" transform="translate(-26.86 -84.86)"/><path class="cls-6" d="M123.37,210.73c1.19-.54,20.19.32,20.19.32l-13.7-12.57Z" transform="translate(-26.86 -84.86)"/><circle class="cls-6" cx="177.36" cy="123.99" r="32.55" transform="translate(-33.71 152.69) rotate(-66.61)"/><rect class="cls-5" x="149.42" y="11.39" width="2.17" height="27.34"/><rect class="cls-5" x="164.26" y="118.51" width="2.17" height="27.71" transform="translate(123.76 258.8) rotate(-124.69)"/><path class="cls-5" d="M180.36,124a3,3,0,1,1-3-3A3,3,0,0,1,180.36,124Z" transform="translate(-26.86 -84.86)"/><path class="cls-2" d="M265.74,344.41c-1.93-29.76,11.09-60.56,33-78.18C299.44,296.14,286.55,326.41,265.74,344.41Z" transform="translate(-26.86 -84.86)"/><path class="cls-7" d="M295.18,274.24a394.73,394.73,0,0,0-23.87,53.83c-8.07,22.57-14.42,46.55-28.24,65.47" transform="translate(-26.86 -84.86)"/><path class="cls-2" d="M258.82,363.13c11.1-24.83,33.13-43.59,57.42-48.9C305.9,340.84,282.64,361.14,258.82,363.13Z" transform="translate(-26.86 -84.86)"/><path class="cls-7" d="M310.28,319.7q-24.88,21.9-50.61,42.56" transform="translate(-26.86 -84.86)"/><path class="cls-2" d="M252.27,384.76c14.83-22.15,42.19-33.71,64.83-27.39C300.45,379.24,273,390.83,252.27,384.76Z" transform="translate(-26.86 -84.86)"/><path class="cls-7" d="M311.67,359a215.86,215.86,0,0,1-62,26.54" transform="translate(-26.86 -84.86)"/><path class="cls-2" d="M260.28,355.6c4.74-24.94-2.37-52.74-18.2-71.13C235.59,309,241.78,337.7,260.28,355.6Z" transform="translate(-26.86 -84.86)"/><path class="cls-7" d="M243.71,290.83A270,270,0,0,0,261,357" transform="translate(-26.86 -84.86)"/><path class="cls-2" d="M252.14,376.84c-2-25.64-15.16-49.72-34.38-63a109.57,109.57,0,0,0,10.45,38.57C234.8,366.07,244.48,374.74,252.14,376.84Z" transform="translate(-26.86 -84.86)"/><path class="cls-7" d="M220.61,319a203.69,203.69,0,0,0,32,58.36" transform="translate(-26.86 -84.86)"/><path class="cls-2" d="M400.57,370.69c10.49-27.29,34.62-49.43,61.23-56.17C450.14,341.44,426.34,363.14,400.57,370.69Z" transform="translate(-26.86 -84.86)"/><path class="cls-7" d="M455.35,320.19a387.74,387.74,0,0,0-43.16,38.21c-16.38,16.82-31.83,35.58-51.8,46.8" transform="translate(-26.86 -84.86)"/><path class="cls-2" d="M386.78,384.54c20-17.59,47.15-25.31,70.79-20.13C437.53,383.9,408.65,392.49,386.78,384.54Z" transform="translate(-26.86 -84.86)"/><path class="cls-7" d="M450.06,366.86q-31,9.36-62.18,17.26" transform="translate(-26.86 -84.86)"/><path class="cls-2" d="M372.12,401.14c22.19-13.68,51.11-12.81,68.53,2.06C417,415.88,388,415,372.12,401.14Z" transform="translate(-26.86 -84.86)"/><path class="cls-7" d="M435.2,402.4a209.06,209.06,0,0,1-65.7-1.67" transform="translate(-26.86 -84.86)"/><path class="cls-2" d="M391.16,378.43c14.41-20.28,19.52-47.95,13.07-70.79C388.44,326.82,382.14,354.93,391.16,378.43Z" transform="translate(-26.86 -84.86)"/><path class="cls-7" d="M403.06,314a265.89,265.89,0,0,0-11.85,66" transform="translate(-26.86 -84.86)"/><path class="cls-2" d="M375.26,394c8.72-23.66,7-50.48-4.56-70.16a108.18,108.18,0,0,0-6.57,38.62C364.34,377.35,369.34,389,375.26,394Z" transform="translate(-26.86 -84.86)"/><path class="cls-7" d="M371.08,329.65a200.54,200.54,0,0,0,4.37,65.05" transform="translate(-26.86 -84.86)"/><path class="cls-2" d="M103.27,323C92.57,290.27,62.73,263.84,28,256.34,42.61,284.64,69.08,307.16,103.27,323Z" transform="translate(-26.86 -84.86)"/><path class="cls-2" d="M105.08,328.05a98.93,98.93,0,0,0-78.22-7.79A110.44,110.44,0,0,0,105.08,328.05Z" transform="translate(-26.86 -84.86)"/><path class="cls-2" d="M111.56,335.15c-25.32-3.51-51.83,2.73-72.39,17C62.48,360.66,90.45,355.16,111.56,335.15Z" transform="translate(-26.86 -84.86)"/><path class="cls-2" d="M119.45,350.64c-25.07-.1-49.72,11.81-64.46,31.16a55.15,55.15,0,0,0,33.25-3.74C98.47,373.43,107.05,365.51,119.45,350.64Z" transform="translate(-26.86 -84.86)"/><path class="cls-2" d="M137.13,376.57c-24.73-4.24-51.06,3.42-68.89,20a55.37,55.37,0,0,0,33.44,1.82C112.56,395.55,122.37,389.17,137.13,376.57Z" transform="translate(-26.86 -84.86)"/><path class="cls-2" d="M110.44,324.53c-16.33-22-20.76-51.66-11.48-76.88,7.08,12,13.19,24.67,16,38.15S117.3,313.65,110.44,324.53Z" transform="translate(-26.86 -84.86)"/><path class="cls-2" d="M120.41,345.76a75.84,75.84,0,0,1,21-65.09C143.36,304.86,136,329.5,120.41,345.76Z" transform="translate(-26.86 -84.86)"/><path class="cls-7" d="M35.61,262.2c49.69,31.79,88.54,79.17,109.05,133" transform="translate(-26.86 -84.86)"/><path class="cls-7" d="M100.5,259.25a394.11,394.11,0,0,1,11,74.72" transform="translate(-26.86 -84.86)"/><path class="cls-7" d="M137.71,290.16a145.66,145.66,0,0,1-17.87,56.58" transform="translate(-26.86 -84.86)"/><path class="cls-7" d="M37.32,320.83a401.83,401.83,0,0,0,69.08,7" transform="translate(-26.86 -84.86)"/><path class="cls-7" d="M51,350.24a185.78,185.78,0,0,0,60.77-15" transform="translate(-26.86 -84.86)"/><path class="cls-7" d="M63.63,378.27l58.14-29" transform="translate(-26.86 -84.86)"/><path class="cls-7" d="M76.23,395.34c25.31-4.89,32.82-10.71,60.91-18.77" transform="translate(-26.86 -84.86)"/><path class="cls-8" d="M236.42,349s2.19,20.07,4.64,21.68c4.38,2.89,55.08,9.57,55.08,9.57l-1.66,13.19s-69.44,6.24-72.39,2.77c-5.12-6-14.12-35.06-14.12-35.06Z" transform="translate(-26.86 -84.86)"/><path class="cls-9" d="M202.94,297.32l5.61-13.47s15.22,7.15,20.24,16c5.37,9.44,11.94,59.63,11.94,59.63s-26.87,6.19-31.81,3.56S202.94,297.32,202.94,297.32Z" transform="translate(-26.86 -84.86)"/><path class="cls-10" d="M160.21,234.8c-3.93-1.44-8.09-2.7-12.3-2.38S139.4,235,138,238.67c-1,2.62-.55,5.71-2.16,8.07s-4.6,3.2-7.46,3.39-5.76-.18-8.61.19c-8.8,1.17-15.08,10.73-12.19,18.56,1.15,3.12,3.51,6.1,3,9.35-.57,3.48-4.22,5.77-5.72,9-2,4.3.39,9.51,4.32,12.44s9,4,14,4.77c6.83,1,13.88,1.5,20.63.06s13.2-5,16.69-10.56c1.55-2.46,2.49-5.24,4.29-7.55,3.72-4.77,10.31-6.62,15.5-10,5.67-3.71,9.83-10.93,6.49-16.58-3.22-5.43-11.6-6.64-15-12-1.39-2.21-1.72-4.84-2.62-7.25S166,236.93,160.21,234.8Z" transform="translate(-26.86 -84.86)"/><path class="cls-11" d="M183.11,301.41c1,1.14,2.16,2.39,3.78,2.5s3.14-1.09,4.24-2.26a43,43,0,0,0,11-21c-1.41-.8-2.77-1.57-4-2.29a6.07,6.07,0,0,1-2.49-2.74,5.26,5.26,0,0,1-.37-2.58,73.74,73.74,0,0,1,4.15-19.34c-12.54-2.83-24.37-6.19-31.17-11.87-.83,3.5-1.81,10.35-3.9,17.14-2.23,7.19-5.71,14.3-11.61,17.36A124.42,124.42,0,0,1,183.11,301.41Z" transform="translate(-26.86 -84.86)"/><path class="cls-8" d="M195.22,273.05a5.25,5.25,0,0,0,.37,2.58c-7.42,9-24-2.76-31.29-16.65,2.09-6.79,3.07-13.64,3.9-17.14,6.79,5.68,18.63,9,31.17,11.87A73.66,73.66,0,0,0,195.22,273.05Z" transform="translate(-26.86 -84.86)"/><path class="cls-12" d="M215.88,381.85c-1.64,10.86,10.08,22.55,10.37,28.35-24.89,0-77,1.52-103.58-2.09-1.21-6.7,11.9-21.77,11.9-36.65,0-2-.08-4.13-.24-6.45-.42-6.64-1.4-14.54-2.49-22.64-3-21.73-6.9-45-4-49.79,5.7-9.39,19-15.77,25.64-18.51,2.27-.94,3.75-1.45,3.86-1.51,8.29,14.14,25.16,26.2,31.53,25.66,1.77-.14,7-2,10.49-19.44,1.35.77,2.7,1.48,4,2.17,6.59,3.43,12.77,6.26,14.55,10.67,4.7,11.61,9.31,40.88,8.29,51.29S221,361.43,218,372c-.69,2.47-1.32,5.09-1.83,7.91C216.08,380.51,216,381.17,215.88,381.85Z" transform="translate(-26.86 -84.86)"/><path class="cls-13" d="M226.25,410.2c-24.89,0-77,1.52-103.58-2.09-1.21-6.7,11.9-21.77,11.9-36.65,0-2-.08-4.13-.24-6.45-.42-6.64-1.4-14.54-2.49-22.64,4.71,5,11.58-16,14.62-9.88,16.45,33.2,29.42,41.93,52,41.93A86.54,86.54,0,0,0,218,372c-.69,2.47-1.32,5.09-1.83,7.91q-.18,1-.33,2C214.24,392.7,226,404.39,226.25,410.2Z" transform="translate(-26.86 -84.86)"/><path class="cls-14" d="M203.41,281c-1.07,7.77-4.24,18.24-13.46,21-12.46,3.73-30.49-19.55-36.46-27.88,2.27-.94,3.75-1.45,3.86-1.51,8.29,14.14,25.16,26.2,31.53,25.66,1.77-.14,7-2,10.49-19.44C200.72,279.54,202.07,280.25,203.41,281Z" transform="translate(-26.86 -84.86)"/><polygon class="cls-15" points="181.67 313.65 181.58 322.32 336.58 323.25 336.9 313.42 181.67 313.65"/><polygon class="cls-15" points="403.76 236.31 400.31 232.81 287.41 232.06 230.77 313.98 233.73 316.36 403.76 236.31"/><polygon class="cls-16" points="289.59 235.09 233.73 316.36 340.43 316.88 403.76 236.31 289.59 235.09"/><ellipse class="cls-17" cx="316.55" cy="280.75" rx="12.42" ry="6.21"/><ellipse class="cls-18" cx="222.1" cy="241.84" rx="17.39" ry="11.47" transform="translate(-83.19 331.01) rotate(-79.44)"/><path class="cls-16" d="M233.39,214.3c-1.16,8.22-4.83,17.28-10.18,27.29-1.88-8.2-3.08-18.19-4.74-28.18s-3.84-20-7.57-28.2a49,49,0,0,0-2.74-5.14,18.25,18.25,0,0,1,6.58.59,22,22,0,0,1,9,4.91,31.56,31.56,0,0,1,8.77,14.33A32.16,32.16,0,0,1,233.39,214.3Z" transform="translate(-26.86 -84.86)"/><path class="cls-11" d="M227.11,222.8c-.06,1.62-.17,3.27-.32,4.91-2.28,26.6-13.45,44.85-30.54,44.85-24.13,0-39.77-27.06-39.77-53.57,0-26.15,16-45.08,34.77-42.89,10.81,1.24,18.71,4.83,24.32,10.09a33.15,33.15,0,0,1,8.22,12.54,54.83,54.83,0,0,1,3.31,18.06s0,0,0,.06C227.2,218.79,227.18,220.77,227.11,222.8Z" transform="translate(-26.86 -84.86)"/><path class="cls-8" d="M227.11,222.8a26.73,26.73,0,0,0-3.25-7.33,75.93,75.93,0,0,1-47.27,7.59l-9.06,7.57c.06-12.1.23-20.29,4.95-26.15,4.43-5.5,11.82-7.57,18.82-8.47a87.05,87.05,0,0,1,23.75.15,24,24,0,0,1,8.75,2.59,54.83,54.83,0,0,1,3.31,18.06s0,0,0,.06C227.2,218.79,227.18,220.77,227.11,222.8Z" transform="translate(-26.86 -84.86)"/><path class="cls-16" d="M230.59,206.42a44.58,44.58,0,0,1-12.12,7c-13.26,5.35-30.49,7.12-43.92,6.47-6.6,14.5-9.27,19.7-11,32.35-6.45-6.05-11.7-17.13-13.26-25.84a59.1,59.1,0,0,1,1-26.32,39.36,39.36,0,0,1,20.08-24.15,37.74,37.74,0,0,1,4.32-2c8.51-3.29,18.1-3,26.83-.32a32,32,0,0,1,12.14,7.06c6.81,6.15,11,14.48,13.74,20.72C229.33,203.3,230,205,230.59,206.42Z" transform="translate(-26.86 -84.86)"/><path class="cls-19" d="M233.39,214.3a40.71,40.71,0,0,0-2.53-8.45,29.12,29.12,0,0,0-2.38-4.47A24.51,24.51,0,0,0,215.71,191a47,47,0,0,0-4.8-5.75,37,37,0,0,0-20.67-10.9,39.27,39.27,0,0,0-18.78,1.6,37.74,37.74,0,0,1,4.32-2c8.51-3.29,18.1-3,26.83-.32a32,32,0,0,1,12.14,7.06,22,22,0,0,1,9,4.91,31.56,31.56,0,0,1,8.77,14.33A32.3,32.3,0,0,1,233.39,214.3Z" transform="translate(-26.86 -84.86)"/><path class="cls-20" d="M182.24,230.61c4.46-2.55,9.09-3.7,15.58-1.33" transform="translate(-26.86 -84.86)"/><path class="cls-20" d="M212.78,230.43c3.82-2.85,9.48-3.14,12.43,0" transform="translate(-26.86 -84.86)"/><path class="cls-21" d="M208.17,245c.39,2,.18,6.49-.78,8.5" transform="translate(-26.86 -84.86)"/><ellipse class="cls-22" cx="166.24" cy="158.57" rx="1.84" ry="2.9"/><ellipse class="cls-22" cx="190.29" cy="157.22" rx="1.84" ry="2.9"/><path class="cls-23" d="M205.89,257.42a14.13,14.13,0,0,1-1,1.65,11.42,11.42,0,0,1-5.43,4.23h0a7.09,7.09,0,0,1-3.49.23c-3.76-.67-4.75-4.14-4.93-6.81a14.29,14.29,0,0,1,0-1.44,13.63,13.63,0,0,1,.14-1.8C197.08,256.78,205.89,257.42,205.89,257.42Z" transform="translate(-26.86 -84.86)"/><path class="cls-5" d="M205.89,257.42a14.13,14.13,0,0,1-1,1.65c-3.06,0-9.32-1.61-13.89-3.79a13.63,13.63,0,0,1,.14-1.8C197.08,256.78,205.89,257.42,205.89,257.42Z" transform="translate(-26.86 -84.86)"/><path class="cls-24" d="M199.4,263.29a7.09,7.09,0,0,1-3.49.23c-3.76-.67-4.75-4.14-4.93-6.81a10.24,10.24,0,0,1,8.42,6.58Z" transform="translate(-26.86 -84.86)"/><path class="cls-25" d="M163.65,226a69.13,69.13,0,0,1,5-24.86c6.51-15.55,19.78-22.2,32.65-22.65a35.07,35.07,0,0,1,25.22,9.86s-5.05-8.91-15-11.47c-6.54-1.68-16.41-2-24.33,1.27-8.16,3.31-18.33,12.5-22,22.21s-5.46,24.83-5.46,24.83Z" transform="translate(-26.86 -84.86)"/><ellipse class="cls-18" cx="161.5" cy="240.27" rx="12.09" ry="18.32" transform="matrix(0.99, -0.1, 0.1, 0.99, -50.84, -66.87)"/><ellipse class="cls-25" cx="158.28" cy="241.6" rx="7.85" ry="13.81" transform="translate(-61 -58.65) rotate(-8.55)"/><ellipse class="cls-26" cx="174.52" cy="184.06" rx="6.44" ry="4.01"/><path class="cls-27" d="M169,255.51s9.46,12.16,25.91,13.41" transform="translate(-26.86 -84.86)"/><path class="cls-11" d="M208.44,375.36l-.62,16S150,408.68,140.44,403.2c-4.66-2.68-9-17.42-12.26-31.81-3.4-15.12-5.58-29.84-5.58-29.84l33.9-6.64s0,20.67,1.17,32.62c.41,4.45,1,7.69,1.79,8.22C162.45,377.72,208.44,375.36,208.44,375.36Z" transform="translate(-26.86 -84.86)"/><path class="cls-8" d="M157.67,367.51c-6.16,2-18,5.09-29.49,3.87-3.4-15.12-5.58-29.84-5.58-29.84l33.9-6.64S156.52,355.56,157.67,367.51Z" transform="translate(-26.86 -84.86)"/><path class="cls-11" d="M206.79,375.52c8.6-1.84,23.16-6.26,29.2-7.78,4.29-1.08,15.46,4.7,18.41,10.15,1.29,2.38,2.51,15.86-2,14.47-2.24-.7-1.87-6.48-2.57-8.84-.57-1.92-2.39-3.78-5.16-5.38,1.85,4.61,1.78,8.63,1.58,13.61a7.06,7.06,0,0,1-.64,3.2,2.3,2.3,0,0,1-2.7,1.21c-1-.42-1.37-1.69-1.6-2.8a91,91,0,0,1-1.91-12c.08,4.27,0,8.55-.28,12.81-.2,3.26-1.82,5.05-3.81,4.48-.89-.25-1.25-1.07-1.63-2.15-.6,2.09-2.1,4.4-4,3.52-1.18-.53-1.91-4.79-1.7-9.17a25.66,25.66,0,0,1-12.76,3.51c-4.34.2-8.78-.61-11.39-3.56A76.72,76.72,0,0,1,206.79,375.52Z" transform="translate(-26.86 -84.86)"/><path class="cls-28" d="M233.81,395.82a30.57,30.57,0,0,0-.89-10.31" transform="translate(-26.86 -84.86)"/><path class="cls-12" d="M152.69,301.37c-2.46-6.93-11.47-21.11-11.47-21.11s-13.75,5.72-18.63,15.43c-8.26,16.44-4.06,63.64-4.06,63.64,11.13,4.66,33.47,4.73,43,3.39C161.51,362.72,157.62,315.22,152.69,301.37Z" transform="translate(-26.86 -84.86)"/><path class="cls-29" d="M154.44,304.27a305.75,305.75,0,0,1,6.4,51.09" transform="translate(-26.86 -84.86)"/><rect class="cls-16" x="27.6" y="320.39" width="394.28" height="9.89"/></svg>