<svg id="Layer_1" data-name="Layer 1" xmlns="http://www.w3.org/2000/svg" viewBox="0 0 571.89 535.62"><defs><style>.cls-1{fill:#e41e72;}.cls-2{fill:#f7f4ef;}.cls-3{fill:#f8eaf1;}.cls-4{fill:#e02872;}.cls-5{fill:#f7dce9;}.cls-6{fill:#e12b76;}.cls-7{fill:#c4cf30;}.cls-8{fill:#fade10;}.cls-9{fill:#6bbce1;}.cls-10{fill:#718fc2;}.cls-11{fill:#f19229;}.cls-12{fill:#7a92bc;}.cls-13{fill:#f6f5ef;}.cls-14{fill:#e75933;}.cls-15{fill:#f2f7f7;}.cls-16{fill:#eda24b;}.cls-17{fill:#e32d77;}.cls-18{fill:#f8e02e;}.cls-19{fill:#e02d79;}.cls-20{fill:#ee942e;}.cls-21{fill:#ee9733;}.cls-22{fill:#6bbde0;}.cls-23{fill:#c7d240;}.cls-24{fill:#f4e54c;}.cls-25{fill:#f5f2cd;}.cls-26{fill:#c8cd3b;}.cls-27{fill:#758ec0;}.cls-28{fill:#df5c37;}.cls-29{fill:#f5de23;}.cls-30{fill:#738ec0;}.cls-31{fill:#eb9a35;}.cls-32{fill:#f7ebdc;}.cls-33{fill:#df6747;}.cls-34{fill:#ec9632;}.cls-35{fill:#f2dd1f;}.cls-36{fill:#e1613b;}.cls-37{fill:#e16237;}.cls-38{fill:#7d95b8;}.cls-39{fill:#7fc1d6;}.cls-40{fill:#71bdde;}.cls-41{fill:#7cbed6;}.cls-42{fill:#e7a246;}.cls-43{fill:#fcf7d6;}.cls-44{fill:#f6e86a;}.cls-45{fill:#faebe3;}.cls-46{fill:#f3eb76;}.cls-47{fill:#dc634a;}.cls-48{fill:#d97158;}.cls-49{fill:#ee9839;}.cls-50{fill:#f09c4a;}.cls-51{fill:#f8f5d6;}.cls-52{fill:#bf785a;}.cls-53{fill:#d64b8a;}.cls-54{fill:#e05b36;}.cls-55{fill:#faefd5;}.cls-56{fill:#f3e64b;}.cls-57{fill:#ea9d40;}.cls-58{fill:#f5c484;}.cls-59{fill:#dbeef5;}.cls-60{fill:#cc4977;}.cls-61{fill:#e6ab5b;}.cls-62{fill:#ee72aa;}.cls-63{fill:#ba4270;}.cls-64{fill:#c33a74;}.cls-65{fill:#e8378b;}.cls-66{fill:#ec81b2;}.cls-67{fill:#ec609d;}.cls-68{fill:#ea579d;}.cls-69{fill:#ee8fba;}.cls-70{fill:#ee95bf;}.cls-71{fill:#e35a33;}.cls-72{fill:#e5592d;}.cls-73{fill:#d76447;}.cls-74{fill:#ba366c;}.cls-75{fill:#edeb99;}.cls-76{fill:#e4e46f;}.cls-77{fill:#ebea8b;}.cls-78{fill:#dedf67;}.cls-79{fill:#fce64e;}.cls-80{fill:#82c1d7;}.cls-81{fill:#a4daef;}.cls-82{fill:#a4daf0;}.cls-83{fill:#b7dbec;}.cls-84{fill:#aeddf1;}.cls-85{fill:#b2cbe5;}.cls-86{fill:#b7d0eb;}.cls-87{fill:#bbcfeb;}.cls-88{fill:#92b1db;}.cls-89{fill:#f8ac53;}.cls-90{fill:#fac673;}.cls-91{fill:#f4bc71;}.cls-92{fill:#f9c264;}.cls-93{fill:#d3e3f2;}.cls-94{fill:#a4bee3;}.cls-95{fill:#b2c4de;}.cls-96{fill:#db6a4f;}.cls-97{fill:#fff;}.cls-98{fill:#ed674a;}.cls-99{fill:#ed9678;}.cls-100{fill:#df734c;}.cls-101{fill:#f38c78;}.cls-102{fill:#f6aa8a;}.cls-103{fill:#f59770;}.cls-104{fill:#6cbbdd;}.cls-105{fill:#e79838;}.cls-106{fill:#f8dfad;}.cls-107{fill:#f2afcc;}.cls-108{fill:#e589b7;}.cls-109{fill:#f2a28b;}.cls-110{fill:#9cd2e7;}</style></defs><path class="cls-1" d="M328.42,572.83c2.14,7.6,6.7,14.86,3.28,23.24-4.84,3.18-4.84,3.18,2.26,12.35l9.18,55.29H319.72c-7.37-13.29-2.09-28.49-6.39-42.31-1.63-5.26-1.72-11-9.7-8.77a15.07,15.07,0,0,1-6.23.36c-3.5-.81-6.32-2.84-9.09-5-8-3.81-11.87-10.32-12.6-18.94a24.76,24.76,0,0,0-1.8-5.37c-4.28-3.15-9.91-3.69-13.74-7.86-3.63-4-6.92-10.19-3.36-12.72,10.46-7.45,6.68-19.49,11.38-28.51.85-4.46-.21-9.41,3.3-13.2,5.66-4.07,5.95,2.22,8.45,4.43,0-9.61-10.85-6.23-14.11-11.87a9.4,9.4,0,0,1,.55-6c5.89-8.72,13.59-2.23,20.06-1.72,21.87,1.71,44.88,1.55,59.25,23,.11,2.93-.45,5.53-3.32,7.06C330.59,539.69,327.89,526,319.05,524c-5.12,5.93-7.32,13.8-13.52,19.75,2.61,3,7.57,2.89,10.1,6.24C319.05,558.05,335.42,558.92,328.42,572.83Z" transform="translate(-20.21 -128.09)"/><path class="cls-2" d="M346.23,233.91c-9.43-20.93,1.2-38,12.43-53.51a73,73,0,0,0,12.12-26.76c2.08-9.64,6.78-17.15,10.42-25.55h64.41c.2,4.18,1.95,7.21,6.17,8.48s9.14,2.17,7,8.15c-2,5.56-6.71,5.72-11.75,4-1.29-.43-2.81-.13-4.23-.17-3,2.09-6.4,1-9.63,1-10.07-.15-16.36,3.77-16.16,14.81-5.11,19.51-18.55,35-25.85,53.45-2.17,5.5-7.33,7.92-13.25,4.9-5.42-2.76-7.76-7.44-5.39-13.34,5.21-13,7.36-27.12,14.38-39.43,3.38-6.21,6.75-12.52,7.59-19.62,1-8.12-2.57-9.28-8.81-4.82-9.05,8.15-7.54,21-13.69,30.47-2.6,8.78-6,17.27-8.8,26C358.52,213.15,357.62,226.31,346.23,233.91Z" transform="translate(-20.21 -128.09)"/><path class="cls-3" d="M301.3,611c2.65-5.37,6.84-6.22,12-4,4.8,2.08,2.64,6.23,3.22,9.83,2.51,15.53,4.9,31,3.2,46.83H302.16c-3-3.4-4.62-7.64-3.9-11.88C300.55,638.3,296.53,624.33,301.3,611Z" transform="translate(-20.21 -128.09)"/><path class="cls-4" d="M301.3,611c5.81,17.47-.69,35.14.86,52.68H284.59c-7.8-16.77-1.39-33,2.36-49.16.85-3.68,4.68-6.26,9.29-3.61Z" transform="translate(-20.21 -128.09)"/><path class="cls-5" d="M296.24,610.94c-6.84.67-8.56,6.25-9.05,11.28-1.35,13.79-1.8,27.66-2.6,41.49H270c-7.09-10.49-.1-20.56.85-30.81-.18-6,6.15-13.38-3.61-17.45a4,4,0,0,1-3.12-1.65l3.33-9.4c8-4.75,15.29.49,22.89,1.45C292.21,607.62,295.67,607.59,296.24,610.94Z" transform="translate(-20.21 -128.09)"/><path class="cls-6" d="M264.07,613.8a19,19,0,0,0,2.13-.1c5.45-2.53,7.78-.24,8.08,5.21.22,4.16-.52,8.37.74,12.46-4.1,10.4-3.86,21.49-5.07,32.34H252.38C255.9,647,257.73,629.86,264.07,613.8Z" transform="translate(-20.21 -128.09)"/><path class="cls-7" d="M211.35,286c7.81-12-2.59-19-8.17-26.58-15.21-20.59-31.3-40.54-47-60.74a23.41,23.41,0,0,1-1.63-2.43c-5-8.38-12.63-19.1-2.31-25.75,10.76-6.93,14.53,6.58,20.16,13.26,7.83,9.27,12,21.11,21.27,29.33,7.07.32,8.75,7.9,15.36,13.3.2-12.61-8.49-19.32-9.07-28.5-5.75-10.65-11.25-21.45-17.39-31.87a55.49,55.49,0,0,1-4.91-10.4c-2.27-6.71-.39-11.5,5.89-14.43,6.55-3,10.54,1.35,12.95,6.1C202.4,159,207.66,171,213,183c1.95,4.4,2.46,9.52,6.84,12.57,4.26,7.68,14.56,12.87,23.08,11.62a4.65,4.65,0,0,1,1.45-.09c6.62.63,17.3,4.84,18.89-.44,2.28-7.52,3.65-16.84,1.9-25.53a73.76,73.76,0,0,1-.36-24.71c.47-3.5.11-8.42,5.49-9.07,4.28-.51,7.42,2.07,10.12,4.95a14.23,14.23,0,0,1,3.89,12.16c-4,24.75.52,48.21,9.21,71.41,3.55,9.47,5.49,19.65,6.73,29.83a36,36,0,0,1,.45,5.77c1,27.2-.85,29.64-27.43,37.37a50.68,50.68,0,0,0-9.48,3.41c-15.44,8.72-31.06,4.68-46.67.63a6.21,6.21,0,0,1-1.34-5.75c2.75-3.82,5.31-7.49-2.41-8.49a8.85,8.85,0,0,1-6-3.86C205.66,290.47,208.48,288.23,211.35,286Z" transform="translate(-20.21 -128.09)"/><path class="cls-8" d="M179.1,537.77,173,546.49c-6.41-.43-9.7.71-11.33,8.8-1.4,6.9-10.47,10.94-14.75,17.48-7.15,8.49-14.15,17.11-21.54,25.38a21.18,21.18,0,0,1-8.28,5.63c-6.53,2.34-14,3.87-18.43-2.95-4.19-6.46,2.2-11.23,6.09-14.63,14.56-12.72,28.42-26,40.4-41.22,2.5-3.2,4.79-5.78,4.71-9.9-9.25-8.8-20.92-16.15-19.08-31.63,1.72-4.13,7-4.11,9.46-7.75-8,.66-14.3-1.2-18-8.82-2.48-5.06-6.17-5.31-10.11-1.29-13.19,3-26.31,6.32-39.59,8.76-4.33.8-10.67,2.26-12.54-4-2-6.71,2.14-11.87,8.19-13.42,13.59-3.49,27.37-7.38,41.25-8.27,12.54-.8,21.78-6.82,31.58-12.83,8.45-3.26,17.58-4.32,25.38-9.88,7.4-5.28,14.89-6.06,16.45,7.65,6.14-6.38,2.46-21.73,17-15.24,11.63,7.44,14.38,20.7,20.73,31.6,1.5,4,5.2,7.7,2.88,12.3-5,9.88-5.19,20.64-6.54,31.23-1.13,8.94-5.73,13.18-15.08,10.25-3.57.14-7.29-.23-10,2.86-5.76,2.49-12,1.51-18.1,2.71C176.21,531.58,183.69,530.93,179.1,537.77Z" transform="translate(-20.21 -128.09)"/><path class="cls-9" d="M544.83,438.21c-14.65,1.27-27.7-4.76-40.42-10.28-20.7-9-42.49-4.51-63.66-7-7.2-.85-14.4-1.26-21.55-2.79-12.9-2.76-19.94-9.52-17.58-23.5-2.88-10-.66-20.15-1.34-30.18,9.8-6.74,15.69-16.61,21.2-26.8a18.56,18.56,0,0,1,3.61-2.49c4.53-2,9.18-2.94,13.08.94,5.43,5.41,11.69,4.88,18.26,3.28,15.53-2.28,27.13,5.78,38.45,14.58a12.26,12.26,0,0,1,2.55,3.47c3.35,10.78,1.61,20.38-6.69,28.43-.15,2.4-7.81.84-3,5.88a8.34,8.34,0,0,1-.14,7.1c-4.62,8.87.41,9.87,7.47,9.33,12.77-.14,24.81,2.28,35.43,9.83l-.06-.05c3,2.39,6.54,1.21,9.84,1.47,5.29.41,9.58,2.39,11.38,7.58C553.76,433.17,548.93,435.57,544.83,438.21Z" transform="translate(-20.21 -128.09)"/><path class="cls-10" d="M202.89,371.54c.39,4.12.47,8.16-3.06,11.21-1.73,6.19-7.45,8-12.08,11-4.8,2.52-9.46,5.42-15.19,5.22-7.67-.88-15.26-2.16-22.47-5.09-10.6-4.3-19.32-11.28-27.39-19.18-.07-8-4.71-12.46-11.68-15.17-2-10.16,5-15.62,11.13-21.51,12.61-2.43-2-7.86,1.2-11.33.08-2.58-.47-5.21.47-7.74.76-3.13,5.14-5.48-1-9.25C111,302.33,100.09,293.43,89,284.93c-4.19-3.21-9.68-7.27-5.76-13.1s10.5-4.12,15.5-.55c7.88,5.63,16.61,10.8,22.65,18.1,10.78,13,25,18.6,40.27,23.1,5.51,5.15,9.8,11.63,18.54,12.65,4.86.57,8.3,4.61,9.35,9.87.14,3.62-2.51,5.95-4.05,8.76-1.17,4.05,1.3,4.78,4.5,5.36C209.81,352.65,209.81,352.69,202.89,371.54Z" transform="translate(-20.21 -128.09)"/><path class="cls-11" d="M466.07,517.28l-5.88,9c-1.77,5-5.39,8.57-9.25,12a20.33,20.33,0,0,1-3.25,2.19c-3.64,1.78-7.35,3.13-11.49,1.84a24.4,24.4,0,0,1-7.11-4.75c-3.56-3-1.82.61-2,1.79a9.71,9.71,0,0,1-1.18,5.55,83.74,83.74,0,0,1-6.55,7.64c-6.08,6.92-7.48,1.46-9.1-3.41-.68-2.12-1.06-4.69-4.35-2.65-3.48,3.56-7,5.37-10.93.62-7.95-6.22-10.5-16.35-17.15-23.51l.07.13c-2.23-4.08-.37-7.27,2.19-10.35,2.19-2.62,4.35-5.3,1.4-8.75-4.41-3.16-7.58-8.6-14.75-4.93-5,2.57-3.59-4.13-6-5.65-2.32-9.83,4.72-13.66,11.38-17.72,2.69-3.59,7-5.11,10.21-8.09,4.38-4.06,7.86-10.64,15.81-6.88,8.21,3.88,12.94,9.73,12.61,19.32-.14,3.87.68,7.73-1.47,11.27-4.48,4.71-8.63,9.49-1.1,17.09-1.54-5.93-5-10.87-.32-15.23,4.88-3.61,11.75-5.33,4.29-14.2-4.68-5.57,1.4-11.59,7.28-14.68,7.36-3.86,14.12-2.08,19.23,4.16,2.59,3.18,2.38,8.44,7.21,10.14h-.05c1,1.65,3,3.75,2.59,5-3.57,10.91,2.55,14,11.55,15.93C470.44,502.4,471.37,508.9,466.07,517.28Z" transform="translate(-20.21 -128.09)"/><path class="cls-12" d="M123.62,338.62c-3.43,7.17-10.47,12.3-11.75,20.7,7.32,2.14,7.29,10.16,11.73,14.62,10.42,3.41,17,12.57,26.37,17.56,7,4.56,15.25,5.42,23,7.77a2.76,2.76,0,0,1,1.06,2.27c-.06.87-.18,1.31-.38,1.31-5.09,2.36-7.4,7.62-11.41,11.1,5-2.13,5.88-8.44,10.84-10.56C176.83,397.81,184.53,397,188,391c2.3-5.11,9.25-3.54,11.86-8.22,2.92,7.89.21,13.79-6,19-11.54,9.62-22.55,19.23-38.15,23-12.32,3-19,15.77-29.71,22.49-7,4.43-13,10.65-22.2,7.67-3.3-1.08-5.29-4.08-4.79-8.11,1.21-9.73,6.8-16.08,15.76-19.05,8.73-2.89,15.06-10.63,25-11.11,7.4-.35,10.92-4.89,10.16-12.83-.79-8.25-6.54-8.44-12.48-8.77-30.44-1.71-60.84-4.61-91.38-3.5-3.93.15-7.82.28-11-2.64A10.24,10.24,0,0,1,44,384.92c18.27.52,36.37-3.18,54.62-2,1.86-1.42,5.11,3.83,6.14-1.33-3.6-2.46-10.44-.4-10.42-7.64,7.12,1.33,11.62-1.16,11.52-8.82-.11-8.2-6.84-4.7-10.94-5.5-6-1.17-12.75,1.89-18-3.29,6.36-4.41,13.94-6.16,20.75-9.6,5.12,5.38,9.48,6.26,11.24-2.48a43.11,43.11,0,0,1,15-25.36l2.46,5.85C122.14,328.76,124.51,334,123.62,338.62Z" transform="translate(-20.21 -128.09)"/><path class="cls-13" d="M445.49,262.46c-2.48,6.92-9.43,13.85,0,20.77a4.59,4.59,0,0,1,.89,3.77c-6.28,9.32-7.91,21.28-16.56,29.26-3.09,2.25-6.45,4.15-9.11,7-3.37,2.85-5.18,7.83-10.63,7.88-4.68-.77-8.42-3.94-14.19-5.79.74,7.51,8,9.25,10.16,14.34-.19,9.64-5,17.51-9.8,25.37-3.94-8.49-7.84-17-11.81-25.45-2.44-5.2-5-6.51-11.24-3.59-13.56,6.4-21.74,2.86-27.14-11.12-3.39-8.78-7.67-14.43-18-11.86-3.47.87-7.32,4.48-10.23-.35-2.18-3.62,1.3-6.13,2.94-9a28.32,28.32,0,0,0,1.81-5.4c10.11.54,17.71,6.61,25.79,11.65a24.83,24.83,0,0,1,3.09,2.5c19.13,14.6,25.23,14.07,41.41-3.33,3.63-3.9,6.37-8.48,10-12.4a59.64,59.64,0,0,0,15.07-15.44C425.94,273.31,431,260.93,445.49,262.46Z" transform="translate(-20.21 -128.09)"/><path class="cls-14" d="M327.89,251.05c8.55,7.18,11.1-2,15.67-5.73a4,4,0,0,1,3.51-1.42c4.56,1.85,11,10.65,11.29-3.12.6-3,2-5.28,5.28-5.82,9.06,2,11.11,9.16,10.09,16.44-1.13,8.17-4.74,15.73-15.14,15.9-3.69.8-4.39-4.79-9-3.8.49,6-.35,12.54,9.37,8.63,5.79-7.59,14.2-9.33,22.71-8.44,12.15,1.27,15.4,7.81,10.59,19.46-1.85,4.49-2.76,9.18-4,13.81-1.38,3.06-5,4-6.55,6.91-2.85,4.1-3.82,10.21-10.66,10.06a4.78,4.78,0,0,1-2.91-2.37c-.57-2.13-.46-4.21,2.9-8.39-4.78,4.15-4.3,7.22-5.34,9.71-5.76,6.67-11.56,4.13-17.37.08l.29.14c-4.66-8.38-18.6-8.27-18.92-20.64a6.67,6.67,0,0,1,3-5c1.94-1.22,5.48-1.32,5.66-3.66.26-3.49-3.29-4-6.05-4.72a16.78,16.78,0,0,1-6.85-3.49,7.19,7.19,0,0,1-1.6-3.55c2.3-6.22-1.83-11.31-3-16.93C321.73,251.2,323,248,327.89,251.05Z" transform="translate(-20.21 -128.09)"/><path class="cls-15" d="M530.47,418c-12.65-1.14-24.38-7.74-37.46-6.33-4.54-4.5-1.17-8.89.35-13.17,2.57-7.24,4.72-14.59,4.54-22.32-.35-14.86-.47-14.85,14.65-12.73,14.29-1.58,28.64-2.44,42.89-4.26,6.59-.85,13.42-2.34,19,3.17-1.59,3.75-9.45,3.7-6.85,9.42,1.84,4.05,7,1.61,10.64,2.13,5.63.81,13.19-2.54,13.82,7.86.51,8.36-3.66,14.61-10.78,14.36-15.19-.54-28.55,7.68-43.52,7.21-4.65-.14-11.09-2.42-13.69,1.68C520.36,410.88,529.69,412.84,530.47,418Z" transform="translate(-20.21 -128.09)"/><path class="cls-16" d="M407.56,494c-.05-6.2.72-12.54-.32-18.57-1.84-10.61-14-14.58-22-7.41a36.93,36.93,0,0,1-13.23,8.2c21-29.27,43.19-37.75,76.69-29.76,12.2,2.9,23.57-4.11,35.66-3.86,5.79.11,11.93-2,17.32-.68,7.42,1.81,14.4,5.86,5.95,14.95-4.83-3.17-7.42-10.65-15.37-7.85-2.82,1-5.83,2.21-5.72,5.47.13,4.14,3.83,3.29,6.55,3.4,4.59.18,9.38-2.83,13.75.88-2.3,6.37-8.05,7-13.2,6.6-11.51-.8-23.11.62-34.57-2.42-11.8-3.13-17.17,3.75-13.31,16.17-5.78.42-6.21-5-9-8-4.46-4.68-9.79-7.79-16.24-3.32-3.42,2.38-7.77,4.17-6.85,9.84,1.14,7,7.15,2.27,10.54,4.46-2.9,7.93-7.29,13.38-16.74,11.79Z" transform="translate(-20.21 -128.09)"/><path class="cls-17" d="M272.9,535c-4.47,6.47-11.8,13,3.78,18.11-5.05,2-7.25,2.75-9.37,3.7-5,2.23-10.74,5.14-8.45,11.39,1.58,4.33,5,9.46,11.34,9.28a9.22,9.22,0,0,1,8.51,4.27c-2.59,2-3.15,5.75-6.21,7.39a10.58,10.58,0,0,1-10.68-.75c-3.6-2.36-3.35,1.18-4.32,2.87a6,6,0,0,1-2.6,2.69c-9.06,10.63-14.68,23.3-21.14,35.48-2.25,4.23-4,9.11-7.3,12.33-5.74,5.57-11.23,6.13-12.69-4,.54-9.95,10.4-16.35,10.12-26.61,17-20.45,18.17-47.31,28.64-70.4.67-.77,1.64-1.53,2.37-1.18,4.47,2.16,4.44,2.21,5.4-1.77a12.55,12.55,0,0,1,3.31-6.13C267.72,530,270.29,532.54,272.9,535Z" transform="translate(-20.21 -128.09)"/><path class="cls-18" d="M132.38,502.82c.59,13.58,12.19,21.21,17.46,32.26-3.84-3-7.24-4.17-11.22.38-14.13,16.16-33.71,25.93-48.71,41.11-3.88,3.92-8.43,6.37-14.33,5.6-4.57-.59-8.65-1.64-10.31-6.57-1.43-4.25.06-7.73,3.36-10.34,9.45-7.49,19-14.82,28.54-22.22,9.57-5.95,16.28-15.83,27.26-19.86,6.22-2.28,3.26-6.74,2.46-10.69C127.08,508.33,125.22,503,132.38,502.82Z" transform="translate(-20.21 -128.09)"/><path class="cls-19" d="M328.42,572.83c3.08-12.43-13.08-11.19-14.5-20.42-6.28-12.08-5.36-14.78,8.24-24.32,6.58,2.45,11.81,7,17.18,11.27,5.91,1.08,9.16,5.68,12.91,9.61,1.71,1.32,3.4,2.68,5.77,2.54,12.06,7.39,22.15,17.16,31.82,27.29,5,5.23,11,12.58,3.69,18.85-6.19,5.31-15.68,3.79-21.24-2.42-7.65-8.55-14.12-18.28-20.2-28.05-2.92-4.71-2.53-11.51-11.11-10.56-8.35.92-10.27,5.84-10.23,13C330.75,570.68,329.23,571.76,328.42,572.83Z" transform="translate(-20.21 -128.09)"/><path class="cls-20" d="M466.18,532c19.67,11,32.49,30.2,51.38,42.25,6.79,4.34,8.82,12.23,2,18.76-7.25,7-12.08.45-16.89-4.37-13.58-13.61-26.65-27.77-42.3-39.14a12.76,12.76,0,0,1-3.45-6.84C457.5,536.93,455.91,529.32,466.18,532Z" transform="translate(-20.21 -128.09)"/><path class="cls-21" d="M483.92,505.54C499,514.33,514.16,522.93,529,532c3.6,2.2,6.38,5.91,9.13,9.27,3.91,4.77,3.82,10.37.06,14.79-4.6,5.4-9.86,2.15-14.32-.94-13.55-9.38-26.95-19-40.41-28.46-2.1-2.59-5.09-4.2-7.3-6.68-3.05-3.44-7.85-6.47-4.6-12C474.53,503,479.15,503.18,483.92,505.54Z" transform="translate(-20.21 -128.09)"/><path class="cls-22" d="M489.44,327c18.37-9.73,38.54-14.84,57.83-22.19,7.68-2.93,18.31-1.67,20.34,8.13,1.86,9-7.35,10.46-14.62,12.22-11.21,2.71-21.91,7.57-33.66,8.09-6.26,1.17-11.06,5.46-16.75,7.79-4.12,1.69-8.65,1.62-12.25-1.34C485.82,336,486.37,331.51,489.44,327Z" transform="translate(-20.21 -128.09)"/><path class="cls-23" d="M217.24,306.55c-.05,2.11-.11,4.21-.16,6.32-18-12-38.67-15.81-59.52-19.43-7.47-1.3-16.84-5.49-14.71-14.67,2.32-10,12.83-12.53,21.4-9.2,11.09,4.3,23.81,6.09,32.46,15.26,5,5.32,9.68,2.06,14.64,1.19-.95,2.93-1.91,5.86-2.86,8.79C207.87,301.36,216.32,301.15,217.24,306.55Z" transform="translate(-20.21 -128.09)"/><path class="cls-24" d="M201.75,523.71c8.59-.78,13.42-5.56,11.71-14-2.89-14.38,9.64-25.68,7-39.76,19.69,13.36,14.68,34.26,9.52,49.95-6,18.12-6.71,35.53-7,53.67-.1,7.21.87,15-8.49,17.74-3.11-4.35.07-8.31.87-12.36.92-4.64.62-8.66-3.78-11.41-11.4-7.11-9.38-13,1.48-18.44,2.24-1.12,3.27-3.45,2.52-7.21-5.79,0-6.46,9.67-13,7.7C201.62,541,215.81,531.84,201.75,523.71Z" transform="translate(-20.21 -128.09)"/><path class="cls-9" d="M574.45,362.35,510,367.73c-4.55-2.18-6.21-5.78-5.25-10.67a9.1,9.1,0,0,1,2.43-3.51c21-4.09,42-8.37,63-12.15,6.67-1.2,13.26.92,14.9,8.18C586.85,357.3,580.93,360.5,574.45,362.35Z" transform="translate(-20.21 -128.09)"/><path class="cls-25" d="M298.86,266.28c-11.61-30.41-19.66-61.44-16.84-94.43a58.6,58.6,0,0,0-.21-11.62c-.69-6-4.35-10.61-10.26-10.4-7.19.26-5.35,7.07-5.32,11.38.11,14,0,28.14,1.67,42,.86,7.09-2,7.75-6.8,7.2-14-1.62-26.82.8-39.91,13.73,2-12.36,2.46-20.76-1.38-28.6,5.87,1.8,6.34,6.52,6.49,11.59.07,2.32.36,5.49,3.86,4.48,4-1.17,2.91-3.74,1.31-6.71-3.43-6.36-6.57-12.92-5.65-20.53,10.24-.4,6,12.69,14.37,14.87,4.13-5.49-2.57-13.14,3-18.29,4.93.38,12.47-3.39,7.48,8.2-2.94,6.84-6,19.59,11.1,17.58-1.84-2.79-4.88-6.83-4.6-7.07,12.87-11.26,1.13-25.09,4.11-37.21,1.83-7.47-.35-18.06,11.26-19,7.05-.55,16.22,14,14.22,22.7-2.67,11.65-1.66,23.24-1.52,34.89,7.26,16,13.54,32.27,15.95,49.79C301.94,256.22,301.94,261.49,298.86,266.28Z" transform="translate(-20.21 -128.09)"/><path class="cls-26" d="M243.2,181c.89,5.15,1.74,10.31,2.69,15.45.75,4,.61,8.15-3.57,9.82-4.64,1.85-6.83-2.25-8.59-5.51-2.88-5.32-5.3-10.88-7.91-16.34-5-11.86-10-23.7-14.87-35.6-2.33-5.66-3.78-11.72,3.06-15.17,7.12-3.59,12,.53,15.4,6.49C236.64,152.82,235.61,168.35,243.2,181Z" transform="translate(-20.21 -128.09)"/><path class="cls-27" d="M97.59,346.75c-3.86,9.8-12.06,10.23-20.75,9.6-14-1.59-27.48-5.72-41.71-6.4-7.53-.36-16.56-4.36-14.66-14.41,2-10.36,10.82-8,17.76-5.7C57.78,336.33,78.6,338.35,97.59,346.75Z" transform="translate(-20.21 -128.09)"/><path class="cls-28" d="M443.11,175.88c6.17-1.93,12.37-11.21,18.63-2.56,5.28,7.3,0,14.69-4.95,20.8-6.6,8.18-13.52,16.12-20.3,24.16-2,5.13-6.37,8.38-10,12.24-3.82,4.1-8.07,7.44-13.91,4.57s-3.67-8.1-3-12.76a17,17,0,0,1,3.84-7.66c5.53-5.35,12.69-9.4,14.39-17.87C431.21,188.57,434.8,180.5,443.11,175.88Z" transform="translate(-20.21 -128.09)"/><path class="cls-29" d="M82.66,540.83c-5.48,3-10.68,7-16.54,8.82-4.72,1.48-11.34,2.58-13.93-4-2-5.11.69-9.91,5.17-12.46,12.12-6.92,24.54-13.32,36.86-19.88,3-1.6,6.07-3.05,9.11-4.57,6.72-1.13,13.93-5.38,19.16,3,.7,8.44-5.72,11.74-11.5,15C101.82,532,92,536,82.66,540.83Z" transform="translate(-20.21 -128.09)"/><path class="cls-30" d="M94.29,374c3.25,5.69,11.57,0,14.48,6.43-1.51,2.22-3.06,4.4-5.81,5.25a646.8,646.8,0,0,1-67.9,3.22c-6.61-1.48-12.39-4.25-11.23-12.26,1.24-8.52,8.61-6.36,13.85-6.13C56.56,371.32,75.42,372.75,94.29,374Z" transform="translate(-20.21 -128.09)"/><path class="cls-31" d="M477.85,581.67c4.21,4.66,8.21,9.54,12.69,13.93,4.8,4.7,7.14,10.34,2.32,15.26-5.51,5.61-12.81,3-16.47-2.36-12.1-17.9-29.32-32.22-37.18-53,7.87-7.94,7.87-7.94,20.54,3.59l-.2-.21C465.21,566.79,471.43,574.31,477.85,581.67Z" transform="translate(-20.21 -128.09)"/><path class="cls-30" d="M99.86,334.83c-19-8.34-39.26-12.67-58.74-19.44-4.69-1.64-6.84-5.68-5.59-10.45,1.48-5.61,6.17-8.07,11.3-6.24,19.45,6.93,39.05,13.62,57,24.08,2.94,1.71,6.1,4.16,4.65,8.08C107.15,334.5,103.75,335.33,99.86,334.83Z" transform="translate(-20.21 -128.09)"/><path class="cls-32" d="M298.86,266.28c1.13-19.65-8.49-36.87-12.42-55.37-.69-3.21-.81-6.55-1.19-9.82,7.17,4.76,4.05-6.08,8.42-5.55,6.53,11.36,8.93,24.34,14.18,36.21,2,4,4.43,7.77,5.75,12.08,2.43,9.76.15,19.88,2.32,29.67a8.12,8.12,0,0,1-1.75,6.57c-10.35-3.89-3.84-13.94-7.81-21.23-6.39,4.07-4.3,10.33-3.86,15.25,2.29,25.51,2.34,26.11-20.3,34.68-5.76,2.18-12.28,2.37-18.45,3.48,4.66-6.66,12.86-5.84,19.28-8.53,13.55-5.69,19.66-14.12,16.19-28.82C298.57,272.15,299,269.16,298.86,266.28Z" transform="translate(-20.21 -128.09)"/><path class="cls-33" d="M445.49,262.46c-11.9,2.8-18,13.07-26.4,20.41-2.22-4-1.89-8.91-9.17-9.84-6.7-.85-12.56-6.65-17.66-11.6-3.82-3.71-7.06-8.7,1.24-11.76,3.74,2.83,7.54,3.58,10.75.18-2.45,0-5.22,3.78-8.6,1-3-6.91,1.39-13.86-.08-20.79,14.87-6,18.64,7.6,24.37,15.23,4.74,6.3,7.76,7.41,13.43,2.75l3.34-.29c-.8,7,6.51,7.93,9.23,12.3Z" transform="translate(-20.21 -128.09)"/><path class="cls-34" d="M419.75,564c6.25,13.91,12.66,27.76,18.64,41.78a7.09,7.09,0,0,1-3.9,9.75c-5,2-9.31.45-12.2-4.66-6.73-11.88-10.22-25-14.93-37.65-.58-1.26-1.39-2.48-1.15-3.94.63-3.88-2.38-9,2.54-11.38C414.65,555,416.47,561.16,419.75,564Z" transform="translate(-20.21 -128.09)"/><path class="cls-35" d="M202.69,549.57c1.78-2.25,3.25-4.87,5.42-6.66,3.47-2.88,3.36-11,9.55-8.93,4.77,1.59,1.94,7.72,2.28,11.81.42,5,.87,9.59-7.48,8-5.3-1-9,6-3.83,7.76,20.49,7.09,9,19,5.93,29.78-10.75,3.59-19-3.81-17.38-16.38C198.3,566.37,200.8,558,202.69,549.57Z" transform="translate(-20.21 -128.09)"/><path class="cls-2" d="M443.11,175.88C442,185,433.42,190,431,198.35c-4,6.39-10.28,10.84-14.62,17l-3.16,6.48c-2.53,4.36-5.49,8.13-11.33,7.06-5.12-.93-3.79-4.52-3-7.82,11.35-20.53,22.81-41,37.58-59.39,2.25-2.4,3.53-5.68,6.6-7.33,3.86,2.46,6.88,5.35,2.94,9.93C442.91,167.74,442.45,171.61,443.11,175.88Z" transform="translate(-20.21 -128.09)"/><path class="cls-36" d="M445.94,260c-7.4-.85-12.06-3.77-9.23-12.3,8.47-6.25,16.89-12.57,25.43-18.71,4.69-3.37,10.55-8.07,15.17-2.1s.88,12.21-4.74,16.1C463.91,249,454.84,254.37,445.94,260Z" transform="translate(-20.21 -128.09)"/><path class="cls-37" d="M305,232.83c-4.67-12.16-12-23.51-11.31-37.29,9.43-7.78,17.57-6,23.45,5.28,3.46,6.64,3.31,13.81,2.32,21C318.13,230.1,309.5,228.76,305,232.83Z" transform="translate(-20.21 -128.09)"/><path class="cls-38" d="M202.89,371.54c.11-2.37-.37-5,.44-7.08,4-10.32.37-12.83-9.91-11.54-7.09.89-17.45,2.59-11.87-11.17,3.71.24,7.22-1.24,11-1.25-1-2.23-3.62-2.94-4.61-5.1-2.92-4.61-6.57-7.55-12.41-8.56-7.62-1.31-12.51-6.42-13.85-14.36,11.87,8.35,27.18,9.84,38.46,19.49C214.42,344.2,215.33,355.47,202.89,371.54Z" transform="translate(-20.21 -128.09)"/><path class="cls-39" d="M489.44,327c-1,12.28,5.25,13.94,14.95,10.06,4.84-1.94,9.33-5,14.93-3.82q-6.09,4.49-12.19,8.94c-7.71,1.61-9.74,8.07-12.15,14.22-12.32-5.49-22.84-15.61-37.66-14.72-1.17-1.22-3.19-1.51-3.73-3.41C464.66,331.77,476.26,326.89,489.44,327Z" transform="translate(-20.21 -128.09)"/><path class="cls-40" d="M445.56,286.11a7.17,7.17,0,0,0-.07-2.88c3.81-8.37,9.09-15,19.38-14.41,3.74.2,6.16,2.81,6.85,6.55,1.85,10.06-1.52,18.21-9.59,24.32-2.28,1.74-5.1,2.77-7.67,4.13-.54-.39-1.08-.79-1.63-1.17-2.62-3.83-6.4-6.76-8.62-10.91A6,6,0,0,1,445.56,286.11Z" transform="translate(-20.21 -128.09)"/><path class="cls-41" d="M445.56,286.11l.09,5.89c.6,5.62,5.12,8.31,8.73,11.68l.08.14c-.18,5.75-2.75,9.85-7.91,12.64-4.82,2.61-10.44,4.06-7.8,12.62s7.34,10.26,14.84,9.23l3.73,3.41c-7.41-.16-15,1.27-21.47-4.42-3.39-3-7.11-.14-10.46,1.53-5-8.45,4.9-15.38,2.37-23.57C436.47,307.24,434.54,292.72,445.56,286.11Z" transform="translate(-20.21 -128.09)"/><path class="cls-42" d="M483.92,505.54c-12.95.62-14.4,5.36-5.27,14.26,2,1.92,3.24,4.58,4.83,6.9-7.43-.12-9.42-10.31-17.41-9.42-.48-7.07,2.76-16.47-11-14.46-1.56.23-19.52-2.38-8.61-15.51,1.25-1.5-.39-5.39-.69-8.17A257.3,257.3,0,0,1,483.92,505.54Z" transform="translate(-20.21 -128.09)"/><path class="cls-43" d="M82.66,540.83c10.68-11.71,27.68-14.16,38.19-26.1,2.76-2.75,5.65-2.59,8.61-.36,5.08,5.41,10.76,10.31-2.84,12-11.72,1.51-16.68,16.2-29.45,16.63-.21-2.08,7.18-8.29-2.63-5.09C90.62,539.24,87,541.42,82.66,540.83Z" transform="translate(-20.21 -128.09)"/><path class="cls-44" d="M129.46,514.37l-8.61.36c-2.78-11-11.63-4.12-17.52-6,2.18-3.11,5.58-3.19,8.86-3.57,4.46-.52,11.31.63,9.87-6.42-1-5.09,1.2-14.92-10-13.17,3.11-7.06,7.08-7.47,11.15-1,3.62,5.75,7.92,9.41,15.16,7.73,3.54-.82,8.43-3.36,9.78,1.57s-4.07,5.34-7.61,6.41c-2.73.83-5.46,1.68-8.18,2.52C127.77,505.75,129.94,510.4,129.46,514.37Z" transform="translate(-20.21 -128.09)"/><path class="cls-41" d="M396.25,365c-1.5-10.09,6.19-17.24,8.37-26.16-.08-4.28,1.56-7.51,5.66-9.23l8.89-8.75c8,1.3,3.74,6.2,3,10.08-2.57,12.28-10,21.83-17.65,31.25-6,10.34-1.21,21.65-2.88,32.39C394.72,385.68,403.49,373.91,396.25,365Z" transform="translate(-20.21 -128.09)"/><path class="cls-45" d="M401.35,220.93c.25,2.08-2.34,5.1.81,6.09,4.88,1.55,7.14-3.81,11-5.23.5,3.85-4.2,8.55,1.25,11.47,4.79,2.56,7.95-1.32,11-4.17,3.77-3.5,7.37-7.2,11-10.81.92,7-5.38,9.58-8.56,14.1-6.27,8.93-4.36,14.25,5.45,15.62-4.37,8.76-7.95,11.46-14,.5-4.92-8.91-10.5-18.73-23.14-19-3.76-.08-6.06-2-7.1-5.59C391.94,217.69,396.43,218.41,401.35,220.93Z" transform="translate(-20.21 -128.09)"/><path class="cls-46" d="M199.76,438.33c-4.43,1.47-12.86-2.18-8.39,9.32,2.45,6.28-7,8.43-11,15.15-2.87-19.38-2.78-19.18-19.79-11.1-6.07,2.87-12.57,5.19-19.62,4.1,16-7.71,31.5-16.55,49.33-19.56C193.7,435.67,197.13,435.25,199.76,438.33Z" transform="translate(-20.21 -128.09)"/><path class="cls-47" d="M314.17,280.07l-.78-5.34c-1.81-5-.23-8.37,5-9.89,5.33,1,4.21,7,7.32,9.67l-.08-.05c4.68,4.76,5.36,10.86,5.66,17.08.76,11.24,16,10.82,17.39,21.55-8.78-4.77-18.32-8.21-26.07-14.8C319.63,292.29,318.85,285.28,314.17,280.07Z" transform="translate(-20.21 -128.09)"/><path class="cls-48" d="M364,236.53c-2.62,1-3.19,3.24-3.28,5.72-4,4.95-9.7,1.56-14.4,3l-1.37.09-1.38-.05a16.73,16.73,0,0,1,2.67-11.41l14.28-33.09c4.66,3.73,5.37,8.92,5.36,14.39C363.27,222.13,367.77,229.7,364,236.53Z" transform="translate(-20.21 -128.09)"/><path class="cls-49" d="M506.88,458.79c-6.12,1.42-12,3.53-18.56,3.15-4.3-.24-5.82-1.73-6.36-5.83-.44-3.44-1.58-6.2,2.35-8.77,10.47-6.82,20.32-3,23.36,9.55A1.81,1.81,0,0,1,506.88,458.79Z" transform="translate(-20.21 -128.09)"/><path class="cls-50" d="M419.75,564c-13.68-9.75-12.26.79-12.39,9.22a104.43,104.43,0,0,0-14.6-26.39c1-1.35,2-1.49,3.16-.23,4.34,3.49,6.06-1.14,8.73-2.82,3,.7,6.12,1.08,8.73,3,.23,1.87-.22,4.55.85,5.47,2.64,2.27,2.68-1.33,3.38-2.44,1.82-2.88,3.22-6,7.33-6,3.18,2.18,5.07,4.8,3,8.78C421.48,553.65,417.17,556.34,419.75,564Z" transform="translate(-20.21 -128.09)"/><path class="cls-51" d="M199.93,197.91c4.32,6.24,8.79,12.4,12.91,18.77,2.16,3.36,6.24,7.31,0,10.62-5.08,2.71-10.55,4-12.16-3.8-1-4.7-4.64-7-7.08-10.39C200.92,210.18,199.31,203.58,199.93,197.91Z" transform="translate(-20.21 -128.09)"/><path class="cls-52" d="M319.56,265.7c-4.19,1.56-5.67,5-6.17,9-6.14-10.32-1.16-21.66-3-32.37,4-.59,7.63-3,11.87-2.53-.27,4.81,3.18,7.77,5.63,11.21-3.54.57-5.41,2.51-5.14,6.22C325.25,261.43,323.5,264,319.56,265.7Z" transform="translate(-20.21 -128.09)"/><path class="cls-53" d="M290.29,605.85c-7.87,3.21-15.3-.31-22.89-1.45-3.94-3.76-9.83-5.17-12.5-10.45a4.86,4.86,0,0,1,.62-1.35c3.17-5.29,8.32-3.15,12.79-3.43,4.43,5.6,6.39-3.95,10.31-1.72C278.56,596.09,282.89,601.94,290.29,605.85Z" transform="translate(-20.21 -128.09)"/><path class="cls-54" d="M322.26,239.84c-2.85,6-6.22,9.63-11.87,2.53q-2.7-4.77-5.41-9.54c-2-12.61,12.51-3.57,14.46-11Z" transform="translate(-20.21 -128.09)"/><path class="cls-55" d="M459.75,559c-7.11.29-11.28-16.23-20.54-3.59l-5.45-3.09c.6-9.25,11.62-7.88,14.79-14.5h0c8.66-7.49,9.95-.44,11.62,5.88.09,1.92.17,3.83.25,5.75C450.17,552,462.66,556.05,459.75,559Z" transform="translate(-20.21 -128.09)"/><path class="cls-56" d="M146.89,572.77c.2-6.64,6-9.39,9.56-13.71,2.33-2.84,6.33-5.19,3.06-9.69-2.38-3.28-4.78-6,.5-9.2,6.42-3.89,6.77,1.74,9.08,4.87.69.93,2.56,1,3.88,1.45C164.74,555.71,156.92,565.34,146.89,572.77Z" transform="translate(-20.21 -128.09)"/><path class="cls-57" d="M384.54,502.66c6.42,3.55,4.16,7.8.17,11-3.45,2.77-6.35,5.4-6.85,10-6.28-3.08-9.33-8.64-11.47-14.89-2.31-4.61-1-7.57,4.24-7.18C375.26,501.92,379.82,503.22,384.54,502.66Z" transform="translate(-20.21 -128.09)"/><path class="cls-15" d="M544.83,438.21c8.4-7.71,6.13-12.84-3.75-16.56-3.53-1.33-7.93-.18-10.67-3.72,2.9-.18,5.81-.35,8.71-.55,4.8-.34,10.78-10.71,13.72-1.09C555,423.2,559.77,435.56,544.83,438.21Z" transform="translate(-20.21 -128.09)"/><path class="cls-58" d="M384.54,502.66c-4,3.8-7.38,7.1-13.33,2-3.89-3.35-3.85,1.88-4.82,4.13-4-4.13-6.78-8.72-5.72-14.79l4.07,3.89C374.43,486.71,378.2,500,384.54,502.66Z" transform="translate(-20.21 -128.09)"/><path class="cls-56" d="M179.1,537.77c-1-10.63-14.92,2-15.93-10.07,9.36-1.77,18.65-5.08,28.55-1.13C188.18,531.05,185.1,536.05,179.1,537.77Z" transform="translate(-20.21 -128.09)"/><path class="cls-45" d="M443,154.31c-.56,3.24.46,7.26-4.18,8.49-4.35-10.07-10-12.41-17.85-3.17-1.85,2.19-3.78,4.44-7,4.61.26-17.17,9.67-22.29,28.81-15.65Z" transform="translate(-20.21 -128.09)"/><path class="cls-59" d="M495,356.44c-5.09-12.55.47-16,12.15-14.22-1.91,3.79-5.17,7.58.06,11.33l-.3,2.38c-3.63,3.81-7.55,3.5-11.64.84Z" transform="translate(-20.21 -128.09)"/><path class="cls-60" d="M266.38,507.94l.85,6.76a4.5,4.5,0,0,1,1,3.53c-1,4.37-2.33,8.63-5.56,12-3.16,2.66-3.94,8.42-9.82,7.53C252,525.39,258.11,516.17,266.38,507.94Z" transform="translate(-20.21 -128.09)"/><path class="cls-61" d="M448.55,537.86c.06,9.92-10.57,8.94-14.79,14.5l-5.8.17-3-8.78c0-2,.07-3.91.11-5.87,4.56-1.59,7.15,5.65,12,2.67Z" transform="translate(-20.21 -128.09)"/><path class="cls-62" d="M334,608.42c-5-3.59-17.32-2.39-9.86-14.18,3-4.69,5.6-1.15,7.6,1.83C333.72,600,335.53,603.88,334,608.42Z" transform="translate(-20.21 -128.09)"/><path class="cls-63" d="M358,551.51c-1.49,3.45-3.5,4.21-6.23,1.19a29.71,29.71,0,0,0-7.38-12.52,9.59,9.59,0,0,1-1.32-5.44c0-2.24.34-4.34,2.6-5.54C351.9,535.48,356.47,542.66,358,551.51Z" transform="translate(-20.21 -128.09)"/><path class="cls-64" d="M223.89,611.16c5.28,12.16-6.95,17.66-10.12,26.61C210.23,626.27,220.22,619.91,223.89,611.16Z" transform="translate(-20.21 -128.09)"/><path class="cls-1" d="M252.83,537.75c3.4-2.59,4-7.88,8.8-9.12,2.16-.07,3.13.88,2.63,3.08l-3.32,15.4c-3.71-1.66-3.72-7.19-8.41-6.35Z" transform="translate(-20.21 -128.09)"/><path class="cls-57" d="M395.92,546.56l-3.16.23c-8.68-5.39-11.24-14.71-15-23.28C387.05,528.67,389.43,539.22,395.92,546.56Z" transform="translate(-20.21 -128.09)"/><path class="cls-61" d="M460.16,543.75c-3-3.77-4.39-10.54-11.62-5.88a27.27,27.27,0,0,1,11.65-11.64l6,5.77C458.21,532.86,461,539.25,460.16,543.75Z" transform="translate(-20.21 -128.09)"/><path class="cls-55" d="M477.85,581.67c-8.69-5.54-15.08-12.92-18.3-22.84C467.68,564.82,474.14,572.14,477.85,581.67Z" transform="translate(-20.21 -128.09)"/><path class="cls-65" d="M322,529.22c-3.39,6.87-16,11.84-4.46,21.77l-3.67,1.42-16.73-7.91c11.43-4.82,12.85-16.66,19.73-24.5C323,520.64,324.12,524.05,322,529.22Z" transform="translate(-20.21 -128.09)"/><path class="cls-66" d="M322,529.22,316.91,520c5.59-2.59,6.1-2.84,8.58,2.23,3.7,7.56,9.24,11.83,17.6,12.51l2.59,3.19c-2,3.26-5.73,1-8.26,2.59Z" transform="translate(-20.21 -128.09)"/><path class="cls-67" d="M279.68,566.27c.84-8.69,1-14.09,2-19.3.5-2.54,2.47-5.9,6-3.76,2.63,1.59,5.77,3.83,2.42,8C287,555,284.48,559.28,279.68,566.27Z" transform="translate(-20.21 -128.09)"/><path class="cls-68" d="M266.7,517.22a16.86,16.86,0,0,1,.53-2.52c12.33-.18,19.06,4.57,15.81,18.21-5.81-1.12-6.39-6.24-8.17-10.44-.09-.21-.94-.26-1.35-.12s-.76.59-1.13.9C267.81,523.77,267.46,520.31,266.7,517.22Z" transform="translate(-20.21 -128.09)"/><path class="cls-69" d="M266.7,517.22l5.69,6L272.9,535l-8.64-3.29-2.63-3.07Z" transform="translate(-20.21 -128.09)"/><path class="cls-70" d="M278.62,587.45c-1,2-2.47,3.9-2.93,6-.64,2.88-.76,6.12-4.86,4.24-3.78-1.74-2-4.48-.38-6.9a4.44,4.44,0,0,1,1.78-3.12c.32-4,2-6.46,6.48-5.94Z" transform="translate(-20.21 -128.09)"/><path class="cls-71" d="M413.94,164.24a115,115,0,0,1,6-9.84c3.33-4.48,7.6-8,13.63-6,7.38,2.47,6.95,8.3,5.27,14.36l-37.46,58.13c-3.78.88-8.37-.68-11,3.63-14,6.06-18.74,4.52-26.41-8.56q-1.71-7.59-3.41-15.18c.55-9.58,5.95-17.6,8.58-26.51,3.91,2.28,3.05,6.71,5,11.27,1.58-9.61,5.62-16.54,13.95-20.24,2.41.69,3.7,2,2.39,4.58-7.11,13.06-7.78,28.55-15.74,41.35-2.75,4.44.78,7.45,4.38,9.12,2.9,1.35,7.43,2.87,8.63-1.66C393,198.83,408.3,183.87,413.94,164.24Z" transform="translate(-20.21 -128.09)"/><path class="cls-72" d="M387.22,166c-2.77,8.27-12,14-9.36,24.5.44,1.7-1,3.77-3.35,4-3,.31-4.52-1.5-4.71-4.19-.38-5.34-.49-10.69-.71-16,6.35-9.93,2.56-24.51,14.59-31.84,14.23-.07,15.51,1.91,9.86,14.05C391.88,160.08,390.18,163.42,387.22,166Z" transform="translate(-20.21 -128.09)"/><path class="cls-73" d="M387.22,166c1.06-3.1,1.41-6.77,3.32-9.2,7.83-9.89,2.27-12.85-6.86-14.35,3.05-5,7.75-5.64,12.3-3.3,5.47,2.82,4,8.48,2.6,12.72-2,6.24-5.35,12-8.12,18Z" transform="translate(-20.21 -128.09)"/><path class="cls-74" d="M275,631.37c-5.83-4.45,3.3-16.36-8.82-17.67,4.71-6.36,8.7-6.19,9.83,2C276.73,620.77,275.42,626.13,275,631.37Z" transform="translate(-20.21 -128.09)"/><path class="cls-75" d="M217.24,306.55c-3.65-1.32-7.81-1.93-10.81-4.13-4.51-3.29-3.73-6.44,2.06-7.61,2.24.6,4.54,1.83,6.72,1.65,3.82-.31,7.89-1.48,8.57,3.93C224.34,304.84,219.42,304.46,217.24,306.55Z" transform="translate(-20.21 -128.09)"/><path class="cls-76" d="M235.4,298.59c4,1.49,8.6,2.45,9.94,7.32.64,2.32-1.65,3.65-3.59,3.27-4.24-.84-9-1.74-10.77-6.26C230,300.26,232.65,298.9,235.4,298.59Z" transform="translate(-20.21 -128.09)"/><path class="cls-77" d="M286.79,272.26c4.55.48,6,3,6.51,6,.52,3.3-1.22,6.36-4.41,6.24s-4.06-3.65-4.38-6.68C284.24,275.13,285.18,273.24,286.79,272.26Z" transform="translate(-20.21 -128.09)"/><path class="cls-78" d="M208.69,247.82c.13-2.7,1.25-4.93,4.11-5s4.3,1.8,3.89,4.75c-.36,2.65-2,4.84-4.43,5.13C209.08,253.07,208.54,250.45,208.69,247.82Z" transform="translate(-20.21 -128.09)"/><path class="cls-79" d="M184.65,480.28c-.69,4.22-3.4,4.91-6.42,4.63-3.5-.32-6.9-1.6-6.66-5.8.22-4,3.3-5.56,7.05-5.11S184.13,477.2,184.65,480.28Z" transform="translate(-20.21 -128.09)"/><path class="cls-80" d="M495.25,356.77l11.64-.84A20.51,20.51,0,0,0,510,367.74c-4.16,1.15-6.84-2.74-13.79-5,10.33,18.89,1.19,33.6-3.21,49-12.14,1.5-17-1.52-8.53-13.34,1.31-1.84,1.46-4.5,2.15-6.79,6.28.37,3.31-3.48,2.82-6.2C496.65,376.89,495.42,366.72,495.25,356.77Z" transform="translate(-20.21 -128.09)"/><path class="cls-81" d="M417.68,401.47c1.21.49,2.48.95,3.71,1.51,3.46,1.6,9.44-5.05,10.59,2.42.59,3.86-3.11,6.62-7.87,6.59-5.4,0-9.79-1.18-10.49-7.43-1-8.88,2-14,11.9-12.47C426.36,398.7,417.47,395.62,417.68,401.47Z" transform="translate(-20.21 -128.09)"/><path class="cls-82" d="M404.5,362.23c1.21-12.43,14.09-19.56,14.63-32.29,3.34,2.19,2.88,5.75,3.23,9C419.8,349.32,416.54,359.14,404.5,362.23Z" transform="translate(-20.21 -128.09)"/><path class="cls-83" d="M422.36,339c-3.56-2.12-3-5.72-3.23-9,1.06-3,4.57-6,0-9a9.61,9.61,0,0,1,8.59-5.64c3.13,3.37,8,6,2.5,11.69a16.51,16.51,0,0,0-4.87,11.88Z" transform="translate(-20.21 -128.09)"/><path class="cls-84" d="M489.45,385.34c5.69.72,6.24,3.92,3.39,8-3.29,4.66-3.88-2-6.21-1.77-3.47-.64-7.62,1-10.7-2.67C479.81,383.41,485.2,386.67,489.45,385.34Z" transform="translate(-20.21 -128.09)"/><path class="cls-85" d="M123.62,338.62c-7.86-6.3-2.86-10.14,2.66-13.87.49,2.25.53,4.74,1.58,6.68,1.8,3.34,10.49,1,8,7.19C133,345.42,127.8,337.59,123.62,338.62Z" transform="translate(-20.21 -128.09)"/><path class="cls-27" d="M123.6,373.94c-3.07,3.17-5.48,2.12-5.58-1.78-.14-5.42-4.11-8.58-6.15-12.84C124.27,357.38,126.29,363.77,123.6,373.94Z" transform="translate(-20.21 -128.09)"/><path class="cls-86" d="M187.9,335.4c2.72.67,5.61,1,8.12,2.1,2.76,1.24,4.65,3.88,3.16,6.9-1.61,3.26-4.55.77-6-.19-3.69-2.53-8.74,2.55-11.66-2.46Z" transform="translate(-20.21 -128.09)"/><path class="cls-30" d="M173,400.27c-9.28,1.3-16.87-1.86-23-8.77,7.87,1.61,16.17,1.49,23.36,5.82a1.77,1.77,0,0,1,.52,2.05C173.54,400,173.26,400.27,173,400.27Z" transform="translate(-20.21 -128.09)"/><path class="cls-87" d="M173,400.27l.33-2.95L188,391c0,9.94-9.09,9-14.71,12.2l.13.14Z" transform="translate(-20.21 -128.09)"/><path class="cls-88" d="M172.35,356.06c-.33,2.68-2.28,3.1-4.1,2.86-3.57-.48-6.16-2.33-5.8-6.38.18-2.06,2-3.63,3.82-3.14A8.11,8.11,0,0,1,172.35,356.06Z" transform="translate(-20.21 -128.09)"/><path class="cls-89" d="M407.48,493.94c.12,3.95.76,7.65,3.35,10.92s4.3,8.16.7,10.4c-4.75,3-5.85-3.1-8.09-5.85-5.7-7-7.52-13,4.12-15.39Z" transform="translate(-20.21 -128.09)"/><path class="cls-90" d="M437.07,540.55c-6.92,12.23-8.39-.09-12-2.67-2.57-1.82-7.08-3.14-4.22-7.28,1.76-2.53,5.4-1.66,7.66.55C431.52,534.11,434.23,537.4,437.07,540.55Z" transform="translate(-20.21 -128.09)"/><path class="cls-91" d="M413.38,546.71c-4,2.09-8,4.41-8.73-3,1.28-2.45,2.7-5.54,5.78-5C415,539.63,413.16,543.74,413.38,546.71Z" transform="translate(-20.21 -128.09)"/><path class="cls-92" d="M391.59,495.59c-7.89-1.31-12.64-1-14.41-6-.26-.73,1.36-3,2.3-3.14C384.94,485.65,385.91,490.92,391.59,495.59Z" transform="translate(-20.21 -128.09)"/><path class="cls-93" d="M173.26,403.18c-2.55,10.14-8.56,16-19.36,16,6.69-5.05,8.48-16.22,19.49-15.88Z" transform="translate(-20.21 -128.09)"/><path class="cls-94" d="M103,385.64c.25-3.61,1.76-5.85,5.81-5.26.69,2.73,7.65,2.78,3.81,6.85C110,390,105.71,389.13,103,385.64Z" transform="translate(-20.21 -128.09)"/><path class="cls-95" d="M132.66,432.88c-.38,1.82-.38,4.22-2.88,4.17-3.64-.08-4.23-3.48-5.09-6-.7-2.06.63-3.62,3-3.7C131.46,427.21,132.5,429.67,132.66,432.88Z" transform="translate(-20.21 -128.09)"/><path class="cls-72" d="M363.92,216c7.28,7.56,16.15,10.21,26.41,8.56l5.9,4.92c9.67,7.31-.66,14.42-.2,21.64l0,.08c-6.31.46-6.54,3.86-2.56,7.18,5.68,4.75,11.76,11.28,18.33,12.18,9.95,1.35,8,6.43,7.34,12.31-2.18,7.34-7.22,12.05-14,15.2-6.07,1.94-12.32,9.74-18.05-.5-4.21-5.33-.62-9.79,1.43-14.55,1.55-3.59,2.54-7.41,3.77-11.13-5.89-.73-9.69-8.82-16.95-4.78-4.81,2.68-12.87-1-14.73,7.48-4.2,1.4-7.7,0-8.62-4.08-.79-3.57,3.44-3.51,5.62-4.84,15.25-5.75,17.45-15.8,6.38-29.14C363.2,229.69,356.8,222.87,363.92,216Z" transform="translate(-20.21 -128.09)"/><path class="cls-96" d="M387.08,297.57c5.87,5.54,12.08-1.24,18.05.5a65.6,65.6,0,0,1-16.37,19.86c-16.12,13.62-19.7,13.94-40.4-5,5.26.41,10.59,2,15.66-.92a4.08,4.08,0,0,1,5.63.4l-.22-.09c3.58,2.58,7.71,2.86,10.44-.35,3.36-3.94,1.43-8.16-1.76-11.69C380.43,297.21,384,298.07,387.08,297.57Z" transform="translate(-20.21 -128.09)"/><path class="cls-97" d="M410.28,329.65c-1.5,3.32-2.18,7.13-5.66,9.23-2.19-.81-4.91-1.07-6.46-2.55-3.92-3.74-11.14-7.5-6.69-13.8,4.84-6.85,8.37,2.67,13,3.26C406.55,326.05,408.36,328.3,410.28,329.65Z" transform="translate(-20.21 -128.09)"/><path class="cls-98" d="M357.6,265.67c-6.32,5.43-1.09,7,3,8.92.55,1.69,2.23,4.34.18,5-5.25,1.58-9.72-1.63-12.46-5.35a19.7,19.7,0,0,1-3.67-12c.2-3,4.66-4.74,8.12-4.87C359.19,257.08,352.73,264.73,357.6,265.67Z" transform="translate(-20.21 -128.09)"/><path class="cls-99" d="M378.11,300.31c7.44,2.26,10.29,7,6,13.81-5.58,8.75-10.07,1.63-14.64-1.77C376.83,311.58,376.76,305.43,378.11,300.31Z" transform="translate(-20.21 -128.09)"/><path class="cls-72" d="M346.31,245.28c4-4.93,9.64-1.83,14.4-3,2.07,4.05,3.88,8.1-1.83,10.79C350.77,256.87,349.71,249.15,346.31,245.28Z" transform="translate(-20.21 -128.09)"/><path class="cls-100" d="M331.65,277.14c8.66-5.16,12.11,3.17,12.57,7.45.81,7.52-6.49,3.41-10.37,4.2C331.58,285.2,329.13,281.63,331.65,277.14Z" transform="translate(-20.21 -128.09)"/><path class="cls-101" d="M319.56,265.7l3.19-8.43c8.49,4.47,6.2,10.77,2.93,17.24C321.9,272.79,320.22,269.6,319.56,265.7Z" transform="translate(-20.21 -128.09)"/><path class="cls-102" d="M331.65,277.14c1.28,3.78,3.85,7.32,2.2,11.65l-2.59,2.75c-4.33-4.88-5.11-11-5.66-17.08Z" transform="translate(-20.21 -128.09)"/><path class="cls-103" d="M369.65,312.44,364,312c-2.12-6.14,4.43-8.55,5.39-13.82C376,303.38,368.94,307.89,369.65,312.44Z" transform="translate(-20.21 -128.09)"/><path class="cls-104" d="M522.71,377.37c16.2,5.66,31.86-2.72,47.84-.95,5.61.63,11.78.79,12,7.62s-5.19,10.1-11.78,10.14c-16,.12-32.13.59-48.12-.39-6.39-.39-17.47.93-16.93-8.88C506.18,376.64,517.27,380.87,522.71,377.37Z" transform="translate(-20.21 -128.09)"/><path class="cls-105" d="M465.9,448.74c5.51-1.42,5.8,2.1,5.91,5.7.14,4.69-1.95,8.51-6.73,6.21-4.31-2.06-13.14.81-12.44-6.66C453.28,447.08,462.08,452,465.9,448.74Z" transform="translate(-20.21 -128.09)"/><path class="cls-106" d="M447.53,454.82l-18.11,2.89C434.65,448.09,435,448,447.53,454.82Z" transform="translate(-20.21 -128.09)"/><path class="cls-1" d="M272.23,587.69l-1.79,3.12c-5.14-.83-10.05.32-14.92,1.8.28-4.1-2.22-9.66,1.75-11.91,6.37-3.61,3.83,6.06,7.9,6.66A69,69,0,0,0,272.23,587.69Z" transform="translate(-20.21 -128.09)"/><path class="cls-107" d="M337.42,540.53c2-3.24,5.13-2.95,8.26-2.59,2.84,4.59,10.75,7.08,6.11,14.76Z" transform="translate(-20.21 -128.09)"/><path class="cls-108" d="M368.25,577.85c-2.26-1.18-4.16-2.91-3.47-5.55.79-3,3-4.92,6.39-4,1.93.53,3.59,1.95,2.66,4.12C372.79,574.9,372.06,578.08,368.25,577.85Z" transform="translate(-20.21 -128.09)"/><path class="cls-45" d="M416.33,215.31c1.77-8.33,8.51-12.37,14.62-17C429.39,206.86,423.25,211.41,416.33,215.31Z" transform="translate(-20.21 -128.09)"/><path class="cls-109" d="M396,251.12a38.27,38.27,0,0,1,5-2.77c3.27-1.27,4.48-9.18,9.91-3.38,2.63,2.82,1.48,6.28-2.15,5.52-4.57-1-8.09,14.27-12.76.71Z" transform="translate(-20.21 -128.09)"/><path class="cls-110" d="M454.38,303.68c-8.12,0-13.89-1.75-8.73-11.68C450.79,294.23,455.67,296.65,454.38,303.68Z" transform="translate(-20.21 -128.09)"/></svg>