<svg xmlns="http://www.w3.org/2000/svg" viewBox="0 0 2566.64 1915.02"><defs><style>.cls-1{isolation:isolate;}.cls-2{fill:#f4a640;}.cls-3{fill:#adcfd8;}.cls-13,.cls-4{fill:#55769f;}.cls-11,.cls-5{fill:#daeef7;}.cls-6{fill:#feb546;}.cls-7{fill:#ff5b7e;}.cls-8{fill:#e03268;}.cls-9{fill:#02ccc0;}.cls-10{fill:#06bfad;}.cls-11,.cls-19{mix-blend-mode:multiply;}.cls-12{fill:#07085b;}.cls-13{opacity:0.5;}.cls-14{fill:#ffc0bb;}.cls-15,.cls-19{fill:#f99893;}.cls-16{fill:#333;}.cls-17{fill:#fff;}.cls-18{fill:#fc8d84;opacity:0.6;}.cls-19{opacity:0.3;}.cls-20{fill:#c4dfe8;}</style></defs><g class="cls-1"><g id="Layer_1" data-name="Layer 1"><path class="cls-2" d="M1371,1534.84l-303.44,121.87L691.94,721.41l256.49-103a50.61,50.61,0,0,1,65.81,28.1Z" transform="translate(-108.7 -84.56)"/><rect class="cls-3" x="748.76" y="728.27" width="590.07" height="829.64" transform="translate(-292.21 115.19) rotate(-10.05)"/><rect class="cls-4" x="854.17" y="815.73" width="263.5" height="5.92" transform="translate(-236.47 100.11) rotate(-10.05)"/><rect class="cls-4" x="796.2" y="800.96" width="374.21" height="5.92" transform="translate(-233.93 99.43) rotate(-10.05)"/><rect class="cls-4" x="769.76" y="876.89" width="454" height="5.92" transform="translate(-246.98 102.94) rotate(-10.05)"/><rect class="cls-4" x="774.73" y="904.91" width="454" height="5.92" transform="translate(-251.8 104.24) rotate(-10.05)"/><rect class="cls-4" x="784.66" y="960.94" width="454" height="5.92" transform="translate(-261.42 106.83) rotate(-10.05)"/><rect class="cls-4" x="789.63" y="988.96" width="454" height="5.92" transform="translate(-266.24 108.13) rotate(-10.05)"/><rect class="cls-4" x="794.6" y="1016.97" width="454" height="5.92" transform="translate(-271.05 109.43) rotate(-10.05)"/><rect class="cls-4" x="816.44" y="1140.19" width="454" height="5.92" transform="translate(-292.22 115.13) rotate(-10.05)"/><rect class="cls-4" x="821.59" y="1169.24" width="454" height="5.92" transform="translate(-297.22 116.48) rotate(-10.05)"/><rect class="cls-4" x="826.74" y="1198.29" width="454" height="5.92" transform="translate(-302.21 117.82) rotate(-10.05)"/><rect class="cls-4" x="831.89" y="1227.35" width="454" height="5.92" transform="translate(-307.2 119.17) rotate(-10.05)"/><rect class="cls-4" x="837.04" y="1256.4" width="454" height="5.92" transform="translate(-312.19 120.51) rotate(-10.05)"/><rect class="cls-4" x="842.19" y="1285.45" width="454" height="5.92" transform="translate(-317.19 121.86) rotate(-10.05)"/><rect class="cls-4" x="847.34" y="1314.5" width="454" height="5.92" transform="translate(-322.18 123.2) rotate(-10.05)"/><rect class="cls-5" x="703.38" y="724.17" width="590.07" height="829.64" transform="translate(-365.71 207.05) rotate(-14.74)"/><rect class="cls-4" x="782.45" y="817.45" width="263.5" height="5.92" transform="translate(-287.4 175.13) rotate(-14.74)"/><rect class="cls-4" x="723.28" y="802.94" width="374.21" height="5.92" transform="translate(-283.83 173.68) rotate(-14.74)"/><rect class="cls-4" x="703.01" y="877.52" width="454" height="5.92" transform="translate(-302.17 181.13) rotate(-14.74)"/><rect class="cls-4" x="710.25" y="905.04" width="454" height="5.92" transform="translate(-308.93 183.88) rotate(-14.74)"/><rect class="cls-4" x="724.73" y="960.07" width="454" height="5.91" transform="translate(-322.46 189.38) rotate(-14.74)"/><rect class="cls-4" x="731.97" y="987.58" width="454" height="5.92" transform="translate(-329.22 192.13) rotate(-14.74)"/><rect class="cls-4" x="739.21" y="1015.1" width="454" height="5.92" transform="translate(-335.99 194.88) rotate(-14.74)"/><rect class="cls-4" x="771.06" y="1136.12" width="454" height="5.92" transform="matrix(0.97, -0.25, 0.25, 0.97, -365.74, 206.97)"/><rect class="cls-4" x="778.57" y="1164.65" width="454" height="5.92" transform="translate(-372.76 209.82) rotate(-14.74)"/><rect class="cls-4" x="786.08" y="1193.18" width="454" height="5.92" transform="translate(-379.77 212.66) rotate(-14.74)"/><rect class="cls-4" x="793.59" y="1221.72" width="454" height="5.92" transform="translate(-386.78 215.52) rotate(-14.74)"/><rect class="cls-4" x="801.1" y="1250.25" width="454" height="5.92" transform="translate(-393.8 218.37) rotate(-14.74)"/><rect class="cls-4" x="808.61" y="1278.78" width="454" height="5.92" transform="matrix(0.97, -0.25, 0.25, 0.97, -400.82, 221.23)"/><rect class="cls-4" x="816.12" y="1307.31" width="454" height="5.92" transform="translate(-407.83 224.07) rotate(-14.74)"/><path class="cls-6" d="M1255.86,1581.08,645,1826.42,288.66,939.23,802,622.56a54.64,54.64,0,0,1,79.4,26.14Z" transform="translate(-108.7 -84.56)"/><path class="cls-7" d="M447.83,1682.85l-87.15-1.58c-30.26-54.83-52.46-102.51-52.46-102.51,98.43-22.69,181.5-13.38,250.71,13.23l38.13,92.64,8.17-71.34c171.51,92.56,242.18,288.5,242.18,288.5S544.29,1869.5,480,1839.61c-24.81-11.54-56.08-53.06-85.11-99.68C418.15,1717.81,447.83,1682.85,447.83,1682.85Z" transform="translate(-108.7 -84.56)"/><path class="cls-8" d="M308.22,1578.76s389.17,163.77,539.19,323c0,0-303.12-32.29-367.38-62.18-24.81-11.54-56.08-53.06-85.11-99.68,23.23-22.12,52.91-57.08,52.91-57.08l-87.15-1.58C330.42,1626.44,308.22,1578.76,308.22,1578.76Z" transform="translate(-108.7 -84.56)"/><path class="cls-7" d="M320.64,1840.51c52.4-31.91,105.27-49,156.43-55.8,15,18.65,33.4,40.57,33.4,40.57l1.94-43.7c196.3-8.94,359,122.58,359,122.58-113.69,71.66-210.67,91.41-290.11,85-4.71-15.29-11.37-38.1-11.37-38.1l-14,35.11a342.6,342.6,0,0,1-100.7-32.35c7.43-18.21,15.26-39,15.26-39l-42.31,24C357.19,1895.48,320.64,1840.51,320.64,1840.51Z" transform="translate(-108.7 -84.56)"/><path class="cls-8" d="M581.25,1989.17c-4.71-15.29-11.37-38.1-11.37-38.1l-14,35.11a342.6,342.6,0,0,1-100.7-32.35c7.43-18.21,15.26-39,15.26-39l-42.31,24c-70.9-43.35-107.45-98.32-107.45-98.32,228.71-26.42,550.72,63.65,550.72,63.65C757.67,1975.82,660.69,1995.57,581.25,1989.17Z" transform="translate(-108.7 -84.56)"/><path class="cls-9" d="M1466,661.36l70.25-51.59c-7-62.24-16.34-114-16.34-114-93.47,38.28-155.92,93.84-197.08,155.51L1345.17,749l-47.84-53.54c-86.64,174.58-31.25,375.37-31.25,375.37S1495,869.46,1530.2,808c13.6-23.74,15.16-75.69,12-130.53C1510.42,672.78,1466,661.36,1466,661.36Z" transform="translate(-108.7 -84.56)"/><path class="cls-10" d="M1519.92,495.78s-223.26,358.37-253.84,575c0,0,228.89-201.33,264.12-262.83,13.6-23.74,15.16-75.69,12-130.53-31.74-4.65-76.15-16.07-76.15-16.07l70.25-51.59C1529.31,547.53,1519.92,495.78,1519.92,495.78Z" transform="translate(-108.7 -84.56)"/><path class="cls-9" d="M1660.87,716.69c-61.21,4.19-114.24,20.76-159.95,44.73-1.48,23.88-3.86,52.41-3.86,52.41l-26.81-34.57c-165.45,106-222.36,307.29-222.36,307.29,134.2-7.11,224.8-47,286-98-5-15.2-12.71-37.67-12.71-37.67l31.73,20.57a342.74,342.74,0,0,0,63.56-84.55c-16.58-10.58-35-23.07-35-23.07l48.42-4.79C1662.75,782.68,1660.87,716.69,1660.87,716.69Z" transform="translate(-108.7 -84.56)"/><path class="cls-10" d="M1533.87,988.51c-5-15.2-12.71-37.67-12.71-37.67l31.73,20.57a342.74,342.74,0,0,0,63.56-84.55c-16.58-10.58-35-23.07-35-23.07l48.42-4.79c32.87-76.32,31-142.31,31-142.31-202,110.44-413,369.86-413,369.86C1382.09,1079.44,1472.69,1039.6,1533.87,988.51Z" transform="translate(-108.7 -84.56)"/><path class="cls-8" d="M2222.46,972h41.77a43.69,43.69,0,0,0-24.69-7.47H1193c-54.75,0-99.14,39.35-99.14,87.89v55.82c0,48.53,44.39,87.88,99.14,87.88l1034.85-.31Z" transform="translate(-108.7 -84.56)"/><path class="cls-6" d="M1181.64,1108.22V1052.4c0-48.54,44.39-87.89,99.14-87.89h-22.47c-54.76,0-99.14,39.35-99.14,87.89v55.82c0,48.53,44.38,87.88,99.14,87.88h22.17C1225.87,1196,1181.64,1156.67,1181.64,1108.22Z" transform="translate(-108.7 -84.56)"/><path class="cls-6" d="M1426.74,1108.22V1052.4c0-48.54,44.39-87.89,99.15-87.89h-22.48c-54.75,0-99.14,39.35-99.14,87.89v55.82c0,48.53,44.39,87.88,99.14,87.88h22.18C1471,1196,1426.74,1156.67,1426.74,1108.22Z" transform="translate(-108.7 -84.56)"/><path class="cls-7" d="M1628.31,964.72c-52.37,0-94.81,37.63-94.81,84v63.08c0,46.42,42.44,84.05,94.81,84.05h651.5v-14.12h-2.69l-165.63-13.9L2078,1051.46s64.61-64.33,68.82-66,130.28-6.69,130.28-6.69l2.69,0v-14Z" transform="translate(-108.7 -84.56)"/><path class="cls-5" d="M2237.56,1079.89c0-68.06,39.68-101.06,39.68-101.06H1641.65c-48.1,0-87.09,34.56-87.09,77.2v48.56c0,42.63,39,77.19,87.09,77.19h635.59S2237.56,1165.6,2237.56,1079.89Z" transform="translate(-108.7 -84.56)"/><path class="cls-11" d="M1554.56,1056v48.56a69.33,69.33,0,0,0,2.54,18.51c21.44-46.49,62.52-91.27,140.73-105.67,182.6-33.62,579.41-38.6,579.41-38.6H1641.65C1593.55,978.83,1554.56,1013.39,1554.56,1056Z" transform="translate(-108.7 -84.56)"/><path class="cls-12" d="M2205.22,1434.88h47.29a46.19,46.19,0,0,0-27.94-9.35H1040.07c-62,0-112.21,49.25-112.21,110v69.87c0,60.76,50.24,110,112.21,110l1171.25-.39Z" transform="translate(-108.7 -84.56)"/><path class="cls-4" d="M1532.76,1425.79c-59.26,0-107.31,47.1-107.31,105.2v79c0,58.1,48,105.2,107.31,105.2h737.38v-17.66h-3l-187.46-17.41-37.88-145.72s73.12-80.52,77.89-82.6,147.45-8.38,147.45-8.38l3,0v-17.56Z" transform="translate(-108.7 -84.56)"/><path class="cls-5" d="M2222.31,1570c0-85.2,44.91-126.5,44.91-126.5H1547.86c-54.43,0-98.56,43.26-98.56,96.63v60.78c0,53.36,44.13,96.63,98.56,96.63h719.36S2222.31,1677.22,2222.31,1570Z" transform="translate(-108.7 -84.56)"/><path class="cls-11" d="M1449.3,1540.08v60.78a95.18,95.18,0,0,0,2.87,23.17c24.26-58.19,70.77-114.24,159.28-132.27,206.67-42.08,655.77-48.31,655.77-48.31H1547.86C1493.43,1443.45,1449.3,1486.71,1449.3,1540.08Z" transform="translate(-108.7 -84.56)"/><path class="cls-9" d="M888.82,1202.93h-47.3a54.5,54.5,0,0,1,28-7.42h1185c62,0,112.25,39.08,112.25,87.29v55.44c0,48.21-50.25,87.29-112.25,87.29l-1171.7-.31Z" transform="translate(-108.7 -84.56)"/><path class="cls-10" d="M1561.55,1195.72c59.29,0,107.35,37.37,107.35,83.47v62.66c0,46.1-48.06,83.47-107.35,83.47H823.88v-14h3l187.53-13.81,37.91-115.63s-73.16-63.89-77.93-65.54-147.51-6.65-147.51-6.65l-3,0v-13.94Z" transform="translate(-108.7 -84.56)"/><path class="cls-5" d="M871.73,1310.11c0-67.61-44.93-100.38-44.93-100.38h719.64c54.46,0,98.6,34.33,98.6,76.68v48.22c0,42.35-44.14,76.68-98.6,76.68H826.8S871.73,1395.23,871.73,1310.11Z" transform="translate(-108.7 -84.56)"/><path class="cls-11" d="M1645,1286.41v48.22a60.59,60.59,0,0,1-2.87,18.39c-24.27-46.17-70.79-90.65-159.34-105-206.75-33.39-656-38.34-656-38.34h719.64C1600.9,1209.73,1645,1244.06,1645,1286.41Z" transform="translate(-108.7 -84.56)"/><path class="cls-13" d="M1949.61,1338.24V1282.8c0-48.21-50.26-87.29-112.26-87.29h112.53c62,0,112.25,39.08,112.25,87.29v55.44c0,48.21-50.26,87.29-112.25,87.29l-111,0C1900.15,1424.88,1949.61,1386.06,1949.61,1338.24Z" transform="translate(-108.7 -84.56)"/><path class="cls-6" d="M799.36,1724.29h-51A57.11,57.11,0,0,1,778.5,1716H2055.91c66.84,0,121,43.66,121,97.52v62c0,53.86-54.18,97.52-121,97.52l-1263.12-.34Z" transform="translate(-108.7 -84.56)"/><path class="cls-2" d="M1524.58,1716.23c63.91,0,115.72,41.76,115.72,93.26v70c0,51.51-51.81,93.26-115.72,93.26H729.36V1957.1h3.28l202.16-15.43,40.86-129.18s-78.86-71.39-84-73.23-159-7.43-159-7.43l-3.28,0v-15.57Z" transform="translate(-108.7 -84.56)"/><path class="cls-5" d="M780.93,1844c0-75.54-48.43-112.15-48.43-112.15h775.79c58.7,0,106.29,38.35,106.29,85.66v53.89c0,47.31-47.59,85.66-106.29,85.66H732.5S780.93,1939.14,780.93,1844Z" transform="translate(-108.7 -84.56)"/><path class="cls-12" d="M825,1900l10.85,24.21a4,4,0,0,1-2,5.25l-56.7,25.42a4.5,4.5,0,0,1-5.6-6.57l21.95-34.19S810.87,1917.25,825,1900Z" transform="translate(-108.7 -84.56)"/><path class="cls-12" d="M897.07,1900l10.86,24.21a4,4,0,0,1-2,5.25l-56.71,25.42a4.49,4.49,0,0,1-5.59-6.57l21.94-34.19S882.92,1917.25,897.07,1900Z" transform="translate(-108.7 -84.56)"/><path class="cls-12" d="M2113.43,1173.73,2102.58,1198a4,4,0,0,0,2,5.25l56.7,25.42a4.5,4.5,0,0,0,5.6-6.58l-22-34.19S2127.59,1191,2113.43,1173.73Z" transform="translate(-108.7 -84.56)"/><path class="cls-12" d="M2040,1170.85l-10.86,24.22a4,4,0,0,0,2,5.24l56.7,25.42a4.5,4.5,0,0,0,5.6-6.57L2071.45,1185S2054.1,1188.15,2040,1170.85Z" transform="translate(-108.7 -84.56)"/><path class="cls-11" d="M1614.58,1817.55v53.89a69.8,69.8,0,0,1-3.1,20.54c-26.16-51.59-76.31-101.28-171.77-117.26-222.88-37.3-707.21-42.83-707.21-42.83h775.79C1567,1731.89,1614.58,1770.24,1614.58,1817.55Z" transform="translate(-108.7 -84.56)"/><path class="cls-12" d="M1019.56,1232.27l6,37.82,12.74-50.42s-17.86-8.67-18.64-5.51S1019.56,1232.27,1019.56,1232.27Z" transform="translate(-108.7 -84.56)"/><polygon class="cls-14" points="1012.21 1229.12 1017.72 1294.49 960.03 1291.74 966.68 1233.84 1012.21 1229.12"/><path class="cls-15" d="M1072.22,1345.93l3.16-27.53,45.53-4.73,1.91,22.64C1113.77,1345.33,1097.49,1354.68,1072.22,1345.93Z" transform="translate(-108.7 -84.56)"/><path class="cls-15" d="M1036.84,1269.62c3.47,7.17,1.63,15.24-4.11,18s-13.2-.79-16.67-8-1.63-15.24,4.11-18S1033.37,1262.44,1036.84,1269.62Z" transform="translate(-108.7 -84.56)"/><path class="cls-14" d="M1028.47,1274.87c-.3-1.87-.71-3.72-1.16-5.56a61.65,61.65,0,1,1,121.45-18.38,13.33,13.33,0,0,1,11.92-1.69c7.51,2.8,10.76,12.67,7.26,22.06s-12.42,14.72-19.93,11.93a11.85,11.85,0,0,1-2.86-1.57c-1.16,30.31-24.37,55.13-54,56.52a55.3,55.3,0,0,1-38.44-13.22C1038.48,1314.5,1031.29,1292.3,1028.47,1274.87Z" transform="translate(-108.7 -84.56)"/><path class="cls-15" d="M1073.41,1255.11c-.12,3.53-.15,7-.33,10.35s-.58,6.83-1.9,9.16c-1.35,1.88-2.41,3.09-2.45,5.4a7.31,7.31,0,0,0,2.69,5.71,11.9,11.9,0,0,0,10.61,2.07c-3.44-.61-6.75-1.8-8.67-4a4.71,4.71,0,0,1-1.28-3.54c.15-1.29.55-1.56,2.11-3.72a13.73,13.73,0,0,0,1.67-5.64,29.06,29.06,0,0,0,0-5.44A37,37,0,0,0,1073.41,1255.11Z" transform="translate(-108.7 -84.56)"/><path class="cls-16" d="M1093.86,1259.77a5.38,5.38,0,1,0,5.12-5.62A5.39,5.39,0,0,0,1093.86,1259.77Z" transform="translate(-108.7 -84.56)"/><path class="cls-16" d="M1047.84,1265a5.38,5.38,0,1,0,5.12-5.63A5.39,5.39,0,0,0,1047.84,1265Z" transform="translate(-108.7 -84.56)"/><path class="cls-15" d="M1102.89,1296.21a38.82,38.82,0,0,1-4.45,3.37,38.23,38.23,0,0,1-4.79,2.78,33.42,33.42,0,0,1-10.45,3.21,28.58,28.58,0,0,1-10.84-.8,40.1,40.1,0,0,1-10.08-4.58,30,30,0,0,0,9.77,5.62,25.62,25.62,0,0,0,11.33,1.16,29.59,29.59,0,0,0,10.77-3.65A32.38,32.38,0,0,0,1102.89,1296.21Z" transform="translate(-108.7 -84.56)"/><path class="cls-12" d="M1087.1,1247.62a55.57,55.57,0,0,1,7.87-1.89,27.26,27.26,0,0,1,7.48-.16,25.27,25.27,0,0,1,7.19,1.9c1.79.56,6.13,3.12,7.27,3.61a18.15,18.15,0,0,0-14-9.72,18.14,18.14,0,0,0-8.84,1.18A16.55,16.55,0,0,0,1087.1,1247.62Z" transform="translate(-108.7 -84.56)"/><path class="cls-12" d="M1063.4,1250.29a16.44,16.44,0,0,0-7.83-3.63,18.1,18.1,0,0,0-8.9.56,18.06,18.06,0,0,0-11.83,12.26c1-.72,4.78-4.07,6.43-5a25.55,25.55,0,0,1,6.68-3.27,27.42,27.42,0,0,1,7.36-1.28A54.8,54.8,0,0,1,1063.4,1250.29Z" transform="translate(-108.7 -84.56)"/><path class="cls-10" d="M1089.14,1620.36s12,81.62-66.83,95.84-177,10-177,10l-13.66,187.48-41.16,2.1s-106-260.49,40.72-301.21l131.86.65,54.29-3.88s54.94-13.57,55.59-11S1087.85,1621.65,1089.14,1620.36Z" transform="translate(-108.7 -84.56)"/><path class="cls-9" d="M1161.61,1620.79s12,81.62-66.83,95.84-177,10-177,10l-13.66,187.48-41.16,2.1S757,1655.7,903.71,1615l131.86.65,54.29-3.88s54.94-13.57,55.59-11S1160.32,1622.08,1161.61,1620.79Z" transform="translate(-108.7 -84.56)"/><path class="cls-7" d="M1062.28,1353s-54.29,6.89-68.08,18.1-80.15,175.81-80.15,175.81l55.16,64.64,117.2.86s87.91,47.4,143.07,2.58,26.72-200.8-5.17-234.41-88.77-32.75-88.77-32.75S1083.83,1384,1062.28,1353Z" transform="translate(-108.7 -84.56)"/><path class="cls-17" d="M1167.43,1434.85a226.85,226.85,0,0,0-4,27.22c-.47,4.56-.67,9.15-.93,13.73s-.25,9.19-.18,13.79a181.32,181.32,0,0,0,2.26,27.51c1.54,9.06,3.78,18.15,8,26.34-2.84-8.73-4.24-17.71-5.26-26.72s-1.34-18.1-1.46-27.18,0-18.19.32-27.3S1166.94,1444,1167.43,1434.85Z" transform="translate(-108.7 -84.56)"/><path class="cls-17" d="M1005,1428.82c-2.48,13.35-5.1,26.65-7.77,39.93s-5.55,26.51-8.76,39.65-6.71,26.19-11,39a191,191,0,0,1-7.33,18.83,72.65,72.65,0,0,1-10.41,17.29c5-4.66,8.65-10.56,12-16.51a156.13,156.13,0,0,0,8.37-18.68c2.44-6.37,4.53-12.86,6.51-19.38s3.67-13.11,5.3-19.72,3-13.26,4.39-19.92,2.57-13.35,3.64-20.06C1002.12,1455.84,1003.85,1442.36,1005,1428.82Z" transform="translate(-108.7 -84.56)"/><path class="cls-14" d="M977.69,1574.27c.34-2.73,21.06-5.77,28.67-6.17,5.77-.29,44-1.57,57-2.16l-1,3.35.2,14.77,2.13,9.78c-11.41.73-39.3,1.82-45.11,3-7.76,1.53-21.22,7.38-21.22,7.38s-5.6-1.27,1.51-4.34a34.09,34.09,0,0,0,11.42-8.18c1-1.09-.08-3-.79-2.85-19.37,5.08-21.36,5.92-21.36,5.92s-22.76-.13-.13-5.25c13.57-3.06,18.43-4.85,19.64-6.37.51-.65-.41-2.85-1.23-2.9-11.76-.73-32.86,3.44-27.08.7,4.72-2.22,19.56-4.67,25.33-5.59.35,0,.93-2.2-.65-2.34C993.88,1572.06,977.37,1576.81,977.69,1574.27Z" transform="translate(-108.7 -84.56)"/><path class="cls-17" d="M1180.68,1541.18c-4.77,1.16-9.47,2.49-14.26,3.49s-9.57,2-14.34,3q-14.41,2.63-28.92,4.63c-9.67,1.27-19.36,2.44-29.08,3.38s-19.52,1.78-29.1,2.32l-1.29.07-.28,1.12a77.56,77.56,0,0,0-1.77,9.66,75.86,75.86,0,0,0-.57,9.76,61.78,61.78,0,0,0,.84,9.78,45.05,45.05,0,0,0,2.84,9.42l.11.26.21.14,10.64,7.15q5.32,3.57,10.7,7.06c-3.33-2.68-6.7-5.3-10.09-7.91l-10.14-7.83.32.4a42.71,42.71,0,0,1-2.23-9.06,62.52,62.52,0,0,1-.46-9.38,89.3,89.3,0,0,1,.85-9.38,76.15,76.15,0,0,1,1.89-9.18l-1.57,1.19c5.06-.14,9.86-.46,14.78-.82s9.79-.75,14.67-1.27c9.76-1,19.5-2.22,29.19-3.77s19.34-3.46,28.89-5.71c4.76-1.22,9.52-2.39,14.21-3.87C1171.44,1544.47,1176.07,1542.82,1180.68,1541.18Z" transform="translate(-108.7 -84.56)"/><path class="cls-12" d="M732.5,1464.58h212l60.11,146.73h102.13a5.18,5.18,0,0,1,5.17,5.17h0a5.17,5.17,0,0,1-5.17,5.17H803Z" transform="translate(-108.7 -84.56)"/><path class="cls-5" d="M837.63,1548.31c1.25,6.26,6.7,10.44,12.17,9.34s8.89-7.05,7.64-13.3-6.7-10.44-12.17-9.34S836.37,1542.06,837.63,1548.31Z" transform="translate(-108.7 -84.56)"/><path class="cls-12" d="M1018.4,1196.49s-18.1.58.9-14.72,70-33.26,102.68-16c0,0,6.54-13.9,16-10.58s-6.15,12.88-6.15,12.88,12.07-.39,15.75,5.53c2.72,4.37-4.66,4.56-8.7,4.37,6.86,1.17,33.2,17.8,20,70.9-4.7-1-31.47-39.85-31.47-39.85s-61.22,34-55.16,7c0,0-63.43,39.59-54.43,6.89C1017.79,1222.88,993.26,1224.68,1018.4,1196.49Z" transform="translate(-108.7 -84.56)"/><path class="cls-12" d="M1158.9,1249.2s-5.07-1.78-10.52,2.54-4.85,19.53-4.85,19.53-26,16.78-23.28-54.23c2.92-75.54,21.71,6.06,21.71,6.06Z" transform="translate(-108.7 -84.56)"/><rect class="cls-5" x="1975.83" y="1894.4" width="538.18" height="29.84" transform="translate(4381.14 3734.1) rotate(180)"/><path class="cls-5" d="M2499,1663.48l8.16,37.54a26.56,26.56,0,0,1-20.47,31.63l-480.63,101.43a26.56,26.56,0,0,1-31.67-21.51l-4.23-24.65a26.58,26.58,0,0,1,13.5-27.82l143.94-78.29a26.48,26.48,0,0,1,9.84-3.07l329.72-35.63,2.37-.31A26.57,26.57,0,0,1,2499,1663.48Z" transform="translate(-108.7 -84.56)"/><path class="cls-8" d="M2012.89,1775s-68.64,50-18.66,132.43l-3,21.26-88,6-80.58-16.41L1807.71,1784,2001,1726.53Z" transform="translate(-108.7 -84.56)"/><rect class="cls-7" x="1798.76" y="1907.46" width="772.95" height="65.53" rx="12.81" transform="translate(4261.77 3795.9) rotate(180)"/><path class="cls-7" d="M2554.45,1654.86l-549.32,129.53a26.37,26.37,0,0,1-13.32-.34c-21.62-6.21-94.9-21.69-156.56,30.94-14.56,12.43-37,5.82-42.28-12.58l-9.83-34.56a26.12,26.12,0,0,1,11.28-29.31c79.75-49.91,428.91-258.93,658.77-243a66,66,0,0,1,52.26,32.29l59.89,101.49A17.25,17.25,0,0,1,2554.45,1654.86Z" transform="translate(-108.7 -84.56)"/><circle class="cls-7" cx="1798.49" cy="1770.41" r="32.83"/><path class="cls-7" d="M1973.67,386.62s61.8-10.43,82.54,58.62l-25.6,38.31s-53.68-20.62-53.89-22.64S1973.67,386.62,1973.67,386.62Z" transform="translate(-108.7 -84.56)"/><path class="cls-7" d="M1874.2,417.72s-18,27.11-27.22,37.86c-23.13,27-26.11,18.56-40.49,41.81-15.52,25.11.18,40.83,9.11,48.06s-6,34,10.62,49c21.76,19.64,41.9,1.12,56.87,12.12s18.25,27.31,53.74,24.23S1972,511.67,1972,511.67s-29.06-61.52-30.21-62S1874.2,417.72,1874.2,417.72Z" transform="translate(-108.7 -84.56)"/><path class="cls-7" d="M2056.21,445.24s2.12,21.3,9.16,33.56c17.71,30.86,27.26,20.75,37.07,46.27,10.6,27.55-7.75,40.08-17.86,45.54s-.4,34.52-19.52,46.18c-25,15.26-41.38-6.67-58.13,1.36s-23,23.45-57.3,13.84-12.45-123.57-12.45-123.57,40-55.07,41.19-55.36S2056.21,445.24,2056.21,445.24Z" transform="translate(-108.7 -84.56)"/><path class="cls-14" d="M1966.54,582.66s-59.24-10.89-86.48-10,16.51,71.74,16.51,71.74l44.49,1s27.27-30.46,25.48-34,.08-26.79.08-26.79Z" transform="translate(-108.7 -84.56)"/><path class="cls-14" d="M1913.72,526.14l-15.62,47.43s13.6,28.12,55.26,16c0,0-4.76-9.82,1.62-30C1961.49,538.84,1913.72,526.14,1913.72,526.14Z" transform="translate(-108.7 -84.56)"/><path class="cls-18" d="M1913.72,526.14l-7.33,22.16c4.36,16.19,18.54,27.21,45.28,30.64a64.12,64.12,0,0,1,3.31-19.43C1961.49,538.84,1913.72,526.14,1913.72,526.14Z" transform="translate(-108.7 -84.56)"/><path class="cls-15" d="M2009,491.42c-3.38,7.7-1.12,16.14,5,18.84s13.89-1.34,17.27-9,1.13-16.14-5-18.84S2012.41,483.72,2009,491.42Z" transform="translate(-108.7 -84.56)"/><path class="cls-14" d="M2010.75,526.39a120.22,120.22,0,0,0,7.31-29.75c.24-2,.61-3.95,1-5.91a65.06,65.06,0,1,0-128.79-14.68c-4-2.37-8.57-3-12.64-1.32-7.81,3.24-10.85,13.78-6.8,23.54s13.67,15.05,21.48,11.81a12.59,12.59,0,0,0,3-1.76c2.4,31.92,27.83,57.2,59.14,57.51C1977.91,566.07,2001,551.82,2010.75,526.39Z" transform="translate(-108.7 -84.56)"/><path class="cls-15" d="M1969.9,477.53a39.61,39.61,0,0,0-2.09,11,31.47,31.47,0,0,0,.2,5.72,14.67,14.67,0,0,0,2,5.84c1.43,1.82,2.17,2.43,2.38,3.89a5,5,0,0,1-1.24,3.85c-2,2.46-5.44,3.81-9,4.54a12.59,12.59,0,0,0,11-2.64,7.58,7.58,0,0,0,2.58-6.06c-.17-2.52-1.31-3.64-2.77-5.55a13.68,13.68,0,0,1-1.62-4.45,47.5,47.5,0,0,1-.74-5.2C1970.26,484.88,1970.12,481.25,1969.9,477.53Z" transform="translate(-108.7 -84.56)"/><path class="cls-16" d="M1948.51,483.25a5.68,5.68,0,1,1-5.62-5.74A5.68,5.68,0,0,1,1948.51,483.25Z" transform="translate(-108.7 -84.56)"/><path class="cls-16" d="M1997.25,486.94a5.68,5.68,0,1,1-5.63-5.74A5.69,5.69,0,0,1,1997.25,486.94Z" transform="translate(-108.7 -84.56)"/><path class="cls-19" d="M1947.51,526.43a19.1,19.1,0,0,1,15.77,2.1s8.26-5.17,14.77-.23c0,0-3,12.3-16.59,11.47S1947.51,526.43,1947.51,526.43Z" transform="translate(-108.7 -84.56)"/><path class="cls-15" d="M1940.4,522a40.66,40.66,0,0,0,4.82,3.39,38.66,38.66,0,0,0,5.16,2.74,35.2,35.2,0,0,0,11.14,3,30,30,0,0,0,11.4-1.26,42.12,42.12,0,0,0,10.46-5.22,36.43,36.43,0,0,1-4.72,3.62,32.71,32.71,0,0,1-5.36,2.68,28,28,0,0,1-5.85,1.51,29.93,29.93,0,0,1-6.06.16,31.17,31.17,0,0,1-11.5-3.44A34.05,34.05,0,0,1,1940.4,522Z" transform="translate(-108.7 -84.56)"/><path class="cls-7" d="M1955.16,470.17a58,58,0,0,0-8.37-1.69,28.88,28.88,0,0,0-7.89.12,26.81,26.81,0,0,0-7.5,2.29c-1.87.65-6.36,3.52-7.53,4.09a19.06,19.06,0,0,1,14.37-10.8,19.16,19.16,0,0,1,9.37.9A17.39,17.39,0,0,1,1955.16,470.17Z" transform="translate(-108.7 -84.56)"/><path class="cls-7" d="M1980.27,472.07a17.45,17.45,0,0,1,8.12-4.14,19.13,19.13,0,0,1,9.41.25,19.11,19.11,0,0,1,13,12.47c-1.11-.71-5.21-4.1-7-5a26.89,26.89,0,0,0-7.17-3.18,28.79,28.79,0,0,0-7.82-1.08A58.16,58.16,0,0,0,1980.27,472.07Z" transform="translate(-108.7 -84.56)"/><path class="cls-2" d="M1863.5,872.41s-17.46,82.21,61.8,101.73,179.29,21.5,179.29,21.5l1.85,191.49,41.72,4.77s124.5-258-22.07-308.85L1992,875.24l-55-7.43s-55-17.32-55.81-14.74S1864.74,873.81,1863.5,872.41Z" transform="translate(-108.7 -84.56)"/><path class="cls-6" d="M1789.8,868.2s-17.47,82.2,61.79,101.72,179.29,21.51,179.29,21.51l1.85,191.48,41.72,4.78s124.5-258-22.07-308.86l-134.1-7.8-55-7.43s-55-17.33-55.81-14.74S1791,869.59,1789.8,868.2Z" transform="translate(-108.7 -84.56)"/><path class="cls-5" d="M2054.85,996.92c-2.28-.42-4.57-.81-6.82-1.34s-4.49-1.13-6.69-1.79c-1.1-.35-2.22-.72-3.31-1.12a25.8,25.8,0,0,0,3.36-1,28.31,28.31,0,0,0,6.12-3.14,34,34,0,0,0,5.12-4.51,33.59,33.59,0,0,0,4-5.43l-2.27,2.47c-.82.76-1.57,1.57-2.42,2.28a34.41,34.41,0,0,1-5.27,3.91,32.11,32.11,0,0,1-5.88,2.76,22.76,22.76,0,0,1-6.23,1.25l-3.71.14,3.29,1.53a44.1,44.1,0,0,0,6.73,2.35,66.25,66.25,0,0,0,6.9,1.48c2.31.38,4.63.7,7,.88s4.67.28,7,.27C2059.45,997.62,2057.14,997.33,2054.85,996.92Z" transform="translate(-108.7 -84.56)"/><path class="cls-14" d="M2033.85,698.07s5.4,134.32,20.5,155.35l-83.07-18.88V688.36Z" transform="translate(-108.7 -84.56)"/><path class="cls-9" d="M1998.46,716.41s-11.56,33.81-13.66,51.76c-5.22,44.6.45,76.05,9.68,101.44,12.94,35.6-92.78,22.65-94.94,21.57S1806.76,855,1806.76,855l-17.26-50.17V716.41l4.85-40.46Z" transform="translate(-108.7 -84.56)"/><path class="cls-14" d="M1745.26,676l66.53,22.66s-11.5,106.44-7.91,121.55c3.08,12.91,51.32,38.58,81.9,53a31.12,31.12,0,0,0,15.76,2.86c17.42-1.44,48.29-4.13,53.13-4.47,7.61-.52,28.54,0,29.21,2.68.62,2.48-16.35-.25-27.35,2-1.55.31-.72,2.38-.36,2.39,5.84.22,20.86.87,25.81,2.51,6.06,2-15.38.42-27,2.55-.81.15-1.46,2.45-.87,3,1.38,1.37,6.42,2.56,20.26,4,23.08,2.36.5,5.22.5,5.22s-2.08-.59-21.92-3.31c-.72-.1-1.54,2-.44,2.93a34.07,34.07,0,0,0,12.32,6.75c7.42,2.19,2,4.13,2,4.13s-14.06-4.2-22-4.79c-5.91-.44-33.73,1.83-45.15,2.48l-.87-2c-15.47-.45-138.9-3.65-150.78-80.15C1735.91,743.2,1745.26,676,1745.26,676Z" transform="translate(-108.7 -84.56)"/><path class="cls-12" d="M2228.84,752.18h-212l-60.11,146.73H1854.6a5.18,5.18,0,0,0-5.18,5.17h0a5.17,5.17,0,0,0,5.18,5.17h303.79Z" transform="translate(-108.7 -84.56)"/><path class="cls-5" d="M2123.72,835.91c-1.25,6.26-6.71,10.44-12.18,9.34s-8.89-7-7.64-13.3,6.7-10.44,12.17-9.34S2125,829.66,2123.72,835.91Z" transform="translate(-108.7 -84.56)"/><path class="cls-9" d="M1966.54,582.66s-40.27,47-86.48-10c0,0-50.48-4.12-87.7,22.32s-59.5,85.8-59.5,85.8,67.43,34,84.15,35.6h187.18s28.59-2.16,56.1-16.18C2060.29,700.23,2055.54,605.86,1966.54,582.66Z" transform="translate(-108.7 -84.56)"/><path class="cls-12" d="M1841.62,662.85c-1.74,5.83-3.3,11.7-4.85,17.59-2.91,11.54-5.57,22.54-7.53,34.36a62.86,62.86,0,0,1-11.37-.88c-19.44-3.46-32.21-8.91-49.52-16-25.93-11.82-22.43-10.67-35.49-17.12a341.45,341.45,0,0,0,34.41,19.46c15.17,7,29.66,13.53,50.06,17.12,8.91,1.22,11.48,1,14.87.57,1.31-8.66,2.82-17.53,7-37l3.85-17.79,4-17.79C1845.05,651.19,1843.35,657,1841.62,662.85Z" transform="translate(-108.7 -84.56)"/><path class="cls-12" d="M1989.29,631.77q4,10.35,7.18,20.82a182.86,182.86,0,0,1,5.2,21.19,99.6,99.6,0,0,1,1.71,21.56c-.27,7.21-10.94,41.11-14.09,47.82,4.44-5.95,16.06-40.14,16.85-47.6a77.84,77.84,0,0,0-1-22.4,117.55,117.55,0,0,0-6.08-21.47A113.61,113.61,0,0,0,1989.29,631.77Z" transform="translate(-108.7 -84.56)"/><path class="cls-7" d="M1890.27,476.05s69.16-16.68,102.19-63.67c0,0,.58-42.8-62.91-33.09C1867.86,388.72,1853.42,448.75,1890.27,476.05Z" transform="translate(-108.7 -84.56)"/><rect class="cls-20" x="301.4" y="1886.66" width="2177.45" height="28.36" rx="11.53"/><polygon class="cls-2" points="288.2 952.62 704.11 714.73 760.33 826.09 334.75 1051.24 288.2 952.62"/><path class="cls-9" d="M1180.68,359.56s-3.28,32.34-28.81,34.58c25.53,2.24,28.81,34.59,28.81,34.59s3.28-32.35,28.81-34.59C1184,391.9,1180.68,359.56,1180.68,359.56Z" transform="translate(-108.7 -84.56)"/><path class="cls-6" d="M739.64,111.06s-4.37,43.09-38.37,46.07c34,3,38.37,46.06,38.37,46.06S744,160.11,778,157.13C744,154.15,739.64,111.06,739.64,111.06Z" transform="translate(-108.7 -84.56)"/><path class="cls-7" d="M561.51,496.43s-2.94,28.93-25.77,30.93c22.83,2,25.77,30.94,25.77,30.94s2.93-28.94,25.76-30.94C564.44,525.36,561.51,496.43,561.51,496.43Z" transform="translate(-108.7 -84.56)"/><path class="cls-7" d="M2507.77,1089.73s-4.36,43.08-38.37,46.06c34,3,38.37,46.07,38.37,46.07s4.37-43.09,38.37-46.07C2512.14,1132.81,2507.77,1089.73,2507.77,1089.73Z" transform="translate(-108.7 -84.56)"/><path class="cls-9" d="M147.07,807.36s-4.37,43.08-38.37,46.06c34,3,38.37,46.07,38.37,46.07s4.37-43.09,38.37-46.07C151.44,850.44,147.07,807.36,147.07,807.36Z" transform="translate(-108.7 -84.56)"/><path class="cls-9" d="M2637,753.22s-4.37,43.09-38.37,46.07c34,3,38.37,46.07,38.37,46.07s4.37-43.09,38.37-46.07C2641.34,796.31,2637,753.22,2637,753.22Z" transform="translate(-108.7 -84.56)"/><path class="cls-7" d="M1614.58,84.56s-4.37,43.08-38.37,46.06c34,3,38.37,46.07,38.37,46.07S1619,133.6,1653,130.62C1619,127.64,1614.58,84.56,1614.58,84.56Z" transform="translate(-108.7 -84.56)"/><path class="cls-6" d="M2343,415.3s-2.38,27.2-20.86,29.09c18.48,1.88,20.86,29.08,20.86,29.08s2.37-27.2,20.85-29.08C2345.37,442.5,2343,415.3,2343,415.3Z" transform="translate(-108.7 -84.56)"/></g></g></svg>