<svg id="Layer_1" data-name="Layer 1" xmlns="http://www.w3.org/2000/svg" viewBox="0 0 554.76 583"><defs><style>.cls-1{fill:#0fb5c5;}.cls-2{fill:#113956;}.cls-3{fill:#fff;}.cls-4{fill:#f26322;}.cls-5{fill:#dd4326;}.cls-6{fill:#cbe4f6;}.cls-7{fill:#1a5a8b;}.cls-8{fill:#1b5a89;}.cls-9{fill:#1c5a89;}.cls-10{fill:#154770;}.cls-11{fill:#103856;}.cls-12{fill:#113855;}.cls-13{fill:#fefefd;}.cls-14{fill:#1d5a8a;}.cls-15{fill:#fdfdfe;}.cls-16{fill:#cbe3f5;}.cls-17{fill:#1d5a89;}.cls-18{fill:#1c5989;}.cls-19{fill:#f06425;}.cls-20{fill:#cae2f5;}.cls-21{fill:#f7fafd;}.cls-22{fill:#f1f3f5;}.cls-23{fill:#fbfbfc;}.cls-24{fill:#fafbfb;}.cls-25{fill:#feffff;}.cls-26{fill:#0c111c;}.cls-27{fill:#0e111e;}.cls-28{fill:#0e1120;}.cls-29{fill:#0c101a;}.cls-30{fill:#1d5a88;}.cls-31{fill:#1ab5c5;}.cls-32{fill:#205a89;}.cls-33{fill:#10b5c5;}.cls-34{fill:#143956;}.cls-35{fill:#18b5c5;}.cls-36{fill:#ef6424;}.cls-37{fill:#1f5a88;}.cls-38{fill:#f06323;}.cls-39{fill:#de4326;}.cls-40{fill:#2b445d;}.cls-41{fill:#2c4358;}.cls-42{fill:#384456;}.cls-43{fill:#2f3d4d;}.cls-44{fill:#3e4d5e;}.cls-45{fill:#344152;}.cls-46{fill:#303944;}.cls-47{fill:#243245;}.cls-48{fill:#243448;}.cls-49{fill:#253245;}.cls-50{fill:#2d3846;}.cls-51{fill:#2e3644;}.cls-52{fill:#303a47;}.cls-53{fill:#243341;}.cls-54{fill:#223144;}.cls-55{fill:#2b3441;}.cls-56{fill:#1e3043;}.cls-57{fill:#232b3a;}.cls-58{fill:#2a435a;}.cls-59{fill:#273f56;}.cls-60{fill:#20344a;}.cls-61{fill:#26374a;}.cls-62{fill:#26364a;}.cls-63{fill:#253649;}.cls-64{fill:#203449;}.cls-65{fill:#2f4359;}.cls-66{fill:#203245;}.cls-67{fill:#213449;}.cls-68{fill:#213346;}.cls-69{fill:#1f3147;}.cls-70{fill:#173248;}.cls-71{fill:#1d2c42;}.cls-72{fill:#193148;}.cls-73{fill:#fae0d4;}</style></defs><path class="cls-1" d="M527.36,251.74h-21.7A19.66,19.66,0,0,1,486,232.08h0a19.66,19.66,0,0,1,19.65-19.66h13.66a8.49,8.49,0,0,0,8.49-7.08,8.32,8.32,0,0,0-8.23-9.55H487a1,1,0,0,1-1-1,20,20,0,0,0-20-19.95H348.35a5.38,5.38,0,0,1-5.33-4.15,5.25,5.25,0,0,1,5.13-6.32h82a10.59,10.59,0,0,0,10.55-8.7,10.41,10.41,0,0,0-10.26-12.1H194.65a10.57,10.57,0,0,0-10.55,8.69,10.4,10.4,0,0,0,10.26,12.11h40.28a11.58,11.58,0,0,1,11.55,9.51A11.39,11.39,0,0,1,235,187.13H115.22A44.41,44.41,0,0,0,70.8,231.54h0A44.42,44.42,0,0,0,107,275.18a6.54,6.54,0,0,1,5.28,6.46v3.63a6.6,6.6,0,0,1-6.6,6.6h0A32.67,32.67,0,0,0,73,324.54h0a32.68,32.68,0,0,0,32.67,32.68h.12a9.82,9.82,0,0,1,9.82,9.82v0a10.2,10.2,0,0,1-9.28,10.11,11,11,0,0,0-2.41.45,25.31,25.31,0,0,0,8.42,49.2H488.13c13.3,0,24.76-10,25.82-23.3l0-.35a12.19,12.19,0,0,1,12.11-11.47h4.66a21,21,0,0,0,21-21h0c0-8.75-7.06-16-15.51-19a12.89,12.89,0,0,1-8.71-12.06V339a14,14,0,0,1,10.24-13.39A37.68,37.68,0,0,0,565,289.39h0A37.66,37.66,0,0,0,527.36,251.74Z" transform="translate(-28.62 -104.5)"/><path class="cls-1" d="M197,132.23a1.86,1.86,0,0,1-1.31-3.16l7.36-7.36-8.05-8a1.85,1.85,0,1,1,2.61-2.61l9.36,9.36a1.85,1.85,0,0,1,0,2.61l-8.67,8.66A1.84,1.84,0,0,1,197,132.23Z" transform="translate(-28.62 -104.5)"/><path class="cls-1" d="M210.06,132.23a1.87,1.87,0,0,1-1.31-.55,1.85,1.85,0,0,1,0-2.61l7.36-7.36-8.05-8a1.85,1.85,0,0,1,2.61-2.61l9.36,9.36a1.85,1.85,0,0,1,0,2.61l-8.66,8.66A1.88,1.88,0,0,1,210.06,132.23Z" transform="translate(-28.62 -104.5)"/><path class="cls-1" d="M223.11,132.23a1.86,1.86,0,0,1-1.3-3.16l7.35-7.36-8-8a1.85,1.85,0,0,1,2.62-2.61l9.35,9.36a1.83,1.83,0,0,1,0,2.61l-8.66,8.66A1.85,1.85,0,0,1,223.11,132.23Z" transform="translate(-28.62 -104.5)"/><path class="cls-1" d="M236.17,132.23a1.86,1.86,0,0,1-1.31-3.16l7.36-7.36-8.05-8a1.85,1.85,0,1,1,2.61-2.61l9.36,9.36a1.85,1.85,0,0,1,0,2.61l-8.67,8.66A1.84,1.84,0,0,1,236.17,132.23Z" transform="translate(-28.62 -104.5)"/><path class="cls-1" d="M249.22,132.23a1.87,1.87,0,0,1-1.31-.55,1.85,1.85,0,0,1,0-2.61l7.36-7.36-8.05-8a1.85,1.85,0,1,1,2.61-2.61l9.36,9.36a1.85,1.85,0,0,1,0,2.61l-8.66,8.66A1.87,1.87,0,0,1,249.22,132.23Z" transform="translate(-28.62 -104.5)"/><path class="cls-1" d="M369.29,137a1.1,1.1,0,0,1-.8-.34,1.13,1.13,0,0,1,0-1.61l4.53-4.53-5-5a1.14,1.14,0,0,1,1.61-1.61l5.77,5.77a1.13,1.13,0,0,1,0,1.61l-5.34,5.34A1.12,1.12,0,0,1,369.29,137Z" transform="translate(-28.62 -104.5)"/><path class="cls-1" d="M377.34,137a1.1,1.1,0,0,1-.8-.34,1.13,1.13,0,0,1,0-1.61l4.53-4.53-5-5a1.14,1.14,0,0,1,1.61-1.61l5.77,5.77a1.15,1.15,0,0,1,0,1.61l-5.34,5.34A1.14,1.14,0,0,1,377.34,137Z" transform="translate(-28.62 -104.5)"/><path class="cls-1" d="M385.39,137a1.15,1.15,0,0,1-.81-2l4.54-4.53-5-5a1.14,1.14,0,0,1,1.61-1.61l5.77,5.77a1.15,1.15,0,0,1,0,1.61l-5.34,5.34A1.14,1.14,0,0,1,385.39,137Z" transform="translate(-28.62 -104.5)"/><path class="cls-1" d="M393.44,137a1.15,1.15,0,0,1-.81-2l4.54-4.53-5-5a1.14,1.14,0,0,1,1.61-1.61l5.77,5.77a1.15,1.15,0,0,1,0,1.61l-5.35,5.34A1.1,1.1,0,0,1,393.44,137Z" transform="translate(-28.62 -104.5)"/><path class="cls-1" d="M401.49,137a1.12,1.12,0,0,1-.81-.34,1.15,1.15,0,0,1,0-1.61l4.54-4.53-5-5a1.14,1.14,0,0,1,1.62-1.61l5.77,5.77a1.15,1.15,0,0,1,0,1.61l-5.35,5.34A1.1,1.1,0,0,1,401.49,137Z" transform="translate(-28.62 -104.5)"/><path class="cls-1" d="M37,288.9a1.18,1.18,0,0,1-.81-.34,1.15,1.15,0,0,1,0-1.61l4.54-4.54-5-5a1.14,1.14,0,1,1,1.61-1.61l5.77,5.77a1.15,1.15,0,0,1,0,1.61l-5.34,5.34A1.18,1.18,0,0,1,37,288.9Z" transform="translate(-28.62 -104.5)"/><path class="cls-1" d="M45.07,288.9a1.18,1.18,0,0,1-.81-.34,1.15,1.15,0,0,1,0-1.61l4.54-4.54-5-5a1.14,1.14,0,1,1,1.61-1.61l5.77,5.77a1.15,1.15,0,0,1,0,1.61l-5.35,5.34A1.14,1.14,0,0,1,45.07,288.9Z" transform="translate(-28.62 -104.5)"/><path class="cls-1" d="M53.12,288.9a1.16,1.16,0,0,1-.81-.34,1.15,1.15,0,0,1,0-1.61l4.54-4.54-5-5a1.14,1.14,0,1,1,1.62-1.61l5.77,5.77a1.15,1.15,0,0,1,0,1.61l-5.35,5.34A1.14,1.14,0,0,1,53.12,288.9Z" transform="translate(-28.62 -104.5)"/><path class="cls-1" d="M61.17,288.9a1.16,1.16,0,0,1-.81-.34,1.15,1.15,0,0,1,0-1.61l4.54-4.54-5-5a1.14,1.14,0,1,1,1.62-1.61l5.76,5.77a1.13,1.13,0,0,1,0,1.61L62,288.56A1.14,1.14,0,0,1,61.17,288.9Z" transform="translate(-28.62 -104.5)"/><path class="cls-1" d="M69.22,288.9a1.14,1.14,0,0,1-.81-.34,1.13,1.13,0,0,1,0-1.61L73,282.41l-5-5a1.15,1.15,0,0,1,0-1.61,1.13,1.13,0,0,1,1.61,0l5.77,5.77a1.13,1.13,0,0,1,0,1.61L70,288.56A1.14,1.14,0,0,1,69.22,288.9Z" transform="translate(-28.62 -104.5)"/><path class="cls-1" d="M507.38,237a1.18,1.18,0,0,1-.85-.35,1.2,1.2,0,0,1,0-1.7l4.79-4.8-5.24-5.24a1.2,1.2,0,0,1,0-1.7,1.18,1.18,0,0,1,1.7,0l6.1,6.09a1.21,1.21,0,0,1,0,1.71l-5.65,5.64A1.16,1.16,0,0,1,507.38,237Z" transform="translate(-28.62 -104.5)"/><path class="cls-1" d="M515.89,237a1.16,1.16,0,0,1-.85-.35,1.2,1.2,0,0,1,0-1.7l4.79-4.8-5.25-5.24a1.21,1.21,0,1,1,1.71-1.7l6.09,6.09a1.21,1.21,0,0,1,0,1.71l-5.64,5.64A1.18,1.18,0,0,1,515.89,237Z" transform="translate(-28.62 -104.5)"/><path class="cls-1" d="M524.39,237a1.18,1.18,0,0,1-.85-.35,1.2,1.2,0,0,1,0-1.7l4.8-4.8-5.25-5.24a1.2,1.2,0,0,1,0-1.7,1.18,1.18,0,0,1,1.7,0l6.1,6.09a1.21,1.21,0,0,1,0,1.71l-5.65,5.64A1.16,1.16,0,0,1,524.39,237Z" transform="translate(-28.62 -104.5)"/><path class="cls-1" d="M532.9,237a1.16,1.16,0,0,1-.85-.35,1.2,1.2,0,0,1,0-1.7l4.79-4.8-5.24-5.24a1.2,1.2,0,0,1,0-1.7,1.18,1.18,0,0,1,1.7,0l6.1,6.09a1.21,1.21,0,0,1,0,1.71l-5.65,5.64A1.16,1.16,0,0,1,532.9,237Z" transform="translate(-28.62 -104.5)"/><path class="cls-1" d="M541.4,237a1.2,1.2,0,0,1-.85-2.05l4.8-4.8-5.25-5.24a1.2,1.2,0,0,1,0-1.7,1.18,1.18,0,0,1,1.7,0l6.1,6.09a1.21,1.21,0,0,1,0,1.71l-5.64,5.64A1.2,1.2,0,0,1,541.4,237Z" transform="translate(-28.62 -104.5)"/><circle class="cls-1" cx="160.96" cy="153.71" r="10.86" transform="translate(-54.13 170.72) rotate(-76.77)"/><circle class="cls-1" cx="39.48" cy="360.98" r="10.86" transform="translate(-351.1 227.28) rotate(-79.15)"/><path class="cls-1" d="M353.65,130.26A2.66,2.66,0,1,1,351,127.6,2.66,2.66,0,0,1,353.65,130.26Z" transform="translate(-28.62 -104.5)"/><path class="cls-1" d="M312.76,107.5a3,3,0,1,1-3-3A3,3,0,0,1,312.76,107.5Z" transform="translate(-28.62 -104.5)"/><path class="cls-1" d="M62.26,249.24a2.66,2.66,0,1,1-2.66-2.66A2.66,2.66,0,0,1,62.26,249.24Z" transform="translate(-28.62 -104.5)"/><path class="cls-1" d="M52.77,332.2a3,3,0,1,1-3-3A3,3,0,0,1,52.77,332.2Z" transform="translate(-28.62 -104.5)"/><path class="cls-1" d="M76.91,411.56a3,3,0,1,1-3-3A3,3,0,0,1,76.91,411.56Z" transform="translate(-28.62 -104.5)"/><path class="cls-1" d="M547,334.45a3,3,0,1,1-3-3A3,3,0,0,1,547,334.45Z" transform="translate(-28.62 -104.5)"/><circle class="cls-1" cx="521.42" cy="96.81" r="9.47"/><circle class="cls-1" cx="573.91" cy="373.83" r="9.47" transform="translate(84.35 775.95) rotate(-80.78)"/><path class="cls-2" d="M179.84,604.91q-54,0-107.95,0a41.24,41.24,0,0,1-4.41-.47c-.49-26.3,0-52.6-.26-78.9,0-3.05,1.45-4.16,4.09-4.51a50.07,50.07,0,0,1,6.48-.23q40.47,0,80.92,0c2.65,0,5.33.24,7.93-.43,2-1.28,1.25-3.3,1.28-5,.09-8.17,0-16.33.05-24.49s.19-8.38,8-10.53c13.41-1,26.83-.25,40.24-.45,6.46-.09,12.92-.05,19.38,0,2.31,0,4.66-.06,6.75,1.21a4.05,4.05,0,0,1,1.36,4c-2.42,15.78,3.69,27.21,17.65,34.64,2,3.52,1.69,4.48-2.59,5.6A166.23,166.23,0,0,0,239,531.87c-2.31.93-4.46,2.19-6.75,3.14-1.72.72-3.59,2.16-5.34-.06-1.29-7.85-.28-15.76-.6-23.63-.09-2.12.33-4.3-.84-6.26-2.81-2.7-5.63-2.64-8.45-.05-1.18,2-.77,4.19-.78,6.3,0,8.23,0,16.45,0,24.68,0,1.8-.17,3.64,1,5.23a16.08,16.08,0,0,1,1.86,2.56c-.1,2.08-1.77,3.1-3,4.34-14.46,14.19-22.52,31.34-23.64,51.59-.24,4.23-1.71,6.07-6,5.47C184.16,604.88,182,605.39,179.84,604.91Z" transform="translate(-28.62 -104.5)"/><path class="cls-3" d="M208.7,399.77c4.53-11.36,1.81-21.84-4-31.87-3.86-6.68-9.19-12.2-14.65-17.58-6.61-6.5-13.27-12.95-19.89-19.41-5.35,10-9.86,12.92-18.36,11.89-7.06-.86-13.32-8.43-12.82-15.5.59-8.29,8.14-11.74,18-7.49-2-4.32-4.73-7.24-7.49-10.13-8.73-9.14-18.4-17.36-26.38-27.23S109.67,262,108.24,249.28c-2-17.64,11.7-34,29.36-34.48,4-.11,8-.09,12-.13l.72.59c1.94,6,1.5,12.11.28,18.19-1.35,2.3-3.55,2.7-6,2.76s-5-.35-7.37.58c-6,2.82-7.89,6.28-6.8,12.61,1.05,6.17,4.05,11.48,7.64,16.5,2.21,3.09,4.88,5.82,7.26,8.78.61.75,1.39,2.75,2.86.64.2-11.42,0-22.79.08-34.17,0-2.65-.1-5.36,2.49-7.11,2.15-1.17,4.51-1.09,6.83-1.09q28,0,55.92,0c2.33,0,4.68-.06,6.87,1a4.48,4.48,0,0,1,2.53,3.43c.58,6,1.56,12-.82,17.9-1.42,1.86-3.62,2.21-5.67,2.86-8.7,2.79-14.07,9.77-14.17,18.45-.1,7.55,5.58,15,13.68,17.87,1.87.67,3.91.91,5.52,2.23,3.13,5.71,2.4,9.25-2.43,11.77-8.73,5.72-8.56,12.4.49,17.75a7.22,7.22,0,0,1,2.93,2.63c1.12,2.34,1.07,4.85,1.08,7.33q0,38,0,76.09c0,3.42.42,7.13-3.34,9.27a85.84,85.84,0,0,1-28.65,0c-1.22-.83-1.45-2.11-.32-2.88C198.45,413.62,203.29,406.43,208.7,399.77Z" transform="translate(-28.62 -104.5)"/><path class="cls-4" d="M309.46,447.7c15.51-18,34.71-30.66,56.81-39a129.63,129.63,0,0,1,39.29-8.49,20.06,20.06,0,0,0,3.37-.72c3-.56,3.67,1.62,4.16,3.78a27.69,27.69,0,0,1,.31,6V529.06c0,1.33,0,2.66-.07,4-.37,5.37-1.95,7.18-7.45,7.25q-28.22.35-56.43,0c-5.44-.06-7.12-1.88-7.41-7.29-1.6-29.54-12.33-55.61-30-79.07C310.69,452.08,309.1,450.3,309.46,447.7Z" transform="translate(-28.62 -104.5)"/><path class="cls-5" d="M423.53,399.57a6.8,6.8,0,0,0,3.74,1.13c38.57,2.09,70.12,18.6,96,46.74.2,3.32-1.95,5.56-3.71,7.94-16.14,21.73-26.09,45.87-28.49,73-1,11.29-1.79,12-13,12-16.48,0-33,0-49.45,0-2.73,0-5.76.59-7.81-2.16-1.2-2.51-1-5.2-1-7.85q0-60.57,0-121.13c0-2.48-.16-5,.68-7.41A3,3,0,0,1,423.53,399.57Z" transform="translate(-28.62 -104.5)"/><path class="cls-5" d="M523.34,639.42c-25.58,28.21-57.39,43.85-95.26,47.28-1,.09-2,.21-3,.31-3.54.73-4.86-1.16-5.14-4.32-.17-2-.16-4-.16-6q0-59.21,0-118.42c0-3-.31-6,.9-8.88,1.29-2.23,3.55-2.29,5.7-2.3q28.47-.2,57,0c5.24,0,6.49,1,7,6.4,1.29,13.14,3.59,26,8.06,38.49a145.9,145.9,0,0,0,19.23,37.11C520,632.26,523.19,635,523.34,639.42Z" transform="translate(-28.62 -104.5)"/><path class="cls-4" d="M411.4,686.71c-23.1.16-44.35-6.54-64.44-17.42-4.64-2.51-9.29-5.06-13.29-8.59-.77-2.5,1-4.08,2.2-5.77,19.5-26.51,22.49-54.87,9.12-84.82-2.95-6.61-3.21-13.1-2.15-20,1.48-2.77,4.12-3.24,6.83-3.26,18.81-.16,37.61-.2,56.42,0,5.82.06,7.27,1.64,7.37,7.64.2,11.48.06,23,.07,34.45q0,44.43,0,88.86C413.48,680.9,414.27,684.28,411.4,686.71Z" transform="translate(-28.62 -104.5)"/><path class="cls-6" d="M217.74,307.64c4.5-2.09,5.1-4.21,3-10.66l.36-.63c3-1.71,6.7-1.78,9.61-3.81,6.23-4.35,10.31-9.94,9.3-17.89-1.1-8.73-6.15-14.35-14.62-16.85-1.51-.79-3.57-.44-4.65-2.15a45.06,45.06,0,0,0,0-20.37,2.41,2.41,0,0,1,1.21-1.46,7.32,7.32,0,0,1,3.37-.76c22.39-.06,44.78-.39,67.16.15a53.89,53.89,0,0,1,9.42-.11c1.92.14,4.08.05,5,2.41-1.61,2.27-4.12,2-6.36,1.93-4-.15-5.17,1.73-5.14,5.43.1,9.48,0,19,0,28.44a51.41,51.41,0,0,1-.62,7.94c-.77,17.41-6.78,32.89-17.36,46.64-1.64,2.13-1.75,5-3.78,6.89-.86-.71-1.25-2.65-2.95-.82-10.83,11.69-23.72,21.55-32.44,35.1-6.45,10-9.27,20.93-4.54,32.69,2.38,1.9,3.74,4.59,5.37,7.05,2.8,4.22,6.77,7.16,10.59,10.31,1.44,1.2,4.14,2.76.54,4.77a153,153,0,0,1-28.47.09,2.54,2.54,0,0,1-2.05-1.78c2.29-.83,2-2.76,2-4.59q0-41.48,0-82.94a9.05,9.05,0,0,0-1-4.83c.61-1.16,1.78-1.53,2.84-2.05,5-2.67,7-6.35,5.87-10.66-.91-3.35-3-5.43-6.54-5.88-1.62-.21-3.34,0-4.78-1C218,308,217.87,307.83,217.74,307.64Z" transform="translate(-28.62 -104.5)"/><path class="cls-7" d="M411.4,686.71c.05-16.64.14-33.27.15-49.91,0-27.95-.05-55.91.09-83.86,0-3.54-1-4.52-4.47-4.49-19.47.15-38.94.08-58.41.07-2.37,0-4.86-.31-5.08,3.13-1.21,3.18.05,6.57-.76,9.83-2.22.74-3-1.07-3.87-2.29a97.55,97.55,0,0,0-14.34-15.9c-1.38-1.26-3.44-2.45-2.07-4.95a6.48,6.48,0,0,1,3.74-1.13c5.75-.59,6.27-.75,5.7-6.66a132.51,132.51,0,0,0-15.25-51.16,130,130,0,0,0-12.37-19.25c-.94-1.17-1.9-2.33-1.8-4,1.52-3.42,4.18-5.94,6.8-8.47a150.13,150.13,0,0,1,31.55,64c1.62,7.28,3.06,14.68,2.81,22.21-.11,3.39,1.1,4.71,4.61,4.69q29.44-.18,58.9,0c3.28,0,4.28-1.07,4.28-4.31q-.12-65.13,0-130.26c0-2.15-.12-4-2.67-4.58-9.54-3.13-18.54-7.13-24.73-15.57-.48-.66-.85-1.39-1.28-2.09,2.28-2.35,5.07-1.58,7.79-1.32,6.51,1.58,13.14.55,19.71.76,6.73.21,8,1.05,7.82,7.72-.09,4.32.79,8.06,3.52,11.37-.07,14.28-.19,28.56-.18,42.84q0,47.6.16,95.18c2.23,3.5,2.35,7,0,10.46q-.07,46.93-.14,93.85c0,13.31.06,26.63-.08,39.94,0,2.82.52,4.5,3.64,4.4C420.53,687.47,415.94,688,411.4,686.71Z" transform="translate(-28.62 -104.5)"/><path class="cls-8" d="M168.63,522.61c-31.63,0-63.25.16-94.88,0-4.71,0-6.22,1.07-6.18,6,.18,25.29,0,50.59-.09,75.88-1.13-1.68-.57-3.57-.57-5.34q0-76.67,0-153.34c0-3.75.71-5.43,4.89-5.14,5.63.4,11.31.18,17,.22a175.43,175.43,0,0,1,18.17,17c14.49,15.64,30,30.24,45,45.31,4.77,4.8,9.28,10,14.59,14.25C168.14,518.74,169.26,520.35,168.63,522.61Z" transform="translate(-28.62 -104.5)"/><path class="cls-9" d="M227.84,535.78a108.62,108.62,0,0,1,31.33-12c1.53-.35,4.3,0,1.82-2.87.05-4,0-8,.21-12,0-7.62,3.42-9.61,11.36-6.67,2,2,1.81,4.53,1.83,7,.08,8.12.21,16.26-.05,24.37-.12,3.85.4,7.14,3.56,9.63-.92,1.93-2.72,1.83-4.43,1.91-15.79-.65-29.54,4.65-41.15,15.06-25.9,23.2-25.93,62-4.75,84.77,12.38,13.29,27.21,20.5,45.5,20.26a4.89,4.89,0,0,1,3.7,1.22,22.89,22.89,0,0,0-2.59,11.76c.06,3.52.62,6.51,3.59,8.68a73.72,73.72,0,0,1-44-9.47c-26.29-14.89-41.05-37.54-43-68-.22-3.37-1.34-4.31-4.45-4.14-2.12.12-4.32.44-6.4-.4,3.3-.2,7.2.62,9.72-.88,2.71-1.62.82-5.83,1.26-8.88,2.67-18.4,10.15-34.39,23.39-47.57,1.39-1.38,2.89-2.66,4.33-4,.57-4.31,4.68-5.13,7.31-7.42A3.14,3.14,0,0,1,227.84,535.78Z" transform="translate(-28.62 -104.5)"/><path class="cls-2" d="M277.77,686.88c-3.8.2-5.68-1.17-5.16-5.38a37.67,37.67,0,0,0,0-9.31c-.42-3.34,1.11-4.72,4-5.36,1.31-2,3.51-1.69,5.39-2.06,29.44-5.78,49.07-27.22,51-57.21,1-15.45-4.06-29.52-14.38-41.4a61.22,61.22,0,0,0-37.07-20.88c-1.44-.25-3-.28-3.91-1.81-4.5-.18-5.2-2.57-5-6.78.45-11.35.22-22.73.25-34.1l.55-.54a14.63,14.63,0,0,1,6.07-1.06c5,.54,4.68,4.46,5.13,7.92-.2,3.66-.33,7.32-.26,11,.32,3,2.86,2.89,4.85,3.32a86.21,86.21,0,0,1,31,13.25c.95.65,2,1.15,2.54,2.3.46,2.65,3.05,3.35,4.69,4.82a95.35,95.35,0,0,1,14.84,17.48c1.37-3.33-.36-6.66,1.51-9.41-1.91,9.79,3.43,17.79,6.29,26.48,9.47,28.87,4.72,55.37-14.15,79.28-.81,1-1.43,2.19-2.15,3.29-9.81,9.36-20.5,17.37-33.52,21.81C292.88,685,285.5,686.8,277.77,686.88Z" transform="translate(-28.62 -104.5)"/><path class="cls-9" d="M242.91,482.36c-1.13-1-2.52-.64-3.81-.64q-31.66,0-63.34,0c-6.74,1-7.71.3-7.82-6.26-.17-9.6-.1-19.21,0-28.81,0-2.17.21-4.32,1.78-6l.32-6.77c.34,0,.8-.13,1,.06,5.76,6.13,13.27,5.07,20.54,5.07,21.29,0,42.58-.1,63.87.06,5.45,0,10.58-.48,15.17-3.67a2.15,2.15,0,0,1,1.74.31c.1,7.41,0,14.82.39,22.22.22,4.05-3.15,2.3-4.63,3.51-.86,1.74-2.68,1.82-4.18,2.32A30.16,30.16,0,0,0,246,479.21C245.33,480.49,245.29,482.66,242.91,482.36Z" transform="translate(-28.62 -104.5)"/><path class="cls-5" d="M530.54,456.32c12.11,15.13,20.14,32.27,25,51a123.08,123.08,0,0,1,4.39,30c-.09,3-2.48,2.88-4.31,2.9-17.44.24-34.89.32-52.33,0-4.63-.09-6-2.09-5.72-6.83,1.59-27.35,11.05-51.77,27.43-73.6C526.39,457.89,527.64,455.73,530.54,456.32Z" transform="translate(-28.62 -104.5)"/><path class="cls-10" d="M169.7,440.64c0,11.56.26,23.13-.07,34.68-.14,4.79.91,7.29,6.13,6.43-6,.34-6.3,4.17-6.12,9,.34,8.91.13,17.84.06,26.76,0,1.72.7,3.69-1.07,5.08-3.13-5.56-8.17-9.53-12.61-13.77-15.11-14.41-30-29.07-44.42-44.14C105.19,458,98,452.16,91.81,445.24c-1.19-1.33-2.91-2.3-3-4.37Z" transform="translate(-28.62 -104.5)"/><path class="cls-5" d="M559.71,548.9c-.58,30.57-10.72,57.73-29.3,81.86-3.19.11-4.67-2.3-6.19-4.42-15.78-21.86-25.09-46.1-26.62-73.15-.25-4.5.74-6,5.21-6,17.49-.29,35-.19,52.48,0C556.94,547.13,558.67,547.25,559.71,548.9Z" transform="translate(-28.62 -104.5)"/><path class="cls-11" d="M559.71,548.9l-57.83-.3c-1.95,0-3.07.46-2.94,2.84,1.68,29.22,11.78,55.2,29.89,78.12a8,8,0,0,0,1.58,1.2,41.48,41.48,0,0,1-7.07,8.66c-11.49-14.37-20.75-30-26.74-47.45a149.72,149.72,0,0,1-7.83-39.42c-.16-2.54-.66-4-3.66-4-21.14.16-42.27.2-63.41.27,0-3.48,0-7,0-10.46,21,.06,42,.06,62.94.24,3.66,0,4-2,4.14-4.72a147.4,147.4,0,0,1,14.82-56c5.3-11,12.34-20.81,19.65-30.49a43.94,43.94,0,0,1,7.25,8.89c-4.93,3.43-7.65,8.69-10.67,13.55-12.15,19.51-19.41,40.66-20.82,63.74-.22,3.72.43,5,4.37,5,17.32-.17,34.65-.07,52-.1,1.61,0,3.4.5,4.54-1.26C560.45,541.16,560.75,545,559.71,548.9Z" transform="translate(-28.62 -104.5)"/><path class="cls-3" d="M306.71,235.63c-4.45-2-9.15-.39-13.7-1-3.75-6.26-2.16-12.8-1.05-19.32a1.29,1.29,0,0,1,1.62-.61c8.42.23,17-1,24.79,3.82,10.69,6.59,16,15.85,15.73,28.55-.37,16.44-8.74,29-19.21,40.52-6.72,7.37-14.08,14.16-21.1,21.27-3,3.06-6.07,6.13-7.92,10.18.42.14.77.39,1,.31,7.76-3.19,13.75-1.3,16.13,5.11s-3.16,16.05-10.47,18c-8.18,2.21-15.65-1.65-18.83-9.73-.41-3,.72-5.49,2.5-7.82,9.58-12.52,16-26.28,16.61-42.34a10.54,10.54,0,0,1,.91-2.82c1.86-4,5-7,7.79-10.31a49.61,49.61,0,0,0,9.6-16.78c1.9-5.68,1.8-10.8-3.21-15A3,3,0,0,1,306.71,235.63Z" transform="translate(-28.62 -104.5)"/><path class="cls-4" d="M322.64,538.76c-4.78-1.17-8.3-4.71-12.64-6.76-7.25-3.43-14.61-6.35-22.59-7.53-2-.3-4.64-.15-4.44-3.45.68-1.74,2.39-2.19,3.8-3,15.82-9.2,20.08-27.85,9.86-42.95-1.27-1.88-3.22-3.44-3.15-6,2.72-4.52,5.34-9.11,9.18-12.84,9.15,9.21,15,20.52,20.21,32.17A132.88,132.88,0,0,1,333.93,533c.32,4.36-.73,6.24-5.32,5.59A35.15,35.15,0,0,0,322.64,538.76Z" transform="translate(-28.62 -104.5)"/><path class="cls-12" d="M421.76,400.34c-6.59-.36-5.09-5.23-5.15-9.23-.17-9.53,1.3-8.26-8.37-8.53-5.89-.17-11.83.87-17.67-.65.85-1.38,2.27-1.55,3.69-1.7,7.32.17,14.66.26,22,0,13.32-.44,22.63-10.56,21.8-23.52-.58-9-6.05-14.43-13.57-18.33-1.74-.9-4-.94-5.1-2.88-10.16-1.68-20.4-.26-30.58-.8-1.65-.09-3.62,1-5-.89,2.08-1.7,4.56-1.8,7.08-1.8,5.48,0,11,0,16.44,0,7.48,0,7.54-.14,7.61-7.43,0-2.3-.46-4.68.9-6.8,18.73-1.05,36.79,13,40.66,31.54,4.27,20.49-6.39,40.39-25.49,47.56-2.48.93-5,1.79-7.49,2.68Z" transform="translate(-28.62 -104.5)"/><path class="cls-6" d="M293.58,214.73a1.12,1.12,0,0,1-.59.17,9.57,9.57,0,0,1-6.14,1.69q-29.7.07-59.4,0a12.24,12.24,0,0,1-4.9-.78,4,4,0,0,1-1.49-1.23c-1.82-3.78-1-7.83-1.13-11.76-.23-5.77-.47-6.17-6.37-6.19-18.58-.09-37.17,0-55.75-.06-2.78,0-5.71.39-8-1.77,1.48-1.65,3.44-.9,5.17-.9,44.24,0,88.49.11,132.73,0,4.66,0,6.09,1.38,5.88,6C293.33,204.77,292.68,209.77,293.58,214.73Z" transform="translate(-28.62 -104.5)"/><path class="cls-5" d="M271.69,435.62c-3.2,3.81-7.16,5.26-12.23,5.22q-38.16-.27-76.33,0c-5.95.06-10.3-1.75-13.11-7l.15-2.46c1.68-2.82,4.54-2.36,7.1-2.38,11.23-.11,22.46,0,33.7,0,7.27,0,7.27,0,9.6-6.64a6.48,6.48,0,0,1,1-1.67l29.7-.61c5-2,10.14-1.31,15.18-.47a6.42,6.42,0,0,1,5.58,6.2C272.25,429,272.76,432.38,271.69,435.62Z" transform="translate(-28.62 -104.5)"/><path class="cls-13" d="M149.77,194.79c22.23,0,44.46.11,66.68-.06,4.1,0,5.62,1.11,5.33,5.3-.33,4.79-.06,9.62-.05,14.43-1.26,2-3.33,2.07-5.3,2.09-20.39.17-40.79.13-61.18,0a7.52,7.52,0,0,1-5.53-1.82l-.14-.09Q149.67,204.73,149.77,194.79Z" transform="translate(-28.62 -104.5)"/><path class="cls-14" d="M415,375.7c-10.92.08-21.85.11-32.77.3-2.46,0-3.58-1.08-4.27-3.19-3.64-11-3.65-21.77,1.88-32.22a4,4,0,0,1,2.23-1c11.22-.22,22.44-1,33.64.43,2,1.29,2.57,3.38,2.64,5.56.29,8.23.21,16.46.05,24.69C418.31,372.72,417.54,374.79,415,375.7Z" transform="translate(-28.62 -104.5)"/><path class="cls-15" d="M242.91,482.36c4.77-11.31,12.73-18.8,25.15-20.93l4.67.19c2.25,3.24,2,6.51.14,9.8-1.7,1.82-4.18,1.84-6.31,2.7a20.06,20.06,0,0,0-9.64,7.49c-4.84,9.66-4,16.72,3.19,24.68A11.31,11.31,0,0,1,262.6,510c-1,3.59,1.66,7.71-1.62,11C244.75,512.51,239.42,501.15,242.91,482.36Z" transform="translate(-28.62 -104.5)"/><path class="cls-16" d="M271.68,471.52c1.88-3.14.67-6.6,1.05-9.9,8.06-.75,14.54,2.94,20.75,7.39,14.06,14.1,12.12,32.17,2.55,43.24A27.35,27.35,0,0,1,283,521c-.12-4.06-.66-8.12.34-12.15.48-1.49,1.67-2.44,2.65-3.56,6.8-7.77,7.23-16.52,1.23-25-3.32-5.41-8.92-6.59-14.51-7.79A2.39,2.39,0,0,1,271.68,471.52Z" transform="translate(-28.62 -104.5)"/><path class="cls-17" d="M271.69,435.62c.13-1.81.36-3.63.36-5.45q0-9.41-9.31-9.81c-3.8-.17-7.62-.21-11.43-.31-7.39-5.44-14.6-11-17.57-20.3,11.59,0,23.19,0,34.78-.09,2.34,0,4.17,0,4.11,3.28-.22,10.91-.23,21.84-.32,32.76A2.57,2.57,0,0,1,271.69,435.62Z" transform="translate(-28.62 -104.5)"/><path class="cls-18" d="M208.7,399.77c-3.14,9.14-10,15-17.72,20.13-1.3,1.32-3,1.35-4.66,1.31-5.49-.15-10.63.56-14.48,5.09a2.12,2.12,0,0,1-1.86.51c0-7.62,0-15.24-.22-22.85-.09-3.13.79-4.41,4.16-4.35C185.51,399.81,197.1,399.74,208.7,399.77Z" transform="translate(-28.62 -104.5)"/><path class="cls-19" d="M170,426.81c2.94-5.48,7.65-7.24,13.6-6.75a67.86,67.86,0,0,0,7.4-.16c9.57,1,19.16.4,28.74.29l1.89.47c.31,10,.31,10-9.84,10H176c-2,0-4-.25-5.85.69C170.1,429.87,170,428.34,170,426.81Z" transform="translate(-28.62 -104.5)"/><path class="cls-12" d="M415,375.7c.66-1.09,1.72-1.87,1.7-3.41-.08-9.72,0-19.44-.11-29.15a7.14,7.14,0,0,0-.89-2.27c1.37-1.75,3.22-1.43,5-1.09,7.94,1.5,14.14,8.64,15,17.2.77,7.95-4.65,16.61-12.13,19.35-2.42.88-4.83,1.23-7.17-.28Z" transform="translate(-28.62 -104.5)"/><path class="cls-20" d="M416.35,376.05c10.68-.26,18-7.62,17.84-17.89s-8.14-17.56-18.54-17.29l-35.86-.28c0-.76,0-1.48.86-1.86,9.22-1.5,18.51-.29,27.76-.72,2.9-.14,6.08.57,8.27-2.24l2.69-.25c12.84,2.1,20.85,11.88,20.23,24.68-.56,11.57-10.27,21-22.59,21.47-7.44.29-14.91,0-22.36,0,.78-2.88,3.26-2.36,5.27-2.5,3.65-.25,7.32,0,11-.15,2.18-.09,4.38-.18,5.65-2.42A1.19,1.19,0,0,0,416.35,376.05Z" transform="translate(-28.62 -104.5)"/><path class="cls-17" d="M415.85,317.79c1.56,4.5.58,9.15.68,13.73.06,2.79-2.3,2.28-4,2.29-9.57,0-19.13,0-28.7,0C391.88,323.26,402.45,317.7,415.85,317.79Z" transform="translate(-28.62 -104.5)"/><path class="cls-21" d="M416.55,376.56c.66,3.43-1,4.16-4.16,4.28-5.91.23-11.91-1.15-17.74.79l-4.08.3-7.65-.12c-1.17-1.35-2.45-2.65-2.6-5.25Z" transform="translate(-28.62 -104.5)"/><path class="cls-22" d="M416.68,335.77c0,2.09.05,4-3,4-10.46-.08-20.92-.06-31.38-.13-.56,0-1.12-.6-1.68-.92.75-2,1.82-3.35,4.3-3.3C395.52,335.61,406.1,335.67,416.68,335.77Z" transform="translate(-28.62 -104.5)"/><path class="cls-23" d="M102.79,543.75a25.93,25.93,0,0,1,10.85,0c1.28,3.35.5,6.83.55,10.24.13,8.59.08,17.17,0,25.76,0,1.58.6,3.31-.62,4.76l-10.73,0c-1.26-3.73-.59-7.57-.54-11.34C102.46,563.33,101.6,553.52,102.79,543.75Z" transform="translate(-28.62 -104.5)"/><path class="cls-24" d="M226.73,536.57l-8.18,7-2.64-.06c-1-.92-.67-2.15-.67-3.26q0-17.34,0-34.69a4.28,4.28,0,0,1,.51-2.86,20,20,0,0,1,11,0A235.65,235.65,0,0,1,226.73,536.57Z" transform="translate(-28.62 -104.5)"/><path class="cls-25" d="M134,563.65c0,5.81-.07,11.63,0,17.45,0,2.32-.25,3.66-3.15,3.58-9.07-.25-7.51.89-7.49-7.19,0-10.13.26-20.28-.09-30.4-.18-5.44,3.43-3.49,6-3.79,2.86-.34,5.12-.28,4.82,3.91C133.74,552.66,134,558.17,134,563.65Z" transform="translate(-28.62 -104.5)"/><path class="cls-26" d="M102.79,543.75l.06,40.71c-1.51-.83-1.08-2.28-1.08-3.53q-.06-17.56,0-35.14C101.79,545.1,101,543.67,102.79,543.75Z" transform="translate(-28.62 -104.5)"/><path class="cls-27" d="M113.58,584.48l.06-40.76c1.22.72,1.06,1.94,1.06,3.08q0,17.34,0,34.68C114.7,582.59,114.94,583.85,113.58,584.48Z" transform="translate(-28.62 -104.5)"/><path class="cls-28" d="M215.74,502.72q.09,20.41.17,40.81c-1.34-.63-1.16-1.87-1.16-3q0-17.58,0-35.17C214.75,504.36,214.78,503.36,215.74,502.72Z" transform="translate(-28.62 -104.5)"/><path class="cls-29" d="M226.73,536.57l0-33.82c1.7,1.44,1,3.41,1,5.14.11,9.29.12,18.59.16,27.89Z" transform="translate(-28.62 -104.5)"/><path class="cls-4" d="M149.72,214.76l66.57-.1c1.81,0,3.63-.13,5.44-.2l0,.42c3,5.53,2.52,16.12-.93,19.89a.89.89,0,0,1,0,.51H150.61a1.45,1.45,0,0,1-1.37-1.36Z" transform="translate(-28.62 -104.5)"/><path class="cls-30" d="M220.75,255.65c1.61.35,3.4-.29,4.85.9-2.51,2.27-3.38,5.05-3.27,8.45.28,9-.27,18,.34,27,.13,1.86.21,3.74-2,4.62l.06.4c-16.35-1.58-22.51-16-19.13-26.53C204.6,261.15,211.45,256.81,220.75,255.65Z" transform="translate(-28.62 -104.5)"/><path class="cls-31" d="M149.61,278.89c-.44.66-1.13.88-1.66.35-8.15-8.32-16.19-16.74-18.73-28.7-1.56-7.38.26-11.33,6.54-14.9,13.47-1.56,13.38-1.56,13.49,11.36C149.35,257.63,148.76,268.27,149.61,278.89Z" transform="translate(-28.62 -104.5)"/><path class="cls-32" d="M223.77,327l-3,.81c-5-1.14-8.94-3.51-9.56-9.15-.57-5.24,2-8.76,6.55-11l0,.46c3.54-.32,4.9,1.09,4.62,4.79C222,317.63,223,322.34,223.77,327Z" transform="translate(-28.62 -104.5)"/><path class="cls-6" d="M149.61,278.89c-1.4-6.54-.45-13.17-.62-19.76s-.13-13.25,0-19.87c.05-2.8-1-3.88-3.79-3.74-3.13.16-6.29.09-9.43.12,4.25-2.45,9.19.45,13.48-1.74l1.37,1.37c-1.24,1.8-.77,3.85-.79,5.81Q149.67,260,149.61,278.89Z" transform="translate(-28.62 -104.5)"/><path class="cls-5" d="M220.75,234.77c2-6.55.52-13.26.93-19.89l71.31,0q0,9.89,0,19.76c-17.95.11-35.89.25-53.84.32C233,235,226.89,234.84,220.75,234.77Z" transform="translate(-28.62 -104.5)"/><path class="cls-2" d="M220.69,296.58c1.29-1.68.3-3.43.27-5.19-.13-10.39,0-20.77-.13-31.16-.05-3.66,2.19-3.75,4.77-3.68,10.43,2.38,17.33,11.87,16,22C240.13,289.47,231.68,296.76,220.69,296.58Z" transform="translate(-28.62 -104.5)"/><path class="cls-33" d="M306.71,235.63c6.57,3.84,8.27,7.92,6.4,15.36-3,11.95-10.76,20.68-19.42,28.81-.07-13.7-.11-27.4-.22-41.1,0-2.37,1-3.24,3.31-3.17C300.09,235.62,303.4,235.6,306.71,235.63Z" transform="translate(-28.62 -104.5)"/><path class="cls-34" d="M223.77,327c-.91-.38-2.36.21-2.4-1.69-.08-4.39-.77-8.81-.4-13.15.25-3-1.16-3.52-3.25-4.08,7.31-1.37,11.83.94,13.26,6.77S229.79,324.94,223.77,327Z" transform="translate(-28.62 -104.5)"/><path class="cls-3" d="M272.69,666.54c-26.71,1.88-53.29-18.93-60.21-47.14-9.11-37.15,18.59-74.22,56.78-75.95a30.9,30.9,0,0,1,3.45.23c1.66,1.67,1.45,3.82,1.52,5.9a10.08,10.08,0,0,1,0,3.55c.43,10.08.08,20.16.21,30.24a30,30,0,0,0,.54,5.91c.71,2.55-.89,4-2.66,5.28a39.62,39.62,0,0,0-5.41,4.24c-3.36,3.53-3.46,7.2-.4,12,1.31,1.64,3.15,2.48,4.95,3.41,2.62.74,3,2.78,3,5.07-.18,12.6.26,25.2-.24,37.79a10.56,10.56,0,0,1,0,3.59C274.11,662.7,274.44,664.9,272.69,666.54Z" transform="translate(-28.62 -104.5)"/><path class="cls-6" d="M272.72,549.66c0-2,0-4,0-6l4.87-.21c33,3.73,56.91,29.56,56.86,61.62a62.07,62.07,0,0,1-57.86,61.74l-3.89-.29c0-2,.09-4.1.13-6.15.74-.35,2.05-.42,2.11-1.08.1-1.24-1.48-1-2.18-1.58,0-12.86-.21-25.71.1-38.56.06-2.86-1.05-3.54-3.12-4.15a2.11,2.11,0,0,1,2.28-1.54c5.24.08,8-3.34,10.55-7.19,6.16-9.42,11.83-19.15,17.75-28.65-6.88,2.94-12.61,7.75-19.13,11.18-1.92,1-3.58,3.13-6.22,2-2.93-.55-2.23-2.88-2.24-4.75,0-11.11,0-22.22,0-33.34.7-.71,2.35-.51,2.36-1.54S273.43,550.33,272.72,549.66Z" transform="translate(-28.62 -104.5)"/><path class="cls-2" d="M262.6,510c-11-8.11-13.57-19.16-6.7-29.19,5.84-1,11.69-2,17.32.94,1.84,7,2.43,13.95-.4,20.84l0,0c-1,0-1.94,0-2.91,0C261,502.56,262.9,502.61,262.6,510Z" transform="translate(-28.62 -104.5)"/><path class="cls-35" d="M272.82,502.56l-.48-20.89c-1.79-3.32-1.94-6.61.19-9.86,6.39-.07,11.89,1.71,15.48,7.45A76,76,0,0,1,278.88,502Z" transform="translate(-28.62 -104.5)"/><path class="cls-36" d="M278.88,502A93.72,93.72,0,0,1,288,479.26c8.27,9,5.89,24-4.7,29.61C282.06,506.44,284.1,501.88,278.88,502Z" transform="translate(-28.62 -104.5)"/><path class="cls-37" d="M272.53,471.81c-.06,3.29-.12,6.57-.19,9.86-5.47-.41-11,1.13-16.44-.89,3.46-6.15,9.31-8.24,15.78-9.26A2,2,0,0,0,272.53,471.81Z" transform="translate(-28.62 -104.5)"/><path class="cls-38" d="M275,590.82c4.66-2.81,9.33-5.6,14-8.42s9.24-5.61,14-8.51c.88,2.05-.22,2.83-1.15,3.69-6.84,7.33-14,14.36-21.1,21.44-1.74,1.74-3.32,3.71-5.75,4.6-2.7.26-3.59,2.11-3.9,4.47-1.44,2-2.61,4.39-5.77,3.64-4-4.88-3.78-10.53.85-14.43C268.92,595,272,593,275,590.82Z" transform="translate(-28.62 -104.5)"/><path class="cls-39" d="M274.44,602.74c8.48-7,15.55-15.36,23.56-22.8,1.06-1,1.54-3.2,3.8-2.36-5.87,10.51-12.44,20.59-18.9,30.74-3.19,5-7.2,7.57-13.17,6.7-1.69-.81-3.55-1.41-4.45-3.29l5.6-4.24C272.45,606.19,274,604.87,274.44,602.74Z" transform="translate(-28.62 -104.5)"/><path class="cls-40" d="M272.75,657.73c1.34-1.05,2.71-2,4.26-.37a2.08,2.08,0,0,1,.11,3c-1.44,1.77-2.87.83-4.3,0C272.8,659.5,272.78,658.61,272.75,657.73Z" transform="translate(-28.62 -104.5)"/><path class="cls-41" d="M272.72,549.66c1.47-.93,2.93-1.57,4.25.23a2.06,2.06,0,0,1,0,2.68c-1.36,1.86-2.78,1.07-4.23.16C272.71,551.71,272.71,550.68,272.72,549.66Z" transform="translate(-28.62 -104.5)"/><path class="cls-42" d="M257.5,656.18c-.69,1.74-1.58,2.76-3.13,2.3a2.33,2.33,0,0,1-1.71-3.1,2.24,2.24,0,0,1,2.65-1.7A2.73,2.73,0,0,1,257.5,656.18Z" transform="translate(-28.62 -104.5)"/><path class="cls-43" d="M247.88,558.73a2.23,2.23,0,0,1-2.56,2.08,2.38,2.38,0,0,1,.13-4.75A2.32,2.32,0,0,1,247.88,558.73Z" transform="translate(-28.62 -104.5)"/><path class="cls-44" d="M237.48,643.48a2.34,2.34,0,0,1,2.3,2.56,2.24,2.24,0,0,1-2.21,2.26,2.32,2.32,0,0,1-2.66-2.32C234.85,644.53,235.76,643.54,237.48,643.48Z" transform="translate(-28.62 -104.5)"/><path class="cls-45" d="M239.63,564.72c-.38,1.38-1.2,2.28-2.79,2.09a2.24,2.24,0,0,1-2.13-2.3,2.32,2.32,0,0,1,2.51-2.47A2.44,2.44,0,0,1,239.63,564.72Z" transform="translate(-28.62 -104.5)"/><path class="cls-46" d="M226.87,580.92c-.16,1.25-1,2-2.63,1.88a2,2,0,0,1-2-2.38c.05-1.66,1.1-2.32,2.66-2.2C226.35,578.34,226.93,579.23,226.87,580.92Z" transform="translate(-28.62 -104.5)"/><path class="cls-47" d="M229.92,574.21c-1.39-.39-2.48-1.12-2.22-2.71a2.26,2.26,0,0,1,2.85-1.94,2.08,2.08,0,0,1,2,2.32A2.42,2.42,0,0,1,229.92,574.21Z" transform="translate(-28.62 -104.5)"/><path class="cls-48" d="M218.93,602.57c-1.42-.25-2.4-.94-2.38-2.51a2.18,2.18,0,0,1,2-2.36,2.26,2.26,0,0,1,2.66,2.19C221.33,601.37,220.35,602.23,218.93,602.57Z" transform="translate(-28.62 -104.5)"/><path class="cls-49" d="M218.32,612.69a2.29,2.29,0,0,1-1.74-2.65,2,2,0,0,1,2.17-2.08,2.22,2.22,0,0,1,2.44,2.41C221.13,611.74,220.36,612.81,218.32,612.69Z" transform="translate(-28.62 -104.5)"/><path class="cls-50" d="M223.1,620.4c0,1.31-.64,2.26-2,2.35a2.19,2.19,0,0,1-2.55-2.35,2,2,0,0,1,2-2.33C222.08,617.92,223,618.8,223.1,620.4Z" transform="translate(-28.62 -104.5)"/><path class="cls-51" d="M224.67,632.26c-1.32-.22-2.26-.77-2.26-2.2s.74-2.57,2.36-2.51,2.28,1.09,2.16,2.67S225.83,632.08,224.67,632.26Z" transform="translate(-28.62 -104.5)"/><path class="cls-52" d="M245.66,654.25c-1.33-.22-2.25-.79-2.25-2.21s.73-2.57,2.37-2.5,2.25,1.12,2.14,2.68S246.82,654.08,245.66,654.25Z" transform="translate(-28.62 -104.5)"/><path class="cls-53" d="M220.68,587.57a2.22,2.22,0,0,1,2.32,2.11,2.19,2.19,0,0,1-2.17,2.7,2,2,0,0,1-2.29-2A2.32,2.32,0,0,1,220.68,587.57Z" transform="translate(-28.62 -104.5)"/><path class="cls-54" d="M232.69,638c0,1.62-.7,2.5-2,2.73a2.22,2.22,0,0,1-2.86-2,2.14,2.14,0,0,1,1.93-2.47C231.39,636,232.14,637,232.69,638Z" transform="translate(-28.62 -104.5)"/><path class="cls-55" d="M267.36,658.54c-.29,1.31-.74,2.32-2.23,2.29s-2.54-.81-2.5-2.4,1.17-2.27,2.69-2.13A2.17,2.17,0,0,1,267.36,658.54Z" transform="translate(-28.62 -104.5)"/><path class="cls-56" d="M254.85,556.64a2.36,2.36,0,0,1-2.3-2.15,2.2,2.2,0,0,1,2.15-2.71,2.12,2.12,0,0,1,2.32,2.07C257.22,555.4,256.35,556.29,254.85,556.64Z" transform="translate(-28.62 -104.5)"/><path class="cls-57" d="M264.72,549.48c1.66,0,2.29.95,2.25,2.47a1.88,1.88,0,0,1-2.18,2c-1.3,0-2.2-.52-2.28-1.93S263.08,549.55,264.72,549.48Z" transform="translate(-28.62 -104.5)"/><path class="cls-58" d="M295.07,656.64a2.36,2.36,0,0,1-2.46-2.52,2.26,2.26,0,0,1,2.08-2.38,2.34,2.34,0,0,1,2.75,2.24C297.64,655.5,296.53,656.33,295.07,656.64Z" transform="translate(-28.62 -104.5)"/><path class="cls-59" d="M318,631.73c1.37.4,2.51,1.18,2.34,2.7a2.31,2.31,0,0,1-2.71,2.22,2.21,2.21,0,0,1-2.07-2.34C315.53,632.71,316.61,632,318,631.73Z" transform="translate(-28.62 -104.5)"/><path class="cls-60" d="M326.48,602.53a2.2,2.2,0,0,1,2.39,2.41,2.3,2.3,0,1,1-4.59.34C324.16,603.84,324.65,602.67,326.48,602.53Z" transform="translate(-28.62 -104.5)"/><path class="cls-61" d="M310.37,565.33c2.71.22,3.54,1.1,3.43,2.67a2,2,0,0,1-2.33,2,2.12,2.12,0,0,1-2.28-2.55C309.32,566.22,310,565.27,310.37,565.33Z" transform="translate(-28.62 -104.5)"/><path class="cls-62" d="M316.88,573.58c2.16-.23,3.07.41,3.24,1.72.19,1.47-.37,2.58-2.08,2.69-1.31.09-2.3-.4-2.47-1.78S316.08,573.7,316.88,573.58Z" transform="translate(-28.62 -104.5)"/><path class="cls-63" d="M322.62,587.22c-1.65-.23-2.43-1.12-2.25-2.69a2,2,0,0,1,2.34-2c1.62.11,2.25,1.09,2.14,2.67S323.77,587.08,322.62,587.22Z" transform="translate(-28.62 -104.5)"/><path class="cls-64" d="M326,617.7a2.27,2.27,0,0,1-2.62-1.92,2.19,2.19,0,0,1,2-2.84,2,2,0,0,1,2.46,1.86A2.33,2.33,0,0,1,326,617.7Z" transform="translate(-28.62 -104.5)"/><path class="cls-65" d="M303.89,651.51c-1.39-.28-2.46-.91-2.39-2.55a2.25,2.25,0,0,1,2.06-2.37,2.29,2.29,0,0,1,2.69,2.25C306.41,650.37,305.38,651.21,303.89,651.51Z" transform="translate(-28.62 -104.5)"/><path class="cls-66" d="M311.76,644.71a2.21,2.21,0,0,1-2.32-2.08,2.16,2.16,0,0,1,2.14-2.69,2.07,2.07,0,0,1,2.32,2A2.3,2.3,0,0,1,311.76,644.71Z" transform="translate(-28.62 -104.5)"/><path class="cls-67" d="M306,561.07a2.18,2.18,0,0,1-2.19,2.31,2.36,2.36,0,0,1-.17-4.72C305.25,558.62,305.91,559.69,306,561.07Z" transform="translate(-28.62 -104.5)"/><path class="cls-68" d="M292.54,557c0-2.42.76-3.37,2.35-3.36a2,2,0,0,1,2.14,2.19c.06,1.55-.75,2.56-2.32,2.48C293.51,558.21,292.52,557.57,292.54,557Z" transform="translate(-28.62 -104.5)"/><path class="cls-69" d="M285.2,655.27a2.26,2.26,0,0,1,2.52,1.88c.22,1.53-.63,2.47-2.21,2.66A2.12,2.12,0,0,1,283,658,2.26,2.26,0,0,1,285.2,655.27Z" transform="translate(-28.62 -104.5)"/><path class="cls-70" d="M325,625.14c-.21,1.48-.95,2.53-2.54,2.39a2.4,2.4,0,0,1,.47-4.76A2.31,2.31,0,0,1,325,625.14Z" transform="translate(-28.62 -104.5)"/><path class="cls-71" d="M327.81,594.72c-.1,1.74-1.19,2.24-2.64,2.17s-1.91-1.06-1.87-2.32.65-2.13,2.07-2.13A2.13,2.13,0,0,1,327.81,594.72Z" transform="translate(-28.62 -104.5)"/><path class="cls-72" d="M287.6,552.59a2.29,2.29,0,0,1-2.13,2.28,2.22,2.22,0,0,1-2.71-2.16,2.06,2.06,0,0,1,2.06-2.29A2.36,2.36,0,0,1,287.6,552.59Z" transform="translate(-28.62 -104.5)"/><path class="cls-73" d="M274.44,602.74c2.05,4,.53,5.34-3.56,4.75C268.46,603.2,270.51,602.26,274.44,602.74Z" transform="translate(-28.62 -104.5)"/></svg>