<svg id="Layer_1" data-name="Layer 1" xmlns="http://www.w3.org/2000/svg" viewBox="0 0 547.71 422.24"><defs><style>.cls-1{fill:#0fb5c5;}.cls-2{fill:#1c9da3;}.cls-3{fill:#b2892e;}.cls-4{fill:#fff;}.cls-5{fill:#f3ebda;}</style></defs><path class="cls-1" d="M530,347.39H508.56c-10.72,0-19.41-11.53-19.41-25.75h0c0-14.22,8.69-25.75,19.41-25.75H522c4.12,0,7.8-3.88,8.38-9.28.73-6.74-3.19-12.51-8.12-12.51H490.11c-.54,0-1-.59-1-1.31,0-14.44-8.84-26.13-19.72-26.13H353.24c-2.49,0-4.77-2.21-5.26-5.44-.66-4.41,1.86-8.28,5.07-8.28h81c5.08,0,9.62-4.73,10.42-11.39,1-8.51-3.91-15.85-10.13-15.85H201.49c-5.08,0-9.62,4.73-10.42,11.38-1,8.51,3.91,15.86,10.13,15.86H241c5.56,0,10.54,5.17,11.41,12.46,1.12,9.32-4.28,17.36-11.09,17.36H123.07c-24.22,0-43.85,26-43.85,58.18h0c0,28.43,15.37,52.09,35.69,57.16,3,.76,5.21,4.36,5.21,8.46v4.75c0,4.78-2.91,8.65-6.51,8.65h0c-17.82,0-32.26,19.16-32.26,42.8h0c0,23.65,14.44,42.81,32.26,42.81h.11c5.36,0,9.7,5.76,9.7,12.86v0c0,6.9-4,12.58-9.16,13.25a8,8,0,0,0-2.38.59c-9.11,4.36-15.94,15.31-16.68,28.71-1.06,19.49,10.53,35.73,25,35.73H491.24c13.14,0,24.45-13.14,25.5-30.52l0-.46c.42-8.42,5.59-15,12-15h4.59c11.47,0,20.76-12.33,20.76-27.54h0a27.87,27.87,0,0,0-15.31-24.93c-5.09-2.43-8.59-8.64-8.59-15.81v-.8c0-8.2,4.16-15.27,10.1-17.54,15.52-5.92,26.88-24.91,26.88-47.41h0C567.16,369.48,550.51,347.39,530,347.39Z" transform="translate(-37.57 -154.52)"/><path class="cls-1" d="M203.82,190.83a1.59,1.59,0,0,1-1.29-.71,3,3,0,0,1,0-3.42l7.26-9.64-7.95-10.54a3,3,0,0,1,0-3.43,1.53,1.53,0,0,1,2.58,0l9.24,12.26a3,3,0,0,1,0,3.43l-8.55,11.34A1.61,1.61,0,0,1,203.82,190.83Z" transform="translate(-37.57 -154.52)"/><path class="cls-1" d="M216.71,190.83a1.59,1.59,0,0,1-1.29-.71,3,3,0,0,1,0-3.42l7.26-9.64-8-10.54a3,3,0,0,1,0-3.43,1.53,1.53,0,0,1,2.58,0l9.24,12.26a3,3,0,0,1,0,3.43L218,190.12A1.62,1.62,0,0,1,216.71,190.83Z" transform="translate(-37.57 -154.52)"/><path class="cls-1" d="M229.59,190.83a1.62,1.62,0,0,1-1.29-.71,3,3,0,0,1,0-3.42l7.27-9.64-7.95-10.54a3,3,0,0,1,0-3.43,1.53,1.53,0,0,1,2.58,0l9.24,12.26a3,3,0,0,1,0,3.43l-8.56,11.34A1.59,1.59,0,0,1,229.59,190.83Z" transform="translate(-37.57 -154.52)"/><path class="cls-1" d="M242.48,190.83a1.62,1.62,0,0,1-1.29-.71,3,3,0,0,1,0-3.42l7.27-9.64-8-10.54a3,3,0,0,1,0-3.43,1.53,1.53,0,0,1,2.58,0l9.24,12.26a3,3,0,0,1,0,3.43l-8.56,11.34A1.59,1.59,0,0,1,242.48,190.83Z" transform="translate(-37.57 -154.52)"/><path class="cls-1" d="M255.37,190.83a1.61,1.61,0,0,1-1.29-.71,3,3,0,0,1,0-3.42l7.26-9.64-7.94-10.54a3,3,0,0,1,0-3.43,1.53,1.53,0,0,1,2.58,0l9.23,12.26a3,3,0,0,1,0,3.43l-8.55,11.34A1.61,1.61,0,0,1,255.37,190.83Z" transform="translate(-37.57 -154.52)"/><path class="cls-1" d="M373.92,197a1,1,0,0,1-.8-.43,1.87,1.87,0,0,1,0-2.12l4.48-5.94-4.9-6.5a1.85,1.85,0,0,1,0-2.11.94.94,0,0,1,1.59,0l5.7,7.56a1.85,1.85,0,0,1,0,2.11l-5.28,7A1,1,0,0,1,373.92,197Z" transform="translate(-37.57 -154.52)"/><path class="cls-1" d="M381.86,197a1,1,0,0,1-.79-.43,1.87,1.87,0,0,1,0-2.12l4.48-5.94-4.9-6.5a1.85,1.85,0,0,1,0-2.11.94.94,0,0,1,1.59,0l5.69,7.56a1.85,1.85,0,0,1,0,2.11l-5.27,7A1,1,0,0,1,381.86,197Z" transform="translate(-37.57 -154.52)"/><path class="cls-1" d="M389.81,197a1,1,0,0,1-.8-.43,1.87,1.87,0,0,1,0-2.12l4.48-5.94-4.9-6.5a1.85,1.85,0,0,1,0-2.11.94.94,0,0,1,1.59,0l5.7,7.56a1.85,1.85,0,0,1,0,2.11l-5.27,7A1,1,0,0,1,389.81,197Z" transform="translate(-37.57 -154.52)"/><path class="cls-1" d="M397.76,197a1,1,0,0,1-.8-.43,1.87,1.87,0,0,1,0-2.12l4.48-5.94-4.9-6.5a1.85,1.85,0,0,1,0-2.11.94.94,0,0,1,1.59,0l5.7,7.56a1.85,1.85,0,0,1,0,2.11l-5.28,7A1,1,0,0,1,397.76,197Z" transform="translate(-37.57 -154.52)"/><path class="cls-1" d="M405.7,197a1,1,0,0,1-.79-.43,1.87,1.87,0,0,1,0-2.12l4.48-5.94-4.9-6.5a1.85,1.85,0,0,1,0-2.11.94.94,0,0,1,1.59,0l5.69,7.56a1.85,1.85,0,0,1,0,2.11l-5.27,7A1,1,0,0,1,405.7,197Z" transform="translate(-37.57 -154.52)"/><path class="cls-1" d="M45.87,396.07a1,1,0,0,1-.8-.44,1.85,1.85,0,0,1,0-2.11l4.48-5.94-4.9-6.51a1.85,1.85,0,0,1,0-2.11.94.94,0,0,1,1.59,0l5.7,7.56a1.85,1.85,0,0,1,0,2.11l-5.28,7A1,1,0,0,1,45.87,396.07Z" transform="translate(-37.57 -154.52)"/><path class="cls-1" d="M53.81,396.07a1,1,0,0,1-.79-.44,1.85,1.85,0,0,1,0-2.11l4.48-5.94-4.9-6.51a1.85,1.85,0,0,1,0-2.11.94.94,0,0,1,1.59,0l5.69,7.56a1.85,1.85,0,0,1,0,2.11l-5.27,7A1,1,0,0,1,53.81,396.07Z" transform="translate(-37.57 -154.52)"/><path class="cls-1" d="M61.76,396.07a1,1,0,0,1-.8-.44,1.85,1.85,0,0,1,0-2.11l4.48-5.94-4.9-6.51a1.85,1.85,0,0,1,0-2.11.94.94,0,0,1,1.59,0l5.7,7.56a1.85,1.85,0,0,1,0,2.11l-5.28,7A1,1,0,0,1,61.76,396.07Z" transform="translate(-37.57 -154.52)"/><path class="cls-1" d="M69.71,396.07a1,1,0,0,1-.8-.44,1.85,1.85,0,0,1,0-2.11l4.48-5.94-4.9-6.51a1.85,1.85,0,0,1,0-2.11.94.94,0,0,1,1.59,0l5.7,7.56a1.85,1.85,0,0,1,0,2.11l-5.28,7A1,1,0,0,1,69.71,396.07Z" transform="translate(-37.57 -154.52)"/><path class="cls-1" d="M77.65,396.07a1,1,0,0,1-.79-.44,1.85,1.85,0,0,1,0-2.11l4.48-5.94-4.91-6.51a1.89,1.89,0,0,1,0-2.11,1,1,0,0,1,1.6,0l5.69,7.56a1.85,1.85,0,0,1,0,2.11l-5.27,7A1,1,0,0,1,77.65,396.07Z" transform="translate(-37.57 -154.52)"/><path class="cls-1" d="M510.25,328a1.08,1.08,0,0,1-.84-.46,2,2,0,0,1,0-2.24l4.73-6.28L509,312.19a2,2,0,0,1,0-2.23,1,1,0,0,1,1.69,0l6,8a2,2,0,0,1,0,2.23l-5.58,7.4A1.07,1.07,0,0,1,510.25,328Z" transform="translate(-37.57 -154.52)"/><path class="cls-1" d="M518.65,328a1.08,1.08,0,0,1-.84-.46,2,2,0,0,1,0-2.24l4.73-6.28-5.18-6.87a2,2,0,0,1,0-2.23,1,1,0,0,1,1.68,0l6,8a1.94,1.94,0,0,1,0,2.23l-5.57,7.4A1.08,1.08,0,0,1,518.65,328Z" transform="translate(-37.57 -154.52)"/><path class="cls-1" d="M527.05,328a1.07,1.07,0,0,1-.84-.46,2,2,0,0,1,0-2.24l4.73-6.28-5.18-6.87a2,2,0,0,1,0-2.23,1,1,0,0,1,1.68,0l6,8a1.94,1.94,0,0,1,0,2.23l-5.57,7.4A1.08,1.08,0,0,1,527.05,328Z" transform="translate(-37.57 -154.52)"/><path class="cls-1" d="M535.44,328a1.1,1.1,0,0,1-.84-.46,2,2,0,0,1,0-2.24l4.74-6.28-5.18-6.87a1.94,1.94,0,0,1,0-2.23,1,1,0,0,1,1.68,0l6,8a2,2,0,0,1,0,2.23l-5.57,7.4A1.1,1.1,0,0,1,535.44,328Z" transform="translate(-37.57 -154.52)"/><path class="cls-1" d="M543.84,328a1.08,1.08,0,0,1-.84-.46,2,2,0,0,1,0-2.24l4.73-6.28-5.17-6.87a1.94,1.94,0,0,1,0-2.23,1,1,0,0,1,1.68,0l6,8a2,2,0,0,1,0,2.23l-5.58,7.4A1.07,1.07,0,0,1,543.84,328Z" transform="translate(-37.57 -154.52)"/><ellipse class="cls-1" cx="130.66" cy="64.47" rx="10.72" ry="14.22"/><ellipse class="cls-1" cx="10.72" cy="335.98" rx="10.72" ry="14.22"/><path class="cls-1" d="M358.47,188.26c0,1.92-1.17,3.48-2.62,3.48s-2.62-1.56-2.62-3.48,1.17-3.48,2.62-3.48S358.47,186.34,358.47,188.26Z" transform="translate(-37.57 -154.52)"/><path class="cls-1" d="M318.1,158.45c0,2.17-1.33,3.93-3,3.93s-3-1.76-3-3.93,1.33-3.93,3-3.93S318.1,156.28,318.1,158.45Z" transform="translate(-37.57 -154.52)"/><path class="cls-1" d="M70.78,344.11c0,1.93-1.17,3.49-2.62,3.49s-2.62-1.56-2.62-3.49,1.17-3.48,2.62-3.48S70.78,342.19,70.78,344.11Z" transform="translate(-37.57 -154.52)"/><path class="cls-1" d="M61.42,452.79c0,2.18-1.33,3.94-3,3.94s-3-1.76-3-3.94,1.32-3.93,3-3.93S61.42,450.62,61.42,452.79Z" transform="translate(-37.57 -154.52)"/><path class="cls-1" d="M85.25,556.76c0,2.17-1.33,3.93-3,3.93s-3-1.76-3-3.93,1.33-3.94,3-3.94S85.25,554.58,85.25,556.76Z" transform="translate(-37.57 -154.52)"/><path class="cls-1" d="M549.37,455.74c0,2.17-1.33,3.93-3,3.93s-3-1.76-3-3.93,1.33-3.94,3-3.94S549.37,453.56,549.37,455.74Z" transform="translate(-37.57 -154.52)"/><ellipse class="cls-1" cx="514.79" cy="126.81" rx="9.35" ry="12.41"/><ellipse class="cls-1" cx="538.36" cy="352.82" rx="9.35" ry="12.41"/><path class="cls-2" d="M309.6,241.41c3.4,5.92,8.82,10.05,13.41,14.9,2.59,2.73,2.89,4.5-.42,6.57-1.28.8-2.24,2.11-3.52,2.9-4,2.46-4,4.88.12,7,7.59,3.82,9,9.61,6.34,17.26-1,2.83-.95,6-1.61,9-1,4.43-2.16,8.76,4.68,9.31.81.06,1.81,1.27,2.22,2.18,4.37,9.73,13.17,17.74,11.62,29.79-.47,3.65,2.48,4.08,4.89,5,12.47,4.58,24.88,9.33,37.44,13.65,3.92,1.35,5.58,3.39,5.72,7.44.21,6.1,1.09,12.18,1.18,18.28.06,4.23,1.62,5.87,5.82,5.57,3.44-.25,6.92-.05,10.26-.05.94,2.65-1,3.56-2,4.75-10.32,12.7-20.81,25.25-31.06,38-2.37,2.94-4.64,4.31-8.32,2.7-2.77-1.22-4.83-.09-5.29,2.83-1.64,10.31-9,15.22-17.49,19.31-4.31,2.07-8.28,4.84-12.51,7.08-3.47,1.82-4.61,4.12-1.69,7.13,3.8,3.92,4.5,8.72,4.73,13.82.45,10,.9,20,1.58,30,.25,3.66-.38,6.07-4.66,5.81-10.94-.65-16,5.22-17.33,15.45-.34,2.56-.61,6.15-2.28,7.33-5.28,3.73-9.89,8.92-15.18,11.67-5.92,3.08-14,1.84-21.18,2.7-3.15.38-3.71-1.11-3.73-3.72,0-4.8-.57-9.61-.3-14.38,1.22-22-8.34-41.67-13-62.38-3.57-15.71-7.69-31.31-11.93-46.86-1.32-4.84.18-6.19,4.68-6.45,8.43-.49,16.83-1.28,25.48-2-1.23-2.25-3.19-2.18-4.77-2.05-6,.46-8.46-2-7.44-8,.88-5.09-1-8.83-5.44-11.46-1.3-.78-2.29-2.06-3.59-2.83-7.29-4.32-10.92-10.14-8.54-18.9,1-3.67-.61-6.58-3.3-9.29-5.37-5.42-10.3-11.27-15.66-16.7-2.48-2.52-2.63-4.15-.12-6.89,7.8-8.52,15.44-17.21,22.77-26.14,3.27-4,5.78-5.83,8.84.23,2.64-2.22,2.71-5.24,4-7.61,1.11-2.09.54-3.6-.91-5.28a3.77,3.77,0,0,0-5.23-.94c-5.29,3.22-6.94.05-8.82-4.24-5.51-12.57-5.64-12.51,5.56-20.58,2.47-1.79,4.77-3.88,7.42-5.34,7.39-4.07,11.46-9.75,12-18.55.49-7.78,9-7.83,13.67-11.56,3.35-2.67,5.67,1.13,7.7,2.89,3.58,3.08,6.1,3.46,8.66-1a85.74,85.74,0,0,1,5.25-7.37Z" transform="translate(-37.57 -154.52)"/><path class="cls-3" d="M350.13,565.05" transform="translate(-37.57 -154.52)"/><path class="cls-4" d="M301.68,267.43c-2,1.93-1.16,3.26.77,4.65,2.83,2,5.3,4.67,8.31,6.33,5.62,3.1,6.29,7.37,4.82,13.11-1.51,5.89-2.18,12-3.31,18-.58,3.05,0,4.58,3.54,5.45,8.1,2,16.78,13.95,17.05,22.58.42,12.87.41,12.89,12.48,17.34,10.2,3.76,20.38,7.6,30.68,11.09,3.66,1.24,5.16,3.15,5.3,7,.23,7,1.17,13.91,1.38,20.88.11,3.79.34,6.87,6.38,6.09-7.07,8.63-13.41,16.06-19.36,23.78-2.75,3.56-5.71,1.5-8.22.69-4.16-1.34-6.23-.17-7,3.86-2.25,11.95-9.57,19.39-20.58,23.84-3.2,1.3-6.06,3.42-9.08,5.16-8.36,4.84-9.93,11.79-3.74,19.56,3.06,3.83,3.07,7.93,3.29,12.25.33,6.31.57,12.63,1.12,18.93.29,3.47-.68,5.7-4.4,5.49-8.75-.48-13,3.87-14.07,12.25-.36,2.77-1.9,5.37-2.33,8.14-.59,3.81-2.58,5.14-6.23,4.86-3.35-.27-5.9.32-6.08,4.7-.27,6.39-5.64,4.06-9,4.46-4.19.49-2.75-3.36-2.6-5.12,2-24-8.75-45.51-13.74-68.12-2.67-12.11-5.86-24.12-9.15-36.07-1-3.71,0-4.53,3.46-4.75,8.48-.54,16.93-1.52,25.4-2.08,3.21-.21,4.38-1.31,4.62-4.67,1-13.64,1.12-13.76-12.69-15.18-3.42-.35-5.42-1.14-4.71-4.92.81-4.29-1.29-7-4.64-9.18-1.45-1-2.6-2.4-4.1-3.24-7.66-4.3-11-10.52-9.11-19.33.72-3.27-.59-5.76-2.93-8.12-4.6-4.64-8.83-9.65-13.39-14.33-1.93-2-2.06-3.25-.05-5.33a149.63,149.63,0,0,0,10.75-12.31c2.6-3.34,4.5-4.28,6.87.11,1.11,2.06,2.83,3.78,4.9,6.46,4.19-10.79,8.09-20.87,12-30.92.77-1.94,0-3.27-1.24-4.66q-3.5-3.9-6.78-8c-1.89-2.33-3.71-4.32-7.07-2.29-1.3.79-3,1.17-3.94-.7-1.07-2.05.8-2.71,1.91-3.52,5.95-4.41,11.83-9,18-13,3.65-2.39,5.46-5.33,5.65-9.61a26,26,0,0,1,1.11-6.42c1.36-4.45,5.56-5.69,9.48-3.14,3.44,2.24,6.13,5.6,10.25,6.8.45.27.59.54.42.79S301.84,267.43,301.68,267.43Z" transform="translate(-37.57 -154.52)"/><path class="cls-5" d="M301.68,267.43a3.18,3.18,0,0,1,.05-1.15c1.92-2.59,3.83-5.18,5.76-7.77.79-1.07,1.76-2.26,3.12-1.06,1.7,1.48.42,2.64-.81,3.62C307.11,263.21,304.39,265.31,301.68,267.43Z" transform="translate(-37.57 -154.52)"/></svg>