<svg id="Layer_1" data-name="Layer 1" xmlns="http://www.w3.org/2000/svg" xmlns:xlink="http://www.w3.org/1999/xlink" viewBox="0 0 570.86 657.62"><defs><style>.cls-1{fill:none;}.cls-2{fill:#fff;}.cls-3{clip-path:url(#clip-path);}.cls-4{fill:#cdd5d3;}.cls-5{fill:#fec23c;}.cls-6{fill:#faa531;}.cls-7{fill:#e8e5e5;}.cls-8{fill:#cfcecd;}.cls-9{fill:#ea5746;}.cls-10{clip-path:url(#clip-path-2);}.cls-11{fill:#d13531;}.cls-12{fill:#24b1b6;}</style><clipPath id="clip-path" transform="translate(-20.57 -67.19)"><path class="cls-1" d="M412.45,526.22v-.69H66.19v.07c-20.85.63-37.57,18-37.57,39.37A38,38,0,0,0,67,603.5c2.66,0,5.14.12,8.15.1H411.72C394.05,599.93,387,584,387,565,387,545.64,394.43,529.6,412.45,526.22Z"/></clipPath><clipPath id="clip-path-2" transform="translate(-20.57 -67.19)"><path class="cls-1" d="M581.54,633.09v-.68H235.27v.06c-20.84.64-37.56,18-37.56,39.38a38,38,0,0,0,38.35,38.51c2.66,0,5.15.13,8.15.11H580.8c-17.67-3.67-24.69-19.56-24.69-38.62C556.11,652.51,563.52,636.46,581.54,633.09Z"/></clipPath></defs><path class="cls-2" d="M412.45,526.22v-.69H66.19v.07c-20.85.63-37.57,18-37.57,39.37A38,38,0,0,0,67,603.5c2.66,0,5.52.19,8.15.1H411.72C394.05,599.93,387,584,387,565,387,545.64,394.43,529.6,412.45,526.22Z" transform="translate(-20.57 -67.19)"/><g class="cls-3"><rect class="cls-4" x="6.49" y="468.14" width="388.65" height="3.79"/><rect class="cls-4" x="6.49" y="487.26" width="388.65" height="3.77"/><rect class="cls-4" x="6.49" y="506.38" width="388.65" height="3.79"/><rect class="cls-4" x="6.49" y="515.93" width="388.65" height="3.79"/><rect class="cls-4" x="6.49" y="525.49" width="388.65" height="3.79"/><rect class="cls-4" x="6.49" y="496.82" width="388.65" height="3.78"/><rect class="cls-4" x="6.49" y="477.71" width="388.65" height="3.77"/></g><path class="cls-5" d="M393.9,67.19H66.82c-.47,0-.92,0-1.39.08V533.6c.47,0,.92.08,1.39.08H393.9a28,28,0,0,0,28-27.77V95A27.93,27.93,0,0,0,393.9,67.19Z" transform="translate(-20.57 -67.19)"/><path class="cls-6" d="M69,603.54a13.11,13.11,0,0,1-1.44-.2c1.44.2-.76-16-.76-35.55s3.37-34.27,1-34.47c-.35,0,2,.19,2.33.2L68.9,145.32l1.17-.06v-78c-.75,0-1.46-.11-2.21-.11-21.79,0-42.24,12.94-45.56,31.54-.74,4.15-.81,13.51-.74,16.8,0,0-1,451.38-1,453.26a38.89,38.89,0,0,0,.44,5.52v1.2h.21c3.56,20.48,23.05,36.14,46.64,36.14.34,0,.69,0,1-.06Z" transform="translate(-20.57 -67.19)"/><path class="cls-7" d="M414.86,531.92s-30.43,40.59,1.85,72.13H43.15l-1.87-77.13Z" transform="translate(-20.57 -67.19)"/><path class="cls-8" d="M41.28,574.8c5-3.77,63-47.68,366.19-30,0,0,.86-6.93,7.86-13.1l-369-8.45Z" transform="translate(-20.57 -67.19)"/><path class="cls-5" d="M46.26,558.13v-10c0-17.83,13.73-16.4,13.73-16.4H422.34V511.22H56.25c-7.68,0-13,2.35-16.73,5.74h0c-.33.3-.64.61-.93.92l-.09.09c-.17.19-.35.34-.5.53-6.92,7.37-33.73,40.79-2.88,88.06,3.4,6.15,9.66,11.37,21.15,11.37H422.34V597.46H60s-13.73,1.45-13.73-16.38v-23Z" transform="translate(-20.57 -67.19)"/><path class="cls-6" d="M60,597.46s-13.73,1.45-13.73-16.38v-33c0-17.83,13.73-16.4,13.73-16.4h63.14V511.22H56.25c-7.68,0-13,2.35-16.73,5.74h0c-.33.3-.64.61-.93.92l-.09.09c-.17.19-.35.34-.5.53-6.92,7.37-33.73,40.79-2.88,88.06,3.4,6.15,9.66,11.37,21.15,11.37h66.88V597.46Z" transform="translate(-20.57 -67.19)"/><path class="cls-9" d="M168.84,566.32c-13.57-2.72-30.63-1.43-30.63-1.43s19.31,13,18.38,41.47l14.74-19.48,20.33,14S185.27,572.46,168.84,566.32Z" transform="translate(-20.57 -67.19)"/><rect class="cls-6" x="46.25" width="56.31" height="444.04"/><path class="cls-9" d="M345.89,164.33c0,8-4.95,14.39-11.06,14.39h-213c-6.12,0-11.07-6.43-11.07-14.39v-3.58c0-8,5-14.39,11.07-14.39h213c6.11,0,11.06,6.43,11.06,14.39Z" transform="translate(-20.57 -67.19)"/><path class="cls-9" d="M319,207.5c0,7.94-3.62,14.39-8.1,14.39H154.79c-4.48,0-8.11-6.45-8.11-14.39v-3.61c0-7.94,3.63-14.39,8.11-14.39H310.85c4.48,0,8.1,6.45,8.1,14.39Z" transform="translate(-20.57 -67.19)"/><path class="cls-2" d="M581.54,633.09v-.68H235.27v.06c-20.84.64-37.56,18-37.56,39.38a38,38,0,0,0,38.35,38.51c2.66,0,5.53.2,8.15.11H580.8c-17.67-3.67-24.69-19.56-24.69-38.62C556.11,652.51,563.52,636.46,581.54,633.09Z" transform="translate(-20.57 -67.19)"/><g class="cls-10"><rect class="cls-4" x="175.57" y="575" width="388.65" height="3.79"/><rect class="cls-4" x="175.57" y="594.13" width="388.65" height="3.77"/><rect class="cls-4" x="175.57" y="613.25" width="388.65" height="3.78"/><rect class="cls-4" x="175.57" y="622.8" width="388.65" height="3.79"/><rect class="cls-4" x="175.57" y="632.36" width="388.65" height="3.79"/><rect class="cls-4" x="175.57" y="603.69" width="388.65" height="3.77"/><rect class="cls-4" x="175.57" y="584.57" width="388.65" height="3.79"/></g><path class="cls-9" d="M563,174.06H235.91c-.47,0-.93.05-1.39.06V640.47c.46,0,.92.06,1.39.06H563a27.93,27.93,0,0,0,27.94-27.75V201.83A27.93,27.93,0,0,0,563,174.06Z" transform="translate(-20.57 -67.19)"/><path class="cls-11" d="M238.11,710.41a10.58,10.58,0,0,1-1.45-.21c1.45.21-.75-16-.75-35.55s3.37-34.27,1-34.46l2.33.19L238,252.18c.39,0,.78,0,1.17,0v-78c-.75,0-1.46-.09-2.21-.09-21.79,0-42.24,12.95-45.57,31.53-.73,4.15-.8,13.52-.73,16.8,0,0-1,451.4-1,453.28a40.39,40.39,0,0,0,.43,5.51v1.2h.21c3.57,20.46,23.06,36.12,46.65,36.12.34,0,.68,0,1,0Z" transform="translate(-20.57 -67.19)"/><path class="cls-7" d="M584,638.79s-30.43,40.59,1.85,72.13H212.24l-1.88-77.13Z" transform="translate(-20.57 -67.19)"/><path class="cls-8" d="M210.36,681.66c5-3.76,63-47.67,366.2-30,0,0,.86-6.92,7.86-13.08l-369-8.46Z" transform="translate(-20.57 -67.19)"/><path class="cls-9" d="M215.35,665V655c0-17.84,13.73-16.39,13.73-16.39H591.43V618.1H225.33c-7.67,0-13,2.34-16.72,5.73h0c-.32.3-.63.61-.93.91l-.08.11a6.14,6.14,0,0,0-.5.52c-6.92,7.37-33.73,40.79-2.88,88,3.39,6.17,9.65,11.39,21.14,11.39h366.1V704.33H229.08s-13.73,1.45-13.73-16.37V665Z" transform="translate(-20.57 -67.19)"/><path class="cls-11" d="M229.08,704.33s-13.73,1.45-13.73-16.37V655c0-17.84,13.73-16.39,13.73-16.39h63.14V618.1H225.33c-7.67,0-13,2.34-16.72,5.73h0c-.32.3-.63.61-.93.91l-.08.11a6.14,6.14,0,0,0-.5.52c-6.92,7.37-33.73,40.79-2.88,88,3.39,6.17,9.65,11.39,21.14,11.39h66.89V704.33Z" transform="translate(-20.57 -67.19)"/><path class="cls-5" d="M337.93,673.2c-13.58-2.73-30.63-1.45-30.63-1.45s19.3,12.94,18.38,41.49l14.74-19.49,20.32,14S354.36,679.33,337.93,673.2Z" transform="translate(-20.57 -67.19)"/><rect class="cls-11" x="215.34" y="106.87" width="56.31" height="444.04"/><path class="cls-5" d="M365.18,392.66H315.3l-8.59,45.7H264.94l51.34-212.52h48.9l51.33,212.52H373.77Zm-7.13-36.49-17.93-93.83-17.94,93.83Z" transform="translate(-20.57 -67.19)"/><rect class="cls-6" x="362.38" y="265.38" width="164.11" height="256.18"/><path class="cls-12" d="M522.31,491.89c0,39.74-25.79,50.81-60.86,50.81H416.51V368.38H456c37.49,0,60.46,11.81,60.46,44.52,0,22.13-12.7,33.71-25.6,37.48C506.39,454.15,522.31,463.71,522.31,491.89Zm-72.75-94.33v40.49h12.3c13.7,0,21-6.54,21-21.13s-7.66-19.36-23.58-19.36Zm38.69,92.06c0-17.61-9.87-24.15-24.18-24.15H449.56v47.29h12.1C477.18,512.76,488.25,508.74,488.25,489.62Z" transform="translate(-20.57 -67.19)"/></svg>