<svg id="Layer_1" data-name="Layer 1" xmlns="http://www.w3.org/2000/svg" viewBox="0 0 548.8 600.58"><defs><style>.cls-1{fill:#fdfcfc;}.cls-1,.cls-2{stroke:#231f20;}.cls-1,.cls-18,.cls-2{stroke-miterlimit:10;}.cls-1,.cls-18{stroke-width:2px;}.cls-18,.cls-2{fill:#fff;}.cls-2{stroke-width:3px;}.cls-3{fill:#6d6229;}.cls-4{fill:#6e6329;}.cls-5{fill:#ccc282;}.cls-6{fill:#f05325;}.cls-7{fill:#6d6228;}.cls-8{fill:#ec5626;}.cls-9{fill:#6d6329;}.cls-10{fill:#6e662c;}.cls-11{fill:#7e733b;}.cls-12{fill:#de6340;}.cls-13{fill:#dfd6a7;}.cls-14{fill:#fffefc;}.cls-15{fill:#fffefd;}.cls-16{fill:#fefefa;}.cls-17{fill:#238441;}.cls-18{stroke:#fff;}.cls-19{fill:#d92727;}.cls-20{fill:#128481;}.cls-21{fill:#b5b5b5;}.cls-22{fill:#e8e5e5;}.cls-23{fill:#e2e0df;}.cls-24{fill:#d8d6d6;}.cls-25{font-size:24.46px;letter-spacing:0.7em;}.cls-25,.cls-26,.cls-27,.cls-28,.cls-29,.cls-30{fill:#231f20;}.cls-25,.cls-26{font-family:Poppins-SemiBold, Poppins;font-weight:600;}.cls-26{font-size:24.46px;letter-spacing:0.7em;}.cls-27,.cls-28,.cls-30{font-size:19.15px;}.cls-27,.cls-28,.cls-29{font-family:Poppins-Medium, Poppins;font-weight:500;}.cls-27{letter-spacing:0.1em;}.cls-28,.cls-31{letter-spacing:0.1em;}.cls-29{font-size:19.15px;letter-spacing:0.1em;}.cls-30{font-family:MVBoli, MV Boli;letter-spacing:0.1em;}</style></defs><polygon class="cls-1" points="547.73 396.89 439.02 595.86 433.89 595.86 433.89 599.59 109.78 599.59 1.07 400.61 109.78 4.72 114.92 4.72 114.92 1 439.02 1 547.73 396.89"/><polygon class="cls-2" points="507.82 382.78 414.98 552.7 410.6 552.7 410.6 555.88 133.82 555.88 40.98 385.96 133.82 47.88 138.21 47.88 138.21 44.7 414.98 44.7 507.82 382.78"/><path class="cls-3" d="M247.21,234.23c2.71-3.15,6.4-4.32,10.67-5.39-4.73,3.85-4.51,5.67.61,8,5.87,2.72,12.24,3.33,18.53,3.8,11.15.82,22.3.73,33.29-1.74,1.52-.35,3-.88,4.51-1.32a8.65,8.65,0,0,1,4.26-2c2-1.09,2.57-2.65,1.23-5a14.8,14.8,0,0,1,1.89.83c1.46.93,3.14,1.73,3.18,3.82s-1.53,3-3.05,3.86c-4.72,2.65-9.95,3.67-15.19,4.42a138.4,138.4,0,0,1-46.12-.85,68.31,68.31,0,0,1-6.87-1.86,14.63,14.63,0,0,1-6.94-4.31Z" transform="translate(-23.15 -83.21)"/><path class="cls-4" d="M247.21,217.1c2.27-2.75,5.93-4.66,8.89-4.65.18.62-.39.78-.68,1.11-1.55,1.75-1.44,3.13.49,4.56a20.78,20.78,0,0,0,8.31,3.34,112.78,112.78,0,0,0,47.59-.13,23.86,23.86,0,0,0,6.66-2.46c2.48-1.41,2.93-2.46,2.21-5.16a4.11,4.11,0,0,1,2.12.92c3.55,2.25,3.57,4.94,0,7.07-4.09,2.42-8.65,3.51-13.26,4.24-17.29,2.71-34.54,2.79-51.67-1.18-3.94-.91-7.72-2.25-10.63-5.28Z" transform="translate(-23.15 -83.21)"/><path class="cls-5" d="M291.07,404.21a1.8,1.8,0,0,1-.08.39h-6.66a1.42,1.42,0,0,1-.12-.4A6.67,6.67,0,0,1,291.07,404.21Z" transform="translate(-23.15 -83.21)"/><path class="cls-6" d="M269.4,161.78c5.47-13.09,14.52-22.28,26.27-29.89a38.14,38.14,0,0,0,.27,11.12,37.58,37.58,0,0,0,8.5,17.81c4.13,5.05,8,10.23,10.09,17.11A35.7,35.7,0,0,0,320,162.09a27.68,27.68,0,0,1,3.15,10c2.09,15.08-1.34,28.46-12.34,39.47a5.72,5.72,0,0,1-2.83,1.63,36.46,36.46,0,0,1-22.62-1.68,2.75,2.75,0,0,1-1.77-1.45c-3.79-9.83-5.1-16.91.46-28.47-.14,5.36.27,10.11,2.72,14.35a25.93,25.93,0,0,0,10.37,10.29c0-5,.15-9.57,1.81-14.54A13.79,13.79,0,0,0,295,196.8c-.84,2-1.87,1.54-3.12.7-2.58-1.74-3.81-4.39-4.7-7.23-1.42-4.5-1.62-9.17-1.83-13.8-.59-.22-.8.19-1,.48-5.23,6.85-8.14,14.45-7.53,23.19.19,2.66-.14,2.87-2.63,1.71-1-.45-1.91-1-2.95-1.54,2.59,8.33,10.81,13.86,23.74,16.07-.28.84-1,.59-1.57.62A69.64,69.64,0,0,1,271,215.05a9.34,9.34,0,0,1-4.09-2.3c-11.92-11-15.82-24.79-13.67-40.57a8.94,8.94,0,0,1,.36-1.13c2.54,3.07,4.67,6.29,7.77,8.81-3.41-14.72-1.51-25.54,5.78-32.23A110.86,110.86,0,0,0,269.4,161.78Z" transform="translate(-23.15 -83.21)"/><path class="cls-7" d="M291.07,404.21h-6.86a24,24,0,0,1-8.84-2.58,6.37,6.37,0,0,1-3.45-5.52c-1.63-22.45-3.4-44.89-5.11-67.33q-1.76-23.11-3.49-46.23c-.88-11.61-1.82-23.22-2.67-34.84,0-.81-1-2.19.6-2.5,2-.39,3.93.87,4,2.4q2,31.22,3.93,62.41,2.21,34.53,4.48,69.05c.26,4.12.48,8.23.73,12.35,0,.47,0,.95.1,1.42.16,1.44,1.47,1.49,2.35,1.48,1.06,0,.57-1.09.54-1.7q-1.56-32.07-3.15-64.14-2-39.78-3.85-79.57c0-.68-1-2.22.9-2,1.21.19,3.07-.75,3.17,1.93.86,23.45,1.84,46.9,2.81,70.34q1.51,36.84,3.12,73.66c0,.75-.46,1.76.65,2.31,1.78.86,2.75.27,2.71-1.8q-.6-31.86-1.21-63.73-.74-39.48-1.46-79c0-1.08.44-2.4-1.58-3.16a131.17,131.17,0,0,0,35.35-2.7c-.4,5.59-.77,11-1.17,16.45q-2.06,27.61-4.12,55.24c-1.37,18.25-2.79,36.5-4.16,54.76-.64,8.45-1.28,16.91-1.81,25.37a5.56,5.56,0,0,1-2.85,4.62A21.81,21.81,0,0,1,291.07,404.21Z" transform="translate(-23.15 -83.21)"/><path class="cls-4" d="M276.65,229.85c5.74-.32,11.43-.08,17.12-.29a87.81,87.81,0,0,0,16.25-1.9c2-.44,2.71,0,2.53,2.13s0,4.28-.05,6.42c0,1.22-2.59,2.82-3.62,2.2-.74-.44-.36-1.29-.37-1.95-.08-3.85-.06-3.72-3.84-3.83-2.22-.07-3.28.48-2.83,2.84a6.64,6.64,0,0,1,0,1.18c0,2.51-1.86,3.87-4.4,3.26-.46-.11-.68-.32-.71-.77l0-1.18c-.1-5.78-.1-5.75-5.93-6-.91,0-1.35.14-1.32,1.11a21.63,21.63,0,0,1,0,3.32c-.15,1.28.75,3.19-.55,3.7-1.52.58-3.43.21-5.16.13-.89,0-.77-.85-.78-1.47,0-2-.13-4,0-5.94.12-1.57-.57-2.07-1.94-2.24S278.11,230.1,276.65,229.85Z" transform="translate(-23.15 -83.21)"/><path class="cls-8" d="M302.34,152.41a22,22,0,0,1-2.73-5.85c-1.4-5.1.19-9.29,4.6-12.34a22.15,22.15,0,0,1,5.27-2.67c2.86-1,5.59-2.13,7.59-4.61-.37,4.75-3,8.17-6.41,11.08-1.26,1.07-2.65,2-3.93,3-1.6,1.32-2.15,3.26-2.86,5.1-.59,1.65-.15,3.37-.27,5.05C303.54,152,303.59,152.89,302.34,152.41Z" transform="translate(-23.15 -83.21)"/><path class="cls-9" d="M287.55,221.77c-6.8-.22-13.92-.42-20.85-2.33a10.3,10.3,0,0,1-4.06-1.86c-.64-.54-1.11-1.29-.42-2.06s1.1-1.58,2.34-.9c9.3,5.11,19.41,5.18,29.58,4.58,6-.36,12-1.32,17.25-4.58,1.08-.66,1.68,0,2.2.64a1.56,1.56,0,0,1-.43,2.45,15.13,15.13,0,0,1-5.94,2.25C300.85,221.39,294.37,221.62,287.55,221.77Z" transform="translate(-23.15 -83.21)"/><path class="cls-10" d="M314.76,237.1c-.76-3.11-.47-6.28-.24-9.37.15-2,2.68-.89,4.07-2.59v10A4.33,4.33,0,0,1,314.76,237.1Z" transform="translate(-23.15 -83.21)"/><path class="cls-11" d="M265.94,233.35a11.86,11.86,0,0,1,0,2.6c-.18.76.93,2.38-1,2.14-1.34-.17-3.18.11-3.07-2.28s0-4.58,0-6.87c0-.54-.43-1.8.71-1.49s3.13-.47,3.37,1.64A37.82,37.82,0,0,1,265.94,233.35Z" transform="translate(-23.15 -83.21)"/><path class="cls-12" d="M302.34,152.41c1.28-.18.92-1.18,1-2,.17-1.42-.5-3,.52-4.26a25.44,25.44,0,0,0,1,9.41A7.7,7.7,0,0,1,302.34,152.41Z" transform="translate(-23.15 -83.21)"/><path class="cls-13" d="M314.76,237.1l3.83-1.92c.16.16.33.32.49.49a8.16,8.16,0,0,1-4.26,2Z" transform="translate(-23.15 -83.21)"/><path class="cls-14" d="M292.87,323.06l1.26-69.45a15.35,15.35,0,0,0,.06-1.66c-.17-1.62.46-1.94,2.05-1.74,4.48.57,4.52.48,4.35,4.83l-3.93,99.81q-.75,19.13-1.49,38.26c-.05,1.22-.22,1.95-1.73,2.22-1.89.34-1.91-.49-1.89-1.88.19-9.19.33-18.39.51-27.58q.4-21.4.86-42.81Z" transform="translate(-23.15 -83.21)"/><path class="cls-15" d="M284.42,251.17c-.05-1.9.4-2.45,2.35-2.1,4.1.75,4.1.66,4,4.8q-.56,34.35-1.09,68.71h0L288.64,393c0,.56,0,1.11,0,1.67s-.25,1-1,1-.91-.44-.9-1.06,0-1,0-1.43Q285.94,341,285.14,289" transform="translate(-23.15 -83.21)"/><path class="cls-16" d="M301.44,322.66q1.68-35,3.33-70.06c.15-3.25,2.41-1.58,3.77-1.83,1.8-.33,1.26,1,1.21,2Q308.4,275,307,297.14q-1.8,28.71-3.66,57.41-1.17,18.51-2.29,37a9.36,9.36,0,0,1-.08,1.18c-.22,1.26-1.34,1.3-2.21,1.33-1.2,0-.66-1-.63-1.59q1-22.46,2.08-44.89.58-12.47,1.21-24.94Z" transform="translate(-23.15 -83.21)"/><polygon class="cls-17" points="509.38 385.2 412.17 555.12 135.39 558.3 42.55 388.38 84.68 244 464.46 230.98 509.38 385.2"/><path class="cls-17" d="M106.27,374.73V324.79c2-3.67,5.14-5.43,8.37-7.19,13.3-7.26,25.07-17.31,36.61-28,8.53-7.89,16.65-17.45,28.6-17.88a4.58,4.58,0,0,0,2.44-.73c10.36-7.2,22.71-7.25,33.39-13.34a45,45,0,0,1,12.11-4.31c3.13-.76,6.57-1.53,9.34.31,8.83,6,18.88,8.92,27.45,15.2,8.07,5.9,15.8,6.3,24.09,2.18a100.8,100.8,0,0,0,18.38-11.8A82.36,82.36,0,0,1,323.12,249h2.54c2.78,1.45,4,4.17,5.13,7.47,2.83,8.54,7.25,9.12,12,1.89,6-9.15,9.85-9.53,16.87-1.71,1.69,1.88,3.37,3.86,5.06,5.71,3.61,4.07,7.77,5.32,12.12,2.08,5.15-3.86,9.67-2.84,15.41-.7,12.21,4.55,24.33,9.66,36.79,13.33a11,11,0,0,1,3.66,1.12c14.74,11,32.27,14,47.41,23.85,3.28,2.16,5.81,4.86,6,9.7v34.42c-.39,9.67.83,19.34-.65,29a24.34,24.34,0,0,1-6.32.28h-366C110.82,375.45,108.45,376.21,106.27,374.73Z" transform="translate(-23.15 -83.21)"/><line class="cls-18" x1="233.16" y1="195.96" x2="156.58" y2="420.98"/><line class="cls-18" x1="179.83" y1="420.98" x2="242.73" y2="198.69"/><path class="cls-18" d="M226.23,280.54" transform="translate(-23.15 -83.21)"/><line class="cls-18" x1="285.13" y1="197.33" x2="380.85" y2="428.44"/><line class="cls-18" x1="303.97" y1="198.69" x2="393.16" y2="420.98"/><line class="cls-18" x1="233.16" y1="195.96" x2="303.97" y2="198.69"/><line class="cls-18" x1="238.59" y1="213.34" x2="292.13" y2="214.23"/><line class="cls-18" x1="232.59" y1="234.53" x2="300.54" y2="234.53"/><line class="cls-18" x1="228.1" y1="250.39" x2="306.5" y2="248.93"/><line class="cls-18" x1="223.26" y1="267.5" x2="314.19" y2="267.5"/><line class="cls-18" x1="223.26" y1="286.22" x2="314.19" y2="286.22"/><line class="cls-18" x1="212.95" y1="303.95" x2="329.29" y2="303.95"/><line class="cls-18" x1="207.51" y1="323.15" x2="332.99" y2="323.15"/><line class="cls-18" x1="207.51" y1="339.55" x2="342.93" y2="336.89"/><line class="cls-18" x1="194.87" y1="367.83" x2="354.52" y2="364.87"/><line class="cls-18" x1="187.64" y1="393.36" x2="364.03" y2="387.82"/><line class="cls-18" x1="181.41" y1="415.39" x2="375.45" y2="415.39"/><path class="cls-19" d="M242.14,530a10.79,10.79,0,0,1-1.5-.09,12.18,12.18,0,0,1-8.19-4.62l-21.57-27.55a9.87,9.87,0,0,1,15.55-12.17l19,24.34a7.37,7.37,0,1,1-11.6,9.09L215.93,496a1.3,1.3,0,1,1,2-1.6l17.95,22.93a4.78,4.78,0,1,0,7.52-5.9l-19.05-24.33a7.28,7.28,0,1,0-11.46,9l21.56,27.55a9.6,9.6,0,0,0,6.46,3.65,9.7,9.7,0,0,0,8.81-15.6l-12.89-16.46a1.3,1.3,0,0,1,2-1.6l12.88,16.47A12.27,12.27,0,0,1,242.14,530Z" transform="translate(-23.15 -83.21)"/><path class="cls-20" d="M311.62,636.57c0,5.77-6,10.44-13.37,10.44s-13.38-4.67-13.38-10.44,6-10.43,13.38-10.43S311.62,630.81,311.62,636.57Z" transform="translate(-23.15 -83.21)"/><polygon class="cls-3" points="412.35 559.92 136.02 559.92 140.59 385.22 408.86 385.22 412.35 559.92"/><path class="cls-21" d="M309.07,636.59c0,4.56-4.85,8.26-10.82,8.26s-10.84-3.7-10.84-8.26,4.85-8.27,10.84-8.27S309.07,632,309.07,636.59Z" transform="translate(-23.15 -83.21)"/><path class="cls-22" d="M298.81,469.11s16.36-9,40.43-7.87,87.64,8.46,87.64,8.46V637s-66.34-10.54-103.07-7.62c-16.59,1.33-25.62,7.62-25.62,7.62S299.27,469.55,298.81,469.11Z" transform="translate(-23.15 -83.21)"/><path class="cls-21" d="M298.19,633.62V637s0-1.21,0-3.37Z" transform="translate(-23.15 -83.21)"/><path class="cls-21" d="M323.81,629.37c-16.59,1.33-25.62,7.62-25.62,7.62v1.82H426.88V637S360.54,626.45,323.81,629.37Z" transform="translate(-23.15 -83.21)"/><path class="cls-23" d="M298.58,469.48a89.07,89.07,0,0,0-41.8-8.1c-24.06,1.17-87.17,8.41-87.17,8.41V637.07s66.34-10.52,103.07-7.6c16.58,1.33,25.61,7.6,25.61,7.6S298.12,469.91,298.58,469.48Z" transform="translate(-23.15 -83.21)"/><path class="cls-21" d="M298.29,633.72v3.35s0-1.19,0-3.35Z" transform="translate(-23.15 -83.21)"/><path class="cls-21" d="M272.68,629.47c16.58,1.33,25.61,7.6,25.61,7.6v1.84H169.61v-1.84S236,626.55,272.68,629.47Z" transform="translate(-23.15 -83.21)"/><path class="cls-24" d="M298.58,469.48l-.29,167.59s16.51-10,47.35-8.11l-6.4-167.72S306.73,457,298.58,469.48Z" transform="translate(-23.15 -83.21)"/><path class="cls-24" d="M298.19,641.41l.1-4.34s-13.42-19.26-128.68,0v1.84S281.16,628.13,298.19,641.41Z" transform="translate(-23.15 -83.21)"/><path class="cls-24" d="M298.29,637.07s15-18.75,128.59-.08v1.82S318,627.58,298.19,641.41Z" transform="translate(-23.15 -83.21)"/><text class="cls-25" transform="matrix(0.27, -0.96, 0.96, 0.27, 36.68, 363.07)">EDUCADORES</text><text class="cls-26" transform="translate(242.9 30.89)">DE</text><text class="cls-25" transform="matrix(0.26, 0.96, -0.96, 0.26, 429.41, 71.7)">NUEVO LEÓN</text><text class="cls-27" transform="translate(20.36 405.23) rotate(61.53)">Fraccionamiento</text><text class="cls-28" transform="translate(146.46 584.54)">Camino Real 4to Sector</text><text class="cls-29" transform="translate(448.29 550.41) rotate(-61.52)">Guadalupe NL</text><text class="cls-30" transform="translate(182.48 465.6)">POR EL<tspan class="cls-31"><tspan x="-2.42" y="22.97">FUTURO</tspan></tspan></text><text class="cls-30" transform="translate(326 459.27)">DE<tspan x="-28.17" y="22.97">MÉXICO</tspan></text></svg>