<svg id="Layer_1" data-name="Layer 1" xmlns="http://www.w3.org/2000/svg" viewBox="0 0 375.08 431.81"><defs><style>.cls-1{fill:#e83842;}.cls-1,.cls-11{stroke:#fff;stroke-miterlimit:10;}.cls-2{fill:#8f0507;}.cls-10,.cls-3,.cls-4,.cls-7{fill:#fff;}.cls-4,.cls-5{font-size:28px;}.cls-12,.cls-4,.cls-5,.cls-7{font-family:Poppins-SemiBold, Poppins;font-weight:600;}.cls-5{letter-spacing:0.03em;}.cls-6{letter-spacing:0.03em;}.cls-7{font-size:20px;}.cls-8{fill:#feb546;}.cls-10,.cls-8,.cls-9{fill-rule:evenodd;}.cls-9{fill:#daebf2;}.cls-11{fill:#efdfe1;}.cls-12{font-size:16px;letter-spacing:0.03em;}.cls-13{letter-spacing:0.03em;}</style></defs><path class="cls-1" d="M497,379.69" transform="translate(-503.11 -168.19)"/><path class="cls-2" d="M509.11,265.74V227c1.85-2.85,4.7-4.21,7.65-5.58,12.15-5.63,22.9-13.43,33.44-21.71,7.79-6.12,15.21-13.54,26.13-13.87a4.77,4.77,0,0,0,2.23-.57c9.46-5.58,20.74-5.62,30.5-10.35a46,46,0,0,1,11.06-3.34c2.86-.59,6-1.19,8.53.24,8.07,4.65,17.25,6.92,25.08,11.79,7.37,4.58,14.43,4.89,22,1.69a94.8,94.8,0,0,0,16.79-9.15,77.94,77.94,0,0,1,14.68-7.92h2.32c2.54,1.12,3.7,3.23,4.69,5.79,2.58,6.63,6.62,7.08,10.94,1.47,5.47-7.1,9-7.39,15.41-1.33,1.55,1.46,3.08,3,4.62,4.43,3.3,3.16,7.1,4.13,11.08,1.62,4.7-3,8.83-2.21,14.07-.55,11.16,3.53,22.23,7.5,33.61,10.34a11.33,11.33,0,0,1,3.34.87c13.47,8.52,29.48,10.88,43.31,18.5,3,1.68,5.31,3.77,5.45,7.53V243.6c-.36,7.5.75,15-.6,22.5a25.92,25.92,0,0,1-5.77.22q-167.16,0-334.31,0C513.27,266.3,511.1,266.89,509.11,265.74Z" transform="translate(-503.11 -168.19)"/><path class="cls-2" d="M682.61,205.64s27.14,27.77,94,29.67c56.16,1.58,76.38-12.63,76.38-12.63S885.22,442.33,828.41,508c-51,58.95-136.92,90.24-145.8,92-8.88-1.79-94.78-33.08-145.8-92C480,442.33,512.2,222.68,512.2,222.68s20.22,14.21,76.37,12.63C655.47,233.41,682.61,205.64,682.61,205.64Z" transform="translate(-503.11 -168.19)"/><path class="cls-3" d="M682.61,253.67s19.86,20.32,68.82,21.71c41.09,1.16,55.89-9.24,55.89-9.24s23.56,160.73-18,208.77c-37.34,43.14-100.2,66-106.7,67.34-6.5-1.3-69.36-24.2-106.69-67.34-41.57-48-18-208.77-18-208.77s14.8,10.4,55.89,9.24C662.75,274,682.61,253.67,682.61,253.67Z" transform="translate(-503.11 -168.19)"/><path class="cls-3" d="M807.35,268.69c0,8-15.75,14.5-35,14.5h-179c-19.25,0-35-6.52-35-14.5s15.75-14.5,35-14.5h179C791.6,254.19,807.35,260.72,807.35,268.69Z" transform="translate(-503.11 -168.19)"/><text class="cls-4" transform="translate(48.91 68.76)">ESCUELA PRIMARIA</text><text class="cls-5" transform="translate(106.47 119.66)">ALFONSO<tspan class="cls-6"><tspan x="5.04" y="33.6">TREVIÑO</tspan><tspan x="5.04" y="67.2">TREVIÑO</tspan></tspan></text><text class="cls-7" transform="translate(22.24 114.9) rotate(90)">CD. GUADALUPE</text><text class="cls-7" transform="translate(339.22 264.88) rotate(-90)">NUEVO LEÓN</text><path class="cls-8" d="M697.8,411.56a286.12,286.12,0,0,1,14.54-28.79,13.54,13.54,0,0,1,1-1.58q-2.85-1.33-5.81-2.46a14.66,14.66,0,0,1-.38,1.91c-1.61,6-6.63,9.92-11.2,8.7s-7-7.11-5.35-13.13a15.29,15.29,0,0,1,.65-1.91q-3.1-.54-6.29-.84a14.9,14.9,0,0,1,.13,2c0,6.24-3.83,11.3-8.57,11.3s-8.56-5.06-8.56-11.3a14.9,14.9,0,0,1,.13-2q-3.18.3-6.29.84a15.29,15.29,0,0,1,.65,1.91c1.61,6-.78,11.9-5.35,13.13s-9.59-2.67-11.2-8.7a14.71,14.71,0,0,1-.39-1.91c-2,.75-3.9,1.57-5.8,2.46a13.54,13.54,0,0,1,1,1.58,286.12,286.12,0,0,1,14.54,28.79,87.93,87.93,0,0,1,42.45,0Z" transform="translate(-503.11 -168.19)"/><path class="cls-9" d="M691.3,374.3a15.29,15.29,0,0,0-.65,1.91c-1.61,6,.78,11.9,5.35,13.13,2.7.72,5.56-.34,7.77-2.57Z" transform="translate(-503.11 -168.19)"/><path class="cls-9" d="M680.33,385.64l-12.19-12.18a14.9,14.9,0,0,0-.13,2c0,6.24,3.83,11.3,8.56,11.3A6.92,6.92,0,0,0,680.33,385.64Z" transform="translate(-503.11 -168.19)"/><path class="cls-10" d="M655.59,389.56l-9.87-9.87c.07.32.14.63.23.95C647.38,386,651.49,389.66,655.59,389.56Z" transform="translate(-503.11 -168.19)"/><path class="cls-11" d="M745,478.67q-31.26,31.77-62.54,63.52l-121-124.5h242Q774.2,448.18,745,478.67Z" transform="translate(-503.11 -168.19)"/><path class="cls-11" d="M739.94,474.67q-28.76,31.77-57.52,63.52L571.14,413.69H793.7Z" transform="translate(-503.11 -168.19)"/><path class="cls-11" d="M733.2,469l-50.78,64.18L584.18,407.4H780.67Z" transform="translate(-503.11 -168.19)"/><text class="cls-12" transform="translate(104.98 259.51)">MI CULTURA SERA <tspan class="cls-13"><tspan x="31.98" y="19.2">EL FUTURO</tspan></tspan><tspan x="52.9" y="38.4">DE LA</tspan><tspan class="cls-13"><tspan x="45.66" y="57.6">PATRIA</tspan></tspan></text></svg>