<svg xmlns="http://www.w3.org/2000/svg" xmlns:xlink="http://www.w3.org/1999/xlink" viewBox="0 0 607.02 469.19"><defs><style>.cls-1{isolation:isolate;}.cls-2{fill:#f3f3f3;}.cls-15,.cls-2,.cls-41,.cls-60{mix-blend-mode:multiply;}.cls-3{fill:#2c3583;}.cls-4{fill:#81b9e4;}.cls-5{fill:#f26d7c;}.cls-6{fill:url(#linear-gradient);}.cls-7{fill:url(#linear-gradient-2);}.cls-8{fill:url(#linear-gradient-3);}.cls-9{fill:url(#linear-gradient-4);}.cls-10,.cls-11,.cls-42,.cls-43,.cls-73,.cls-74,.cls-75{mix-blend-mode:screen;}.cls-10{fill:url(#linear-gradient-5);}.cls-11{fill:url(#linear-gradient-6);}.cls-12{fill:#2e62ae;}.cls-13{fill:#ef3937;}.cls-14{fill:url(#linear-gradient-7);}.cls-15{fill:url(#linear-gradient-8);}.cls-16{fill:url(#linear-gradient-9);}.cls-17{fill:url(#linear-gradient-10);}.cls-18{fill:url(#linear-gradient-11);}.cls-19{fill:url(#linear-gradient-12);}.cls-20{fill:url(#linear-gradient-13);}.cls-21{font-size:27.63px;font-family:Raleway-Bold, Raleway Bold;font-weight:700;}.cls-21,.cls-55{fill:#fff;}.cls-22{letter-spacing:0.02em;}.cls-23{letter-spacing:-0.01em;}.cls-24{fill:#1f2a5d;}.cls-25{fill:url(#linear-gradient-14);}.cls-26{fill:url(#linear-gradient-15);}.cls-27{fill:url(#linear-gradient-16);}.cls-28{fill:url(#linear-gradient-17);}.cls-29{fill:url(#linear-gradient-18);}.cls-30{fill:url(#linear-gradient-19);}.cls-31{fill:url(#linear-gradient-20);}.cls-32{fill:url(#linear-gradient-21);}.cls-33{fill:#585856;}.cls-34{fill:#e3edec;}.cls-35{fill:url(#linear-gradient-22);}.cls-36{fill:#3f72b8;}.cls-37{fill:url(#linear-gradient-23);}.cls-38{fill:#f27385;}.cls-39{fill:url(#linear-gradient-24);}.cls-40{fill:url(#linear-gradient-25);}.cls-42{fill:url(#linear-gradient-26);}.cls-43{fill:url(#linear-gradient-27);}.cls-44{fill:url(#linear-gradient-28);}.cls-45{fill:url(#linear-gradient-29);}.cls-46{fill:url(#linear-gradient-30);}.cls-47{fill:url(#linear-gradient-31);}.cls-48{fill:url(#linear-gradient-32);}.cls-49{fill:url(#linear-gradient-33);}.cls-50{fill:#384043;}.cls-51{fill:url(#linear-gradient-34);}.cls-52{fill:url(#linear-gradient-35);}.cls-53{fill:url(#linear-gradient-36);}.cls-54{fill:url(#linear-gradient-37);}.cls-56{fill:url(#linear-gradient-38);}.cls-57{fill:url(#linear-gradient-39);}.cls-58{fill:url(#linear-gradient-40);}.cls-59{fill:url(#linear-gradient-41);}.cls-60{opacity:0.5;fill:url(#linear-gradient-42);}.cls-61{fill:#e9eded;}.cls-62{fill:url(#linear-gradient-43);}.cls-63{fill:url(#linear-gradient-44);}.cls-64{fill:url(#linear-gradient-45);}.cls-65{fill:url(#linear-gradient-46);}.cls-66{fill:#fffffd;}.cls-67{fill:url(#linear-gradient-47);}.cls-68{fill:url(#linear-gradient-48);}.cls-69{fill:url(#linear-gradient-49);}.cls-70{fill:url(#linear-gradient-50);}.cls-71{fill:url(#linear-gradient-51);}.cls-72{fill:url(#linear-gradient-52);}.cls-73{fill:url(#linear-gradient-53);}.cls-74{fill:url(#linear-gradient-54);}.cls-75{fill:url(#linear-gradient-55);}</style><linearGradient id="linear-gradient" x1="137.82" y1="237.18" x2="134.34" y2="172.29" gradientUnits="userSpaceOnUse"><stop offset="0" stop-color="#febb12"/><stop offset="1" stop-color="#fcf059"/></linearGradient><linearGradient id="linear-gradient-2" x1="81.39" y1="592.87" x2="157.61" y2="387.74" xlink:href="#linear-gradient"/><linearGradient id="linear-gradient-3" x1="146.63" y1="423.32" x2="228.52" y2="437.69" xlink:href="#linear-gradient"/><linearGradient id="linear-gradient-4" x1="989.15" y1="957.75" x2="890.16" y2="820.75" gradientTransform="matrix(-0.05, -1, -1, 0.05, 1069.78, 1272.37)" xlink:href="#linear-gradient"/><linearGradient id="linear-gradient-5" x1="103.86" y1="168.35" x2="89.17" y2="-37.34" xlink:href="#linear-gradient"/><linearGradient id="linear-gradient-6" x1="141.5" y1="278.35" x2="135.57" y2="195.35" xlink:href="#linear-gradient"/><linearGradient id="linear-gradient-7" x1="367.35" y1="372.96" x2="379.2" y2="471.9" gradientUnits="userSpaceOnUse"><stop offset="0.01" stop-color="#e4e4e4"/><stop offset="0.58" stop-color="#f7f7f6"/><stop offset="0.99" stop-color="#fffffd"/></linearGradient><linearGradient id="linear-gradient-8" x1="383.87" y1="378.62" x2="390.17" y2="431.25" xlink:href="#linear-gradient-7"/><linearGradient id="linear-gradient-9" x1="237.69" y1="447.83" x2="294.61" y2="400.08" xlink:href="#linear-gradient-7"/><linearGradient id="linear-gradient-10" x1="506.74" y1="374.2" x2="246.28" y2="321.94" gradientUnits="userSpaceOnUse"><stop offset="0" stop-color="#2c5396"/><stop offset="0.41" stop-color="#2e62ae"/><stop offset="1" stop-color="#3f72b8"/></linearGradient><linearGradient id="linear-gradient-11" x1="116.39" y1="297.63" x2="501.63" y2="297.63" xlink:href="#linear-gradient-10"/><linearGradient id="linear-gradient-12" x1="129.61" y1="496.04" x2="246.02" y2="533.09" xlink:href="#linear-gradient-7"/><linearGradient id="linear-gradient-13" x1="245.54" y1="355.83" x2="393.55" y2="355.83" xlink:href="#linear-gradient-10"/><linearGradient id="linear-gradient-14" x1="236.78" y1="429.09" x2="338.2" y2="377.28" gradientUnits="userSpaceOnUse"><stop offset="0" stop-color="#ee2724"/><stop offset="1" stop-color="#f26d7c"/></linearGradient><linearGradient id="linear-gradient-15" x1="231.18" y1="484.61" x2="333.41" y2="432.38" xlink:href="#linear-gradient-14"/><linearGradient id="linear-gradient-16" x1="1480.33" y1="404.07" x2="1312.81" y2="394.02" gradientTransform="matrix(-1, 0, 0, 1, 1822.07, -161.41)" xlink:href="#linear-gradient-14"/><linearGradient id="linear-gradient-17" x1="1398.3" y1="301.74" x2="1528.18" y2="413.57" gradientTransform="matrix(-1, 0, 0, 1, 1822.07, -161.41)" xlink:href="#linear-gradient-14"/><linearGradient id="linear-gradient-18" x1="1320.85" y1="423.37" x2="1437.27" y2="460.43" gradientTransform="matrix(-1, 0, 0, 1, 1824.75, 0.35)" xlink:href="#linear-gradient-7"/><linearGradient id="linear-gradient-19" x1="374.63" y1="474.83" x2="143.44" y2="401.88" xlink:href="#linear-gradient-7"/><linearGradient id="linear-gradient-20" x1="369.39" y1="315.93" x2="361.79" y2="313.53" xlink:href="#linear-gradient-7"/><linearGradient id="linear-gradient-21" x1="412.95" y1="294.83" x2="515.11" y2="242.64" xlink:href="#linear-gradient-14"/><linearGradient id="linear-gradient-22" x1="647.71" y1="1329.1" x2="659.71" y2="1329.1" gradientTransform="translate(1531.28 -613.87) rotate(74.84)" gradientUnits="userSpaceOnUse"><stop offset="0" stop-color="#9cb3d5"/><stop offset="0.02" stop-color="#9eb4d6"/><stop offset="0.46" stop-color="#ccd6e6"/><stop offset="0.8" stop-color="#e8ebef"/><stop offset="1" stop-color="#f3f3f3"/></linearGradient><linearGradient id="linear-gradient-23" x1="630.88" y1="1420.28" x2="640.22" y2="1421.98" gradientTransform="translate(1531.28 -613.87) rotate(74.84)" gradientUnits="userSpaceOnUse"><stop offset="0" stop-color="#f15b27"/><stop offset="0.99" stop-color="#fdb515"/></linearGradient><linearGradient id="linear-gradient-24" x1="354.34" y1="362.19" x2="350.98" y2="315.16" gradientTransform="matrix(1, 0, 0, 1, 0, 0)" xlink:href="#linear-gradient-23"/><linearGradient id="linear-gradient-25" x1="314.81" y1="330.29" x2="420.04" y2="330.29" gradientTransform="translate(-40.84 89.47) rotate(-5.43)" xlink:href="#linear-gradient"/><linearGradient id="linear-gradient-26" x1="321.84" y1="359.92" x2="346.56" y2="359.92" gradientTransform="matrix(1, -0.05, 0.05, 1, -21, 41.71)" xlink:href="#linear-gradient"/><linearGradient id="linear-gradient-27" x1="360.27" y1="356.17" x2="386.65" y2="356.17" gradientTransform="matrix(1, -0.05, 0.05, 1, -21, 41.71)" xlink:href="#linear-gradient"/><linearGradient id="linear-gradient-28" x1="1107.07" y1="255.02" x2="1119.08" y2="255.02" gradientTransform="matrix(-0.18, 0.98, 0.98, 0.18, 235.98, -561.66)" xlink:href="#linear-gradient-22"/><linearGradient id="linear-gradient-29" x1="1090.25" y1="346.2" x2="1099.58" y2="347.9" gradientTransform="matrix(-0.18, 0.98, 0.98, 0.18, 235.98, -561.66)" xlink:href="#linear-gradient-23"/><linearGradient id="linear-gradient-30" x1="510.29" y1="398.36" x2="515.96" y2="398.36" gradientTransform="matrix(1, 0, 0, 1, 0, 0)" xlink:href="#linear-gradient-22"/><linearGradient id="linear-gradient-31" x1="505.36" y1="505.46" x2="542.92" y2="505.46" gradientUnits="userSpaceOnUse"><stop offset="0" stop-color="#9cb3d5"/><stop offset="0.14" stop-color="#b2c3dd"/><stop offset="0.36" stop-color="#ced8e6"/><stop offset="0.57" stop-color="#e3e7ed"/><stop offset="0.79" stop-color="#eff0f2"/><stop offset="1" stop-color="#f3f3f3"/></linearGradient><linearGradient id="linear-gradient-32" x1="441.59" y1="525.83" x2="462.81" y2="525.83" gradientTransform="translate(55.18 1094.47) rotate(-104.38)" xlink:href="#linear-gradient"/><linearGradient id="linear-gradient-33" x1="439.1" y1="395.14" x2="445.77" y2="395.14" gradientTransform="matrix(1, 0, 0, 1, 0, 0)" xlink:href="#linear-gradient-22"/><linearGradient id="linear-gradient-34" x1="456.82" y1="491.68" x2="464.92" y2="491.68" gradientTransform="translate(99.31 1060.2) rotate(-104.38)" xlink:href="#linear-gradient-14"/><linearGradient id="linear-gradient-35" x1="505.36" y1="433.39" x2="519.09" y2="433.39" gradientUnits="userSpaceOnUse"><stop offset="0" stop-color="#3972b9"/><stop offset="0.99" stop-color="#86d5f2"/></linearGradient><linearGradient id="linear-gradient-36" x1="443.15" y1="494.86" x2="519.14" y2="494.86" xlink:href="#linear-gradient-35"/><linearGradient id="linear-gradient-37" x1="501.43" y1="455.97" x2="511.04" y2="455.97" gradientTransform="matrix(1, 0, 0, 1, 0, 0)" xlink:href="#linear-gradient-22"/><linearGradient id="linear-gradient-38" x1="459.82" y1="526.47" x2="468.48" y2="526.47" gradientTransform="matrix(1, 0, 0, 1, 0, 0)" xlink:href="#linear-gradient-22"/><linearGradient id="linear-gradient-39" x1="187.9" y1="535.09" x2="125.18" y2="484.71" xlink:href="#linear-gradient-10"/><linearGradient id="linear-gradient-40" x1="204.01" y1="508.64" x2="312.02" y2="392.35" xlink:href="#linear-gradient-10"/><linearGradient id="linear-gradient-41" x1="66.47" y1="571.81" x2="228.14" y2="571.81" xlink:href="#linear-gradient-10"/><linearGradient id="linear-gradient-42" x1="66.47" y1="571.81" x2="186.82" y2="571.81" xlink:href="#linear-gradient-10"/><linearGradient id="linear-gradient-43" x1="141.18" y1="564.1" x2="133.17" y2="508.4" xlink:href="#linear-gradient-14"/><linearGradient id="linear-gradient-44" x1="129.11" y1="565.83" x2="121.11" y2="510.14" xlink:href="#linear-gradient-14"/><linearGradient id="linear-gradient-45" x1="116.62" y1="567.63" x2="108.62" y2="511.93" xlink:href="#linear-gradient-14"/><linearGradient id="linear-gradient-46" x1="98" y1="572.4" x2="99.95" y2="543.74" xlink:href="#linear-gradient-14"/><linearGradient id="linear-gradient-47" x1="55.65" y1="579.52" x2="127.03" y2="546.2" xlink:href="#linear-gradient-14"/><linearGradient id="linear-gradient-48" x1="57.3" y1="583.05" x2="128.67" y2="549.73" xlink:href="#linear-gradient-14"/><linearGradient id="linear-gradient-49" x1="59" y1="586.7" x2="130.38" y2="553.38" xlink:href="#linear-gradient-14"/><linearGradient id="linear-gradient-50" x1="66.79" y1="575.61" x2="101.36" y2="575.61" xlink:href="#linear-gradient-14"/><linearGradient id="linear-gradient-51" x1="179.32" y1="542.47" x2="189.5" y2="501.27" xlink:href="#linear-gradient-10"/><linearGradient id="linear-gradient-52" x1="138.14" y1="527.95" x2="227.45" y2="527.95" xlink:href="#linear-gradient-7"/><linearGradient id="linear-gradient-53" x1="163.39" y1="528.95" x2="210.35" y2="528.95" xlink:href="#linear-gradient-7"/><linearGradient id="linear-gradient-54" x1="194.73" y1="533.05" x2="224.34" y2="533.05" xlink:href="#linear-gradient-7"/><linearGradient id="linear-gradient-55" x1="140.46" y1="522.36" x2="168.91" y2="522.36" xlink:href="#linear-gradient-7"/></defs><g class="cls-1"><g id="Layer_1" data-name="Layer 1"><ellipse class="cls-2" cx="296.65" cy="399.18" rx="296.65" ry="70.01"/><path class="cls-3" d="M549.13,320.12H525.74a21.19,21.19,0,0,1-21.19-21.19h0a21.19,21.19,0,0,1,21.19-21.19h14.72a9.15,9.15,0,0,0,9.15-7.64,9,9,0,0,0-8.87-10.29H505.6a1.06,1.06,0,0,1-1.05-1.08A21.53,21.53,0,0,0,483,237.23H356.16a5.78,5.78,0,0,1-5.74-4.48,5.65,5.65,0,0,1,5.53-6.81h88.43a11.41,11.41,0,0,0,11.37-9.37,11.22,11.22,0,0,0-11.06-13H190.48a11.42,11.42,0,0,0-11.38,9.37,11.22,11.22,0,0,0,11.06,13.05h43.43A12.48,12.48,0,0,1,246,236.19a12.27,12.27,0,0,1-12.11,14.28H104.85A47.88,47.88,0,0,0,57,298.35h0a47.89,47.89,0,0,0,39,47,7,7,0,0,1,5.69,7v3.91a7.11,7.11,0,0,1-7.11,7.12h0A35.22,35.22,0,0,0,59.3,398.6h0a35.22,35.22,0,0,0,35.23,35.22h.12a10.59,10.59,0,0,1,10.59,10.59v0a11,11,0,0,1-10,10.9,11.78,11.78,0,0,0-2.59.48,27.28,27.28,0,0,0,9.07,53H506.83c14.35,0,26.7-10.81,27.84-25.11l0-.38A13.13,13.13,0,0,1,547.76,471h5a22.67,22.67,0,0,0,22.66-22.66h0c0-9.44-7.61-17.25-16.72-20.52a13.89,13.89,0,0,1-9.38-13v-.65a15.07,15.07,0,0,1,11-14.43,40.62,40.62,0,0,0,29.35-39h0A40.59,40.59,0,0,0,549.13,320.12Z" transform="translate(-2.49 -161.41)"/><path class="cls-3" d="M193,191.29a2,2,0,0,1-1.41-3.4l7.93-7.93-8.68-8.68a2,2,0,0,1,2.82-2.81l10.09,10.08a2,2,0,0,1,0,2.82l-9.34,9.34A2,2,0,0,1,193,191.29Z" transform="translate(-2.49 -161.41)"/><path class="cls-3" d="M207.09,191.29a2,2,0,0,1-1.41-3.4l7.93-7.93-8.67-8.68a2,2,0,0,1,2.81-2.81l10.09,10.08a2,2,0,0,1,0,2.82l-9.34,9.34A2,2,0,0,1,207.09,191.29Z" transform="translate(-2.49 -161.41)"/><path class="cls-3" d="M221.16,191.29a2,2,0,0,1-1.41-.58,2,2,0,0,1,0-2.82l7.93-7.93L219,171.28a2,2,0,0,1,2.81-2.81l10.09,10.08a2,2,0,0,1,0,2.82l-9.34,9.34A2,2,0,0,1,221.16,191.29Z" transform="translate(-2.49 -161.41)"/><path class="cls-3" d="M235.23,191.29a2,2,0,0,1-1.41-.58,2,2,0,0,1,0-2.82l7.94-7.93-8.68-8.68a2,2,0,0,1,2.81-2.81L246,178.55a2,2,0,0,1,0,2.82l-9.34,9.34A2,2,0,0,1,235.23,191.29Z" transform="translate(-2.49 -161.41)"/><path class="cls-3" d="M249.3,191.29a1.94,1.94,0,0,1-1.4-.58,2,2,0,0,1,0-2.82l7.93-7.93-8.68-8.68a2,2,0,0,1,2.82-2.81l10.08,10.08a2,2,0,0,1,0,2.82l-9.34,9.34A2,2,0,0,1,249.3,191.29Z" transform="translate(-2.49 -161.41)"/><path class="cls-3" d="M378.74,196.39a1.23,1.23,0,0,1-.87-2.09l4.89-4.89-5.35-5.36a1.22,1.22,0,1,1,1.73-1.73l6.22,6.22a1.22,1.22,0,0,1,0,1.73L379.6,196A1.21,1.21,0,0,1,378.74,196.39Z" transform="translate(-2.49 -161.41)"/><path class="cls-3" d="M387.41,196.39a1.24,1.24,0,0,1-.87-.36,1.22,1.22,0,0,1,0-1.73l4.89-4.89-5.35-5.36a1.23,1.23,0,0,1,1.74-1.73l6.22,6.22a1.22,1.22,0,0,1,0,1.73L388.28,196A1.22,1.22,0,0,1,387.41,196.39Z" transform="translate(-2.49 -161.41)"/><path class="cls-3" d="M396.09,196.39a1.23,1.23,0,0,1-.87-2.09l4.89-4.89-5.35-5.36a1.23,1.23,0,0,1,1.74-1.73l6.21,6.22a1.22,1.22,0,0,1,0,1.73L397,196A1.24,1.24,0,0,1,396.09,196.39Z" transform="translate(-2.49 -161.41)"/><path class="cls-3" d="M404.76,196.39a1.23,1.23,0,0,1-.86-2.09l4.89-4.89-5.36-5.36a1.23,1.23,0,0,1,1.74-1.73l6.22,6.22a1.22,1.22,0,0,1,0,1.73L405.63,196A1.22,1.22,0,0,1,404.76,196.39Z" transform="translate(-2.49 -161.41)"/><path class="cls-3" d="M413.44,196.39a1.24,1.24,0,0,1-.87-.36,1.22,1.22,0,0,1,0-1.73l4.89-4.89-5.35-5.36a1.23,1.23,0,0,1,1.74-1.73l6.22,6.22a1.22,1.22,0,0,1,0,1.73L414.31,196A1.24,1.24,0,0,1,413.44,196.39Z" transform="translate(-2.49 -161.41)"/><path class="cls-3" d="M20.57,360.17a1.23,1.23,0,0,1-.87-2.09l4.89-4.89-5.35-5.35A1.23,1.23,0,0,1,21,346.1l6.22,6.22a1.23,1.23,0,0,1,0,1.74l-5.76,5.75A1.21,1.21,0,0,1,20.57,360.17Z" transform="translate(-2.49 -161.41)"/><path class="cls-3" d="M29.24,360.17a1.24,1.24,0,0,1-.87-.36,1.22,1.22,0,0,1,0-1.73l4.89-4.89-5.35-5.35a1.23,1.23,0,0,1,1.74-1.74l6.22,6.22a1.23,1.23,0,0,1,0,1.74l-5.76,5.75A1.22,1.22,0,0,1,29.24,360.17Z" transform="translate(-2.49 -161.41)"/><path class="cls-3" d="M37.92,360.17a1.23,1.23,0,0,1-.87-2.09l4.89-4.89-5.35-5.35a1.23,1.23,0,0,1,1.74-1.74l6.22,6.22a1.25,1.25,0,0,1,0,1.74l-5.76,5.75A1.24,1.24,0,0,1,37.92,360.17Z" transform="translate(-2.49 -161.41)"/><path class="cls-3" d="M46.59,360.17a1.23,1.23,0,0,1-.86-2.09l4.89-4.89-5.36-5.35A1.23,1.23,0,0,1,47,346.1l6.22,6.22a1.23,1.23,0,0,1,0,1.74l-5.76,5.75A1.22,1.22,0,0,1,46.59,360.17Z" transform="translate(-2.49 -161.41)"/><path class="cls-3" d="M55.27,360.17a1.24,1.24,0,0,1-.87-.36,1.22,1.22,0,0,1,0-1.73l4.89-4.89-5.35-5.35a1.23,1.23,0,0,1,1.74-1.74l6.22,6.22a1.23,1.23,0,0,1,0,1.74l-5.76,5.75A1.24,1.24,0,0,1,55.27,360.17Z" transform="translate(-2.49 -161.41)"/><path class="cls-3" d="M527.59,304.19a1.25,1.25,0,0,1-.92-.38,1.29,1.29,0,0,1,0-1.83l5.17-5.17-5.66-5.65a1.32,1.32,0,0,1,0-1.84,1.3,1.3,0,0,1,1.84,0l6.57,6.57a1.3,1.3,0,0,1,0,1.84l-6.09,6.08A1.25,1.25,0,0,1,527.59,304.19Z" transform="translate(-2.49 -161.41)"/><path class="cls-3" d="M536.76,304.19a1.25,1.25,0,0,1-.92-.38,1.29,1.29,0,0,1,0-1.83l5.17-5.17-5.66-5.65a1.3,1.3,0,1,1,1.84-1.84l6.57,6.57a1.3,1.3,0,0,1,0,1.84l-6.09,6.08A1.25,1.25,0,0,1,536.76,304.19Z" transform="translate(-2.49 -161.41)"/><path class="cls-3" d="M545.92,304.19a1.25,1.25,0,0,1-.91-.38,1.29,1.29,0,0,1,0-1.83l5.16-5.17-5.65-5.65a1.3,1.3,0,0,1,1.84-1.84l6.57,6.57a1.32,1.32,0,0,1,0,1.84l-6.09,6.08A1.25,1.25,0,0,1,545.92,304.19Z" transform="translate(-2.49 -161.41)"/><path class="cls-3" d="M555.09,304.19a1.25,1.25,0,0,1-.91-.38,1.29,1.29,0,0,1,0-1.83l5.16-5.17-5.65-5.65a1.3,1.3,0,0,1,1.83-1.84l6.58,6.57a1.32,1.32,0,0,1,0,1.84L556,303.81A1.25,1.25,0,0,1,555.09,304.19Z" transform="translate(-2.49 -161.41)"/><path class="cls-3" d="M564.26,304.19a1.29,1.29,0,0,1-.92-.38,1.3,1.3,0,0,1,0-1.83l5.17-5.17-5.65-5.65a1.3,1.3,0,0,1,1.83-1.84l6.58,6.57a1.32,1.32,0,0,1,0,1.84l-6.09,6.08A1.27,1.27,0,0,1,564.26,304.19Z" transform="translate(-2.49 -161.41)"/><circle class="cls-3" cx="154.17" cy="214.45" r="11.71" transform="translate(-92.37 154.04) rotate(-76.77)"/><circle class="cls-3" cx="23.21" cy="437.87" r="11.71" transform="translate(-413.69 216.82) rotate(-79.15)"/><path class="cls-3" d="M361.87,189.18a2.86,2.86,0,1,1-2.86-2.87A2.86,2.86,0,0,1,361.87,189.18Z" transform="translate(-2.49 -161.41)"/><path class="cls-3" d="M317.79,164.64a3.24,3.24,0,1,1-3.24-3.23A3.24,3.24,0,0,1,317.79,164.64Z" transform="translate(-2.49 -161.41)"/><path class="cls-3" d="M47.77,317.42a2.87,2.87,0,1,1-2.86-2.86A2.87,2.87,0,0,1,47.77,317.42Z" transform="translate(-2.49 -161.41)"/><path class="cls-3" d="M37.54,406.85a3.24,3.24,0,1,1-3.23-3.24A3.24,3.24,0,0,1,37.54,406.85Z" transform="translate(-2.49 -161.41)"/><path class="cls-3" d="M63.57,492.4a3.24,3.24,0,1,1-3.24-3.24A3.24,3.24,0,0,1,63.57,492.4Z" transform="translate(-2.49 -161.41)"/><path class="cls-3" d="M570.3,409.27a3.24,3.24,0,1,1-3.24-3.23A3.24,3.24,0,0,1,570.3,409.27Z" transform="translate(-2.49 -161.41)"/><circle class="cls-3" cx="571.07" cy="104.35" r="10.21"/><circle class="cls-3" cx="599.3" cy="451.73" r="10.21" transform="translate(54.91 809.53) rotate(-80.78)"/><path class="cls-4" d="M313.2,385.19v-166a1,1,0,0,0-1.89,0v166a1,1,0,0,0,1.89,0Z" transform="translate(-2.49 -161.41)"/><path class="cls-4" d="M280.65,291.34H451.47a1,1,0,0,0,0-1.89H280.65a1,1,0,0,0,0,1.89Z" transform="translate(-2.49 -161.41)"/><path class="cls-4" d="M452,289.28l-6.8-5-.95-.71a1,1,0,0,0-1.3.34,1,1,0,0,0,.34,1.3l6.8,5,.95.7a1,1,0,0,0,1.3-.34,1,1,0,0,0-.34-1.29Z" transform="translate(-2.49 -161.41)"/><path class="cls-4" d="M451,289.28c-2.81,1.52-5.65,3-8.35,4.77-1,.65-.07,2.29,1,1.63,2.69-1.72,5.53-3.24,8.35-4.77,1.07-.58.11-2.21-1-1.63Z" transform="translate(-2.49 -161.41)"/><path class="cls-4" d="M390.3,321v7.46a1,1,0,0,0,1.9,0V321a1,1,0,0,0-1.9,0Z" transform="translate(-2.49 -161.41)"/><path class="cls-4" d="M390.3,333.74v7.46a1,1,0,0,0,1.9,0v-7.46a1,1,0,0,0-1.9,0Z" transform="translate(-2.49 -161.41)"/><path class="cls-4" d="M390.3,308.7v7.46a1,1,0,0,0,1.9,0V308.7a1,1,0,0,0-1.9,0Z" transform="translate(-2.49 -161.41)"/><path class="cls-4" d="M390.3,296.73v7.45a1,1,0,0,0,1.9,0v-7.45a1,1,0,0,0-1.9,0Z" transform="translate(-2.49 -161.41)"/><path class="cls-4" d="M313.22,337.87c8-6.71,19.15-9.39,29.48-8.2s19.55,7.36,29.41,10.61A141.34,141.34,0,0,0,405.92,347,118,118,0,0,0,440.28,345,50.32,50.32,0,0,0,457,337.77c2.34-1.53,4.86-2.93,7.08-4.62.8-.61,1.55-1.28,2.32-1.93.36-.3.72-.61,1.09-.9L468,330c.12-.09.58-.23.21-.19,1.2-.13,1.21-2,0-1.9-1.36.15-2.57,1.53-3.56,2.38a53.79,53.79,0,0,1-5.43,3.79c-2.43,1.59-4.82,3.29-7.37,4.68A43.3,43.3,0,0,1,444,342a82.31,82.31,0,0,1-17.14,3,130.55,130.55,0,0,1-17.69.32,138.54,138.54,0,0,1-35-6.38A149.93,149.93,0,0,1,359,332.85,60.05,60.05,0,0,0,344.42,328c-11.34-1.81-23.68,1.14-32.54,8.52-.94.78.41,2.11,1.34,1.34Z" transform="translate(-2.49 -161.41)"/><path class="cls-4" d="M313.52,317.3l20.57-20.57a1,1,0,0,0-1.34-1.34L312.18,316a1,1,0,0,0,1.34,1.34Z" transform="translate(-2.49 -161.41)"/><path class="cls-4" d="M313.94,333.4l29.54-29.55,7.43-7.43a.94.94,0,0,0-1.34-1.33L320,324.63q-3.72,3.71-7.43,7.43a1,1,0,0,0,1.34,1.34Z" transform="translate(-2.49 -161.41)"/><path class="cls-4" d="M337.16,328.28l31.35-31.35a1,1,0,0,0-1.34-1.34l-31.35,31.35a1,1,0,0,0,1.34,1.34Z" transform="translate(-2.49 -161.41)"/><path class="cls-4" d="M351.48,331.26l33.13-33.14a1,1,0,0,0-1.34-1.34l-1,1.05a1,1,0,0,0,1.34,1.34l1.05-1.05-1.34-1.34-33.13,33.14a1,1,0,0,0,1.34,1.34Z" transform="translate(-2.49 -161.41)"/><path class="cls-4" d="M367.38,337.12,386.46,318a1,1,0,0,0-1.34-1.34L366,335.78a1,1,0,0,0,1.34,1.34Z" transform="translate(-2.49 -161.41)"/><path class="cls-4" d="M312.18,224.88q25.56,25.58,51.13,51.13l14.45,14.46a1,1,0,0,0,1.34-1.34L328,238q-7.22-7.23-14.45-14.45a.94.94,0,0,0-1.34,1.33Z" transform="translate(-2.49 -161.41)"/><path class="cls-4" d="M345,255.87c15.41,0,30.8.88,46.21.89a1,1,0,0,0,0-1.89c-15.41,0-30.8-.89-46.21-.9a1,1,0,0,0,0,1.9Z" transform="translate(-2.49 -161.41)"/><path class="cls-4" d="M385.7,251.86l6.26,3.39.9.49a1,1,0,1,0,1-1.64l-6.26-3.38-.9-.49a.95.95,0,0,0-1,1.63Z" transform="translate(-2.49 -161.41)"/><path class="cls-4" d="M392.67,254.25l-5.37,4.51-.76.64a.95.95,0,0,0,1.34,1.34l5.36-4.51.77-.64a.95.95,0,1,0-1.34-1.34Z" transform="translate(-2.49 -161.41)"/><path class="cls-4" d="M391.92,351.88a1.52,1.52,0,0,0,.44-2,2.71,2.71,0,0,0-2-.91,6,6,0,0,0-5,1.1c-1.7,1.58-1.45,4-.68,6,.67,1.71,1.49,3.34,2.06,5.09.45,1.34,1.42,4.11-.22,5a1,1,0,0,0,1,1.64c3.11-1.75,1.52-6.23.51-8.76-.54-1.37-1.24-2.7-1.7-4.11-.54-1.62-.41-3.68,1.41-4.07a7.14,7.14,0,0,1,2.26-.07c.2,0,.66.18.73.16s0,.08.07,0-.12-.31-.11-.24c0-.36.17-.51-.15-.22-.91.81.43,2.15,1.34,1.34Z" transform="translate(-2.49 -161.41)"/><path class="cls-4" d="M379.62,359.91c3.11,0,6.16-.6,9.25-.9a1,1,0,0,0,.94-.95,1,1,0,0,0-.94-.94c-3.09.3-6.14.86-9.25.89a1,1,0,0,0,0,1.9Z" transform="translate(-2.49 -161.41)"/><path class="cls-4" d="M393.91,353.64a27.59,27.59,0,0,0-1.89,7.78,9.07,9.07,0,0,0,3,7.15c.9.82,2.25-.52,1.34-1.34a7.31,7.31,0,0,1-2.45-6.2,27.14,27.14,0,0,1,1.8-6.89c.4-1.15-1.43-1.65-1.83-.5Z" transform="translate(-2.49 -161.41)"/><path class="cls-4" d="M396.14,361.86A39,39,0,0,0,402.4,366a1,1,0,0,0,1.29-.34,1,1,0,0,0-.34-1.3,39.39,39.39,0,0,1-6.26-4.17.94.94,0,1,0-.95,1.63Z" transform="translate(-2.49 -161.41)"/><path class="cls-4" d="M398.13,366.37a15.6,15.6,0,0,1,1.42-2.87c.58-1,1.2-1.9,1.76-2.87a1,1,0,1,0-1.64-1,37.87,37.87,0,0,0-3.37,6.19A1,1,0,0,0,397,367a1,1,0,0,0,1.17-.66Z" transform="translate(-2.49 -161.41)"/><path class="cls-4" d="M400.61,351.73a18.07,18.07,0,0,1,6,9.06c1.07,3.32,1.55,7.28-.08,10.51-.55,1.09,1.09,2.05,1.64,1,1.86-3.7,1.5-8.13.27-12a20.19,20.19,0,0,0-6.87-10.2c-1-.72-1.93.92-1,1.64Z" transform="translate(-2.49 -161.41)"/><path class="cls-4" d="M280.11,387.28a.48.48,0,0,1,0-.12l0,.25a.13.13,0,0,1,0-.06l-.09.23s0,0,0-.05l-.15.19,0,0-.2.15.05,0-.23.09.07,0-.25,0h.11a.8.8,0,0,0,.37-.08.92.92,0,0,0,.5-.5.8.8,0,0,0,.08-.37l0-.25a.89.89,0,0,0-.24-.42l-.19-.15a1,1,0,0,0-.48-.13,1.55,1.55,0,0,0-.37,0h0a1.19,1.19,0,0,0-.26.11h0l-.19.15h0v0a1.66,1.66,0,0,0-.16.21h0l-.1.23s0,0,0,0a2.51,2.51,0,0,0,0,.27v0a.17.17,0,0,0,0,.07.64.64,0,0,0,.08.36.77.77,0,0,0,.19.31.67.67,0,0,0,.31.19.74.74,0,0,0,.36.09l.25,0a.89.89,0,0,0,.42-.24l.15-.19a.91.91,0,0,0,.13-.48Z" transform="translate(-2.49 -161.41)"/><path class="cls-4" d="M283,388.23h5.07a1,1,0,0,0,0-1.9H283a.95.95,0,0,0,0,1.9Z" transform="translate(-2.49 -161.41)"/><path class="cls-4" d="M292.28,387.63h5.37a.95.95,0,0,0,0-1.89h-5.37a.95.95,0,1,0,0,1.89Z" transform="translate(-2.49 -161.41)"/><path class="cls-4" d="M301.82,387.93h4.77a1,1,0,1,0,0-1.9h-4.77a1,1,0,1,0,0,1.9Z" transform="translate(-2.49 -161.41)"/><path class="cls-4" d="M281.6,380.72v-8.05a1,1,0,0,0-1.89,0v8.05a1,1,0,0,0,1.89,0Z" transform="translate(-2.49 -161.41)"/><path class="cls-4" d="M281.3,364v-9.24a1,1,0,0,0-1.89,0V364a1,1,0,0,0,1.89,0Z" transform="translate(-2.49 -161.41)"/><path class="cls-4" d="M281.9,348.53V342a.95.95,0,0,0-1.9,0v6.56a1,1,0,0,0,1.9,0Z" transform="translate(-2.49 -161.41)"/><path class="cls-4" d="M282.79,336v-7.15a1,1,0,0,0-1.89,0V336a1,1,0,0,0,1.89,0Z" transform="translate(-2.49 -161.41)"/><path class="cls-4" d="M283.09,319.91v-5.67a.95.95,0,0,0-1.89,0v5.67a.95.95,0,0,0,1.89,0Z" transform="translate(-2.49 -161.41)"/><path class="cls-4" d="M283.09,309.18v-5.07a.95.95,0,1,0-1.89,0v5.07a.95.95,0,0,0,1.89,0Z" transform="translate(-2.49 -161.41)"/><path class="cls-4" d="M282.79,301.13v-5.67a.95.95,0,0,0-1.89,0v5.67a.95.95,0,0,0,1.89,0Z" transform="translate(-2.49 -161.41)"/><path class="cls-4" d="M278.19,398.08c3.14,3.5,5.31,7.71,8.1,11.46l.82-1.42A138,138,0,0,0,273,409.59l1.16,1.16c1.52-4.61,5-8.33,7.27-12.56.58-1.07-1.06-2-1.63-1-2.36,4.4-5.89,8.23-7.46,13-.25.74.5,1.29,1.16,1.17A134.18,134.18,0,0,1,287.11,410c.63-.05,1.29-.79.82-1.42-2.89-3.89-5.15-8.23-8.4-11.84-.81-.91-2.15.43-1.34,1.33Z" transform="translate(-2.49 -161.41)"/><path class="cls-4" d="M286.84,400.47c2.5,2.89,4.14,6.53,6,9.82a1,1,0,0,0,1.74-.22c.95-4.61,1.72-9.25,2.45-13.89a1,1,0,0,0-.66-1.17,1,1,0,0,0-1.17.66c-.72,4.65-1.5,9.29-2.45,13.89l1.73-.22c-2-3.44-3.72-7.18-6.34-10.21-.8-.92-2.13.42-1.34,1.34Z" transform="translate(-2.49 -161.41)"/><path class="cls-4" d="M299.08,407v5.28a1,1,0,0,0,.95.95,1,1,0,0,0,1-.95v-.8a1,1,0,1,0-1.9,0v.8a1,1,0,0,0,.95.95,1,1,0,0,0,1-.95V407a1,1,0,0,0-1.9,0Z" transform="translate(-2.49 -161.41)"/><path class="cls-4" d="M299.14,400.75a1,1,0,0,0,0-1.9,1,1,0,0,0,0,1.9Z" transform="translate(-2.49 -161.41)"/><polygon class="cls-5" points="156.14 167.18 156.14 167.18 157.05 165.41 157.05 165.41 157.05 165.41 156.14 167.18"/><rect class="cls-5" x="153.09" y="166.81" height="1.99"/><polygon class="cls-5" points="156.14 167.18 157.05 165.41 157.05 165.41 151.96 157.59 151.05 159.36 151.05 159.36 151.05 159.36 156.14 167.18"/><polygon class="cls-5" points="153.54 166.92 153.54 166.92 153.54 166.92 149.98 161.46 149.98 161.46 153.54 166.92"/><polygon class="cls-5" points="151.43 171.05 150.52 172.83 150.52 172.83 151.43 171.05 151.43 171.05 151.43 171.05"/><polygon class="cls-5" points="152.63 168.69 153.54 166.92 153.54 166.92 149.98 161.46 149.98 161.46 149.07 163.23 149.07 163.23 152.63 168.69"/><polygon class="cls-5" points="151.43 171.05 151.43 171.05 147.87 165.59 151.43 171.05"/><polygon class="cls-5" points="149.31 175.18 148.41 176.95 148.41 176.95 149.31 175.18 149.31 175.18 149.31 175.18"/><polygon class="cls-5" points="150.52 172.83 151.43 171.05 151.43 171.05 147.87 165.59 146.96 167.36 146.96 167.36 150.52 172.83"/><rect class="cls-5" x="147.54" y="169.19" height="6.52"/><polygon class="cls-5" points="146.29 181.09 147.2 179.31 147.2 179.31 147.2 179.31 146.29 181.09"/><polygon class="cls-5" points="148.41 176.95 149.31 175.18 149.31 175.18 145.76 169.72 145.76 169.71 144.85 171.49 144.85 171.49 144.85 171.49 148.41 176.95"/><rect class="cls-5" x="138.89" y="171.63" width="5.96"/><polygon class="cls-5" points="145.59 187.8 146.51 186.01 146.51 186.01 146.51 186.01 145.59 187.8"/><polygon class="cls-5" points="146.29 181.09 147.2 179.31 147.2 179.31 143.64 173.85 142.73 175.62 146.29 181.09"/><polygon class="cls-5" points="141.42 178.19 146.51 186.01 146.51 186.01 141.42 178.19 135.47 178.48 135.47 178.48 141.42 178.19"/><polygon class="cls-5" points="141.77 189.92 142.68 188.15 141.77 189.92 141.77 189.92"/><polygon class="cls-5" points="145.59 187.8 146.51 186.01 146.51 186.01 141.42 178.19 140.5 179.98 140.5 179.98 140.5 179.98 145.59 187.8"/><polygon class="cls-5" points="142.68 188.15 139.12 182.69 139.12 182.69 142.68 188.15"/><polygon class="cls-5" points="140.56 192.28 139.65 194.06 139.65 194.06 140.56 192.28 140.56 192.28 140.56 192.28"/><polygon class="cls-5" points="141.77 189.92 142.68 188.15 139.12 182.69 139.12 182.68 138.21 184.46 138.21 184.46 141.77 189.92"/><polygon class="cls-6" points="137.78 318.57 143.73 318.29 141.33 220.34 135.66 231.96 137.78 318.57"/><rect class="cls-5" x="138.78" y="186.29" height="6.52"/><polygon class="cls-5" points="137.54 198.18 137.54 198.18 138.45 196.41 138.45 196.41 138.45 196.41 137.54 198.18"/><polygon class="cls-5" points="130.15 188.88 130.15 188.88 130.15 188.88 130.15 188.88"/><polygon class="cls-5" points="139.65 194.06 140.56 192.28 140.56 192.28 137 186.82 137 186.82 136.1 188.59 136.1 188.59 139.65 194.06"/><polygon class="cls-5" points="135.43 202.32 135.43 202.32 136.34 200.54 136.34 200.54 136.34 200.54 135.43 202.32"/><polygon class="cls-5" points="137.54 198.18 138.45 196.41 138.45 196.41 134.89 190.94 133.99 192.72 133.99 192.72 133.99 192.72 137.54 198.18"/><rect class="cls-5" x="134.19" y="208.14" width="2"/><polygon class="cls-5" points="135.43 202.32 136.34 200.54 136.34 200.54 132.78 195.08 131.87 196.85 131.87 196.85 131.87 196.85 135.43 202.32"/><polygon class="cls-5" points="135.65 207.24 135.65 207.24 135.65 207.24 130.56 199.42 130.56 199.42 135.65 207.24"/><polygon class="cls-5" points="130.91 211.15 131.81 209.38 130.91 211.15 130.91 211.15"/><polygon class="cls-5" points="134.73 209.03 135.65 207.24 135.65 207.24 130.56 199.42 130.56 199.42 129.64 201.21 129.64 201.21 134.73 209.03"/><polygon class="cls-5" points="131.81 209.38 128.26 203.91 128.24 203.91 128.26 203.91 131.81 209.38"/><polygon class="cls-5" points="129.7 213.51 128.79 215.29 128.79 215.29 129.7 213.51 129.7 213.51 129.7 213.51"/><polygon class="cls-5" points="130.91 211.15 131.81 209.38 128.26 203.91 127.35 205.69 127.35 205.69 127.35 205.69 130.91 211.15"/><polygon class="cls-5" points="129.7 213.51 129.7 213.51 126.14 208.05 126.13 208.05 126.14 208.05 129.7 213.51"/><polygon class="cls-5" points="126.68 219.41 127.59 217.64 127.59 217.64 127.59 217.64 126.68 219.41"/><polygon class="cls-5" points="128.79 215.29 129.7 213.51 129.7 213.51 126.14 208.05 125.23 209.82 127.3 213 128.79 215.29"/><polygon class="cls-5" points="124.56 223.55 124.56 223.55 125.47 221.77 125.47 221.77 125.47 221.77 124.56 223.55"/><polygon class="cls-5" points="126.68 219.41 127.59 217.64 127.59 217.64 124.03 212.17 123.12 213.95 123.12 213.95 126.68 219.41"/><rect class="cls-5" x="124.33" y="228.36" height="2"/><polygon class="cls-5" points="124.56 223.55 125.47 221.77 125.47 221.77 121.92 216.31 121.01 218.08 121.01 218.08 124.56 223.55"/><polygon class="cls-5" points="124.78 228.47 124.78 228.47 124.78 228.47 119.69 220.65 119.69 220.65 124.78 228.47"/><polygon class="cls-5" points="120.04 232.38 120.04 232.38 120.95 230.61 120.95 230.61 120.95 230.61 120.04 232.38"/><polygon class="cls-5" points="123.87 230.26 124.78 228.47 124.78 228.47 119.69 220.65 119.69 220.65 118.78 222.44 118.78 222.44 123.87 230.26"/><polygon class="cls-5" points="117.93 236.52 117.93 236.52 118.84 234.73 118.84 234.73 118.84 234.73 117.93 236.52"/><polygon class="cls-5" points="120.04 232.38 120.95 230.61 120.95 230.61 117.39 225.14 116.49 226.92 116.49 226.92 116.49 226.92 120.04 232.38"/><polygon class="cls-5" points="115.82 240.64 116.73 238.87 115.82 240.64 115.82 240.64"/><polygon class="cls-5" points="117.93 236.52 118.84 234.73 118.84 234.73 115.28 229.27 114.37 231.05 114.37 231.05 117.93 236.52"/><polygon class="cls-5" points="113.7 244.78 114.61 243 113.7 244.78 113.7 244.78"/><polygon class="cls-5" points="115.82 240.64 116.73 238.87 113.17 233.4 113.17 233.4 113.17 233.4 112.26 235.18 112.26 235.18 115.82 240.64"/><polygon class="cls-5" points="113.92 249.7 113.01 251.48 113.01 251.48 113.92 249.7 113.92 249.7 113.92 249.7"/><polygon class="cls-5" points="114.61 243 111.05 237.54 111.04 237.54 111.05 237.54 114.61 243"/><polygon class="cls-5" points="113.7 244.78 114.61 243 111.05 237.54 110.14 239.31 110.14 239.31 113.7 244.78"/><rect class="cls-5" x="111.37" y="241.13" height="9.33"/><polygon class="cls-5" points="109.18 253.61 110.09 251.84 110.09 251.84 110.09 251.84 109.18 253.61"/><polygon class="cls-5" points="113.01 251.48 113.92 249.7 113.92 249.7 108.83 241.88 108.83 241.88 107.92 243.66 107.92 243.66 113.01 251.48"/><rect class="cls-5" x="106.52" y="256.85" width="2"/><polygon class="cls-5" points="109.18 253.61 110.09 251.84 110.09 251.84 106.53 246.37 105.62 248.15 105.63 248.15 109.18 253.61"/><polygon class="cls-5" points="107.98 255.96 107.98 255.96 107.98 255.96 104.42 250.5 104.42 250.5 107.98 255.96"/><polygon class="cls-5" points="105.86 260.1 104.95 261.87 104.95 261.87 105.86 260.1 105.86 260.1 105.86 260.1"/><polygon class="cls-5" points="107.07 257.75 107.98 255.96 107.98 255.96 104.42 250.5 104.42 250.5 103.51 252.28 103.51 252.28 103.51 252.28 107.07 257.75"/><rect class="cls-5" x="104.08" y="254.11" height="6.52"/><polygon class="cls-5" points="103.75 264.23 102.84 266.01 102.84 266.01 103.75 264.23 103.75 264.23 103.75 264.23"/><polygon class="cls-5" points="104.95 261.87 105.86 260.1 105.86 260.1 102.31 254.63 102.31 254.63 101.4 256.41 101.4 256.41 104.95 261.87"/><polygon class="cls-5" points="102.15 272.71 102.15 272.71 103.06 270.93 103.06 270.93 103.06 270.93 102.15 272.71"/><polygon class="cls-5" points="103.75 264.23 103.75 264.23 100.19 258.77 103.75 264.23"/><polygon class="cls-5" points="93.33 260.83 93.33 260.83 93.33 260.83 93.33 260.83"/><polygon class="cls-5" points="102.84 266.01 103.75 264.23 103.75 264.23 100.19 258.77 99.28 260.54 99.28 260.54 102.84 266.01"/><rect class="cls-5" x="100.27" y="435.36" width="1.99" transform="translate(-280.68 37.71) rotate(-45)"/><polygon class="cls-5" points="102.15 272.71 103.06 270.93 103.06 270.93 97.97 263.11 97.06 264.89 97.06 264.89 102.15 272.71"/><polygon class="cls-5" points="99.23 273.07 99.23 273.07 99.23 273.07 97.74 270.78 99.23 273.07"/><polygon class="cls-5" points="96.2 278.98 97.12 277.19 96.2 278.98 96.2 278.98"/><polygon class="cls-5" points="98.32 274.84 99.23 273.07 99.23 273.07 97.74 270.78 95.67 267.6 95.67 267.6 95.67 267.6 94.76 269.38 94.76 269.38 98.32 274.84"/><polygon class="cls-5" points="97.12 277.19 93.56 271.73 93.54 271.73 93.56 271.73 97.12 277.19"/><polygon class="cls-5" points="95 281.33 95 281.33 94.09 283.1 95 281.33 95 281.33"/><polygon class="cls-5" points="96.2 278.98 97.12 277.19 93.56 271.73 92.65 273.51 92.65 273.51 96.2 278.98"/><rect class="cls-5" x="93.22" y="275.33" height="6.52"/><polygon class="cls-5" points="91.98 287.24 91.98 287.24 91.98 287.24 92.89 285.46 92.89 285.46 92.89 285.46 91.98 287.24"/><polygon class="cls-5" points="95 281.33 91.44 275.86 91.44 275.86 90.53 277.64 94.09 283.1 95 281.33 95 281.33"/><polygon class="cls-5" points="91.29 293.94 91.29 293.94 92.19 292.16 92.19 292.16 92.19 292.16 91.29 293.94"/><polygon class="cls-5" points="89.91 284.06 91.98 287.24 92.89 285.46 92.89 285.46 89.33 280 88.42 281.77 88.42 281.77 88.42 281.77 89.91 284.06"/><polygon class="cls-5" points="89.91 284.06 91.98 287.24 91.98 287.24 89.91 284.06"/><polygon class="cls-5" points="88.36 294.3 87.46 296.07 87.46 296.07 88.36 294.3 88.36 294.3 88.36 294.3"/><polygon class="cls-5" points="91.29 293.94 92.19 292.16 92.19 292.16 87.1 284.34 86.2 286.12 86.2 286.12 86.2 286.12 91.29 293.94"/><polygon class="cls-5" points="88.36 294.3 88.36 294.3 84.81 288.83 84.79 288.83 84.81 288.83 88.36 294.3"/><polygon class="cls-5" points="85.34 300.21 85.34 300.21 86.25 298.42 86.25 298.42 86.25 298.42 85.34 300.21"/><polygon class="cls-5" points="87.46 296.07 88.36 294.3 88.36 294.3 84.81 288.83 83.9 290.61 83.9 290.61 87.46 296.07"/><polygon class="cls-5" points="83.23 304.33 84.14 302.56 83.23 304.33 83.23 304.33"/><polygon class="cls-5" points="85.34 300.21 86.25 298.42 86.25 298.42 82.7 292.96 81.78 294.74 81.78 294.74 85.34 300.21"/><polygon class="cls-5" points="81.11 308.47 81.11 308.47 82.03 306.68 82.03 306.68 82.03 306.68 81.11 308.47"/><polygon class="cls-5" points="83.23 304.33 84.14 302.56 80.58 297.09 79.67 298.87 79.67 298.87 79.67 298.87 83.23 304.33"/><polygon class="cls-5" points="73.72 299.15 73.72 299.15 73.72 299.15 73.72 299.15"/><polygon class="cls-5" points="73.74 299.15 79.67 298.87 79.67 298.87 73.74 299.15"/><rect class="cls-5" x="79.88" y="314.28" width="1.99"/><polygon class="cls-5" points="81.11 308.47 82.03 306.68 82.03 306.68 78.47 301.22 77.56 303 81.11 308.47"/><polygon class="cls-5" points="81.33 313.39 81.33 313.39 81.33 313.39 81.33 313.39"/><polygon class="cls-5" points="78.37 308.85 76.24 305.57 76.24 305.57 78.37 308.85"/><polygon class="cls-5" points="76.59 317.3 76.59 317.3 77.5 315.53 77.5 315.53 77.5 315.53 76.59 317.3"/><polygon class="cls-5" points="80.42 315.17 81.33 313.39 81.33 313.39 78.37 308.85 76.24 305.57 76.24 305.57 75.33 307.35 75.33 307.35 80.42 315.17"/><polygon class="cls-5" points="75.39 319.65 75.39 319.65 75.39 319.65 74.48 321.44 74.48 321.44 74.48 321.44 75.39 319.65"/><polygon class="cls-5" points="76.59 317.3 77.5 315.53 77.5 315.53 73.94 310.06 73.04 311.84 73.04 311.84 76.59 317.3"/><polygon class="cls-5" points="72.37 325.56 72.37 325.56 73.28 323.79 73.28 323.79 73.28 323.79 72.37 325.56"/><polygon class="cls-5" points="75.39 319.65 71.83 314.19 70.92 315.97 74.48 321.44 75.39 319.65 75.39 319.65"/><polygon class="cls-5" points="70.92 315.97 74.48 321.44 74.48 321.44 70.92 315.97 64.97 316.26 64.97 316.26 64.97 316.26 70.92 315.97"/><polygon class="cls-5" points="71.16 327.91 70.25 329.69 70.25 329.69 71.17 327.91 71.16 327.91 71.16 327.91"/><polygon class="cls-5" points="72.37 325.56 73.28 323.79 73.28 323.79 69.72 318.32 68.81 320.1 68.81 320.1 72.37 325.56"/><polygon class="cls-5" points="70.47 334.62 69.56 336.39 69.56 336.39 70.47 334.62 70.47 334.62 70.47 334.62"/><rect class="cls-5" x="69.39" y="321.92" height="6.52"/><polygon class="cls-5" points="70.25 329.69 71.16 327.91 71.16 327.91 67.61 322.45 67.61 322.45 66.69 324.23 66.69 324.23 70.25 329.69"/><polygon class="cls-5" points="70.47 334.62 70.47 334.62 65.38 326.8 65.36 326.8 65.38 326.8 70.47 334.62"/><polygon class="cls-5" points="65.73 338.53 65.73 338.53 66.64 336.76 66.64 336.76 66.64 336.76 65.73 338.53"/><polygon class="cls-5" points="69.56 336.39 70.47 334.62 70.47 334.62 65.38 326.8 64.47 328.58 64.47 328.58 69.56 336.39"/><polygon class="cls-5" points="63.62 342.65 63.62 342.65 64.53 340.88 64.53 340.88 64.53 340.88 63.62 342.65"/><polygon class="cls-5" points="65.73 338.53 66.64 336.76 66.64 336.76 63.08 331.29 62.17 333.07 62.17 333.07 62.17 333.07 65.73 338.53"/><rect class="cls-5" x="61.96" y="344.91" height="1.99"/><polygon class="cls-5" points="63.62 342.65 64.53 340.88 64.53 340.88 60.97 335.42 60.06 337.19 60.06 337.19 63.62 342.65"/><polygon class="cls-5" points="62.41 345.02 62.41 345.02 62.41 345.02 62.41 345.02"/><polygon class="cls-5" points="60.3 349.14 59.39 350.93 59.39 350.93 60.3 349.14 60.3 349.14 60.3 349.14"/><polygon class="cls-5" points="61.5 346.79 62.41 345.02 62.41 345.02 58.85 339.55 58.85 339.55 58.85 339.55 57.95 341.33 57.95 341.33 61.5 346.79"/><polygon class="cls-5" points="58.7 357.63 58.7 357.63 59.61 355.85 59.61 355.85 59.61 355.85 58.7 357.63"/><polygon class="cls-5" points="60.3 349.14 60.3 349.14 56.74 343.68 56.73 343.68 56.74 343.68 60.3 349.14"/><polygon class="cls-5" points="59.39 350.93 60.3 349.14 60.3 349.14 56.74 343.68 55.83 345.46 55.83 345.46 59.39 350.93"/><polygon class="cls-5" points="47.66 350.09 47.66 350.09 47.66 350.09 47.66 350.09"/><polygon class="cls-5" points="58.7 357.63 59.61 355.85 59.61 355.85 54.52 348.03 53.61 349.81 53.61 349.81 58.7 357.63"/><path class="cls-7" d="M169.33,507.07l-1.14-66.79-.89-52.89-1-56.33-.58-34.18L154.46,319l5.08,7.81-.9,1.78-5.1-7.82-1.07,2.09,3.56,5.47-.91,1.77-3.55-5.46L150.35,327l3.56,5.47-.9,1.77-3.56-5.46-1.2,2.35,3.55,5.46-.91,1.78-3.55-5.46-1.21,2.35,3.56,5.48-.9,1.76L145.22,337l-1.31,2.57,5.09,7.82-.92,1.79L143,341.38l-1.39,2.72,3.56,5.46-.9,1.78-3.57-5.48-1.2,2.37,3.55,5.46-.9,1.78L138.58,350l-1.2,2.36,3.57,5.46-.92,1.77-3.55-5.47-1.22,2.36,3.57,5.47-.91,1.77-3.56-5.46L133,360.84l5.1,7.81-.92,1.79-5.09-7.83-1.39,2.71,3.57,5.46-.92,1.78-3.55-5.47-1.2,2.37,3.55,5.46-.91,1.78-1.49-2.29-2.07-3.17-1.2,2.33,3.56,5.48-.91,1.76-3.56-5.46-1.21,2.37,3.56,5.46-.9,1.78-3.56-5.47-1.32,2.56,5.09,7.83-.91,1.78-5.09-7.82-1.39,2.71,3.56,5.46-.9,1.78L119,388.33l-1.2,2.35,3.55,5.46-.91,1.78-3.55-5.46-1.21,2.35,3.56,5.46-.92,1.78-3.55-5.47-1.2,2.37,3.55,5.46-.91,1.78-3.56-5.48-1.3,2.58,5.08,7.82-.9,1.77-5.1-7.82L109,407.78l3.55,5.46-.91,1.78-3.56-5.46-1.2,2.35,3.55,5.46-.9,1.78L106,413.69l-1.2,2.35,3.57,5.46-.92,1.78-3.55-5.46-1.21,2.35,3.56,5.47-.91,1.77L101.77,422l-1.32,2.57,5.1,7.81-.91,1.78-5.09-7.81L98.15,429l2.08,3.18,1.49,2.29-.91,1.77-3.56-5.47-1.2,2.35,3.56,5.46-.92,1.79-3.55-5.46-1.21,2.35,3.56,5.46-.9,1.78L93,439.05l-1.2,2.35,3.55,5.46-.9,1.78-2.06-3.17-1.49-2.29-1.32,2.57,5.08,7.82-.9,1.77-5.1-7.81-1.38,2.7,3.55,5.47-.9,1.77L86.4,452l-1.22,2.35,3.57,5.47-.92,1.79-3.55-5.47-1.2,2.34L86.63,464l-.91,1.76-3.56-5.46L81,462.62l3.55,5.46-.91,1.79-3.55-5.46L78.73,467l2.14,3.28,2.95,4.55-.9,1.78-5.1-7.83-1.38,2.72L80,476.93l-.91,1.78-3.56-5.47-1.2,2.36,3.56,5.46L77,482.85l-3.55-5.48-1.2,2.36,3.55,5.46-.9,1.77L71.3,481.5l-1.2,2.35,3.56,5.47-.92,1.79-3.55-5.48-1.32,2.58L73,496l-.91,1.77L67,490l-1.4,2.72,3.56,5.46-.91,1.78-3.55-5.46-1.21,2.35L67,502.29l-.9,1.78h0l-3.55-5.48L61.35,501l3.55,5.46L64,508.2l-3.57-5.47-1.2,2.36,3.57,5.46-.92,1.78-3.56-5.47L57,509.44l5.08,7.81-.9,1.78-5.1-7.82L44.5,533.86l16.34-2.58,43.93-6.92,20.86-3.29,40.2-6.34,3.61-.58Zm-44.22-27.28-32.39,3.8.22-.44,45.28-88.47,5.69-11.14,1.22,52.4,1,41.38Z" transform="translate(-2.49 -161.41)"/><path class="cls-8" d="M165.77,296.87c-3.77,7.38-117.09,228.85-121.26,237l-5.95.29,121.26-237Z" transform="translate(-2.49 -161.41)"/><polygon class="cls-9" points="66.64 336.76 63.08 331.29 66.64 336.76 66.64 336.76"/><polygon class="cls-10" points="164.81 225.98 142.64 274.53 141.42 222.14 135.73 233.27 90.45 321.74 90.23 322.19 122.62 318.38 102.28 362.95 58.35 369.88 163.86 169.65 164.81 225.98"/><polygon class="cls-11" points="166.84 345.67 163.34 353.32 123.14 359.66 165.7 278.87 166.84 345.67"/><path class="cls-12" d="M118.76,434.41c0,.16-.09.32-.14.49s-.06.22-.11.33a2.18,2.18,0,0,1-.09.23c-.1.26-.23.53-.36.81-.06.1-.11.21-.16.31-.21.39-.44.79-.71,1.22s-.77,1.13-1.19,1.69l-.33.45c-.44.57-.9,1.15-1.4,1.73a30.71,30.71,0,0,1-3.67,3.63,23.25,23.25,0,0,1-1.95,1.45,12.92,12.92,0,0,1-1.82,1h0l3.77-.95a16.43,16.43,0,0,0,3.76-2.46,29.37,29.37,0,0,0,3.68-3.63c.5-.58.95-1.15,1.39-1.73l.34-.44c.11-.16.23-.31.34-.46.3-.42.58-.83.84-1.24a11.24,11.24,0,0,0,.71-1.22.75.75,0,0,0,.09-.15,1,1,0,0,0,.07-.15c.14-.28.26-.55.37-.82l.07-.16s0,0,0-.06.07-.23.11-.34.08-.23.11-.34l0-.15h0Z" transform="translate(-2.49 -161.41)"/><polygon class="cls-12" points="144.93 293.76 126.67 253.07 122.91 254.01 141.16 294.71 144.93 293.76"/><polygon class="cls-12" points="156.61 288.46 152.84 289.41 157.75 300.36 120.42 317.27 124.19 316.32 161.51 299.42 156.61 288.46"/><path class="cls-4" d="M125.39,415.42l18.26,40.7,11.68-5.3,4.91,10.95-37.33,16.91-4.9-11,13-5.9-12.3-27.41a11.18,11.18,0,0,1-1.57,3.39,36.71,36.71,0,0,1-2.92,3.87,30.71,30.71,0,0,1-3.67,3.63,16.69,16.69,0,0,1-3.77,2.46l-5.06-11.3a12,12,0,0,0,3.57-2.88,39.11,39.11,0,0,0,3.57-4.6,45.46,45.46,0,0,0,2.77-4.68,8.49,8.49,0,0,0,1.13-3.18Z" transform="translate(-2.49 -161.41)"/><path class="cls-13" d="M141.2,349.84c.34-.65.7-1.29,1.1-1.92a16.75,16.75,0,0,1,1-1.43q.13-.19.3-.39c.37-.46.76-.93,1.17-1.37a17.64,17.64,0,0,1,3.2-2.68,14.25,14.25,0,0,1,4.11-1.79l.35-.1-3.77.95-.35.09A14.52,14.52,0,0,0,144.2,343a17.64,17.64,0,0,0-3.2,2.68q-.62.68-1.17,1.38l-.3.39-.35.45c-.23.32-.44.64-.65,1-.4.63-.76,1.28-1.09,1.92,0,.06-.07.11-.1.16h0c-.23.45-.44.9-.65,1.36l3.77-.95C140.69,350.84,140.94,350.34,141.2,349.84Z" transform="translate(-2.49 -161.41)"/><path class="cls-13" d="M150.92,328.63l1.24-.21.75-.09,1.06-.11.75,0c.45,0,.89-.05,1.33-.05h.73c.54,0,1.05.07,1.57.12s1,.12,1.49.2c.23,0,.48.06.71.11.39.08.77.18,1.15.28l.74.19c.34.1.66.23,1,.36s.56.19.83.3a14.83,14.83,0,0,1,1.59.81,1.1,1.1,0,0,1,.14.09,15,15,0,0,1,1.62,1.11c.24.19.48.38.71.59l.36.32c.37.36.74.73,1.08,1.13a14.83,14.83,0,0,1,1,1.26l.27.43c.19.3.38.62.56.94s.18.34.26.52.31.64.45,1l.21.54a14.65,14.65,0,0,1,.5,1.5c.13.5.24,1,.32,1.47a11.3,11.3,0,0,1,.16,1.27c0,.15,0,.31.05.45s0,.32,0,.48q0,.51,0,1c0,.14,0,.28-.05.42a11.52,11.52,0,0,1-.14,1.18c-.09.44-.19.87-.3,1.3s-.33,1.13-.53,1.67c0,.12-.09.23-.14.35-.19.49-.4,1-.64,1.45-.11.23-.22.47-.35.7a26.62,26.62,0,0,1-3.28,4.64c-1.25,1.41-2.5,2.69-3.71,3.85q-1.5,1.43-3.17,3.11c-1.12,1.14-2.21,2.34-3.26,3.62-.4.5-.79,1-1.15,1.51-.05.06-.08.13-.13.2-.52.74-1,1.5-1.45,2.27l-.25.46c0,.06,0,.12-.07.18a13.69,13.69,0,0,0-.61,1.37.05.05,0,0,0,0,0h0a11.09,11.09,0,0,0-.38,1.2s0,.07,0,.11c-.06.25-.12.51-.17.76h0l3.77-.94c0-.29.13-.59.21-.88A11,11,0,0,1,158,372a.08.08,0,0,0,0-.05c.18-.45.38-.91.61-1.36.11-.22.21-.43.33-.64.44-.78.93-1.53,1.45-2.28.4-.57.82-1.15,1.28-1.7,1-1.28,2.14-2.49,3.25-3.62s2.18-2.17,3.17-3.12c1.22-1.16,2.47-2.44,3.71-3.85a23.06,23.06,0,0,0,1.7-2.11l0-.05a26,26,0,0,0,1.56-2.48l.24-.44c0-.09.07-.18.11-.26.23-.47.45-1,.64-1.45,0-.08.08-.16.11-.24l0-.1a16.14,16.14,0,0,0,.52-1.67l0-.09c.11-.4.2-.81.27-1.22,0-.16.06-.32.08-.48s0-.46.07-.69,0-.29,0-.43,0-.08,0-.13c0-.29,0-.59,0-.89s0-.31,0-.47v-.06c0-.13,0-.27,0-.4,0-.41-.08-.84-.16-1.27,0-.05,0-.1,0-.15-.08-.43-.18-.87-.3-1.31s-.25-.84-.39-1.24c0-.09-.08-.18-.11-.27s-.14-.35-.22-.53-.28-.66-.44-1-.17-.34-.27-.51c-.17-.33-.36-.64-.55-.95l-.27-.42c-.3-.44-.62-.86-1-1.27s-.7-.77-1.07-1.13l-.36-.32c-.17-.14-.32-.3-.49-.43s-.15-.1-.23-.16a15.29,15.29,0,0,0-1.61-1.11l-.11-.07,0,0a15.91,15.91,0,0,0-1.6-.8l-.16-.07c-.21-.09-.44-.16-.66-.24s-.65-.25-1-.36l-.12,0c-.2-.06-.42-.09-.63-.15-.37-.1-.75-.2-1.15-.28l-.18,0-.53-.07c-.48-.08-1-.15-1.48-.2l-.34,0c-.41,0-.82-.06-1.23-.07h-1.42l-.64,0-.75,0-1.07.11-.74.09-.21,0-1,.18-.61.11c-.63.12-1.26.26-1.91.43l-3.77.94c.65-.16,1.28-.3,1.91-.43Z" transform="translate(-2.49 -161.41)"/><polygon class="cls-13" points="182.88 205.01 179.11 205.96 182.27 217.53 135.35 230.36 139.11 229.41 186.04 216.59 182.88 205.01"/><path class="cls-5" d="M156.05,328.13h.73a20.4,20.4,0,0,1,7.48,1.56,15,15,0,0,1,5.5,4.05,16,16,0,0,1,3.2,6.16,14,14,0,0,1,.35,6.29,18.34,18.34,0,0,1-2,5.47,24.72,24.72,0,0,1-3.28,4.64c-1.25,1.41-2.5,2.69-3.71,3.85q-1.5,1.43-3.17,3.11c-1.12,1.14-2.21,2.34-3.26,3.62a29.31,29.31,0,0,0-2.73,4,13.73,13.73,0,0,0-1.54,4.13l27.94-7.63,3.16,11.57-46.92,12.83a42.63,42.63,0,0,1-1.44-8,20.94,20.94,0,0,1,.66-7.13,23.81,23.81,0,0,1,3.17-6.82,41.4,41.4,0,0,1,6.11-7.13c2.21-2.1,4.19-4,6-5.59s3.2-3,4.36-4.32a13,13,0,0,0,2.42-3.6,5.33,5.33,0,0,0,.19-3.49,6.58,6.58,0,0,0-3.68-4.28,8.17,8.17,0,0,0-3.6-.77,14.18,14.18,0,0,0-3.68.54A14.52,14.52,0,0,0,144.2,343a17.64,17.64,0,0,0-3.2,2.68,21.82,21.82,0,0,0-2.47,3.19,29.27,29.27,0,0,0-1.84,3.44l-11-7.19a22.79,22.79,0,0,1,2.8-3.9,35.77,35.77,0,0,1,4.7-4.47,43.42,43.42,0,0,1,6.37-4.21,38,38,0,0,1,8-3.16A32.49,32.49,0,0,1,156.05,328.13Z" transform="translate(-2.49 -161.41)"/><path class="cls-12" d="M235.36,357.52c-.43,0-.85.07-1.31.07s-1.19,0-1.81-.08c-.39,0-.77-.05-1.17-.1-.83-.09-1.62-.22-2.38-.37-.44-.08-.84-.2-1.26-.3s-.76-.18-1.11-.29-.52-.18-.77-.27c-.43-.15-.85-.3-1.25-.48l-.71-.35a13.9,13.9,0,0,1-1.32-.72,15.58,15.58,0,0,1-1.62-1.18,15.16,15.16,0,0,1-1.33-1.2c-.13-.12-.25-.25-.37-.38-.31-.33-.61-.66-.9-1l-.34-.42c-.37-.49-.74-1-1.08-1.52l-3.77.95c.34.53.71,1,1.08,1.51l.35.42c.29.35.58.69.89,1l.37.39c.42.41.86.82,1.32,1.19h0c.52.42,1.06.81,1.62,1.18l.56.34c.24.14.51.25.76.37s.47.25.72.36c.08,0,.14.08.22.11.32.14.68.24,1,.36s.5.2.77.28l.15.05c.3.09.65.15,1,.23s.82.22,1.26.31l.19,0c.7.13,1.43.24,2.2.33l.94.09h.22c.62,0,1.23.07,1.81.07h.58c.26,0,.48,0,.73-.07s.73,0,1.08-.09l.28,0a13.43,13.43,0,0,0,1.35-.27l3.77-.94a16.26,16.26,0,0,1-1.63.29C236.09,357.47,235.73,357.49,235.36,357.52Z" transform="translate(-2.49 -161.41)"/><path class="cls-12" d="M228.52,310.89a15.69,15.69,0,0,1,2.31-.78l-3.77.95a13.65,13.65,0,0,0-2.31.78,16.26,16.26,0,0,0-6.59,5.14l3.77-1A16.35,16.35,0,0,1,228.52,310.89Z" transform="translate(-2.49 -161.41)"/><path class="cls-12" d="M236.2,327.14c-.42,0-.83.07-1.28.07s-1.08,0-1.65-.07l-1-.09-3.1-.35-3.77.95,3.1.35.84.08h.2c.56,0,1.11.07,1.64.07h.55c.25,0,.48,0,.73-.06s.7,0,1-.09l.27,0c.47-.07.92-.16,1.36-.27l3.77-.95a16.24,16.24,0,0,1-1.63.3C236.9,327.1,236.55,327.12,236.2,327.14Z" transform="translate(-2.49 -161.41)"/><path class="cls-12" d="M260.86,317c0-.29,0-.57,0-.85s0-.34,0-.51,0-.3-.06-.45c0-.31-.07-.62-.11-.93,0-.15,0-.31-.06-.47s-.1-.45-.16-.67l-.06-.28a12.72,12.72,0,0,0-.38-1.24c0-.14-.09-.27-.14-.4a16.27,16.27,0,0,0-4.09-6c-.34-.32-.69-.62-1-.92l-.24-.18-.59-.44L253,303l-.67-.42c-.16-.09-.31-.2-.47-.3l-.64-.34-.5-.26c-.57-.3-1.15-.58-1.76-.84l-.15-.07-.28-.1c-.74-.3-1.51-.57-2.3-.82l-.35-.13-.44-.1c-.8-.23-1.63-.43-2.48-.6-.13,0-.25-.07-.39-.09l-.15,0c-.86-.16-1.75-.3-2.66-.4l-1.29-.12-.35,0c-1-.07-1.93-.12-2.88-.12l-1,0q-1.1,0-2.16.12c-.84.07-1.66.17-2.46.29l-.37.06-.47.08c-.88.15-1.75.32-2.59.53l-3.76,1c.83-.21,1.7-.38,2.58-.53l.47-.08c.92-.15,1.86-.27,2.83-.35s2.12-.14,3.19-.14,1.92.05,2.88.12c.55,0,1.09.08,1.64.14.92.1,1.8.23,2.67.39.18,0,.35.08.53.12.86.17,1.68.37,2.49.59l.79.24c.79.24,1.55.52,2.29.82l.43.16q.92.41,1.77.84l.5.27c.38.21.74.42,1.1.64l.67.42c.33.21.64.43.94.66l.59.44c.45.35.89.71,1.29,1.09a16.1,16.1,0,0,1,4.09,6,13,13,0,0,1,.52,1.64c0,.09,0,.18.07.27q.12.57.21,1.14c0,.31.09.62.11.94s.05.63.06.95,0,.57,0,.85c0,.51,0,1-.08,1.53,0,.36-.09.72-.15,1.07s-.15.83-.25,1.23c0,.14-.06.29-.1.42q-.21.81-.48,1.56c-.16.42-.32.83-.51,1.22s-.28.55-.42.81a15.7,15.7,0,0,1-1.07,1.77l-.5.66-.26.34c-.28.33-.57.66-.88,1a15.67,15.67,0,0,1-4.44,3.18c-.42.2-.86.39-1.3.55l-.18-.07-.14,0-3.77.95c.13,0,.25.08.37.12.53.16,1,.34,1.52.54l.51.22c.48.21.94.44,1.39.69l.37.2.4.25c.27.17.53.34.78.52l.42.31.67.55.41.36c.22.2.42.4.63.61l.37.38c.21.23.41.48.61.73l.3.35c.28.38.56.76.82,1.17a17.35,17.35,0,0,1,.89,1.56c.08.16.15.33.23.49.18.38.34.77.49,1.16l.24.66.18.58c.08.27.15.55.22.83s.1.4.14.6.07.39.1.58c.09.55.16,1.1.21,1.67,0,.15,0,.29,0,.44a19.36,19.36,0,0,1,0,2c0,.5,0,1-.1,1.52s-.17,1.08-.26,1.61c-.06.34-.13.67-.2,1s-.2.77-.32,1.14-.17.59-.27.87-.27.69-.41,1-.26.62-.41.91a17.63,17.63,0,0,1-.88,1.6c-.29.46-.62.88-.94,1.31-.17.21-.33.42-.5.62s-.53.6-.81.89l-.53.54c-.32.3-.66.58-1,.86-.16.14-.32.28-.49.41a19.36,19.36,0,0,1-1.66,1.13,23.59,23.59,0,0,1-6.53,2.65l3.77-.94c.61-.15,1.2-.32,1.78-.51a23.11,23.11,0,0,0,4.75-2.14,19.36,19.36,0,0,0,1.66-1.13c.17-.13.32-.28.49-.41.34-.28.68-.57,1-.87s.36-.36.53-.54.56-.58.82-.88.33-.41.49-.63.27-.31.39-.48.38-.54.55-.83.54-.88.78-1.34c0-.08.07-.17.11-.25.15-.3.27-.61.4-.92s.23-.47.32-.72.06-.2.1-.3c.1-.29.18-.58.27-.87s.17-.49.23-.74.05-.28.08-.41c.08-.32.14-.66.2-1s.11-.46.15-.7.08-.61.11-.92c0-.47.09-.94.11-1.4v-.11a19.55,19.55,0,0,0,0-2v-.14c0-.1,0-.19,0-.3,0-.56-.11-1.12-.2-1.66,0-.1,0-.21,0-.31s-.05-.19-.07-.28-.08-.39-.13-.59-.14-.56-.22-.84l-.18-.58c0-.11-.07-.24-.12-.35s-.08-.2-.12-.3c-.15-.39-.32-.78-.5-1.16-.07-.17-.15-.34-.23-.5a17.23,17.23,0,0,0-.88-1.56c-.26-.4-.54-.79-.83-1.17-.09-.12-.19-.23-.29-.35s-.4-.49-.62-.72-.24-.26-.37-.39-.4-.41-.62-.6-.27-.25-.41-.37l-.29-.25-.38-.29c-.14-.11-.28-.22-.43-.32s-.51-.35-.77-.51l-.4-.25-.11-.07-.26-.13c-.45-.25-.91-.48-1.39-.69l-.26-.13a2.5,2.5,0,0,0-.25-.09c-.46-.19-.94-.36-1.43-.52l2.23-.56a13.85,13.85,0,0,0,2.7-1,15.56,15.56,0,0,0,4.44-3.18c.31-.31.6-.63.88-1l.26-.34c.15-.19.3-.37.44-.57l.05-.09a15.63,15.63,0,0,0,1.08-1.76l.1-.17c.11-.21.22-.42.32-.64.17-.38.34-.77.48-1.16a.14.14,0,0,0,0-.06c.19-.51.35-1,.49-1.56l0-.1c0-.1,0-.21.07-.32.09-.41.18-.82.25-1.23a1.84,1.84,0,0,1,.05-.25c0-.27.07-.55.1-.83s.07-.72.08-1.08C260.87,317.27,260.86,317.13,260.86,317Z" transform="translate(-2.49 -161.41)"/><path class="cls-4" d="M231.44,299.19a40.7,40.7,0,0,1,4.52.26,31.74,31.74,0,0,1,9.2,2.32,23.38,23.38,0,0,1,6.86,4.36,16.1,16.1,0,0,1,4.09,6,15.37,15.37,0,0,1,.9,7.32,17,17,0,0,1-1.49,5.5,16,16,0,0,1-3.13,4.55,15.67,15.67,0,0,1-4.44,3.18,14.18,14.18,0,0,1-5.39,1.39,16.35,16.35,0,0,1,9.57,7,18.23,18.23,0,0,1,2.65,12.11,18.87,18.87,0,0,1-2.75,8.16,17.8,17.8,0,0,1-5.94,5.76,25,25,0,0,1-8.66,3.11,34.18,34.18,0,0,1-6,.51,43.58,43.58,0,0,1-4.88-.28,36.14,36.14,0,0,1-13.34-3.95,24.58,24.58,0,0,1-8.95-8.13l8.62-8.49a18.63,18.63,0,0,0,5.64,5.71,20.44,20.44,0,0,0,8.81,2.78,28.64,28.64,0,0,0,3,.17,13.28,13.28,0,0,0,6.65-1.48c2.35-1.33,3.7-3.63,4-6.92a9.37,9.37,0,0,0-2.89-8.29q-3.42-3.18-11-4l-2.8-.32,1-9.85,3.1.35a23,23,0,0,0,2.68.16,13.23,13.23,0,0,0,7.15-1.79,8.48,8.48,0,0,0,4.15-6.57,7,7,0,0,0-2.12-6.32,12.48,12.48,0,0,0-7.08-2.78,20.41,20.41,0,0,0-2.19-.13,15.71,15.71,0,0,0-6.31,1.27,16.26,16.26,0,0,0-6.59,5.14l-7.45-10.21a15.84,15.84,0,0,1,4.45-3.63,27,27,0,0,1,6-2.52,35.26,35.26,0,0,1,7.09-1.29C229.31,299.23,230.37,299.19,231.44,299.19Z" transform="translate(-2.49 -161.41)"/><polygon class="cls-13" points="480.17 232.7 483.94 231.76 486.05 217.15 482.29 218.1 480.17 232.7"/><polygon class="cls-13" points="475.28 182.4 454.81 201.91 472.09 204.54 475.86 203.59 458.58 200.96 479.05 181.45 475.28 182.4"/><polygon class="cls-13" points="487.75 205.4 493.82 163.36 484.63 161.96 480.86 162.91 490.05 164.31 483.98 206.34 492.77 207.68 491.07 219.44 494.84 218.49 496.54 206.74 487.75 205.4"/><path class="cls-5" d="M486.47,367.75l8.79,1.34-1.7,11.75-8.78-1.34-2.12,14.61-13.38-2,2.1-14.61-29.17-4.42,1.68-11.67,39.46-37.07,9.19,1.4ZM474.58,366l3.19-22.15L457.3,363.32,474.58,366" transform="translate(-2.49 -161.41)"/><path class="cls-12" d="M530.43,406.56l-3.77.95a11.71,11.71,0,0,0-4.28,2.05l3.76-.95A11.83,11.83,0,0,1,530.43,406.56Z" transform="translate(-2.49 -161.41)"/><path class="cls-12" d="M535.66,429.52c-.3,0-.6.05-.9.05s-.73,0-1.1-.05-.87-.1-1.32-.18l-.14,0c-.43-.09-.86-.19-1.3-.32a9.82,9.82,0,0,1-1-.32,17.2,17.2,0,0,1-1.59-.67c-.32-.14-.64-.3-.95-.47s-.88-.48-1.3-.75l-.27-.17a18.15,18.15,0,0,1-1.59-1.22l-.33-.29a20.84,20.84,0,0,1-1.51-1.47,22.79,22.79,0,0,1-1.46-1.79c-.15-.21-.28-.43-.42-.64-.29-.42-.58-.84-.84-1.27-.15-.27-.28-.54-.43-.81s-.44-.81-.63-1.23-.25-.61-.38-.92c-.2-.5-.41-1-.58-1.51l-3.77.94c.06.19.13.37.19.56s.27.64.4,1,.24.61.37.91.42.83.64,1.24.27.54.42.8c.27.44.56.86.85,1.29.14.2.27.42.42.62a22.52,22.52,0,0,0,1.46,1.8,20.61,20.61,0,0,0,1.5,1.46l.34.3a3.73,3.73,0,0,0,.3.26c.41.34.84.65,1.28.95l.27.17c.27.18.53.35.81.51l.5.25c.3.17.62.32.94.47s.33.18.51.25q.53.23,1.08.42l.85.28.16,0c.44.12.87.23,1.3.31a.5.5,0,0,0,.13,0h0a11.92,11.92,0,0,0,1.32.17H530c.34,0,.68,0,1,0h.33c.19,0,.38,0,.58-.05s.44,0,.66-.06h.15a10.7,10.7,0,0,0,1.1-.22l3.77-.94c-.42.1-.83.17-1.25.23C536.11,429.49,535.88,429.5,535.66,429.52Z" transform="translate(-2.49 -161.41)"/><path class="cls-12" d="M560,418c0-.34,0-.69,0-1,0-.07,0-.13,0-.2a22,22,0,0,0-.3-2.34s0-.08,0-.12a17.52,17.52,0,0,0-.42-1.77c0-.16-.09-.31-.14-.46-.1-.32-.18-.64-.3-.95s-.13-.34-.2-.51-.12-.32-.19-.47a18.75,18.75,0,0,0-.82-1.76,23.14,23.14,0,0,0-5.62-6.85l-.27-.22c-.51-.41-1-.81-1.59-1.19L550,400c-.52-.35-1-.68-1.59-1l-.21-.11-.44-.24c-.5-.27-1-.53-1.54-.77l-.53-.24-.34-.16c-.57-.24-1.16-.46-1.75-.68-.44-.15-.86-.29-1.27-.41l-.12,0c-.63-.18-1.23-.33-1.82-.44l-.1,0c-.14,0-.28,0-.42-.06-.32-.05-.64-.1-1-.13l-.18,0c-.32,0-.64,0-.95,0h-.38c-.16,0-.29,0-.44,0s-.48,0-.7.06h-.19c-.28,0-.55.1-.81.16l-1.27.32,7.63-13.74-3.77,1-7.74,13.93,3-.74h.13c.27,0,.53,0,.83,0a11.23,11.23,0,0,1,1.13.07c.31,0,.63.08,1,.13l.52.08a17.06,17.06,0,0,1,1.81.45c.45.13.91.27,1.39.44.72.25,1.41.54,2.09.83l.53.25c.53.24,1,.5,1.54.77l.44.23c.62.36,1.22.73,1.81,1.12l.08.06a21.62,21.62,0,0,1,1.86,1.41,22.68,22.68,0,0,1,5.62,6.84c.31.58.57,1.17.82,1.76.07.16.13.32.19.48.19.48.36,1,.5,1.46l.15.45c.17.62.31,1.25.43,1.89s.24,1.55.31,2.34c0,.41,0,.83,0,1.24s0,.76,0,1.14-.06.74-.09,1.11-.06.8-.12,1.21-.13.66-.19,1-.17.93-.29,1.41c-.18.73-.39,1.46-.64,2.2-.17.49-.37,1-.57,1.43s-.44,1.07-.69,1.58-.47.95-.73,1.4l-.18.32c-.35.59-.73,1.14-1.12,1.67a19.59,19.59,0,0,1-1.74,2.1,22.24,22.24,0,0,1-7.66,5.21,23.88,23.88,0,0,1-3.13,1l3.76-1a24,24,0,0,0,3.14-1,22.27,22.27,0,0,0,7.66-5.22,20.73,20.73,0,0,0,1.74-2.09c0-.07.1-.12.15-.19.34-.47.66-1,1-1.48.07-.11.12-.22.19-.33.17-.3.35-.6.51-.92.08-.15.14-.32.21-.48.25-.51.48-1,.7-1.57.09-.22.2-.42.29-.65s.19-.52.28-.79c.23-.68.44-1.36.61-2l0-.17c.12-.47.2-.94.29-1.41,0-.29.13-.58.18-.87a.41.41,0,0,1,0-.11c.06-.41.08-.82.12-1.22s.08-.67.09-1v-.1C560.05,418.73,560,418.35,560,418Z" transform="translate(-2.49 -161.41)"/><polygon class="cls-12" points="533.8 206.45 530.03 207.39 563.45 219.15 559.56 230.56 563.33 229.62 567.22 218.2 533.8 206.45"/><path class="cls-4" d="M532.52,368.8l33.42,11.75L562.05,392l-24.16-8.49-7.74,13.93a8.42,8.42,0,0,1,3.91-.79,17.72,17.72,0,0,1,5.81,1.17,26.65,26.65,0,0,1,8.35,4.67,22.68,22.68,0,0,1,5.62,6.84,21.08,21.08,0,0,1,2.4,8.38,23.67,23.67,0,0,1-1.31,9.3,22.52,22.52,0,0,1-5,8.5,22.24,22.24,0,0,1-7.66,5.21,25.13,25.13,0,0,1-9.49,1.79,31.14,31.14,0,0,1-10.49-1.85A30.09,30.09,0,0,1,510,432.86a23.19,23.19,0,0,1-6.06-11.56l9.91-4.9a22.7,22.7,0,0,0,4.75,8.18,18.23,18.23,0,0,0,7.53,5,14.52,14.52,0,0,0,4.87.9,11.45,11.45,0,0,0,4.62-1,11,11,0,0,0,6-6.93,11.14,11.14,0,0,0-.42-9,11.66,11.66,0,0,0-6.86-5.76,13.59,13.59,0,0,0-4.53-.79,13.79,13.79,0,0,0-1.82.12,11.89,11.89,0,0,0-5.65,2.32l-11.18-3.94a21.57,21.57,0,0,1,1.11-2q1-1.7,2.55-4.35c1-1.76,2.16-3.74,3.41-5.92s2.52-4.41,3.86-6.66C525.23,381.39,528.7,375.43,532.52,368.8Z" transform="translate(-2.49 -161.41)"/><path class="cls-13" d="M537.91,510.34c-.32,0-.65,0-1,0h0a11.7,11.7,0,0,1-1.17-.15l-.34-.07c-.31-.07-.62-.14-.93-.23s-.36-.09-.53-.15c-.4-.13-.79-.28-1.16-.44a11.19,11.19,0,0,1-1.2-.6l-.07,0a12.57,12.57,0,0,1-1.41-1c-.24-.19-.48-.37-.7-.58a14.61,14.61,0,0,1-3.12-4,13.68,13.68,0,0,1-.7-1.57c-.07-.19-.14-.37-.2-.56l-.12-.39c-.08-.28-.15-.56-.21-.85,0-.1,0-.2-.07-.3a12.13,12.13,0,0,1-.19-1.23c0-.31,0-.61,0-.92s0-.48,0-.72l0-.65c0-.21,0-.42.07-.63s.06-.43.1-.65.07-.42.12-.63.16-.66.26-1,.22-.6.34-.9.21-.51.33-.76l.24-.48a12.1,12.1,0,0,1,.76-1.24l0-.06c.25-.34.52-.67.8-1a13.54,13.54,0,0,1,3.93-3,11.86,11.86,0,0,1,2.64-1l-3.77.94a12.09,12.09,0,0,0-2.63,1,13.94,13.94,0,0,0-3.94,3,10.84,10.84,0,0,0-.79,1h0l0,0a11.11,11.11,0,0,0-.76,1.24l-.09.15c0,.1-.09.22-.14.32s-.24.51-.34.77a1.89,1.89,0,0,0-.11.25c-.08.21-.16.43-.23.65s-.13.46-.19.69,0,.2-.06.29-.09.42-.13.64,0,.23-.07.34,0,.21,0,.31-.05.42-.06.63,0,.23,0,.34,0,.2,0,.3,0,.48,0,.73,0,.23,0,.35a5.48,5.48,0,0,0,0,.57,11.16,11.16,0,0,0,.16,1.14.24.24,0,0,0,0,.08c0,.1,0,.2.07.3.06.29.13.57.21.85l.12.39c0,.12.07.25.12.37s.06.13.08.19a13.87,13.87,0,0,0,.7,1.57,15,15,0,0,0,3.12,4c.17.15.35.31.53.45l.18.12a11.26,11.26,0,0,0,1.4,1h0l.07,0a10.27,10.27,0,0,0,1.2.59l.09.05c.34.14.7.28,1.07.4l.31.09.22.06c.31.08.62.16.93.22l.22.05.12,0c.39.07.79.13,1.18.16h0c.33,0,.66,0,1,0h.33a8.46,8.46,0,0,0,.87,0l.66-.08c.45-.07.89-.15,1.32-.26l3.77-.95a13.22,13.22,0,0,1-2,.34A12.1,12.1,0,0,1,537.91,510.34Z" transform="translate(-2.49 -161.41)"/><path class="cls-13" d="M530.11,476c.13-.33.27-.66.4-1l.45-1c.14-.31.29-.61.43-.91s.33-.65.49-1,.31-.55.46-.81.35-.6.53-.88.32-.5.49-.75.39-.56.59-.83l.44-.56c.22-.27.44-.53.67-.79s.29-.32.44-.47.52-.52.78-.76l.39-.36c.4-.34.81-.67,1.24-1a13.34,13.34,0,0,1,4.4-2.06l-3.77.95a13.24,13.24,0,0,0-4.4,2.06c-.42.3-.83.62-1.24,1-.13.11-.25.24-.38.36s-.53.49-.79.75l-.44.48c-.22.26-.45.52-.67.79s-.29.37-.43.56-.23.28-.34.43l-.26.4-.49.74-.53.88-.45.81c-.08.14-.16.27-.23.41s-.17.38-.26.56-.29.59-.43.9-.31.69-.46,1.05l-.39,1c-.06.14-.12.27-.17.41-.17.45-.33.91-.49,1.38l3.77-.94C529.67,477.17,529.89,476.58,530.11,476Z" transform="translate(-2.49 -161.41)"/><path class="cls-13" d="M563.9,497.46c0-.21,0-.42,0-.62,0-.36-.06-.73-.1-1.09-.07-.58-.15-1.16-.26-1.73,0-.11,0-.22-.08-.33s-.1-.46-.16-.7q-.16-.69-.36-1.38c-.07-.24-.15-.48-.23-.72s-.09-.32-.15-.48-.23-.59-.35-.89-.16-.41-.25-.61c-.28-.65-.59-1.28-.93-1.9s-.78-1.33-1.21-2l-.37-.47c-.33-.47-.67-.93-1.05-1.38-.19-.23-.42-.44-.62-.67s-.64-.72-1-1.06-.53-.47-.79-.71-.66-.61-1-.9l0,0c-.59-.48-1.21-.93-1.85-1.36-.2-.14-.41-.26-.62-.39s-.62-.41-.94-.6l-.49-.26-.5-.26c-.63-.34-1.28-.65-1.95-.94l-.08,0h0c-.77-.33-1.57-.62-2.39-.89l-.55-.17-.33-.08c-.56-.16-1.12-.3-1.67-.41l-.33-.08-.15,0c-.63-.11-1.25-.2-1.86-.25h0q-.75-.06-1.47-.06h-.47a3,3,0,0,0-.31,0c-.46,0-.92.06-1.37.12l-.31,0-.43.07c-.42.08-.82.16-1.22.26l-3.77.95c.4-.1.81-.19,1.22-.26.25-.05.5-.07.74-.1.46-.06.91-.1,1.37-.12l.78,0c.5,0,1,0,1.51.06s1.22.14,1.85.26a4.1,4.1,0,0,1,.48.1c.56.11,1.11.24,1.67.4.3.09.59.16.89.26.83.27,1.63.57,2.41.9a.2.2,0,0,1,.08,0c.67.28,1.32.6,2,.93l.5.27c.48.27,1,.56,1.42.85.21.13.42.26.62.4a22.56,22.56,0,0,1,1.85,1.36c.36.29.68.6,1,.9l.81.72c.34.33.64.68,1,1s.46.46.66.71.62.79.93,1.2c.16.22.34.42.49.65a22,22,0,0,1,1.21,2c.34.62.65,1.26.93,1.9.09.2.17.41.25.62.18.45.35.9.51,1.37.08.23.15.47.22.71.14.46.26.92.37,1.39.05.23.11.46.16.7.13.68.25,1.36.33,2.06s.09,1.13.11,1.7c0,.41,0,.81,0,1.22s0,.79-.06,1.18-.06.74-.11,1.11-.11.8-.18,1.19-.15.77-.24,1.16c-.14.61-.29,1.23-.48,1.84s-.43,1.21-.66,1.79-.41,1-.63,1.42-.36.77-.56,1.14l-.26.46c-.36.62-.74,1.22-1.15,1.8a21.93,21.93,0,0,1-1.54,1.92,24.37,24.37,0,0,1-7.58,5.7,23.06,23.06,0,0,1-4.55,1.64l3.77-.94a24,24,0,0,0,4.55-1.65,24.34,24.34,0,0,0,7.58-5.7,23.38,23.38,0,0,0,1.54-1.91v0c.41-.57.78-1.17,1.14-1.78l.26-.46c.09-.16.19-.32.27-.49s.19-.43.29-.64c.22-.47.43-.94.63-1.42.06-.16.14-.31.2-.47q.24-.64.45-1.32c.15-.45.27-.89.39-1.33,0-.17.06-.35.1-.52.09-.38.17-.77.23-1.15,0-.22.11-.44.14-.66s0-.36,0-.54c0-.37.08-.73.11-1.1,0-.21,0-.42.06-.63s0-.37,0-.56C563.92,498.27,563.92,497.86,563.9,497.46Z" transform="translate(-2.49 -161.41)"/><path class="cls-13" d="M539.47,452l.46,0c.47,0,.94-.06,1.42-.06.66,0,1.32,0,2,.09s1.6.18,2.4.32c.57.1,1.14.21,1.72.36l.18,0c.64.17,1.29.35,2,.56a29.94,29.94,0,0,1,2.92,1.13l.42.19c.87.4,1.71.84,2.52,1.31l.45.29c.69.42,1.35.88,2,1.36.18.13.37.26.55.41a25.36,25.36,0,0,1,2.22,1.93,26.44,26.44,0,0,1,2,2.21l.08.1a24.26,24.26,0,0,1,1.69,2.33,1.27,1.27,0,0,0,.13.19c.5.8.95,1.62,1.38,2.47l.13.27a27.58,27.58,0,0,1,1.1,2.61c.08.22.17.43.24.65l-9.91,5.51,3.77-.94,9.91-5.52c-.05-.15-.1-.29-.16-.44s-.06-.13-.08-.2a27.58,27.58,0,0,0-1.1-2.61c0-.09-.09-.18-.14-.27a24.77,24.77,0,0,0-1.38-2.47l-.12-.19a27.8,27.8,0,0,0-1.69-2.34l-.09-.1a28,28,0,0,0-2-2.21c-.6-.58-1.22-1.13-1.86-1.66l-.36-.27-.55-.41c-.64-.48-1.31-.93-2-1.35-.15-.1-.3-.2-.46-.29l-.2-.13c-.75-.43-1.52-.82-2.31-1.18l-.43-.2-.44-.2c-.8-.34-1.63-.65-2.47-.92l-.74-.23c-.4-.12-.81-.23-1.22-.33l-.17-.05c-.5-.12-1-.23-1.5-.32a1.66,1.66,0,0,0-.22,0q-1.21-.23-2.4-.33h0c-.66-.06-1.32-.08-2-.08h-.64c-.26,0-.52,0-.78,0s-.3,0-.45,0c-.52,0-1,.09-1.54.17h-.08c-.72.11-1.44.25-2.14.43l-3.77.94c.71-.17,1.42-.32,2.14-.43Q538.66,452.1,539.47,452Z" transform="translate(-2.49 -161.41)"/><path class="cls-5" d="M557.26,488A23.54,23.54,0,0,1,560,496.7a22.26,22.26,0,0,1-.95,9.4,22.61,22.61,0,0,1-4.8,8.53,24.37,24.37,0,0,1-7.58,5.7,25,25,0,0,1-9.45,2.39c-.5,0-1,0-1.52,0a28.59,28.59,0,0,1-8.9-1.46,27,27,0,0,1-9.79-5.47,22.83,22.83,0,0,1-6-8.61,29.49,29.49,0,0,1-2-11.31,45.19,45.19,0,0,1,2.3-13.55,65.47,65.47,0,0,1,7-15.57,37.62,37.62,0,0,1,9-10.06,23.61,23.61,0,0,1,10.6-4.51,23.94,23.94,0,0,1,3.5-.26,26.69,26.69,0,0,1,8.24,1.37A28,28,0,0,1,560.66,460a27,27,0,0,1,6.78,10.83l-9.91,5.51a17,17,0,0,0-4.21-7.5,17.35,17.35,0,0,0-7.36-4.58,14.46,14.46,0,0,0-4.48-.75,12.54,12.54,0,0,0-7.34,2.42c-3.59,2.51-6.4,6.78-8.45,12.85a14.15,14.15,0,0,1,7.37-3.53A16.34,16.34,0,0,1,536,475a20.7,20.7,0,0,1,6.4,1.08,27.1,27.1,0,0,1,8.84,4.75A24.24,24.24,0,0,1,557.26,488Zm-10.5,14.16a12.19,12.19,0,0,0,.49-5.1,14.06,14.06,0,0,0-1.46-4.78,12.49,12.49,0,0,0-3.17-4,14.09,14.09,0,0,0-8.88-3.22l-.93,0a12.25,12.25,0,0,0-4.82,1.35,13.94,13.94,0,0,0-3.94,3,12.13,12.13,0,0,0-2.5,4.44,12.65,12.65,0,0,0-.51,5.19,13.06,13.06,0,0,0,1.48,4.89,15,15,0,0,0,3.12,4,12.38,12.38,0,0,0,4.54,2.62,13.12,13.12,0,0,0,4,.64q.6,0,1.2-.06a13.33,13.33,0,0,0,4.86-1.44,13.68,13.68,0,0,0,4-3.15,12.24,12.24,0,0,0,2.54-4.53" transform="translate(-2.49 -161.41)"/><polygon class="cls-14" points="408.2 457.31 244.76 457.31 228.51 440.12 338.93 329.7 509.06 329.7 408.2 457.31"/><polygon class="cls-15" points="484.07 361.31 256.81 411.82 338.93 329.7 509.06 329.7 484.07 361.31"/><polygon class="cls-16" points="244.76 457.31 228.51 440.12 252.65 431.4 244.76 457.31"/><polygon class="cls-17" points="500.63 351.55 262.23 407.36 263.32 341.15 501.63 290.95 500.63 351.55"/><polygon class="cls-18" points="263.32 341.15 116.39 304.3 354.69 254.1 501.63 290.95 263.32 341.15"/><path class="cls-19" d="M123,468.17l-1,62.05s140.3,36.07,142.77,36.41l1.06-63.85Z" transform="translate(-2.49 -161.41)"/><polygon class="cls-20" points="258.99 340.06 258.99 340.06 116.39 304.3 116.35 306.41 258.93 343.46 257.95 402.83 115.35 367.06 115.31 369.18 262.23 407.36 262.28 403.92 263.27 344.59 263.32 341.15 258.99 340.06"/><text class="cls-21" transform="matrix(1, -0.24, 0, 1, 274.04, 386.26)">TRIGONOM<tspan class="cls-22" x="131.54" y="0">E</tspan><tspan x="145.58" y="0">T</tspan><tspan class="cls-23" x="159.31" y="0">R</tspan><tspan x="173.87" y="0">Y</tspan></text><polygon class="cls-24" points="115.35 367.06 119.56 365.03 119.5 368.11 115.35 367.06"/><path class="cls-25" d="M145.87,382.1c-.16-1.06-.35-2.15-.55-3.21L367.7,427.26l.48,31.63-.48-29Z" transform="translate(-2.49 -161.41)"/><path class="cls-26" d="M368.75,496.76l-223.43-48.2c.14-.9.25-1.81.37-2.71l223,47.76Z" transform="translate(-2.49 -161.41)"/><polygon class="cls-27" points="291.31 245.99 512.67 297.54 512.67 229 290.31 180.62 291.31 245.99"/><polygon class="cls-28" points="365.2 265.85 512.14 229 289.77 180.62 142.84 217.47 365.2 265.85"/><path class="cls-29" d="M510.5,395.3l1,62s-140.3,36-142.78,36.36l-1.05-63.75Z" transform="translate(-2.49 -161.41)"/><path class="cls-30" d="M149.29,446.49c3-22.18,3.45-43.57.18-63.74L367.7,429.87l.48,29,.52,34.72Z" transform="translate(-2.49 -161.41)"/><polygon class="cls-31" points="366.26 332.23 366.21 332.21 365.69 297.48 366.26 332.23"/><polygon class="cls-32" points="365.2 265.85 512.14 229 512.14 297.54 366.26 335.35 366.26 332.22 509.04 295.85 509.04 233.89 365.21 268.46 365.2 265.85"/><path class="cls-33" d="M426.75,362.84h0a1.31,1.31,0,0,1,.23.38l.06.13a3.55,3.55,0,0,1,.21.65,6.19,6.19,0,0,1,0,3.21.45.45,0,0,1-.22.27h0l6.81-2.59s0,0,.05-.06a1.46,1.46,0,0,0,0-.69,1.11,1.11,0,0,0-.07-.2l0,0s0,0-.05,0l-7.19-1.14h0A.35.35,0,0,1,426.75,362.84Z" transform="translate(-2.49 -161.41)"/><polygon class="cls-34" points="410.98 211.2 410.98 211.2 410.98 211.2 410.98 211.2"/><path class="cls-35" d="M412.4,360.54h0a1.31,1.31,0,0,1,.31.21l.08.09c.08.09.16.2.25.32a.61.61,0,0,0,.07.1,6.26,6.26,0,0,1,.29.58c0,.05.05.1.07.16s.15.38.22.59l.08.23c.09.29.18.59.26.92.72,3,.75,6.62.07,8.19a1.47,1.47,0,0,1-.3.47s-.07.05-.1.08a.88.88,0,0,1-.17.12h0l13.51-5.12h0a.45.45,0,0,0,.22-.27,6.19,6.19,0,0,0,0-3.21,3.55,3.55,0,0,0-.21-.65l-.06-.13a1.31,1.31,0,0,0-.23-.38h0a.35.35,0,0,0-.18-.11h0l-14.28-2.22h-.07A.55.55,0,0,1,412.4,360.54Z" transform="translate(-2.49 -161.41)"/><path class="cls-36" d="M413.47,372.6h.06a.88.88,0,0,0,.17-.12A.51.51,0,0,1,413.47,372.6Z" transform="translate(-2.49 -161.41)"/><path class="cls-36" d="M413.47,362c0-.06-.05-.11-.07-.16S413.45,361.94,413.47,362Z" transform="translate(-2.49 -161.41)"/><path class="cls-36" d="M413.77,362.82l-.08-.23Z" transform="translate(-2.49 -161.41)"/><path class="cls-36" d="M414.1,371.93a1.47,1.47,0,0,1-.3.47A1.47,1.47,0,0,0,414.1,371.93Z" transform="translate(-2.49 -161.41)"/><path class="cls-36" d="M412.4,360.54Z" transform="translate(-2.49 -161.41)"/><path class="cls-36" d="M413.11,361.26a.61.61,0,0,1-.07-.1A.61.61,0,0,0,413.11,361.26Z" transform="translate(-2.49 -161.41)"/><path class="cls-36" d="M412.71,360.75l.08.09Z" transform="translate(-2.49 -161.41)"/><path class="cls-37" d="M237.69,378.74a1.31,1.31,0,0,1,.31.21l.08.09a2.09,2.09,0,0,1,.25.32.36.36,0,0,0,.07.1,4.47,4.47,0,0,1,.29.58,1,1,0,0,1,.07.15c.08.19.15.39.22.61a1.55,1.55,0,0,1,.08.23c.09.28.18.58.26.91.72,3,.76,6.63.08,8.19a2.23,2.23,0,0,1-.3.48s0,0,0,0-.06,0-.09,0a.67.67,0,0,1-.23.13l0,0,12.74-1.33,12.34-1.29,23.26-2.42,13.78-1.43,3.76-.4L333,381l14.64-1.53,3.6-.37,13.93-1.45,23.18-2.42L400.73,374l12.7-1.33,0,0h0a.51.51,0,0,0,.23-.12s.07,0,.1-.08a1.47,1.47,0,0,0,.3-.47c.68-1.57.65-5.23-.07-8.19-.08-.33-.17-.63-.26-.92l-.08-.23c-.07-.21-.15-.41-.22-.59s-.05-.11-.07-.16a6.26,6.26,0,0,0-.29-.58.61.61,0,0,1-.07-.1c-.09-.12-.17-.23-.25-.32l-.08-.09a1.31,1.31,0,0,0-.31-.21h0a.55.55,0,0,0-.18,0h-.06l-12.71,1.32-12.37,1.29-23.23,2.42L350,367l-3.73.39-14.58,1.52-28.39,3-3.72.39-13.83,1.44-23.23,2.42-12.38,1.29-12.7,1.32a.47.47,0,0,1,.23,0Z" transform="translate(-2.49 -161.41)"/><path class="cls-34" d="M238,379l.08.09Z" transform="translate(-2.49 -161.41)"/><path class="cls-34" d="M237.69,378.74Z" transform="translate(-2.49 -161.41)"/><path class="cls-34" d="M238.76,380.19a1,1,0,0,0-.07-.15A1,1,0,0,1,238.76,380.19Z" transform="translate(-2.49 -161.41)"/><path class="cls-34" d="M239,390.68a.67.67,0,0,1-.23.13A.67.67,0,0,0,239,390.68Z" transform="translate(-2.49 -161.41)"/><path class="cls-34" d="M239.4,390.13a2.23,2.23,0,0,1-.3.48A2.23,2.23,0,0,0,239.4,390.13Z" transform="translate(-2.49 -161.41)"/><path class="cls-34" d="M238.4,379.46a.36.36,0,0,1-.07-.1A.36.36,0,0,0,238.4,379.46Z" transform="translate(-2.49 -161.41)"/><path class="cls-34" d="M239.06,381a1.55,1.55,0,0,0-.08-.23A1.55,1.55,0,0,1,239.06,381Z" transform="translate(-2.49 -161.41)"/><path class="cls-34" d="M232.09,379.27a.5.5,0,0,1,.24,0h0a.79.79,0,0,1,.24.15l.07.06.08.09c.08.09.16.2.25.32l.06.1a4.46,4.46,0,0,1,.3.58,1,1,0,0,0,.07.15c.07.19.15.39.22.61,0,.07,0,.15.08.23.09.28.18.58.26.91.72,3,.75,6.63.07,8.19a1.65,1.65,0,0,1-.3.48.41.41,0,0,1-.11.07.44.44,0,0,1-.22.12l0,0,2.68-.28,2.68-.28,0,0a.67.67,0,0,0,.23-.13s.06,0,.09,0,0,0,0,0a2.23,2.23,0,0,0,.3-.48c.68-1.56.64-5.23-.08-8.19-.08-.33-.17-.63-.26-.91a1.55,1.55,0,0,0-.08-.23c-.07-.22-.14-.42-.22-.61a1,1,0,0,0-.07-.15,4.47,4.47,0,0,0-.29-.58.36.36,0,0,1-.07-.1,2.09,2.09,0,0,0-.25-.32L238,379a1.31,1.31,0,0,0-.31-.21h0a.47.47,0,0,0-.23,0l-2.68.28h0Z" transform="translate(-2.49 -161.41)"/><path class="cls-38" d="M232.33,379.3Z" transform="translate(-2.49 -161.41)"/><path class="cls-38" d="M232.64,379.51l.08.09Z" transform="translate(-2.49 -161.41)"/><path class="cls-38" d="M233.33,380.6a1,1,0,0,0,.07.15A1,1,0,0,1,233.33,380.6Z" transform="translate(-2.49 -161.41)"/><path class="cls-38" d="M233,379.92l.06.1Z" transform="translate(-2.49 -161.41)"/><path class="cls-38" d="M234,390.69a1.65,1.65,0,0,1-.3.48A1.65,1.65,0,0,0,234,390.69Z" transform="translate(-2.49 -161.41)"/><path class="cls-38" d="M233.62,391.24a.44.44,0,0,1-.22.12A.44.44,0,0,0,233.62,391.24Z" transform="translate(-2.49 -161.41)"/><path class="cls-38" d="M233.62,381.36c0,.07,0,.15.08.23C233.67,381.51,233.65,381.43,233.62,381.36Z" transform="translate(-2.49 -161.41)"/><path class="cls-38" d="M233.62,391.24a.41.41,0,0,0,.11-.07,1.65,1.65,0,0,0,.3-.48c.68-1.56.65-5.23-.07-8.19-.08-.33-.17-.63-.26-.91,0-.08,0-.16-.08-.23-.07-.22-.15-.42-.22-.61a1,1,0,0,1-.07-.15,4.46,4.46,0,0,0-.3-.58l-.06-.1c-.09-.12-.17-.23-.25-.32l-.08-.09-.07-.06a.79.79,0,0,0-.24-.15h0a.5.5,0,0,0-.24,0h0l-14.17,1.48-2.51.26a2.92,2.92,0,0,0-1.56.63,3.48,3.48,0,0,0-1.08,1.41,6.31,6.31,0,0,0-.29.9c-.06.26-.09.53-.13.8,0,.05,0,.11,0,.16,0,.34-.05.66-.06,1v0c0,.35,0,.69,0,1a1.23,1.23,0,0,0,0,.19c0,.27,0,.52.08.75l0,.22c.09.6.19,1.05.22,1.17s.05.18.08.28.09.31.14.46l.09.29.06.15c0,.1.08.16.11.25s.15.33.23.48a3.21,3.21,0,0,0,.19.31c.09.14.18.27.28.4l.17.19a3.51,3.51,0,0,0,.34.33l.18.13a1.85,1.85,0,0,0,.33.21,1.92,1.92,0,0,0,.29.14l.21.09a3.2,3.2,0,0,0,1.32.15l5-.52,2.13-.22,4.59-.48,5-.51,0,0A.44.44,0,0,0,233.62,391.24Z" transform="translate(-2.49 -161.41)"/><path class="cls-39" d="M398.65,376.8a6.34,6.34,0,0,0-1.89-.2,5,5,0,0,0-1.19.19l-4,1.14c-.35-.27-.69-.53-1.06-.79l-1-.71-.92-.62c-.53-.35-1.06-.68-1.61-1-.37-.23-.74-.44-1.12-.65-.93-.53-1.89-1-2.89-1.52-.4-.21-.81-.4-1.23-.6l-.85-.38c-.76-.35-1.55-.69-2.36-1-.42-.18-.87-.36-1.31-.52-1.13-.43-2.29-.85-3.48-1.23-.46-.16-.91-.31-1.39-.45-1.21-.37-2.44-.72-3.7-1.05l-1.43-.36c-1.28-.32-2.57-.6-3.88-.86l-1.45-.26c-1.31-.24-2.64-.46-4-.64-.48-.07-1-.14-1.47-.19l-1.14-.13c-1-.11-1.93-.21-2.9-.29l-1.46-.09c-1.34-.09-2.69-.15-4-.18-.48,0-1,0-1.44,0-1.33,0-2.64,0-4,.06l-1.08,0-.32,0a72.08,72.08,0,0,0-17.47,3l-.52.17-1.1.37c-1,.35-2,.72-2.93,1.11-.35.14-.67.29-1,.43l-1.15.54c-.51.24-1,.49-1.46.74-.3.16-.59.33-.88.5-.8.46-1.55.94-2.26,1.43l-.77.55c-.68.51-1.31,1-1.89,1.57-.23.2-.43.39-.63.6a21.52,21.52,0,0,0-1.53,1.68c-.16.21-.33.42-.49.64a15.38,15.38,0,0,0-1.12,1.77c-.13.22-.25.45-.36.68a14,14,0,0,0-.72,1.82c-.08.24-.15.48-.21.71a12.26,12.26,0,0,0-.34,1.87l-.06.73a15,15,0,0,0,.05,1.89,6.79,6.79,0,0,0,.11.75,14.2,14.2,0,0,0,.4,1.87c.08.25.16.5.25.75a16.08,16.08,0,0,0,.78,1.84q.18.38.39.75a19,19,0,0,0,1.1,1.77c.17.25.36.5.55.75.42.57.88,1.13,1.38,1.7.21.24.44.48.67.72s.32.33.48.48c.38.37.77.75,1.19,1.12.26.23.53.47.81.7l.35.29-3.5,1a1.65,1.65,0,0,0-1.12.78.88.88,0,0,0,0,.76,2.12,2.12,0,0,0,.6.71l8.05,6.26,92.94-25.77-.21-.82-8.06-6A4.63,4.63,0,0,0,398.65,376.8Zm-71,19.37a2.42,2.42,0,0,1-.36-.27c-8.37-6.6-5.19-15,7.4-18.79a41.84,41.84,0,0,1,6.11-1.32,54.12,54.12,0,0,1,14.66,0c7.19,1,13.83,3.34,18.11,6.84a3.11,3.11,0,0,1,.33.29Z" transform="translate(-2.49 -161.41)"/><path class="cls-40" d="M398.94,375.58a6.68,6.68,0,0,0-1.89-.19,5.59,5.59,0,0,0-1.19.18l-4,1.14c-.35-.26-.69-.52-1.06-.78s-.64-.48-1-.71l-.93-.63c-.52-.34-1.05-.67-1.6-1-.37-.22-.74-.44-1.12-.65-.93-.53-1.89-1-2.89-1.52l-1.23-.6-.86-.38c-.75-.35-1.54-.68-2.35-1-.42-.18-.87-.35-1.31-.52-1.14-.43-2.29-.84-3.48-1.23-.46-.15-.91-.3-1.39-.44-1.21-.38-2.44-.73-3.7-1.05-.46-.13-1-.25-1.43-.36-1.28-.32-2.58-.6-3.88-.86l-1.45-.26c-1.31-.25-2.65-.46-4-.64l-1.47-.2c-.38,0-.76-.09-1.14-.12-1-.11-1.94-.21-2.9-.29l-1.46-.1c-1.34-.08-2.69-.15-4-.17l-1.44,0c-1.33,0-2.64,0-4,.06l-1.08,0-.33,0a71.77,71.77,0,0,0-17.47,3l-.51.17c-.38.11-.74.23-1.1.36-1,.35-2,.72-2.93,1.12-.35.13-.67.28-1,.43l-1.15.54c-.51.24-1,.48-1.46.74l-.88.49c-.8.46-1.55.94-2.26,1.44-.27.18-.53.36-.77.55-.68.51-1.31,1-1.9,1.57-.22.2-.42.39-.62.6a18.3,18.3,0,0,0-1.53,1.68c-.16.21-.33.42-.49.64a14.46,14.46,0,0,0-1.12,1.76c-.13.23-.25.45-.36.68a15.85,15.85,0,0,0-.73,1.83c-.07.24-.15.47-.2.71a12,12,0,0,0-.34,1.87c0,.24-.05.49-.06.73a13.16,13.16,0,0,0,.05,1.88,6.16,6.16,0,0,0,.11.75,12.22,12.22,0,0,0,.4,1.87c.08.25.16.5.25.76a16,16,0,0,0,.78,1.83c.12.26.25.5.39.76.32.59.69,1.17,1.09,1.77.18.25.36.5.56.75.41.56.88,1.13,1.38,1.69.21.24.44.48.67.73l.48.48c.37.37.77.74,1.19,1.11.26.24.53.47.81.7l.35.3-3.5,1a1.66,1.66,0,0,0-1.12.78.9.9,0,0,0,0,.77,2,2,0,0,0,.6.71l8.05,6.26L409,383.29l-8.27-6.85A4.64,4.64,0,0,0,398.94,375.58ZM328,395l-.36-.27c-8.37-6.61-5.19-15,7.4-18.79a41.84,41.84,0,0,1,6.11-1.32,53.72,53.72,0,0,1,14.66,0c7.19,1,13.82,3.34,18.11,6.83.12.1.23.19.33.29Z" transform="translate(-2.49 -161.41)"/><g class="cls-41"><path class="cls-42" d="M340.76,363.27l.34,11.31A41.84,41.84,0,0,0,335,375.9c-12.59,3.78-15.77,12.18-7.4,18.79l.36.27,13.67-3.91L342,401.9l-23.33,6.47-2.35-39.49,1.15-.54c.33-.15.65-.3,1-.43.94-.4,1.9-.77,2.93-1.12.36-.13.72-.25,1.1-.36l.51-.17a71.77,71.77,0,0,1,17.47-3Z" transform="translate(-2.49 -161.41)"/><path class="cls-43" d="M381.21,370.44l-.32,20.66L356.08,398l-.15-11,18.27-5.23c-.1-.1-.21-.19-.33-.29-4.29-3.49-10.92-5.86-18.11-6.83l-.14-10.85c.38,0,.76.08,1.14.12l1.47.2c1.34.18,2.68.39,4,.64l1.45.26c1.3.26,2.6.54,3.88.86.48.11,1,.23,1.43.36,1.26.32,2.49.67,3.7,1.05.48.14.93.29,1.39.44,1.19.39,2.34.8,3.48,1.23.44.17.89.34,1.31.52C379.67,369.76,380.46,370.09,381.21,370.44Z" transform="translate(-2.49 -161.41)"/></g><path class="cls-33" d="M281.93,577.67h0a1.48,1.48,0,0,0-.2.4l-.05.14a4.23,4.23,0,0,0-.15.67,6.32,6.32,0,0,0,.24,3.2q.12.21.24.24h0l-7-2s0,0-.05-.06a1.3,1.3,0,0,1,0-.68.81.81,0,0,1,0-.21l0,0a.1.1,0,0,1,0-.05l7.07-1.75h0A.38.38,0,0,0,281.93,577.67Z" transform="translate(-2.49 -161.41)"/><polygon class="cls-34" points="293.51 424.85 293.5 424.85 293.51 424.85 293.51 424.85"/><path class="cls-44" d="M296,574.15h0a1,1,0,0,0-.28.23l-.08.1a3.35,3.35,0,0,0-.22.34l-.06.11c-.08.17-.16.37-.24.59a1.09,1.09,0,0,0-.05.17c-.06.19-.12.39-.18.61s0,.16-.05.24q-.11.44-.18.93c-.47,3-.18,6.67.63,8.17a1.7,1.7,0,0,0,.34.45,1.05,1.05,0,0,1,.11.07,1.62,1.62,0,0,0,.18.1h0L282,582.32h0q-.12,0-.24-.24a6.32,6.32,0,0,1-.24-3.2,4.23,4.23,0,0,1,.15-.67l.05-.14a1.48,1.48,0,0,1,.2-.4h0a.38.38,0,0,1,.17-.12h0l14-3.44h.07A.33.33,0,0,0,296,574.15Z" transform="translate(-2.49 -161.41)"/><path class="cls-36" d="M296,586.26h-.06a1.62,1.62,0,0,1-.18-.1A.62.62,0,0,0,296,586.26Z" transform="translate(-2.49 -161.41)"/><path class="cls-36" d="M295.09,575.69a1.09,1.09,0,0,1,.05-.17A1.54,1.54,0,0,0,295.09,575.69Z" transform="translate(-2.49 -161.41)"/><path class="cls-36" d="M294.86,576.54c0-.08,0-.16.05-.24A2,2,0,0,1,294.86,576.54Z" transform="translate(-2.49 -161.41)"/><path class="cls-36" d="M295.31,585.64a1.7,1.7,0,0,0,.34.45A1.7,1.7,0,0,1,295.31,585.64Z" transform="translate(-2.49 -161.41)"/><path class="cls-36" d="M296,574.15h0Z" transform="translate(-2.49 -161.41)"/><path class="cls-36" d="M295.38,574.93l.06-.11Z" transform="translate(-2.49 -161.41)"/><path class="cls-36" d="M295.74,574.38l-.08.1Z" transform="translate(-2.49 -161.41)"/><path class="cls-45" d="M471.65,577.23a.84.84,0,0,0-.28.23l-.08.1a1.82,1.82,0,0,0-.22.34L471,578a4.81,4.81,0,0,0-.24.59l-.06.16c-.06.19-.11.4-.17.62l-.06.24c-.06.29-.12.6-.17.93-.47,3-.19,6.67.63,8.17a1.94,1.94,0,0,0,.33.45l0,0s.06,0,.09,0a.64.64,0,0,0,.24.11h0l-12.81-.22-12.4-.22-23.39-.41-13.85-.24-3.77-.07-28.52-.5-14.72-.25-3.62-.07-14-.24-23.31-.41-12.47-.22L296,586.28l0,0h0a.62.62,0,0,1-.24-.1,1.05,1.05,0,0,0-.11-.07,1.7,1.7,0,0,1-.34-.45c-.81-1.5-1.1-5.15-.63-8.17q.07-.5.18-.93a2,2,0,0,0,.05-.24c.06-.22.12-.42.18-.61a1.54,1.54,0,0,1,.05-.17c.08-.22.16-.42.24-.59l.06-.11a3.35,3.35,0,0,1,.22-.34l.08-.1a1,1,0,0,1,.28-.23h0a.33.33,0,0,1,.17,0l.06,0,12.77.23,12.44.22,23.36.41,13.9.24,3.74.06,14.66.26,28.54.5,3.74.07,13.91.24,23.35.41,12.44.22,12.77.22a.53.53,0,0,0-.23.06Z" transform="translate(-2.49 -161.41)"/><path class="cls-34" d="M471.37,577.46l-.08.1Z" transform="translate(-2.49 -161.41)"/><path class="cls-34" d="M471.65,577.23Z" transform="translate(-2.49 -161.41)"/><path class="cls-34" d="M470.71,578.76l.06-.16Z" transform="translate(-2.49 -161.41)"/><path class="cls-34" d="M471.39,589.23a.64.64,0,0,0,.24.11A.64.64,0,0,1,471.39,589.23Z" transform="translate(-2.49 -161.41)"/><path class="cls-34" d="M470.94,588.72a1.94,1.94,0,0,0,.33.45A1.94,1.94,0,0,1,470.94,588.72Z" transform="translate(-2.49 -161.41)"/><path class="cls-34" d="M471,578l.06-.11Z" transform="translate(-2.49 -161.41)"/><path class="cls-34" d="M470.48,579.62l.06-.24Z" transform="translate(-2.49 -161.41)"/><path class="cls-34" d="M477.28,577.27a.52.52,0,0,0-.24.05h0a.85.85,0,0,0-.23.17l-.05.07-.08.09a2.22,2.22,0,0,0-.22.34l-.06.11a4.4,4.4,0,0,0-.24.6,1,1,0,0,0-.05.16c-.07.19-.12.4-.18.62l-.06.23c-.06.29-.12.6-.17.94-.47,3-.19,6.66.63,8.16a1.55,1.55,0,0,0,.34.45s.07,0,.11.07a.62.62,0,0,0,.24.1l0,0-2.7-.05-2.69,0h0a.64.64,0,0,1-.24-.11s-.06,0-.09,0l0,0a1.94,1.94,0,0,1-.33-.45c-.82-1.5-1.1-5.16-.63-8.17.05-.33.11-.64.17-.93l.06-.24c.06-.22.11-.43.17-.62l.06-.16A4.81,4.81,0,0,1,471,578l.06-.11a1.82,1.82,0,0,1,.22-.34l.08-.1a.84.84,0,0,1,.28-.23h0a.53.53,0,0,1,.23-.06l2.69.05h0Z" transform="translate(-2.49 -161.41)"/><path class="cls-38" d="M477,577.32Z" transform="translate(-2.49 -161.41)"/><path class="cls-38" d="M476.76,577.56l-.08.09Z" transform="translate(-2.49 -161.41)"/><path class="cls-38" d="M476.16,578.7a1,1,0,0,0-.05.16A1,1,0,0,1,476.16,578.7Z" transform="translate(-2.49 -161.41)"/><path class="cls-38" d="M476.46,578l-.06.11Z" transform="translate(-2.49 -161.41)"/><path class="cls-38" d="M476.33,588.81a1.55,1.55,0,0,0,.34.45A1.55,1.55,0,0,1,476.33,588.81Z" transform="translate(-2.49 -161.41)"/><path class="cls-38" d="M476.78,589.33a.62.62,0,0,0,.24.1A.62.62,0,0,1,476.78,589.33Z" transform="translate(-2.49 -161.41)"/><path class="cls-38" d="M475.93,579.48l-.06.23Z" transform="translate(-2.49 -161.41)"/><path class="cls-38" d="M476.78,589.33s-.08,0-.11-.07a1.55,1.55,0,0,1-.34-.45c-.82-1.5-1.1-5.15-.63-8.16.05-.34.11-.65.17-.94l.06-.23c.06-.22.11-.43.18-.62a1,1,0,0,1,.05-.16,4.4,4.4,0,0,1,.24-.6l.06-.11a2.22,2.22,0,0,1,.22-.34l.08-.09.05-.07a.85.85,0,0,1,.23-.17h0a.52.52,0,0,1,.24-.05h0l14.24.25,2.52,0a3,3,0,0,1,1.61.49,3.51,3.51,0,0,1,1.2,1.32,4.82,4.82,0,0,1,.36.87,5.58,5.58,0,0,1,.2.78,1,1,0,0,1,0,.17,8.09,8.09,0,0,1,.14,1v0c0,.34,0,.68,0,1v.19c0,.27,0,.53,0,.76s0,.15,0,.22c0,.61-.1,1.06-.12,1.19l-.06.28c0,.17-.06.32-.1.47s0,.2-.07.3l0,.16c0,.09-.07.16-.1.25a4.77,4.77,0,0,1-.19.5,2.39,2.39,0,0,1-.16.32,3.7,3.7,0,0,1-.25.43c-.05.07-.09.14-.15.21a3.38,3.38,0,0,1-.31.35l-.16.15a2.34,2.34,0,0,1-.31.24l-.28.16-.21.1a3,3,0,0,1-1.29.27l-5-.09-2.15,0-4.61-.08-5-.09,0,0A.62.62,0,0,1,476.78,589.33Z" transform="translate(-2.49 -161.41)"/><polygon class="cls-46" points="510.29 387.51 513.16 410.68 515.96 386.05 510.29 387.51"/><path class="cls-47" d="M508.14,464.2,510.09,543a8.41,8.41,0,0,0,2.69,5.95h0l5.34-.24,1.82-6.79a45.64,45.64,0,0,0,1.26-17L514.09,462Z" transform="translate(-2.49 -161.41)"/><rect class="cls-48" x="422.92" y="522.38" width="58.54" height="6.89" transform="translate(1071.38 57.01) rotate(104.38)"/><polygon class="cls-49" points="442.16 398.35 439.83 397.76 439.1 391.92 445.77 393.63 442.16 398.35"/><polygon class="cls-50" points="440.23 400.89 439.83 397.76 442.16 398.35 440.23 400.89"/><rect class="cls-50" x="458.42" y="492.67" width="2.8" height="6.89" transform="translate(1052.12 12.56) rotate(104.38)"/><path class="cls-51" d="M458.67,488.13h5.61a0,0,0,0,1,0,0V495a0,0,0,0,1,0,0h-5.61a1,1,0,0,1-1-1v-4.93A1,1,0,0,1,458.67,488.13Z" transform="translate(1049.16 5.73) rotate(104.38)"/><path class="cls-52" d="M512.19,447.59l5.51-21.68a5.35,5.35,0,0,0-4.24-6.64h0a5.36,5.36,0,0,0-6.22,4.48l-3.08,22.56Z" transform="translate(-2.49 -161.41)"/><path class="cls-53" d="M456.32,544.67h0a3.78,3.78,0,0,0,4.48-2.55c9.52-30.51,19.19-63.52,27.89-73.21a8,8,0,0,1,6.92-2.55l14.29,1.78c8.41,1.36,13.11-16.46,5.14-19.9,0,0-17.19-14-34.16,15.79-8.3,12.82-14.11,28.78-18.52,45.56a1.92,1.92,0,0,1-2.15,1.41l-7.74-1.22a1.91,1.91,0,0,0-2.11,1.31l-7.12,22.65a1.91,1.91,0,0,0,1.55,2.46l9.58,1.16-.78,2.52A3.78,3.78,0,0,0,456.32,544.67Z" transform="translate(-2.49 -161.41)"/><path class="cls-54" d="M511,455.82a4.8,4.8,0,1,1-5-4.65A4.79,4.79,0,0,1,511,455.82Z" transform="translate(-2.49 -161.41)"/><path class="cls-55" d="M508.5,455.9a2.26,2.26,0,1,1-2.33-2.19A2.26,2.26,0,0,1,508.5,455.9Z" transform="translate(-2.49 -161.41)"/><path class="cls-56" d="M468.47,526.33a4.33,4.33,0,1,1-4.46-4.19A4.32,4.32,0,0,1,468.47,526.33Z" transform="translate(-2.49 -161.41)"/><path class="cls-55" d="M466.19,526.4a2,2,0,1,1-2.11-2A2,2,0,0,1,466.19,526.4Z" transform="translate(-2.49 -161.41)"/><path class="cls-57" d="M136.78,509.37l-10.07,25.45,100.81,24.85,11.34-26.81c1.93-4.57-2.57-9.61-10-11.22l-77.56-17.36C145,502.88,138.47,505.17,136.78,509.37Z" transform="translate(-2.49 -161.41)"/><path class="cls-58" d="M126.07,534.76,68,578.94c-4.5,3.72-5.07,10.82,4.56,13.81l81.82,23.76c7.67,2.23,17.28.61,21.35-3.57l51.82-53.34.62-4.3Z" transform="translate(-2.49 -161.41)"/><path class="cls-59" d="M73.12,588.4,155,612.22c7.67,2.23,17.28.62,21.35-3.56l10.51-10.83,41.32-42.53L128.07,530.74l-1.4-.34L68.93,578C64.43,581.75,66.25,586.4,73.12,588.4Z" transform="translate(-2.49 -161.41)"/><path class="cls-60" d="M73.12,588.4,155,612.22c7.67,2.23,17.28.62,21.35-3.56l10.51-10.83c-14.36-16.73-48.3-55.23-58.75-67.09l-1.4-.34L68.93,578C64.43,581.75,66.25,586.4,73.12,588.4Z" transform="translate(-2.49 -161.41)"/><path class="cls-61" d="M192.18,560.28l7,1.78c2.87.73,6.36.17,7.77-1.24l2.36-2.36c1.39-1.39.2-3.09-2.65-3.79l-6.95-1.73c-2.81-.7-6.24-.16-7.66,1.2l-2.41,2.33C188.21,557.85,189.34,559.56,192.18,560.28Z" transform="translate(-2.49 -161.41)"/><path class="cls-61" d="M171.18,555l6.83,1.74c2.81.71,6.26.16,7.71-1.21l2.42-2.32c1.43-1.36.32-3-2.46-3.7l-6.77-1.68c-2.75-.69-6.15-.16-7.6,1.18l-2.47,2.27C167.37,552.58,168.41,554.25,171.18,555Z" transform="translate(-2.49 -161.41)"/><path class="cls-61" d="M150.7,549.76l6.66,1.69c2.74.69,6.17.16,7.65-1.19l2.48-2.26c1.46-1.33.43-3-2.28-3.62l-6.61-1.64c-2.68-.67-6-.15-7.53,1.15l-2.53,2.23C147,547.44,148,549.07,150.7,549.76Z" transform="translate(-2.49 -161.41)"/><path class="cls-62" d="M130.72,544.69l6.5,1.65c2.67.68,6.07.15,7.58-1.17l2.53-2.21c1.49-1.3.54-2.88-2.1-3.54l-6.45-1.6c-2.62-.65-6-.15-7.47,1.13l-2.58,2.18C127.2,542.42,128.08,544,130.72,544.69Z" transform="translate(-2.49 -161.41)"/><path class="cls-61" d="M181.74,570.43l7.09,1.86c2.92.76,6.47.19,7.93-1.27l2.46-2.46c1.44-1.44.26-3.2-2.63-3.94l-7-1.79c-2.85-.73-6.34-.18-7.81,1.23l-2.5,2.41C177.76,567.91,178.87,569.68,181.74,570.43Z" transform="translate(-2.49 -161.41)"/><path class="cls-61" d="M160.5,564.88l6.91,1.81c2.83.74,6.36.18,7.86-1.25l2.51-2.4c1.48-1.41.39-3.13-2.43-3.85l-6.85-1.75c-2.78-.71-6.24-.17-7.75,1.22L158.19,561C156.67,562.41,157.69,564.15,160.5,564.88Z" transform="translate(-2.49 -161.41)"/><path class="cls-61" d="M139.78,559.47l6.74,1.76c2.77.72,6.26.17,7.79-1.22l2.58-2.35c1.51-1.38.5-3.06-2.25-3.76L148,552.19c-2.71-.69-6.14-.16-7.68,1.2l-2.62,2.3C136.11,557.06,137.05,558.75,139.78,559.47Z" transform="translate(-2.49 -161.41)"/><path class="cls-63" d="M119.58,554.19l6.57,1.72c2.7.7,6.17.16,7.73-1.2l2.63-2.3c1.54-1.34.61-3-2.06-3.67l-6.52-1.67c-2.65-.67-6.05-.15-7.62,1.17l-2.67,2.26C116.05,551.84,116.92,553.49,119.58,554.19Z" transform="translate(-2.49 -161.41)"/><path class="cls-61" d="M170.91,581l7.18,1.93c2.95.8,6.58.21,8.1-1.31l2.54-2.55c1.5-1.49.33-3.32-2.59-4.09L179,573.08c-2.89-.77-6.45-.2-8,1.27l-2.59,2.5C166.91,578.34,168,580.18,170.91,581Z" transform="translate(-2.49 -161.41)"/><path class="cls-61" d="M149.41,575.18l7,1.88c2.87.77,6.47.2,8-1.29l2.61-2.48c1.53-1.46.45-3.25-2.39-4l-6.93-1.83c-2.82-.74-6.35-.18-7.91,1.25l-2.66,2.45C145.57,572.61,146.58,574.41,149.41,575.18Z" transform="translate(-2.49 -161.41)"/><path class="cls-61" d="M128.46,569.53l6.82,1.84c2.8.75,6.36.19,7.95-1.26l2.67-2.43c1.57-1.43.57-3.18-2.2-3.91L136.94,562c-2.74-.72-6.24-.17-7.83,1.23l-2.72,2.39C124.78,567,125.7,568.79,128.46,569.53Z" transform="translate(-2.49 -161.41)"/><path class="cls-64" d="M108,564l6.65,1.79c2.72.74,6.26.18,7.88-1.24l2.72-2.37c1.6-1.4.69-3.1-2-3.82l-6.59-1.73c-2.67-.71-6.15-.17-7.77,1.2l-2.76,2.34C104.51,561.59,105.35,563.31,108,564Z" transform="translate(-2.49 -161.41)"/><path class="cls-61" d="M159.67,591.91l7.27,2c3,.83,6.69.22,8.27-1.35l2.64-2.64c1.55-1.56.4-3.46-2.55-4.27l-7.2-1.95c-2.92-.79-6.56-.21-8.15,1.32l-2.69,2.59C155.65,589.17,156.72,591.09,159.67,591.91Z" transform="translate(-2.49 -161.41)"/><path class="cls-61" d="M137.91,585.86l7.08,2c2.9.8,6.58.21,8.19-1.33l2.71-2.58c1.59-1.52.53-3.38-2.35-4.16l-7-1.91c-2.84-.77-6.45-.19-8.07,1.3l-2.76,2.53C134.06,583.19,135,585.06,137.91,585.86Z" transform="translate(-2.49 -161.41)"/><path class="cls-61" d="M116.72,580l6.9,1.92c2.82.78,6.47.2,8.12-1.3l2.76-2.53c1.63-1.48.66-3.29-2.15-4.06l-6.83-1.85c-2.77-.75-6.35-.19-8,1.27l-2.81,2.47C113,577.37,113.93,579.19,116.72,580Z" transform="translate(-2.49 -161.41)"/><path class="cls-65" d="M82.52,584.49l9.1,2.61c2.15.62,5,.16,6.33-1l16.41-14.34c1.27-1.11.59-2.47-1.51-3l-8.94-2.43c-2.07-.56-4.8-.14-6.09,1L81.17,581.3C79.8,582.46,80.4,583.88,82.52,584.49Z" transform="translate(-2.49 -161.41)"/><path class="cls-61" d="M148,603.27l7.36,2.11c3,.86,6.81.24,8.45-1.4l2.74-2.75c1.62-1.61.49-3.6-2.51-4.44l-7.29-2c-3-.83-6.67-.22-8.31,1.36l-2.8,2.7C144,600.41,145,602.41,148,603.27Z" transform="translate(-2.49 -161.41)"/><path class="cls-61" d="M126,597l7.16,2.06c2.94.84,6.7.22,8.37-1.37l2.82-2.69c1.65-1.57.61-3.51-2.3-4.32l-7.1-2c-2.88-.81-6.56-.21-8.24,1.33l-2.86,2.63C122.11,594.17,123.07,596.12,126,597Z" transform="translate(-2.49 -161.41)"/><path class="cls-61" d="M104.54,590.81l7,2c2.86.83,6.58.22,8.29-1.34l2.88-2.62c1.69-1.54.74-3.42-2.1-4.22l-6.91-1.93c-2.8-.79-6.45-.21-8.17,1.3l-2.92,2.57C100.85,588.09,101.71,590,104.54,590.81Z" transform="translate(-2.49 -161.41)"/><path class="cls-66" d="M192.34,559.2l7,1.78c2.88.73,6.36.17,7.77-1.24l2.37-2.36c1.39-1.39.19-3.09-2.66-3.79l-6.94-1.73c-2.82-.7-6.24-.16-7.66,1.2l-2.42,2.32C188.37,556.77,189.49,558.48,192.34,559.2Z" transform="translate(-2.49 -161.41)"/><path class="cls-66" d="M171.33,553.87l6.84,1.73c2.8.71,6.26.17,7.7-1.21l2.43-2.31c1.42-1.36.31-3-2.47-3.71l-6.77-1.68c-2.75-.68-6.14-.16-7.6,1.18L169,550.14C167.52,551.49,168.56,553.16,171.33,553.87Z" transform="translate(-2.49 -161.41)"/><path class="cls-66" d="M150.85,548.67l6.67,1.69c2.73.7,6.16.16,7.64-1.18l2.48-2.27c1.46-1.33.43-2.95-2.28-3.62l-6.61-1.64c-2.68-.67-6.05-.15-7.53,1.15L148.69,545C147.19,546.35,148.15,548,150.85,548.67Z" transform="translate(-2.49 -161.41)"/><path class="cls-67" d="M130.87,543.6l6.5,1.65c2.67.68,6.07.15,7.58-1.17l2.54-2.21c1.49-1.3.54-2.88-2.11-3.54l-6.45-1.6c-2.62-.65-6-.15-7.47,1.13L128.88,540C127.35,541.33,128.23,542.93,130.87,543.6Z" transform="translate(-2.49 -161.41)"/><path class="cls-66" d="M181.9,569.35l7.09,1.86c2.91.76,6.47.19,7.93-1.27l2.45-2.46c1.44-1.44.26-3.2-2.62-3.94l-7-1.8c-2.85-.72-6.35-.17-7.82,1.24l-2.5,2.41C177.91,566.82,179,568.6,181.9,569.35Z" transform="translate(-2.49 -161.41)"/><path class="cls-66" d="M160.65,563.8l6.91,1.8c2.84.75,6.36.19,7.86-1.24l2.52-2.4c1.47-1.41.38-3.13-2.43-3.85l-6.86-1.75c-2.78-.71-6.24-.17-7.74,1.21l-2.56,2.36C156.82,561.33,157.84,563.06,160.65,563.8Z" transform="translate(-2.49 -161.41)"/><path class="cls-66" d="M139.93,558.38l6.74,1.76c2.77.73,6.27.18,7.8-1.22l2.57-2.34c1.51-1.38.5-3.06-2.24-3.77l-6.69-1.7c-2.71-.7-6.14-.17-7.68,1.19l-2.61,2.3C136.26,556,137.2,557.66,139.93,558.38Z" transform="translate(-2.49 -161.41)"/><path class="cls-68" d="M119.73,553.1l6.58,1.72c2.69.7,6.16.16,7.72-1.2l2.63-2.3c1.54-1.34.61-3-2.06-3.67L128.08,546c-2.65-.68-6.05-.15-7.62,1.17l-2.67,2.25C116.2,550.74,117.07,552.4,119.73,553.1Z" transform="translate(-2.49 -161.41)"/><path class="cls-66" d="M171.07,579.89l7.17,1.93c2.95.8,6.58.21,8.1-1.31l2.55-2.54c1.49-1.5.33-3.33-2.6-4.1L179.18,572c-2.88-.76-6.45-.19-8,1.28l-2.6,2.5C167.06,577.26,168.15,579.1,171.07,579.89Z" transform="translate(-2.49 -161.41)"/><path class="cls-66" d="M149.57,574.09l7,1.89c2.87.77,6.47.19,8-1.29l2.61-2.49c1.54-1.46.46-3.25-2.39-4l-6.93-1.82c-2.81-.74-6.35-.19-7.91,1.25l-2.65,2.44C145.72,571.52,146.73,573.33,149.57,574.09Z" transform="translate(-2.49 -161.41)"/><path class="cls-66" d="M128.62,568.44l6.81,1.84c2.8.76,6.37.19,7.95-1.26l2.67-2.43c1.57-1.43.58-3.17-2.2-3.91l-6.75-1.78c-2.75-.72-6.25-.17-7.84,1.23l-2.71,2.39C124.93,565.94,125.85,567.7,128.62,568.44Z" transform="translate(-2.49 -161.41)"/><path class="cls-69" d="M108.19,562.94l6.65,1.79c2.72.74,6.26.18,7.88-1.23l2.72-2.38c1.6-1.4.69-3.1-2-3.82l-6.59-1.73c-2.67-.71-6.15-.17-7.77,1.2l-2.76,2.33C104.66,560.49,105.5,562.21,108.19,562.94Z" transform="translate(-2.49 -161.41)"/><path class="cls-66" d="M159.82,590.82l7.27,2c3,.83,6.69.23,8.27-1.35l2.64-2.64c1.56-1.56.41-3.46-2.55-4.27l-7.2-2c-2.92-.79-6.56-.21-8.14,1.32l-2.7,2.59C155.8,588.08,156.88,590,159.82,590.82Z" transform="translate(-2.49 -161.41)"/><path class="cls-66" d="M138.07,584.78l7.07,2c2.91.81,6.58.21,8.2-1.32l2.7-2.59c1.59-1.51.54-3.37-2.34-4.15l-7-1.91c-2.84-.77-6.45-.2-8.07,1.29l-2.75,2.53C134.21,582.1,135.2,584,138.07,584.78Z" transform="translate(-2.49 -161.41)"/><path class="cls-66" d="M116.88,578.88l6.89,1.92c2.83.79,6.47.2,8.12-1.3l2.77-2.52c1.62-1.48.65-3.3-2.16-4.06l-6.83-1.86c-2.77-.75-6.34-.19-8,1.27l-2.81,2.47C113.18,576.28,114.08,578.11,116.88,578.88Z" transform="translate(-2.49 -161.41)"/><path class="cls-70" d="M82.67,583.4l9.1,2.61c2.15.62,5,.16,6.33-1l16.41-14.34c1.27-1.11.59-2.47-1.51-3l-8.94-2.43c-2.07-.56-4.8-.14-6.09.95L81.31,580.21C80,581.36,80.55,582.79,82.67,583.4Z" transform="translate(-2.49 -161.41)"/><path class="cls-66" d="M148.14,602.19l7.36,2.11c3,.87,6.81.24,8.45-1.4l2.75-2.75c1.61-1.61.48-3.6-2.52-4.44l-7.28-2c-3-.83-6.68-.22-8.32,1.36l-2.8,2.7C144.11,599.33,145.16,601.33,148.14,602.19Z" transform="translate(-2.49 -161.41)"/><path class="cls-66" d="M126.12,595.87l7.16,2c2.94.85,6.7.23,8.37-1.37l2.82-2.68c1.65-1.57.61-3.51-2.3-4.33l-7.1-2c-2.88-.81-6.56-.22-8.24,1.33L124,591.52C122.26,593.09,123.22,595,126.12,595.87Z" transform="translate(-2.49 -161.41)"/><path class="cls-66" d="M104.69,589.72l7,2c2.86.82,6.58.22,8.29-1.34l2.88-2.62c1.69-1.54.74-3.43-2.1-4.22l-6.91-1.94c-2.8-.79-6.45-.2-8.17,1.3l-2.92,2.57C101,587,101.86,588.91,104.69,589.72Z" transform="translate(-2.49 -161.41)"/><path class="cls-71" d="M135.31,509.26l-8.56,21.21L228.14,555.3l9.16-23c1.93-4.57-2.57-9.61-10-11.22l-77.46-16.9C143.5,502.77,137,505.06,135.31,509.26Z" transform="translate(-2.49 -161.41)"/><path class="cls-24" d="M149.25,508.17l74.42,17.16c4.32,1,6.91,4.21,5.74,7.16l-4.81,12.2c-1.16,2.94-5.59,4.44-9.86,3.37L141.1,529.52c-3.73-.94-5.9-3.91-4.86-6.64l4.32-11.32C141.6,508.82,145.48,507.3,149.25,508.17Z" transform="translate(-2.49 -161.41)"/><path class="cls-72" d="M143,528.24l8.14,2,17.77,4.3,9.56,2.3,31.88,7.7,3.54.85a11.5,11.5,0,0,0,1.5.26c3.48.38,6.74-.84,7.66-3l1.29-3.09,2.87-6.85c1-2.51-1.39-5.28-5.43-6.18l-8.39-1.88-18.66-4.17-5.12-1.15-26.22-5.86-12.18-2.73-1-.22c-3.54-.79-7.16.46-8.11,2.79l-1.65,4.08-2.1,5.17C137.43,524.83,139.49,527.39,143,528.24Z" transform="translate(-2.49 -161.41)"/><path class="cls-73" d="M163.39,513.41l15.08,23.39,31.88,7.7c-6-7.39-13.61-16.58-20.74-25.23Z" transform="translate(-2.49 -161.41)"/><path class="cls-74" d="M194.73,520.42l20.66,25.19c3.48.38,6.74-.84,7.66-3l1.29-3.09-11-14.91Z" transform="translate(-2.49 -161.41)"/><path class="cls-75" d="M140.46,517.33l10.68,12.87,17.77,4.3-17.7-23.82-1-.22c-3.54-.79-7.16.46-8.11,2.79Z" transform="translate(-2.49 -161.41)"/></g></g></svg>