<svg id="Layer_1" data-name="Layer 1" xmlns="http://www.w3.org/2000/svg" viewBox="0 0 535.14 464.46"><defs><style>.cls-1{fill:#1e6853;}.cls-2{fill:#0d8f70;}.cls-3{fill:#bdd744;}.cls-4{fill:#fed409;}.cls-5{fill:#92b33e;}.cls-6{fill:#0d9070;}.cls-7{fill:#1e6352;}.cls-8{fill:#101c35;}.cls-9{fill:#92b43e;}.cls-10{fill:#91b33e;}.cls-11{fill:#92b53e;}.cls-12{fill:#773719;}.cls-13{fill:#0e906f;}.cls-14{fill:#fdd30b;}.cls-15{fill:#0f906f;}.cls-16{fill:#bdd749;}.cls-17{fill:#12906f;}.cls-18{fill:#f89a60;}.cls-19{fill:#b7e2e5;}.cls-20{fill:#f89a5f;}.cls-21{fill:#fdd40a;}.cls-22{fill:#fbe300;}.cls-23{fill:#f89a5e;}.cls-24{fill:#bdd746;}.cls-25{fill:#fbe400;}.cls-26{fill:#fce300;}.cls-27{fill:#15906e;}.cls-28{fill:#91b53e;}.cls-29{fill:#edf1b8;}.cls-30{fill:#1d6351;}.cls-31{fill:#fbd317;}.cls-32{fill:#fae307;}.cls-33{fill:#b3e1e3;}.cls-34{fill:#f39c63;}.cls-35{fill:#bdd74a;}.cls-36{fill:#78391c;}.cls-37{fill:#773c22;}.cls-38{fill:#7d442c;}.cls-39{fill:#11906e;}.cls-40{fill:#f79a5f;}.cls-41{fill:#fefcf1;}.cls-42{fill:#fefcf2;}.cls-43{fill:#fbfcf1;}.cls-44{fill:#e7edb2;}.cls-45{fill:#fdfefb;}.cls-46{fill:#fcf7c2;}.cls-47{fill:#fafbef;}.cls-48{fill:#fafbee;}.cls-49{fill:#fdf7c4;}.cls-50{fill:#edf0f3;}.cls-51{fill:#f2f6f6;}.cls-52{fill:#e0ebea;}.cls-53{fill:#e6efee;}.cls-54{fill:#e8f2f1;}.cls-55{fill:#fffffd;}.cls-56{fill:#fcfcf1;}.cls-57{fill:#f6f9ea;}.cls-58{fill:#fdfdfd;}.cls-59{fill:#eceec5;}.cls-60{fill:#fff;}.cls-61{fill:#eff2f4;}.cls-62{fill:#fdfefe;}.cls-63{fill:#f1f3f5;}.cls-64{fill:#eff0f3;}.cls-65{fill:#25644a;}.cls-66{fill:#f5f7dc;}.cls-67{fill:#fff4e6;}.cls-68{fill:#b3dcb7;}.cls-69{fill:#fbd30e;}.cls-70{fill:#fafaee;}.cls-71{fill:#f1f4f6;}.cls-72{fill:#fffffe;}.cls-73{fill:#fefefc;}.cls-74{fill:#111c35;}</style></defs><path class="cls-1" d="M401.55,286.8a149.66,149.66,0,0,1,18.21,13c.5.73,0,1.24-.42,1.72a42.39,42.39,0,0,1-4.69,5.23,14.46,14.46,0,0,0-3.89,5.61c-1.53,4-2.9,8.07-2,12.51.62,3.18,1.82,5.88,4.81,7.53a13.27,13.27,0,0,1,3.18,2.47,4,4,0,0,1,1.27,3.81c-1.05,3.94-1.21,8-1.66,12a4.48,4.48,0,0,1-.56,1.85c-3.67,5.91,1.19,12.26,7.28,13,2.86.34,5.76.38,8.29,2.09a10,10,0,0,1,2.47,1.92c2.13,2.77,5.36,3.72,8.31,5.1a2.69,2.69,0,0,0,3-.66,9.4,9.4,0,0,0,2.43-3.54,6.53,6.53,0,0,1,9.22-3.58c.77.37,1.53.73,2.31,1.06,2.7,1.11,5.29.53,7.87-.43.82-.3,1.64-.8,2.57-.38l.89,1.88A7.39,7.39,0,0,1,472,372.7a1.07,1.07,0,0,1-.49.65.81.81,0,0,0-.44.81,34.55,34.55,0,0,0,1.73,14.69,26.66,26.66,0,0,0,5.83,9.8c.46.49,1.08.93.95,1.75.88,5.46,1.74,10.92,2.22,16.43,0,.13.15.25.23.37a1.93,1.93,0,0,1,.05,2.43c.35,6.72.53,13.45.24,20.18a181.31,181.31,0,0,1-2.87,24.91,2.81,2.81,0,0,1,0,2A146.38,146.38,0,0,1,475,483.64c-.11.46-.33.88-.4,1.35-1.55,5.06-3.51,10-5.52,14.86a2.49,2.49,0,0,1-.88,1.19c-2.4,4.91-4.65,9.89-7.39,14.63L459.53,518c-.76,0-.93-.67-1.24-1.13a75.52,75.52,0,0,1-3.69-6.65c-1.21-2.3-1.39-4.86-1.69-7.37-.71-6.17-1.41-12.34-1.85-18.54a9.86,9.86,0,0,0-.53-1.7c.28-.61.88-.59,1.4-.66a1.51,1.51,0,0,0,1.48-1.83c-.49-5.39-.61-10.81-1.08-16.2-.18-2-.15-4.06-.33-6.1s.19-2.34,2.19-1.46a3.2,3.2,0,0,1,1.4,1.09,49.74,49.74,0,0,0,4.53,4.76c1.45,1.47,2.14,1.52,3.94.42a19,19,0,0,0,6-6.17,51.4,51.4,0,0,0,3.83-7.77,7,7,0,0,1,2.37-3.18,8.52,8.52,0,0,0,2.36-2.87c.57-1,.22-1.71-1-2-.52-.12-.45-.52-.6-.82-.69.59-1,1.91-2.44,1.08.07,4.69-3,7.64-5.71,10.73-1.06,1.19-2.23,2.28-3.38,3.38-.59.57-1.16.72-1.77,0a29.89,29.89,0,0,0-4.55-4.3c.24-1.7-.72-2.73-2-3.68-2.08-1.6-4.07-3.32-6.15-4.93-1.53-1.19-3.37-1.63-5-2.53,1.44-1.76,2.55-3.78,4.69-5a7.28,7.28,0,0,0,3-4.32,2.52,2.52,0,0,0-1-3.15,4.44,4.44,0,0,1-2-3.48,8.51,8.51,0,0,0-3.61-6,3.35,3.35,0,0,0-3.24-.53,5.78,5.78,0,0,1-3.08.23c-2.73-.44-3.58.41-3.27,3.2a3,3,0,0,1,0,1.34c-1.1,1.4-2.31,2.72-3.31,4.21a14.87,14.87,0,0,0-2.22,4.69,5.81,5.81,0,0,0,3.06,6.89c1.53.83,1.85,1.56,1.49,3.4-.63.53-1.31.3-2,.11a21.19,21.19,0,0,1-8.91-4.61,2.58,2.58,0,0,0-2.29-.71,20.31,20.31,0,0,1-4.4-3.53c-6.23-5.66-11.24-12.36-16.27-19a3.92,3.92,0,0,1-.62-4.05c.17-.46.55-1.06-.5-1.1-.56,0-.68-.66-.89-1.1a10.24,10.24,0,0,0-1.6-2.88c-.38,1.46-.38,1.46-1.61.65a1,1,0,0,0-.82-.28,10.66,10.66,0,0,1-4.43,1.63c-1.58.22-2.05.8-2.11,2.37,0,.84,0,1.69,0,2.53a2.44,2.44,0,0,1-1.14,2.42c-.85.51-.83,1.15-.23,1.85.94,1.1,1.73,2.3,2.56,3.48.58.82,1.23.88,1.52,0,.87-2.7,2.7-3.85,5.44-3.85.43,0,.8-.38,1.27-.41.74.12.83.8,1.06,1.32a102.63,102.63,0,0,0,7.3,13.69,50.31,50.31,0,0,0,7.44,9.5A23.52,23.52,0,0,1,418,441.8c-.33,2.4,1.31,3.64,2.87,4.95a42.65,42.65,0,0,0,6,4.45,2.61,2.61,0,0,1,1.31,2.89,183.75,183.75,0,0,0-1.41,23.21c0,.45,0,.9,0,1.35.09,1.3.26,2.52,2,2.59a.81.81,0,0,1,.74.65c.57,4.9,1,9.82,1.46,14.73q.81,8.42,1.65,16.83c.41,4.26.86,8.53,1.31,12.79a3.78,3.78,0,0,1-.09,1.34,2.59,2.59,0,0,0-.63,2.52,3.26,3.26,0,0,1-1.18,3.62c-.76.52-.35,1,.1,1.47.69.69,1,1.4.1,2.17s-1.54.38-2.23-.26a8.27,8.27,0,0,0-2.23-1.81c.76,1.35.19,2.37-.57,3.28a3.76,3.76,0,0,1-3,1.45c-1.3,0-2.64-.15-3.48,1.1-.19.17.12.3,0,.17s0,0,.06-.12a1.33,1.33,0,0,1,1.85-.43c.76.52.55,1.34.24,2-1.15,2.62-4.4,3.23-6.77,1.32-.29-.23-.43-1-1-.55s-.25,1,.08,1.48a19.07,19.07,0,0,0,1.61,1.76,1.19,1.19,0,0,1,0,1.85,1.32,1.32,0,0,1-1.88.14c-.75-.51-1.13-1.4-1.9-1.89-.4-.26-.79-.74-1.31-.23s-.28,1,.14,1.43a26,26,0,0,1,1.72,2.08,1.35,1.35,0,0,1-.21,2.1c-.74.64-1.37.31-2-.29-.41-.43-.74-.94-1.14-1.38a2,2,0,0,0-1.91-.92,1.16,1.16,0,0,1-1.44-1.15,3.82,3.82,0,0,0-.78-2.47,2.37,2.37,0,0,1,1.25-3.53,1.65,1.65,0,0,1,1.69.24,1.22,1.22,0,0,1,.13,1.63c-.09.18-.14.38.09.8a15.08,15.08,0,0,0,2.94-2.75,3.62,3.62,0,0,1,1.87-1.64c.69-.22.86-.91,1.24-1.42,1.11-1.5,2.42-2.65,4.65-2.29-.43-1.51.31-2.68,1.13-3.79s2.31-1.24,3.7-1.19c-1-.92-1.27-1-2.37-.15a55.29,55.29,0,0,1-8.56,4.56c-.41.2-.89.55-1.37.07.44-1.38,1.29-2.56,1.7-4a15.66,15.66,0,0,0,.69-4,8.33,8.33,0,0,0-1.16-4.19,11.22,11.22,0,0,1,.3-11.44,154.32,154.32,0,0,1,11.64-16.85,11.5,11.5,0,0,0,2.06-3.78,4,4,0,0,0-1.33-4.57,13.34,13.34,0,0,0-3.23-2.14A51.45,51.45,0,0,0,412,482a8.27,8.27,0,0,1-5.6-3.62,11.1,11.1,0,0,0-3.76-3.39c-6.46-3.67-11.19-9.05-15.27-15.12a15.32,15.32,0,0,0-5.69-5.18,8.75,8.75,0,0,0-8.18-.38c-2.1,1-4.17.69-6.27,0-2.33-.73-4.5-2-6.94-2.3-5.75-.72-11-2.94-16-5.55-2.08-1.08-4.2-2.07-6.28-3.17a8.27,8.27,0,0,0-4.94-.83c-3.07.36-6.13.75-9.22.92a10.45,10.45,0,0,0-7.53,4.14c-1,1.17-.87,2.75-.89,4.17,0,3.38-.37,6.8,1,10.05a3.08,3.08,0,0,1-.06,1.92,17.24,17.24,0,0,1-2.6,5.84c-1.77,2.53-3.26,5.25-5,7.82a37.14,37.14,0,0,1-3.59,4.58,8.11,8.11,0,0,0-2.14,4.36,46.38,46.38,0,0,0,.65,17.53,7,7,0,0,0,1.24,2.7c1.49,2,2.74,4.16,4.18,6.2a26.53,26.53,0,0,0,11.74,9.37,86.36,86.36,0,0,1,14.07,7.9,20.46,20.46,0,0,1,9.4,14.48,9,9,0,0,1-.37,4.72c-1,2.46-1.44,5.07-2.52,7.51a11.11,11.11,0,0,1-4.08,4.63c-.55-.07-.83-.52-1.19-.85-2.41-2.15-4.86-2.28-7.45-.35a12,12,0,0,0-4.54,6.69A47.33,47.33,0,0,0,322.57,578c-.09,3.84,0,7.69,0,11.53-.07,1.14,0,2.29-.07,3.43,0,.35-.1.79-.48.84s-.6-.34-.7-.67a52.28,52.28,0,0,0-2-4.83A35.06,35.06,0,0,0,311,576a13.06,13.06,0,0,0-6.54-3.69,4.56,4.56,0,0,0-5.35,2.78c-1.42,3.07-1.28,6.31-1,9.55a43.4,43.4,0,0,0,1.39,7.48,2.73,2.73,0,0,1,.11,1.33c-.8,1-1-.08-1.2-.42-1.32-2-2.36-4.17-3.55-6.25a200,200,0,0,1-11.33-23.73,2.31,2.31,0,0,1,.56-2.93,14.44,14.44,0,0,0,4.38-9.57c.13-1.66-.17-1.86-1.58-1.05-.84.49-1.27.33-1.58-.51a13.29,13.29,0,0,0-2.05-3.46,6.89,6.89,0,0,0-7.72-2c-2.32,1-3.85,3.86-3.73,7a11.72,11.72,0,0,1,.11,3,1.9,1.9,0,0,1-1.17.6c-1.51.36-1.59.5-.65,1.78,2.38,3.22,5.34,5.57,9.5,5.8a2.68,2.68,0,0,1,2.67,2.1c1.5,4.23,3.38,8.31,5.27,12.39,2.62,5.66,5.76,11,8.79,16.49.27.49.8,1,.29,1.63-.7.13-1.22-.32-1.82-.55a11,11,0,0,0-8-.35,6,6,0,0,0-4.1,5.66c0,.73.19,1.51-.42,2.13a168.87,168.87,0,0,1-47-15.29,157.83,157.83,0,0,1-15.58-8.78.73.73,0,0,1,.57-.91c-.82-.39-2.17.19-2.68-1.22a3.68,3.68,0,0,1,2.94.27,12.77,12.77,0,0,0-1.11-5.12,4.72,4.72,0,0,0-2.28-2.46,7,7,0,0,1-1.89-1.45c-.31-.32-.59-.78-1-.88a4.41,4.41,0,0,1-3.15-2.67c-.22-.49-.71-.49-1.15-.19-.29.2-.56.42-.85.62-1.94,1.34-2.51,1.36-4.1-.28-1.31-1.36-2.84-1.22-4.44-1.06-.72.08-1.48.43-2.12-.23-2-2.3-4.38-4.18-6.55-6.3a171.31,171.31,0,0,1-48.57-88.77c-.09-.44-.23-.87-.34-1.3a3.52,3.52,0,0,1-.81-2.19,138,138,0,0,1-2-15.81c0-.6-.18-1.18-.23-1.78s0-1.11-.09-1.66c-.6-5.55-.18-11.13-.28-16.7a2,2,0,0,1,.4-1.4c.25-3.22.51-6.44.76-9.66a4.48,4.48,0,0,0-.19-1.89,1.86,1.86,0,0,1,.42-1.67l1.44-9.84a5.12,5.12,0,0,1,.22-2.77,142.63,142.63,0,0,1,4.43-17.9c.15-.53.35-1,.51-1.55a177.18,177.18,0,0,1,14.33-32.85c.28-.51.6-1,.91-1.48a174.77,174.77,0,0,1,12-17.88c3.1-4,6.34-7.95,9.81-11.68a8.24,8.24,0,0,1,.8-1q4.24-4.23,8.46-8.47c1.2-1.2,2.6-2.17,3.77-3.41a2.18,2.18,0,0,1,1.29-.71c2.77-2.23,5.53-4.46,8.31-6.68.42-.34.9-.61,1.34-.91.78,1.5,1.33,3.09,2.05,4.62a2.7,2.7,0,0,1-.3,2.44,3.93,3.93,0,0,0-.38,2.28,4.47,4.47,0,0,1-1.47,3.59,14.11,14.11,0,0,0-3.75,4.78c-.5,1.21-1.63,2-2.53,2.93a6.25,6.25,0,0,0-2,3.73c-.23,1.89-1.62,3.28-2.67,4.79-2.54,3.65-4.91,7.37-6.21,11.68a5.25,5.25,0,0,0-.29,1.61c.11,3.69-.23,7.38.25,11.06.29,2.27-.35,4.46-.74,6.67a38.1,38.1,0,0,0-.71,10.11,5.41,5.41,0,0,0,3.09,4.45c2.69,1.47,5.7,2.12,8.42,3.49a59.86,59.86,0,0,1,7,4c2.05,1.4,3.23,3.5,4.35,5.62a10.7,10.7,0,0,0,3.48,4.38,8.15,8.15,0,0,1,2.23,2.79c2.88,4.68,7.18,7.39,12.33,8.89a76.74,76.74,0,0,1,9.59,3.37c2.85,1.25,4.74,3.61,6.54,6a117.66,117.66,0,0,1,9.82,14.81,29.58,29.58,0,0,1,2.16,4.77,19.87,19.87,0,0,0,6,9.29c3.66,3.08,7.21,6.31,11.51,8.54a9.4,9.4,0,0,0,5.35,1.05,2.49,2.49,0,0,0,2.29-1.45,2,2,0,0,0-.83-2.38c-3.61-2.76-5.26-6.61-6.35-10.86a38.34,38.34,0,0,0-3-7.46,5.7,5.7,0,0,1-.37-4.89,50,50,0,0,1,1.91-5,6.35,6.35,0,0,1,4.52-3.58,6.15,6.15,0,0,0,4.57-5.09,1.75,1.75,0,0,0-1-1.86,5.45,5.45,0,0,0-2-.63,9,9,0,0,1-4-1.56,7.69,7.69,0,0,0-3.32-1.3,13.23,13.23,0,0,1-8.14-4,3.54,3.54,0,0,0-3.31-1,17.75,17.75,0,0,1-1.93.18c-5.38.37-8.22-2.45-9.4-6.93a39.8,39.8,0,0,1-1.52-10.94c.07-3.18,1.29-5.89,4.59-7.22a18,18,0,0,1,7.88-1.45,8.16,8.16,0,0,1,4,1.44,9.3,9.3,0,0,0,11.8-1.76,19.7,19.7,0,0,1,6.34-5.38c2-.94,4.21-.72,6.32-.86,2.71-.18,5.2-.62,7.34-2.48a30.53,30.53,0,0,1,4.5-2.94,17.42,17.42,0,0,0,7.38-8.36c1.08-2.52,2.38-4.94,3.62-7.4A11.44,11.44,0,0,0,315,337.9a5.9,5.9,0,0,1,2.19-3.94,22.41,22.41,0,0,1,9.08-5,2.55,2.55,0,0,1,1.18-.16c2.6.61,4.5-.82,6.4-2.21a4.39,4.39,0,0,1,3-1.14,9,9,0,0,0,8.48-3.68c1.54-2,3.28-3.9,4.76-6,2.56-3.54,1.69-6.43-2.41-8a66,66,0,0,0-8-2.34,42.52,42.52,0,0,1-11-4.25,19.53,19.53,0,0,0-9.42-2.6c-3.08-.05-6.14-.61-9.24-.56a7.3,7.3,0,0,0-5.36,2.25c-1.7,1.76-3.52,3.4-5.16,5.21a12.57,12.57,0,0,1-10.75,4.21A58.66,58.66,0,0,1,272,306.48c-2.78-1-5.2-2.53-6.65-5.26a8.45,8.45,0,0,1-.58-7.35,16.91,16.91,0,0,0,1.21-7,4.13,4.13,0,0,1,1.61-3.66,43.65,43.65,0,0,1,5-3.78c3.83-2.36,4.81-9.86,1.84-12.81-.39-.39-1-.8-.56-1.53a.37.37,0,0,1,.27-.07,1.93,1.93,0,0,1,1.51-.42,46.41,46.41,0,0,0,5.14-.22,17.26,17.26,0,0,0,8.79-1.81,7.25,7.25,0,0,1,2.5-.92,139.08,139.08,0,0,1,16.44-1,8.1,8.1,0,0,1,2.81-.27c5.4.46,10.84.22,16.22.94a8.41,8.41,0,0,1,1.31.25,139.51,139.51,0,0,1,17.74,2.64c.31.12.65.13,1,.23a190.86,190.86,0,0,1,19.2,5.32,7.29,7.29,0,0,1,2.42,1.11,14.68,14.68,0,0,1,1.44,4.06c2.17,7.36,4.37,14.71,6.89,22,.78,2.26,1.53,4.53,2.42,6.75a4.25,4.25,0,0,0,1.37,1.91c.51,1-.13,1.73-.55,2.47a31,31,0,0,1-3.07,4.4,7,7,0,0,0-.78,1.09c-.27.48-.57,1-.18,1.53a1.25,1.25,0,0,0,1.63.29c3.91-1.7,7.92-3.24,11.37-5.84,1.52-1.15,1.54-1.53.6-3.24-.66-1.21-1.51-2.3-2.15-3.52.38-2.55-.26-5-.51-7.53-.35-3.4-.81-6.78-1.26-10.17a4.33,4.33,0,0,1,0-1.48,1,1,0,0,1,.37-.59c1,.22,1.39,1.19,2.06,1.79a13.53,13.53,0,0,0,3.2,2.59c.51,2.1,0,4.16-.35,6.21-.14.84-.34,1.66-.46,2.5-.09.6-.28,1.25.41,1.6a1.44,1.44,0,0,0,1.84-.6c1.19-1.47,2.46-2.89,3.58-4.42a55.87,55.87,0,0,0,3.39-4.93C400.74,287.3,400.88,286.73,401.55,286.8Z" transform="translate(-38.43 -163.77)"/><path class="cls-2" d="M273.91,265.06a2.7,2.7,0,0,0,.28.67,9.76,9.76,0,0,1,.5,12.32c-1.16,1.61-3.07,2.34-4.52,3.64-.48.43-1.06.73-1.57,1.13-1.42,1.11-2.45,2.31-2.22,4.38a15.72,15.72,0,0,1-1.15,6.71,8.73,8.73,0,0,0,3.59,10.53,26.27,26.27,0,0,0,8.46,3.19,60.16,60.16,0,0,0,12.51,1.69,11.35,11.35,0,0,0,8.85-3.57c1.9-2,3.89-3.87,5.8-5.84a7.17,7.17,0,0,1,5.48-2.25,103.25,103.25,0,0,1,12.91.94,16.09,16.09,0,0,1,6.36,2.45c4.36,2.68,9.31,3.64,14.13,5a25.63,25.63,0,0,1,5.91,2c2.79,1.59,3.59,4.16,1.77,7-1.63,2.56-3.79,4.73-5.61,7.14-2.2,2.91-5.05,3.83-8.48,3.56a3.38,3.38,0,0,0-2.59.89,17.73,17.73,0,0,1-3.52,2.23,2.71,2.71,0,0,1-1.85.45c-2.75-.78-4.92.73-7.17,1.8a17.45,17.45,0,0,0-3,2c-1.68,1.25-3.14,2.53-3.47,4.91-.5,3.5-2.65,6.41-4.09,9.57-.6,1.3-1.41,2.51-1.94,3.84a11.47,11.47,0,0,1-4.25,4.87c-2.66,2-5.63,3.53-8.24,5.6-1.29,1-3,1.1-4.54,1.28a22,22,0,0,1-3.86.25c-3.37-.23-5.57,1.62-7.81,3.67-1.36,1.25-2.24,3-3.87,3.91-2.93,1.69-7.76,2.64-10.91,0-1.71-1.45-4-1.38-6.17-1.12a21,21,0,0,0-5.4,1.58c-2.89,1.21-3.78,3.67-3.95,6.3-.23,3.61.69,7.18,1.36,10.73a10,10,0,0,0,2.15,4.54c2.32,2.8,5.44,2.82,8.62,2.4a4.42,4.42,0,0,1,4.27,1.45,11.2,11.2,0,0,0,6.78,3.43,10.69,10.69,0,0,1,5,2,6.93,6.93,0,0,0,3.23,1c3.26.61,3.91,1.82,2.53,4.75a5.84,5.84,0,0,1-4.75,3.74c-2.54.36-3.65,2.53-4.46,4.75-.48,1.3-.84,2.66-1.38,3.94a3.74,3.74,0,0,0,.15,3.3,83.83,83.83,0,0,1,5.31,14,3.86,3.86,0,0,0,1.05,1.6c1.2,1.19,2.42,2.37,3.59,3.6,1.58,1.66,1.13,3.47-1.08,4.08a8.74,8.74,0,0,1-6.49-.9,53.52,53.52,0,0,1-8.6-6.13,37.24,37.24,0,0,1-5.75-5.4c-2-2.48-2.86-5.53-4.13-8.37a70.16,70.16,0,0,0-7.32-12.27c-1.71-2.37-3.42-4.74-5.2-7.07a16.77,16.77,0,0,0-8.14-5.46c-3.6-1.29-7.33-2.19-10.83-3.75a19.64,19.64,0,0,1-7.77-6.8c-1.1-1.51-1.94-3.21-3.71-4.16a4.48,4.48,0,0,1-1.82-2.51c-2-5.29-6.33-7.93-11.06-10.23-3-1.49-6.34-2.32-9.35-3.88a5.57,5.57,0,0,1-3-3.86c-.52-2.28-.1-4.63,0-6.95.21-3.52,1.71-6.9,1.34-10.46-.34-3.19-.15-6.37-.27-9.55-.12-3.42,1.21-6.32,2.84-9.24a94.78,94.78,0,0,1,5.54-8.61,4.52,4.52,0,0,0,.94-2.93c-.06-1.17.85-1.89,1.55-2.61,1.49-1.55,3.07-3,3.8-5.1a4.79,4.79,0,0,1,2.13-2.25c1.31-.82,1.38-2.32,2.25-3.34.06-.07.12-.23.08-.28-1.08-1.48.23-2.57.61-3.8.32-1-.35-1.83-.75-2.65a7.09,7.09,0,0,1-1.05-3.37l4.15-3.26a6.33,6.33,0,0,1,2.28-1.83q2.44-1.55,4.78-3.24a11.26,11.26,0,0,0,1.4-.87c1.72-.95,3.39-2,5.06-3,1.57-.68,3-1.69,4.51-2.42,2.79-1.3,5.44-2.87,8.25-4.12.53-.23,1-.66,1.67-.46,4.47-1.8,8.9-3.73,13.46-5.33A179.1,179.1,0,0,1,273.91,265.06Z" transform="translate(-38.43 -163.77)"/><path class="cls-3" d="M184.82,316.6a187.62,187.62,0,0,0-14.56,18.33c-2.55,3.68-4.9,7.49-7.24,11.31-1.12.29-2-.47-3-.78-1.62-.51-3.17-1.22-4.79-1.73a3.38,3.38,0,0,1-2.38-2.43,96.4,96.4,0,0,1-3.2-11.06c-.07-.37-.08-.81-.54-1-.48.51-.14,1,0,1.54a79.75,79.75,0,0,0,2.64,9.2c.21.63.78,1.39.24,2s-1.42.11-2.1-.13c-5-1.79-10.11-3.43-15.26-4.82a78,78,0,0,0-9.8-2.08,2.44,2.44,0,0,0-1.32.07,2.33,2.33,0,0,0,1.63.57,86.93,86.93,0,0,1,11.93,2.83,3.29,3.29,0,0,1,1.09.46c.51.4.54.82,0,1.21a4.31,4.31,0,0,1-1,.42,85,85,0,0,0-12.73,6.28,2.69,2.69,0,0,0-.94.73c-.06.09-.06.19.06.35,1.68-.68,3.17-1.75,4.79-2.57,3.07-1.56,6.19-3,9.39-4.29a1.82,1.82,0,0,0,.55-.23c1.84-1.57,3.74-1,5.73-.29,5.57,1.89,11.13,3.83,16.59,6,.59.23,1.29.32,1.59,1-2.13,4.22-4.33,8.41-6.39,12.66a169.46,169.46,0,0,0-7.91,20.13c-3.39,1.16-6.79,2.28-10.08,3.73a84.37,84.37,0,0,0-8,4c-.35.21-.85.31-.92,1a4.74,4.74,0,0,0,2.31-.93,84.39,84.39,0,0,1,14.51-6.29c.57-.19,1.15-.41,1.69.07-1.58,5.65-3.12,11.32-4.23,17.09-.23,1.21-.51,2.42-.78,3.63-4.77,1.28-9.58,2.34-14.57,2.07-6.48-.35-11.72-2.79-14.54-9-2.26-4.93-1.57-9.82.67-14.57,2.93-6.22,7.55-11.07,12.71-15.47l1.48-1.25c.06-.05,0-.18.11-.45-.55,0-1.06,0-1.58,0a40.87,40.87,0,0,1-25-7.65c-13.06-9.44-14.44-27.18-3.13-38.76a38.39,38.39,0,0,1,23.94-11.36,67.26,67.26,0,0,1,35.67,6c.48.22,1,.74,1.58.32a20.53,20.53,0,0,1,3.11,2.78c2.24,2,4.46,4.12,6.62,6.26-1.79-1.78-3.64-3.49-5.48-5.21-.41-.38-1-.68-.91-1.43l1.1.2c-.85-1.62-1.71-3.11-2.42-4.67-2.3-5-3.23-10.27-1.5-15.68s5.72-8.23,11.23-8.92c9.42-1.17,16.55,3,22.48,9.86a56.12,56.12,0,0,1,4.94,7.28c-4.57,4.09-8.92,8.4-13.23,12.76-.87-.29-1.27-1.07-1.75-1.74-2.82-4-5.68-7.92-7.45-12.52a.94.94,0,0,0-.59-.64c-.37.61,0,1.09.22,1.56a50.49,50.49,0,0,0,6.19,10.67A16.13,16.13,0,0,1,184.82,316.6Z" transform="translate(-38.43 -163.77)"/><path class="cls-4" d="M140,425.57c.07,6.11-.13,12.22.29,18.32a1.37,1.37,0,0,1-1.12.64c-3.14.6-6.27,1.21-9.41,1.78a6.33,6.33,0,0,1-3.52-.38c-4.34-1.71-7.91-4.6-11.46-7.52a2.8,2.8,0,0,0-1.44-.91,11.24,11.24,0,0,0,2.14,2.2,41.21,41.21,0,0,0,8.1,5.61,4.09,4.09,0,0,1,.9.53c.65.55.51,1-.17,1.4a3.69,3.69,0,0,1-1.15.31c-9.65,1.85-19.32,3.59-29,5.5a15,15,0,0,1-6.79-.46,86.56,86.56,0,0,1-12.58-4.34,2.84,2.84,0,0,0-1.92-.46c.3.6.87.69,1.34.88,3.58,1.39,7.18,2.74,10.85,3.87.24.08.49.13.72.22.55.21,1.29.39,1.2,1.11s-.79.68-1.32.77c-4.43.77-8.83,1.67-13.25,2.46-3.14.57-6.28,1.14-9.41,1.8a1.73,1.73,0,0,0-1.2.53,20.28,20.28,0,0,0,4.31-.59c11.51-2.25,23.06-4.26,34.55-6.58a4,4,0,0,1,.59-.1c.69,0,1.53-.27,1.94.41s-.36,1.25-.77,1.76A47.55,47.55,0,0,0,98,460.69a9.13,9.13,0,0,0-1.29,3c.59-.27.68-.72.86-1.07a44,44,0,0,1,7.34-10.16,5.1,5.1,0,0,1,3-1.54c10.11-1.82,20.2-3.78,30.3-5.7.71-.13,1.45-.5,2.15.07.37,3.26.69,6.53,1.13,9.78s1,6.68,1.54,10a93.09,93.09,0,0,1-26,13.43c-2.31.77-4.67,1.39-7,2.12a1.77,1.77,0,0,1-2-.52c-1.06-1.09-2.21-2.1-3.5-3.31.17,1.43.27,2.7.48,3.94.13.74-.05,1.14-.81,1.28-2.35.41-4.7.84-7,1.27-.8.15-1-.47-1.27-1-.87-1.8-1.69-3.61-2.58-5.4-.25-.51-.34-1.15-1.06-1.58-.81,2.56-1.62,5.06-2.4,7.57-.24.78-.52,1.29-1.49,1.35a80,80,0,0,1-23.91-1.79c-7.69-1.89-14.63-5.09-20-11.15A24,24,0,0,1,42.05,443a39.37,39.37,0,0,1,9.19-9.73c.86-.65,1.35-.54,2,.22,1.44,1.78,2.91,3.54,4.38,5.3a.94.94,0,0,0,.88.46c-.43-2.64-.8-5.26-1.31-7.86-.26-1.32,0-2.23,1.29-2.73.42-.15.77-.46,1.18-.64,3.36-1.46,2.23-1.89,4.36,1.22.27.39.4.91,1.07,1.09.13-1.32.31-2.58.38-3.85a1.55,1.55,0,0,1,1.11-1.56,99,99,0,0,1,21.09-5.38,111.9,111.9,0,0,1,27.73-.49c2.27.22,2.28.26,2.55,2.58.19,1.68.48,3.34.73,5,.51.17.61-.24.78-.52.63-1.07,1.25-2.15,1.87-3.23,1.55-2.71,1.55-2.69,4.66-1.94A88.38,88.38,0,0,1,140,425.57Z" transform="translate(-38.43 -163.77)"/><path class="cls-4" d="M474.72,483.55a192.7,192.7,0,0,0,4.73-18.83c11.62-3.49,23.5-4.17,35.53-3.18a2,2,0,0,1,1.83,1.25,21.31,21.31,0,0,0,2.11,4.18c.31-1.31.66-2.4.81-3.5s.56-1.32,1.49-1.15c2.1.37,4.21.75,6.33,1.1.93.15,1.17.71,1.2,1.57,0,1.25.18,2.49.3,3.73s.23,2.37.39,4c1.44-1.81,2.67-3.33,3.87-4.87,2.2-2.83,1.46-2.66,5-1.53,8.36,2.69,16.25,6.35,23.09,12,5.47,4.48,9.66,9.83,11.51,16.86,2.34,8.91-1.49,19.38-9.12,24.52A41.67,41.67,0,0,1,553,524.82c-1.17.38-1.74.09-2.09-1.07-.56-1.81-1.23-3.58-1.83-5.38a2.74,2.74,0,0,0-.91-1.4c-.5,2.57-1.07,5-1.41,7.49-.19,1.43-.72,2.2-2.19,2.23-.55,0-1.09.1-1.64.14-2.59.22-2.59.22-3.13-2.42-.1-.47-.26-.94-.44-1.58a8.88,8.88,0,0,0-1.64,3.06,2.18,2.18,0,0,1-2.27,1.5,101.46,101.46,0,0,1-33.41-5.84,119.22,119.22,0,0,1-13.33-5.66,1.71,1.71,0,0,1-1.09-2.33,26.13,26.13,0,0,0,.94-5.68c-1.32,1.1-2.7,2.13-4,3.31-1.1,1-2,1.35-3.42.36a90.57,90.57,0,0,1-13-10.51c2.18-5.34,4.27-10.72,6.11-16.19.48-.45,1-.21,1.56-.13,3.21.5,6.39,1.14,9.59,1.63a7,7,0,0,1,3.56,2.08c3.14,2.88,5.24,6.51,7.34,10.14a7.49,7.49,0,0,0,.6,1,.56.56,0,0,0,.29.18c.24-.41,0-.73-.21-1a43.78,43.78,0,0,0-5.66-8.6,8.88,8.88,0,0,1-1.17-1.55c-.48-.89-.21-1.33.81-1.26,1.65.12,3.25.52,4.88.79,8.31,1.39,16.61,2.82,24.91,4.24a10.16,10.16,0,0,1,3.62,1.37c4.45,2.73,8.28,6.23,12.17,9.65a8.57,8.57,0,0,0,1,.89c.09.05.19.06.54-.05-1.17-1.17-2.26-2.25-3.43-3.27-2.1-1.83-4.26-3.61-6.47-5.31a5.79,5.79,0,0,1-.8-.67c-.28-.29-.65-.6-.48-1s.75-.42,1.18-.35c2.51.39,5,.87,7.52,1.3,5.11.89,10.22,1.76,15.34,2.58a1.36,1.36,0,0,0,1-.09,5,5,0,0,0-2.06-.63c-8.27-1.37-16.52-2.8-24.79-4.19-3.93-.66-7.85-1.39-11.79-2-.64-.1-1.61,0-1.76-.82s.78-1.06,1.35-1.38a32,32,0,0,0,7.55-5.58,1.84,1.84,0,0,0,.82-1.44,31.49,31.49,0,0,1-4.52,3.89,68,68,0,0,1-6.67,4,3.72,3.72,0,0,1-2.46.36c-5.07-.79-10.13-1.67-15.19-2.55-5.45-.95-10.93-1.78-16.36-2.84C475.66,484.06,475,484.13,474.72,483.55Z" transform="translate(-38.43 -163.77)"/><path class="cls-5" d="M220,287.16a66.52,66.52,0,0,1-7.24,4.83,109.74,109.74,0,0,1-17.59-9.51,115.93,115.93,0,0,1-14.93-11.94c-.84-.79-1-1.2.08-2,2.94-2,5.79-4.18,9-6.52a77.37,77.37,0,0,0-8.31.38c-2.34.09-4.68.25-7,.45a1.89,1.89,0,0,1-1.76-.86A93.8,93.8,0,0,1,149,201.75c0-1.4.41-1.8,1.77-1.76a87.3,87.3,0,0,0,9.28-.21,19.16,19.16,0,0,0-4.68-2.25c-1.7-.72-3.42-1.4-5.14-2.06-.61-.23-1-.48-1-1.27.77-9.38,2.67-18.43,7.53-26.66a1.55,1.55,0,0,1,2.18-.78c6.84,2.2,13.06,5.66,19.16,9.36a126,126,0,0,1,16.52,12.08c.86.73,1.19,1.27.54,2.45a64.71,64.71,0,0,0-4,8.76l4.33-3a39.93,39.93,0,0,0,3.28-2.35c1-.86,1.62-.58,2.45.29a114.2,114.2,0,0,1,12.45,15.48,1,1,0,0,1-.08,1.25c-.69.86-.26,1.41.39,2,1.08,1,1.93,2.28,3,3.33.34.32.84.77.44,1.26s-.94.11-1.39-.08c-1.18-.53-2.42-.94-3.56-1.56-.89-.49-1.47-.28-1.9.65a62.63,62.63,0,0,0-5.19,18c-.28,2.18-.4,4.38-.5,6.56a51.41,51.41,0,0,0,.38,7c.07.73.31,1.49-.36,2.1-1,.13-1.22-.74-1.59-1.32-3.28-5.13-6.62-10.22-9.85-15.38-5.94-9.46-11.78-19-17.42-28.64-2.9-5-5.87-9.86-8.49-15-.22-.42-.56-.81-.56-1.19,2.06,4.7,3.91,9.62,6.08,14.4,3,6.55,6,13.06,9.25,19.47,5.43,10.68,11.27,21.12,17.31,31.47,6.2,10.6,12.8,20.94,19.64,31.14C219.66,285.91,220.16,286.42,220,287.16Z" transform="translate(-38.43 -163.77)"/><path class="cls-6" d="M469.55,367.1c-1.42.44-2.87.78-4.25,1.32-3,1.16-5.69.34-8.3-1a6.56,6.56,0,0,0-8.26,1.44,3.16,3.16,0,0,0-.57,1.18,9.69,9.69,0,0,1-3.13,4.63,2.7,2.7,0,0,1-3,.43c-3-1.54-6.27-2.5-8.67-5.3a10.23,10.23,0,0,0-7.74-3.57,12.44,12.44,0,0,1-8.42-2.84c-3.15-2.78-4.32-7.21-1.85-10.93a5.55,5.55,0,0,0,.69-2.86,59.74,59.74,0,0,1,1.51-10.88c.6-2.51-1.33-3.88-3.09-5.14-1.52-1.1-3.32-1.89-4.34-3.56a15.28,15.28,0,0,1-1.87-10.89,32.13,32.13,0,0,1,2.79-8.45,11.91,11.91,0,0,1,2.34-3.25,58.74,58.74,0,0,0,5.84-6.38,1.59,1.59,0,0,0,.49-1.2c1.74,1.33,1.74,1.33,2.78-.64a170.74,170.74,0,0,0,16.58-48.81,1.22,1.22,0,0,0-.68-1.45,15.61,15.61,0,0,1-7.16-10.39c-.47-2.12-.38-2.22,1.65-1.71l1.59.39a4.56,4.56,0,0,1,3.07,1.34c.7.55,1.05.45,1.46-.32a17.18,17.18,0,0,1,1.93-3.18c1.45-1.69,2.09-1.63,3.14.3a16.8,16.8,0,0,1,1.48,4.92c1.39-.7,2.74-1.41,4.37-1.1a8.84,8.84,0,0,0,.89,0c3.08-.15,3.12-.12,1.66,2.68-2.14,4.09-5.28,7-9.95,7.85-.78.15-.89.56-1,1.2a182.58,182.58,0,0,1-7.32,27.68,144.58,144.58,0,0,1-10.19,23.06,1.36,1.36,0,0,0,.35,2.07,174,174,0,0,1,23,24.66c1.33.75,1.89,2.15,2.76,3.29a10.41,10.41,0,0,0,1.48,1.83c.25.39.51.78.74,1.17.38.94,1.35,1.53,1.51,2.58,2,3.31,4,6.6,5.95,9.94A158.38,158.38,0,0,1,469.18,366C469.33,366.34,469.43,366.73,469.55,367.1Z" transform="translate(-38.43 -163.77)"/><path class="cls-3" d="M450,331.82l-2.56-3.43a116.9,116.9,0,0,0,3.43-13.14,181.87,181.87,0,0,0,3.47-21.37,149,149,0,0,0,.6-20.16c-.49-12.63.26-25.13,5-37.06,1.9-4.78,4.45-9.17,8.9-12.07,5.18-3.37,10.57-2.68,14.2,1.75a22.91,22.91,0,0,1,3.85,7c3,8.65,3.41,17.54,2.5,26.57-1.9,18.86-9,35.81-18.82,51.78-.62,1-1.27,2-1.9,3-.16.26-.54.53-.07.86.12.53-.33.66-.63.88a113.16,113.16,0,0,0-12,10c-.41.39-.76,1.28-1.62.6a30.67,30.67,0,0,1,2.07-4.78A159.17,159.17,0,0,0,470.14,278c.52-3.51.65-7.05,1-10.57a2.14,2.14,0,0,0-.27-1.54,1.22,1.22,0,0,0-.37,1.05c-.62,15.07-4.25,29.47-9.68,43.48a156.41,156.41,0,0,1-8.58,18.77,4.38,4.38,0,0,0-.52,1.4C451.37,331.31,451,332,450,331.82Z" transform="translate(-38.43 -163.77)"/><path class="cls-3" d="M204.7,250.37a1,1,0,0,0,.3-1.23c-.58-2-.23-4.15-.47-6.22a28.52,28.52,0,0,1,.28-6.38c.26-2.36.65-4.7,1.12-7a58.11,58.11,0,0,1,4.7-13.74c.36-.76.77-.73,1.41-.42a36.51,36.51,0,0,0,5.39,2.16c-1.24-1.38-2.41-2.82-3.73-4.12-.86-.84-1.31-1.54-.33-2.57.22-.23.24-.64.35-1a18.31,18.31,0,0,0,2.37-3,40.26,40.26,0,0,1,8-8,1.67,1.67,0,0,1,2.62.18c5.44,5.49,9.33,12,12.69,18.9.31.63.56,1.28.83,1.92,1,2.36,1,2.34-1.08,4a21.41,21.41,0,0,0-3.54,2.94c2.07-.3,3.83-.5,5.57-.84,1-.19,1.46,0,1.76,1a67.42,67.42,0,0,1,3,22.27,95.85,95.85,0,0,1-1.65,14.24,3.71,3.71,0,0,1-2.09,3c-1.62.8-3.1,1.87-4.94,3a12.61,12.61,0,0,0,3.87-.16c1.54-.1,1.63.07,1.24,1.54-.47,1.78-1.36,3.43-1.64,5.27l-9.86,4.83a2.44,2.44,0,0,1-.69-1.76c-.45-3.76-.82-7.52-1.28-11.28-.64-5.19-1.12-10.41-1.61-15.61-.52-5.51-1-11-1.46-16.52-.34-4.62-.62-9.25-1.05-13.86-.25-2.62,0-5.24-.08-7.66,0,1.69-.12,3.6-.21,5.5q-.7,14.49-.3,29c.22,8.21.67,16.42,1.48,24.6.25,2.58.49,5.16.77,7.73a4.22,4.22,0,0,1-.09,2.36,34.77,34.77,0,0,1-5.15,3c-.81,0-1.19-.65-1.62-1.19A71.71,71.71,0,0,1,208.34,265c-.51-1.38-.2-1.87,1.28-2.18.2,0,0,0,.15,0,.62-.2,1.63.08,1.78-.72s-.6-1.33-1.11-1.86a7.05,7.05,0,0,0-2.52-1.27,3.29,3.29,0,0,1-2.08-2.52C205.44,254.43,205,252.43,204.7,250.37Z" transform="translate(-38.43 -163.77)"/><path class="cls-3" d="M524,383c-.69.13-1.09-.71-2-.48,3,4.21,3.38,8.64,1.25,13.51a13.84,13.84,0,0,1-4-9.39,11.72,11.72,0,0,1,.43-4.44,1.36,1.36,0,0,0-.81-1.82,80.1,80.1,0,0,0-10.95-4.89c3.31,3.29,4.71,7.14,3.78,11.72-.5.15-.73-.22-1-.54a41.77,41.77,0,0,0-4.5-5.18,1.79,1.79,0,0,1-.7-1.27c.08-1.38-.5-2.74-.1-4.06a15,15,0,0,1-3,1.28,1.64,1.64,0,0,1-1.19-.54,25.89,25.89,0,0,0-8.21-4.53c-.38-.13-1-.12-.86-.8.76-.49,1.54-.15,2.32-.1a26.12,26.12,0,0,1-10-3.08,9.49,9.49,0,0,1-2.2-1.55c-.61-.59-.72-1.12.25-1.59,1.47-.72,3-1.33,4.49-2,3.83-1.78,7.71-3.46,11.49-5.36A3,3,0,0,1,502,358a21.82,21.82,0,0,0,10,3.37,22.83,22.83,0,0,1-9.67-3.16c-1.48-1-1.52-1.36.07-2.13,3.62-1.74,7.12-3.71,10.73-5.47,1.34-.65,2.62-1.42,3.94-2.12a1.69,1.69,0,0,1,1.83-.09,13.24,13.24,0,0,0,5.92,1.73,16.3,16.3,0,0,1-4.47-1c-.56-.23-1.2-.4-1.29-1.1s.55-.91,1-1.17c2.46-1.39,5-2.74,7.36-4.23-4.73,2.78-9.49,5.48-14.36,8-1.68.87-2,.66-1.94-1.23a21.17,21.17,0,0,1,2.31-7.59c-1.22,2.73-2.46,5.45-2.33,8.54a2,2,0,0,1-1.31,2c-6.15,3.13-12.3,6.24-18.64,8.95-1.31.56-1.67.34-1.59-1.05a25.15,25.15,0,0,1,2-7.9,34.4,34.4,0,0,1,2.18-4.56c-1.94,3.55-4,8-4.21,13.07a1.79,1.79,0,0,1-1.19,1.83c-5.18,2.2-10.22,4.7-15.46,6.73a7.41,7.41,0,0,1-1.28.43c-.84.17-1-.21-.67-.91a46.28,46.28,0,0,1,3.3-10.79c3.24-7.43,8.07-13.51,15.38-17.29a64.53,64.53,0,0,1,23.9-6.67,129,129,0,0,1,25.08.59c.84.09,1,.35.75,1.15-4.39,14.87-12.68,26.93-25.69,35.57-1.41.93-2.91,1.73-4.37,2.59-.33.19-.81.31-.79.78s.53.36.81.53c2.06,1.25,3.64,1.48,5.68-.65,3.36-3.5,7.82-3.8,12.39-2.57,1.29.35.75.87.18,1.4a15,15,0,0,1-9.72,4,9.56,9.56,0,0,0-2.74.32c1.46.76,3,1.45,4.36,2.3s3.23,1.48,4.48,2.79Z" transform="translate(-38.43 -163.77)"/><path class="cls-7" d="M412.54,536.64a44.56,44.56,0,0,0,10-5.33,2.13,2.13,0,0,1,3,.7.68.68,0,0,1,.09.41c-.06.25-.27.24-.47.21a10.05,10.05,0,0,0-1.33-.16,3.56,3.56,0,0,0-3.51,4.27c.06.31.42.67.07,1s-.62-.08-.92-.21c-1-.43-3.14.61-3.8,1.94-.48,1-1,1.8-2.14,2a1,1,0,0,0-.72.71c-.56,1.55-2.26,2.06-3.09,3.37a.64.64,0,0,1-1,0,.75.75,0,0,1,0-1.07c.44-.62.86-1.41-.14-1.62-.67-.14-1.67-.38-2.15,1a2.71,2.71,0,0,0,.4,2.7c.37.57,1.19.86.38,1.82-.32.37.51,1.32,1.14.94.86-.51,1.18,0,1.61.43.6.66,1.17,1.35,1.74,2,.43.52.92.85,1.49.26s.8-1,.13-1.65-1.28-1.52-2-2.23a1,1,0,0,1-.08-1.66c.53-.61.83-1,1.6-.22A14.79,14.79,0,0,1,414.6,548c.42.55,1,1.21,1.85.47s.3-1.23-.24-1.78a11.19,11.19,0,0,1-1.67-1.89,1.24,1.24,0,0,1,.37-1.81c.66-.54.82.26,1.12.55,2.62,2.55,5.12,1.26,6.47-.86.36-.57.54-1.34-.08-1.74s-1.25-.17-1.5.68c-.1.36-.48.66-.79.47-.5-.32-.06-.72.15-1a3.26,3.26,0,0,1,3.32-1.49,3.54,3.54,0,0,0,3.8-2c.46-.83.76-1.52-.16-2.19a.44.44,0,0,1-.17-.64c.2-.28.44-.06.67,0a7.44,7.44,0,0,1,2.64,2.15c.6.62,1.07.73,1.75.08s.28-1.15-.24-1.57c-1.09-.85-1.13-1.41.12-2.28,1.41-1,1.05-2.55.67-3.94-.25-.9-.13-1.36.89-1.29.61.08.64.59.66,1,.45,6.82,1.5,13.58,2,20.38a1.33,1.33,0,0,1-.35.81c-3,3-5.89,6.22-9.16,9-1.48.62-3,.31-4.57.32a3.34,3.34,0,0,0-2.73,1.2c-2.09,2.38-4.14,4.79-6.21,7.16.46.56,1.18.37,1.47.92a170.1,170.1,0,0,1-40.14,22.71c-.64.25-1.26.56-1.9.84-1.47,1.16-3.34,1.38-5,2.12-1.05.13-2,1.05-3.11.57-.25-.57.08-1.07.21-1.59a43.14,43.14,0,0,0,1.86-12.67,14.49,14.49,0,0,0-1.23-5.81,4.48,4.48,0,0,0-5.15-2.63c-2.88.45-4.93,2.27-7,4.06-.52.44-.9,1.09-1.71,1.1a.87.87,0,0,1-.24-1.08c1.4-4,3.14-7.7,7.14-9.74a25.88,25.88,0,0,1,7.31-2.57c8.62-1.47,16.72-4.49,24.73-7.85,1.88-.8,3.8-1.48,5.72-2.19a6.7,6.7,0,0,0,4.28-4.3c1.87-5.81,6.31-9.41,11-12.83A1.12,1.12,0,0,1,412.54,536.64Z" transform="translate(-38.43 -163.77)"/><path class="cls-8" d="M386.84,283.24c.1,3.08.62,6.12,1,9.17s.72,6.11,1.09,9.17a1.36,1.36,0,0,1-.56,1.42.74.74,0,0,1-.41.59,20.62,20.62,0,0,1-6.58,2.16c-1.2.1-1.29-.93-1.61-1.65-1.33-3-2.27-6.15-3.31-9.25-2.67-7.91-5.06-15.91-7.34-23.93-1.28-1.58-1.42-3.52-1.71-5.41.53-5.62,3.88-9.81,7.17-14,1.61-2.08,3.41-4,5.19-5.94-4.37,4.84-8.94,9.53-11.47,15.73-.46,1.14-.42,2.46-1.21,3.49-.92,0-1.2-.81-1.66-1.34a40.14,40.14,0,0,1-5.68-8.16c-1.6-3.11-1.51-5.93.95-8.64,1.41-1.55,2.89-3,4.32-4.52,4.26-3.93,8.6-7.76,13.15-11.36a2.43,2.43,0,0,1,1.42-.74,2.91,2.91,0,0,1,1.6.75,12.45,12.45,0,0,0,6.31,2.46c3.36.43,6.76.63,10,1.89a11.89,11.89,0,0,1,2.41,1.16,12.38,12.38,0,0,0,10.62,2.12c.39-.1,1-.52,1.22.27a84.36,84.36,0,0,1-10.06,11.38c-4.61,4.67-9.36,9.22-14.05,13.82-.35.35-.93.56-.43,1.29,3.53,5.11,6.24,10.7,9.29,16.08.31.49,0,.87-.26,1.22-1.08,1.49-2.29,2.87-3.48,4.27a1.07,1.07,0,0,1-.9.45.61.61,0,0,1-.81,0,18.69,18.69,0,0,1-3.91-4.08,2.21,2.21,0,0,1-.57-1.5c-.57-4.38-1.3-8.73-1.84-11.73C385.42,273.37,385.89,278.34,386.84,283.24Z" transform="translate(-38.43 -163.77)"/><path class="cls-6" d="M411.68,238.67c-2.14.25-4.24.82-6.45.35a10.29,10.29,0,0,1-4.05-1.4c-3.43-2.53-7.4-3.33-11.49-3.68-3.6-.3-7-1.07-9.75-3.53a1.42,1.42,0,0,0-.56-.18c-.81-.53-.55-1.18-.2-1.83,2.69-5,2.77-10.4,2.19-15.86-.15-1.4-.36-1.46-1.6-.89-.95.44-1.88.92-2.81,1.4a2.22,2.22,0,0,1-2.65-.1c-2.14-2.07-4.26-4.17-5.48-7-1.2-1.55-.37-2.54.83-3.62,3.41-3.07,6.64-6.33,10.43-8.93a25.62,25.62,0,0,1,6.7-3.24.93.93,0,0,1,.67.89,1.74,1.74,0,0,0,2.06,1.65,2.35,2.35,0,0,0,2.16-1.94c.24-.72-.18-1.63.64-2.17,3.32-1.26,6.67-1.94,10.2-.88a17.11,17.11,0,0,1,5.77,3.34c1.84,1.5,3.57,3.16,5.38,4.71a2.81,2.81,0,0,1,1.27,2.79,12.71,12.71,0,0,1-4.23,7.39c-.3.26-.56.7-.89.76-1.31.23-.69.85-.36,1.45a48.68,48.68,0,0,1,4.7,12.21,38.07,38.07,0,0,1-.08,16C413.81,237.79,412.43,237.87,411.68,238.67Z" transform="translate(-38.43 -163.77)"/><path class="cls-6" d="M217.59,575a2.23,2.23,0,0,0,1.5.57c1.29.09,1.55.53.61,1.5-.55,0-.91.35-1.31.63q-12.82,8.85-25.67,17.69c-.95.65-1.24,1.13-.5,2.17,1.52,2.15,2.91,4.39,4.35,6.6a3,3,0,0,1-2.6,1.29c-1.76-2.77-3.51-5.55-5.28-8.33a2.2,2.2,0,0,0-3.32-.71,258.9,258.9,0,0,1-23.3,13.42,18.46,18.46,0,0,1-7.21,2.32c-2.82.14-4.37-1.27-4.7-4.07a31.58,31.58,0,0,1,.78-9.35c1.32-7.35,3.15-14.59,4.71-21.89a44.23,44.23,0,0,1,1.63-6.58c.47-1.23-.25-2.54-.47-3.81-.69-3.87-1.42-7.73-2.11-11.6a4,4,0,0,0-2.43-3.18l-13.76-6.17a4.06,4.06,0,0,1-.66-3.12c.47-.27.87,0,1.27.19,4.74,2.1,9.45,4.26,14.16,6.41a7.19,7.19,0,0,1,4.36,5.82c.44,2.76,1,5.5,1.59,8.6.42-1.45.77-2.64,2.42-2.29.61.12.51-.47.44-.86-.66-3.73-1.32-7.46-2.09-11.17a3.93,3.93,0,0,0-2.38-2.88c-3.75-1.73-7.49-3.5-11.32-5.08q-2.78-1.23-5.52-2.55c-.69-.33-1.18-.78-.91-1.62s.91-1.37,1.54-1.08c1.46.67,3.18.59,4.49,1.62,2.45,1.55,5.21,2.46,7.8,3.7,1.75.84,3.54,1.6,5.3,2.41a6.37,6.37,0,0,1,3.88,4.95c.76,4.26,1.56,8.52,2.36,12.77.07.38-.09,1,.58,1a3.15,3.15,0,0,1,1.33.12q23.29,5.53,46.56,11.22C215,574,216.54,573.86,217.59,575Z" transform="translate(-38.43 -163.77)"/><path class="cls-8" d="M435.91,549.9c-.47-4.23-1-8.45-1.41-12.68-.27-2.6-.45-5.22-.68-7.84,0-.48.14-1-.25-1.42-.38-3.85-.77-7.69-1.14-11.54-.34-3.46-.66-6.92-1-10.37-.47-4.79-1-9.57-1.4-14.36-.24-3.29-.93-6.55-.73-9.87.67-.58,1.42-.29,2.14-.18A84.31,84.31,0,0,0,444,482.9c1.65,0,3.26-.28,4.89-.44a2.12,2.12,0,0,1,1.72.22,1,1,0,0,1,.85,1.06c.39,4.59.65,9.2,1.26,13.76s.37,9.37,2.73,13.6c1.31,2.33,2.52,4.72,4,6.92,2.64,4.37,5.55,8.56,8.41,12.79.31.46,1.07.83.68,1.63a26.51,26.51,0,0,1-4.92,5.49c-.2.2-.5.58-.85.13l-9.58-9.87c-1.27-.4-2-1.47-2.78-2.4a48.2,48.2,0,0,1-4.55-5.64c0,5.46,0,10.64,0,15.81a4.9,4.9,0,0,1-.39,2.48q0,8,.1,16.07c0,.6.08,1.19-.51,1.58a1.06,1.06,0,0,1-.77.41c-2.32.06-4.65.36-7-.22a1.34,1.34,0,0,1-1-.85C436,553.61,435.42,551.8,435.91,549.9Z" transform="translate(-38.43 -163.77)"/><path class="cls-9" d="M505.72,380.31c2.08,2.23,4.11,4.5,6,6.91a76.13,76.13,0,0,1,5.86,10.71,91.24,91.24,0,0,1,4.37,13.47c.24,1,0,1.21-1,1.25-12.92.54-25.2-1.6-36.28-8.7-1.75-1.12-3.41-2.36-5.11-3.55-1.78-2.19-3.77-4.21-5.12-6.75a33.88,33.88,0,0,1-3.87-13.79,32.33,32.33,0,0,1,.21-6.07c.46-.18.74.15,1.06.38,1.92,1.35,3.72,2.85,5.6,4.25a1.31,1.31,0,0,1,.66,1.39c-.77,3.79.06,7.41,1.17,11a25.38,25.38,0,0,1-1.43-9.27,5.48,5.48,0,0,1,.09-.89c.26-1.17.58-1.31,1.59-.6,3.33,2.36,6.51,4.92,9.76,7.4.16.12.31.25.47.36,1.68,1.06,2.72,2.16,2.27,4.56-.49,2.63.46,5.31,1.09,7.27A30.48,30.48,0,0,1,492,394a5.72,5.72,0,0,1,0-1.49c.05-.73-.06-1.65.65-2s1.24.45,1.76.84q5,3.77,10,7.59a2.27,2.27,0,0,1,1.06,2.27,11.45,11.45,0,0,0,.44,4.11,14,14,0,0,1-.45-3.92c0-1,.48-1.26,1.28-.65,1.91,1.46,3.83,2.89,5.7,4.37-3.55-2.81-7.24-5.46-10.78-8.31-1.21-1-1.16-1.3.33-1.83a15.59,15.59,0,0,1,5.82-.9,15.39,15.39,0,0,0-7,1.34c-.61.29-1,0-1.5-.35-4.55-3.48-9.13-6.92-13.64-10.45-.95-.75-.87-1.13.28-1.7a12.77,12.77,0,0,1,4.13-1.22,24.23,24.23,0,0,1,7.39-.3,12.33,12.33,0,0,0-3.9-.14c-2.81.29-5.66.51-8.22,1.92a1.49,1.49,0,0,1-1.79-.14l-11.76-9c-.27-.2-.59-.41-.5-.84l.61-.38a3.46,3.46,0,0,1,1.54-.8,27,27,0,0,1,8.74-1.71,31.13,31.13,0,0,1,7.28.29c1,.21,2.14-.05,2.81,1,3.07,1.17,6.12,2.36,8.69,4.5.49.41,1,.8,1.49,1.19A5.48,5.48,0,0,1,505.72,380.31Z" transform="translate(-38.43 -163.77)"/><path class="cls-10" d="M454.53,327.32A130.45,130.45,0,0,1,466,317.43c.83-.63,1.69-1.2,2.53-1.8A76.43,76.43,0,0,1,495.77,303c6.42-1.48,12.89-2.08,19.38-.27a14.6,14.6,0,0,1,3.81,1.68c3.34,2.07,4.19,6,2.13,9.86a17.32,17.32,0,0,1-7.21,6.75,50.53,50.53,0,0,1-20.31,6.22A128.25,128.25,0,0,0,454.63,337c-.23.1-.47.15-.71.23a8.37,8.37,0,0,1-1.76-2.33c.17-.66.78-.89,1.26-1.22a113.84,113.84,0,0,1,26.06-13.6,97.2,97.2,0,0,1,12-3.32,2.67,2.67,0,0,0,1.7-.74,30.38,30.38,0,0,0-6.34,1.17A105.5,105.5,0,0,0,454,332.5c-.76.51-1.42,1.3-2.49,1.19a3.86,3.86,0,0,1-1.51-1.87,3.18,3.18,0,0,0,1.48-1.28A6.65,6.65,0,0,1,454.53,327.32Z" transform="translate(-38.43 -163.77)"/><path class="cls-8" d="M108.57,612.51c-.84-.42-.64-1.08-.45-1.79,2.87-11.05,5.71-22.11,8.62-33.15.58-2.18-.09-4.25-.24-6.36-.55-7.81-1.31-15.6-.27-23.42.56-.47,1.15-.24,1.7,0,5.19,1.9,10.55,1.86,15.95,1.46.59-.05,1.2-.17,1.65.4.52,4.19.92,8.4,1.6,12.57a69.47,69.47,0,0,1,.15,19.48l-2.67,22.52c-.05.39-.13.78-.19,1.17-.07.2-.19.4-.38.42-2.32.31-4.65.6-6.94-.18.06-1.89.1-3.77.18-5.66.17-4.17.51-8.35.44-12.53,0-.23,0-.46-.1-.89a5,5,0,0,0-1,2.06q-5.14,12.66-10.28,25.34c-.15.36-.12.94-.74,1a2.76,2.76,0,0,1-2.46,0C111.47,614.32,109.67,614.08,108.57,612.51Z" transform="translate(-38.43 -163.77)"/><path class="cls-4" d="M322.12,589.6c0-5.17-.24-10.35.3-15.51a40.73,40.73,0,0,1,1.46-8.05,12.19,12.19,0,0,1,4.64-6.41c3-2.12,6-1.72,8.32,1.07.16.18.34.36.51.53.74.18.93.85,1.23,1.41a32.91,32.91,0,0,1,3.13,10.53c.54,3.45.65,6.93.91,10.4-.11,2.75.22,5.51-.07,8.26a5.39,5.39,0,0,0-.22,1c.38,3.86-1.37,7.27-2.27,10.86a130.43,130.43,0,0,0-3.37,18.16c-.12,1.11.34,1.51,1.43,1.53.89,0,1.9-.35,2.64.53-4.34.1-8.68.27-13,0,.46-2.71-.21-5.34-.62-8a116.91,116.91,0,0,0-4.71-19.26,6.14,6.14,0,0,1-.22-2.93A10.84,10.84,0,0,0,322.12,589.6Z" transform="translate(-38.43 -163.77)"/><path class="cls-10" d="M322.12,589.6a4.89,4.89,0,0,1,.29,2.92,18.58,18.58,0,0,0,1.21,6.55,112.53,112.53,0,0,1,4.18,18.41c.25,1.72.42,3.45.6,5.18.05.53.13,1.13-.66,1.24a91.73,91.73,0,0,1-9.95,0,5.83,5.83,0,0,1-2.48-2.1A81.58,81.58,0,0,1,301,599c-.3-.76-.9-1.31-1.2-2.05.15-1.14-.61-2.16-.44-3.31-1-4.3-2-8.6-1.83-13.07a14.69,14.69,0,0,1,.89-5c1.36-3.39,3.79-4.55,7.28-3.37,3.27,1.1,5.73,3.37,7.9,5.93a46.59,46.59,0,0,1,8.06,15,5.72,5.72,0,0,0,.44.64Z" transform="translate(-38.43 -163.77)"/><path class="cls-10" d="M340.76,623.92c-1.14,0-2.28-.09-3.42,0-.93,0-1.23-.33-1.16-1.23a95.81,95.81,0,0,1,1.35-9.55,119.82,119.82,0,0,1,4.2-16.37,12.26,12.26,0,0,0,.18-3.11c0-.53-.17-1.1.23-1.57.75.7.23,1.45.2,2a72.1,72.1,0,0,1,3.4-8.77,43.28,43.28,0,0,1,4.66-7,1.58,1.58,0,0,1,1.05-.76c1.91-1.73,3.7-3.62,6.09-4.72a7.1,7.1,0,0,1,4.88-.83c3.06.82,3.89,3.31,4.33,6,.92,5.53-.25,10.85-1.74,16.12-.1.33-.18.67-.26,1,.19.79-.29,1.44-.44,2.16-3.43,9.33-8.87,17.42-15.23,25-1.57,1.86-3.39,2-5.47,1.76A9.08,9.08,0,0,1,340.76,623.92Z" transform="translate(-38.43 -163.77)"/><path class="cls-11" d="M163.09,314.77c2.18,2.68,5.09,4.63,7.16,7.43-3.52-3.25-7.24-6.3-10.5-9.83-3.24-3.31-6.52-6.59-9.71-9.95a1.57,1.57,0,0,0-2.25-.41c-5.7,2.91-11.25,2.42-16.62-.95a2,2,0,0,1-1-1,17.19,17.19,0,0,1,16.93-.28c0-.56-.34-.78-.57-1-3-3.38-6.07-6.74-9.05-10.15a1.43,1.43,0,0,0-2-.41c-6,2.75-11.63,1.92-16.94-1.85-1-.68-.66-1,.21-1.34a17.27,17.27,0,0,1,14.49.16c.43.2.81.56,1.36.51.07-.56-.37-.8-.63-1.12-2.74-3.37-5.52-6.69-8.2-10.1a1.55,1.55,0,0,0-2.2-.57c-6,2.31-11.44,1.37-16.4-2.63l-1.26-1c6.17-2.68,11.74-2,17.32,1.06-.5-.67-1-1.32-1.51-2-2.36-3.27-4.75-6.52-7-9.83a1.41,1.41,0,0,0-1.93-.67,15.47,15.47,0,0,1-16.43-3.74c-1.14-1.09-1.11-1.21.37-1.6a17.88,17.88,0,0,1,14.35,2.2c.34.21.66.44,1,.65.08.05.17.09.6.29-1.46-2.24-2.78-4.18-4-6.18-1.73-2.79-3.4-5.62-5.08-8.45a4.16,4.16,0,0,0-1.42-1.47c-5.44-3.42-7.87-8.41-7.54-14.78,0-.47-.08-1.11.45-1.31s.81.31,1.16.56a17.25,17.25,0,0,1,7.28,13.77,8.17,8.17,0,0,0,1.29,4.33c1,1.56,2,3.17,3.08,4.71-1-5.85.49-10.82,4.83-14.87.28-.26.55-.73.95-.65s.45.73.53,1.14A17.06,17.06,0,0,1,110,248.81a1.71,1.71,0,0,0-.17,2.55c2.51,3.59,5,7.23,7.42,10.85.22.32.51.59,1,1.2a16.28,16.28,0,0,1,.18-10.23,17.39,17.39,0,0,1,3.44-5.56c.77-.89,1.07-.5,1.32.39,1.57,5.79.87,11.18-2.88,16a1.67,1.67,0,0,0,0,2.44c2.68,3.41,5.3,6.87,7.94,10.3a2.59,2.59,0,0,0,.89.81,29.51,29.51,0,0,1-.62-5.49,15.8,15.8,0,0,1,3.57-9.92c.76-1,1-.73,1.43.26a16.94,16.94,0,0,1-2,16.36,1.39,1.39,0,0,0,.07,2c3.22,3.73,6.4,7.5,9.74,11.22A16.49,16.49,0,0,1,144,275.14a15.32,15.32,0,0,1,2.27,7.67,16.93,16.93,0,0,1-2.82,10.06c-.34.54-.64,1-.08,1.58,3.36,3.54,6.7,7.11,10,10.66.06.07.18.08.51.22a18.58,18.58,0,0,1-1.46-7.05,16.88,16.88,0,0,1,2.68-8.74c.63-1.05,1-.82,1.44.11a16.6,16.6,0,0,1-.36,16.32,1.69,1.69,0,0,0,.38,2.49,43.11,43.11,0,0,1,4.25,4.4A6.58,6.58,0,0,0,163.09,314.77Z" transform="translate(-38.43 -163.77)"/><path class="cls-12" d="M228.27,610.29c.14-2.65.14-2.67,2.81-2.6,1.14,0,2.28.16,3.45.25-.8-2.36-.17-3.12,2.39-3.15.85,0,1.87.71,2.48.06s.44-1.6.69-2.4a9,9,0,0,1,1.07-2.62,2.18,2.18,0,0,1,2.06-1.2,2.54,2.54,0,0,0,2.53-1.51c.66-1.17,1.38-2.82,2.79-2.55a4.75,4.75,0,0,1,3.55,3.51,35.11,35.11,0,0,0,1.25,4,10.84,10.84,0,0,0,5.25,5.68,3.61,3.61,0,0,1,1.65,1.65c.72,1.42,1.44,2.84,2.18,4.24a6.47,6.47,0,0,0,2.67,2.74c.45.25,1.46.17,1.22,1s-.39,1.92-1.48,2.27a12.91,12.91,0,0,1-5.89.54,61,61,0,0,0-9.56-.2,2.7,2.7,0,0,0-1.12.34,12.32,12.32,0,0,1-8.55,1.13,38.24,38.24,0,0,0-12.16-.91c-2.68.21-5.2-.68-7.75-1.38-.92-.26-.86-.66-.35-1.24a2.9,2.9,0,0,1,1.8-1,2.66,2.66,0,0,0,2.37-2.33,8.19,8.19,0,0,1,1-2.78C225.63,610.11,226.35,609.8,228.27,610.29Z" transform="translate(-38.43 -163.77)"/><path class="cls-9" d="M281.12,264.71a39.29,39.29,0,0,1-6.94.28c-2.5-.76-5.13-1.09-7.53-2.2-11.28-5.19-18-13.85-20.24-26.1-.3-1.69.86-1.49,1.77-1.56A33.87,33.87,0,0,1,271.86,242c.28.21.57.4.85.59a3.5,3.5,0,0,1,2,1.27,34.08,34.08,0,0,1,6.38,8.19,6.06,6.06,0,0,1,.85,1.61,21.71,21.71,0,0,0-.7,5.9c0,.59,0,1.23-.73,1.5a4.09,4.09,0,0,1-3.42-2.86c-.43-1.63-.77-3.29-1.16-4.94.24,1.3.62,2.58.84,3.88.06.34.18.74-.19,1s-.69,0-1-.22c-2-1.49-4-3-5.93-4.57a3.26,3.26,0,0,1-1-2c-.3-1.47-.66-2.92-.95-4.39.17,1.19.54,2.34.67,3.53s-.3,1.46-1.12.91a43.16,43.16,0,0,1-6.24-4.86c-.68-.66-.56-1.78-.81-2.68a30.69,30.69,0,0,1-.75-3.15c.12,1,.44,1.93.62,2.9.11.57.46,1.3-.12,1.67s-1.1-.2-1.57-.57c-1.52-1.21-3-2.41-4.61-3.57a11.72,11.72,0,0,0-1.31-.9c2.87,2.17,5.65,4.19,8.3,6.39.41.34,1,.66.8,1.29s-.85.5-1.33.51c-.95,0-1.88.12-2.49.13a4.91,4.91,0,0,0,1.1-.07c4.69-1,7.39,2.37,10.49,4.82.71.56.47,1.09-.44,1.31a38.41,38.41,0,0,1-3.91.32c1.78-.07,3.52-.22,5.26-.18a2.91,2.91,0,0,1,1.7.48c1.89,1.4,3.78,2.79,5.56,4.31.34.28.81.58.65,1.09s-.8.5-1.27.49c-1.18,0-2.34.16-3.52,0,1.68.06,3.36,0,5-.09a2.8,2.8,0,0,1,2.05.77A2.56,2.56,0,0,1,281.12,264.71Z" transform="translate(-38.43 -163.77)"/><path class="cls-4" d="M134.7,514.87c1.88,2,3.44,4.09,3.34,7a38.45,38.45,0,0,1-.75,6.06,20,20,0,0,0-.79,5.43c.81,1.55-.12,3.12.07,4.67a3.73,3.73,0,0,1-.24,1.78,7.18,7.18,0,0,1-5.6.2c-3.78-1.52-7.41-3.41-11.09-5.16a2.12,2.12,0,0,1-1.13-1.13,3.34,3.34,0,0,1-.14-.94,29.38,29.38,0,0,1,.3-3.86c0-.93-.31-1.21-1.14-.66a6.36,6.36,0,0,0-.72.53,2.11,2.11,0,0,1-3,.07,29.91,29.91,0,0,1-4.49-3.68c-.76-.72-.57-1.49-.15-2.3a46.94,46.94,0,0,1,6.33-9.15,17.71,17.71,0,0,1,3.36-3.34,6,6,0,0,1,3.72-1.24,14.63,14.63,0,0,1,2.5,2.28,5.86,5.86,0,0,0,1.25,1,1.32,1.32,0,0,0,1.53,0c.47-.37.36-.87.2-1.35a1.38,1.38,0,0,1-.12-1.14.49.49,0,0,1,.68,0C130.54,511.82,132.87,513,134.7,514.87Z" transform="translate(-38.43 -163.77)"/><path class="cls-13" d="M288,214.44c2.82-2,5.92-1.18,9-.88a20.45,20.45,0,0,1,5,.79c4.71,1,9.4,2.09,14.1,3.12a11.29,11.29,0,0,1,2.24.8,5.72,5.72,0,0,0,2.84.64,37.66,37.66,0,0,1-.93-5.4c0-.8-.09-1.59-.1-2.39,0-1.29.26-2.28,1.94-1.84,1,.25,1.31-.19,1.31-1.18a12.46,12.46,0,0,1,.86-4.38c2.33-6.21,9.95-8.5,16-4.82l1.27.78c1.29.31,1.62,1.54,2.33,2.4.38,1.66.14,1.91-1.47,1.5-1-.68-1.42-2-2.5-2.57-2.89-2.15-6.13-2.24-9.38-1.27-3,.89-5.43,5.09-5.13,8.2.09.94.72.95,1.38.95a38.64,38.64,0,0,0,8.46-.48,2.3,2.3,0,0,1,2.73,1.49c.61,1.24,1.39,2.39,2.12,3.58.19.32.34.81.78.8s.49-.57.61-.92a18.82,18.82,0,0,0,1.05-3.86,2.61,2.61,0,0,1,.77-1.87,1.26,1.26,0,0,1,1.55.29c.36,2.42-.52,4.61-1.38,6.77a8.69,8.69,0,0,0-.93,3.7c.09,2.8-1.74,4.56-3.77,6.11a21.3,21.3,0,0,1-7.41,3.8,24.38,24.38,0,0,1-3.68.8,2.17,2.17,0,0,1-2.07-.55,7.43,7.43,0,0,0-3.39-1.79q-13.25-4.63-26.47-9.33a12.24,12.24,0,0,0-2.41-.89c-1.52-1.35-3.39-1.44-5.28-1.49A.46.46,0,0,1,288,214.44Z" transform="translate(-38.43 -163.77)"/><path class="cls-12" d="M122.65,509.4c-2.62.26-4.41,1.86-6.07,3.72a52.19,52.19,0,0,0-7.13,10.12c-.35.66-.59,1.26.13,1.82a8.85,8.85,0,0,1-2.79,5.35,7.52,7.52,0,0,1-5.91-4.06,5.72,5.72,0,0,1-.21-5.7,7.36,7.36,0,0,1,1.08-1.79c2-2.16,2.21-4.33,1.2-7.21-1.33-3.82,0-7.36,3-10.13a16.09,16.09,0,0,1,5-3,8.58,8.58,0,0,0,5.32-5.83,6.67,6.67,0,0,1,6.07-5,5.87,5.87,0,0,1,5.61,2.06,1.84,1.84,0,0,0,1.58.81c1.41,0,2.06,1.11,2.43,2.29a10.94,10.94,0,0,1-.38,7.88c-.65-.21-.57-.78-.56-1.24a2,2,0,0,0-1.31-2.1,3.87,3.87,0,0,1-1.52-1.5c-.74,3.37-3.41,4.56-6.06,5.79-1,.45-1.88.64-2.7-.29-.28-.31-.65-.52-1.05-.19a.92.92,0,0,0-.2,1.1,2.67,2.67,0,0,0,1.66,1.59A4.57,4.57,0,0,1,122.65,509.4Z" transform="translate(-38.43 -163.77)"/><path class="cls-4" d="M343.61,623.91c2.79.47,4.39-1.11,6.05-3.1a81.56,81.56,0,0,0,14.16-23.37,1.44,1.44,0,0,1,.27-.34c.73-1.55,2.3-2.1,3.58-3a34.1,34.1,0,0,1,5-1.79,19.21,19.21,0,0,1,4.9.4c4.16,1.31,5.93,5.55,4.2,10.12-2,5.2-5.6,9.13-9.84,12.54a53.78,53.78,0,0,1-14.51,8.17,5.1,5.1,0,0,1-1.71.48C351.67,624,347.64,624.19,343.61,623.91Z" transform="translate(-38.43 -163.77)"/><path class="cls-4" d="M300,596.78a6.58,6.58,0,0,1,1.4,2.07A69.4,69.4,0,0,0,308,611.5a86.16,86.16,0,0,0,9.75,12.42c-3.37.16-6.8.62-10.08-.24a32.87,32.87,0,0,1-7.62-3.41c-5.71-3.17-10.8-7.06-14.61-12.46a23.63,23.63,0,0,1-3.2-6.68c0-.5,0-1,0-1.48-.05-4.17,2.57-6.94,6.79-7.28a14.33,14.33,0,0,1,7.57,1.7A4.79,4.79,0,0,1,300,596.78Z" transform="translate(-38.43 -163.77)"/><path class="cls-12" d="M217.59,575l-28.84-6.91-21.87-5.26a1.8,1.8,0,0,1-1.06-.49c1.5-2.36,3.89-3.22,6.43-3.82a1.65,1.65,0,0,1,1.49.56,2.28,2.28,0,0,0,3.43,0A1.3,1.3,0,0,1,179,559a3,3,0,0,0,2.5.66,2.06,2.06,0,0,1,1.29.26c3.28,1.77,6.8,1.48,10.3,1.22,1.82-.13,3.56.39,5.35.36,1.19-.09,2.38-.16,3.56-.29a3.5,3.5,0,0,1,3.38,1.46c1,1.28,1.92,1.18,3.15.33,2.16-1.51,2.19-1.45,3.67.76.18.27.32.76.7.71,1.54-.22,2.12,1.06,3,1.83a3.79,3.79,0,0,0,.82.64c3.12,1.33,3.63,4.18,4.14,7,.21,1.16-.17,1.63-1.4,1.34A4.4,4.4,0,0,0,217.59,575Z" transform="translate(-38.43 -163.77)"/><path class="cls-8" d="M194,605.44l2.6-1.29a12.41,12.41,0,1,1-.84,23,12.28,12.28,0,0,1-7.27-12.25A12.57,12.57,0,0,1,194,605.44Z" transform="translate(-38.43 -163.77)"/><path class="cls-14" d="M414.7,568.76l-2.31-.37c1.07-1.7,2.6-2.93,3.7-4.5,2.31-3.31,5-5.69,9.47-4.68.29.07.66-.16,1-.25a15.91,15.91,0,0,1,6.52,0c.54.74-.23.82-.56,1-.79.53-1.7.85-2.45,1.44-.43.35-.86.75-.64,1.39s.73.66,1.23.65c4-.07,8.07.34,12.09-.27,2-.32,2.22-.56,2.35-2.55,0-.54,0-1.12.47-1.51q10.06,0,20.14.06c.51,0,1.24-.3,1.51.24s-.39,1-.73,1.34c-1.74,2-3.56,4-5.23,6.12a3.86,3.86,0,0,1-3.92,1.79,6.11,6.11,0,0,0-1,0,9.37,9.37,0,0,0-4.1.49c-8.29-.06-16.58.07-24.86-.06-1.23,0-2.51.36-3.65-.44C420.69,568.66,417.69,568.55,414.7,568.76Z" transform="translate(-38.43 -163.77)"/><path class="cls-5" d="M452.79,568.94c.57-.86,2.57-1,3.5-.23,2.07,5.45,4.12,10.9,6.2,16.33,3.57,9.31,7.13,18.61,10.77,27.88.45,1.15.06,1.43-.87,1.79s-1.56.51-2-.75c-1.61-4.45-3.4-8.83-5-13.28a1.82,1.82,0,0,0-2.07-1.39q-8.84.08-17.66,0a1.6,1.6,0,0,0-1.85,1.23c-.66,2-1.42,3.94-2.14,5.9a7.54,7.54,0,0,1-1.83,4.49l-1,2.64c-.65,1.67-1.46,1.86-3,.82-.57-.39-.3-.76-.15-1.14.87-2.27,1.76-4.54,2.64-6.81a20.61,20.61,0,0,1,1.45-4.92c3.45-8.83,6.81-17.69,10.24-26.52.61-1.58,1.28-3.14,1.82-4.75A1.84,1.84,0,0,1,452.79,568.94Z" transform="translate(-38.43 -163.77)"/><path class="cls-15" d="M141,412.35c-.17,1.18.2,2.4-.23,3.56.07-.79-.34-1.06-1.08-1.26a191.44,191.44,0,0,0-23.1-4.72,165.53,165.53,0,0,0-29.09-1.4h-.3c-2.91-.15-5,.27-6.1,3.8s-4.21,6-7.58,7.91c-1.23.67-1.45.21-1.45-.9,0-.74-.07-1.49-.1-2.24-.54-1-.06-1.94.17-2.89.42-1.66.44-1.66-1.29-2a12.53,12.53,0,0,1-3.69-1.13c-1.18-.66-1.3-1.36-.42-2.4a9.45,9.45,0,0,1,3.65-2.76c.82-.33,1.06-.64.36-1.47s-1.78-1.77-1.71-3.17a17.68,17.68,0,0,1-1-3.42c6.12-.26,11.13,2.63,13.56,7.26a1.76,1.76,0,0,0,2.07,1.09,139.15,139.15,0,0,1,21.51,0,180.4,180.4,0,0,1,34.83,5.9Z" transform="translate(-38.43 -163.77)"/><path class="cls-16" d="M440.12,601.62l-1.77,4.8c-.8-2.14-1.6-4.28-2.38-6.43a1,1,0,0,0-1.16-.69c-6.24,0-12.48,0-18.71,0-.76,0-1,.36-1.24,1-1.73,4.51-3.51,9-5.22,13.51-.35.94-.61,1.44-1.78,1s-1.5-.92-1-2.18c3.46-8.81,6.84-17.64,10.25-26.47q3-7.87,6.06-15.75c.21-.55.34-1.14.51-1.71h3.57a5.12,5.12,0,0,1,1.23,2.36c2.87,7.58,5.83,15.14,8.74,22.71C438.21,596.38,439.31,599,440.12,601.62Z" transform="translate(-38.43 -163.77)"/><path class="cls-17" d="M482.08,419.63c0-.81,0-1.62-.05-2.43a104.82,104.82,0,0,1,49.63,13.59l.52.29c1.27.78,2.47,1.89,3.85,2.25s2.45-1.19,3.79-1.67c4-1.42,7.75-.6,11.44,1.07.67.31.65.64.14,1.08l-1.89,1.7a4.25,4.25,0,0,1-2.43,1.63c-1,.37-1.22.83-.62,1.76a9.17,9.17,0,0,1,1.48,3.73c.2,1.46-.29,2-1.74,1.74a20.27,20.27,0,0,1-3.34-.79c-1.44-.48-1.41-.46-1.87,1.08-.24.84-.31,1.79-1.11,2.38l-2,2.79a15,15,0,0,1-3.19-7.17,13.26,13.26,0,0,1,0-5.78A1.51,1.51,0,0,0,534,435a96.39,96.39,0,0,0-17.2-8.55,105.06,105.06,0,0,0-33.78-6.8C482.68,419.6,482.38,419.62,482.08,419.63Z" transform="translate(-38.43 -163.77)"/><path class="cls-18" d="M410.71,206a34.74,34.74,0,0,0,4.23-7.39c2.95,2.11,5.71,4.5,8.94,6.2,5.87,3.07,11.75,6.13,17.69,9.05a32.38,32.38,0,0,0,5.14,1.5,7.4,7.4,0,0,1,4.69,3.89,1.57,1.57,0,0,1-.22,1.94c-.34.45-1.44.18-1.16,1.26,0,.13-.68-.08-1-.34-.66-.6-1.3-1.24-2-1.81s-1.17-.83-1.62.22c-.3.71-.83.65-.93-.08-.17-1.16-.95-1.37-1.86-1.55a95.56,95.56,0,0,1-27.07-10A27.46,27.46,0,0,1,410.71,206Z" transform="translate(-38.43 -163.77)"/><path class="cls-19" d="M288,214.44l0,.52c.79.82,2,1.41,2.29,2.47s-.8,2.09-1.33,3c-2.86,5.15-2.22,10.32-.4,15.55a22.49,22.49,0,0,0,1.27,3.34A2,2,0,0,1,290,241c-.69,1.54-2.07,2.5-3.14,3.72A25.08,25.08,0,0,0,283.4,250c-.27.54-.38,1.28-1.2,1.37-.67-.28-.66-1-.83-1.5a70.81,70.81,0,0,0-6-13.84c-.26-.47-.64-.93-.35-1.53.54-.18.72-.67.91-1.12A59.33,59.33,0,0,1,287,216.17C287.5,215.63,287.48,214.9,288,214.44Z" transform="translate(-38.43 -163.77)"/><path class="cls-12" d="M377.7,180.77c-2.54.48-3.28-.12-3.17-2.77.05-1-.1-1.41-1.18-1.46a5.79,5.79,0,0,1-2.82-.9,3.21,3.21,0,0,1-.33-5.56,9.59,9.59,0,0,1,6.77-1.79,2.44,2.44,0,0,0,2.5-1.09,8.91,8.91,0,0,1,3.65-3c2.05-.91,3.62-.38,4.58,1.64a1.38,1.38,0,0,0,1.54.95,4,4,0,0,1,4.43,3.71,33.17,33.17,0,0,1,.47,3.85c.12,1.64,1.3,2.87,1.57,4.46.45,2.57-.46,4.17-2.73,4.55-.75.08-.82-.51-.82-1,0-1.53-.4-3.07.08-4.6a3.38,3.38,0,0,0,.13-1.19c-.06-1.33-.53-1.57-1.77-1.09-2.24.85-4.29.19-6.23-1a8.34,8.34,0,0,1-1.09-1,12.56,12.56,0,0,0-.78,2.25,9.51,9.51,0,0,1-2.79,4.17A2.81,2.81,0,0,1,377.7,180.77Z" transform="translate(-38.43 -163.77)"/><path class="cls-4" d="M343.53,202.2l-2.1-2.52a15.81,15.81,0,0,1,7.36-4.58c3.89-1.26,7.79-1.65,11.55.51,3.44,2,5.26,5.17,6.66,8.7.29.74.51,1.5.77,2.26a4.79,4.79,0,0,1-5,2.75c-2.57-.36-5-1.31-7.5-1.9s-5-1.56-7.62-2C345.67,205,344.53,203.71,343.53,202.2Z" transform="translate(-38.43 -163.77)"/><path class="cls-20" d="M106.79,530.41l2.79-5.35c1.52,1.19,3,2.37,4.54,3.58a1.62,1.62,0,0,0,2.48-.12c.57-.55,1.26-1.47,2.11-1s.31,1.46.3,2.21c0,1-.17,2-.26,3-1.27.1-1.79-1-2.62-1.61-.25-.17-.45-.71-.81-.28s.07.63.35.84c1,.74,2.21,1.12,3.06,2.06,1.13,1.36,2.9,1.66,4.36,2.43,2.16,1.15,4.45,2.12,6.69,3.16a5.61,5.61,0,0,0,3.69.71,10.2,10.2,0,0,1,2.53,0,5.46,5.46,0,0,1,1.89,2.43c.08,1.05.75,2,.62,3.07-1-.16-1.49,1.22-2.55.77a1.46,1.46,0,0,1-2.2-.23,9.85,9.85,0,0,0-5.75-2.82c-2.79-.43-5.55-1.14-8.29-1.83a4.61,4.61,0,0,1-1.9-.82,39.81,39.81,0,0,1-7.43-3C107.67,535.92,105.85,533.87,106.79,530.41Z" transform="translate(-38.43 -163.77)"/><path class="cls-20" d="M343.53,202.2a1.32,1.32,0,0,1,1.14.85c.71,1.46,2.14,1.66,3.44,2,2.63.77,5.28,1.51,7.95,2.17a54,54,0,0,0,7.17,1.76c2,.21,3.22-1.26,4.54-2.44l1.06-.59a68.56,68.56,0,0,0,5.44,6.6c.16.71-.45.94-.86,1.25a19.23,19.23,0,0,1-4.35,2.29c-4.09.78-7.91-.28-11.61-1.83s-7.61-3.2-11.26-5.13a4.31,4.31,0,0,1-1.58-1.09c-.46-.36-1-.22-1.5-.21a2.1,2.1,0,0,1-2.58-.94,4.32,4.32,0,0,1,.43-3.44.85.85,0,0,1,1.2-.16C343,203.43,344.2,203.94,343.53,202.2Z" transform="translate(-38.43 -163.77)"/><path class="cls-20" d="M377.7,180.77c3.35-1.68,4.65-4.69,5.22-8.4a6.78,6.78,0,0,0,5.88,3.09,2.31,2.31,0,0,0,2-.64c.59-.64,1.25-.35,1.67.42a2.93,2.93,0,0,1,.2,2.46c-.61,1.72.07,3.44-.17,5.15,0,.31.26.38.46.51a1.4,1.4,0,0,0-.81,1.56c.06,1.23.1,2.47.15,3.7A23.37,23.37,0,0,1,392,191a2.59,2.59,0,0,1-2.88,2.24c-1.5-.06-2.09-.93-2.13-2.33a2.91,2.91,0,0,0-.24-.7c-.21-2-.36-2.13-2.21-1.92a4.37,4.37,0,0,1-4.06-2,13.72,13.72,0,0,1-2.14-4.23C378.23,181.58,378.26,181,377.7,180.77Z" transform="translate(-38.43 -163.77)"/><path class="cls-21" d="M117.82,540.56l5.45,1.22c2.51.56,5,1.16,7.51,1.69a6.38,6.38,0,0,1,3,2,2.22,2.22,0,0,0,2.16.74c-.29,1.1.26,2.3-.43,3.35a75.32,75.32,0,0,1-8.89.3,36.15,36.15,0,0,1-9.28-1.86c-.37-.12-.7-.41-1.13-.26,0-2.22,1-4.22,1.4-6.35C117.68,541.14,117.75,540.85,117.82,540.56Z" transform="translate(-38.43 -163.77)"/><path class="cls-22" d="M69,401.26a17.77,17.77,0,0,0,2.39,3.42c.65.63.48.93-.27,1.25A11.43,11.43,0,0,0,66.79,409c-.68.8-.55,1.26.39,1.68A18.19,18.19,0,0,0,71.92,412c.93.15,1.24.39.85,1.33a14.71,14.71,0,0,0-.84,3.77c-2.77.28-5.46.3-7.89-1.42-4.56-3.21-4.62-9-.08-12.3A11.39,11.39,0,0,1,69,401.26Z" transform="translate(-38.43 -163.77)"/><path class="cls-23" d="M122.65,509.4c-.47-1.4,0-3.1-1.49-4.19a3.71,3.71,0,0,0-1.44-.88,2.69,2.69,0,0,1-2.16-2.36,1.1,1.1,0,0,1,.7-1.32.9.9,0,0,1,1.36.41c.61,1.12,1.49.76,2.3.36,2.7-1.32,5.51-2.54,6.09-6.22a4.8,4.8,0,0,0,2.57,2.18c.65.17.59.72.69,1.18.16.72-.11,1.49.28,2.18l-.9,5.4a3.12,3.12,0,0,1-1.66,2.51,1.92,1.92,0,0,0-1,1.37c.08.23.14.47.24.69.35.77.84,1.58-.1,2.24a1.83,1.83,0,0,1-2.42-.38C124.66,511.57,123.68,510.46,122.65,509.4Z" transform="translate(-38.43 -163.77)"/><path class="cls-24" d="M541.94,396.81c1.94,1,3.11,2.84,4.63,4.3a4.75,4.75,0,0,1,.57.69c1.54,2,3,2.91,5.88,1.79,4.32-1.66,8.5-.11,12.1,2.75.71.57.94.9-.24,1.29A15.43,15.43,0,0,1,553,407c-.39-.19-.8-.36-1.32-.6,0,1,1.05,1.28,1.05,2.09l0,0c-.87-.3-1.25-1.11-1.77-1.75a45.26,45.26,0,0,0-5.13-5.47,14.17,14.17,0,0,1,1,7.13,14.92,14.92,0,0,1-2.46,5.72c-.66,1-1.1.79-1.46-.21a15.14,15.14,0,0,1,.51-12.19c1.11-2.3,1.11-2.29-.78-4-.28-.25-.77-.35-.68-.89Z" transform="translate(-38.43 -163.77)"/><path class="cls-24" d="M552.72,408.48a26.46,26.46,0,0,1,4,4.91c1,1.31,1.82,2.73,2.72,4.09a4.69,4.69,0,0,0,1.74,1.56c4.75,2.63,6.68,6.87,6.72,12.14,0,1-.29,1.06-1.13.56-4.26-2.52-6.28-6.43-6.84-11.14a6.76,6.76,0,0,0-1.29-3.54,35.36,35.36,0,0,0-2.9-4,13,13,0,0,1-2.42,11.85c-.46.57-.9,1.54-1.6,1.37s-.69-1.24-.81-1.95a14.71,14.71,0,0,1,2.6-11.33c.88-1.25,1.09-2-.08-3.11-.36-.32-.86-.74-.73-1.39Z" transform="translate(-38.43 -163.77)"/><path class="cls-25" d="M450,239.18a18.29,18.29,0,0,0-3.83,1.19c-.69.36-.92.15-1-.6a13.15,13.15,0,0,0-1.57-4.77c-.53-.93-1-1.19-1.84-.23a17.29,17.29,0,0,0-2.55,4.16c-.3.64-.51,1-1.21.36a16.07,16.07,0,0,0-3.42-2.07,9.57,9.57,0,0,1,4.2-7.38c4.21-2.88,9.75-.44,11,4.76A12.4,12.4,0,0,1,450,239.18Z" transform="translate(-38.43 -163.77)"/><path class="cls-26" d="M539.88,447c.24-.76.51-1.51.73-2.27.63-2.12.62-2.11,2.82-1.45a23.45,23.45,0,0,0,2.75.67c1.44.27,1.7,0,1.4-1.49a9,9,0,0,0-1.78-3.9c-.73-.89-.47-1.29.48-1.55a21.25,21.25,0,0,0,3.23-1.54,10.54,10.54,0,0,1,3.17,4.42c.94,2.54,1,5-.89,7.14-2,2.32-4.69,2.82-7.6,2.23A10,10,0,0,1,539.88,447Z" transform="translate(-38.43 -163.77)"/><path class="cls-27" d="M275,234.5a83.65,83.65,0,0,1,7.23,16.72c.51.89.07,1.52-.57,2.1-.74,0-.54-.78-.88-1.12-1.83-4.76-3.41-9.62-6-14.08a9.24,9.24,0,0,1-.33-1.28,55.07,55.07,0,0,0-5.54-8.47c-.43-.58-.86-.45-1.43-.33a9.09,9.09,0,0,1-7.38-1.39c.27-.72,1-.9,1.39-1.38,1.59-.75,2.09-1.81,1.36-3.56-.4-1,.38-1.4,1.35-1.34a.77.77,0,0,1,.43.07c1.36.79,2.44.75,3-.93,0-.11.24-.16.36-.25s.39-.45.56-.69c.48-.69.85-.72,1.22.1,1.11,2.41,1.51,4.82.25,7.3-.24.48-.53.92-.05,1.48A79.73,79.73,0,0,1,275,234.5Z" transform="translate(-38.43 -163.77)"/><path class="cls-28" d="M391.79,287.18a36.08,36.08,0,0,0,4.64-5.94,26.43,26.43,0,0,1,5,3.12c1.05.7.07,1.62.15,2.44a77.55,77.55,0,0,1-7.27,10,11.66,11.66,0,0,1-1,1.1,1.58,1.58,0,0,1-1.82.23,1.34,1.34,0,0,1-.69-1.65c.27-1.62.51-3.24.88-4.84A14.84,14.84,0,0,0,391.79,287.18Z" transform="translate(-38.43 -163.77)"/><path class="cls-9" d="M462.85,538.06c2.16-1.64,3.76-3.84,5.77-5.62,1.33,1.2,2.62,2.43,4,3.59a1.48,1.48,0,0,1,.29,2.2c-1.64,2.74-4,4.82-6.26,7-1,1-2.13,1.95-3.21,2.91a1.83,1.83,0,0,1-2.32.4c-.9-.55-.6-1.37-.35-2.14.53-1.6,1.09-3.2,1.62-4.81A8.64,8.64,0,0,0,462.85,538.06Z" transform="translate(-38.43 -163.77)"/><path class="cls-5" d="M445.56,559.12c0,.45,0,.89,0,1.34,0,2.6-.14,2.77-2.8,3.16-4.16.61-8.35.24-12.53.29a1.34,1.34,0,0,1-1.4-.9,1.4,1.4,0,0,1,.57-1.71,23.39,23.39,0,0,1,3.77-2.07,30.72,30.72,0,0,1,4.25-3.29,48.54,48.54,0,0,0,7.72.15Z" transform="translate(-38.43 -163.77)"/><path class="cls-29" d="M473.3,372.5l-1.43.33c-.48-1.28-.95-2.57-1.43-3.85l.52,0c0,.75.36.7,1,.45,3.06-1.32,6.15-2.57,9.21-3.87,2.29-1,4.55-2,6.85-3a1.94,1.94,0,0,0,1.29-2c.26-5.43,2.51-10.17,5.39-14.66.06-.1.23-.13.35-.19.46.55-.06.84-.27,1.18a34.89,34.89,0,0,0-4.64,11.88c0,.15-.09.29-.11.43-.09.73-.47,1.64.1,2.11s1.21-.29,1.75-.55c5.84-2.78,11.64-5.64,17.46-8.45a2.39,2.39,0,0,0,1.5-2.45c0-3.22,1.27-6.08,2.78-8.85a1.15,1.15,0,0,1,.29-.33c.07-.06.18-.05.34-.09.27.61-.22,1-.43,1.46a22,22,0,0,0-2.38,7.8c-.06,1,.17,1.27,1.15.75,4.83-2.57,9.65-5.17,14.34-8a6.4,6.4,0,0,1,1.71-.75c-.43,1.16-1.53,1.45-2.4,2-1.9,1.17-3.88,2.21-5.83,3.3-.42.24-1.11.36-1.07.89s.78.64,1.26.86a18.51,18.51,0,0,0,4.64,1.07c.33.06.66.15,1,.23-.18.61-.63.52-1,.47a16.12,16.12,0,0,1-6.41-1.84,1,1,0,0,0-1.21-.14c-5.31,2.92-10.73,5.62-16.3,8.39,3.7,3,8,3.71,12.7,4.28a7.18,7.18,0,0,1-4.74,0,21.29,21.29,0,0,1-7.68-3.14,2.15,2.15,0,0,0-2.45-.17q-6.69,3.13-13.4,6.22c-.85.4-1.7.81-2.59,1.13-1.4.52-.95.93-.05,1.57a22.35,22.35,0,0,0,7.72,3.44c1.72.43,3.48.73,5.62,1.16-1.66.81-2.92-.15-4.16.07a8.65,8.65,0,0,0-2.64-.64c-2.81-.73-5.56-1.61-7.78-3.61a1.7,1.7,0,0,0-1.95-.16c-2.22.87-4.37,1.94-6.61,2.77-.93.35-1.08.77-.23,1.43C473.35,371.66,473.79,372,473.3,372.5Z" transform="translate(-38.43 -163.77)"/><path class="cls-11" d="M127.1,605.59c2.43-.23,4.89.21,7.32-.24,1.62,1.56,3.73,2.23,5.7,3.16.88.42,2.25.62,2,2s-1.56,1.28-2.64,1.36a80.42,80.42,0,0,1-8.5.34c-4-.12-4.15-.25-4.06-4.24C127,607.18,127,606.38,127.1,605.59Z" transform="translate(-38.43 -163.77)"/><path class="cls-9" d="M108.57,612.51a17.27,17.27,0,0,0,7,2.39c.37,1.77,1.53,3.09,2.56,4.48.59.79,1.18,1.59,1.73,2.41a1.18,1.18,0,0,1,.11,1.52,1.44,1.44,0,0,1-1.75.47c-3.8-1.71-7.73-3.17-11-5.79a1.54,1.54,0,0,1-.39-2.4C107.43,614.6,108,613.54,108.57,612.51Z" transform="translate(-38.43 -163.77)"/><path class="cls-30" d="M445.54,538.44V518.88a72.91,72.91,0,0,0,7.73,9.31l-7.14,9.6C446,538,445.74,538.22,445.54,538.44Z" transform="translate(-38.43 -163.77)"/><path class="cls-24" d="M536.55,392c.19,0,.46,0,.55.15,1.18,1.65,2.35,1.16,3.9.35a12.26,12.26,0,0,1,12.79.57c.41.25,1,.44,1,1s-.7.66-1.13.85a16.11,16.11,0,0,1-12.22.31c-.19-.07-.36-.18-.57,0,0,.79,1.13.79,1.09,1.6l0,0a23.23,23.23,0,0,1-5.39-4.79Z" transform="translate(-38.43 -163.77)"/><path class="cls-3" d="M530.28,387.2a14.61,14.61,0,0,1-4.49-3l0,0a2.06,2.06,0,0,0,1.72-.68,12.88,12.88,0,0,1,14.12-1.71c1.22.61.49,1-.1,1.41a14.91,14.91,0,0,1-11.25,2.4,2.67,2.67,0,0,0-1.61-.07c.34.77,1.4.81,1.6,1.65Z" transform="translate(-38.43 -163.77)"/><path class="cls-24" d="M536.57,392c-.72.12-1-.82-1.91-.7a11.89,11.89,0,0,1,1.66,6.7,14.26,14.26,0,0,1-1.58,5.72c-.51,1.05-1,1.06-1.57,0A15.59,15.59,0,0,1,532,392c.71-2.53.79-2.51-1.16-4.1-.24-.18-.51-.33-.54-.67l0,0c1.06.08,1.7.91,2.44,1.49,1.33,1,2.85,1.88,3.86,3.3Z" transform="translate(-38.43 -163.77)"/><path class="cls-31" d="M318.28,218.27c-2.92-.33-5.73-1.18-8.59-1.78-3.88-.8-7.75-1.66-11.63-2.51a7.76,7.76,0,0,1-1.1-.42,11.46,11.46,0,0,1,5.79-1.18,24.71,24.71,0,0,1,14.72,5A6,6,0,0,1,318.28,218.27Z" transform="translate(-38.43 -163.77)"/><path class="cls-32" d="M268.09,219.26l-.06.14c-.36.75-.55,1.78-1.15,2.17s-1.34-.57-2.09-.75c-.48-.12-1-.32-1.44,0s-.13.9,0,1.36c.57,2.28.58,2.28-1.79,3.12a12.75,12.75,0,0,1-1.13-1.55,4.6,4.6,0,0,1,.84-5.49,4.52,4.52,0,0,1,5.27-.1C267.07,218.47,267.57,218.88,268.09,219.26Z" transform="translate(-38.43 -163.77)"/><path class="cls-33" d="M274.51,236.84a53.5,53.5,0,0,1,6.29,15.36,36.76,36.76,0,0,0-7-8.61c-.38-.32-.73-.67-1.09-1A58,58,0,0,1,274.51,236.84Z" transform="translate(-38.43 -163.77)"/><path class="cls-34" d="M136.22,538.14c-.24-1.6.28-3.15.28-4.73a16.61,16.61,0,0,0,7.11,2.27,2.5,2.5,0,0,1,2.29,1.8c-1.27-.44-2.74,0-3.89-1.18-.55-.53-1.45-.15-1.83.68s.38,1,.94,1.32l5.11,2.45a2.71,2.71,0,0,1-4.19.36,6.54,6.54,0,0,0-4-2.36A2.66,2.66,0,0,1,136.22,538.14Z" transform="translate(-38.43 -163.77)"/><path class="cls-35" d="M439.81,610.91l1.83-4.49q1.29,3.24,2.59,6.48c.34.85.38,1.46-.75,1.79s-1.74.56-2.2-.77C440.92,612.87,440.84,611.64,439.81,610.91Z" transform="translate(-38.43 -163.77)"/><path class="cls-36" d="M128,510c-.28-.47-.94-.93.15-1.28a4.39,4.39,0,0,0,2.48-2.6,12,12,0,0,0,2.71,5.82,4.92,4.92,0,0,1,1.34,2.91,33.23,33.23,0,0,1-5.43-3.83C128.84,510.71,128.43,510.36,128,510Z" transform="translate(-38.43 -163.77)"/><path class="cls-37" d="M223.53,582.9c-.13,1-.55,1.8,0,2.7a1,1,0,0,1-.36,1.19,1.12,1.12,0,0,1-1.39.11,1.66,1.66,0,0,0-1.74-.22c-.94.37-1.12-.2-.93-1C219.6,583.51,221,582.62,223.53,582.9Z" transform="translate(-38.43 -163.77)"/><path class="cls-38" d="M226.86,586.91c.84,2.1,2.25,2.74,4.19,2.32-1,2-1.71,2.47-3.63,2-.67-.17-1.51.69-1.9-.17s.32-1.69.6-2.52C226.26,588.09,226.49,587.7,226.86,586.91Z" transform="translate(-38.43 -163.77)"/><path class="cls-3" d="M525.79,384.2A2.19,2.19,0,0,1,524,383l0,0a2.22,2.22,0,0,1,1.81,1.2Z" transform="translate(-38.43 -163.77)"/><path class="cls-2" d="M351.45,577.45a70.87,70.87,0,0,0-5.38,7.71c-.62,1.08-1.83,1.29-2.79,1.85-.53.32-.92.09-.94-.62a13.83,13.83,0,0,0-.11-2.95c-.44-4.35-.54-8.73-1.47-13a29.48,29.48,0,0,0-3.41-9.18c.17-.29.27-.71.52-.87,2.53-1.58,3.51-4.16,4.2-6.81.64-2.43,2-4.7,1.9-7.32a18.81,18.81,0,0,0-6.59-13.69c-4.28-3.81-9.38-6.29-14.39-8.93-2.11-1.1-4.3-2-6.41-3.15-3.49-1.84-5.89-4.84-8.16-8-1.55-2.12-3-4.31-4.44-6.53a11.3,11.3,0,0,1-1.29-4.41,50,50,0,0,1-.6-11c.18-2.5.21-5.06,1.5-7.37a25.19,25.19,0,0,1,2.76-3.32,66.11,66.11,0,0,0,5-7.55c1.17-1.95,2.69-3.68,3.53-5.86s1.74-4,.49-6.24a4.74,4.74,0,0,1-.43-2.32c0-2.74-.08-5.46.13-8.21a5.57,5.57,0,0,1,2.77-4.32,12.27,12.27,0,0,1,7.64-2.52,46.12,46.12,0,0,0,6.8-.7,10.25,10.25,0,0,1,6.19,1c5.4,2.75,10.7,5.74,16.57,7.44,2.76.8,5.69.83,8.4,1.91a34.66,34.66,0,0,0,5.77,1.95,6.54,6.54,0,0,0,4.33-.62c2.65-1.27,5.2-.89,7.75.23,3.6,1.58,5.74,4.65,7.88,7.73a41.69,41.69,0,0,0,13.67,12.88,14.6,14.6,0,0,1,4.68,4.54,5.09,5.09,0,0,0,3.18,2,58.87,58.87,0,0,1,13,4.3,9.16,9.16,0,0,1,4.2,3.46c1.11,1.94.31,3.77-.62,5.5-1.13,2.11-2.83,3.83-4.23,5.75a127.88,127.88,0,0,0-8.83,13.27,10.47,10.47,0,0,0,.54,11.79c1,1.41.61,3.14.44,4.67a11.91,11.91,0,0,1-2.66,6.68c-5,3.56-9.87,7.2-11.77,13.53a6.24,6.24,0,0,1-4,4.05c-4.73,1.67-9.35,3.63-14,5.49a106.21,106.21,0,0,1-17.32,4.83c-3.6.77-7.17,1.88-9.83,4.66A18,18,0,0,0,351.45,577.45Z" transform="translate(-38.43 -163.77)"/><path class="cls-4" d="M344.61,208.07c2.37.84,4.51,2.18,6.81,3.18,3.92,1.71,7.81,3.56,12,4.54a19.64,19.64,0,0,0,5.78,0c.69.45.65,1.18.68,1.87a64.88,64.88,0,0,1-2.31,19.94,12.61,12.61,0,0,1-2.25,4.66c-1.66,1.77-3.43,3.44-4.95,5.35a5.35,5.35,0,0,0-1.1,5.42,30.14,30.14,0,0,0,7.81,11.53.86.86,0,0,1,.54.73,52.33,52.33,0,0,0,1.47,5.63c-5.77-1.85-11.52-3.76-17.43-5.12-1.35-.31-2.69-.68-4-1-.49-1.63.25-3.15.51-4.69,1.32-8.06,2.72-16.1,4.1-24.15.9-5.23,1.9-10.46,2.57-15-1.7,9.47-3.4,19.72-5.21,29.95-.7,4-1.3,8-2,11.91-.12.66,0,1.45-.87,1.77-5.94-1.12-11.91-2.08-17.92-2.76-1.46-2-2.56-4.25-3.85-6.37-2.57-4.27-5.45-8.33-8.43-12.32a159.6,159.6,0,0,1,10.55,16.09c.43.73,1.18,1.42.79,2.43-3.71-.19-7.43-.46-11.15-.56a61.47,61.47,0,0,0-8-.08,11.06,11.06,0,0,1-3.88-2.16,47.85,47.85,0,0,1-4-3.14c-.52-.44-1.1-.9-1-1.72.69-1.87,1.86-3.5,2.59-5.37A27.35,27.35,0,0,0,304,237.5c-.08-1.95-.4-2.08-2.34-1.65a31.51,31.51,0,0,0-7.4,2.74c-.72.37-1.52.94-2.29,0a2.1,2.1,0,0,1-.21-1,104.22,104.22,0,0,1,0-16,2.85,2.85,0,0,1,.09-.77,9.23,9.23,0,0,0,.54-2.85,1.46,1.46,0,0,1,.52-1.1c.91-.53,1.76-.05,2.62.19l18,6.29c3.24,1.13,6.49,2.26,9.72,3.41.92.33,1.91.55,2.43,1.56.37.74,1.16.36,1.77.48,1.28.83,1.66,2.27,2.36,3.5a13.23,13.23,0,0,0,.76,1.5c.11-1.27.08-2.55.11-3.82,0-.68-.14-1.4.39-2a23.89,23.89,0,0,0,9.5-5.75c1.29-1.3,1.39-2.9,1.4-4.52a2.51,2.51,0,0,1,.16-1.41A21.88,21.88,0,0,0,344.61,208.07Z" transform="translate(-38.43 -163.77)"/><path class="cls-10" d="M450.64,482.68c-6.68,1.37-13.27.42-19.86-.68-.49-.08-1-.12-1.48-.18,0,0-.07-.08-.12-.09-2.76-.61-2.74-.61-2.82-3.57a163.06,163.06,0,0,1,1.11-21.31,3.94,3.94,0,0,1,0-.6c.87-2.92-.22-4.66-2.91-6.07a26.83,26.83,0,0,1-6.28-5.26c-.73-.74-1.31-1.39-.49-2.41.18-.22,0-.47-.1-.7a50.85,50.85,0,0,1,4.34-5.16c.37-.39.7-.85,1.28-.94.92-.66,1.53-.35,2.36.38a18.61,18.61,0,0,0,10.83,5,1.31,1.31,0,0,1,1-.15,10.26,10.26,0,0,0,6.23-1.07c.75-.23,1.46-.9,2.31-.26,2.61.11,4.53,1.69,6.46,3.16s3.86,3.28,5.86,4.83a2.42,2.42,0,0,1,.95,3.09c-.37,1.84-1.81,3-2.88,4.35a4.67,4.67,0,0,1-2,1.72c-1,.61-1.26-.45-2.05-.91,0,.89,0,1.64,0,2.39q.58,10,1.19,20.08v.15C453.91,481.89,453.91,481.89,450.64,482.68Z" transform="translate(-38.43 -163.77)"/><path class="cls-6" d="M345.78,400.23c-.19,1.84-.28,4.19-.68,6.48a12.93,12.93,0,0,1-4.12,7,18.17,18.17,0,0,0-4.77,6.89,2.71,2.71,0,0,1-1.69,1.74,5.66,5.66,0,0,0-2.51,2.28c-2.06,2.9-2.87,2.79-6.26,1.27-4-1.79-8-3.5-12.39-3.94-1.57-.15-2-1.07-1.3-2.53a11.69,11.69,0,0,1,2.71-3.72,8.06,8.06,0,0,0,2.6-5.83,6.89,6.89,0,0,1,2.19-5.22c2.94-2.49,4.17-5.86,5.2-9.42a8.37,8.37,0,0,1,4.44-5.37,6.17,6.17,0,0,1,7.72,1.77,6.37,6.37,0,0,0,2.71,1.8c.73.3,1.51.49,2.26.75C345.47,395.37,345.8,395.85,345.78,400.23Z" transform="translate(-38.43 -163.77)"/><path class="cls-3" d="M292.19,238.66c1.6.35,2.64-.9,3.9-1.45a46.18,46.18,0,0,1,6.75-2.09c.77-.2,1.25,0,1.39,1a27.49,27.49,0,0,1-.5,9.44,29.86,29.86,0,0,1-3.8,8.76,19,19,0,0,1-8,7.68c-2.37,1-4.68,2.23-7.27,2.57-1.16.15-2.33.56-3.51.13-.26-.9-.08-1.95-.92-2.65.12-.4-.17-.78,0-1.18.87-.21.63-.92.61-1.46a15.05,15.05,0,0,1,.91-6.1l.57-2.1A36.5,36.5,0,0,1,289.77,241,24.73,24.73,0,0,1,292.19,238.66Z" transform="translate(-38.43 -163.77)"/><path class="cls-39" d="M300,596.78l-3.32-2.71c-2.23-4-4.52-8-6.67-12.12a121,121,0,0,1-7.46-16.41c-.94-2.72-2.28-3.43-4.88-3.86-3.94-.65-6.6-3.46-8.65-6.79-.47-.76.05-1.13.77-1.14a7.4,7.4,0,0,0,2.05-.35c1-.59,2-.1,2.91.05,1.19.19,1.54-.22,1.47-1.32a6.76,6.76,0,0,1,.72-3.77,1.2,1.2,0,0,1,2-.51,10.87,10.87,0,0,1,2.76,2.9c.5.68.92.75,1.58.19a28.94,28.94,0,0,1,2.44-2c.24.63.56.42,1,.17,2.14-1.2,2.32-1.13,2.19,1.25a14.55,14.55,0,0,1-4.67,10.17,1.56,1.56,0,0,0-.44,2.06,213.08,213.08,0,0,0,9.62,20.68c1.85,3.46,3.82,6.86,5.74,10.28,0,0,.18,0,.27,0C299.64,594.66,300.55,595.58,300,596.78Z" transform="translate(-38.43 -163.77)"/><path class="cls-40" d="M423.36,435.71c-1.58,2-3.53,3.71-4.95,5.87-.1.16-.44.16-.67.23-5.32-4.44-9.09-10.1-12.52-16-2.07-3.58-3.73-7.36-5.55-11.06a5.57,5.57,0,0,1-1.28-2.65,19.05,19.05,0,0,0-2.3-4.49c-.44-.66-1.31-1.75.52-2,.42-.05.07-.28,0-.37a1.36,1.36,0,0,1,0-1.15c1-.23,1.27.8,2,1.14.08-.58-.37-1.14,0-1.86,1.42.86,1.95,2.27,2.55,3.65.19.44.07,1.28,1.08.67.64-.39.8.34.58.72-1.69,2.86.25,4.7,1.76,6.73,5.12,6.88,10.49,13.53,17.07,19.11C422.24,434.73,422.8,435.22,423.36,435.71Z" transform="translate(-38.43 -163.77)"/><path class="cls-12" d="M446.09,439.6,444,440a5.22,5.22,0,0,1,1.19-6c.86-.82.86-1.3-.13-1.78a2.25,2.25,0,0,1-1.33-1.69c-.35-2.06-1.86-3.33-3.15-4.74-.71-.76-1.51-1.45-2.22-2.21a2.38,2.38,0,0,1-.87-1.67c-.09-.34-.2-.67-.27-1-.68-3.1.66-4.48,3.78-3.89a4.31,4.31,0,0,0,2.88-.28c1.68-.81,4.57.81,5.9,3a13,13,0,0,1,1.64,5.07,1.89,1.89,0,0,0,1,1.52c2,1.31,2.33,2.44,1.54,4.65a9.74,9.74,0,0,1-4.83,5.25,1.65,1.65,0,0,0-1,1.15A3.05,3.05,0,0,1,446.09,439.6Z" transform="translate(-38.43 -163.77)"/><path class="cls-15" d="M352.19,423.76c-.55,0-1.21.09-1.57-.32-1.32-1.51-3-1.18-4.7-1.2-.77,0-1.77.26-2.13-.63s.38-1.59.88-2.26a35.7,35.7,0,0,1,6.91-6.54c.77-.59,1.19-1.44,1.92-2.05,2-1.65,3.44-1.46,4.72.75a11.82,11.82,0,0,0,2.73,2.95c.83.71,1.77.3,2.61-.25a1.55,1.55,0,0,1,2.56,1.13,3,3,0,0,1-.29,2.18,5.54,5.54,0,0,0-.61,1c-1.13,3.28-3.71,4-6.78,4C356.28,422.47,354.35,423.73,352.19,423.76Z" transform="translate(-38.43 -163.77)"/><path class="cls-20" d="M437.5,421.91c1.11,1.47,2.57,2.64,3.76,4,1.05,1.21,2.66,2.15,2.76,4.12a1.74,1.74,0,0,0,1.63,1.92.94.94,0,0,1,.34,1.78c-2.74,1.52-1.8,4.06-2,6.3a8.71,8.71,0,0,1-7.46,1c-.1-1.47-.4-2.58-2.05-3.33-2.83-1.29-3.77-4.7-2.52-8A19.45,19.45,0,0,1,437.5,421.91Z" transform="translate(-38.43 -163.77)"/><path class="cls-41" d="M140.31,445.31l-17,3.17c-5.09.95-10.18,1.91-15.27,2.83a4.81,4.81,0,0,0-3.1,1.58c-2.85,3.41-5.75,6.77-7.41,11-.2.49-.46.79-1,.62s-.42-.68-.27-1.1c1.32-3.56,3.62-6.51,6-9.42.16-.19.34-.37.49-.56s.5-.43.33-.76-.53-.22-.81-.16l-8.67,1.61-31.12,5.84c-.53.1-1.31.48-1.45-.45s.8-.77,1.29-.86c7.72-1.48,15.46-2.92,23.19-4.37a2.52,2.52,0,0,0,1.6-.62c-1.87-.61-3.6-1.14-5.3-1.75q-4.35-1.58-8.67-3.26c-.49-.19-1.38-.29-1-1.16s1-.29,1.54-.08a93.57,93.57,0,0,0,16.16,5.34,12.8,12.8,0,0,0,5-.24q14.48-2.69,28.93-5.42a1.14,1.14,0,0,0,.88-.45c0-.39-.33-.48-.58-.6a41.7,41.7,0,0,1-10.66-7.63c-.35-.34-1.27-.59-.58-1.36s1,0,1.46.38a42,42,0,0,0,12.07,8.14,5.2,5.2,0,0,0,3.06.41q5.42-1.05,10.85-2.06Z" transform="translate(-38.43 -163.77)"/><path class="cls-40" d="M454.5,456.75a59,59,0,0,0,4.86-6.07,13.22,13.22,0,0,1,4.55,4c.51.62.81.69,1.38.13a69.12,69.12,0,0,0,7.61-8.62c1-1.31,1.1-3.06,1.29-4.7.06-.47.09-.95.14-1.43.82,0,.64.75,1.07,1,.81-.45,1-1.64,1.94-1.9.49.39-.16.85.13,1.24.46-.09.63-.67,1.23-.6.09.47-.45,1.31.71,1.32.32,0,0,.72-.11,1.06a8.91,8.91,0,0,1-2.87,3.58,7.49,7.49,0,0,0-2.22,3.08c-1.9,4.38-3.78,8.8-7.4,12.14a14.76,14.76,0,0,1-3.37,2.45,2.52,2.52,0,0,1-3.14-.49A60.82,60.82,0,0,1,454.5,456.75Z" transform="translate(-38.43 -163.77)"/><path class="cls-42" d="M474.72,483.55l28,4.79c1.87.32,3.74.6,5.61.92a1.85,1.85,0,0,0,1.29-.21c4-2.17,8-4.31,11.1-7.73.32-.35.61-.94,1.2-.47s.17,1-.2,1.37a35,35,0,0,1-8.8,6.63c-.3.17-.61.34-.9.53-.06.05-.08.17-.21.43,1.83.34,3.6.68,5.38,1l24.16,4.1q5.24.89,10.45,1.82c.47.08,1.29-.13,1.09.79s-.87.54-1.37.46c-3.83-.63-7.66-1.3-11.49-2l-12.86-2.18c.23,1,1.12,1.23,1.71,1.7,3.18,2.5,6.26,5.1,9.19,7.89.36.34,1.23.6.54,1.38s-1.05,0-1.44-.37c-3.06-2.86-6.31-5.49-9.55-8.14s-6.82-3.69-10.79-4.28c-6.84-1-13.65-2.29-20.47-3.44-2-.34-4-.65-6.13-1,.09,1,.8,1.39,1.25,1.91a46.53,46.53,0,0,1,6.32,9.75c.21.41.68.87,0,1.26s-.95-.24-1.18-.7a65.36,65.36,0,0,0-5-8.12,12.57,12.57,0,0,0-9.81-5.66,74.32,74.32,0,0,1-7.37-1.18C474.46,484.42,474.59,484,474.72,483.55Z" transform="translate(-38.43 -163.77)"/><path class="cls-43" d="M162.23,347.47c-6.81-2.68-13.7-5.16-20.67-7.38a1.73,1.73,0,0,0-1.68.33,35.06,35.06,0,0,1-4.64,2,73.35,73.35,0,0,0-11,5.64c-.48.31-.94.73-1.38,0s.19-1,.63-1.28a68.35,68.35,0,0,1,9.78-5.11c1.73-.76,3.47-1.48,5.64-2.41-2.33-.67-4.24-1.28-6.18-1.78a91.1,91.1,0,0,0-8.93-1.81c-.45-.06-1.09.11-.93-.75s.63-.67,1.24-.59a98.14,98.14,0,0,1,16.83,4c3.6,1.13,7.18,2.33,11,3.57-.89-2.88-1.73-5.55-2.52-8.24a37.85,37.85,0,0,1-.88-3.79c-.08-.49-.43-1.27.57-1.38.85-.1.78.54.87,1.07a91.33,91.33,0,0,0,3.43,11.9,2.42,2.42,0,0,0,1.67,1.7c2.67.95,5.31,2,8,3Z" transform="translate(-38.43 -163.77)"/><path class="cls-9" d="M396.65,404.09c0,.88.76,1.46.89,2.27-.31.19-.41,0-.53-.15-.3-.27-.64-.64-1-.33s-.09.73.15,1.05a24.86,24.86,0,0,1,3.54,7.79,4.16,4.16,0,0,1-3.05.94A2.35,2.35,0,0,0,394,417.6a3.72,3.72,0,0,1-.34.83c-1,2.13-1.46,2.17-2.8.32-.88-1.21-1.76-2.41-2.69-3.58-.56-.69-.65-1.25.25-1.65a2.41,2.41,0,0,0,1.41-2.81,1.51,1.51,0,0,1,0-.3c-.06-3.68-.42-4.23,3.8-4.88A5.16,5.16,0,0,0,396.65,404.09Z" transform="translate(-38.43 -163.77)"/><path class="cls-28" d="M381.35,305.75c2.3-1,4.78-1.53,7-2.75,1.81,1.18,2.34,3.19,3.21,5,.19.38-.3.68-.58,1a16.25,16.25,0,0,1-4.53,3.09c-2.54,1.26-5.13,2.39-7.69,3.6a1.84,1.84,0,0,1-2.33-.22c-.79-.84-.17-1.61.29-2.28.87-1.27,1.84-2.47,2.76-3.69A10.75,10.75,0,0,0,381.35,305.75Z" transform="translate(-38.43 -163.77)"/><path class="cls-22" d="M285.67,549c-.53,1.52-2.16,1.94-3.1,3.06-.37.43-.62-.28-.82-.56a20.66,20.66,0,0,0-2.85-3.21c-1-.88-1.37-.49-1.79.51a9.43,9.43,0,0,0-.59,4.09c0,1-.32,1.29-1.31,1.06s-2.25-.37-3.38-.54a10.31,10.31,0,0,1,.06-6.17c1.58-4.71,6.87-6.07,10.78-2.8A10.44,10.44,0,0,1,285.67,549Z" transform="translate(-38.43 -163.77)"/><path class="cls-44" d="M471.26,373.21c4.14,3.2,8.28,6.38,12.4,9.61.67.52,1.17.22,1.77,0a25.35,25.35,0,0,1,13.46-1.5c-.47.62-.91.4-1.32.37a26,26,0,0,0-11,1.26c-.5.18-1.23.27-1.33.82s.63.68,1,1c4.26,3.29,8.56,6.52,12.79,9.84a2.09,2.09,0,0,0,2.42.32,16.52,16.52,0,0,1,7.34-1,.93.93,0,0,1,1,.53,21.24,21.24,0,0,0-7.13.59,5.4,5.4,0,0,0-.57.18c-.35.16-.89.29-1,.56-.17.44.41.62.7.84,3.24,2.5,6.49,5,9.74,7.45.7.53,1.37,1.1,2.06,1.65l-.29.38-7.43-5.63c-.55,2.21.2,4.17.51,6.17a7.19,7.19,0,0,1-1.2-4.71,3.32,3.32,0,0,0-1.64-3.31c-3.27-2.36-6.43-4.87-9.65-7.3-.34-.26-.66-.84-1.1-.64s-.45.93-.48,1.46a22.73,22.73,0,0,0,1.29,7.92,3.3,3.3,0,0,1,.22,1.14,5.9,5.9,0,0,1-1.4-3.33c-.48-2.28-1-4.59-.44-6.95a1.45,1.45,0,0,0-.7-1.63c-3.93-3-7.85-6-11.74-9-1-.8-1.23-.34-1.31.64a23.75,23.75,0,0,0,1.17,9.13,9,9,0,0,1,.49,2.13,14.49,14.49,0,0,1-1.95-5.91,16,16,0,0,1-.06-6.24,1.13,1.13,0,0,0-.43-1.31c-2.21-1.61-4.4-3.27-6.59-4.9C470.65,373.36,470.84,373.19,471.26,373.21Z" transform="translate(-38.43 -163.77)"/><path class="cls-45" d="M291.9,262a37.74,37.74,0,0,0,8-7.68,52.57,52.57,0,0,0,8.73,6.7C303.05,261.07,297.48,261.56,291.9,262Z" transform="translate(-38.43 -163.77)"/><path class="cls-46" d="M346.7,264.6a64.52,64.52,0,0,0,1.67-8.48c1.06-5.63,1.92-11.29,2.88-16.93q1.61-9.49,3.23-19a1.23,1.23,0,0,1,.08-.44c.2-.35,0-1.1.64-1s.26.74.19,1.13q-3,17.45-6,34.88c-.57,3.33-1.18,6.65-1.78,10Z" transform="translate(-38.43 -163.77)"/><path class="cls-47" d="M147.41,381.79a24.22,24.22,0,0,0-6.23,2,87,87,0,0,0-11.34,5.37c-.51.29-1.13.94-1.6,0s.49-1,.91-1.23a89.32,89.32,0,0,1,17.66-7.61c.37-.11.75-.38,1.12,0Z" transform="translate(-38.43 -163.77)"/><path class="cls-48" d="M184.82,316.6a50.92,50.92,0,0,1-9.48-15.39c-.17-.43-.39-.86.25-1.09a.68.68,0,0,1,1,.47c2.06,5.58,5.58,10.29,9.07,15Z" transform="translate(-38.43 -163.77)"/><path class="cls-49" d="M327.84,261.67a106.14,106.14,0,0,0-7.77-12.84c-1.23-1.86-2.6-3.63-3.88-5.46-.19-.28-.81-.58-.4-1s.74.12,1,.48A144.7,144.7,0,0,1,325,254.94c1.15,1.86,2.2,3.78,3.31,5.66a2.28,2.28,0,0,1,.44,1.24C328.44,262,328.15,261.78,327.84,261.67Z" transform="translate(-38.43 -163.77)"/><path class="cls-50" d="M386.84,283.24c-.42,0-.59-.18-.64-.61-.61-4.93-1.35-9.84-2.33-14.71-.06-.31-.25-.77.26-.86s.5.36.56.69c.88,5.09,1.79,10.17,2.38,15.31Z" transform="translate(-38.43 -163.77)"/><path class="cls-51" d="M382.55,403.36a4.84,4.84,0,0,0-2.43-2.2,5.63,5.63,0,0,0,2.07-2.47,5.08,5.08,0,0,0,2.53,2.08A5.23,5.23,0,0,0,382.55,403.36Z" transform="translate(-38.43 -163.77)"/><path class="cls-52" d="M408.07,408.44c.14-1-2-1.05-.43-2.36,1.19-1,1.05.84,1.84.6A9.09,9.09,0,0,0,408.07,408.44Z" transform="translate(-38.43 -163.77)"/><path class="cls-53" d="M379.94,423.68c.74-1.39,1.54-1.62,2.46-.26l-1.14,1.42A3.94,3.94,0,0,0,379.94,423.68Z" transform="translate(-38.43 -163.77)"/><path class="cls-54" d="M375.6,388.87c1.5.65,1.45,1.51.25,2.46C374.45,390.63,374.43,389.78,375.6,388.87Z" transform="translate(-38.43 -163.77)"/><path class="cls-54" d="M412.33,396.05c-.07-.82-1.85-.88-.53-2.14s1.13.85,2.08.39Z" transform="translate(-38.43 -163.77)"/><path class="cls-7" d="M419,540.11a2.13,2.13,0,0,1-1.1,1.11c-.36.15-.47-.25-.5-.54-.07-.65.4-.85.89-1A.56.56,0,0,1,419,540.11Z" transform="translate(-38.43 -163.77)"/><path class="cls-55" d="M204.7,250.37a13.23,13.23,0,0,1,1.29,5.18,3.53,3.53,0,0,0,2.94,3.4c1.78.37,2.4,1.81,3.26,3.07.38.58.12.8-.46.88-.84.11-1.68.24-2.52.38-.62.1-1,.33-.74,1.1a69.81,69.81,0,0,0,12.45,21.81,2,2,0,0,0,.22.19,2.21,2.21,0,0,1-1.18.78c-4.38-6.78-8.84-13.5-13.11-20.35a550.66,550.66,0,0,1-27.58-49.46c-4.49-9.18-8.67-18.49-12.34-28a3.6,3.6,0,0,1-.29-1.44c2.29,4,4.56,8,6.87,12,9.82,17,20.21,33.65,30.91,50.11C204.5,250.15,204.61,250.26,204.7,250.37Z" transform="translate(-38.43 -163.77)"/><path class="cls-55" d="M226.29,283.38a94.72,94.72,0,0,1-1.11-9.94,381.71,381.71,0,0,1-1.62-40.16,148.47,148.47,0,0,1,1.19-19.76c.31,5,.58,10,.95,15,.63,8.64,1.31,17.28,2.26,25.9.77,7,1.46,14,2.2,20.94.19,1.83.43,3.65.65,5.48A34.86,34.86,0,0,1,226.29,283.38Z" transform="translate(-38.43 -163.77)"/><path class="cls-43" d="M451.5,333.69a129.56,129.56,0,0,1,18.58-10.83,88.07,88.07,0,0,1,22.25-7.23c.53-.1,1.1-.38,1.27.48s-.55.8-1,.89c-14.38,2.66-27.18,8.95-39.15,17.15-.41.28-.84.52-1.26.78C451.92,334.53,451.52,334.21,451.5,333.69Z" transform="translate(-38.43 -163.77)"/><path class="cls-56" d="M454.53,327.32l-3.06,3.22c-.36-.72.24-1.17.52-1.69A169.16,169.16,0,0,0,466.29,292a117.71,117.71,0,0,0,3.8-25.52c0-.55-.19-1.37.73-1.35s.73.91.71,1.49a117.36,117.36,0,0,1-3,22.47,167.65,167.65,0,0,1-13.71,37.51A5.27,5.27,0,0,0,454.53,327.32Z" transform="translate(-38.43 -163.77)"/><path class="cls-57" d="M505.72,380.31l-3.3-3c.7-.89,1.86-.81,2.76-1.26a.33.33,0,0,1,.5.34C505.47,377.71,506.29,379,505.72,380.31Z" transform="translate(-38.43 -163.77)"/><path class="cls-58" d="M437.41,555.94a10.73,10.73,0,0,1-4.25,3.29c-2.2-.25-4.42.23-6.61-.27l9.36-9.06c.21,1.57.41,3.15.63,4.72C436.62,555.19,436.58,555.86,437.41,555.94Z" transform="translate(-38.43 -163.77)"/><path class="cls-59" d="M367.67,594.1a35.32,35.32,0,0,1-3.58,3,4.09,4.09,0,0,1,.66-2.09Z" transform="translate(-38.43 -163.77)"/><path class="cls-60" d="M365.32,242.26c3.43-7.58,4.2-15.62,4.11-23.81a9.52,9.52,0,0,0-.23-2.66c1.7-1,3.72-1.6,5.07-3.21a2,2,0,0,0,2.55.1c1.19-.71,2.5-1.22,3.71-1.89.73-.41,1.06-.35,1.16.54.69,6,.82,12-2.37,17.54-.33.58,0,.91.06,1.36C374.54,234.05,369.89,238.12,365.32,242.26Z" transform="translate(-38.43 -163.77)"/><path class="cls-61" d="M367.62,265.29a.84.84,0,0,1-.54-.73c.81-5.4,4.05-9.51,7.31-13.57,1.49-1.86,3.15-3.59,4.79-5.32.39-.42.86-1.44,1.42-.91s-.45,1-.82,1.4c-3.95,4.21-7.76,8.51-10.42,13.72A32.47,32.47,0,0,0,367.62,265.29Z" transform="translate(-38.43 -163.77)"/><path class="cls-60" d="M156.79,579c.56,3,3.16,3.63,5.34,4.7,7.53,3.72,15.07,7.42,22.82,11.23-.63.43-1.11.8-1.63,1.11-7.56,4.62-15.1,9.28-23.13,13a13.79,13.79,0,0,1-5.55,1.61,2.5,2.5,0,0,1-2.93-2.31c-.59-2.71,0-5.38.42-8,1.16-7,2.76-13.85,4.41-20.71C156.6,579.39,156.71,579.17,156.79,579Z" transform="translate(-38.43 -163.77)"/><path class="cls-62" d="M136.22,538.14a7.61,7.61,0,0,1,6.56,3.33c.18.25.55.63.66.43.66-1.13,2.12-.17,2.79-1.15,4.25,1.54,8.29,3.59,12.39,5.49a3.19,3.19,0,0,1,1.72,2.34c.84,4.33,1.62,8.68,2.42,13-.91.46-1.94-.93-2.59.22-.43.75-.58,1.67-1.15,2.54-.33-1.69-.66-3.39-1-5.08s-.6-3.33-.91-5a6.29,6.29,0,0,0-3.75-4.86l-15.49-7A5.24,5.24,0,0,1,136,540C136.08,539.37,136.15,538.75,136.22,538.14Z" transform="translate(-38.43 -163.77)"/><path class="cls-63" d="M445.07,517.15c.26-5.53-.09-10.93.77-16.25.75-4.71,1.74-9.37,2.64-14,.08-.38-.16-1.11.53-1s.28.69.2,1.09c-.83,4.44-1.64,8.89-2.5,13.32-.7,3.59-.54,7.23-.71,10.86-.1,2-.11,4-.2,6,0,.39.3,1.11-.32,1.11S445.14,517.42,445.07,517.15Z" transform="translate(-38.43 -163.77)"/><path class="cls-24" d="M473.3,372.5c.11-.81-.65-.94-1.07-1.27-.69-.55-.68-.94.1-1.27,2.74-1.16,5.5-2.3,8.24-3.45a.66.66,0,0,1,.82.08c2.33,2.22,5.38,3.1,8.21,4.4a41.34,41.34,0,0,0-7.29-.23A28.36,28.36,0,0,0,473.3,372.5Z" transform="translate(-38.43 -163.77)"/><path class="cls-64" d="M132.22,560.91a94.18,94.18,0,0,1-3,21.39c-.08.29-.19.57-.27.86s-.1,1.07-.64.92-.2-.73-.08-1.14a87.88,87.88,0,0,0,3.12-23.15,3.75,3.75,0,0,1,0-.75c.07-.38-.28-1,.44-1s.36.6.38,1C132.24,559.61,132.22,560.26,132.22,560.91Z" transform="translate(-38.43 -163.77)"/><path class="cls-65" d="M342.23,583.44c.51.82.19,1.72.23,2.57s.27,1,1,.5a26.3,26.3,0,0,1,2.58-1.35c-1.22,3.1-2.43,6.21-3.8,9.7-.06-1.22-.09-2-.13-2.82Z" transform="translate(-38.43 -163.77)"/><path class="cls-66" d="M280.16,260.88c.06.39,1.18.75,0,1.18a2.19,2.19,0,0,0-1.9-.63c-1.79.1-3.58.16-5.38.23-.32,0-.79.12-.81-.39s.48-.4.78-.41c1.67,0,3.35,0,5,0l.13-.47c-2.23-1.71-4.3-3.72-6.74-5-1.53-.83-3.62-.08-5.46-.1-.7,0-1.91.44-1.93-.26,0-.89,1.19-.38,1.84-.47,1.26-.18,2.54-.17,4.3-.27-2.5-1.94-4.61-3.65-6.8-5.24-.69-.5-1.65-.15-2.49-.16-1.7,0-3.41,0-5.11,0l0-.52,6-.37a25.72,25.72,0,0,0-3.93-3.26c-1.83-1.47-3.72-2.85-5.56-4.3-.28-.21-.85-.45-.5-.9s.7.09,1,.3c2.38,1.79,4.74,3.6,7.29,5.55a31.25,31.25,0,0,0-.88-4.81c-.06-.4-.45-1.05.09-1.17s.53.65.7,1.07c.05.13,0,.3.07.44.58,1.84.31,4.15,1.57,5.52a31.41,31.41,0,0,0,6.78,5c-.32-1.52-.65-3-1-4.58-.08-.4-.52-1,0-1.16.7-.19.61.63.71,1.05.41,1.64.8,3.29,1.15,4.95a2.64,2.64,0,0,0,1.09,1.69c2,1.52,4,3.09,6.39,4.9-.45-1.9-.84-3.4-1.14-4.92-.09-.44-.46-1.18.09-1.33s.55.67.66,1.07a17.91,17.91,0,0,1,.83,3.64C277.2,258.82,278.5,260,280.16,260.88Z" transform="translate(-38.43 -163.77)"/><path class="cls-67" d="M118.73,533.69a22.44,22.44,0,0,1-3.52-1.88c-1-.52-.5-1.22-.12-1.72.57-.76.81.15,1,.42a16.43,16.43,0,0,0,2.61,2.17C118.74,533,118.74,533.35,118.73,533.69Z" transform="translate(-38.43 -163.77)"/><path class="cls-60" d="M335.4,208.64c-3.26.93-6.6.75-9.93.79-.51,0-.65-.23-.7-.73-.29-3.26,1.81-7.52,4.44-8.93,3.13-1.67,8.2-1.26,10.76.88a1,1,0,0,1,.16.24.4.4,0,0,1,0,.42A70,70,0,0,0,335.4,208.64Z" transform="translate(-38.43 -163.77)"/><path class="cls-68" d="M292.19,238.66a4,4,0,0,1-2.42,2.38c.16-1.78-1-3.15-1.53-4.72-1.19-3.67-2-7.35-1.41-11.19a12.66,12.66,0,0,1,1.59-4.16c.61-1.06.64-2.39,1.7-3.25.35-.29-.28-.49-.5-.72-.6-.61-1.54-1-1.58-2,2.15-.59,4.29,0,5.24,1.52a.68.68,0,0,1-.24.61c-.35.23-.27.59-.28.92-.22.88-.39,1.78-.55,2.67l0,.62a73.24,73.24,0,0,0,0,16.48Z" transform="translate(-38.43 -163.77)"/><path class="cls-69" d="M335.4,208.64a23.24,23.24,0,0,1,4.73-7.75,5.13,5.13,0,0,1,2,2.43c-1.84.2-1.16,1.76-1.4,2.75s.47,1.37,1.39,1.46a3.9,3.9,0,0,1,1,.33,27.25,27.25,0,0,1-1.71,6.58c-.4.92-.76.94-1.25.09-.93-1.57-1.94-3.11-2.79-4.72A1.75,1.75,0,0,0,335.4,208.64Z" transform="translate(-38.43 -163.77)"/><path class="cls-70" d="M331.11,228v6.81l-.48.1a61.71,61.71,0,0,0-3.14-6.11Z" transform="translate(-38.43 -163.77)"/><path class="cls-3" d="M293,217.09c.08-.2.16-.41.25-.61a2.61,2.61,0,0,1,2.24.58C294.7,217.21,293.86,216.45,293,217.09Z" transform="translate(-38.43 -163.77)"/><path class="cls-71" d="M206.27,615.86a5.43,5.43,0,0,1-5.53,5.56,5.55,5.55,0,1,1,.15-11.09A5.33,5.33,0,0,1,206.27,615.86Z" transform="translate(-38.43 -163.77)"/><path class="cls-60" d="M440.12,601.62c-1.1-1.23-1.37-2.84-1.94-4.29-3.56-9.1-7.05-18.22-10.56-27.33-.16-.41-.25-.86-.37-1.29l24.57-.06a1.16,1.16,0,0,1,1,.29L440.7,600.25C440.53,600.71,440.31,601.16,440.12,601.62Z" transform="translate(-38.43 -163.77)"/><path class="cls-72" d="M454.65,596.35c-2.64,0-5.28,0-7.92,0-1.1,0-1.28-.31-.87-1.29.67-1.55,1.28-3.14,1.85-4.73a1.49,1.49,0,0,1,1.63-1.17q5.15.08,10.31,0a1.58,1.58,0,0,1,1.74,1.22c.54,1.6,1.16,3.18,1.83,4.73.38.91.25,1.25-.8,1.23C459.83,596.32,457.24,596.35,454.65,596.35Z" transform="translate(-38.43 -163.77)"/><path class="cls-73" d="M454.71,573.06c1.56,4.08,3.11,8.16,4.69,12.23.34.88,0,1-.78,1-2.74,0-5.48,0-8.21,0-.44,0-1.17.18-.84-.71,1.58-4.17,3.19-8.32,4.79-12.49Z" transform="translate(-38.43 -163.77)"/><path class="cls-72" d="M425.37,596.34c-2.6,0-5.19,0-7.78,0-.89,0-1.18-.23-.82-1.12.66-1.66,1.27-3.35,1.9-5a1.54,1.54,0,0,1,1.64-1c3.53,0,7.07,0,10.61,0a1.27,1.27,0,0,1,1.32,1c.64,1.73,1.25,3.47,1.95,5.17.36.88,0,1-.75,1h-8.07Z" transform="translate(-38.43 -163.77)"/><path class="cls-73" d="M425.68,573.25q2.35,6,4.72,12.08c.28.72,0,1-.77,1-2.74,0-5.48,0-8.22,0-.48,0-1.2.05-.9-.74,1.56-4.13,3.16-8.23,4.75-12.33Z" transform="translate(-38.43 -163.77)"/><path class="cls-3" d="M292.16,237.78a13.22,13.22,0,0,1-.5-4.23,73.29,73.29,0,0,1,.26-11.57,3.07,3.07,0,0,1,.24-.68A120.85,120.85,0,0,0,292.16,237.78Z" transform="translate(-38.43 -163.77)"/><path class="cls-3" d="M292.21,220.68a4.52,4.52,0,0,1,.55-2.67A5,5,0,0,1,292.21,220.68Z" transform="translate(-38.43 -163.77)"/><path class="cls-74" d="M200.72,611.11a4.76,4.76,0,1,1-4.71,4.77A4.71,4.71,0,0,1,200.72,611.11Z" transform="translate(-38.43 -163.77)"/></svg>