<svg id="Layer_1" data-name="Layer 1" xmlns="http://www.w3.org/2000/svg" viewBox="0 0 369.3 360.03"><defs><style>.cls-1,.cls-27,.cls-47{fill:#fff;}.cls-16,.cls-2,.cls-23,.cls-24,.cls-3,.cls-4,.cls-6{fill:#4c65ba;}.cls-2{opacity:0.44;}.cls-3{opacity:0.29;}.cls-30,.cls-4{opacity:0.18;}.cls-10,.cls-11,.cls-14,.cls-15,.cls-19,.cls-26,.cls-40,.cls-41,.cls-5{fill:#599af2;}.cls-5,.cls-6,.cls-7{opacity:0.6;}.cls-17,.cls-25,.cls-7,.cls-8,.cls-9{fill:#3e479b;}.cls-9{font-size:30.46px;letter-spacing:0.04em;}.cls-17,.cls-47,.cls-9{font-family:Exo2-Black, Exo2 Black;font-weight:800;}.cls-10,.cls-11,.cls-19{font-family:Exo2-Bold, Exo2 Bold;font-weight:700;}.cls-11{letter-spacing:0.05em;}.cls-12,.cls-30,.cls-31,.cls-32,.cls-44{fill:#373449;}.cls-13,.cls-29{fill:#ecf1f7;}.cls-13{opacity:0.03;}.cls-15,.cls-24{opacity:0.36;}.cls-16,.cls-25,.cls-26,.cls-27{opacity:0.89;}.cls-17{font-size:19.22px;}.cls-17,.cls-20{letter-spacing:0.04em;}.cls-18{letter-spacing:0.05em;}.cls-19{letter-spacing:0.01em;}.cls-21{letter-spacing:0.03em;}.cls-22{letter-spacing:-0.04em;}.cls-28,.cls-35,.cls-38,.cls-39{fill:#ef929c;}.cls-29{opacity:0.06;}.cls-31{opacity:0.32;}.cls-32{opacity:0.42;}.cls-33{fill:#f9dcd2;}.cls-34{opacity:0.13;}.cls-35,.cls-43{opacity:0.37;}.cls-36{fill:#ffaba9;opacity:0.68;}.cls-37{fill:#ff9fa4;}.cls-38,.cls-41{opacity:0.12;}.cls-39{opacity:0.27;}.cls-40{opacity:0.17;}.cls-42{fill:#dbdbdb;}.cls-44{opacity:0.11;}.cls-45{fill:#a8d0fe;}.cls-46{fill:none;stroke:#bddfff;stroke-linecap:round;stroke-linejoin:round;stroke-width:0;}.cls-47{font-size:26.61px;letter-spacing:0.04em;}</style></defs><path class="cls-1" d="M819.58,620.08l-249.17-.3a1.59,1.59,0,0,1-1.59-1.59l.36-295.26a1.58,1.58,0,0,1,1.59-1.59l249.17.3a1.59,1.59,0,0,1,1.59,1.59l-.36,295.26A1.59,1.59,0,0,1,819.58,620.08Z" transform="translate(-559.53 -287.55)"/><path class="cls-2" d="M819.58,620.08l-249.17-.3a1.59,1.59,0,0,1-1.59-1.59l.36-295.26a1.58,1.58,0,0,1,1.59-1.59l249.17.3a1.59,1.59,0,0,1,1.59,1.59l-.36,295.26A1.59,1.59,0,0,1,819.58,620.08Z" transform="translate(-559.53 -287.55)"/><path class="cls-1" d="M815.58,624.08l-249.17-.3a1.59,1.59,0,0,1-1.59-1.59l.36-295.26a1.58,1.58,0,0,1,1.59-1.59l249.17.3a1.59,1.59,0,0,1,1.59,1.59l-.36,295.26A1.59,1.59,0,0,1,815.58,624.08Z" transform="translate(-559.53 -287.55)"/><path class="cls-3" d="M815.58,624.08l-249.17-.3a1.59,1.59,0,0,1-1.59-1.59l.36-295.26a1.58,1.58,0,0,1,1.59-1.59l249.17.3a1.59,1.59,0,0,1,1.59,1.59l-.36,295.26A1.59,1.59,0,0,1,815.58,624.08Z" transform="translate(-559.53 -287.55)"/><path class="cls-1" d="M810.3,624.87l-246.53-.3a1.58,1.58,0,0,1-1.58-1.59l.35-291.55a1.59,1.59,0,0,1,1.59-1.59l246.53.3a1.59,1.59,0,0,1,1.59,1.59l-.36,291.55A1.59,1.59,0,0,1,810.3,624.87Z" transform="translate(-559.53 -287.55)"/><path class="cls-4" d="M810.3,624.87l-246.53-.3a1.58,1.58,0,0,1-1.58-1.59l.35-291.55a1.59,1.59,0,0,1,1.59-1.59l246.53.3a1.59,1.59,0,0,1,1.59,1.59l-.36,291.55A1.59,1.59,0,0,1,810.3,624.87Z" transform="translate(-559.53 -287.55)"/><path class="cls-1" d="M805,626.19l-243.88-.3a1.59,1.59,0,0,1-1.59-1.59l.35-287.58a1.59,1.59,0,0,1,1.59-1.59l243.88.3a1.59,1.59,0,0,1,1.59,1.59l-.35,287.58A1.59,1.59,0,0,1,805,626.19Z" transform="translate(-559.53 -287.55)"/><path class="cls-5" d="M717.39,458.27l-146.71-.18a1,1,0,0,1-1-1l.06-49.52a1,1,0,0,1,1-1l146.7.17a1,1,0,0,1,1,1l-.06,49.52A1,1,0,0,1,717.39,458.27Z" transform="translate(-559.53 -287.55)"/><path class="cls-6" d="M795.46,517.92l-223.15-.27a1.41,1.41,0,0,1-1.42-1.41l.06-48.69a1.43,1.43,0,0,1,1.42-1.42l223.15.27a1.43,1.43,0,0,1,1.42,1.42l-.06,48.69A1.41,1.41,0,0,1,795.46,517.92Z" transform="translate(-559.53 -287.55)"/><rect class="cls-6" x="12.08" y="247.33" width="224.6" height="3.96"/><rect class="cls-6" x="12.08" y="236.76" width="224.6" height="3.96"/><rect class="cls-6" x="12.08" y="257.9" width="191.06" height="3.96"/><rect class="cls-7" x="578.93" y="548.8" width="51.52" height="70.25" rx="1" transform="translate(-539.5 900.36) rotate(-89.93)"/><rect class="cls-6" x="658.1" y="548.9" width="51.52" height="70.25" rx="1" transform="translate(-460.53 979.63) rotate(-89.93)"/><rect class="cls-5" x="736.7" y="549" width="51.52" height="70.25" rx="1" transform="translate(-382.11 1058.33) rotate(-89.93)"/><path class="cls-7" d="M794.55,412.69l-67.91-.08a1.17,1.17,0,0,1-1.17-1.17h0a1.17,1.17,0,0,1,1.17-1.17l67.92.08a1.18,1.18,0,0,1,1.17,1.17h0A1.17,1.17,0,0,1,794.55,412.69Z" transform="translate(-559.53 -287.55)"/><path class="cls-7" d="M794.55,419.72l-67.92-.08a1.18,1.18,0,0,1-1.17-1.18h0a1.18,1.18,0,0,1,1.18-1.17l67.91.09a1.17,1.17,0,0,1,1.17,1.17h0A1.17,1.17,0,0,1,794.55,419.72Z" transform="translate(-559.53 -287.55)"/><path class="cls-7" d="M794.54,426.74l-67.92-.08a1.17,1.17,0,0,1-1.17-1.17h0a1.18,1.18,0,0,1,1.18-1.17l67.91.08a1.17,1.17,0,0,1,1.17,1.17h0A1.17,1.17,0,0,1,794.54,426.74Z" transform="translate(-559.53 -287.55)"/><path class="cls-7" d="M794.53,433.77l-67.91-.08a1.17,1.17,0,0,1-1.17-1.18h0a1.16,1.16,0,0,1,1.17-1.16l67.91.08a1.17,1.17,0,0,1,1.17,1.17h0A1.17,1.17,0,0,1,794.53,433.77Z" transform="translate(-559.53 -287.55)"/><path class="cls-7" d="M794.52,440.79l-67.91-.08a1.17,1.17,0,0,1-1.17-1.17h0a1.17,1.17,0,0,1,1.17-1.17l67.91.08a1.17,1.17,0,0,1,1.17,1.18h0A1.16,1.16,0,0,1,794.52,440.79Z" transform="translate(-559.53 -287.55)"/><path class="cls-7" d="M794.51,447.82l-67.91-.08a1.17,1.17,0,0,1-1.17-1.17h0a1.17,1.17,0,0,1,1.17-1.17l67.91.08a1.17,1.17,0,0,1,1.17,1.17h0A1.17,1.17,0,0,1,794.51,447.82Z" transform="translate(-559.53 -287.55)"/><path class="cls-7" d="M794.5,454.85l-67.91-.09a1.17,1.17,0,0,1-1.17-1.17h0a1.17,1.17,0,0,1,1.17-1.17l67.92.08a1.18,1.18,0,0,1,1.17,1.18h0A1.19,1.19,0,0,1,794.5,454.85Z" transform="translate(-559.53 -287.55)"/><rect class="cls-8" x="654.65" y="307.73" width="4.68" height="174.47" rx="0.83" transform="translate(-298.29 763.93) rotate(-89.93)"/><text class="cls-9" transform="matrix(1, 0, 0, 1, 25.31, 92.26)">WORLD <tspan class="cls-10" x="111.56" y="0">N</tspan><tspan class="cls-11" x="132.82" y="0">E</tspan><tspan class="cls-10" x="149.3" y="0">WS</tspan></text><rect class="cls-8" x="778.24" y="330.71" width="5.85" height="30.44" transform="translate(-125.24 839.13) rotate(-89.93)"/><rect class="cls-8" x="242.61" y="111.44" width="126.7" height="230.75" rx="14.97"/><rect class="cls-12" x="242.61" y="111.44" width="126.7" height="230.75" rx="14.97"/><path class="cls-13" d="M910.66,626.34H819a14.36,14.36,0,0,1-14.18-14.54V416.87A14.36,14.36,0,0,1,819,402.34h91.65a14.35,14.35,0,0,1,14.17,14.53V611.8A14.36,14.36,0,0,1,910.66,626.34Z" transform="translate(-559.53 -287.55)"/><rect class="cls-1" x="249.35" y="117.91" width="113.22" height="218.89" rx="10.12"/><path class="cls-14" d="M921,411.93a4.12,4.12,0,0,0-2-3.6,10.07,10.07,0,0,0-7-2.87H819a10.09,10.09,0,0,0-9,5.43,7.18,7.18,0,0,0-.09,1Z" transform="translate(-559.53 -287.55)"/><path class="cls-1" d="M905.41,409.24a1.08,1.08,0,1,1-1.08-1.08A1.08,1.08,0,0,1,905.41,409.24Z" transform="translate(-559.53 -287.55)"/><path class="cls-1" d="M909.72,409.24a1.08,1.08,0,1,1-1.08-1.08A1.07,1.07,0,0,1,909.72,409.24Z" transform="translate(-559.53 -287.55)"/><path class="cls-1" d="M914,409.24a1.08,1.08,0,1,1-1.07-1.08A1.07,1.07,0,0,1,914,409.24Z" transform="translate(-559.53 -287.55)"/><path class="cls-12" d="M844.46,405.38l6.5,5.51a3.57,3.57,0,0,0,2.53,1h24.72a4,4,0,0,0,3-1.39l5.27-5.16Z" transform="translate(-559.53 -287.55)"/><path class="cls-12" d="M844.46,405.38l6.5,5.51a3.57,3.57,0,0,0,2.53,1h24.72a4,4,0,0,0,3-1.39l5.27-5.16Z" transform="translate(-559.53 -287.55)"/><path class="cls-15" d="M868.41,531.81H822.33c-1,0-1.8-.46-1.8-1V484.9c0-.57.8-1,1.8-1h46.08c1,0,1.79.46,1.79,1v45.88C870.2,531.35,869.4,531.81,868.41,531.81Z" transform="translate(-559.53 -287.55)"/><path class="cls-16" d="M911.05,558.94H819.93a.67.67,0,0,1-.72-.6V542.29a.67.67,0,0,1,.72-.6h91.12a.66.66,0,0,1,.71.6v16.05A.66.66,0,0,1,911.05,558.94Z" transform="translate(-559.53 -287.55)"/><text class="cls-17" transform="matrix(1, 0, 0, 1, 279.69, 152.54)">N<tspan class="cls-18" x="13.41" y="0">E</tspan><tspan x="23.81" y="0">WS </tspan><tspan class="cls-19"><tspan x="-1.68" y="23.06">T</tspan><tspan class="cls-20" x="8.12" y="23.06">O</tspan><tspan class="cls-21" x="22.13" y="23.06">D</tspan><tspan class="cls-22" x="35.43" y="23.06">A</tspan><tspan class="cls-20" x="46.44" y="23.06">Y</tspan></tspan></text><rect class="cls-14" x="258.7" y="182.62" width="94.51" height="2.74"/><rect class="cls-14" x="259.99" y="137.42" width="5.48" height="38.35"/><rect class="cls-23" x="265.47" y="137.42" width="5.48" height="38.35"/><rect class="cls-24" x="313.41" y="199.06" width="39.72" height="3.86"/><rect class="cls-24" x="313.41" y="206.78" width="39.72" height="3.86"/><rect class="cls-24" x="313.41" y="214.5" width="39.72" height="3.86"/><rect class="cls-24" x="259.99" y="279.87" width="58.9" height="3.86"/><rect class="cls-24" x="259.99" y="287.59" width="58.9" height="3.86"/><rect class="cls-24" x="259.99" y="295.31" width="58.9" height="3.86"/><rect class="cls-24" x="313.41" y="222.22" width="39.72" height="3.86"/><rect class="cls-24" x="313.41" y="229.94" width="39.72" height="3.86"/><rect class="cls-24" x="313.41" y="237.66" width="39.72" height="3.86"/><rect class="cls-25" x="825.92" y="588.27" width="15.72" height="28.73" transform="translate(-329.39 1148.14) rotate(-89.93)"/><rect class="cls-16" x="858.3" y="588.31" width="15.72" height="28.73" transform="translate(-297.09 1180.56) rotate(-89.93)"/><rect class="cls-26" x="890.44" y="588.35" width="15.72" height="28.73" transform="translate(-265.04 1212.73) rotate(-89.93)"/><rect class="cls-15" x="321.63" y="279.87" width="30.13" height="19.18"/><path class="cls-27" d="M845.13,524.63a17.23,17.23,0,0,1-17.21-17.21q0-.9.09-1.8l0-.45h15.81a2.44,2.44,0,0,0,2.46-2.36v-.16a2.36,2.36,0,0,0-2.4-2.19h-3.51a1.58,1.58,0,0,1-1.58-1.49,1.53,1.53,0,0,1,.44-1.12,1.51,1.51,0,0,1,1.1-.46h6.67l4,.07a2.35,2.35,0,0,0,1.71-.73,2.33,2.33,0,0,0,.67-1.75,2.44,2.44,0,0,0-2.46-2.3h-15l2.12-1a17.22,17.22,0,0,1,23.88,19.36l-.08.4H844.35a2.52,2.52,0,0,0,0,5h3.89l-.15.62a2.87,2.87,0,0,0-.07.58,2.52,2.52,0,0,0,2.52,2.52h6.18l-1.18.89A17,17,0,0,1,845.13,524.63ZM829,506.17c0,.42,0,.84,0,1.25a16.23,16.23,0,0,0,16.21,16.21,16.06,16.06,0,0,0,8.49-2.4h-3.08a3.53,3.53,0,0,1-3.52-3.52c0-.07,0-.13,0-.2h-2.68a3.52,3.52,0,0,1,0-7h16.7a16.51,16.51,0,0,0,.28-3.06,16.21,16.21,0,0,0-7.05-13.37,3,3,0,0,1,.16.9,3.38,3.38,0,0,1-3.39,3.51l-4-.07h-6.67a.57.57,0,0,0-.39.16.58.58,0,0,0-.15.39.56.56,0,0,0,.58.52h3.51a3.35,3.35,0,0,1,3.39,3.14,1.62,1.62,0,0,1,0,.22,3.43,3.43,0,0,1-3.46,3.35Zm12.27-14.49H849A16.5,16.5,0,0,0,841.23,491.68Z" transform="translate(-559.53 -287.55)"/><path class="cls-27" d="M855.4,521.23h-4.86a3.53,3.53,0,0,1-3.52-3.52c0-.07,0-.13,0-.2h-2.68a3.52,3.52,0,0,1,0-7h17.72l-.13.6a17.2,17.2,0,0,1-6.4,10Zm-11-9.75a2.52,2.52,0,0,0,0,5h3.89l-.15.62a2.87,2.87,0,0,0-.07.58,2.52,2.52,0,0,0,2.52,2.52h4.52a16.23,16.23,0,0,0,5.76-8.75Z" transform="translate(-559.53 -287.55)"/><path class="cls-27" d="M843.87,506.17H828l.06-.55a17.28,17.28,0,0,1,10-13.9l.2,0H851a3.45,3.45,0,0,1,3.46,3.27,3.38,3.38,0,0,1-3.39,3.51l-4-.07h-6.67a.57.57,0,0,0-.39.16.58.58,0,0,0-.15.39.56.56,0,0,0,.58.52h3.51a3.35,3.35,0,0,1,3.39,3.14,1.62,1.62,0,0,1,0,.22A3.43,3.43,0,0,1,843.87,506.17Zm-14.8-1h14.8a2.44,2.44,0,0,0,2.46-2.36v-.16a2.36,2.36,0,0,0-2.4-2.19h-3.51a1.58,1.58,0,0,1-1.58-1.49,1.53,1.53,0,0,1,.44-1.12,1.51,1.51,0,0,1,1.1-.46h6.67l4,.07a2.35,2.35,0,0,0,1.71-.73,2.33,2.33,0,0,0,.67-1.75,2.44,2.44,0,0,0-2.46-2.3H838.37A16.28,16.28,0,0,0,829.07,505.17Z" transform="translate(-559.53 -287.55)"/><path class="cls-12" d="M696.05,461.5a14.85,14.85,0,0,0,4.26-10.42h0a14.91,14.91,0,0,0-8.3-13.35,42,42,0,0,0,.52-6.48h0a42.31,42.31,0,0,0-42.31-42.31h0a42.3,42.3,0,0,0-42.3,42.31h0a43,43,0,0,0,.5,6.55,14.9,14.9,0,0,0-8.17,13.28h0a14.79,14.79,0,0,0,2.89,8.79,39.07,39.07,0,0,0-8.46,24.32h0a39.22,39.22,0,0,0,39.22,39.22h0a39.17,39.17,0,0,0,32-16.5,27.15,27.15,0,0,0,15,4.49h0a27.27,27.27,0,0,0,27.27-27.27h0A27.24,27.24,0,0,0,696.05,461.5Z" transform="translate(-559.53 -287.55)"/><path class="cls-13" d="M691.05,453.37a13.22,13.22,0,0,0,3.78-9.25h0a13.25,13.25,0,0,0-7.37-11.86,37.62,37.62,0,0,0,.46-5.76h0a37.56,37.56,0,0,0-37.56-37.56h0a37.56,37.56,0,0,0-37.56,37.56h0a38.52,38.52,0,0,0,.45,5.82,13.23,13.23,0,0,0-7.25,11.8h0a13.18,13.18,0,0,0,2.56,7.8A34.66,34.66,0,0,0,601,473.51h0a34.83,34.83,0,0,0,34.82,34.83h0a34.78,34.78,0,0,0,28.38-14.65,24.13,24.13,0,0,0,13.3,4h0a24.23,24.23,0,0,0,24.22-24.22h0A24.2,24.2,0,0,0,691.05,453.37Z" transform="translate(-559.53 -287.55)"/><path class="cls-28" d="M715,540.76l-7.72-19.31a15.36,15.36,0,0,0-9.92-9L667,503.53a20.92,20.92,0,0,0-5.67-.79H635.17a20.86,20.86,0,0,0-5.67.79l-30.09,8.87a15.51,15.51,0,0,0-10,9.14L581.1,542.2a.59.59,0,0,0,.12.63l2.86,2.88,17.81,18,.86,4.49.21,10.36,1.4,63.18h87.79l1.34-60.35.26-13.19.91-4.73,17.18-17.36,2.58-2.61A2.58,2.58,0,0,0,715,540.76Z" transform="translate(-559.53 -287.55)"/><path class="cls-29" d="M709.89,541.46l-7.14-17.84a14.13,14.13,0,0,0-9.16-8.33l-28-8.22a19,19,0,0,0-5.24-.73H636.15a18.87,18.87,0,0,0-5.23.73l-27.8,8.18a14.4,14.4,0,0,0-9.29,8.45l-7.63,19.08a.56.56,0,0,0,.12.59L589,546l16.45,16.65.8,4.15.19,9.58,1.29,58.36H688.8L690,579l.25-12.19.84-4.36,15.86-16,2.39-2.41A2.38,2.38,0,0,0,709.89,541.46Z" transform="translate(-559.53 -287.55)"/><path class="cls-30" d="M661.52,563.36,681,507.63,672.08,505l-14.31,41c-2,5.71-16.87,5.71-18.85,0l-14.45-41-8.88,2.61,19.63,55.73C638,571.33,658.76,571.33,661.52,563.36Z" transform="translate(-559.53 -287.55)"/><path class="cls-31" d="M666.45,503.39a2.81,2.81,0,0,1-.1.31l-11,31.42c-1.48,4.29-12.64,4.29-14.13,0l-11.07-31.41c0-.1-.06-.21-.1-.32l-.59.14-5,1.49,14.45,41c2,5.71,16.87,5.71,18.85,0l14.31-41L667,503.53Z" transform="translate(-559.53 -287.55)"/><path class="cls-32" d="M641.26,535.12c1.49,4.29,12.65,4.29,14.13,0l11-31.42a2.81,2.81,0,0,0,.1-.31,20.93,20.93,0,0,0-5.11-.65H635.17a20.69,20.69,0,0,0-5.08.65c0,.11.07.22.1.32Z" transform="translate(-559.53 -287.55)"/><path class="cls-12" d="M692.39,645.19a2,2,0,0,1-2.14,2s-5.41.93-28.55-.28c-30.87-1.61-57.87-3.61-57.87-3.61V629.86h88.51Z" transform="translate(-559.53 -287.55)"/><path class="cls-12" d="M602.83,566.15a.51.51,0,0,1-.5-.5V549.34a.5.5,0,0,1,.5-.5.5.5,0,0,1,.5.5v16.31A.5.5,0,0,1,602.83,566.15Z" transform="translate(-559.53 -287.55)"/><path class="cls-12" d="M693.83,566.15a.51.51,0,0,1-.5-.5V549.34a.5.5,0,0,1,.5-.5.5.5,0,0,1,.5.5v16.31A.5.5,0,0,1,693.83,566.15Z" transform="translate(-559.53 -287.55)"/><path class="cls-33" d="M677.08,442.8v-8.92q0-.87-.06-1.71a1.68,1.68,0,0,0-1.67-1.55H662.88a1.31,1.31,0,0,1-1.31-1.31l0-5.9a.25.25,0,0,0-.47-.12l-3.48,6a2,2,0,0,1-1.83,1.32l-7.68-.09a1.36,1.36,0,0,1-1.31-1.6l2.37-13.22a.25.25,0,0,0-.47-.16c-1.88,4-6.37,13.91-6.37,13.91a1.93,1.93,0,0,1-1.76,1.16H629l-.63,0a1.76,1.76,0,0,1-1.71-1.78s-.18-9.52-.21-9.33l-1.53,9.3a2.2,2.2,0,0,1-2.15,1.83s-1.1,0-1.87,0a.75.75,0,0,0-.76.72c-.09,2.76-.06,11.42-.06,11.42h-.15a9.1,9.1,0,1,0-.11,18.19h.26v2.28a27.3,27.3,0,0,0,15.38,24.55v13.92a6,6,0,0,0,.33,2l7.66,21.73c1,3,8.75,3,9.78,0l7.59-21.74a6.19,6.19,0,0,0,.33-1.95V489.3a6.23,6.23,0,0,0-.12-1.15,27.33,27.33,0,0,0,16.08-24.89V461a9.08,9.08,0,0,0,0-18.16Z" transform="translate(-559.53 -287.55)"/><g class="cls-34"><path class="cls-28" d="M676.72,443.5V435c0-.54,0-1.09-.06-1.62-.06-.84-1.83-.58-1.83-.58,6,24.54-8,74.54-50,41.54,0,0-1,6,11.21,13v12.26a5.41,5.41,0,0,0,.32,1.87l7.29,20.71c1,2.82,8.34,2.82,9.32,0l7.22-20.71a5.64,5.64,0,0,0,.32-1.86V487.8c0-.37,0,.26-.11-.1,9-4.09,16.32-14.15,16.32-24.7v-2.19c4.67-.13,7.43-3.95,7.43-8.66S681.39,443.63,676.72,443.5Z" transform="translate(-559.53 -287.55)"/></g><path class="cls-28" d="M619.49,459.38a3.2,3.2,0,1,1-3.2-3.21A3.2,3.2,0,0,1,619.49,459.38Z" transform="translate(-559.53 -287.55)"/><path class="cls-28" d="M684.33,459.38a3.21,3.21,0,1,1-3.2-3.21A3.21,3.21,0,0,1,684.33,459.38Z" transform="translate(-559.53 -287.55)"/><path class="cls-28" d="M612.77,451.79a.41.41,0,0,1-.41-.42,5.61,5.61,0,0,1,5.53-6,.42.42,0,0,1,.42.42.41.41,0,0,1-.42.41,4.75,4.75,0,0,0-4.7,5.19A.42.42,0,0,1,612.77,451.79Z" transform="translate(-559.53 -287.55)"/><path class="cls-28" d="M683.53,451.79a.42.42,0,0,1-.42-.42c0-5.13-4.51-5.19-4.71-5.19a.41.41,0,0,1-.41-.41.42.42,0,0,1,.41-.42,5.62,5.62,0,0,1,5.54,6A.41.41,0,0,1,683.53,451.79Z" transform="translate(-559.53 -287.55)"/><path class="cls-35" d="M647.38,490.59a27.21,27.21,0,0,1-11.88-2.74V497l25.62-8.53-.38-.2a27,27,0,0,1-11,2.32Z" transform="translate(-559.53 -287.55)"/><path class="cls-36" d="M633.9,463.38h-5.6a3.2,3.2,0,0,1-3.2-3.2h0a3.21,3.21,0,0,1,3.2-3.21h5.6a3.21,3.21,0,0,1,3.2,3.21h0A3.2,3.2,0,0,1,633.9,463.38Z" transform="translate(-559.53 -287.55)"/><path class="cls-36" d="M667.52,463.38h-5.6a3.21,3.21,0,0,1-3.21-3.2h0a3.21,3.21,0,0,1,3.21-3.21h5.6a3.21,3.21,0,0,1,3.2,3.21h0A3.2,3.2,0,0,1,667.52,463.38Z" transform="translate(-559.53 -287.55)"/><path class="cls-28" d="M644.1,482a.5.5,0,0,1-.21-.05.41.41,0,0,1-.15-.57,4.81,4.81,0,0,1,8.34,0,.41.41,0,0,1-.15.57.43.43,0,0,1-.57-.16,4,4,0,0,0-6.9,0A.41.41,0,0,1,644.1,482Z" transform="translate(-559.53 -287.55)"/><path class="cls-12" d="M635.19,452h0a1.67,1.67,0,0,1-1.67-1.67v-3.34a1.67,1.67,0,0,1,1.67-1.67h0a1.66,1.66,0,0,1,1.67,1.67v3.34A1.67,1.67,0,0,1,635.19,452Z" transform="translate(-559.53 -287.55)"/><path class="cls-12" d="M660.81,452h0a1.67,1.67,0,0,1-1.67-1.67v-3.34a1.66,1.66,0,0,1,1.67-1.67h0a1.67,1.67,0,0,1,1.67,1.67v3.34A1.67,1.67,0,0,1,660.81,452Z" transform="translate(-559.53 -287.55)"/><path class="cls-28" d="M652.14,461.39h-6a1.48,1.48,0,0,1-1.35-.85A1.49,1.49,0,0,1,645,459a10.23,10.23,0,0,0,2.27-6.4v-5.7a.41.41,0,0,1,.41-.42.42.42,0,0,1,.42.42v5.7a11,11,0,0,1-2.45,6.92.64.64,0,0,0-.09.7.67.67,0,0,0,.6.37h6a.41.41,0,0,1,.41.42A.41.41,0,0,1,652.14,461.39Z" transform="translate(-559.53 -287.55)"/><path class="cls-12" d="M656.94,474.6h-3.53a5.13,5.13,0,0,1-5.11-5.11v-1.72A2.74,2.74,0,0,1,651,465h8.39a2.63,2.63,0,0,1,2.63,2.63v1.82A5.13,5.13,0,0,1,656.94,474.6Z" transform="translate(-559.53 -287.55)"/><path class="cls-37" d="M657.46,473.9h-4.57A1.88,1.88,0,0,1,651,472h0a1.88,1.88,0,0,1,1.88-1.87h4.57a1.87,1.87,0,0,1,1.87,1.87h0A1.87,1.87,0,0,1,657.46,473.9Z" transform="translate(-559.53 -287.55)"/><path class="cls-12" d="M660.61,438.92a6.19,6.19,0,0,0,2.41.82c.89.17,1.77.37,2.54.56s1.64.46,2.5.74a6.12,6.12,0,0,0,2.5.45c.73-.11,1.21-.84.68-2a7,7,0,0,0-4.67-3.34,6.81,6.81,0,0,0-5.64.68C659.93,437.6,660,438.47,660.61,438.92Z" transform="translate(-559.53 -287.55)"/><path class="cls-12" d="M628.5,441.69a6.18,6.18,0,0,0,2.48-.57c.85-.31,1.71-.61,2.47-.84s1.63-.47,2.51-.68a6.09,6.09,0,0,0,2.37-.92c.57-.47.59-1.34-.47-2.07a7,7,0,0,0-5.73-.41,6.81,6.81,0,0,0-4.46,3.52C627.23,440.91,627.75,441.61,628.5,441.69Z" transform="translate(-559.53 -287.55)"/><path class="cls-12" d="M676.51,443.17a2.29,2.29,0,0,0-1.62-.68H655.47a2.26,2.26,0,0,0-2.13,1.52,11.61,11.61,0,0,0-10,0,2.21,2.21,0,0,0-2.09-1.42l-19.42-.06a2.11,2.11,0,0,0-1.61.66,2.25,2.25,0,0,0-.66,1.6v6.31c0,6,4.43,10.91,9.88,10.91h4.18c5.45,0,9.89-4.9,9.89-10.91v-5.31a10.11,10.11,0,0,1,9.7.05v5.26c0,6,4.44,10.91,9.89,10.91h4.18c5.45,0,9.88-4.9,9.88-10.91v-6.26A2.22,2.22,0,0,0,676.51,443.17Zm-34.67,7.9c0,5.1-3.69,9.24-8.23,9.24h-4.18c-4.53,0-8.22-4.14-8.22-9.24v-6.31a.62.62,0,0,1,.6-.6h0l19.43.06a.59.59,0,0,1,.43.19.61.61,0,0,1,.17.43Zm33.65,0c0,5.1-3.69,9.24-8.22,9.24h-4.18c-4.54,0-8.23-4.14-8.23-9.24v-6.31a.6.6,0,0,1,.61-.6h19.42a.58.58,0,0,1,.43.18.54.54,0,0,1,.17.43Z" transform="translate(-559.53 -287.55)"/><path class="cls-33" d="M601.89,563.74l-17.81-18-11,49.15a11.21,11.21,0,0,0,8.5,13.39l3.08.69a11.21,11.21,0,0,0,13.39-8.51L603,578.59l-.21-10.36Z" transform="translate(-559.53 -287.55)"/><path class="cls-38" d="M601.89,563.74l-17.81-18-11,49.15a11.21,11.21,0,0,0,8.5,13.39l3.08.69a11.21,11.21,0,0,0,13.39-8.51L603,578.59l-.21-10.36Z" transform="translate(-559.53 -287.55)"/><polygon class="cls-35" points="29.82 263.51 43.16 292.69 43.16 275.88 29.82 263.51"/><path class="cls-33" d="M637.62,544.37l2.29-8.42a11.51,11.51,0,0,1,4.6-6.46l2.11-1.43a2.32,2.32,0,0,1,3.62,2l-.09,1.72A13.22,13.22,0,0,1,639,544.16Z" transform="translate(-559.53 -287.55)"/><path class="cls-39" d="M637.62,544.37l2.29-8.42a11.51,11.51,0,0,1,4.6-6.46l2.11-1.43a2.32,2.32,0,0,1,3.62,2l-.09,1.72A13.22,13.22,0,0,1,639,544.16Z" transform="translate(-559.53 -287.55)"/><circle class="cls-12" cx="92.47" cy="213.92" r="8.34"/><rect class="cls-12" x="88.69" y="224.7" width="7.56" height="30.19" rx="1.52"/><path class="cls-40" d="M650.62,542.44h0a2.11,2.11,0,0,1-2.11-2.11v-26a2.11,2.11,0,0,1,2.11-2.11h0a2.1,2.1,0,0,1,2.11,2.11v26A2.11,2.11,0,0,1,650.62,542.44Z" transform="translate(-559.53 -287.55)"/><rect class="cls-23" x="84.13" y="220.86" width="16.67" height="13.89" rx="1.49"/><path class="cls-41" d="M652.11,522.3h-6.66a1.5,1.5,0,0,1-1.5-1.49V509.9a1.5,1.5,0,0,1,1.5-1.49h6.66Z" transform="translate(-559.53 -287.55)"/><path class="cls-8" d="M652.16,516.94a.48.48,0,0,1-.51.39h-1.26a.48.48,0,0,1-.51-.4l-.32-2.62c0-.23,0-.47-.06-.7h-.11c0,.24,0,.48-.06.71l-.32,2.61a.48.48,0,0,1-.51.4h-1.27a.48.48,0,0,1-.51-.4l-.59-4.35h1.48l.23,2.91c0,.24,0,.49,0,.79H648c0-.24.08-.55.11-.79l.32-2.47a.49.49,0,0,1,.5-.44H650a.48.48,0,0,1,.5.44l.32,2.48c0,.25.07.54.11.79H651c0-.26,0-.55,0-.78l.24-2.93h1.47Z" transform="translate(-559.53 -287.55)"/><path class="cls-14" d="M657.66,517a.34.34,0,0,1-.37.38h-.66c-.22,0-.31-.1-.42-.31L655,514.5a4.74,4.74,0,0,1-.29-.74h-.07a6.45,6.45,0,0,1,0,.76v2.82h-1V513a.34.34,0,0,1,.38-.38h.64c.22,0,.31.1.42.31l1.2,2.46c.1.2.23.49.34.76h.07c0-.27,0-.53,0-.8v-2.73h1Z" transform="translate(-559.53 -287.55)"/><path class="cls-42" d="M661.14,502.85H643.08a.69.69,0,0,1-.7-.69h0a.7.7,0,0,1,.7-.7h18.06a.7.7,0,0,1,.69.7h0A.69.69,0,0,1,661.14,502.85Z" transform="translate(-559.53 -287.55)"/><path class="cls-33" d="M661.13,527.94a1.22,1.22,0,0,0-1.84-.31L650.47,532a27,27,0,0,0-9.09,7.36,24.07,24.07,0,0,1-3.17,3.74L577.9,590.56a11,11,0,0,0-.69,15.94,14.37,14.37,0,0,0,20.65,0l49-52.52c2.74-.73,6.91-2.51,12-6.84C666.46,540.77,662.81,531.32,661.13,527.94Z" transform="translate(-559.53 -287.55)"/><path class="cls-33" d="M724.19,601.49l-12.35-55.35L694.66,563.5l-.91,4.73-.26,13.19,5.72,25.65a11.22,11.22,0,0,0,13.4,8.5l3.08-.68A11.22,11.22,0,0,0,724.19,601.49Z" transform="translate(-559.53 -287.55)"/><path class="cls-38" d="M724.19,601.49l-12.35-55.35L694.66,563.5l-.91,4.73-.26,13.19,5.72,25.65a11.22,11.22,0,0,0,13.4,8.5l3.08-.68A11.22,11.22,0,0,0,724.19,601.49Z" transform="translate(-559.53 -287.55)"/><polygon class="cls-35" points="147.31 263.51 133.97 292.69 134.31 276.79 147.31 263.51"/><path class="cls-33" d="M757.81,552.09a8.51,8.51,0,0,0,14,1.15l4.51-5.53a3,3,0,0,0,.25-3.81h0a3.06,3.06,0,0,0-4.09-.83l-6.77,4.21-7.89,4.81Z" transform="translate(-559.53 -287.55)"/><g class="cls-43"><path class="cls-28" d="M757.81,552.09a8.51,8.51,0,0,0,14,1.15l4.51-5.53a3,3,0,0,0,.25-3.81h0a3.06,3.06,0,0,0-4.09-.83l-6.77,4.21-7.89,4.81Z" transform="translate(-559.53 -287.55)"/></g><path class="cls-33" d="M790.42,543.12a5.13,5.13,0,0,0-4.85,2.53,9.6,9.6,0,0,1-9.37,4.73c-6.16-.69-15.38-1-19.64,2.15l0,.11c-.1.08-.21.14-.3.22L704,597.5a10.34,10.34,0,0,0-.71,15,13.49,13.49,0,0,0,19.38.12l43.89-44.79,15.86-3a5.67,5.67,0,0,0,4.9-2.63L794.36,551A5.14,5.14,0,0,0,790.42,543.12Z" transform="translate(-559.53 -287.55)"/><path class="cls-28" d="M842.32,290.34h62.91A7.66,7.66,0,0,1,912.9,298v62.91a7.66,7.66,0,0,1-7.67,7.67H854.65a4.17,4.17,0,0,0-2.83,1.1l-10.13,9.21a4.21,4.21,0,0,1-7-3.12V298A7.66,7.66,0,0,1,842.32,290.34Z" transform="translate(-559.53 -287.55)"/><path class="cls-44" d="M842.32,290.34h62.91A7.66,7.66,0,0,1,912.9,298v62.91a7.66,7.66,0,0,1-7.67,7.67H854.65a4.17,4.17,0,0,0-2.83,1.1l-10.13,9.21a4.21,4.21,0,0,1-7-3.12V298A7.66,7.66,0,0,1,842.32,290.34Z" transform="translate(-559.53 -287.55)"/><path class="cls-28" d="M845.36,290.34h56.83a6.93,6.93,0,0,1,6.93,6.93V354.1a6.93,6.93,0,0,1-6.93,6.93H856.5a3.78,3.78,0,0,0-2.56,1l-9.15,8.32a3.8,3.8,0,0,1-6.36-2.82V297.27A6.93,6.93,0,0,1,845.36,290.34Z" transform="translate(-559.53 -287.55)"/><path class="cls-45" d="M861.53,337.63l0,0,0,0Z" transform="translate(-559.53 -287.55)"/><polygon class="cls-1" points="295.55 46.05 297.65 56.57 301.97 50.06 295.55 46.05"/><path class="cls-1" d="M900,310.61l-44,23a.89.89,0,0,1-.89,0h0l6.43,4h0l0,0a.88.88,0,0,1,.36-.85l38.44-26.34-.25.13Z" transform="translate(-559.53 -287.55)"/><path class="cls-4" d="M900.08,310.57l-.07,0-44,23a.89.89,0,0,1-.89,0h0l2.11,10.53,4.32-6.51h0l0,0a.88.88,0,0,1,.36-.85l38.44-26.34Z" transform="translate(-559.53 -287.55)"/><path class="cls-46" d="M900.38,310.38s0,0,0,.06" transform="translate(-559.53 -287.55)"/><path class="cls-1" d="M861.53,337.63h0l2.87,3.28,6.9,7.25a6.25,6.25,0,0,0,10-1.23l19.05-36.5-38.44,26.34A.88.88,0,0,0,861.53,337.63Z" transform="translate(-559.53 -287.55)"/><path class="cls-1" d="M856,333.62l44-23,.07,0c.08-.05.15-.11-.11-.06l-52.78,10.65a3,3,0,0,0-1.2,5.3l9.06,7.08.06,0A.89.89,0,0,0,856,333.62Z" transform="translate(-559.53 -287.55)"/><polygon class="cls-1" points="302 50.09 301.97 50.06 301.97 50.06 301.97 50.06 297.65 56.57 304.87 53.37 304.87 53.37 302 50.09"/><polygon class="cls-3" points="302 50.09 301.97 50.06 301.97 50.06 301.97 50.06 297.65 56.57 304.87 53.37 304.87 53.37 302 50.09"/><rect class="cls-28" x="3.62" y="0.51" width="69.62" height="24.7" rx="1.37"/><text class="cls-47" transform="translate(13.66 22.27)">LIVE</text></svg>
