<svg id="Layer_1" data-name="Layer 1" xmlns="http://www.w3.org/2000/svg" viewBox="0 0 436.01 428.43"><defs><style>.cls-1,.cls-11,.cls-13,.cls-14,.cls-17,.cls-18,.cls-19,.cls-2,.cls-21,.cls-25,.cls-29,.cls-33,.cls-37,.cls-40,.cls-42,.cls-43,.cls-45,.cls-46,.cls-50,.cls-52,.cls-53,.cls-54,.cls-55,.cls-58,.cls-6,.cls-61,.cls-62,.cls-63,.cls-64,.cls-65,.cls-66,.cls-9{fill:none;}.cls-1,.cls-2,.cls-25{stroke:#bfc4d8;}.cls-1,.cls-11,.cls-13,.cls-14,.cls-17,.cls-18,.cls-19,.cls-2,.cls-21,.cls-25,.cls-29,.cls-33,.cls-37,.cls-43,.cls-50,.cls-54,.cls-6,.cls-62,.cls-63,.cls-64,.cls-65,.cls-66{stroke-miterlimit:10;}.cls-1{stroke-width:0.96px;}.cls-2{stroke-width:0.76px;}.cls-3{fill:#e1e5f2;}.cls-4{fill:#fdeeea;}.cls-5{fill:#4dbeaf;}.cls-6,.cls-65{stroke:#1f2641;}.cls-6{stroke-width:0.46px;}.cls-7{fill:#374475;}.cls-8{fill:#fff;}.cls-9{stroke:#1d243d;stroke-width:1.79px;}.cls-40,.cls-42,.cls-45,.cls-46,.cls-52,.cls-53,.cls-55,.cls-61,.cls-9{stroke-linecap:round;stroke-linejoin:round;}.cls-10{fill:#1d243d;}.cls-11,.cls-13{stroke:#e5e8f2;}.cls-11,.cls-14,.cls-17,.cls-21,.cls-25,.cls-29,.cls-54{stroke-width:0.89px;}.cls-12{fill:#e5e8f2;}.cls-13{stroke-width:0.9px;}.cls-14{stroke:#9bb1ff;}.cls-15{fill:#2e4ebe;}.cls-16{fill:#ffecd4;}.cls-17{stroke:#ffcc8f;}.cls-18,.cls-29{stroke:#e68068;}.cls-18,.cls-42{stroke-width:0.45px;}.cls-19,.cls-21{stroke:#fff4e6;}.cls-19{stroke-width:0.67px;}.cls-20{fill:#e68068;}.cls-22{fill:#e0e4ff;}.cls-23{fill:#d7d9e3;}.cls-24{fill:#f0f0f2;}.cls-26{font-size:38.12px;fill:#7986b5;font-family:Raleway-Light, Raleway Light;font-weight:300;}.cls-27{letter-spacing:0.01em;}.cls-28{fill:#bfc4d8;}.cls-30{fill:#344173;}.cls-31{fill:#ffc070;}.cls-32{fill:#ffcf93;}.cls-33{stroke:#ffe2bd;stroke-width:0.44px;}.cls-34{fill:#ffc373;}.cls-35{fill:#f0b291;}.cls-36{fill:#db9680;}.cls-37,.cls-54{stroke:#374475;}.cls-37,.cls-43{stroke-width:0.35px;}.cls-38{fill:#21273d;}.cls-39{fill:#d3d3f2;}.cls-40,.cls-45,.cls-53{stroke:#aeaef2;}.cls-40{stroke-width:0.74px;}.cls-41{fill:#aeaef2;}.cls-42{stroke:#c99146;}.cls-43{stroke:#bf5233;}.cls-44{fill:#dadaf2;}.cls-45{stroke-width:0.78px;}.cls-46{stroke:#2f5e94;stroke-width:0.68px;}.cls-47{fill:#ecb99a;}.cls-48{fill:#3e7dc7;}.cls-49{fill:#ecb08b;}.cls-50,.cls-52{stroke:#37424f;stroke-width:0.31px;}.cls-51{fill:#37424f;}.cls-53{stroke-width:0.74px;}.cls-55{stroke:#ffe8d2;stroke-width:9.23px;}.cls-56{fill:#ffe8d2;}.cls-57{fill:#fff1e3;}.cls-59{fill:#ffccbf;}.cls-60{fill:#ffdfbb;}.cls-61,.cls-63,.cls-64,.cls-66{stroke:#fff;}.cls-61{stroke-width:0.61px;}.cls-62{stroke:#4dbeaf;stroke-width:1.01px;}.cls-63{stroke-width:0.3px;}.cls-64{stroke-width:0.13px;}.cls-65{stroke-width:0.31px;}.cls-66{stroke-width:0.19px;}</style></defs><path class="cls-1" d="M628.36,320.75c0-.55.06-1.11.06-1.68a25,25,0,0,0-40.63-19.56,25,25,0,0,0-48.71,11.13,25,25,0,0,0,7.37,48.73h0l79.1,1.85a20.34,20.34,0,0,0,2.8-40.48Z" transform="translate(-517.13 -236.2)"/><path class="cls-2" d="M925.56,382c0-.44.05-.88.05-1.32a19.7,19.7,0,0,0-32-15.41A19.71,19.71,0,0,0,855,370.8a20.23,20.23,0,0,0,.27,3.24,19.71,19.71,0,0,0,5.81,38.37h0l62.29,1.45a16,16,0,0,0,2.2-31.87Z" transform="translate(-517.13 -236.2)"/><path class="cls-3" d="M736.66,249.76c0-.19,0-.39,0-.58a8.65,8.65,0,0,0-14-6.76,8.64,8.64,0,0,0-16.94,2.43,9.49,9.49,0,0,0,.12,1.42,8.65,8.65,0,0,0,2.55,16.83h0l27.32.64a7,7,0,0,0,1-14Z" transform="translate(-517.13 -236.2)"/><path class="cls-4" d="M829.82,643.44a86.3,86.3,0,0,0,43.79-.36c40.62-11.09,108.66-40.44,65.95-107.24-58.89-92.12-159.14-97.58-134.1-161s23.18-112.77-89.32-89.55S618,382.94,560.31,434.05s-49.79,188.56-1.77,193.64,46.18,59.61,135.08,26.16C755.28,630.65,805.09,637.23,829.82,643.44Z" transform="translate(-517.13 -236.2)"/><path class="cls-5" d="M550.56,512.89c-6.09-2.35-30.71-13.34-33.4-38.35a4.46,4.46,0,0,1,3.24-4.74l2.19-.61a4.45,4.45,0,0,0,3.09-5.5c-3.47-12.11-11.34-45.94,8.59-47.27,19.3-1.29,24.65,28.82,26,41.22a4.44,4.44,0,0,0,5.62,3.78h0a4.46,4.46,0,0,1,5.63,3.8c1.35,12.17,2.44,42-18.29,47.82A4.27,4.27,0,0,1,550.56,512.89Z" transform="translate(-517.13 -236.2)"/><path class="cls-6" d="M535.06,428s-.18,33.86,28,109.62" transform="translate(-517.13 -236.2)"/><path class="cls-5" d="M879.61,516.94c-4.11-5.08-20-26.89-9.82-49.91a4.46,4.46,0,0,1,5.18-2.49l2.2.57a4.45,4.45,0,0,0,5.42-3.23c3-12.23,13.1-45.47,31-36.68,17.38,8.52,7,37.28,2,48.72a4.44,4.44,0,0,0,3,6.08h0a4.46,4.46,0,0,1,3,6.11c-4.9,11.21-18.84,37.6-39.72,32.31A4.3,4.3,0,0,1,879.61,516.94Z" transform="translate(-517.13 -236.2)"/><path class="cls-6" d="M908.54,435.61s-17,29.26-30.45,109" transform="translate(-517.13 -236.2)"/><rect class="cls-7" x="39.56" y="159" width="329.28" height="194.17" rx="11.71"/><rect class="cls-8" x="629.17" y="338.39" width="185.22" height="307.8" rx="7.1" transform="translate(696.93 -465.7) rotate(90)"/><line class="cls-9" x1="363.92" y1="218.5" x2="363.92" y2="301.72"/><path class="cls-10" d="M883.73,442.18a2.69,2.69,0,1,1-2.68-2.69A2.68,2.68,0,0,1,883.73,442.18Z" transform="translate(-517.13 -236.2)"/><rect class="cls-11" x="57.01" y="171.08" width="147.64" height="11.63" rx="3.13"/><rect class="cls-11" x="57.46" y="193" width="221.9" height="34.9" rx="5.06"/><rect class="cls-12" x="292.78" y="193" width="55.48" height="34.9" rx="4.57"/><rect class="cls-12" x="237.75" y="313.35" width="55.48" height="25.05" rx="3.87"/><rect class="cls-12" x="128.59" y="239.08" width="55.48" height="58.16" rx="5.9"/><rect class="cls-12" x="712.83" y="476.63" width="147.19" height="4.47" transform="translate(1055.72 721.53) rotate(180)"/><rect class="cls-12" x="758.04" y="486.92" width="101.65" height="4.47" transform="translate(1100.6 742.11) rotate(180)"/><rect class="cls-12" x="796.33" y="496.76" width="63.36" height="4.47" transform="translate(1138.89 761.79) rotate(180)"/><rect class="cls-12" x="66.85" y="198.37" width="98.6" height="4.47"/><rect class="cls-12" x="67.07" y="208.66" width="68.09" height="4.47"/><rect class="cls-12" x="67.07" y="218.5" width="42.45" height="4.47"/><rect class="cls-12" x="172.26" y="198.37" width="98.6" height="4.47"/><rect class="cls-12" x="172.48" y="208.66" width="68.09" height="4.47"/><rect class="cls-12" x="172.48" y="218.5" width="42.45" height="4.47"/><rect class="cls-13" x="122.78" y="308.43" width="225.48" height="34.9" rx="5.1"/><rect class="cls-12" x="132.17" y="313.79" width="98.6" height="4.47"/><rect class="cls-12" x="132.39" y="324.09" width="68.09" height="4.47"/><rect class="cls-12" x="132.39" y="333.93" width="42.45" height="4.47"/><rect class="cls-12" x="712.83" y="508.84" width="147.19" height="4.47" transform="translate(1055.72 785.95) rotate(180)"/><rect class="cls-12" x="758.04" y="519.13" width="101.65" height="4.47" transform="translate(1100.6 806.53) rotate(180)"/><rect class="cls-12" x="796.33" y="528.97" width="63.36" height="4.47" transform="translate(1138.89 826.21) rotate(180)"/><rect class="cls-12" x="815.73" y="550" width="46.08" height="4.47" transform="translate(1160.41 868.27) rotate(180)"/><rect class="cls-12" x="829.88" y="560.29" width="31.82" height="4.47" transform="translate(1174.46 888.85) rotate(180)"/><rect class="cls-12" x="841.87" y="570.13" width="19.84" height="4.47" transform="translate(1186.45 908.53) rotate(180)"/><rect class="cls-12" x="57.9" y="235.5" width="54.58" height="107.37" rx="7.05"/><rect class="cls-11" x="123.22" y="235.5" width="225.48" height="66.21" rx="6.6"/><path class="cls-12" d="M858.23,418.92H733.86A5.83,5.83,0,0,1,728,413.1h0a5.83,5.83,0,0,1,5.82-5.82H858.23a5.83,5.83,0,0,1,5.82,5.82h0A5.83,5.83,0,0,1,858.23,418.92Z" transform="translate(-517.13 -236.2)"/><path class="cls-14" d="M835.58,513h20.71a0,0,0,0,1,0,0v13.2a1.42,1.42,0,0,1-1.42,1.42H837a1.42,1.42,0,0,1-1.42-1.42V513A0,0,0,0,1,835.58,513Z" transform="translate(1174.73 804.43) rotate(180)"/><path class="cls-14" d="M860.17,513h20.71a0,0,0,0,1,0,0v13.28a1.34,1.34,0,0,1-1.34,1.34h-18a1.34,1.34,0,0,1-1.34-1.34V513A0,0,0,0,1,860.17,513Z" transform="translate(1223.92 804.43) rotate(180)"/><path class="cls-15" d="M887.35,513h27.83a0,0,0,0,1,0,0v13.41a1.22,1.22,0,0,1-1.22,1.22h-25.4a1.22,1.22,0,0,1-1.22-1.22V513A0,0,0,0,1,887.35,513Z" transform="translate(1285.41 804.43) rotate(180)"/><rect class="cls-16" x="757.59" y="522.76" width="162.47" height="82.86" rx="1.91" transform="translate(1160.52 892.17) rotate(180)"/><rect class="cls-17" x="762.47" y="542.25" width="64.17" height="59.3" rx="2.03" transform="translate(1071.97 907.6) rotate(180)"/><path class="cls-18" d="M816.08,547.94a2.44,2.44,0,1,0,2.44-2.44A2.44,2.44,0,0,0,816.08,547.94Z" transform="translate(-517.13 -236.2)"/><path class="cls-18" d="M806.33,547.94a2.44,2.44,0,1,0,2.44-2.44A2.44,2.44,0,0,0,806.33,547.94Z" transform="translate(-517.13 -236.2)"/><path class="cls-18" d="M796.58,547.94A2.44,2.44,0,1,0,799,545.5,2.44,2.44,0,0,0,796.58,547.94Z" transform="translate(-517.13 -236.2)"/><path class="cls-18" d="M786.84,547.94a2.44,2.44,0,1,0,2.43-2.44A2.44,2.44,0,0,0,786.84,547.94Z" transform="translate(-517.13 -236.2)"/><path class="cls-18" d="M777.09,547.94a2.44,2.44,0,1,0,2.43-2.44A2.44,2.44,0,0,0,777.09,547.94Z" transform="translate(-517.13 -236.2)"/><path class="cls-18" d="M767.34,547.94a2.44,2.44,0,1,0,2.44-2.44A2.44,2.44,0,0,0,767.34,547.94Z" transform="translate(-517.13 -236.2)"/><path class="cls-18" d="M816.08,557.69a2.44,2.44,0,1,0,2.44-2.44A2.43,2.43,0,0,0,816.08,557.69Z" transform="translate(-517.13 -236.2)"/><path class="cls-18" d="M806.33,557.69a2.44,2.44,0,1,0,2.44-2.44A2.43,2.43,0,0,0,806.33,557.69Z" transform="translate(-517.13 -236.2)"/><path class="cls-18" d="M796.58,557.69a2.44,2.44,0,1,0,2.44-2.44A2.43,2.43,0,0,0,796.58,557.69Z" transform="translate(-517.13 -236.2)"/><path class="cls-18" d="M786.84,557.69a2.44,2.44,0,1,0,2.43-2.44A2.43,2.43,0,0,0,786.84,557.69Z" transform="translate(-517.13 -236.2)"/><path class="cls-18" d="M777.09,557.69a2.44,2.44,0,1,0,2.43-2.44A2.43,2.43,0,0,0,777.09,557.69Z" transform="translate(-517.13 -236.2)"/><path class="cls-18" d="M767.34,557.69a2.44,2.44,0,1,0,2.44-2.44A2.43,2.43,0,0,0,767.34,557.69Z" transform="translate(-517.13 -236.2)"/><path class="cls-18" d="M816.08,567.43a2.44,2.44,0,1,0,2.44-2.43A2.44,2.44,0,0,0,816.08,567.43Z" transform="translate(-517.13 -236.2)"/><path class="cls-18" d="M806.33,567.43a2.44,2.44,0,1,0,2.44-2.43A2.44,2.44,0,0,0,806.33,567.43Z" transform="translate(-517.13 -236.2)"/><path class="cls-18" d="M796.58,567.43A2.44,2.44,0,1,0,799,565,2.44,2.44,0,0,0,796.58,567.43Z" transform="translate(-517.13 -236.2)"/><path class="cls-18" d="M786.84,567.43a2.44,2.44,0,1,0,2.43-2.43A2.43,2.43,0,0,0,786.84,567.43Z" transform="translate(-517.13 -236.2)"/><path class="cls-18" d="M777.09,567.43a2.44,2.44,0,1,0,2.43-2.43A2.43,2.43,0,0,0,777.09,567.43Z" transform="translate(-517.13 -236.2)"/><path class="cls-18" d="M767.34,567.43a2.44,2.44,0,1,0,2.44-2.43A2.44,2.44,0,0,0,767.34,567.43Z" transform="translate(-517.13 -236.2)"/><path class="cls-18" d="M816.08,577.18a2.44,2.44,0,1,0,2.44-2.43A2.44,2.44,0,0,0,816.08,577.18Z" transform="translate(-517.13 -236.2)"/><circle class="cls-18" cx="291.64" cy="340.98" r="2.44"/><path class="cls-18" d="M796.58,577.18a2.44,2.44,0,1,0,2.44-2.43A2.44,2.44,0,0,0,796.58,577.18Z" transform="translate(-517.13 -236.2)"/><path class="cls-18" d="M786.84,577.18a2.44,2.44,0,1,0,2.43-2.43A2.43,2.43,0,0,0,786.84,577.18Z" transform="translate(-517.13 -236.2)"/><path class="cls-18" d="M777.09,577.18a2.44,2.44,0,1,0,2.43-2.43A2.43,2.43,0,0,0,777.09,577.18Z" transform="translate(-517.13 -236.2)"/><path class="cls-18" d="M767.34,577.18a2.44,2.44,0,1,0,2.44-2.43A2.44,2.44,0,0,0,767.34,577.18Z" transform="translate(-517.13 -236.2)"/><path class="cls-18" d="M816.08,586.93a2.44,2.44,0,1,0,2.44-2.44A2.44,2.44,0,0,0,816.08,586.93Z" transform="translate(-517.13 -236.2)"/><path class="cls-18" d="M806.33,586.93a2.44,2.44,0,1,0,2.44-2.44A2.44,2.44,0,0,0,806.33,586.93Z" transform="translate(-517.13 -236.2)"/><path class="cls-18" d="M796.58,586.93a2.44,2.44,0,1,0,2.44-2.44A2.44,2.44,0,0,0,796.58,586.93Z" transform="translate(-517.13 -236.2)"/><path class="cls-18" d="M786.84,586.93a2.44,2.44,0,1,0,2.43-2.44A2.43,2.43,0,0,0,786.84,586.93Z" transform="translate(-517.13 -236.2)"/><path class="cls-18" d="M777.09,586.93a2.44,2.44,0,1,0,2.43-2.44A2.43,2.43,0,0,0,777.09,586.93Z" transform="translate(-517.13 -236.2)"/><path class="cls-18" d="M767.34,586.93a2.44,2.44,0,1,0,2.44-2.44A2.44,2.44,0,0,0,767.34,586.93Z" transform="translate(-517.13 -236.2)"/><path class="cls-18" d="M816.08,596.68a2.44,2.44,0,1,0,2.44-2.44A2.44,2.44,0,0,0,816.08,596.68Z" transform="translate(-517.13 -236.2)"/><circle class="cls-18" cx="291.64" cy="360.47" r="2.44"/><path class="cls-18" d="M796.58,596.68a2.44,2.44,0,1,0,2.44-2.44A2.44,2.44,0,0,0,796.58,596.68Z" transform="translate(-517.13 -236.2)"/><path class="cls-18" d="M786.84,596.68a2.44,2.44,0,1,0,2.43-2.44A2.44,2.44,0,0,0,786.84,596.68Z" transform="translate(-517.13 -236.2)"/><path class="cls-18" d="M777.09,596.68a2.44,2.44,0,1,0,2.43-2.44A2.44,2.44,0,0,0,777.09,596.68Z" transform="translate(-517.13 -236.2)"/><path class="cls-18" d="M767.34,596.68a2.44,2.44,0,1,0,2.44-2.44A2.44,2.44,0,0,0,767.34,596.68Z" transform="translate(-517.13 -236.2)"/><path class="cls-17" d="M832.33,533.32h79.61a0,0,0,0,1,0,0v66.61a5.69,5.69,0,0,1-5.69,5.69H838a5.69,5.69,0,0,1-5.69-5.69V533.32A0,0,0,0,1,832.33,533.32Z" transform="translate(1227.13 902.73) rotate(180)"/><rect class="cls-19" x="838.83" y="548.75" width="67.42" height="37.37" rx="6.43" transform="translate(1227.94 898.66) rotate(180)"/><rect class="cls-20" x="857.92" y="537.78" width="29.24" height="59.3" rx="2.37" transform="translate(922.84 -541.31) rotate(90)"/><path class="cls-21" d="M847.35,556.47h52a4.86,4.86,0,0,1-2.84,4.42v12.34a1.52,1.52,0,0,1-1.51,1.52H851.71a1.51,1.51,0,0,1-1.51-1.52V560.89A4.87,4.87,0,0,1,847.35,556.47Z" transform="translate(-517.13 -236.2)"/><path class="cls-8" d="M880.07,570.68a8.94,8.94,0,1,0,8.94-8.93A8.94,8.94,0,0,0,880.07,570.68Z" transform="translate(-517.13 -236.2)"/><path class="cls-20" d="M883.32,570.68A5.69,5.69,0,1,0,889,565,5.69,5.69,0,0,0,883.32,570.68Z" transform="translate(-517.13 -236.2)"/><path class="cls-20" d="M888.19,564.19a.82.82,0,0,0,.82.81.82.82,0,0,0,0-1.63A.82.82,0,0,0,888.19,564.19Z" transform="translate(-517.13 -236.2)"/><path class="cls-20" d="M886,564.89a.81.81,0,0,0,1.52-.57.81.81,0,1,0-1.52.57Z" transform="translate(-517.13 -236.2)"/><path class="cls-20" d="M884.11,566.33a.82.82,0,0,0,1.15.08.81.81,0,0,0,.07-1.15.8.8,0,0,0-1.14-.07A.81.81,0,0,0,884.11,566.33Z" transform="translate(-517.13 -236.2)"/><path class="cls-20" d="M882.89,568.33A.8.8,0,0,0,884,568a.81.81,0,1,0-1.1.33Z" transform="translate(-517.13 -236.2)"/><path class="cls-20" d="M882.46,570.64a.82.82,0,0,0,.91-.7.8.8,0,0,0-.7-.91.81.81,0,1,0-.21,1.61Z" transform="translate(-517.13 -236.2)"/><path class="cls-20" d="M882.86,573a.82.82,0,0,0-.37-1.59.82.82,0,0,0,.37,1.59Z" transform="translate(-517.13 -236.2)"/><path class="cls-20" d="M884.05,575a.81.81,0,1,0-.9-1.35.83.83,0,0,0-.23,1.13A.82.82,0,0,0,884.05,575Z" transform="translate(-517.13 -236.2)"/><path class="cls-20" d="M885.88,576.44a.83.83,0,0,0-.19-1.14.81.81,0,0,0-1,1.32A.82.82,0,0,0,885.88,576.44Z" transform="translate(-517.13 -236.2)"/><path class="cls-20" d="M888.1,577.17a.81.81,0,1,0-1.57-.42.81.81,0,0,0,1.57.42Z" transform="translate(-517.13 -236.2)"/><path class="cls-20" d="M890.44,577.07a.81.81,0,1,0-.73.89A.8.8,0,0,0,890.44,577.07Z" transform="translate(-517.13 -236.2)"/><path class="cls-20" d="M892.6,576.16a.81.81,0,0,0-1.09-.37.81.81,0,0,0-.37,1.08.81.81,0,1,0,1.46-.71Z" transform="translate(-517.13 -236.2)"/><path class="cls-20" d="M894.3,574.54a.82.82,0,0,0-1.15,0,.81.81,0,1,0,1.15,0Z" transform="translate(-517.13 -236.2)"/><path class="cls-20" d="M895.32,572.43a.81.81,0,0,0-1.06.44.8.8,0,0,0,.43,1.06.81.81,0,1,0,.63-1.5Z" transform="translate(-517.13 -236.2)"/><path class="cls-20" d="M895.53,570.1a.81.81,0,1,0,.78.84A.81.81,0,0,0,895.53,570.1Z" transform="translate(-517.13 -236.2)"/><path class="cls-20" d="M894.91,567.84a.8.8,0,0,0-.51,1,.81.81,0,1,0,.51-1Z" transform="translate(-517.13 -236.2)"/><path class="cls-20" d="M893.53,565.94a.82.82,0,0,0-.12,1.15.81.81,0,1,0,.12-1.15Z" transform="translate(-517.13 -236.2)"/><path class="cls-20" d="M891.07,564.54a.81.81,0,0,0,.29,1.11.83.83,0,0,0,1.12-.29.81.81,0,0,0-.3-1.11A.81.81,0,0,0,891.07,564.54Z" transform="translate(-517.13 -236.2)"/><path class="cls-22" d="M886.29,570.68a2.73,2.73,0,1,0,2.73-2.74A2.73,2.73,0,0,0,886.29,570.68Z" transform="translate(-517.13 -236.2)"/><circle class="cls-22" cx="371.89" cy="331.35" r="0.39"/><path class="cls-22" d="M887.56,567.89a.38.38,0,0,0,.5.23.39.39,0,1,0-.28-.73A.38.38,0,0,0,887.56,567.89Z" transform="translate(-517.13 -236.2)"/><path class="cls-22" d="M886.67,568.59a.39.39,0,0,0,.59-.52.39.39,0,0,0-.59.52Z" transform="translate(-517.13 -236.2)"/><path class="cls-22" d="M886.08,569.55a.39.39,0,1,0-.16-.53A.39.39,0,0,0,886.08,569.55Z" transform="translate(-517.13 -236.2)"/><path class="cls-22" d="M885.87,570.65a.39.39,0,1,0-.33-.43A.38.38,0,0,0,885.87,570.65Z" transform="translate(-517.13 -236.2)"/><path class="cls-22" d="M886.07,571.76a.39.39,0,1,0-.47-.29A.39.39,0,0,0,886.07,571.76Z" transform="translate(-517.13 -236.2)"/><path class="cls-22" d="M886.64,572.73a.39.39,0,1,0-.54-.11A.39.39,0,0,0,886.64,572.73Z" transform="translate(-517.13 -236.2)"/><path class="cls-22" d="M887.52,573.44a.39.39,0,1,0-.55.09A.41.41,0,0,0,887.52,573.44Z" transform="translate(-517.13 -236.2)"/><path class="cls-22" d="M888.59,573.79a.39.39,0,1,0-.48.28A.4.4,0,0,0,888.59,573.79Z" transform="translate(-517.13 -236.2)"/><path class="cls-22" d="M889.71,573.74a.39.39,0,0,0-.43-.35.39.39,0,1,0,.08.78A.39.39,0,0,0,889.71,573.74Z" transform="translate(-517.13 -236.2)"/><path class="cls-22" d="M890.75,573.31a.39.39,0,0,0-.53-.18.38.38,0,0,0-.17.52.39.39,0,0,0,.52.18A.4.4,0,0,0,890.75,573.31Z" transform="translate(-517.13 -236.2)"/><path class="cls-22" d="M891.56,572.53a.39.39,0,1,0,0,.55A.38.38,0,0,0,891.56,572.53Z" transform="translate(-517.13 -236.2)"/><path class="cls-22" d="M892.05,571.52a.38.38,0,0,0-.51.21.39.39,0,0,0,.72.3A.39.39,0,0,0,892.05,571.52Z" transform="translate(-517.13 -236.2)"/><path class="cls-22" d="M892.15,570.39a.4.4,0,0,0-.4.38.38.38,0,0,0,.38.4.39.39,0,0,0,.4-.37A.39.39,0,0,0,892.15,570.39Z" transform="translate(-517.13 -236.2)"/><path class="cls-22" d="M891.85,569.31a.39.39,0,0,0,.25.74.39.39,0,1,0-.25-.74Z" transform="translate(-517.13 -236.2)"/><path class="cls-22" d="M891.19,568.4a.38.38,0,0,0-.05.55.37.37,0,0,0,.54,0,.39.39,0,0,0,.06-.55A.39.39,0,0,0,891.19,568.4Z" transform="translate(-517.13 -236.2)"/><path class="cls-22" d="M890,567.73a.39.39,0,0,0,.14.53.39.39,0,1,0,.39-.68A.4.4,0,0,0,890,567.73Z" transform="translate(-517.13 -236.2)"/><circle class="cls-8" cx="341.62" cy="334.48" r="8.94"/><circle class="cls-20" cx="341.62" cy="334.48" r="5.69"/><path class="cls-20" d="M857.94,564.19a.82.82,0,1,0,.82-.82A.82.82,0,0,0,857.94,564.19Z" transform="translate(-517.13 -236.2)"/><path class="cls-20" d="M855.71,564.89a.8.8,0,0,0,1,.47.81.81,0,0,0,.48-1,.81.81,0,1,0-1.52.57Z" transform="translate(-517.13 -236.2)"/><path class="cls-20" d="M853.86,566.33a.81.81,0,1,0,1.22-1.07.8.8,0,0,0-1.14-.07A.81.81,0,0,0,853.86,566.33Z" transform="translate(-517.13 -236.2)"/><path class="cls-20" d="M852.64,568.33a.8.8,0,0,0,1.1-.33.81.81,0,1,0-1.1.33Z" transform="translate(-517.13 -236.2)"/><path class="cls-20" d="M852.21,570.64a.82.82,0,0,0,.91-.7.81.81,0,1,0-.91.7Z" transform="translate(-517.13 -236.2)"/><path class="cls-20" d="M852.61,573a.82.82,0,1,0-1-.61A.82.82,0,0,0,852.61,573Z" transform="translate(-517.13 -236.2)"/><path class="cls-20" d="M853.8,575a.81.81,0,1,0-1.13-.22A.82.82,0,0,0,853.8,575Z" transform="translate(-517.13 -236.2)"/><path class="cls-20" d="M855.62,576.44a.81.81,0,1,0-1.13.18A.81.81,0,0,0,855.62,576.44Z" transform="translate(-517.13 -236.2)"/><path class="cls-20" d="M857.85,577.17a.81.81,0,1,0-1.57-.42.8.8,0,0,0,.57,1A.81.81,0,0,0,857.85,577.17Z" transform="translate(-517.13 -236.2)"/><path class="cls-20" d="M860.19,577.07a.81.81,0,1,0-.73.89A.82.82,0,0,0,860.19,577.07Z" transform="translate(-517.13 -236.2)"/><path class="cls-20" d="M862.35,576.16a.82.82,0,0,0-1.09-.37.81.81,0,0,0-.37,1.08.81.81,0,1,0,1.46-.71Z" transform="translate(-517.13 -236.2)"/><path class="cls-20" d="M864.05,574.54a.82.82,0,1,0,0,1.15A.82.82,0,0,0,864.05,574.54Z" transform="translate(-517.13 -236.2)"/><path class="cls-20" d="M865.07,572.43a.83.83,0,0,0-1.07.44.82.82,0,0,0,.44,1.06.81.81,0,0,0,.63-1.5Z" transform="translate(-517.13 -236.2)"/><path class="cls-20" d="M865.28,570.1a.81.81,0,1,0,.78.84A.8.8,0,0,0,865.28,570.1Z" transform="translate(-517.13 -236.2)"/><path class="cls-20" d="M864.65,567.84a.82.82,0,0,0-.51,1,.82.82,0,0,0,1,.51.81.81,0,0,0-.52-1.54Z" transform="translate(-517.13 -236.2)"/><path class="cls-20" d="M863.27,565.94a.83.83,0,0,0-.11,1.15.81.81,0,0,0,1.26-1A.82.82,0,0,0,863.27,565.94Z" transform="translate(-517.13 -236.2)"/><path class="cls-20" d="M860.82,564.54a.8.8,0,0,0,.29,1.11.81.81,0,0,0,1.11-.29.81.81,0,0,0-1.4-.82Z" transform="translate(-517.13 -236.2)"/><path class="cls-22" d="M856,570.68a2.73,2.73,0,1,0,2.73-2.74A2.73,2.73,0,0,0,856,570.68Z" transform="translate(-517.13 -236.2)"/><path class="cls-22" d="M858.38,567.55a.38.38,0,0,0,.39.39.39.39,0,0,0,.39-.39.4.4,0,0,0-.39-.39A.39.39,0,0,0,858.38,567.55Z" transform="translate(-517.13 -236.2)"/><path class="cls-22" d="M857.3,567.89a.4.4,0,0,0,.51.23.39.39,0,0,0-.28-.73A.4.4,0,0,0,857.3,567.89Z" transform="translate(-517.13 -236.2)"/><path class="cls-22" d="M856.42,568.59a.39.39,0,0,0,.55,0,.39.39,0,0,0-.52-.58A.39.39,0,0,0,856.42,568.59Z" transform="translate(-517.13 -236.2)"/><path class="cls-22" d="M855.83,569.55a.39.39,0,1,0-.16-.53A.39.39,0,0,0,855.83,569.55Z" transform="translate(-517.13 -236.2)"/><path class="cls-22" d="M855.62,570.65a.39.39,0,1,0-.33-.43A.38.38,0,0,0,855.62,570.65Z" transform="translate(-517.13 -236.2)"/><path class="cls-22" d="M855.82,571.76a.39.39,0,1,0-.47-.29A.39.39,0,0,0,855.82,571.76Z" transform="translate(-517.13 -236.2)"/><path class="cls-22" d="M856.39,572.73a.39.39,0,1,0-.54-.11A.39.39,0,0,0,856.39,572.73Z" transform="translate(-517.13 -236.2)"/><path class="cls-22" d="M857.26,573.44a.4.4,0,0,0-.08-.55.39.39,0,1,0-.46.64A.39.39,0,0,0,857.26,573.44Z" transform="translate(-517.13 -236.2)"/><path class="cls-22" d="M858.33,573.79a.39.39,0,0,0-.27-.48.4.4,0,0,0-.48.28.39.39,0,1,0,.75.2Z" transform="translate(-517.13 -236.2)"/><path class="cls-22" d="M859.46,573.74a.39.39,0,0,0-.43-.35.4.4,0,0,0-.35.43.39.39,0,0,0,.78-.08Z" transform="translate(-517.13 -236.2)"/><path class="cls-22" d="M860.49,573.31a.38.38,0,0,0-.52-.18.4.4,0,0,0-.18.52.41.41,0,0,0,.53.18A.39.39,0,0,0,860.49,573.31Z" transform="translate(-517.13 -236.2)"/><path class="cls-22" d="M861.31,572.53a.39.39,0,1,0,0,.55A.39.39,0,0,0,861.31,572.53Z" transform="translate(-517.13 -236.2)"/><path class="cls-22" d="M861.8,571.52a.38.38,0,0,0-.51.21.39.39,0,0,0,.72.3A.39.39,0,0,0,861.8,571.52Z" transform="translate(-517.13 -236.2)"/><path class="cls-22" d="M861.9,570.39a.4.4,0,0,0-.4.38.38.38,0,0,0,.37.4.39.39,0,1,0,0-.78Z" transform="translate(-517.13 -236.2)"/><path class="cls-22" d="M861.6,569.31a.39.39,0,0,0,.25.74.39.39,0,1,0-.25-.74Z" transform="translate(-517.13 -236.2)"/><path class="cls-22" d="M860.94,568.4a.39.39,0,0,0-.06.55.39.39,0,0,0,.55,0,.39.39,0,1,0-.49-.6Z" transform="translate(-517.13 -236.2)"/><path class="cls-22" d="M859.76,567.73a.38.38,0,0,0,.14.53.39.39,0,0,0,.53-.14.39.39,0,1,0-.67-.39Z" transform="translate(-517.13 -236.2)"/><rect class="cls-3" x="89.22" y="68.18" width="178.95" height="287.22"/><rect class="cls-23" x="86.54" y="69.97" width="178.95" height="287.22"/><rect class="cls-3" x="83.85" y="72.65" width="178.95" height="287.22"/><rect class="cls-23" x="81.17" y="74.44" width="178.95" height="287.22"/><rect class="cls-24" x="78.48" y="77.13" width="178.95" height="287.22"/><rect class="cls-25" x="85.64" y="89.65" width="92.16" height="6.26"/><text class="cls-26" transform="translate(85.2 139.09)">N<tspan class="cls-27" x="25.08" y="0">E</tspan><tspan x="44.18" y="0">WS</tspan></text><line class="cls-25" x1="85.64" y1="144.24" x2="248.49" y2="144.24"/><line class="cls-25" x1="85.64" y1="148.26" x2="248.49" y2="148.26"/><rect class="cls-28" x="86.09" y="156.32" width="51" height="116.77" rx="2.76"/><rect class="cls-25" x="144.7" y="155.87" width="104.69" height="55.48" rx="6.38"/><rect class="cls-29" x="149.17" y="160.34" width="86.79" height="4.49"/><rect class="cls-28" x="149.17" y="168.57" width="69.79" height="4.49"/><rect class="cls-28" x="149.17" y="176.8" width="46.53" height="4.49"/><rect class="cls-20" x="149.17" y="185.03" width="86.79" height="4.49"/><rect class="cls-28" x="149.17" y="193.26" width="69.79" height="4.49"/><rect class="cls-28" x="149.17" y="201.49" width="46.53" height="4.49"/><rect class="cls-25" x="144.7" y="217.61" width="104.69" height="55.48" rx="6.38"/><rect class="cls-29" x="149.17" y="222.08" width="86.79" height="4.49"/><rect class="cls-28" x="149.17" y="230.31" width="69.79" height="4.49"/><rect class="cls-28" x="149.17" y="238.54" width="46.53" height="4.49"/><rect class="cls-20" x="149.17" y="246.77" width="86.79" height="4.49"/><rect class="cls-20" x="91.91" y="286.5" width="86.79" height="4.49"/><rect class="cls-28" x="91.91" y="294.73" width="69.79" height="4.49"/><rect class="cls-28" x="91.91" y="302.96" width="46.53" height="4.49"/><rect class="cls-29" x="91.91" y="311.19" width="86.79" height="4.49"/><rect class="cls-28" x="149.17" y="263.23" width="46.53" height="4.49"/><rect class="cls-28" x="202.86" y="253.4" width="33.11" height="16.11"/><rect class="cls-28" x="186.75" y="286.5" width="56.37" height="29.53" rx="1.35"/><rect class="cls-28" x="91.91" y="321.4" width="87.69" height="24.16" rx="1.52"/><rect class="cls-20" x="208.23" y="111.13" width="42.05" height="27.74" rx="1.96"/><rect class="cls-25" x="85.64" y="282.03" width="162.85" height="69.79" rx="6.52"/><rect class="cls-28" x="194.36" y="319.16" width="49.21" height="5.37"/><rect class="cls-28" x="205.54" y="329.45" width="38.48" height="5.37"/><path class="cls-15" d="M782.1,623.53V579.78h46.06A21.89,21.89,0,0,1,850,601.66h0a21.88,21.88,0,0,1-21.88,21.87Z" transform="translate(-517.13 -236.2)"/><polygon class="cls-30" points="138.13 378.59 138.13 352.31 253.92 349.47 253.92 381.44 138.13 378.59"/><rect class="cls-31" x="734.87" y="569.88" width="61.54" height="63.4" transform="translate(850.09 -400.27) rotate(90)"/><rect class="cls-32" x="750.4" y="554.35" width="30.49" height="63.4" transform="translate(834.56 -415.79) rotate(90)"/><rect class="cls-33" x="736.16" y="573.03" width="58.96" height="26.05" transform="translate(1014.15 935.9) rotate(180)"/><rect class="cls-33" x="736.16" y="604.62" width="58.96" height="26.05" transform="translate(1014.15 999.07) rotate(180)"/><polygon class="cls-34" points="330.76 152.74 341.3 157.82 331.1 157.82 330.27 157.02 330.27 158.04 326.43 158.04 327.84 152.93 330.76 152.74"/><path class="cls-15" d="M794.75,378.1s-1.43-9.12,39.68-16.32l13.8,27.35-2.92.2-13.49-15.68S812,393.21,794.75,378.1Z" transform="translate(-517.13 -236.2)"/><polygon class="cls-34" points="342.24 160.54 350.95 152.74 347.06 162.17 346.01 162.64 346.95 163.02 345.49 166.57 341.3 163.32 342.24 160.54"/><path class="cls-15" d="M793.87,383s-5,14.93,7.84,14.93,17.94-1.22,29.7-3.73l27.19,4.94,1.3-2.83-27.62-9.84S798.53,380.71,793.87,383Z" transform="translate(-517.13 -236.2)"/><polygon class="cls-35" points="275.78 99.22 273.45 106.42 280.56 105.1 280.56 99.16 275.78 99.22"/><path class="cls-36" d="M792.2,335.83s2.09,3.55,6.08,2.91l-.59-1.95Z" transform="translate(-517.13 -236.2)"/><path class="cls-35" d="M803.41,320.85s-1.19,7.45,0,10.38a2.58,2.58,0,0,1-2.13,0,6.34,6.34,0,0,1-1.64,4.62,3.44,3.44,0,0,1-2.54,1.1h-2.46a3.48,3.48,0,0,1-2.44-1c-1.5-1.49-4-4.38-3.69-7l1.2-1.79s-2-4.26.13-4.79a1.89,1.89,0,0,1,2.53,1.33l1.33-5.59S800.35,314.33,803.41,320.85Z" transform="translate(-517.13 -236.2)"/><path class="cls-36" d="M803.41,331.23s-1.86-1.2-2.78-.53.65.53.65.53A2.69,2.69,0,0,0,803.41,331.23Z" transform="translate(-517.13 -236.2)"/><path class="cls-37" d="M799.82,332.6a1.73,1.73,0,0,1-2.9-1.14" transform="translate(-517.13 -236.2)"/><path class="cls-38" d="M800.28,323.21s-2.18.76-2.23,1.82S801.22,323.8,800.28,323.21Z" transform="translate(-517.13 -236.2)"/><path class="cls-38" d="M799.89,326.11c-.23.46-.23.93,0,1.05s.61-.16.84-.62.23-.92,0-1S800.13,325.65,799.89,326.11Z" transform="translate(-517.13 -236.2)"/><polygon class="cls-39" points="301.65 91.66 319.66 92.64 320.46 126.69 301.15 130.6 301.65 91.66"/><line class="cls-40" x1="311" y1="98.6" x2="317.43" y2="98.88"/><line class="cls-40" x1="310.94" y1="102.72" x2="317.1" y2="102.83"/><line class="cls-40" x1="303.25" y1="106.54" x2="317.03" y2="106.92"/><line class="cls-40" x1="302.88" y1="110.24" x2="316.84" y2="110.71"/><line class="cls-40" x1="302.82" y1="114.41" x2="317.1" y2="115.03"/><line class="cls-40" x1="302.51" y1="119.15" x2="316.79" y2="119.77"/><line class="cls-40" x1="302.51" y1="123.71" x2="316.79" y2="124.33"/><polygon class="cls-41" points="309.53 97.34 303.52 97.23 303.43 104.56 309.41 104.66 309.53 97.34"/><path class="cls-35" d="M831.85,345.5s.2-2.91.79-2.79.31,1.61.31,1.61,3.75-2.86,5.52-2.71-3.56,5.67-5.26,6.19S831.85,345.5,831.85,345.5Z" transform="translate(-517.13 -236.2)"/><polygon class="cls-35" points="314.92 108.93 311.26 112.16 312.79 114.79 317.3 110.41 314.92 108.93"/><path class="cls-34" d="M804.27,342.14c-2.13-3.35-7.37-1.89-7.76,2.06-.67,6.71-.47,18.79,8.82,22.57,13.1,5.34,26.95-17.48,26.95-17.48l-1.07-4.08s-16.45,15.77-21.6,12.36C806.06,355.22,807.1,346.61,804.27,342.14Z" transform="translate(-517.13 -236.2)"/><path class="cls-42" d="M820.92,353.72c-4.19,3.47-8.93,5.33-11.22,3.81-3.55-2.34-2.5-10.95-5.34-15.42-2.13-3.35-7.36-1.9-7.76,2.05" transform="translate(-517.13 -236.2)"/><path class="cls-43" d="M805.42,366.74c6.43,2.62,13.61-2.39,19.25-8.16" transform="translate(-517.13 -236.2)"/><path class="cls-34" d="M798.8,339.88s8.49,5.68,7.45,12.51S807.6,372.14,810,373c0,0,1.82-2.38,1.16-3.41s-3.71-8-3-9.42,5.4-18.4-10.29-21.92C797.84,338.22,796.94,338.41,798.8,339.88Z" transform="translate(-517.13 -236.2)"/><path class="cls-8" d="M799.69,388s-5.74,6.39-9,2.45-.92-26.79-4.15-32.74,6.6-15.68,6.6-15.68l4.94-3.67s11.43,5.25,10,13.8,0,14,0,14S815,378,799.69,388Z" transform="translate(-517.13 -236.2)"/><path class="cls-35" d="M790.58,342.62l7.52-4.29s3.43,7.15-8.56,4.29" transform="translate(-517.13 -236.2)"/><path class="cls-34" d="M797.19,343.32s-5-2.42-7.39-.7-4.22,45.28-1,50.32,19.7-7.37,18.85-11.17-6-4.94-5.46-9.88S803.11,346.1,797.19,343.32Z" transform="translate(-517.13 -236.2)"/><polygon class="cls-44" points="297.9 97.81 319.58 92.27 320.46 126.69 298.2 133.57 297.9 97.81"/><line class="cls-45" x1="309.31" y1="100.81" x2="317.05" y2="98.76"/><line class="cls-45" x1="309.33" y1="104.6" x2="316.73" y2="102.5"/><line class="cls-45" x1="300.18" y1="110.84" x2="316.75" y2="106.26"/><line class="cls-45" x1="299.81" y1="114.35" x2="316.61" y2="109.79"/><line class="cls-45" x1="299.84" y1="118.18" x2="317.02" y2="113.64"/><line class="cls-45" x1="299.58" y1="122.62" x2="316.76" y2="118.08"/><line class="cls-45" x1="299.68" y1="126.78" x2="316.86" y2="122.25"/><polygon class="cls-41" points="307.51 100.18 300.28 102.23 300.34 108.96 307.54 106.92 307.51 100.18"/><path class="cls-35" d="M820.77,360.45s1.21-2.65,1.73-2.34-.28,1.62-.28,1.62,4.52-1.34,6.12-.57-5.35,4-7.12,3.92S820.77,360.45,820.77,360.45Z" transform="translate(-517.13 -236.2)"/><polygon class="cls-35" points="303.96 123.97 299.38 125.69 299.88 128.69 305.66 126.19 303.96 123.97"/><path class="cls-34" d="M796.18,347.51c-.8-3.89-6.21-4.39-8-.84-3,6-7.12,17.4.22,24.24,10.35,9.64,31.41-6.77,31.41-6.77l.44-4.2s-21,8.9-24.58,3.88C793.21,360.37,797.24,352.69,796.18,347.51Z" transform="translate(-517.13 -236.2)"/><path class="cls-42" d="M807.63,364.24c-5.15,1.76-10.24,1.81-11.84-.42-2.48-3.45,1.55-11.13.49-16.31-.8-3.89-6.21-4.39-8-.84" transform="translate(-517.13 -236.2)"/><path class="cls-42" d="M788.52,370.91c5.08,4.73,13.57,2.6,20.89-.79" transform="translate(-517.13 -236.2)"/><path class="cls-38" d="M792.37,323.65s-.52,3.68.9,2.68,2.68-6.8,2.68-6.8,9.77,5.13,9.87,1.33-3.53-9.17-11.69-5.51c0,0-2.72-3.26-5.84-.22-2.88,2.81.22,13.77.22,13.77l1.2-1.79s-2.23-4.76.87-4.89A1.88,1.88,0,0,1,792.37,323.65Z" transform="translate(-517.13 -236.2)"/><path class="cls-7" d="M884.52,554.94s5.09,9.34.55,15.65-18.62,1-18.62,1-3.93-11.05,1.89-16.67S884.52,554.94,884.52,554.94Z" transform="translate(-517.13 -236.2)"/><path class="cls-8" d="M868.16,567.68a2.18,2.18,0,0,0-3.59-.36c-3.41,4.09-11.8,14.61-12.28,20.17-.61,7,15.9,12.21,15.9,12.21l2.07-3s-12-8.16-10.19-10.08C861.66,584.94,871.22,573.35,868.16,567.68Z" transform="translate(-517.13 -236.2)"/><path class="cls-46" d="M869.11,598.36l1.15-1.66s-7.19-4.88-9.6-8" transform="translate(-517.13 -236.2)"/><path class="cls-8" d="M890.45,605.13H860.62l2.85-31.31a12.15,12.15,0,0,1,12.07-10.74h0a12.16,12.16,0,0,1,12.07,10.74Z" transform="translate(-517.13 -236.2)"/><path class="cls-8" d="M883,567.68a2.18,2.18,0,0,1,3.59-.36c3.41,4.09,11.8,14.61,12.28,20.17.62,7-15.9,12.21-15.9,12.21l-2.07-3s12-8.16,10.19-10.08C889.46,584.94,879.89,573.35,883,567.68Z" transform="translate(-517.13 -236.2)"/><path class="cls-46" d="M890,585.45c-2.24-2.7-6.82-8.9-7.57-13.84" transform="translate(-517.13 -236.2)"/><path class="cls-46" d="M882,598.36l-1.15-1.66s7.19-4.88,9.6-8" transform="translate(-517.13 -236.2)"/><path class="cls-46" d="M861.08,585.45c2.24-2.7,6.82-8.9,7.58-13.84" transform="translate(-517.13 -236.2)"/><path class="cls-47" d="M863.61,613.57,856.25,617s1,3.56,1.22,3.41,6.74-3.89,6.74-3.89Z" transform="translate(-517.13 -236.2)"/><path class="cls-48" d="M856.25,617s-8.21,2.66-8.16,5.74,9.38-2.33,9.38-2.33S859.11,618.47,856.25,617Z" transform="translate(-517.13 -236.2)"/><path class="cls-48" d="M854.08,617.85s.93-2.91,2.17-2.91a6.09,6.09,0,0,1,2.64.85L856.41,617Z" transform="translate(-517.13 -236.2)"/><path class="cls-7" d="M858,616.36s39.48-35.13,46-24-44.56,27.44-44.56,27.44Z" transform="translate(-517.13 -236.2)"/><path class="cls-47" d="M888.66,614.94l7.35,3.45s-1,3.56-1.22,3.41-6.74-3.89-6.74-3.89Z" transform="translate(-517.13 -236.2)"/><path class="cls-48" d="M896,618.39s8.21,2.66,8.16,5.74-9.38-2.33-9.38-2.33S893.15,619.83,896,618.39Z" transform="translate(-517.13 -236.2)"/><path class="cls-48" d="M898,619.22s-.93-2.91-2.17-2.91a6.14,6.14,0,0,0-2.64.84Z" transform="translate(-517.13 -236.2)"/><path class="cls-7" d="M893.26,616.9s-39.39-35.35-46-24.22,44.46,27.67,44.46,27.67Z" transform="translate(-517.13 -236.2)"/><path class="cls-49" d="M352.09,322H366a0,0,0,0,1,0,0v8.46a7,7,0,0,1-7,7h0a7,7,0,0,1-7-7V322A0,0,0,0,1,352.09,322Z"/><path class="cls-50" d="M874.38,557.73a2.59,2.59,0,0,0,4.13-.42" transform="translate(-517.13 -236.2)"/><path class="cls-47" d="M884,550.76s2.24-1.43,2.9.7-2.9,3.85-2.9,3.85Z" transform="translate(-517.13 -236.2)"/><path class="cls-47" d="M868.34,550.76s-2.24-1.43-2.9.7,2.9,3.85,2.9,3.85Z" transform="translate(-517.13 -236.2)"/><path class="cls-47" d="M876.43,563h0a8.09,8.09,0,0,1-8.09-8.08V539.68h16.18v15.26A8.09,8.09,0,0,1,876.43,563Z" transform="translate(-517.13 -236.2)"/><path class="cls-51" d="M873.21,551.41c0,.52-.26,1-.58,1s-.57-.43-.57-1,.26-1,.57-1S873.21,550.88,873.21,551.41Z" transform="translate(-517.13 -236.2)"/><path class="cls-51" d="M880.63,551.41c0,.52-.26,1-.57,1s-.57-.43-.57-1,.25-1,.57-1S880.63,550.88,880.63,551.41Z" transform="translate(-517.13 -236.2)"/><path class="cls-50" d="M876.37,559.67s3,1.15,3.12-2" transform="translate(-517.13 -236.2)"/><path class="cls-50" d="M876.73,551.41s-.4,4-1.46,5.48,2,0,2,0" transform="translate(-517.13 -236.2)"/><path class="cls-7" d="M883.14,539.68s-4.93,10.92-14.8,11.08c0,0-4-6.81.32-12.94S880.85,534.89,883.14,539.68Z" transform="translate(-517.13 -236.2)"/><path class="cls-7" d="M880.85,539s4.18-3,6.09,0c2.3,3.6-2.32,11.45-2.32,11.45S879.65,548.62,880.85,539Z" transform="translate(-517.13 -236.2)"/><path class="cls-50" d="M872.63,562.08s4.82,2.67,8.69-.71" transform="translate(-517.13 -236.2)"/><path class="cls-52" d="M866.85,551.73s-.9.72,0,1.2" transform="translate(-517.13 -236.2)"/><path class="cls-52" d="M885.25,551.73s.9.72,0,1.2" transform="translate(-517.13 -236.2)"/><polygon class="cls-44" points="378.39 325.8 357.52 339.87 357.52 372.69 378.98 359.37 378.39 325.8"/><polygon class="cls-39" points="337.43 325.8 358.31 339.87 358.31 372.69 336.85 359.37 337.43 325.8"/><line class="cls-53" x1="368.25" y1="338.21" x2="360.8" y2="343.17"/><line class="cls-53" x1="368.32" y1="341.76" x2="361.19" y2="346.37"/><line class="cls-53" x1="377.23" y1="339.45" x2="361.26" y2="349.89"/><line class="cls-53" x1="377.67" y1="342.4" x2="361.49" y2="353.04"/><line class="cls-53" x1="377.74" y1="345.98" x2="361.19" y2="356.99"/><line class="cls-53" x1="378.1" y1="349.89" x2="361.54" y2="360.9"/><line class="cls-53" x1="378.1" y1="353.86" x2="361.54" y2="364.87"/><polygon class="cls-41" points="369.95 336.03 376.92 331.53 377.04 337.85 370.09 342.33 369.95 336.03"/><line class="cls-53" x1="348.28" y1="338.71" x2="355.73" y2="343.67"/><line class="cls-53" x1="348.2" y1="342.26" x2="355.34" y2="346.87"/><line class="cls-53" x1="339.29" y1="339.95" x2="355.26" y2="350.39"/><line class="cls-53" x1="338.85" y1="342.9" x2="355.04" y2="353.55"/><line class="cls-53" x1="338.79" y1="346.48" x2="355.34" y2="357.5"/><line class="cls-53" x1="338.43" y1="350.39" x2="354.98" y2="361.4"/><line class="cls-53" x1="338.43" y1="354.36" x2="354.98" y2="365.38"/><polygon class="cls-41" points="346.57 336.54 339.6 332.03 339.49 338.35 346.43 342.83 346.57 336.54"/><line class="cls-54" x1="402.77" y1="263.1" x2="414.6" y2="232.21"/><line class="cls-54" x1="408.68" y1="266.73" x2="421.53" y2="255.11"/><line class="cls-54" x1="413.68" y1="274.91" x2="434.23" y2="270.45"/><line class="cls-54" x1="52.67" y1="148.26" x2="55.96" y2="114.79"/><path class="cls-54" d="M555,389.33c-.16-1.56-20.71-23.8-20.71-23.8" transform="translate(-517.13 -236.2)"/><line class="cls-54" x1="31.33" y1="168.57" x2="1.91" y2="173.06"/><path class="cls-55" d="M614.28,563.81s-24.5-4.93-23.79,15.66,28.78,22.73,28.78,22.73" transform="translate(-517.13 -236.2)"/><path class="cls-56" d="M658.18,551.42H662a43.19,43.19,0,0,1,43.19,43.19v47a0,0,0,0,1,0,0H615a0,0,0,0,1,0,0v-47A43.19,43.19,0,0,1,658.18,551.42Z" transform="translate(803.05 956.83) rotate(180)"/><ellipse class="cls-57" cx="142.96" cy="315.22" rx="45.1" ry="19.18"/><path class="cls-58" d="M706.57,567a6.4,6.4,0,0,1-1.38,3.76v-7.51A6.39,6.39,0,0,1,706.57,567Z" transform="translate(-517.13 -236.2)"/><path class="cls-58" d="M660.09,550.39a117.7,117.7,0,0,1,15.7,1h-31.4A117.7,117.7,0,0,1,660.09,550.39Z" transform="translate(-517.13 -236.2)"/><path class="cls-58" d="M613.61,567a6.46,6.46,0,0,1,1.38-3.75v7.51A6.47,6.47,0,0,1,613.61,567Z" transform="translate(-517.13 -236.2)"/><path class="cls-56" d="M705.19,551.42v4.82a38.45,38.45,0,0,0-8.66-4.82Z" transform="translate(-517.13 -236.2)"/><path class="cls-56" d="M615,551.42h8.66a38.45,38.45,0,0,0-8.66,4.82Z" transform="translate(-517.13 -236.2)"/><path class="cls-15" d="M660.09,550.39a117.7,117.7,0,0,0-15.7,1H623.65c9.19-3.79,21.93-6.07,36.44-6.07s27.25,2.28,36.44,6.07H675.79A117.7,117.7,0,0,0,660.09,550.39Z" transform="translate(-517.13 -236.2)"/><path class="cls-20" d="M660.09,583.7c23.07,0,40.25-6.23,45.1-12.9v7.05c-8.63,6.61-25.2,10.89-45.1,10.89s-36.47-4.28-45.1-10.89V570.8C619.84,577.47,637,583.7,660.09,583.7Z" transform="translate(-517.13 -236.2)"/><path class="cls-20" d="M660.09,597.9c23.07,0,40.25-6.23,45.1-12.9v7.06c-8.63,6.6-25.2,10.89-45.1,10.89s-36.47-4.29-45.1-10.89V585C619.84,591.67,637,597.9,660.09,597.9Z" transform="translate(-517.13 -236.2)"/><ellipse class="cls-59" cx="142.96" cy="315.22" rx="42.26" ry="17.97"/><path class="cls-60" d="M660.09,539.85c-20.77,0-38,6.37-41.58,14.77a8.34,8.34,0,0,1-.67-3.2c0-9.92,18.91-18,42.25-18s42.26,8,42.26,18a8.18,8.18,0,0,1-.68,3.2C698.12,546.22,680.86,539.85,660.09,539.85Z" transform="translate(-517.13 -236.2)"/><path class="cls-61" d="M660.17,555.21s36.46-50.52,7.09-60.18-27.47,17.77-23.64,23.52,21.22,2.72,16.47-10" transform="translate(-517.13 -236.2)"/><path class="cls-61" d="M661.67,553.39s7.59-27.49-6.55-27-9,12-6.4,13.87,9.54-2.22,5.47-6.94" transform="translate(-517.13 -236.2)"/><path class="cls-62" d="M815.22,499.35s-10.71-39.46,1.11-41S815.22,499.35,815.22,499.35Z" transform="translate(-517.13 -236.2)"/><path class="cls-63" d="M815.2,502.72s-.37-28.25,1.7-39.18" transform="translate(-517.13 -236.2)"/><path class="cls-62" d="M812.23,507.15s-23.87-33.19-13.35-38.8S812.23,507.15,812.23,507.15Z" transform="translate(-517.13 -236.2)"/><path class="cls-63" d="M813.39,510.32S803.14,484,801.24,473" transform="translate(-517.13 -236.2)"/><path class="cls-62" d="M816.33,507.15s23.87-33.19,13.35-38.8S816.33,507.15,816.33,507.15Z" transform="translate(-517.13 -236.2)"/><path class="cls-63" d="M815.17,510.32S825.42,484,827.32,473" transform="translate(-517.13 -236.2)"/><path class="cls-30" d="M802,502.45l3.77,13.38a9.51,9.51,0,0,0,9.14,6.92h0a9.49,9.49,0,0,0,9.27-7.44L827,502.45Z" transform="translate(-517.13 -236.2)"/><rect class="cls-30" x="284.86" y="261.11" width="25.03" height="5.14"/><rect class="cls-32" x="284.86" y="264.8" width="25.03" height="2.79"/><line class="cls-64" x1="304.02" y1="269.25" x2="300.24" y2="285.57"/><line class="cls-64" x1="306.2" y1="270.14" x2="304.74" y2="276.43"/><line class="cls-64" x1="303.59" y1="277.41" x2="302.13" y2="283.69"/><path class="cls-5" d="M597.07,571.68c1.66.26,8.57,1,12.39-4.25a1.14,1.14,0,0,0-.11-1.47l-.41-.42a1.15,1.15,0,0,1,0-1.63c2.34-2.25,8.45-8.78,4.18-11.64s-9.21,3.24-11.12,5.83a1.15,1.15,0,0,1-1.74.12h0a1.15,1.15,0,0,0-1.75.12c-1.87,2.54-5.95,9-2.08,13A1.09,1.09,0,0,0,597.07,571.68Z" transform="translate(-517.13 -236.2)"/><path class="cls-5" d="M587.08,559c-2.34-1.74-11.59-9.42-9.74-20.48a2,2,0,0,1,2-1.65h1a2,2,0,0,0,2-2c0-5.62.65-21.09,9.36-19.27,8.45,1.76,7.13,15.33,6.23,20.82a2,2,0,0,0,2,2.3h0a2,2,0,0,1,2,2.31c-.87,5.39-4,18.32-13.59,18.34A2,2,0,0,1,587.08,559Z" transform="translate(-517.13 -236.2)"/><path class="cls-5" d="M577.54,571.92c-2.25.36-11.6,1.33-16.77-5.74a1.55,1.55,0,0,1,.15-2l.55-.56a1.56,1.56,0,0,0,0-2.2c-3.17-3-11.44-11.89-5.66-15.76,5.6-3.76,12.47,4.39,15.05,7.89a1.56,1.56,0,0,0,2.36.16h0a1.54,1.54,0,0,1,2.36.17c2.53,3.43,8.06,12.24,2.82,17.62A1.47,1.47,0,0,1,577.54,571.92Z" transform="translate(-517.13 -236.2)"/><path class="cls-65" d="M591.18,524.1s-6.18,21.66-1.71,75.24" transform="translate(-517.13 -236.2)"/><path class="cls-65" d="M558.46,547.58s17.38,27.81,29.83,33.79" transform="translate(-517.13 -236.2)"/><path class="cls-65" d="M610.7,554.51s-13.27,20.78-22.48,25.2" transform="translate(-517.13 -236.2)"/><path class="cls-20" d="M568.69,595.48,574.46,616a14.52,14.52,0,0,0,14,10.59h0a14.54,14.54,0,0,0,14.19-11.38L607,595.48Z" transform="translate(-517.13 -236.2)"/><rect class="cls-20" x="51.56" y="351.4" width="38.33" height="7.87"/><rect class="cls-32" x="51.56" y="357.05" width="38.33" height="4.26"/><line class="cls-66" x1="80.89" y1="363.86" x2="75.1" y2="388.85"/><line class="cls-66" x1="84.22" y1="365.24" x2="81.99" y2="374.86"/><line class="cls-66" x1="80.22" y1="376.35" x2="77.99" y2="385.98"/></svg>