<svg id="Layer_1" data-name="Layer 1" xmlns="http://www.w3.org/2000/svg" viewBox="0 0 904.68 667.37"><defs><style>.cls-1{fill:#7c7c7c;}.cls-2{fill:#efead4;}.cls-3{fill:#c9c9c9;}.cls-4{fill:#7df3f9;opacity:0.41;}</style></defs><polygon class="cls-1" points="904.68 667.37 12.52 652.03 28.05 147.03 876.63 114.96 904.68 667.37"/><rect class="cls-2" y="114.96" width="876.63" height="520.34"/><rect class="cls-3" x="41.17" y="162.47" width="798.88" height="2.85"/><rect class="cls-3" x="41.17" y="201.03" width="798.88" height="2.85"/><rect class="cls-3" x="41.17" y="239.6" width="798.88" height="2.85"/><rect class="cls-3" x="41.17" y="278.17" width="798.88" height="2.85"/><rect class="cls-3" x="41.17" y="316.74" width="798.88" height="2.85"/><rect class="cls-3" x="41.17" y="355.3" width="798.88" height="2.85"/><rect class="cls-3" x="41.17" y="393.87" width="798.88" height="2.85"/><rect class="cls-3" x="41.17" y="432.44" width="798.88" height="2.85"/><rect class="cls-3" x="41.17" y="471.01" width="798.88" height="2.85"/><rect class="cls-3" x="41.17" y="509.57" width="798.88" height="2.85"/><rect class="cls-3" x="41.17" y="548.14" width="798.88" height="2.85"/><rect class="cls-3" x="41.17" y="586.71" width="798.88" height="2.85"/><path class="cls-4" d="M346.27,269.45a176.09,176.09,0,0,1,4.5-24.53,177.7,177.7,0,0,0,26.36,12.64,36.61,36.61,0,0,1,.12-12.87l12.1,5.45a116.29,116.29,0,0,0,.8-18.56,87.44,87.44,0,0,0,22,13.13c-28.45-64.53-58.36-128.18-84.65-194.37-.25,5,.24,16,0,20.94-11-3.33-15.95-15-26.94-18.3q3.33,19.47,6.67,38.94A106.27,106.27,0,0,0,266,56.19q3.54,20.5,9,40.58a234.87,234.87,0,0,0-32.23-28.53C248.47,82,254.88,94.24,259,103q9.76,20.7,19.72,41.31c13.19,27.18,26.81,54.17,41.45,80.6Q332.69,247.49,346.27,269.45Z" transform="translate(-230.27 -50.34)"/><path class="cls-4" d="M918.78,208.53a176.6,176.6,0,0,1,24.83-2.3,177.9,177.9,0,0,0-5.05,28.8A36.56,36.56,0,0,1,951,231.67q-1,6.56-2,13.12a117.15,117.15,0,0,0,18.1-4.24,87.17,87.17,0,0,0-6.72,24.68c54.45-44.82,107.66-90.8,164.29-134-4.86,1.11-15.31,4.55-20.16,5.66.23-11.49,10.11-19.4,10.35-30.89L1079.16,123a106.39,106.39,0,0,0,23.28-49.31q-18.78,8.94-36.64,19.65a235,235,0,0,0,18.78-38.74c-11.72,9.18-21.77,18.66-29.07,25q-17.29,15-34.45,30.15c-22.61,20-44.91,40.44-66.41,61.67C942.4,183.47,930.4,195.83,918.78,208.53Z" transform="translate(-230.27 -50.34)"/></svg>