<svg id="Layer_1" data-name="Layer 1" xmlns="http://www.w3.org/2000/svg" viewBox="0 0 1050.09 778.61"><defs><style>.cls-1{fill:#f0fcff;}.cls-2{fill:#c9c9c9;}.cls-3{fill:#f7ac63;opacity:0.41;}.cls-4{fill:#7c7c7c;}</style></defs><rect class="cls-1" x="264.51" y="146.82" width="876.63" height="520.34" transform="translate(-227.39 162.04) rotate(-12.13)"/><rect class="cls-2" x="301.02" y="232.84" width="3.12" height="520.34" transform="translate(-254.4 79.86) rotate(-12.13)"/><rect class="cls-2" x="333.13" y="225.94" width="3.12" height="520.34" transform="translate(-252.23 86.45) rotate(-12.13)"/><rect class="cls-2" x="365.24" y="219.04" width="3.12" height="520.34" transform="translate(-250.07 93.04) rotate(-12.13)"/><rect class="cls-2" x="397.35" y="212.14" width="3.12" height="520.34" transform="translate(-247.9 99.64) rotate(-12.13)"/><rect class="cls-2" x="429.46" y="205.24" width="3.12" height="520.34" transform="translate(-245.73 106.23) rotate(-12.13)"/><rect class="cls-2" x="461.57" y="198.34" width="3.12" height="520.34" transform="translate(-243.57 112.82) rotate(-12.13)"/><rect class="cls-2" x="493.68" y="191.44" width="3.12" height="520.34" transform="translate(-241.4 119.42) rotate(-12.13)"/><rect class="cls-2" x="525.79" y="184.54" width="3.12" height="520.34" transform="translate(-239.23 126.01) rotate(-12.13)"/><rect class="cls-2" x="557.9" y="177.64" width="3.12" height="520.34" transform="translate(-237.08 132.62) rotate(-12.13)"/><rect class="cls-2" x="590.01" y="170.73" width="3.12" height="520.34" transform="translate(-234.91 139.21) rotate(-12.13)"/><rect class="cls-2" x="622.12" y="163.83" width="3.12" height="520.34" transform="translate(-232.74 145.81) rotate(-12.13)"/><rect class="cls-2" x="654.23" y="156.93" width="3.12" height="520.34" transform="translate(-230.57 152.38) rotate(-12.13)"/><rect class="cls-2" x="686.34" y="150.03" width="3.12" height="520.34" transform="translate(-228.4 158.97) rotate(-12.13)"/><rect class="cls-2" x="718.45" y="143.13" width="3.12" height="520.34" transform="translate(-226.23 165.56) rotate(-12.13)"/><rect class="cls-2" x="750.56" y="136.23" width="3.12" height="520.34" transform="translate(-224.06 172.16) rotate(-12.13)"/><rect class="cls-2" x="782.67" y="129.33" width="3.12" height="520.34" transform="translate(-221.9 178.75) rotate(-12.13)"/><rect class="cls-2" x="814.78" y="122.43" width="3.12" height="520.34" transform="translate(-219.73 185.34) rotate(-12.13)"/><rect class="cls-2" x="846.88" y="115.53" width="3.12" height="520.34" transform="translate(-217.56 191.94) rotate(-12.13)"/><rect class="cls-2" x="878.99" y="108.63" width="3.12" height="520.34" transform="translate(-215.4 198.53) rotate(-12.13)"/><rect class="cls-2" x="911.1" y="101.72" width="3.12" height="520.34" transform="translate(-213.24 205.15) rotate(-12.13)"/><rect class="cls-2" x="943.21" y="94.82" width="3.12" height="520.34" transform="translate(-211.07 211.74) rotate(-12.13)"/><rect class="cls-2" x="975.32" y="87.92" width="3.12" height="520.34" transform="translate(-208.9 218.34) rotate(-12.13)"/><rect class="cls-2" x="1007.43" y="81.02" width="3.12" height="520.34" transform="translate(-206.73 224.9) rotate(-12.13)"/><rect class="cls-2" x="1039.54" y="74.12" width="3.12" height="520.34" transform="translate(-204.56 231.49) rotate(-12.13)"/><rect class="cls-2" x="1071.65" y="67.22" width="3.12" height="520.34" transform="translate(-202.4 238.08) rotate(-12.13)"/><rect class="cls-2" x="1103.76" y="60.32" width="3.12" height="520.34" transform="translate(-200.23 244.68) rotate(-12.13)"/><rect class="cls-2" x="750.05" y="195.28" width="3.12" height="876.41" transform="translate(132.64 1506.7) rotate(-102.13)"/><rect class="cls-2" x="743.15" y="163.17" width="3.12" height="876.41" transform="translate(155.68 1461.09) rotate(-102.13)"/><rect class="cls-2" x="736.25" y="131.06" width="3.12" height="876.41" transform="translate(178.72 1415.49) rotate(-102.13)"/><rect class="cls-2" x="729.35" y="98.95" width="3.12" height="876.41" transform="translate(201.76 1369.89) rotate(-102.13)"/><rect class="cls-2" x="722.45" y="66.84" width="3.12" height="876.41" transform="translate(224.8 1324.28) rotate(-102.13)"/><rect class="cls-2" x="715.55" y="34.73" width="3.12" height="876.41" transform="translate(247.84 1278.68) rotate(-102.13)"/><rect class="cls-2" x="708.65" y="2.62" width="3.12" height="876.41" transform="translate(270.91 1233.08) rotate(-102.13)"/><rect class="cls-2" x="701.75" y="-29.49" width="3.12" height="876.41" transform="translate(293.95 1187.48) rotate(-102.13)"/><rect class="cls-2" x="694.85" y="-61.6" width="3.12" height="876.41" transform="translate(316.97 1141.87) rotate(-102.13)"/><rect class="cls-2" x="687.94" y="-93.71" width="3.12" height="876.41" transform="translate(340.01 1096.27) rotate(-102.13)"/><rect class="cls-2" x="681.04" y="-125.82" width="3.12" height="876.41" transform="translate(363.05 1050.66) rotate(-102.13)"/><rect class="cls-2" x="674.14" y="-157.93" width="3.12" height="876.41" transform="translate(386.1 1005.06) rotate(-102.13)"/><rect class="cls-2" x="667.24" y="-190.04" width="3.12" height="876.41" transform="translate(409.14 959.46) rotate(-102.13)"/><rect class="cls-2" x="660.34" y="-222.15" width="3.12" height="876.41" transform="translate(432.18 913.85) rotate(-102.13)"/><rect class="cls-2" x="653.44" y="-254.26" width="3.12" height="876.41" transform="translate(455.22 868.25) rotate(-102.13)"/><path class="cls-3" d="M157.57,317.71a173.53,173.53,0,0,1,23.77-7.52,178.18,178.18,0,0,0,1.18,29.21A36.84,36.84,0,0,1,194,333.47q.42,6.63.85,13.25a117.12,117.12,0,0,0,16.78-8,87.21,87.21,0,0,0-1.32,25.54C254,308.92,296.18,252.69,342.35,198.46c-4.51,2.12-14,7.7-18.5,9.81-2.21-11.27,5.76-21.1,3.56-32.37L296.12,200a106.27,106.27,0,0,0,12.28-53.12q-16.45,12.71-31.63,27A234.81,234.81,0,0,0,286.9,132c-9.5,11.46-17.32,22.86-23.1,30.6Q250.09,181,236.53,199.41c-17.84,24.38-35.3,49.05-51.8,74.37Q170.62,295.41,157.57,317.71Z" transform="translate(-157.57 5.28)"/><path class="cls-3" d="M990.33-5.28A177.19,177.19,0,0,1,1001.46,17a177.24,177.24,0,0,0-28.67,5.72,36.86,36.86,0,0,1,7.64,10.36l-13,2.91A117.13,117.13,0,0,0,978,51.36,86.88,86.88,0,0,0,952.54,54c61.5,34.51,123.63,67.46,184.39,104.6-2.79-4.12-9.78-12.62-12.57-16.74,10.79-3.94,21.74,2.4,32.53-1.54l-28.72-27.14a106.42,106.42,0,0,0,54.4,3.85q-15.13-14.26-31.59-27a234.65,234.65,0,0,0,42.91,3.48c-12.8-7.6-25.28-13.54-33.82-18.05q-20.25-10.68-40.58-21.19c-26.86-13.82-54-27.22-81.54-39.57C1022.24,7.66,1006.37,1,990.33-5.28Z" transform="translate(-157.57 5.28)"/><polygon class="cls-4" points="83.14 347.04 145.01 778.61 1050.09 584.03 1028.45 574.53 171.39 758.73 83.14 347.04"/><polygon class="cls-4" points="939.99 162.89 1028.45 574.53 1050.09 584.03 939.99 162.89"/></svg>