<svg id="Layer_1" data-name="Layer 1" xmlns="http://www.w3.org/2000/svg" viewBox="0 0 674.71 793.25"><defs><style>.cls-1{fill:#7c7c7c;}.cls-2{fill:#f2c3fc;}.cls-3{fill:#7df3f9;opacity:0.41;}</style></defs><path class="cls-1" d="M394.37,102.05,365,287.57s-25,174.84-9.41,286.89C376,720.72,388.47,780.65,388.47,780.65l598.37-50.52s-37.5-38.13-66-105.7c-57.81-137-51.42-351.87-51.42-351.87l13.52-105.84Z" transform="translate(-350.49 12.6)"/><path class="cls-2" d="M394.37,102.05,388,215.41s-9.57,185.44,6,297.5c20.34,146.26,32.86,206.19,32.86,206.19l598.36-50.52s-37.49-38.13-66-105.71C901.38,425.84,907.77,211,907.77,211L921.3,105.17Z" transform="translate(-350.49 12.6)"/><path class="cls-3" d="M666.76,215.22a175.72,175.72,0,0,1,13.29-21.11,176.13,176.13,0,0,0,19.78,21.53,36.84,36.84,0,0,1,4.89-11.91l9.21,9.56a116.58,116.58,0,0,0,7.64-16.94,86.86,86.86,0,0,0,15.51,20.35C734.62,146.21,730.49,76,730.66,4.79c-2.07,4.53-5.7,14.92-7.78,19.44-9-7.17-9.24-19.82-18.21-27q-4.14,19.32-8.27,38.64a106.39,106.39,0,0,0-25-48.47q-4.33,20.34-6.69,41A235,235,0,0,0,645.41-10c.16,14.88,1.57,28.63,2.16,38.27.92,15.23,1.88,30.46,3,45.68,2.15,30.14,4.78,60.25,8.55,90.23C661.24,181.23,663.76,198.27,666.76,215.22Z" transform="translate(-350.49 12.6)"/><path d="M497.28,328.73a1.56,1.56,0,0,1-1.51.74,2.25,2.25,0,0,1-2.21-1.58q-7.24-17.73-12.22-27.18t-7.75-9.44q-4.68,0-.15,33.11l0,.09a2.11,2.11,0,0,1,0,1.8A1.55,1.55,0,0,1,472,327a2.26,2.26,0,0,1-2.2-1.58q-1.44-3.51-4.1-10.89-3-8.26-5-13-2.7-6.58-4.21-9.36c-1-1.84-1.95-2.76-2.82-2.76q-2.94,0-3,10.93t1.1,25.78l.15,2.29a2.65,2.65,0,0,1-.38,1.49,1.32,1.32,0,0,1-1.18.61,4.08,4.08,0,0,1-1.45-.17,2.18,2.18,0,0,1-.87-1.06q-2.19-4.29-5.39-11.5-.93-1.85-2.82-6.06-6.93-14.83-9.75-20.07c-1.89-3.48-2.91-5.43-3.08-5.84a2.45,2.45,0,0,1,0-1.67q.3-1,.9-1c.93,0,1.95.67,3.08,2a60.76,60.76,0,0,1,4.11,7.72q3.29,6.76,7.71,16.78l5.92,13.44q-1.34-14.94-1.2-27.1T452,283.9c1.9,0,3.77,1.4,5.61,4.21a75,75,0,0,1,6,12.21q1.72,4.21,4.78,12.12l1.56,4a172,172,0,0,1-1.56-21.08q0-8.52,3.58-8.52,8.91,0,25.26,40.05A2.07,2.07,0,0,1,497.28,328.73Z" transform="translate(-350.49 12.6)"/><path d="M532.51,306.72c.43,1,.61,3.37.54,6.94a19.59,19.59,0,0,1-2.87,9.92q-2.76,4.57-9.51,4.57a18.76,18.76,0,0,1-10.7-3.51q-5.14-3.51-8.13-10.8a31.1,31.1,0,0,1-2.43-13.57,19.37,19.37,0,0,1,3.65-11,10.39,10.39,0,0,1,8.65-4.26,12.84,12.84,0,0,1,6,1.45,8,8,0,0,1,3.91,4.17,5.71,5.71,0,0,1-1,6,18.62,18.62,0,0,1-6.79,5.1,38.44,38.44,0,0,1-10,3.16,34.65,34.65,0,0,0,2.19,7.9,19.05,19.05,0,0,0,5.61,7.91,12.43,12.43,0,0,0,7.94,2.81q6.66,0,8.84-4.83a29.76,29.76,0,0,0,2.48-10.9c0-.23,0-.68,0-1.36s.13-1,.36-1C531.77,305.4,532.15,305.84,532.51,306.72Zm-16.72-17.3a8.69,8.69,0,0,0-3.65-.79,7.21,7.21,0,0,0-5.42,2.2,11.46,11.46,0,0,0-2.91,5.27,13.82,13.82,0,0,0-.42,5.44,22.07,22.07,0,0,0,7.47-2.28,20.9,20.9,0,0,0,5.74-4c1.4-1.47,1.9-2.67,1.52-3.6A4.21,4.21,0,0,0,515.79,289.42Z" transform="translate(-350.49 12.6)"/><path d="M572.66,306.72q.65,1.57.54,6.93a19.62,19.62,0,0,1-2.87,9.93q-2.77,4.56-9.52,4.57a18.75,18.75,0,0,1-10.69-3.51Q545,321.12,542,313.83a30.93,30.93,0,0,1-2.43-13.57,19.4,19.4,0,0,1,3.65-11,10.39,10.39,0,0,1,8.64-4.26,12.9,12.9,0,0,1,6,1.45,8,8,0,0,1,3.91,4.17,5.73,5.73,0,0,1-1,6,18.58,18.58,0,0,1-6.79,5.09,38.06,38.06,0,0,1-10,3.16,34.73,34.73,0,0,0,2.19,7.91,18.93,18.93,0,0,0,5.61,7.9,12.38,12.38,0,0,0,7.94,2.81q6.66,0,8.84-4.83a29.71,29.71,0,0,0,2.48-10.89c0-.23,0-.69,0-1.36s.14-1,.37-1C571.91,305.4,572.3,305.84,572.66,306.72Zm-16.72-17.31a8.92,8.92,0,0,0-3.65-.79,7.23,7.23,0,0,0-5.42,2.2,11.33,11.33,0,0,0-2.91,5.27,13.87,13.87,0,0,0-.42,5.45,22.27,22.27,0,0,0,7.46-2.29,20.61,20.61,0,0,0,5.75-4q2.09-2.19,1.52-3.6A4.25,4.25,0,0,0,555.94,289.41Z" transform="translate(-350.49 12.6)"/><path d="M611.26,293.71a8.76,8.76,0,0,1-4,1.23L599,296.52l-5.23,1c1.24,3,2.59,6.24,4,9.57s2.78,6.27,4,8.79a50.5,50.5,0,0,0,4.4,7.81c1.32,1.82,2.05,2.84,2.21,3.08a1.37,1.37,0,0,1-.42,1.62,2.43,2.43,0,0,1-1.73.75,1.81,1.81,0,0,1-1-.31,4.56,4.56,0,0,1-1-1,33,33,0,0,1-2.86-4.57q-1.83-3.33-3.75-7.37-1.73-3.6-3.81-8.39t-3.92-9.27c-3,.53-6.07,1.18-9.16,1.94a36.55,36.55,0,0,1-5.05,1,4.67,4.67,0,0,1-2.2-.61,3.29,3.29,0,0,1-1.59-1.67c-.31-.76-.26-1.26.17-1.49a5.62,5.62,0,0,1,2.45-.35,19.22,19.22,0,0,0,3.61-.49c1.54-.32,2.52-.54,2.93-.66,3.55-.76,6-1.26,7.27-1.49-.51-1.23-1.22-2.84-2.15-4.83q-1.83-4-2.68-6.15-1.41-3.42-2-5.31a12.58,12.58,0,0,1-.56-3.39c0-1.17.61-1.75,1.88-1.75a2.06,2.06,0,0,1,1.15.26,2.24,2.24,0,0,1,.65,1,29.81,29.81,0,0,1,.83,3.07,49.28,49.28,0,0,0,2.32,6.76q1.34,3.26,3.15,7.29l1.06,2.38q3.64-.61,14.07-3.26c.42-.11.64-.52.67-1.23s.22-1.05.57-1.05a4.37,4.37,0,0,1,2.39,1.1,5.66,5.66,0,0,1,1.91,2.24A1.82,1.82,0,0,1,611.26,293.71Z" transform="translate(-350.49 12.6)"/><path d="M611.78,274.12a6.93,6.93,0,0,1-3.49-1.23,5.85,5.85,0,0,1-2.34-2,1.92,1.92,0,0,1,.16-1.84,1.71,1.71,0,0,1,1.5-.88,8.4,8.4,0,0,1,2.74,1.41c.65.47,1.42,1.08,2.31,1.84a7.38,7.38,0,0,1,1.44,1.41C614.46,273.68,613.68,274.12,611.78,274.12Zm26.86,55.29a2,2,0,0,1-1.52.4c-.84-.06-2-1.38-3.39-4s-3.81-7.46-7.16-14.66q-3.26-7.12-6.29-13.92t-4.63-10.5a2.74,2.74,0,0,1-.29-1.45c.07-.32.39-.48,1-.48a3.75,3.75,0,0,1,3.19,1.67,35.15,35.15,0,0,1,3.14,6.41l4.14,10.36q3.63,8.88,6.33,14.23c.08.18,1.1,2.05,3.08,5.62a51.91,51.91,0,0,1,2.61,4.92A1.11,1.11,0,0,1,638.64,329.41Z" transform="translate(-350.49 12.6)"/><path d="M679.5,330.2a2.08,2.08,0,0,1-1.77.74,3.53,3.53,0,0,1-1.63-.39,2.21,2.21,0,0,1-1.06-1.1q-1.47-3.6-4-11.15-2.78-8.08-5-13.44-2.12-5.19-3.76-8.48t-2.78-3.29q-2.94,0-3.41,7.42t0,19.54l.13,3.52a1.73,1.73,0,0,1-.59,1.4,2.2,2.2,0,0,1-1.48.53,4.06,4.06,0,0,1-1.45-.18,2,2,0,0,1-.86-1.05l-3.64-7.2-6.46-12.65q-3.69-7.55-6.85-13.17a17.84,17.84,0,0,1-1.09-2,1.87,1.87,0,0,1,.25-2.15,2.92,2.92,0,0,1,2.25-.84q.87,0,3,4.22t6.38,13.61l2.25,4.66q4.32,8.86,5.37,11.24a6.81,6.81,0,0,0,0-1.19c0-.44,0-.92,0-1.45a175,175,0,0,1,.41-20.51q.75-8.2,4.56-8.21,2.68,0,5.56,4.61A96.48,96.48,0,0,1,669.83,305q3.52,8,9.8,23.37A1.71,1.71,0,0,1,679.5,330.2Z" transform="translate(-350.49 12.6)"/><path d="M730.06,339.37a19.7,19.7,0,0,1-2.58,9.13,20.41,20.41,0,0,1-5.36,5.84,10.37,10.37,0,0,1-6,2.24,4.11,4.11,0,0,1-2.68-.83,4.93,4.93,0,0,1-1.5-2c-.29-.7.68-1.52,2.89-2.46a17.21,17.21,0,0,0,8.25-6.5,13.49,13.49,0,0,0,2.44-8,24,24,0,0,0-1.91-9.13A88.84,88.84,0,0,0,719,318q-2.44-4.39-6.45-10.81-4.32-6.75-6.86-11.5a58,58,0,0,1-.56,9.75,46.17,46.17,0,0,1-2.83,11,24,24,0,0,1-4.18,7.46,6.9,6.9,0,0,1-5.26,2.46,6.52,6.52,0,0,1-4.7-2.06,16.68,16.68,0,0,1-3.57-5.66,33.51,33.51,0,0,1-2.1-14.06,32,32,0,0,1,3.42-13.88q3.07-5.79,8.36-5.79a5,5,0,0,1,3.35,1.31,8.27,8.27,0,0,1,2.28,3.16c.65,1.59.66,2.38,0,2.38-.17,0-.48-.22-.92-.66a11.08,11.08,0,0,0-1.39-1.19,2.37,2.37,0,0,0-1.34-.52c-2.94,0-5.24,1.66-6.91,5a28.22,28.22,0,0,0-2.74,11.73,26.88,26.88,0,0,0,1.52,11,10.42,10.42,0,0,0,2,3.43,3.44,3.44,0,0,0,2.47,1.05q2.07,0,4-2.46a28.75,28.75,0,0,0,3.85-7.73,39.09,39.09,0,0,0,2.19-10.85,57.64,57.64,0,0,0-.28-11.81,1.28,1.28,0,0,1,.21-.88.87.87,0,0,1,.76-.35,4.33,4.33,0,0,1,1.8.48,2.3,2.3,0,0,1,1.23,1,2.42,2.42,0,0,1,.18.75,1.21,1.21,0,0,1,0,.48q2.58,4.83,9,15,4.59,7.2,7.4,12.08a79.19,79.19,0,0,1,4.71,9.53A28,28,0,0,1,730.06,339.37Z" transform="translate(-350.49 12.6)"/><path d="M473.63,431.77c.3.49.65,1.07,1,1.75a10.33,10.33,0,0,1,.65,1.25,1.11,1.11,0,0,1-.56,1.25,3,3,0,0,1-1.9.57c-.46,0-1-.36-1.69-1.08a11,11,0,0,1-1.83-2.73,214,214,0,0,1-8.53-19.91l-5.07-13a47.85,47.85,0,0,1-9.7,8,4.8,4.8,0,0,1-2.09.84,2.34,2.34,0,0,1-1.33-.4,1.75,1.75,0,0,1-.69-.77c-.16-.53.24-1.1,1.22-1.71a34,34,0,0,0,5.61-4.24q2.37-2.24,4.68-4.79l.8-.85,0-.06-.29-.92-.18-.61c-.09-.29-.07-.47.05-.55a.37.37,0,0,1,.27-.12,2.42,2.42,0,0,1,1-.18,8,8,0,0,1,2.54.38,1.82,1.82,0,0,1,1.24,1.11,2,2,0,0,1-.38,1.71,18.38,18.38,0,0,1,1.36,2.94q1.26,3.61,5.41,13.93t5.69,13.57C471.49,428.17,472.4,429.73,473.63,431.77Z" transform="translate(-350.49 12.6)"/><path d="M532.63,430.9a5.73,5.73,0,0,1-2.26.87q-2.73.23-8.79.92c-3.49.43-5.88.7-7.15.81l-5.76.7c-3.05.38-5.55.66-7.48.83s-4.09.25-6.47.24a5.53,5.53,0,0,1-2.61-.75,3.52,3.52,0,0,1-1.73-2.09,1.82,1.82,0,0,1-.06-1.16,4.52,4.52,0,0,1,.67-1c2.2-2.34,4.05-4.45,5.57-6.31s3.36-4.28,5.52-7.24a39.66,39.66,0,0,0,4.6-7.79,9.78,9.78,0,0,0,.24-6.71,8.65,8.65,0,0,0-3.83-4.95,12.4,12.4,0,0,0-6.55-1.78,15,15,0,0,0-4.72.61,33.79,33.79,0,0,0-5.17,2.38A7.51,7.51,0,0,0,485,399.5l-1.09.88a14.62,14.62,0,0,1-1.69,1.27,2.84,2.84,0,0,1-1.38.54,2.22,2.22,0,0,1-2.33-1.66c-.29-.94.11-1.77,1.2-2.5.25-.16,1.18-.67,2.78-1.51a24.28,24.28,0,0,0,2.3-1.15,27.8,27.8,0,0,1,5.39-2.22,22.6,22.6,0,0,1,6-.63,16.59,16.59,0,0,1,9.25,2.68,12.3,12.3,0,0,1,5.27,6.7A11.34,11.34,0,0,1,511,408a19.47,19.47,0,0,1-2.16,5.39q-1.41,2.31-3.49,5.11-1.12,1.51-5.83,7.11l-2.86,3.46-.92,1.06c-.5.59-.71,1-.64,1.25.15.49.83.74,2.05.75a45.24,45.24,0,0,0,6.22-.51c2.54-.35,4.05-.57,4.53-.65l6.3-.87q1.46-.18,7.25-.75,5.13-.51,6.34-.75c.56-.32,1.17-.63,1.83-.94a4.17,4.17,0,0,1,1.37-.45c1,0,1.75.77,2.21,2.28A1.18,1.18,0,0,1,532.63,430.9Z" transform="translate(-350.49 12.6)"/><path d="M566.77,432a4.82,4.82,0,0,1-3-1.34,17.36,17.36,0,0,1-2.8-2.95,11.09,11.09,0,0,1-1.37-2.11,1.25,1.25,0,0,1,.4-1.28,1.92,1.92,0,0,1,1.44-.6c.46,0,1.25.49,2.39,1.48a36.62,36.62,0,0,1,3.31,3.29,9,9,0,0,1,1.86,2.61Q569.27,432,566.77,432ZM559.6,410.4a4.42,4.42,0,0,1-3.26-2,11.66,11.66,0,0,1-2.12-3.71,1.23,1.23,0,0,1,.4-1.28,2,2,0,0,1,1.44-.6q1.52,0,3.33,2.34a14.14,14.14,0,0,1,2.43,4.36Q562.11,410.42,559.6,410.4Z" transform="translate(-350.49 12.6)"/><path d="M627.4,423.66a17.72,17.72,0,0,1-6.36,8.79,17.09,17.09,0,0,1-10.64,3.38,14.29,14.29,0,0,1-9.41-3.36,17.67,17.67,0,0,1-5.59-8.59,44.61,44.61,0,0,1-2-12.74,37.06,37.06,0,0,1,1.6-11.63,2.5,2.5,0,0,1-1.25-.38,1.59,1.59,0,0,1-.81-.92c-.16-.53.08-1,.72-1.46a6.73,6.73,0,0,1,2.46-1,3.48,3.48,0,0,0,.37-.52,1,1,0,0,1,.94-.39,5.64,5.64,0,0,1,1.51.23,2.28,2.28,0,0,1,1,.46,28.86,28.86,0,0,1,4.22-.28,23,23,0,0,1,9.93,2.33,26.13,26.13,0,0,1,8.36,6.31,24,24,0,0,1,5.11,9A17.25,17.25,0,0,1,627.4,423.66ZM620,406.05a23.2,23.2,0,0,0-6.86-5.11,17.22,17.22,0,0,0-7.5-1.91,35.61,35.61,0,0,0-4.51.33l-1.53.18a30.47,30.47,0,0,0-1.78,11.78,46.26,46.26,0,0,0,1.93,12.53,14.37,14.37,0,0,0,3.8,6.35,9.32,9.32,0,0,0,6.63,2.52,12.56,12.56,0,0,0,8.34-3.1,17.31,17.31,0,0,0,5.32-7.75,13.93,13.93,0,0,0,.3-8.86A18,18,0,0,0,620,406.05Z" transform="translate(-350.49 12.6)"/><path d="M670.09,423.94a17.72,17.72,0,0,1-6.36,8.79,17.07,17.07,0,0,1-10.63,3.38,14.29,14.29,0,0,1-9.42-3.36,17.71,17.71,0,0,1-5.59-8.59,44.62,44.62,0,0,1-2-12.75,37.14,37.14,0,0,1,1.6-11.63,2.49,2.49,0,0,1-1.25-.37,1.62,1.62,0,0,1-.81-.92c-.16-.53.08-1,.72-1.46a6.38,6.38,0,0,1,2.47-1c.07-.08.19-.26.37-.52a1,1,0,0,1,.93-.39,5.57,5.57,0,0,1,1.51.22,2.2,2.2,0,0,1,1,.47,27.53,27.53,0,0,1,4.22-.28,23.16,23.16,0,0,1,9.93,2.32,26.31,26.31,0,0,1,8.36,6.32,24,24,0,0,1,5.11,9A17.18,17.18,0,0,1,670.09,423.94Zm-7.45-17.61a23.08,23.08,0,0,0-6.86-5.11,17.38,17.38,0,0,0-7.5-1.92,37.64,37.64,0,0,0-4.5.34l-1.54.17a30.69,30.69,0,0,0-1.78,11.78,46.39,46.39,0,0,0,1.93,12.54,14.43,14.43,0,0,0,3.8,6.34,9.28,9.28,0,0,0,6.63,2.52,12.51,12.51,0,0,0,8.34-3.09,17.29,17.29,0,0,0,5.32-7.75,13.93,13.93,0,0,0,.3-8.86A17.85,17.85,0,0,0,662.64,406.33Z" transform="translate(-350.49 12.6)"/></svg>