<svg id="Layer_1" data-name="Layer 1" xmlns="http://www.w3.org/2000/svg" viewBox="0 0 547.38 485.55"><defs><style>.cls-1{fill:#3d3516;}.cls-2{fill:#f7f5e4;}.cls-3{fill:#5d863b;}.cls-4{fill:#83bd41;}.cls-5{fill:#f7f4db;}.cls-6{fill:#af4025;}</style></defs><path class="cls-1" d="M138.83,553.67l-1.46,3.15c-2.54,5.51-.06,8.1,5.54,5.79l160.64-65.86-11.2-6.06Z" transform="translate(-65.99 -129.62)"/><path class="cls-1" d="M395,272.53l8.78.15c0-.21-.13-.44-.19-.67l-31-130.6c-1.42-5.88-5.22-6.55-8.54-1.49l-4.1,6.29,28.77,121.26A6.53,6.53,0,0,0,395,272.53Z" transform="translate(-65.99 -129.62)"/><path class="cls-1" d="M585.09,280.22,575,280a10.51,10.51,0,0,1-2.44,2.56L417.06,403.74A6.59,6.59,0,0,0,414.6,410l22.57,140.44c.43,2.69-.05,4.66-1.2,5.78l8.13,4.36c5.31,2.88,8.86.37,7.9-5.58L429.46,414.49a6.49,6.49,0,0,1,2.43-6.19L587.43,287.13C592.2,283.42,591.16,280.32,585.09,280.22Z" transform="translate(-65.99 -129.62)"/><path class="cls-2" d="M127.15,553.13c.65,1.85,2.9,2.29,6.35.88l10.75-4.41,2-4.29Z" transform="translate(-65.99 -129.62)"/><path class="cls-2" d="M241.73,284.29,83.86,302.92a13.16,13.16,0,0,0-2.3.5L240.1,284.7A7.35,7.35,0,0,0,241.73,284.29Z" transform="translate(-65.99 -129.62)"/><path class="cls-3" d="M309.49,484.43a6.51,6.51,0,0,0-5.6-.31l-6.11,2.5,11.2,6.05,9-3.69Z" transform="translate(-65.99 -129.62)"/><path class="cls-4" d="M429.59,545.72,324.33,489a6.53,6.53,0,0,0-5.61-.28L318,489l112.15,60.48A10.73,10.73,0,0,0,430,548Z" transform="translate(-65.99 -129.62)"/><path class="cls-4" d="M208.88,409.62a6.57,6.57,0,0,0-1.92-7.94L96.48,315.48c-4.79-3.71-3.77-7.3,2.22-8l168.87-20a6.63,6.63,0,0,0,4.73-2.92l83.57-127.84-4.74-20L257.45,280.05a6.55,6.55,0,0,1-4.73,2.94l-11,1.3a7.35,7.35,0,0,1-1.63.41L81.56,303.42c-3.85,1.28-4,4.35.06,7.52l110.49,86.18a6.56,6.56,0,0,1,1.92,7.94L128,548.23c-1,2.09-1.21,3.76-.81,4.9l19.08-7.82Z" transform="translate(-65.99 -129.62)"/><path class="cls-3" d="M257.45,280.05l93.68-143.27-.54-2.28c-1.39-5.87-5.22-6.55-8.53-1.49L244.83,281.77a6.58,6.58,0,0,1-3.1,2.52l11-1.3A6.55,6.55,0,0,0,257.45,280.05Z" transform="translate(-65.99 -129.62)"/><path class="cls-3" d="M194,405.06a6.56,6.56,0,0,0-1.92-7.94L81.62,310.94c-4.07-3.17-3.91-6.24-.06-7.52l-10.32,1.23c-6,.69-7,4.28-2.24,8l110.49,86.19a6.55,6.55,0,0,1,1.92,7.92L115.33,549.93c-2.53,5.48,0,8.07,5.54,5.79l6.28-2.59c-.4-1.14-.17-2.81.81-4.9Z" transform="translate(-65.99 -129.62)"/><path class="cls-3" d="M422.06,553.66c4.89,2.63,8.23.74,8.05-4.2L318,489l-9,3.69Z" transform="translate(-65.99 -129.62)"/><path class="cls-3" d="M568.33,275.75c-.19-1.45-2-2.38-5.25-2.44l-152.75-2.75-22.48-.4a6.6,6.6,0,0,1-6.29-5.05L355.87,156.77,272.3,284.61a6.63,6.63,0,0,1-4.73,2.92l-168.87,20c-6,.7-7,4.29-2.22,8L207,401.68a6.57,6.57,0,0,1,1.92,7.94L146.23,545.31l145-59.49a6.74,6.74,0,0,1,5.62.31l.91.49,6.11-2.5a6.51,6.51,0,0,1,5.6.31L318,489l.76-.31a6.53,6.53,0,0,1,5.61.28l105.26,56.77L407.42,407.61a6.57,6.57,0,0,1,2.43-6.23L565.38,280.23C567.57,278.53,568.52,277,568.33,275.75Z" transform="translate(-65.99 -129.62)"/><path class="cls-5" d="M470.22,453.68c-.06.53.07.17-.06.53-.18-4.41-.39-6.68-2.26-10.33-.37-.72-.85-1.63-1.42-2.57,1.9,4.1,2.75,8.22,2.07,11.93a13.09,13.09,0,0,1,0,3.59c-.64.35-1.36-.11-2,.23-.57.08-1.09-.66-1.68-1.8a22.18,22.18,0,0,1-3.89-2.09c2.49,2.55,4.88,4.61,6.9,4.2,6-1.2,2.93-9.21.6-14.1a25.11,25.11,0,0,1,1,3.84A27,27,0,0,1,470.22,453.68Z" transform="translate(-65.99 -129.62)"/><path class="cls-5" d="M468.47,443.27a26.05,26.05,0,0,0-3.69-6.75,40,40,0,0,1,2.14,3.68C467.24,440.87,467.83,442,468.47,443.27Z" transform="translate(-65.99 -129.62)"/><path class="cls-5" d="M461.6,432.63c1.13,1.29,2.21,2.59,3.18,3.89A24.87,24.87,0,0,0,461.6,432.63Z" transform="translate(-65.99 -129.62)"/><path class="cls-5" d="M447.63,443.56a5.31,5.31,0,0,0,1.3.66,2.4,2.4,0,0,1,.23-.38c-.41-.33-.81-.61-1.21-.9C447.84,443.17,447.74,443.36,447.63,443.56Z" transform="translate(-65.99 -129.62)"/><path class="cls-5" d="M445,441.3c.38.39.73.74,1.09,1.07a3.94,3.94,0,0,0,.31-.45L445,441.2Z" transform="translate(-65.99 -129.62)"/><path class="cls-5" d="M381.43,269c-.42-.28-.82-.55-1.25-.8.24.23.45.46.68.7C381,268.91,381.22,268.93,381.43,269Z" transform="translate(-65.99 -129.62)"/><path class="cls-5" d="M458.75,430.17a35.06,35.06,0,0,1,2.85,2.46l-.86-1a63.84,63.84,0,0,0-11.4-9.65c.4.34.82.71,1.26,1.13A51,51,0,0,1,458.75,430.17Z" transform="translate(-65.99 -129.62)"/><path class="cls-5" d="M224.47,412.56a42.89,42.89,0,0,1,3.53-3.25,17.53,17.53,0,0,1,4-2.36C229.2,407.41,226.47,409.9,224.47,412.56Z" transform="translate(-65.99 -129.62)"/><path class="cls-5" d="M321.94,292.93a82.8,82.8,0,0,0,5.58-6.51c1.5-2.1,2.71-4.32,4-6.52-2.08,1.83-3.6,4.59-5.16,6.74S323.38,290.8,321.94,292.93Z" transform="translate(-65.99 -129.62)"/><path class="cls-5" d="M254,350.32c.09,0,.17-.06.24-.1-.22-.18,0-.83.44-1.52C253.86,349.36,253.43,350,254,350.32Z" transform="translate(-65.99 -129.62)"/><polygon class="cls-5" points="246.45 191.99 246.45 191.99 246.45 191.99 246.45 191.99"/><path class="cls-5" d="M466.48,441.31c.57.94,1,1.85,1.42,2.57,1.87,3.65,2.08,5.92,2.26,10.33.13-.36,0,0,.06-.53a27,27,0,0,0-.72-6.57,25.11,25.11,0,0,0-1-3.84c-.64-1.3-1.23-2.4-1.55-3.07a40,40,0,0,0-2.14-3.68c-1-1.3-2-2.6-3.18-3.89a35.06,35.06,0,0,0-2.85-2.46A43.57,43.57,0,0,1,466.48,441.31Z" transform="translate(-65.99 -129.62)"/><path class="cls-5" d="M468.52,439.25c-2.29-5.33-6.32-9.32-10.51-13.09-3.88-3.44-8.19-7.58-12.88-10.2-4-2.24-10.8-10.71-12.92-9.7a14.85,14.85,0,0,0-4.46,1.86,2.39,2.39,0,0,0,.13.28c-3,.26-6.3,4.6-8.27,7.11a14.37,14.37,0,0,1-5.62,0,3.11,3.11,0,0,0,.3,1.65h-.08c.44,9.15-13.77,4.74-18.16,4.06-7.85-1.22-15.58-.39-23.58-1.31-1.56-.18-3.09-.26-4.63-.31a40.82,40.82,0,0,0-4.19-1l-2.71-.72c-.16-.05-.35-.09-.64-.19-.15.1-2.77-.32-2.9-.24a2.2,2.2,0,0,0,.23,1,2.66,2.66,0,0,1-1.49-2.21c.27-5.39-3.69-19.67-4.5-24.39.12.29.25.57.34.83.17-.38.31-.77.45-1.14.12.23.25.46.38.76,2.19,4.62,3.61-8.3,3.14-9.81a6.18,6.18,0,0,0-1.72-2.24c0-.41-.1-.81-.17-1.25.2.32.4.59.62.91,0-.09,1.27,1.17,1.31,1.07.47.41,1,.8,1.42,1.16a10.38,10.38,0,0,0,.41-8.65c2.86-2.91.5-8,1.17-11,1.19-5.42,2.12-7.88,1.43-13.58s.43-12.24,4.62-16.9c1.72-1.9,4-3.35,5.7-5.42a17.14,17.14,0,0,0,2.95-5.8c2.24-3,4.71-6.06,7-8.91,2.7,1.42,5.25,3,7.62,4.44,0-.07,1.71,2,1.71,2,.35,0,2.08-2,3.3-3.36a11.72,11.72,0,0,1,2.22-1.15c1.65-.64,3.54-.79,5.26-1.29,2.53.91,4,2.29,5.42,6.88,3.66,11.51,18,20.37,25.26,29.68,2.86,3.7,3.42,8.48,5.43,12.77,2.37,5.13,5.65,7.19,8.27,5.19,1.73,1.86,4.83,5.38,6,6.33,1,.81,3.45,2.76,4.7,1.5s-1-3.6-1.22-4.92h0c2.76,1.41,4.4,3.82,8.34,7.05,1,1.2,1.15,1.07,2.38.23,1.95-1.38-.39-4.92-1.32-6.6a4.87,4.87,0,0,1-.32-1.33c2.29,3.37,5,2.92,3.17-1.35-.66-1.61-2-4.47-2.81-6.24,0,.11,0,.18,0,0s0-.1,0,0c1.17,1.45,2.84,4.17,4,4.18,2,0,1.57-2.52,1.62-2.6a65.86,65.86,0,0,0-4.66-6.63c-.9-1.14-3.56-4.19-3.89-4.54.1-.08-6-5.34-16-8h0l-6.14-8.61c-1-2-2-4.1-2.93-6.24-2.37-5.59-4.61-11.53-8.16-16.46-5.58-7.73-12.92-11-19.38-17.62,1.24-.88,2.87-3,1.41-4.15-3.26.34-9.17-6.31-11.89-8.11a18.75,18.75,0,0,1-6.13-5.72c-1.83-2.7-2.64-6-5.37-8-4.26-3.09-10.59-6.29-15.63-7a9,9,0,0,0-3.56-3.9c-1.81-1.72-4.92-1.85-7.36-1.37-3.07-8-3.1-10-3.46-14.91,1.06-1.81,2.15-3.32,2.21-5.6a7.21,7.21,0,0,0,1.34-1.19c1.27-1.66,1.41-4.28,1-6.54,2.54-6.34-4.21-15-11.44-15.9a11.13,11.13,0,0,0-2.69-4c-3.32-3.3-7.32-2.11-11.33-2.26a4.33,4.33,0,0,1,1-1.31c-2.31.05-5.28-.44-7.88,1-1.17.21-3.22,2.85-4,3.54a10.57,10.57,0,0,1,2.37-3.79c-7.17.82-16.61,9.54-13.08,19.3.54,1.47,2,1.59,2.91,2.43-1.75,2-1,6.42-.4,8.67a15.39,15.39,0,0,1,.26,4.07c0,1.9.64,1.37,1.68,2.77,1.4,1.87,1.56,4.9,1.62,7.14,0,1.28-.4,5.05.34,6.07.62.84,2.71.55,2.71.55.64.64.54,2.93,1,3.79.69,1.38,2.22.61,2.22.61s-1.73,1.41-.71,2.77c.52.71,2.64.7,2.79,2a4,4,0,0,0,.28,3.12,5.44,5.44,0,0,0,1.74,1.13,8,8,0,0,0,3-.81,29.62,29.62,0,0,0,3.86-1.86c-.16.49-.39,1-.56,1.43-.3.18-.62.33-.93.5-2.84,1.55-2.3,1.82-4.15,4.27-2.16,2.84-15,18.85-16.68,25.9-.83,3.51-2.12,8.76-.62,12.05,1.35,2.94,1.12,4.15-.66,7-.57.94-1.32,2.41-1.74,3.27l.27-.59a43.78,43.78,0,0,1-7.92,6.64c-1.94,1.1-3.14,1.75-5.48,3h0c-4,1.94-7.57,3.63-11.56,5.69h0c-4.73,2.2-9.59,4.26-11,4.2-3.46-.18-8,.65-11.37,1a17.47,17.47,0,0,0-5.39,2.13,12,12,0,0,0-1.82,1.06c-.74.44-1.32.83-1.62,1-1.87,1.27-4.73,3.28-4.1,4.38a1.89,1.89,0,0,0,2.46.44,21,21,0,0,0-1.11,2.39c-1.16,1.74-2.28,3.63.21,4-.05,1.31-2.33,4.17.88,3.6,1.25-.22,3.59-2.78,4.54-3.57,1.62-1.35,2.06-3.49,3.8-4.66,1.27-.87,3.33-1.19,4.87-1.81-.3,1.58-1.44,2.69-1.94,4.13a10.19,10.19,0,0,0-2.13,2.9,3,3,0,0,1,.41-1.26c-1.6,2.24-.89,7.61,2.18,6.24.77-.35,2.18-3.2,3-3.94a11.21,11.21,0,0,1,2.95-1.85c3-1.25,5.51-1.42,7.83-3.93a15.11,15.11,0,0,0,2.25-3.3,37.21,37.21,0,0,1,5.91-1.36c2.23-.32,12.79-1,16.07-1.42.11.44.54,1.55.57,1.9a22.69,22.69,0,0,1,0,3.28c1.83,1.23,1.83,2.56,1.83,2.56a2.71,2.71,0,0,0-2.53,1.59,48.59,48.59,0,0,1-3.93,9q.82.06,1.62.06c-.11.38-.22.75-.31,1.13a222.16,222.16,0,0,0-28.32,7.7,32.19,32.19,0,0,0-5.6,1.58c-2.66,1.06-6.33,2.43-8.58,4.11a5.51,5.51,0,0,0-1.84,2,2.78,2.78,0,0,0-.7-.51c.62,1,.12,2.68.21,3.77a29.22,29.22,0,0,0-13.18,9.83,17.91,17.91,0,0,0-1.88,1.79c-1.4,1.1-2.82,2.19-4.35,3.2-6.52,4.33-13.13,7.16-15.65,15.17-.18.22-.37.42-.55.66-.54.67-1.16,1.4-1.8,2.11-2.35-.07-3.74.89-3.27,3.49h0L215,423.17c-.41-.21-.79-.4-1.14-.61-2.52,6.38-12.21,5.44-14.17,12.9a4.07,4.07,0,0,1,.6.35c-.71,1-1.44,2.08-2.14,3.14-.33-.16-.64-.32-1-.46-4,4.88-6,13.51-9.17,18.7-2.39,3.18-5.51,5.81-8.27,8.52-1.87,1.45-3.62.16-5.71,1.32a4.19,4.19,0,0,0-4.11-.69c-2.42.66-5.31,2.91-8,4.26-3,.51,3.27-1-.12-1.89,0,0-3.46.32-6.31.58-4-1.06-11.41-2.37-14.53-3.72-2.33-1-3.15-.75-4.92-1.32-.78-.38-1.55-.72-2.32-1.07s-1.48-.8-2.42-1.41c-3.2-2-6.14-2.86-8-2-.11.08-.23.2-.36.29s-.32.35-.49.54a7.59,7.59,0,0,0-1.28.38,9.89,9.89,0,0,0,0,1.22h0v0h0c-.12.37-.26.75-.39,1.15,1,10.63,6.45,16,24,24.41,6.09,2.92,5.66,6.34,13.21,11.44,4.94,3.3,8.25,6.42,15,.85A8.75,8.75,0,0,0,177.3,496c1.66-3.34.52-6.16,5.13-7.58a2,2,0,0,0-.08-.94c-.27-.11-.51-.2-.76-.28a2,2,0,0,1-1.3-.15,3.13,3.13,0,0,0-1.13.41,2.44,2.44,0,0,1-.31-1.68,2.77,2.77,0,0,1,.25-3.34c7.06-8.2,17.72-11.32,25.84-18.12a2.8,2.8,0,0,1,.65-2.13c3.29-3.92,7.66-6.4,12-8.94A66.54,66.54,0,0,0,232.13,442c2.31-2.39,5.1-5,6.74-7.88,1.13-2,1.68-4.31,2.74-6.37a12.19,12.19,0,0,1,7.49-6.25c8.61-3,20.4-7.49,29.57-5.23,6.65,1.64,10.8-2.52,16.71-4.85a64.29,64.29,0,0,1,13.42-3.48c1-1.86,4.36-2.11,5.14.52a44,44,0,0,0,3.51,9.59,2.72,2.72,0,0,1,3.76,1.7c2.89,8.19,3.9,17.44,9,24.63,5.77,8.08,14.7,11,22.49,3.81,2.58-2.43,6.42,1.49,3.83,3.89a4.47,4.47,0,0,1-.53.46l.55-.08a6.34,6.34,0,0,0,.75-.07c7.49-10.6,25.88-7.15,36.54-11.61a3.06,3.06,0,0,1,4.09,2.14c3.68-1,7.1-2.87,10.78-4.26a31.76,31.76,0,0,1,14.39-1.7,19.7,19.7,0,0,1,4.82,1.21,6.49,6.49,0,0,1,0-.9c.23.16.47.33.69.5a11.81,11.81,0,0,0-.28,2.93c3.59.64,6.31,1.34,9.83,2.22,4.29,1.08,6.3,2.94,10.19,4.5,3.6,1.43,5.95,2.34,9.77,3.78h0c-3.06-2.39-6.12-5.18-9-7.33a2.4,2.4,0,0,0-.23.38,5.31,5.31,0,0,1-1.3-.66c.11-.2.21-.39.32-.62q-.81-.54-1.59-1a3.94,3.94,0,0,1-.31.45c-.36-.33-.71-.68-1.09-1.07l.05-.1c-.09,0-.19-.09-.3-.14-4.42-2-11.39-1.16-14.34-5.94-2.18-3.54-2.35-13.07,1.44-15.24L430.56,418c5.76-2,13.23.46,20,5.18-.44-.42-.86-.79-1.26-1.13a63.84,63.84,0,0,1,11.4,9.65l.86,1a24.87,24.87,0,0,1,3.18,3.89,26.05,26.05,0,0,1,3.69,6.75c2.33,4.89,5.36,12.9-.6,14.1-2,.41-4.41-1.65-6.9-4.2-.26-.2-.53-.35-.79-.55a44.26,44.26,0,0,1,4.28,6.18c.62,1.71,2,.93,3.42,1,2.59.11,3.86-3.34,4.13-5.32C472.73,448.78,470.69,444.25,468.52,439.25ZM381.43,269c-.21,0-.4-.06-.57-.1-.23-.24-.44-.47-.68-.7C380.61,268.42,381,268.69,381.43,269ZM254.24,350.22c-.07,0-.15.06-.24.1-.57-.34-.14-1,.68-1.62C254.27,349.39,254,350,254.24,350.22Zm1.26-.41h-.05l.06,0ZM158.61,491.53l-.08-.1V491C158.54,491.18,158.58,491.35,158.61,491.53ZM228,409.31a42.89,42.89,0,0,0-3.53,3.25c2-2.66,4.73-5.15,7.49-5.61A17.53,17.53,0,0,0,228,409.31Zm99.52-122.89a82.8,82.8,0,0,1-5.58,6.51c1.44-2.13,2.94-4.24,4.42-6.29s3.08-4.91,5.16-6.74C330.23,282.1,329,284.32,327.52,286.42Z" transform="translate(-65.99 -129.62)"/><path class="cls-5" d="M466.54,457.06c.66-.34,1.38.12,2-.23a13.09,13.09,0,0,0,0-3.59,12.79,12.79,0,0,1-.77,2.73,11.1,11.1,0,0,1-2.92-.71C465.45,456.4,466,457.14,466.54,457.06Z" transform="translate(-65.99 -129.62)"/><path class="cls-5" d="M464.86,455.26a11.1,11.1,0,0,0,2.92.71,12.79,12.79,0,0,0,.77-2.73c.68-3.71-.17-7.83-2.07-11.93a43.57,43.57,0,0,0-7.73-11.14,51,51,0,0,0-8.15-7c-6.81-4.72-14.28-7.17-20-5.18l1.25,1.91c-3.79,2.17-3.62,11.7-1.44,15.24,2.95,4.78,9.92,3.93,14.34,5.94.11.05.21.11.3.14l1.35.72q.78.48,1.59,1c.4.29.8.57,1.21.9,2.9,2.15,6,4.94,9,7.33.67.51,1.34,1,2,1.45.26.2.53.35.79.55A22.18,22.18,0,0,0,464.86,455.26Z" transform="translate(-65.99 -129.62)"/><path class="cls-5" d="M255.5,349.81v0l-.06,0Z" transform="translate(-65.99 -129.62)"/><path class="cls-5" d="M158.61,491.53c0-.18-.07-.35-.08-.51v.41Z" transform="translate(-65.99 -129.62)"/><path class="cls-5" d="M291.7,442.17A29.07,29.07,0,1,0,296.21,483,29.08,29.08,0,0,0,291.7,442.17Z" transform="translate(-65.99 -129.62)"/><path class="cls-1" d="M197.14,438.49c-6.56,7.93-8.54,17.9-17.09,24.55a44.32,44.32,0,0,1-6.06,4,4.19,4.19,0,0,0-4.11-.69c-2.42.66-5.31,2.91-8,4.26-3,.51,3.27-1-.12-1.89,0,0-3.46.32-6.31.58-4-1.06-11.41-2.37-14.53-3.72-3.75-1.62-3.6,0-9.66-3.8-3.2-2-6.14-2.86-8-2-.11.08-.23.2-.36.29-.58.62-1.14,1.26-1.7,1.86,0,.1-.07.19-.1.28v0h0c-.12.37-.26.75-.39,1.15,1,10.63,6.45,16,24,24.41,6.09,2.92,5.66,6.34,13.21,11.44,4.94,3.3,8.25,6.42,15,.85A8.75,8.75,0,0,0,177.3,496c1.66-3.34.52-6.16,5.13-7.58a2,2,0,0,0-.08-.94c-6.19-3-5.76,10-11.95,10.46-.9-.17-1.73-.31-2.54-.49a1.28,1.28,0,0,1-.43-.14l.06.1a13.76,13.76,0,0,1-6.09-3.06c-5.43-4.42-4.35-8.19-10.39-9.36-10.06-2-20.33-7.16-24.62-13.74a24.59,24.59,0,0,0,11.44,5.31c-4.61-3-12.34-7.17-14.82-13.77.3-5.35,5.86.28,13.38,4.23.22,2.11-3.42,3.65-5.62.64,1.32,4.5,7.45,4.92,7.34.24a27.45,27.45,0,0,0,3,1.19c.48,1.48,0,1.8-.22,3.14,2.16-.6,2.25-2.28,1.58-3.77.51.2,1,.43,1.51.62.52,1.91.69,3.85,2,5.25a7.27,7.27,0,0,0,0-4.38c.6.24,1.2.51,1.81.74a8.8,8.8,0,0,1,1.27,4.39c1.49-.8,1.58-2.07,1.07-3.49.37.14.75.24,1.12.37a6.13,6.13,0,0,1,.75,5.16,4.49,4.49,0,0,0,1.18-4.58c.34.1.7.18,1.06.27a27.32,27.32,0,0,1,1,5.65,14.62,14.62,0,0,0,1.74-5.19c.36.05.7.09,1.07.12,1.62,6.83,8.22,19.05,16.43,16.68-6.5-2.95-9.5-6.77-11.69-12.34a9.16,9.16,0,0,0,3.5-.43c.83,2.56,1.61,5.15,3.41,6.95,5.68,5.64,6.8.95,10.5-2.49,7.59-7.06,21.08-7.6,18.32-23,2.44.92,2.28,4.93,2.78,7.43,5.51-2.13,12.08-7.38,16.94-11.43C212.87,444.45,206.06,442.74,197.14,438.49Z" transform="translate(-65.99 -129.62)"/><path class="cls-1" d="M213.83,422.56c-2.52,6.38-12.21,5.44-14.17,12.9,5.92,3.63,16.1,9.21,20.6,17.94,5.6-2.65,16-9.68,15.17-16.71C234.6,429.45,219.06,425.65,213.83,422.56Z" transform="translate(-65.99 -129.62)"/><path class="cls-1" d="M216.22,421.8l.46.16c8.07,4.4,17.14,4.4,21.11,15.56a63.36,63.36,0,0,0,5.38-8.95C240.53,426.64,214.39,411.69,216.22,421.8Z" transform="translate(-65.99 -129.62)"/><path class="cls-1" d="M270,375.92c.44.49,8.55-.66,8.89-.15-1.15.5-6,2.88-9,4,6.72.28,15.07.19,21.38,2.57-5.63-.76-16.58-2-21.87.17,7.41,2.41,18.13,2.49,24.08,8.38-8.51,2.41-21-3.68-29.68-3.72,4.48,4.09,12.81,6.11,15.95,11.49,2.82,4.77,2.67,11.6,1.37,16.93-1.95-5.11,1.31-16.46-9.88-21,3.75,5.14,3.76,8.56,1.13,12.48-2.21,3.32-4.25,2.52-7.74,3.94s-6.71,3.56-10.31,4.66-7.44,1.08-10.69,2.67c6.42-4.89,14.36-8.17,21.15-12.33a113.28,113.28,0,0,0-20.09,6.33c-2.8,1.18-8.5,2.86-10.73,2-3.47,3.09-8.42,1.66-11.62,1.56,2-3.86,6.53-9.36,10.89-9A14.14,14.14,0,0,1,231.5,413c8.25-7.26,12.09-18.86,22.58-23.61,2.53-.71,6-.71,7.43-2.29-1.65-1.42-3-4.22-4.82-5.27.62,1,.12,2.68.21,3.77a29.22,29.22,0,0,0-13.18,9.83c2-1.74-.19.24,0,0a17.91,17.91,0,0,0-1.88,1.79c-1.4,1.1-2.82,2.19-4.35,3.2-6.67,4.43-13.46,7.28-15.83,15.73a1.66,1.66,0,0,0-.63.46c6.6.76,15.14,5.87,21.95,8.59,6.81-3.29,33.83-11.88,38.36-4.59,4.87-7,21.86-10.09,32-11.62-10.4-23.84-12-32.51-10.84-42.19C293.09,368.81,281,371.51,270,375.92Z" transform="translate(-65.99 -129.62)"/><path class="cls-1" d="M362.38,429.69a16.66,16.66,0,0,0-1.69-4.44s-2.07-5.55-4.6-.28c.2,1.29.54,3,.79,4.75-2.06-3.21-3.59-5.87-1-9.43-5.33,3.08-5.35,10.49-4.68,15.72.51,3.88-3.53,6.63-5.24,9.74,0,0,4.43-2.21,4.29-1.21-1.44,4.63-10.29,10-14,4.22-3.22-5-8.3-16.34-9.27-24.14,2.27,1.31,6.19,6.76,8.18,8.27-3.47-5.84-3.25-15.73-5.61-21.93l1.65-.64c1-.28,10.41-1.27,15.27,2.1-.72,2.77,0,5.12.19,8.31.19,3.69,1.89,11.58-.05,16.81,3-5.22,2.46-12.69,5.36-16.87,1.22-1.74,1.83-2.39,2.34-4.65.9.67,1.16.44,1.66,1.43,1.6-5.61-7.87-35.06-3.16-25.15,2.19,4.62,3.61-8.3,3.14-9.81-.57-1.82-3.9-3.82-5.09-5.43-1.66-2.24-3-3.48-4.67-5.62-2.19-2.86-6.52-4.75-7.84-5.1,3,2.57,7.21,8.05,8.42,9.24,0,0-12.67-12.6-18.41-10.12a81.11,81.11,0,0,0,5.38,6.2c9.76,10-8.34.14-6.75,2.8,8.25,13.93,2.3,9.45-7.1,10.79.9,3.07,9.56,5.17,11.85,7.36.88.85,2.14,2,3.4,3.26,4.85,4.77,14.8,12.48-4.23,4.67A9.72,9.72,0,0,0,320,403.42c3.16,1.87,7.32,2.45,11.46,3.06a47.29,47.29,0,0,0-4.79.63,11.86,11.86,0,0,0-3.58.2c-3.24.46-5,1.1-5.9-1.86-1.08-3.48-2.53-11.28-4-13.33.71-3.29,9.72,8.91,16.77,4.8a67.24,67.24,0,0,1-12.2-7c-3.14-2.3-4.85-6.24-5.67-9.91-2.29-2.34,4.56,2.76,6.57,2.3,6-1.52-4.34-8.22-2.08-11.82,1.84-2.93,10.44-.37,14-.26-3.83-4.76-11.27-4.68-15.35-4.53-3.18.12-10.92.64-10.92.64-1.07,3.56.31,14.61,3,20.79,1.76,4.06,9.28,27.16,10.23,33.12.36-.21,2.08-1.1,2.43-1.32a3,3,0,0,1,.31.16c.85,2.74,3.21,13.29,4.21,16,1.61,4.31,3.19,3.7,4.3,8.15,1.57,6.29,6.06,10.84,11.17,11.34,2.92.26,9.12-3.06,11.14-5.44-.49,1.22-2.8,2.81-3.94,4-.19,0-.33,0-.08.1,2.86.62,6.52-.42,9.49-.81,4.06-.47,5.84-.81,6.88-5,1.43-5.77.81-11.81-.93-17.61C362.43,429.8,362.39,429.75,362.38,429.69Z" transform="translate(-65.99 -129.62)"/><path class="cls-1" d="M434.66,431.18c-.56-2.12-.33-4.63-1.2-6.7-.65-1.66-3-4.93-5.08-5.47,1,4.65,1.26,8.88-4.47,6.52-2.32-.93-3.46-2.42-6.26-1.62-2.23.66-3.8-.53-5.71.51-3.07,1.65-9.17,3.76-12.75,3.25-4.72-.69-4.59-2.69-7.43-6,.58,2.2,2.51,8.38,1.66,10.55-.72,1.93-3.76-.83-6.19-.43-4.83.79-5.35,2.89-5.37-1.58,0-2.72-2.1-7.38-5.34-8.07a23.22,23.22,0,0,1,1.05,9.75c-1.05-2.23-2-5.24-3.16-6.22-.4-.34-1.75-2.84-2.24-2.93-3.74-3.36-3.72-3.05-8.52-4.07l-2.71-.72c-.16-.05-.35-.09-.64-.19-.15.1-2.77-.32-2.9-.24a1.76,1.76,0,0,0,.56,1.38,4.23,4.23,0,0,0,.66.84l-.13.11c.13.05,3,2.4,5.31,7.59.35,1.22.68,2.44.94,3.48,1.32,5.2,1.79,12.71-.09,17.89a49.42,49.42,0,0,0,9.07-1.07c1.72-.39,2.5-2.07,3.61-3.15h0c1.81-.15,2,1.4,2.79,1.59,1.79.37,5-.93,7-1.39,2.78-.57,5.36-.88,8.13-1.28,4.76-.67,8.85-3.1,13.4-4.84a31.76,31.76,0,0,1,14.39-1.7,19.7,19.7,0,0,1,4.82,1.21C427.89,433.5,431.32,432.87,434.66,431.18Zm-74.29-13.4s.18.05.38.08Z" transform="translate(-65.99 -129.62)"/><path class="cls-1" d="M472,454.47c.72-5.69-1.32-10.22-3.49-15.22-2.29-5.33-6.32-9.32-10.51-13.09-3.88-3.44-8.19-7.58-12.88-10.2-4-2.24-10.8-10.71-12.92-9.7a14.85,14.85,0,0,0-4.46,1.86,2.39,2.39,0,0,0,.13.28c-3,.26-6.3,4.6-8.27,7.11a14.37,14.37,0,0,1-5.62,0c-.33,6.28,11.22,1.19,14,1.57,5.69.81,6.52,7.95,6.52,7.95.89,3.11.52,5.21.24,5.81a7.86,7.86,0,0,0,2.81,1.56c.43-5.35-.79-13.85-5.86-16.68a11.42,11.42,0,0,0-7.21-1c.06-1,1.21-1.79,2.56-2.51a26.57,26.57,0,0,1,7.73,3.54c1.56,1.22,3.16,2.4,4.63,3.65.6.5,1.22,1,1.85,1.57.78.72,1.48,1.48,2.14,2.2a6.62,6.62,0,0,1,1.24,2.47c-.29-3.18-2.33-6.86-5-9.58,7.64,4.31,15.42,9.4,21.09,15.65,4.29,4.72,7.63,9,8.76,15.44a27,27,0,0,1,.72,6.57c-.06.53.07.17-.06.53-.18-4.41-.39-6.68-2.26-10.33-1.66-3.22-5.1-9.27-10-10.72,4.91,4.78,11.72,15.89,10.64,23.67-.64.35-1.36-.11-2,.23-1.6.28-2.75-6.18-6.26-9.05-.7-1.06-1.33-2.29-.42-3,1.56-1.31,3.41,1.35,3.91,2.56-.82-2.13-1.89-4.65-4.66-4.68-2.1,0-2.92,1.3-3.14,2.95-.37-.11-.77-.2-1.15-.28.43-1.31.75-3.75-.78-4.45a18,18,0,0,1-1.46,4.05c-.39-.07-.78-.15-1.16-.2.83-2.05,1.26-5.1-.24-6.63a15.92,15.92,0,0,1-2.25,5.93,5.31,5.31,0,0,1-1.3-.66c1.15-2.25,2.74-6.81.12-7.74.16,1.65-.56,5.14-1.7,6.55-.36-.33-.71-.68-1.09-1.07,1.14-2.23,1.86-5.1.11-7.62a18.65,18.65,0,0,1-1.39,6.18c-.3-.36-.63-.77-.94-1.13,1-2.37.87-6-.74-7.46-.07,1.08-.79,4-1.09,5.35a10.48,10.48,0,0,0-.92-1c.69-1.81,1-4.66-1-6.68a42.32,42.32,0,0,1-.37,5.42,14,14,0,0,0-1.65-1.11c-4.75-2.56-8.79,1.35-8.6,7.39,3.59.64,6.31,1.34,9.83,2.22,4.29,1.08,6.3,2.94,10.19,4.5,3.6,1.43,5.95,2.34,9.77,3.78,2.27.81,4.32,4.58,6.28,7.63.62,1.71,2,.93,3.42,1C470.47,459.9,471.74,456.45,472,454.47Z" transform="translate(-65.99 -129.62)"/><path class="cls-1" d="M291.7,442.17A29.07,29.07,0,1,0,296.21,483,29.08,29.08,0,0,0,291.7,442.17Zm-1.61,5.65a21.65,21.65,0,0,1,2.4,5.4,22.42,22.42,0,0,1,.73,3c.09,1.05-.28,2.28-.18,3.27a10.25,10.25,0,0,1-3.4,4.91h0a3.15,3.15,0,0,1-2.51.6,50.84,50.84,0,0,0-9.56-4.33l-.27-.14c-1.25-3.14-2-6.35-3.36-9.48,3.52-4.18,4.19-5,8.19-7.61A12.59,12.59,0,0,1,290.09,447.82Zm-27.76-7.7a27.37,27.37,0,0,1,13.88-2.28,7.14,7.14,0,0,1,5,4.8c-2,2.05-3.91,2.91-7.61,7.54-4.29.78-9.43.82-12.83-2-.5-.58-1.26-1.6-2.11-2.51a10,10,0,0,1-.52-1.09A10.18,10.18,0,0,1,262.33,440.12Zm5.16,27.66-.3-.61a4.93,4.93,0,0,1,.31.45C267.5,467.68,267.49,467.74,267.49,467.78Zm-20-10.7a27.2,27.2,0,0,1,4.78-9.16,10.44,10.44,0,0,1,3.48-2.27,3.61,3.61,0,0,1,2.84,1.15c.3.3.59.64.88.95.06.08.13.16.18.24a13.06,13.06,0,0,1,2.1,2.77c.45,1.23-.17,2.42-.41,3.66l.13-.11c-.67,2.05-1.1,4.07-1.92,6.14-3.28,1.15-6.46,2.93-9.84,3.15C247.76,462.07,247.18,459.66,247.5,457.08Zm18.07,33.09a7.88,7.88,0,0,1-3.22-.56,25.12,25.12,0,0,1-2.68-1.38c-3.74-2.47-7.23-6.7-9.35-9.89V478a5.19,5.19,0,0,0,.37-1.47,1.35,1.35,0,0,1,.47-.53c1.35-.78,2.47.54,3.56,1.25a51.81,51.81,0,0,0,4.47,3.29c.61.46,1.23.84,1.81,1.22a27.09,27.09,0,0,1,3,3.1c0,.05,0,.09.07.15C264.65,486,266.83,489.19,265.57,490.17Zm1.7-9.94c-2.18.46-3.38,1.36-5.69.44a25.12,25.12,0,0,1-4.08-2c-3.89-3.36-7.35-8.66-6.76-13.74,2.09-1.26,6.19-2.43,9.2-3.63,2.77,2.14,4.89,3.26,6.48,4.93.36.71.76,1.38,1.1,1.91.18,1.16.9,2.8,1.07,3.67.31,1.41,1.38,4.88.8,7A17.63,17.63,0,0,1,267.27,480.23Zm3-6.7c-.11-.56-.25-1.11-.39-1.67a19.66,19.66,0,0,0-.43-2.76v-.05a7.15,7.15,0,0,1,1-3.07c1.83-1.36,3.3-2.12,5.27-3.75,2.9-.79,4.78.6,7.75,1.71a11.29,11.29,0,0,1,3.23,1.68,5.54,5.54,0,0,1,.69.81c1.45,2,2,7.76.24,10.15-1,1.35-7.4,5.37-9,5.38s-4.78-1.65-6.36-2.88A14.91,14.91,0,0,1,270.22,473.53ZM273.39,492q-.83,0-1.65-.06a6.53,6.53,0,0,1-3.68-1.43.93.93,0,0,1,.44-.37c4.14,1,8-.77,12.15.3A23,23,0,0,1,273.39,492Zm18.78-7.39a27.25,27.25,0,0,1-5.18,3.82,12,12,0,0,1-4,1c-1.92-.51-3.27-.53-3.62-3.13a5.76,5.76,0,0,1,.11-2.12c1.24-1.85,3.87-2.36,5.61-3.86,2.22-1.9,4-3.92,6.72-4.79a5.13,5.13,0,0,1,2.06.7c.65.61.85,2,.91,3.28A11.54,11.54,0,0,1,292.17,484.62Zm8.24-18.37a11.52,11.52,0,0,1,0,2.49c-.11.7-.22,1.39-.38,2.09a43.6,43.6,0,0,1-3.19,7.92c-1.52-3.9.36-9.37,3.1-13A1,1,0,0,1,300.41,466.25Zm-.21-3.1a2.67,2.67,0,0,1-3.24-.07c-2.56-3-2.86-8.87-4.57-13.58,0,0,0-.06,0-.08-.11-.47-.27-1.26-.51-2,.55-.52,1.87,0,3,.69.05.05.1.07.13.13a27.3,27.3,0,0,1,5.4,12.85A9.35,9.35,0,0,1,300.2,463.15Z" transform="translate(-65.99 -129.62)"/><path class="cls-1" d="M254.91,351.12c0,1.56-5,5.95-1.13,6.51-.05,1.31-2.33,4.17.88,3.6,1.25-.22,3.59-2.78,4.54-3.57,1.62-1.35,2.06-3.49,3.8-4.66,1.27-.87,3.33-1.19,4.87-1.81-.32,1.67-1.58,2.8-2,4.38l9.33-6.95c-1.81-.25-4.35.35-5.93.59-1.95.28-4.63.21-6.36,1.23-3.84,2.26-5.37,7.6-9.21,9.69-.68-2.33,4.3-6.17,5.52-8.06-.55.54-4.21,4-5.07,3.74-1.1-.39,2.6-5.71,2.71-6.65-.7.59-1.35.57-2.83,1.16-1.43-.83,3.3-3.34,4.8-4.26a27.26,27.26,0,0,1,7.33-3.1c2.75-.7,5.21-.29,7.88-.28a22.94,22.94,0,0,0,8-1.89c2.52-.94,5.16-1.62,7.78-2.33a81.53,81.53,0,0,0,9.56-5.07c2.48-1.53,7.42-4.15,11.28-6.48-.29,2.27,1.21,10.85-11.49,15.83-1.27.5,8.83-2.4,9.45-2.12.82.37,1.12.51,1.22.57h0c.11.06,0,0,0,0a47.22,47.22,0,0,1-11.13,2.64c-5.64.51-11.15,2.81-14,3.74,2.65-1.5,6.64-2.42,8.17-3.76-10.7.36-14.86,6.11-18.15,10.78l3.49-2.06c-.86,1.19-1.21,1.37-3.49,2.06-4.47,1.31-7.19,3-9.57,6.93-1.11-1.26-1.91-2.89-.94-4.57-1.6,2.24-.89,7.61,2.18,6.24.77-.35,2.18-3.2,3-3.94a11.21,11.21,0,0,1,2.95-1.85c3-1.25,5.51-1.42,7.83-3.93a15.11,15.11,0,0,0,2.25-3.3,37.21,37.21,0,0,1,5.91-1.36c2.23-.32,12.79-1,16.07-1.42.11.44.54,1.55.57,1.9a22.69,22.69,0,0,1,0,3.28c1.83,1.23,1.83,2.56,1.83,2.56a2.71,2.71,0,0,0-2.53,1.59,48.59,48.59,0,0,1-3.93,9c4.26.31,7.54-.66,12-.88,2.24-.13,7.56-.21,9.8-.27-1.47-.29-5.9-1-7.31-1.28-3.52-.61-7.53.75-10.67-.68.88-1.65,3-4.8,4.76-5.69,3.13-1.59,7.25.1,10.74-1.24-3.55-.42-8.16-.12-10.5-3a15.09,15.09,0,0,1-1.61-4.43c-.45-2.41-.94-2.27,1.11-2.89,2.22-.68,5.88,1.08,5.3-3.62-.48-3.76-1.62-4.72-.81-9,1.78,3.45,4.95,3.28,8.47,4-3.23-2.44-8.58-5.44-8.66-10.12,5.09-4.28.89-3.78,2.53-6.93a26.64,26.64,0,0,1,2.25-3.11c2.57,1.6,5.22,2.93,8.56,2.54-1.65-2.69-7.13-2.82-7.82-5.88-.39-.12-1-.73-1.21-2.8-.42-3.43-.66-9.22,1.07-12,2.46-4,5.21-7.93,8-11.73,2.42-3.34,4.71-8.12,9.19-8.68-2.85-5.64,9.14-10,12.95-12.16a95.3,95.3,0,0,1,9.56-5.06l.95-.39c.37-.13,1.43-.45,1.77-.56.72-.2.74-.32,1.52-.51,3.31-.31,4.52,1.65,4.26,3.68a13.7,13.7,0,0,0-8.82,6.72c5.24-6.06,17.62-5.16,23.69-.71-12.63-2.37-18.09,1-23.7,4.24,3,2.47,8.53,1.13,12.2,1.34-3.95,2.42-9.61,1.15-14.89,2a17,17,0,0,0,12.6,3.81c-2.44.85-5.91,6.11-14.18,7.24,5.91,4.42,18.28-2.74,23.9-5.23-3.77,2.1-6.81,5.55-11,6.9-2.05.65-4.48.56-6.08,1.91h.1a6.44,6.44,0,0,0-1.48.92,19.39,19.39,0,0,1,8.28.11c.58.14,1.15.31,1.72.47a40.44,40.44,0,0,1,4.41,1.74,28.74,28.74,0,0,0,11.42,2.21c-5.12,2.07-16.15-1.22-21.32-1.88-.67-.29,2.4,4.79,1.76,4.58s-1.32-.16-1.74-.48c-3.3-2.56-5-4.45-9.58-4.21a33.12,33.12,0,0,0-9.28,2.56c1.62.85,9.16,3.36,13.12,6.93,1.31,2.05,4.31,4.51,3.78,6.91l-.12,0c-.12-.13-.27-.26-.37-.38-2.62-3.54-7-6.4-11.09-6.71-5-1.75-15.43-2.46-21.51-10.17,1.24,9.91,13.52,14.48,16.56,18.25,2.05,2.56-1.28,4-7.12,3.8.86,1.13,12.16,7.34,11.72,8.69-.52,1.69-22.54,2.89-24,3,1.07,5,13.7,9.08,11.19,9.42-2,.26-7.65-.68-9.3.66-3.29,2.71,2.65,6.77,4.81,8,4.19,2.4,3.74,1.28,8.24,2.25-2.6,1.91-4,2.55-5.72,5.42a34.76,34.76,0,0,0,4.53,3.69c-3.3,2.21-7.56-.91-10.63,1.85,3.22,2.59,7.43,3,11.11,4.67,1,.45,2,.93,3,1.39A62.32,62.32,0,0,0,329,362.64c-1.81-.11-3.57.62-5.3,1,2.12,0,4.22,0,6.32.05,11.52.37,17.68,6,24.69,16.24,0-.09,1.27,1.17,1.31,1.07.47.41,1,.8,1.42,1.16a10.38,10.38,0,0,0,.41-8.65c2.86-2.91.5-8,1.17-11,1.19-5.42,2.12-7.88,1.43-13.58s.43-12.24,4.62-16.9c1.72-1.9,4-3.35,5.7-5.42a17.14,17.14,0,0,0,2.95-5.8c2.24-3,4.71-6.06,7-8.91,2.7,1.42,5.25,3,7.62,4.44,0-.07,1.71,2,1.71,2,.35,0,2.08-2,3.3-3.36a11.72,11.72,0,0,1,2.22-1.15c1.65-.64,3.54-.79,5.26-1.29,2.53.91,4,2.29,5.42,6.88,3.66,11.51,18,20.37,25.26,29.68,2.86,3.7,3.42,8.48,5.43,12.77,2.37,5.13,5.65,7.19,8.27,5.19,1.73,1.86,4.83,5.38,6,6.33,1,.81,3.45,2.76,4.7,1.5s-1-3.6-1.22-4.92h0c2.76,1.41,4.4,3.82,8.34,7.05,1,1.2,1.15,1.07,2.38.23,1.95-1.38-.39-4.92-1.32-6.6a4.87,4.87,0,0,1-.32-1.33c2.29,3.37,5,2.92,3.17-1.35-.66-1.61-2-4.47-2.81-6.24,0,.11,0,.18,0,0s0-.1,0,0c1.17,1.45,2.84,4.17,4,4.18,2,0,1.57-2.52,1.62-2.6a65.86,65.86,0,0,0-4.66-6.63c-.9-1.14-3.56-4.19-3.89-4.54.1-.08-6-5.34-16-8h0l-6.14-8.61c-1-2-2-4.1-2.93-6.24-2.37-5.59-4.61-11.53-8.16-16.46-5.58-7.73-12.92-11-19.38-17.62,1.24-.88,2.87-3,1.41-4.15-3.26.34-9.17-6.31-11.89-8.11a18.75,18.75,0,0,1-6.13-5.72c-1.83-2.7-2.64-6-5.37-8-4.26-3.09-10.59-6.29-15.63-7a9,9,0,0,0-3.56-3.9c-1.81-1.72-4.92-1.85-7.36-1.37-3.07-8-3.1-10-3.46-14.91,1.06-1.81,2.15-3.32,2.21-5.6a7.21,7.21,0,0,0,1.34-1.19c1.27-1.66,1.41-4.28,1-6.54,2.54-6.34-4.21-15-11.44-15.9a11.13,11.13,0,0,0-2.69-4c-3.32-3.3-7.32-2.11-11.33-2.26a4.33,4.33,0,0,1,1-1.31c-2.31.05-5.28-.44-7.88,1-1.17.21-3.22,2.85-4,3.54a10.57,10.57,0,0,1,2.37-3.79c-7.17.82-16.61,9.54-13.08,19.3.54,1.47,2,1.59,2.91,2.43-1.75,2-1,6.42-.4,8.67a15.39,15.39,0,0,1,.26,4.07c0,1.9.64,1.37,1.68,2.77,1.4,1.87,1.56,4.9,1.62,7.14,0,1.28-.4,5.05.34,6.07.62.84,2.71.55,2.71.55.64.64.54,2.93,1,3.79.69,1.38,2.22.61,2.22.61s-1.73,1.41-.71,2.77c.52.71,2.64.7,2.79,2a4,4,0,0,0,.28,3.12,5.44,5.44,0,0,0,1.74,1.13,8,8,0,0,0,3-.81,29.62,29.62,0,0,0,3.86-1.86c-.16.49-.39,1-.56,1.43-.3.18-.62.33-.93.5-2.84,1.55-2.3,1.82-4.15,4.27-2.16,2.84-15,18.85-16.68,25.9-.83,3.51-2.12,8.76-.62,12.05,1.35,2.94,1.12,4.15-.66,7-.57.94-1.32,2.41-1.74,3.27l.27-.59h0a43.83,43.83,0,0,1-7.92,6.64c-2.49,1.42-3.77,2.05-7.77,4.28l.47-.36c-3,1.59-18.12,9.11-20.7,9-3.46-.18-8,.65-11.37,1-2.78.31-7.72,3.46-8.83,4.22-1.87,1.27-4.73,3.28-4.1,4.38A2,2,0,0,0,254.91,351.12Zm198.77,20.75c-1.13-.37-1.82-1.32-2.77-2.13l1.25-1.42s0-.08.24-.31C453.07,369.06,454.31,370.55,453.68,371.87Zm4.53-6.87a3,3,0,0,1,.42.06h0l.2.06-.2-.06c1.08,1.76,4.73,5.57,4.18,7.55C460.19,372.33,456.31,367.4,458.21,365Zm4.74-9.09c1.78,1.46,4.36,4.07,4.5,6.42-1.82-.79-3.54-4-4.68-5.74Zm-1.64,3.68c1.73.27,3.18,4.17,2.95,5.73-1.48-.54-2.36-3-3.12-4.37l-.05-.74C461.11,360.1,460.94,359.9,461.31,359.59ZM449,346.44c.83.55,1.8,1.14,2.84,1.75l-.57-.18c-2-1.28-4.07-2.56-6-3.88C445.73,344.29,448.65,346.17,449,346.44Zm-45.17-46.08.64.13c-.18-1.41-1.13-1.53-.74-2.84a2.85,2.85,0,0,1,1.55-1.63c2,.87,4.46,1.94,5.83,3.71,1.66,2.11,1.82,5.53,3.75,6.72.73.45,2.78.46,3.76.92a14.78,14.78,0,0,1,2.87,1.85c2.21,1.91,3.85,4.83,5.45,7.23,3.28,5,5.67,10.76,8.42,16.18,1.37,2.76,2.8,6.21,4.67,9.22,1,1.88,1.92,3.2,1.51,3.06C437,339.79,430,332.16,427.71,326c.48,6.18,4.3,12.65,8.32,17.89,1.94,3.36,4.24,5.67,4.35,7.1.2,3.11.35,4.12.33,4.53a11.5,11.5,0,0,1,2.32-3.29c2.83-1.91,6.25,1.05,9,2.23,1.74.17-2.55-3.9-3.53-4.92l.1-.05a5.82,5.82,0,0,1-1.34-2.15h.08l-.05-.11c3.57,0,12.16,3.48,13.63,7.25,0,.07.06.16.1.25a7.94,7.94,0,0,1,.58.72c.58,2.66-1.47,2.16-2.95,4.16-1.33,1.77-.11,3.69-2,5-1.46,1-3.18.58-4.66,1.79-.81.65-1.18,1.66-1.78,2.2-1.94.06-2.2-.63-3.83-3.19-1.28-2-4.26-4.26-5.75-6a6.62,6.62,0,0,0,1.95,4.39c-.15,0,.7,1.47.59,1.47s-1.66-.27-1.7-.31c-1.66-1.24-3-4.8-3.71-6.65-2.1-5.31-3.09-9.08-7-13.42-3.68-4.13-15.06-17.44-18.13-22.14a11.17,11.17,0,0,1-2.13-2.1c-1.64-2.18-1.61-5.37-3.32-7.45-3.1-3.74-10.1-4.25-14.45-6.84l2.41-4.79-.09.06.11-.11,0,.05a10.2,10.2,0,0,1,.95-.85C398.65,298.78,401,299.68,403.87,300.36Zm-16.36,3.44c2.69-1.94,5.1-4.52,8-6.37l.69-.42a40.79,40.79,0,0,0-4,3.69c-2.2,2.28-7.47,7.45-5.84,11.07a1.43,1.43,0,0,0-.08.22c-2.27-2.62-8.11-6.82-13.73-8.91,0,0,0-.06-.07-.08C378,305.12,383.89,306.38,387.51,303.8Zm-1-9-.16.17C386.29,294.89,386.33,294.82,386.51,294.81Zm-50.2-29.49a8,8,0,0,1-.9.66c-.52.33-1.33.94-2.09,1.37a4.29,4.29,0,0,1-1.61,1.07c-2.72.44-1.45-5-2.44-4.77-.69.22-2.6.11-1.34-1.24a1,1,0,0,1,.28-.54,8.64,8.64,0,0,1,1.41-1l.24-.31c.43-.73,1.17-1,.62-1.37a4.87,4.87,0,0,1-4-.49c-.63.08-1-.23-1.33-2.16l.05,0s0,0,0-.05v0h0v0h.06l0,0a.08.08,0,0,1,0,0,9.77,9.77,0,0,0,3.24-1.49c.26-.25.17-.06.3-.42a2.26,2.26,0,0,0,.41-.19.75.75,0,0,1-.05-.16,11.15,11.15,0,0,0,2.07.77,60.39,60.39,0,0,1-4.63-4,2.31,2.31,0,0,0,.49,2.45,9.81,9.81,0,0,1-.1,1.09s0,.07,0,.11a13.05,13.05,0,0,1-2.81.41c-.05-.07-2.34,1.46-2.41-.72a29.83,29.83,0,0,1,.05-5.58c0-.43,0-.82-.05-1.11.45-.93,6.21-.37,7.63-1.85.86-.88-.27-1.6.83-2.29s2.53-1.2,3.71-1.84c-1.9-2.17-4.41-1.59-7.06-1.77-1.86-.13-6,2.39-7.1.7-2.09-3.19,1.41-8.73,4.16-10.25l1.57.16c6,.48,10.09-3,14.89-5.79-2.67,2.63-4.4,7.07-2.63,9.38.56.73,1.48,1,2,1.81a10,10,0,0,1,1,2.78,18.64,18.64,0,0,1,1.17,3.85l0-.16c0,.09,0,.19,0,.26a.38.38,0,0,1,0-.1l-.35,2c-.06.17-.09.35-.15.53.45,0,.69.21,1.2,0a1.53,1.53,0,0,1-1,1.37c2,1.11,3.73-.65,4.71-2.69A18.26,18.26,0,0,0,348,239c.9-.69,1.87,2,1.78,2.7A3.91,3.91,0,0,0,349,237c1.54-1.15,3.09-1.24,2.34,2.21a2.47,2.47,0,0,0-2-4.26c1.27-1.5,2.56-2.43,4.18-.94,2,1.8-.5,5.13,1,6.22.09.22.2.43.3.64-.1,1.82-.42,8.84.07,10.57.11,1.62,1,5.69,1.22,7,.11.57.49-6.22.69-5.62.3,2.53,1.55,5,0,6.75-5.22,1.45-9.39,4.06-14.31,6.74-.74.4-1.5.8-2.26,1.18.13-.54.26-1.07.35-1.61a23.9,23.9,0,0,0,6-4.86c3.68-4.35,2.13-10.45,4.53-15.31l.33-.82a12.26,12.26,0,0,0,1.74-4.51c-.76,1.51-3.94,7-6.84,5.17,0,.93.92,1.48,1.88,1.81a40.81,40.81,0,0,0-1.54,7.63c-.87,2.27-2.13,4.91-4.18,4.22,0,0-1.57-1.81,0-4.87.35-1.45-4.09,4.62-1.36-3.41-3.27-1.18-5.72-.83-8.83-1.83l.37.37c.19.18,1.48,1.26,1.89,1.56,1.28.58,3.13.08,3.63,1.06.9,1.7-1.81,5.49.27,8.82C339.91,263.1,338.12,264.3,336.31,265.32Zm-9.21-12.56h0Z" transform="translate(-65.99 -129.62)"/><path class="cls-1" d="M346.39,245.54Z" transform="translate(-65.99 -129.62)"/><path class="cls-1" d="M440.63,355.83a.41.41,0,0,0,.08-.28C440.57,355.82,440.53,355.94,440.63,355.83Z" transform="translate(-65.99 -129.62)"/><path class="cls-6" d="M438.1,538.67c-4.94,2.94-13.54,6.55-23.15,10,5.91-3.49,10.67-7,15.14-9.18,3.71-1.74,3.24-1.35,3.12-1.23.09-.06,2.59-1.35,2.93-1.51,1.11-.44,1.65-1.71,2.63-2.27,3.26-2.18,6.23-9.08,6.15-11.9-.22-7.88-14.68-11.81-30-2-5,3.23-6.23,6.32-10.68,9.88-9.22,7.34-25.64,18.46-35.22,16.49a26.36,26.36,0,0,1-4.7-.59,11.46,11.46,0,0,1,1.37,4.81c.06,1.06-1,4.74-.94,6,.1,0-2.65,4.7-2.53,4.68a42.42,42.42,0,0,1,4.35.16l-.21,0a109.41,109.41,0,0,1-31.75.76,131.52,131.52,0,0,1-31.79-8.4c-10.29-4.07-20.25-9-30.37-14a320.15,320.15,0,0,0-29.93-13.29,148,148,0,0,0-30.05-7.55,176.29,176.29,0,0,0-55.25.57c-16.06,2.71-30.51,8.1-42.25,17-3.77,2.82-20.13,39.3-28.22,56.07a62.75,62.75,0,0,1,6.3-5.55,80.33,80.33,0,0,1,15.48-9.54,91.71,91.71,0,0,1,22.83-7.22,117.05,117.05,0,0,1,27.77-1.51,170.09,170.09,0,0,1,30,4.52,298.32,298.32,0,0,1,30.91,9.31q7.8,2.75,15.72,5.74l7.9,2.87c2.7,1,5.38,1.88,8.13,2.77,21.84,7.21,35.48,13.53,56.15,15.35s43.33,5.8,59.52,2.85,30.32-5.89,39.19-9.25c.86-.28,3.48.21,3.77.1.11,0,2.84-2,3.9-2.73C431.22,589,446.79,534.41,438.1,538.67Z" transform="translate(-65.99 -129.62)"/><path class="cls-6" d="M512.76,535.49a221.86,221.86,0,0,0,29.1-3.22,98.55,98.55,0,0,0,12.88-3.22,121.79,121.79,0,0,0,11.6-4.4,113.24,113.24,0,0,0,19-10.58c9.9-6.74,14.64-13.32,18.63-18.24a3.83,3.83,0,0,1-.58.52,76.21,76.21,0,0,1-10.45,6.84A97.88,97.88,0,0,1,577.05,510c-12.36,4.1-27.93,6.64-44.53,7a235.5,235.5,0,0,1-51.93-5c-2.22-.46-4.26-1-6.33-1.36s-4.15-.75-6.24-1.1c-4.17-.62-8.34-1.07-12.53-1.38-8.42-.59-15-2.8-23-2.25-15.81,1.09-30.3,4.18-41.36,8.62-5.59,2.26-14.26,5.39-17.69,8.35-13.19,11.31-21.33,25.78,9.77,20.89,7.28-2.45,15.79-7,26.58-16,4.55-3.77,20-15.16,33.14-11.45,5.31,1.47,4.87,8.58,4.24,13.7,0,2.07-2.28,14.18-7,29.79a186.68,186.68,0,0,1,18.8.74q6.12.54,12.27,1.57c2.07.33,4.12.72,6,1s3.91.62,5.91.89a184.27,184.27,0,0,0,47.35,0,203.76,203.76,0,0,0,38.92-9,215.94,215.94,0,0,0,23-9.29,105.93,105.93,0,0,1-22.46,4.6c-11.06,1.24-28-.33-43.29-1.25-7.63-.41-15.58-1.86-24-3.13-29.49-4.5-38.78-13.06-38.78-13.06S502.46,536,512.76,535.49Z" transform="translate(-65.99 -129.62)"/><path class="cls-1" d="M555.56,519.74a150.68,150.68,0,0,1-24.09,2.61c-5.28.17-11.16.17-17.6-.17-3.22-.17-6.58-.41-10.06-.77s-7.11-.88-10.89-1.25c-7.56-.79-15.66-1.41-24.26-2.12s-17.7-1.49-27.16-2.93h0a14.91,14.91,0,0,0-8.78,1.09A36.49,36.49,0,0,0,426,520a117.62,117.62,0,0,0-9.53,7.54c-2.52,2.17-4.5,3.83-5.89,4.9s-2.17,1.57-2.17,1.57.81-.41,2.26-1.34,3.54-2.41,6.2-4.37,5.88-4.39,9.86-6.82a37,37,0,0,1,6.61-3.27,12.83,12.83,0,0,1,7.67-.65l.31-1.19-.18,1.21.29,0-.5.14a11.81,11.81,0,0,0-2.09.95,27.92,27.92,0,0,0-3.41,2.34c-2.07,1.64-3.86,3.32-5.54,4.86a31.08,31.08,0,0,1-2.48,2.1L425,529.88c-1.52,1.24-2.91,2.36-4.19,3.32a35.35,35.35,0,0,1-6.26,3.91,19.36,19.36,0,0,1-2.42.93,17.42,17.42,0,0,0,2.46-.68,33.45,33.45,0,0,0,6.57-3.38c1.36-.86,2.84-1.88,4.43-3l2.5-1.76a29.38,29.38,0,0,0,2.71-2c1.79-1.45,3.66-3,5.74-4.49a27,27,0,0,1,3.29-2.05c1.1-.57,2.47-1,3.18-.79l.56-2c8.54,1.09,16.74,1.69,24.52,2.23,8.53.57,16.57,1,24.08,1.67,3.75.3,7.35.72,10.87,1s6.9.5,10.15.61c6.49.22,12.44.12,17.78-.17a148.19,148.19,0,0,0,24.43-3.2c5.5-1.25,8.3-2.28,8.31-2.25S561,518.64,555.56,519.74Z" transform="translate(-65.99 -129.62)"/><path class="cls-1" d="M422.4,566.22a62.86,62.86,0,0,0,8.86-4.5,22.71,22.71,0,0,0,4.86-4.19,17.22,17.22,0,0,0,3.44-6.53l-2.37-.6a15.33,15.33,0,0,1-2.61,5.78,21.56,21.56,0,0,1-4.15,4.12,64.89,64.89,0,0,1-8.29,5.1,77.27,77.27,0,0,0-7.28,4.3S417.45,568.32,422.4,566.22Z" transform="translate(-65.99 -129.62)"/><path class="cls-1" d="M417.27,578.29a23.49,23.49,0,0,1-8.74,2.26,20.3,20.3,0,0,0,2.32,0,24.51,24.51,0,0,0,6.6-1.41c5.58-1.93,13.16-6.63,20.08-15l-1.93-1.51C429.49,570.8,422.54,575.93,417.27,578.29Z" transform="translate(-65.99 -129.62)"/><path class="cls-1" d="M418.82,582.91c-3.16,1.42-6,2.55-8.2,3.65A36.4,36.4,0,0,0,404,590.5a41.82,41.82,0,0,1,6.84-3.12c2.28-.86,5.14-1.72,8.47-2.9a35.43,35.43,0,0,0,10.83-5.72l-1.62-1.84A35.29,35.29,0,0,1,418.82,582.91Z" transform="translate(-65.99 -129.62)"/><path class="cls-1" d="M413.61,595.07a83.5,83.5,0,0,1-8.94,3.19c-5,1.5-7.91,2.17-7.9,2.19s2.83-.32,8-1.34a72.3,72.3,0,0,0,9.31-2.47,37.09,37.09,0,0,0,11.56-6.12L424,588.68A37.19,37.19,0,0,1,413.61,595.07Z" transform="translate(-65.99 -129.62)"/><path class="cls-1" d="M389.56,553.25a80.57,80.57,0,0,1-10.84,2.54,69.87,69.87,0,0,1-14.7,1l-.09,2.45a66.43,66.43,0,0,0,14.94-1.84,75,75,0,0,0,10.83-3.33,36.34,36.34,0,0,0,8.54-4.53A39.18,39.18,0,0,1,389.56,553.25Z" transform="translate(-65.99 -129.62)"/><path class="cls-1" d="M365.33,553.51a54.78,54.78,0,0,0,20.89-4.93,52.41,52.41,0,0,0,6.93-3.76,63.82,63.82,0,0,1-7.13,2.93,59.15,59.15,0,0,1-20.69,3.31Z" transform="translate(-65.99 -129.62)"/><path class="cls-1" d="M424,536.34l-7.48,5.43s2.78-1.6,7.83-4.65a129,129,0,0,0,20.49-14.83l-1.7-1.76A152.65,152.65,0,0,1,424,536.34Z" transform="translate(-65.99 -129.62)"/><path class="cls-1" d="M377.7,529.47a72,72,0,0,1,11-7.3c6.45-3.48,10.22-5.13,10.19-5.17s-3.75,1.31-10.41,4.34a69.82,69.82,0,0,0-11.65,6.71A34.6,34.6,0,0,0,365.22,542l2.26.93A33.31,33.31,0,0,1,377.7,529.47Z" transform="translate(-65.99 -129.62)"/><path class="cls-1" d="M385.85,529.76a69.42,69.42,0,0,0-7.71,5.24,58.27,58.27,0,0,0-9,8.73l1.94,1.5a60.89,60.89,0,0,1,8-8.89,79.41,79.41,0,0,1,7.11-5.81c4.12-3,6.63-4.35,6.61-4.37A66.73,66.73,0,0,0,385.85,529.76Z" transform="translate(-65.99 -129.62)"/><path class="cls-1" d="M379.12,544a48.72,48.72,0,0,1,9.68-8.31l4-2.69s-1.57.6-4.37,1.92a41,41,0,0,0-11.12,7.42Z" transform="translate(-65.99 -129.62)"/><path class="cls-1" d="M495.63,559.59a90.49,90.49,0,0,1-16.08-2.45,179.17,179.17,0,0,0-40.15-4.38v2.45a183.27,183.27,0,0,1,39.36,3.42,89.57,89.57,0,0,0,16.32,2.15c5.06.25,9.69.22,13.85.08,16.65-.6,25.71-2.9,25.7-2.84s-8.86,1.84-25.32,2C505.2,560,500.63,560,495.63,559.59Z" transform="translate(-65.99 -129.62)"/><path class="cls-1" d="M442.58,548.85a210.26,210.26,0,0,1,22.84.45c5.41.46,8.41,1,8.41,1s-2.83-.85-8.17-1.8a158,158,0,0,0-23.08-2.07Z" transform="translate(-65.99 -129.62)"/><path class="cls-1" d="M444.17,542.5c10-.19,16.43-.18,16.41-.16a116.49,116.49,0,0,0-16.41-2.29Z" transform="translate(-65.99 -129.62)"/><path class="cls-1" d="M456.88,533.33a18.22,18.22,0,0,0-3-1.05,44.42,44.42,0,0,0-8.67-1.23v2.44c3.6-.27,6.48-.45,8.5-.39A29.77,29.77,0,0,1,456.88,533.33Z" transform="translate(-65.99 -129.62)"/><path class="cls-1" d="M511.74,529.15a270.53,270.53,0,0,1-28.24-2c-2.72-.33-5.6-.81-8.57-1.08s-6.05-.52-9.2-.76c-6.29-.52-13-1-19.68-2.65l-.59,2.37c6.92,1.62,13.6,1.92,19.84,2.3,3.13.18,6.16.33,9.09.55s5.72.56,8.51.84A258.44,258.44,0,0,0,511.36,530c15.71-.17,24.26-2.41,24.24-2.37S527.25,529.43,511.74,529.15Z" transform="translate(-65.99 -129.62)"/><path class="cls-1" d="M95.34,578.26A35.66,35.66,0,0,0,86,585.43l1.9,1.54a36,36,0,0,1,8.2-7.25,65.84,65.84,0,0,1,7.36-4.29,45.33,45.33,0,0,1,6.78-2.79,37.71,37.71,0,0,0-7,2A56.21,56.21,0,0,0,95.34,578.26Z" transform="translate(-65.99 -129.62)"/><path class="cls-1" d="M90.84,576.27,92.53,578a75.06,75.06,0,0,1,13.86-11,40.46,40.46,0,0,1,5.88-3,34.49,34.49,0,0,0-6.18,2.22A63.83,63.83,0,0,0,90.84,576.27Z" transform="translate(-65.99 -129.62)"/><path class="cls-1" d="M94.87,567.54l1.32,2.05,13.34-9.4,5-3.39s-1.93.85-5.35,2.62S100.87,564,94.87,567.54Z" transform="translate(-65.99 -129.62)"/><path class="cls-1" d="M105.64,555.75A60.45,60.45,0,0,0,98,560.12l1.47,2a128.9,128.9,0,0,1,12.46-8.28c3.06-1.91,4.67-3.11,4.67-3.1s-1.75.85-5,2.31C110,553.75,108,554.64,105.64,555.75Z" transform="translate(-65.99 -129.62)"/><path class="cls-1" d="M108.88,548.52c-2.07,1.12-4.42,2.41-7.09,3.56l1.06,2.21a64.22,64.22,0,0,0,6.82-4.34l4.89-3.56c2.69-1.94,4.27-2.92,4.27-2.93s-1.69.65-4.64,2.18C112.72,546.39,110.94,547.38,108.88,548.52Z" transform="translate(-65.99 -129.62)"/><path class="cls-1" d="M105.16,545.68l1.55,1.89a98.88,98.88,0,0,1,11.78-8.82l4.63-3s-1.78.7-5,2.2A73.57,73.57,0,0,0,105.16,545.68Z" transform="translate(-65.99 -129.62)"/><path class="cls-1" d="M424.46,556.1A64.18,64.18,0,0,0,435,549a34.15,34.15,0,0,0,5.58-5.86,17.73,17.73,0,0,0,3.57-8.66l-2.44-.19a15.64,15.64,0,0,1-2.75,7.59,33.38,33.38,0,0,1-4.91,5.78,68,68,0,0,1-9.84,7.6,103.12,103.12,0,0,1-9.32,5.36A87.47,87.47,0,0,0,424.46,556.1Z" transform="translate(-65.99 -129.62)"/><path class="cls-1" d="M603.64,540.83c-.1-.1-.56,0-1.34.32-1.78.48-5.33,1.39-9.22,2.3a139.83,139.83,0,0,1-24.85,3.29c-10.76.59-23.79.11-38.7-1.23-15.43-1.39-35.93-5.59-36.27-5.67,2.2-.16,15.77.19,17.88,0,10.53-.86,21.05-1,30.4-3.1a110.83,110.83,0,0,0,13.52-3.83,124.32,124.32,0,0,0,31.26-16.79A104.61,104.61,0,0,0,607.67,495a96.06,96.06,0,0,0,5.7-8.29,38,38,0,0,0-3.17,2.57c-.46-.2-3.24,2.06-8.78,5.55a97.07,97.07,0,0,1-25.83,11.35c-11.63,3.43-30,7.26-45.78,7.27s-71.45-12.08-103.08-8.79c-16.86,1.74-27.71,3.5-39.41,8.84a82.69,82.69,0,0,0-14.67,8.46,59.24,59.24,0,0,0-9.5,8.43c-2,2.42-5.15,6.39-4.93,9.3.23,2.43,2.15,7.45,3.38,10.06,2.67,5.47-1.46,10.88-1.46,10.88a121.15,121.15,0,0,1-24.65-1.43c-9.87-1.41-21.41-5-31.16-9s-17.34-7.32-27.51-12.33-23.27-10.93-33.89-14.25c-14.24-4.44-23.09-7.07-33.73-8.48-21.28-2.68-39.06-2-55.88,1.72s-24.4,7.65-32.94,12.31-9.27,4.16-10.9,7.36c-38,74.63-27,61.85-26.83,61.92s.14,0,.26,0c-.26,0,0,0,1.76-1,.4-.28.87-.59,1.4-1,2.06-1.46,5-3.64,9-6.12a90.42,90.42,0,0,1,15.11-7.7c19.3-7.6,28.61-8.42,47.11-8.37,14.51.07,45.92,7.57,56.1,11.28,5.06,1.88,13.26,4.42,18.55,6.44,2.64,1,20.4,6.27,23.16,7.26,47.51,16.58,89.36,17.64,117.35,14.59,18.81-2.06,37.06-7.23,45.64-11.83,1.89-1,6.24-6.17,9.27-13.29,4.08-7.89,7.32-12.23,11.11-23.38,5.91,0,12.06.3,18.25.92,3.82.38,7.74.91,11.64,1.57l5.92,1.07c2.06.4,4.15.68,6.3,1a182.33,182.33,0,0,0,50.13-.49,186.38,186.38,0,0,0,40.59-10.68A153.32,153.32,0,0,0,596,546.6C601.39,543.25,604,541.11,603.64,540.83Zm-239.34,5.5a26.36,26.36,0,0,0,4.7.59c9.58,2,23.79-4,33-11.36,4.45-3.56,10.61-10.07,15.57-13.24,15.33-9.83,27-7.42,26.2,2.39-.22,2.86-3,6.71-6.3,8.94-1,.56-8.43,6.07-8.52,6.14s-43.38,22.68-64.83,20.93C364,560.71,371,552.73,364.3,546.33Zm51.25,53.29c-4.23,3-29,8.65-48,11.09-16.34,2.12-31.35,1.25-52-.55s-41.85-8.33-63.69-15.54c-2.75-.89-5.43-1.79-8.13-2.77l-7.9-2.87q-7.91-3-15.72-5.74a298.32,298.32,0,0,0-30.91-9.31,170.09,170.09,0,0,0-30-4.52,117.05,117.05,0,0,0-27.77,1.51,111.36,111.36,0,0,0-25.15,7.78c-6.46,3.08-14.15,7.57-18.06,10.67-2.63,2.06-1.4,3.86-1.4,3.86C94.82,576.46,111.18,540,115,537.16c11.74-8.9,26.19-14.29,42.25-17a176.29,176.29,0,0,1,55.25-.57,148,148,0,0,1,30.05,7.55,320.15,320.15,0,0,1,29.93,13.29c10.12,5,20.08,9.92,30.37,14s23.79,8.89,34.62,10.22,23.87.83,34.07,0c16.43-1.32,45.21-8.85,66.61-26C446.74,533.54,425,593.86,415.55,599.62ZM569.5,555a203.76,203.76,0,0,1-38.92,9,184.27,184.27,0,0,1-47.35,0c-2-.27-4-.57-5.91-.89s-4-.72-6-1q-6.15-1-12.27-1.57a186.68,186.68,0,0,0-18.8-.74c4.72-15.61,7-27.72,7-29.79.63-5.12,2.63-15.45-6.06-18.4-10.26-3.48-24.56,3.56-29.11,7.28-10.8,9-20.64,19.31-27.92,21.76-33.82,6.4-19.2-10.14-8.66-16.46a92.29,92.29,0,0,1,14.1-7.21c11.06-4.44,25.52-7.75,41.33-8.85a171.13,171.13,0,0,1,24.6,0c4.19.31,8.36.76,12.53,1.38,2.09.35,4.18.71,6.24,1.1s4.11.9,6.33,1.36a235.5,235.5,0,0,0,51.93,5c16.6-.33,32.17-2.87,44.53-7a97.88,97.88,0,0,0,15.88-6.82,76.21,76.21,0,0,0,10.45-6.84,3.83,3.83,0,0,0,.58-.52c-4,4.92-8.73,11.5-18.63,18.24a113.24,113.24,0,0,1-19,10.58,121.79,121.79,0,0,1-11.6,4.4,98.55,98.55,0,0,1-12.88,3.22,221.86,221.86,0,0,1-29.1,3.22c-10.3.46-48.79-2.61-48.79-2.61s9.29,8.56,38.78,13.06c8.43,1.27,16.38,2.72,24,3.13,15.29.92,32.23,2.49,43.29,1.25a105.93,105.93,0,0,0,22.46-4.6A215.94,215.94,0,0,1,569.5,555Z" transform="translate(-65.99 -129.62)"/></svg>